<?xml version="1.0" encoding="UTF-8"?>
<svg id="_Слой_2" data-name="Слой_2" xmlns="http://www.w3.org/2000/svg" width="1261.27" height="447.93" viewBox="0 0 1261.27 447.93">
  <defs>
    <style>
      .cls-1 {
        fill: #534c53;
        isolation: isolate;
      }

      .cls-2 {
        fill: #ff8133;
      }

      .cls-3 {
        fill: #e20613;
      }
    </style>
  </defs>
  <g id="_Слой_1-2" data-name="Слой_1">
    <g>
      <path id="svg_1" class="cls-3" d="M389.83,396.13c-4.41,10.93-9.98,21.48-16.69,31.08-3.26,5.18-7.86,9.21-13.24,12.28-5.37,2.88-11.32,4.41-17.46,4.41-43.35,1.15-86.71.77-130.25,0-16.5,0-26.66-9.4-33.38-22.64-12.47-25.51-24.55-51.22-36.45-76.92C96.91,247.84,51.64,151.16,6.37,54.48c-2.49-4.99-4.41-10.36-5.56-15.73C-3.41,17.84,9.25.96,31.88.58,74.85-.19,118.01-.19,161.17.58c8.06-.19,16.11,2.3,23.02,6.71,6.71,4.41,11.89,10.93,14.77,18.22,24.55,53.14,49.68,105.7,74.81,158.45,1.15,2.3,1.53,5.18,4.6,6.33.38,1.92.77,3.84,1.53,5.75,29.35,63.3,60.04,126.03,88.62,189.53,6.33,14,10.36,15.73,21.29,10.55Z"/>
      <path id="svg_2" class="cls-2" d="M389.83,396.13c-10.93,5.18-14.96,3.45-21.1-10.55-28.58-63.5-59.27-126.22-88.82-189.33-.58-1.73-1.15-3.64-1.53-5.56,5.37-14,12.09-27.43,19.76-40.28,3.64-6.14,9.02-11.32,15.54-14.77,6.33-3.45,13.62-5.18,21.1-4.8h133.13c25.32,1.73,38.37,20.33,29.54,43.35-9.21,24.55-22.25,47.19-33.38,70.59-24.17,50.26-48.72,100.33-73.28,150.59-.19.19-.58.38-.96.77Z"/>
      <path id="svg_3" class="cls-1" d="M628.87,331.83v113.09h-22.62v-94.7l-21.97,94.7h-23.91l-21.19-94.7-.29,94.7h-22.62v-113.09h35.43l21.04,89.12,21.04-89.12s35.07,0,35.07,0Z"/>
      <path id="svg_4" class="cls-1" d="M652.35,444.92v-113.09h51.32c17.61,0,30.42,6.3,38.51,18.83,6.37,10.59,9.45,22.76,8.95,35.07.5,13.53-2.86,26.91-9.73,38.65-3.87,6.59-9.52,11.95-16.39,15.6-6.8,3.65-14.53,5.37-22.26,5.01,0,0-50.39-.07-50.39-.07ZM676.04,351.3v74.16h23.76c4.29.14,8.45-.93,12.1-3.08,3.65-2.15,6.59-5.23,8.45-8.88,4.29-8.02,6.37-16.96,6.08-26.05,0-14.67-3.22-24.84-9.52-30.49-4.8-4.01-11.02-6.01-17.32-5.65,0,0-23.55,0-23.55,0Z"/>
      <path id="svg_5" class="cls-1" d="M860.57,332.76l44.24,112.16h-11.24l-13.31-35.15h-52.54l-13.6,35.15h-11.31l45.38-112.16s12.38,0,12.38,0ZM831.37,400.76h45.24l-22.69-58.91-22.55,58.91Z"/>
      <path id="svg_6" class="cls-1" d="M930.22,332.76v66.85c0,13.89,2.72,24.05,8.02,30.06,5.37,6.01,14.03,9.23,25.84,9.23,5.37.14,10.74-.72,15.82-2.43,4.15-1.5,7.8-4.01,10.59-7.3,2.79-3.65,4.8-7.8,5.73-12.31,1.29-5.65,1.86-11.45,1.79-17.25v-66.85h10.81v70c0,14.6-3.72,25.77-11.17,33.5-7.44,7.8-18.61,11.67-33.57,11.67s-26.34-3.94-33.71-11.88c-7.8-9.38-11.67-21.26-10.81-33.28v-70s10.67,0,10.67,0Z"/>
      <path id="svg_7" class="cls-1" d="M1034.87,332.76h48.96c3.08.14,6.08.57,9.09,1.15s6.01,1.43,8.8,2.58c2.93,1.15,5.73,2.65,8.3,4.44,3.79,2.72,7.01,6.08,9.45,9.95s4.44,8.02,5.87,12.31c1.43,4.22,2.43,8.59,3.01,13.03.64,4.08.93,8.16.93,12.24,0,3.87-.29,7.66-.72,11.38-.5,3.87-1.29,7.59-2.36,11.31-1.07,3.65-2.51,7.16-4.22,10.52-1.79,3.44-4.01,6.51-6.66,9.31-2.51,2.93-5.44,5.44-8.8,7.37-3.08,1.79-6.37,3.15-9.88,4.08-3.51,1.07-7.16,1.72-10.81,2.08-3.79.36-7.66.57-11.45.5h-39.51s0-112.24,0-112.24ZM1045.75,435.91h26.13c4.65,0,9.31-.29,13.89-.93,4.65-.64,9.09-2.08,13.24-4.22,3.72-1.79,6.94-4.37,9.45-7.66,2.43-3.22,4.44-6.73,5.87-10.52,1.43-3.87,2.51-7.87,3.08-12.03.57-3.94.86-8.02.86-12.03s-.29-8.3-.86-12.38c-.5-4.15-1.5-8.16-3.01-12.03-1.5-3.79-3.51-7.37-6.16-10.52-2.65-3.29-6.01-6.01-9.88-7.87-3.79-1.86-7.95-3.08-12.17-3.44-4.72-.57-9.52-.86-14.32-.79h-26.05s-.07,94.41-.07,94.41Z"/>
      <path id="svg_8" class="cls-1" d="M1161.56,444.92h-10.81v-112.16h10.81v112.16Z"/>
      <path id="svg_9" class="cls-1" d="M1224.63,444.92h-10.81v-103.15h-36.58v-9.02h84.03v9.02h-36.51l-.14,103.15Z"/>
    </g>
  </g>
</svg>