<svg width="81" height="57" viewBox="0 0 81 57" fill="none" xmlns="http://www.w3.org/2000/svg">
<path d="M30.9089 42.8781C30.9089 43.4077 31.0969 43.8244 31.473 44.1283C31.849 44.4329 32.3836 44.5845 33.0769 44.5845C34.1658 44.5845 35.0618 44.246 35.7643 43.569C36.4667 42.8926 36.8189 42.0743 36.8189 41.1134V40.5243L33.641 40.8483C31.819 41.006 30.9089 41.6818 30.9089 42.8781ZM26.3052 43.1134C26.3052 40.2113 28.5425 38.554 33.0175 38.1415L36.8189 37.789V37.3771C36.8189 35.7295 35.9376 34.896 34.1756 34.8766C33.3837 34.8766 32.745 35.0434 32.2605 35.3764C31.7749 35.7101 31.503 36.2002 31.4436 36.8475H27.1669C27.2263 35.0234 27.9092 33.6997 29.2161 32.8759C30.5225 32.0527 32.1754 31.6408 34.1756 31.6408C36.4925 31.6408 38.2887 32.1946 39.5663 33.303C40.8432 34.4107 41.4813 36.0929 41.4813 38.3477V47.4084H37.1453V44.7902C35.9774 46.7714 34.1162 47.7615 31.5624 47.7615C29.8794 47.7615 28.5823 47.3302 27.6716 46.4669C26.7609 45.6043 26.3052 44.4863 26.3052 43.1134Z" fill="#00539F"/>
<path d="M44.4363 26.8159H49.0994V30.8755H44.4363V26.8159ZM41.5554 53.5278V49.8207C41.872 49.8401 42.2585 49.8498 42.7135 49.8498C43.367 49.8498 43.8171 49.6981 44.0646 49.3942C44.3126 49.0903 44.4363 48.497 44.4363 47.6144V31.9941H49.0988V48.7324C49.0988 50.5171 48.7374 51.7819 48.0148 52.5275C47.2921 53.2724 46.0201 53.6455 44.1987 53.6455C43.664 53.6455 42.7827 53.6055 41.5554 53.5278Z" fill="#00539F"/>
<path d="M57.0093 36.4799C56.3455 37.3134 56.0147 38.3878 56.0147 39.7005C56.0147 41.0151 56.3455 42.0888 57.0093 42.9224C57.6726 43.7559 58.5784 44.172 59.7267 44.172C60.8554 44.172 61.7508 43.7559 62.4147 42.9224C63.0773 42.0888 63.4093 41.0151 63.4093 39.7005C63.4093 38.3878 63.0773 37.3134 62.4147 36.4799C61.7508 35.6464 60.8554 35.2296 59.7267 35.2296C58.5784 35.2296 57.6726 35.6464 57.0093 36.4799ZM53.6532 45.5843C52.1582 44.1332 51.4111 42.172 51.4111 39.7005C51.4111 37.2297 52.1582 35.2691 53.6532 33.8174C55.1481 32.3663 57.1728 31.6402 59.7267 31.6402C62.2609 31.6402 64.2752 32.3615 65.7702 33.8028C67.2651 35.2442 68.0129 37.2103 68.0129 39.7005C68.0129 42.192 67.2651 44.1581 65.7702 45.5994C64.2752 47.0408 62.2609 47.7615 59.7267 47.7615C57.1728 47.7615 55.1481 47.0365 53.6532 45.5843Z" fill="#00539F"/>
<path d="M79.1884 31.6699C79.8216 31.6699 80.4255 31.7488 80.9999 31.9053V35.9352C80.0096 35.7587 79.1884 35.6707 78.5349 35.6707C77.307 35.6707 76.4116 36.0238 75.8475 36.7299C75.2829 37.436 75.0011 38.6123 75.0011 40.2599V47.4084H70.3381V31.9939H74.6741V34.8469C75.6246 32.7291 77.1287 31.6699 79.1884 31.6699Z" fill="#00539F"/>
<path d="M44.4363 26.8159H49.0994V30.8755H44.4363V26.8159ZM41.5554 53.5278V49.8207C41.872 49.8401 42.2585 49.8498 42.7135 49.8498C43.367 49.8498 43.8171 49.6981 44.0646 49.3942C44.3126 49.0903 44.4363 48.497 44.4363 47.6144V31.9941H49.0988V48.7324C49.0988 50.5171 48.7374 51.7819 48.0148 52.5275C47.2921 53.2724 46.0201 53.6455 44.1987 53.6455C43.664 53.6455 42.7827 53.6055 41.5554 53.5278Z" fill="#E10000"/>
<path d="M28.0611 7.68944H24.9243L23.5959 10.8263L23.588 12.1433V14.1706H24.4239V14.1712C24.4239 14.9526 25.0676 15.5871 25.8607 15.5871C26.6568 15.5871 27.2999 14.9526 27.2999 14.1712V14.1706H30.3204V14.1712C30.3204 14.9526 30.9646 15.5871 31.7589 15.5871C32.5514 15.5871 33.1994 14.9526 33.1994 14.1712V14.1706H33.5007V14.1712C33.5007 14.9526 34.1437 15.5871 34.9387 15.5871C35.7305 15.5871 36.3772 14.9526 36.3772 14.1712C36.3772 14.1706 36.3772 14.1706 36.3772 14.1706H36.948V12.1433H28.0611V7.68944ZM28.4978 11.738H36.956V5.76583H28.4978V11.738ZM11.8019 5.67241C11.8019 5.67241 12.2606 4.17465 11.0933 4.17465L7.46653 9.2151H10.544L11.8019 5.67241ZM16.5678 7.97212H15.7557L14.5406 9.86964L10.3823 9.66946L7.14133 9.66764L7.13949 9.66946H5.09583C4.09146 9.66946 3.20467 10.0595 3.20467 10.5685C3.20467 11.0896 4.09146 11.4699 5.09583 11.4699H7.13949L11.0933 16.9623C12.2606 16.9623 11.8019 15.4639 11.8019 15.4639L10.3823 11.4699L14.5406 11.2703L15.7557 13.1703H16.5678L15.8598 11.2703L15.7673 10.5685L15.8598 9.86964L16.5678 7.97212ZM54.1443 6.5229H56.1102V8.45864H54.1443V6.5229ZM53.4216 11.7198H57.2144V7.13437H57.6345V5.70881H53.4216V11.7198ZM45.9954 14.1925H46.9869C46.9869 14.1943 46.9875 14.1961 46.9875 14.1979C46.9875 14.4666 46.7652 14.685 46.4908 14.685C46.2195 14.685 45.9948 14.4666 45.9948 14.1979C45.9948 14.1961 45.9954 14.1943 45.9954 14.1925ZM49.5144 14.1925H50.5028C50.5028 14.1943 50.5034 14.1961 50.5034 14.1979C50.5034 14.4666 50.2817 14.685 50.0086 14.685C49.7348 14.685 49.5137 14.4666 49.5137 14.1979C49.5137 14.1961 49.5144 14.1943 49.5144 14.1925ZM52.9249 14.1925H53.9171C53.9171 14.1943 53.9177 14.1961 53.9177 14.1979C53.9177 14.4666 53.6954 14.685 53.4216 14.685C53.1473 14.685 52.9243 14.4666 52.9243 14.1979C52.9243 14.1961 52.9249 14.1943 52.9249 14.1925ZM44.7062 12.7663H44.2671V14.1925H45.0455C45.0455 14.1943 45.0449 14.1961 45.0449 14.1979C45.0449 14.9847 45.6922 15.6235 46.4908 15.6235C47.2919 15.6235 47.9392 14.9847 47.9392 14.1979C47.9392 14.1961 47.9386 14.1943 47.9386 14.1925H48.5608C48.5608 14.1943 48.5602 14.1961 48.5602 14.1979C48.5602 14.9847 49.2088 15.6235 50.0086 15.6235C50.806 15.6235 51.4582 14.9847 51.4582 14.1979C51.4582 14.1961 51.4576 14.1943 51.4576 14.1925H51.9751C51.9751 14.1943 51.9745 14.1961 51.9745 14.1979C51.9745 14.9847 52.6218 15.6235 53.4216 15.6235C54.219 15.6235 54.8694 14.9847 54.8694 14.1979C54.8694 14.1961 54.8688 14.1943 54.8688 14.1925H57.1954V12.1548H44.7062V12.7663ZM52.9831 11.7198V7.64333H46.6464V6.01455H45.5354V7.64333H44.7062C44.144 8.94515 44.144 10.418 44.7062 11.7198H52.9831ZM58.9775 15.416C58.9775 16.2641 58.9763 16.8119 58.942 17.2286C58.9089 17.6284 58.8526 17.7764 58.8152 17.8492C58.6732 18.1258 58.446 18.3509 58.1667 18.4922C58.0932 18.5292 57.9431 18.5844 57.5396 18.6172C57.1188 18.6517 56.5658 18.6524 55.7096 18.6524H45.9066C45.0504 18.6524 44.4974 18.6517 44.0766 18.6172C43.673 18.5844 43.5236 18.5292 43.4501 18.4922C43.1709 18.3509 42.943 18.1258 42.801 17.8492C42.7636 17.7764 42.7073 17.6284 42.6742 17.2286C42.6399 16.8119 42.6387 16.2641 42.6387 15.416V5.70577C42.6387 4.85711 42.6399 4.30932 42.6742 3.89257C42.7073 3.49281 42.7636 3.34479 42.801 3.272C42.943 2.99538 43.1709 2.77032 43.4501 2.62897C43.5236 2.59197 43.673 2.53677 44.0766 2.50401C44.4974 2.46943 45.0504 2.46883 45.9066 2.46883H55.7096C56.5658 2.46883 57.1188 2.46943 57.5396 2.50401C57.9431 2.53677 58.0932 2.59197 58.1667 2.62897C58.446 2.77032 58.6732 2.99538 58.8152 3.272C58.8526 3.34479 58.9089 3.49281 58.942 3.89257C58.9763 4.30932 58.9775 4.85711 58.9775 5.70577V15.416ZM58.841 1.31806C58.2053 0.997763 57.3736 0.997763 55.7096 0.997763H45.9066C44.2432 0.997763 43.4109 0.997763 42.7752 1.31806C42.2167 1.60014 41.7623 2.05025 41.4775 2.6041C41.1535 3.23378 41.1535 4.05758 41.1535 5.70577V15.416C41.1535 17.0636 41.1535 17.8874 41.4775 18.5171C41.7623 19.0709 42.2167 19.521 42.7752 19.8031C43.4109 20.124 44.2432 20.124 45.9066 20.124H55.7096C57.3736 20.124 58.2053 20.124 58.841 19.8031C59.3995 19.521 59.8545 19.0709 60.1387 18.5171C60.4627 17.8874 60.4627 17.0636 60.4627 15.416V5.70577C60.4627 4.05758 60.4627 3.23378 60.1387 2.6041C59.8545 2.05025 59.3995 1.60014 58.841 1.31806ZM38.4411 15.416C38.4411 16.2641 38.4399 16.8119 38.405 17.2286C38.3719 17.6284 38.3162 17.7764 38.2788 17.8492C38.1367 18.1258 37.9095 18.3509 37.6297 18.4922C37.5562 18.5292 37.4067 18.5844 37.0031 18.6172C36.5824 18.6517 36.0294 18.6524 35.1732 18.6524H25.3701C24.5134 18.6524 23.961 18.6517 23.5396 18.6172C23.1366 18.5844 22.9866 18.5292 22.9131 18.4922C22.6338 18.3509 22.4066 18.1258 22.2645 17.8492C22.2272 17.7764 22.1708 17.6284 22.1378 17.2286C22.1035 16.8119 22.1022 16.2641 22.1022 15.416V5.70577C22.1022 4.85711 22.1035 4.30932 22.1378 3.89257C22.1708 3.49281 22.2272 3.34479 22.2645 3.272C22.4066 2.99538 22.6338 2.77032 22.9131 2.62897C22.9866 2.59197 23.1366 2.53677 23.5396 2.50401C23.961 2.46943 24.5134 2.46883 25.3701 2.46883H35.1732C36.0294 2.46883 36.5824 2.46943 37.0031 2.50401C37.4067 2.53677 37.5562 2.59197 37.6297 2.62897C37.9095 2.77032 38.1367 2.99538 38.2788 3.272C38.3162 3.34479 38.3719 3.49281 38.405 3.89257C38.4399 4.30932 38.4411 4.85711 38.4411 5.70577V15.416ZM38.3039 1.31806C37.6688 0.997763 36.8366 0.997763 35.1732 0.997763H25.3701C23.7062 0.997763 22.8745 0.997763 22.2388 1.31806C21.6797 1.60014 21.2259 2.05025 20.9411 2.6041C20.6171 3.23378 20.6171 4.05758 20.6171 5.70577V15.416C20.6171 17.0636 20.6171 17.8874 20.9411 18.5171C21.2259 19.0709 21.6797 19.521 22.2388 19.8031C22.8745 20.124 23.7062 20.124 25.3701 20.124H35.1732C36.8366 20.124 37.6688 20.124 38.3039 19.8031C38.8631 19.521 39.3175 19.0709 39.6023 18.5171C39.9262 17.8874 39.9262 17.0636 39.9262 15.416V5.70577C39.9262 4.05758 39.9262 3.23378 39.6023 2.6041C39.3175 2.05025 38.8631 1.60014 38.3039 1.31806ZM79.514 15.416C79.514 16.2641 79.5127 16.8119 79.4784 17.2286C79.4454 17.6284 79.3896 17.7764 79.3523 17.8492C79.2096 18.1258 78.983 18.3509 78.7031 18.4922C78.6296 18.5292 78.4802 18.5844 78.0766 18.6172C77.6559 18.6517 77.1029 18.6524 76.2467 18.6524H66.4436C65.5868 18.6524 65.0338 18.6517 64.6131 18.6172C64.2101 18.5844 64.06 18.5292 63.9866 18.4922C63.7073 18.3509 63.4801 18.1258 63.3374 17.8492C63.3 17.7764 63.2437 17.6284 63.2112 17.2286C63.1769 16.8119 63.1757 16.2641 63.1757 15.416V5.70577C63.1757 4.85711 63.1769 4.30932 63.2112 3.89257C63.2437 3.49281 63.3 3.34479 63.3374 3.272C63.4801 2.99538 63.7073 2.77032 63.9866 2.62897C64.06 2.59197 64.2101 2.53677 64.6131 2.50401C65.0338 2.46943 65.5868 2.46883 66.4436 2.46883H76.2467C77.1029 2.46883 77.6559 2.46943 78.0766 2.50401C78.4802 2.53677 78.6296 2.59197 78.7031 2.62897C78.983 2.77032 79.2096 2.99538 79.3523 3.272C79.3896 3.34479 79.4454 3.49281 79.4784 3.89257C79.5127 4.30932 79.514 4.85711 79.514 5.70577V15.416ZM80.6757 2.6041C80.391 2.05025 79.9365 1.60014 79.3774 1.31806C78.7423 0.997763 77.91 0.997763 76.2467 0.997763H66.4436C64.7796 0.997763 63.948 0.997763 63.3123 1.31806C62.7531 1.60014 62.2987 2.05025 62.0139 2.6041C61.6906 3.23378 61.6906 4.05758 61.6906 5.70577V15.416C61.6906 17.0636 61.6906 17.8874 62.0139 18.5171C62.2987 19.0709 62.7531 19.521 63.3123 19.8031C63.948 20.124 64.7796 20.124 66.4436 20.124H76.2467C77.91 20.124 78.7423 20.124 79.3774 19.8031C79.9365 19.521 80.391 19.0709 80.6757 18.5171C80.9997 17.8874 80.9997 17.0636 80.9997 15.416V5.70577C80.9997 4.05758 80.9997 3.23378 80.6757 2.6041ZM17.9041 15.416C17.9041 16.2641 17.9029 16.8119 17.8686 17.2286C17.8355 17.6284 17.7798 17.7764 17.7418 17.8492C17.5997 18.1258 17.3725 18.3509 17.0932 18.4922C17.0197 18.5292 16.8703 18.5844 16.4667 18.6172C16.046 18.6517 15.493 18.6524 14.6362 18.6524H4.8331C3.97693 18.6524 3.42391 18.6517 3.00318 18.6172C2.59959 18.5844 2.45016 18.5292 2.37667 18.4922C2.0974 18.3509 1.87019 18.1258 1.7275 17.8492C1.69014 17.7764 1.63441 17.6284 1.60134 17.2286C1.56704 16.8119 1.56582 16.2641 1.56582 15.416V5.70577C1.56582 4.85711 1.56704 4.30932 1.60134 3.89257C1.63441 3.49281 1.69014 3.34479 1.7275 3.272C1.87019 2.99538 2.0974 2.77032 2.37667 2.62897C2.45016 2.59197 2.59959 2.53677 3.00318 2.50401C3.42391 2.46943 3.97693 2.46883 4.8331 2.46883H14.6362C15.493 2.46883 16.046 2.46943 16.4667 2.50401C16.8703 2.53677 17.0197 2.59197 17.0932 2.62897C17.3725 2.77032 17.5997 2.99538 17.7418 3.272C17.7798 3.34479 17.8355 3.49281 17.8686 3.89257C17.9029 4.30932 17.9041 4.85711 17.9041 5.70577V15.416ZM17.7675 1.31806C17.1318 0.997763 16.3001 0.997763 14.6362 0.997763H4.8331C3.16976 0.997763 2.33809 0.997763 1.70239 1.31806C1.14325 1.60014 0.688827 2.05025 0.40405 2.6041C0.0800777 3.23378 0.0800781 4.05758 0.0800781 5.70577V15.416C0.0800781 17.0636 0.0800777 17.8874 0.40405 18.5171C0.688827 19.0709 1.14325 19.521 1.70239 19.8031C2.33809 20.124 3.16976 20.124 4.8331 20.124H14.6362C16.3001 20.124 17.1318 20.124 17.7675 19.8031C18.3266 19.521 18.7811 19.0709 19.0658 18.5171C19.3892 17.8874 19.3892 17.0636 19.3892 15.416V5.70577C19.3892 4.05758 19.3892 3.23378 19.0658 2.6041C18.7811 2.05025 18.3266 1.60014 17.7675 1.31806ZM67.4829 8.46955L64.6608 8.46652L67.1859 14.3022H76.5437L78.0288 11.7866V10.1827H72.0877C67.9287 10.1827 67.4829 8.46955 67.4829 8.46955ZM76.8407 8.46652H75.355V6.35729H72.0877V9.73012H76.8407V8.46652Z" fill="#00539F"/>
<path d="M15.6213 26.7894L12.0576 44.3515L8.52324 26.7894H0V47.3816H4.66246V29.7607L8.76086 47.3816H15.3243L19.4227 29.7607V47.3816H24.0558V26.7894H15.6213Z" fill="#00539F"/>
<path d="M1.39905 56.2454C0.918497 56.2454 0.536881 56.0348 0.42381 55.7194C0.367482 55.5651 0.360207 55.4949 0.360207 55.1655V53.2158H0V52.5708H0.360207C0.360207 52.2199 0.360207 51.9887 0.395542 51.7222L1.35665 51.4837C1.32131 51.8133 1.30011 52.2061 1.30011 52.5708H2.14815L1.90787 53.2158H1.30011V55.0182C1.30011 55.4739 1.38492 55.5931 1.71 55.5931C1.7948 55.5931 1.8796 55.5721 2.049 55.523L2.16935 56.0841C1.89353 56.1963 1.64639 56.2454 1.39905 56.2454Z" fill="#0053A0"/>
<path d="M4.5861 53.9313C4.5861 53.6648 4.55783 53.5243 4.47303 53.3912C4.38116 53.251 4.24689 53.1808 4.05608 53.1808C3.69566 53.1808 3.49072 53.4614 3.49072 53.9593V53.9731H4.5861V53.9313ZM3.4768 54.6604V54.6885C3.4768 55.2425 3.7522 55.5581 4.23982 55.5581C4.5649 55.5581 4.86878 55.4389 5.15832 55.2005L5.5258 55.7615C5.10906 56.0982 4.6709 56.2593 4.16208 56.2593C3.12324 56.2593 2.45209 55.5301 2.45209 54.4009C2.45209 53.7557 2.58636 53.3281 2.90437 52.9774C3.20098 52.6478 3.56139 52.4935 4.04195 52.4935C4.4589 52.4935 4.85465 52.6338 5.08786 52.8722C5.42 53.2089 5.56841 53.6928 5.56841 54.443V54.6604H3.4768Z" fill="#0053A0"/>
<path d="M7.93565 53.3911C7.84378 53.342 7.76604 53.3209 7.66004 53.3209C7.44803 53.3209 7.25722 53.4191 7.08076 53.6225V56.1611H6.13378V53.7628C6.13378 53.2789 6.07725 52.9142 5.99951 52.7108L6.84755 52.4864C6.93235 52.6336 6.98182 52.7949 6.99595 52.9985C7.20069 52.725 7.49043 52.4864 7.84378 52.4864C7.98512 52.4864 8.04872 52.5006 8.19713 52.5635L7.93565 53.3911Z" fill="#0053A0"/>
<path d="M12.1755 56.1611V53.7908C12.1755 53.3632 12.126 53.2789 11.8786 53.2789C11.702 53.2789 11.4546 53.3981 11.2497 53.5804V56.1611H10.3524V53.8259C10.3524 53.377 10.2888 53.2718 10.0273 53.2718C9.85064 53.2718 9.61036 53.3632 9.40542 53.5454V56.1611H8.47985V53.6576C8.47985 53.1388 8.44452 52.9144 8.34558 52.739L9.20048 52.5076C9.26408 52.6058 9.29235 52.6899 9.32768 52.8723C9.57502 52.6336 9.8789 52.5076 10.2111 52.5076C10.5079 52.5076 10.7552 52.6058 10.9458 52.8022C10.9953 52.851 11.045 52.9144 11.0874 52.9773C11.4193 52.6408 11.7161 52.5076 12.1119 52.5076C12.3945 52.5076 12.6631 52.5916 12.8254 52.732C13.0304 52.9074 13.094 53.1176 13.094 53.6085V56.1611H12.1755Z" fill="#0053A0"/>
<path d="M13.9778 56.1611V52.6336L14.9247 52.4866V56.1611H13.9778ZM14.4513 52.1639C14.1332 52.1639 13.8718 51.9044 13.8718 51.5818C13.8718 51.2592 14.1403 50.9999 14.4654 50.9999C14.7832 50.9999 15.0378 51.2592 15.0378 51.5818C15.0378 51.9044 14.7763 52.1639 14.4513 52.1639Z" fill="#0053A0"/>
<path d="M17.7301 56.1611V53.8259C17.7301 53.4191 17.6594 53.2999 17.412 53.2999C17.2212 53.2999 16.9739 53.4261 16.755 53.6225V56.1611H15.8081V53.5596C15.8081 53.251 15.7657 52.9565 15.6808 52.718L16.5218 52.4793C16.6064 52.6266 16.6561 52.7809 16.6561 52.9282C16.7972 52.8302 16.9174 52.7458 17.0728 52.6619C17.2636 52.5637 17.511 52.5076 17.723 52.5076C18.1258 52.5076 18.4792 52.718 18.592 53.0266C18.6415 53.1596 18.6627 53.3139 18.6627 53.5384V56.1611H17.7301Z" fill="#0053A0"/>
<path d="M21.1926 54.5904C20.5355 54.5904 20.3094 54.7096 20.3094 55.1372C20.3094 55.418 20.4861 55.6073 20.7264 55.6073C20.9028 55.6073 21.0795 55.5159 21.221 55.3616L21.235 54.5904H21.1926ZM21.9982 56.3435C21.7791 56.2525 21.341 56.0489 21.2703 56.0982C21.0936 56.2243 20.8394 56.2944 20.5426 56.2944C19.737 56.2944 19.2988 55.8876 19.2988 55.1723C19.2988 54.3309 19.8854 53.9381 21.0371 53.9381C21.1078 53.9381 21.1714 53.9381 21.2491 53.9452V53.7979C21.2491 53.3983 21.1714 53.2649 20.8251 53.2649C20.5214 53.2649 20.1679 53.4123 19.7794 53.6718L19.3766 52.9986C19.5674 52.8793 19.7087 52.8092 19.9631 52.7038C20.3165 52.5567 20.6201 52.4936 20.9525 52.4936C21.56 52.4936 21.9768 52.718 22.1183 53.1176C22.1676 53.2649 22.189 53.3771 22.1819 53.7628L22.1607 54.9691C22.1537 55.3616 22.1819 55.5302 22.5 55.7684L21.9982 56.3435Z" fill="#0053A0"/>
<path d="M23.0253 51.3366V56.2455L23.9999 56.2595V51.3366H23.0253Z" fill="#0053A0"/>
</svg>
