<?xml version="1.0" encoding="utf-8"?>
<!-- Generator: Adobe Illustrator 24.0.1, SVG Export Plug-In . SVG Version: 6.00 Build 0)  -->
<svg version="1.1" id="Макет" xmlns="http://www.w3.org/2000/svg" xmlns:xlink="http://www.w3.org/1999/xlink" x="0px" y="0px"
	 viewBox="0 0 464.92 129.48" style="enable-background:new 0 0 464.92 129.48;" xml:space="preserve">
<style type="text/css">
	.st0{fill:#C2986B;}
	.st1{fill:#95693B;}
	.st2{fill:#4465AF;}
	.st3{fill:#FFFFFF;}
	.st4{fill:#658EC9;}
	.st5{fill:#003626;}
	.st6{fill:#3DA02C;}
	.st7{clip-path:url(#SVGID_2_);fill:#003626;}
	.st8{clip-path:url(#SVGID_2_);fill:#3DA02C;}
	.st9{fill:#8BBA43;}
	.st10{fill:#113531;}
	.st11{fill:#BD936A;}
	.st12{fill:none;}
	.st13{fill:#9FA0A4;}
	.st14{fill:#8E6939;}
	.st15{fill:#7A7D80;}
	.st16{fill:#8BC53F;}
	.st17{fill:#95693C;}
	.st18{fill:#38AC4A;}
	.st19{fill:#27343F;}
	.st20{fill:#F69A1D;}
	.st21{fill:#4160A4;}
	.st22{fill:#6A90C5;}
	.st23{fill:#163F6D;}
	.st24{fill:#6F7479;}
	.st25{opacity:0.35;}
	.st26{clip-path:url(#SVGID_4_);}
	.st27{clip-path:url(#SVGID_6_);}
	.st28{fill:#231F20;}
	.st29{fill:#F6921E;}
	.st30{fill:#7990A3;}
	.st31{fill:#0F2E39;}
	.st32{fill:#7F92A1;}
	.st33{fill:#0E2F38;}
</style>
<g>
	<g>
		<g>
			<g>
				<path class="st9" d="M38.78,102.99c-0.97,2.69-2.28,5.26-3.89,7.65h29.86v-6.28H43.2C41.36,104.36,39.86,103.86,38.78,102.99z"
					/>
				<path class="st9" d="M0,0v129.48h64.74v-12.56H28.25c-1.27,0-2.41-0.76-2.9-1.94c-0.49-1.17-0.22-2.52,0.68-3.42
					c11.44-11.44,11.44-30.07,0-41.51c-1.23-1.22-1.23-3.21,0-4.44c1.22-1.23,3.21-1.23,4.44,0c6.09,6.09,9.7,13.99,10.33,22.49
					l0.85-2.06c0.98-2.36,2.16-4.5,4.13-6.03c-1.87-7.06-5.58-13.53-10.87-18.83c-1.78-1.78-4.15-2.76-6.66-2.76
					c-2.52,0-4.88,0.98-6.66,2.76c-3.67,3.67-3.67,9.64,0,13.32c1.23,1.23,1.23,3.21,0,4.44c-1.22,1.23-3.21,1.23-4.44,0
					c-6.12-6.12-6.12-16.08,0-22.2c2.97-2.96,6.9-4.6,11.1-4.6l0,0c-1.36-3.05-2.11-6.33-2.11-9.74c0-16.47,17.28-29.83,38.6-29.83
					V0H0z"/>
			</g>
			<path class="st9" d="M64.74,18.84c-8.8,0-17.35,2.71-23.45,7.42c-5.72,4.42-8.87,10.14-8.87,16.12c0,1.73,1.41,3.14,3.14,3.14
				s3.14-1.41,3.14-3.14c0-3.99,2.28-7.95,6.42-11.15c5.03-3.88,12.18-6.12,19.62-6.12l0,0V18.84L64.74,18.84z"/>
			<path class="st10" d="M112.33,56.73c-2.97-2.96-6.91-4.6-11.1-4.6h0c1.37-3.05,2.11-6.33,2.11-9.74
				c0-16.47-17.28-29.83-38.59-29.83v6.28c8.8,0,17.35,2.71,23.45,7.42c5.71,4.42,8.86,10.14,8.86,16.12c0,1.73-1.4,3.14-3.14,3.14
				c-1.74,0-3.14-1.41-3.14-3.14c0-3.99-2.28-7.95-6.43-11.15c-5.03-3.88-12.18-6.12-19.61-6.12v79.25h21.54
				c1.84,0,3.35-0.51,4.42-1.37c0.98,2.69,2.29,5.26,3.89,7.65H64.74v6.28h36.49c1.27,0,2.41-0.76,2.9-1.94
				c0.48-1.17,0.22-2.52-0.68-3.42c-11.44-11.44-11.44-30.07,0-41.51c1.23-1.22,1.23-3.21,0-4.44c-1.23-1.23-3.22-1.23-4.44,0
				C92.92,71.69,89.3,79.6,88.67,88.1l-0.85-2.06c-0.98-2.36-2.16-4.5-4.13-6.03c1.87-7.06,5.57-13.53,10.87-18.83
				c1.78-1.78,4.14-2.76,6.66-2.76c2.52,0,4.88,0.98,6.66,2.76c3.67,3.67,3.67,9.64,0,13.32c-1.23,1.23-1.23,3.21,0,4.44
				c1.23,1.23,3.21,1.23,4.44,0C118.45,72.8,118.45,62.84,112.33,56.73z"/>
		</g>
		<g>
			<g>
				<path class="st9" d="M165.66,42.13h-4.28V10.62l-27.11,31.51h-0.92V1.03h4.11v32.06l27.27-32.06h0.92V42.13z"/>
				<path class="st9" d="M175.61,1.03h4.11v17.24h20.93V1.03h4.11v41.1h-4.11V22.29h-20.93v19.84h-4.11V1.03z"/>
				<path class="st9" d="M214.64,48.28h-4.04V38.3h3.34l16.13-37.27h1.42l17.04,37.27h3.2v9.98h-4.05v-6.15h-33.03V48.28z
					 M218.57,38.3h25.09L230.8,9.49L218.57,38.3z"/>
				<path class="st9" d="M254.42,1.15h4.65l12.44,27.93l11.36-28.04h4.52l-15.62,36.94c-1.45,3.46-4.03,5.19-7.73,5.19
					c-1.49,0-2.9-0.3-4.22-0.91c-1.32-0.61-3-2.03-5.03-4.28l2.99-2.46c2.07,2.03,3.45,3.18,4.13,3.46c0.69,0.28,1.39,0.42,2.1,0.42
					c1.08,0,2.01-0.29,2.81-0.87c0.8-0.58,1.66-2.02,2.61-4.33L254.42,1.15z"/>
				<path class="st9" d="M332.81,8.66l-3.24,2.49c-1.79-2.33-3.93-4.09-6.44-5.3c-2.5-1.2-5.26-1.8-8.25-1.8
					c-3.28,0-6.32,0.78-9.11,2.36c-2.79,1.58-4.95,3.69-6.5,6.34c-1.53,2.65-2.3,5.64-2.3,8.95c0,5.01,1.71,9.19,5.15,12.55
					c3.44,3.35,7.77,5.03,13.01,5.03c5.75,0,10.57-2.25,14.45-6.76l3.24,2.46c-2.05,2.61-4.61,4.63-7.67,6.05
					c-3.06,1.43-6.48,2.14-10.26,2.14c-7.19,0-12.87-2.4-17.02-7.18c-3.49-4.04-5.23-8.92-5.23-14.64c0-6.02,2.11-11.08,6.33-15.19
					c4.22-4.11,9.5-6.16,15.85-6.16c3.84,0,7.31,0.75,10.4,2.27C328.3,3.79,330.84,5.92,332.81,8.66z"/>
				<path class="st9" d="M336.98,5.05V1.03h22.52v4.02h-9.17v37.08h-4.19V5.05H336.98z"/>
				<path class="st9" d="M365.39,1.03h8.18c4.7,0,7.86,0.21,9.5,0.61c2.34,0.59,4.26,1.77,5.76,3.57c1.49,1.8,2.23,4.06,2.23,6.78
					c0,2.73-0.73,4.99-2.18,6.78c-1.45,1.77-3.45,2.97-6,3.58c-1.86,0.44-5.35,0.67-10.45,0.67h-2.93v19.11h-4.11V1.03z M369.5,5.05
					V19l6.95,0.09c2.81,0,4.87-0.26,6.17-0.76c1.3-0.51,2.34-1.34,3.07-2.49c0.75-1.14,1.12-2.42,1.12-3.83
					c0-1.38-0.37-2.63-1.12-3.77c-0.74-1.15-1.72-1.96-2.95-2.44c-1.22-0.48-3.22-0.73-5.99-0.73H369.5z"/>
				<path class="st9" d="M431.61,42.13h-4.27V10.62l-27.11,31.51h-0.92V1.03h4.11v32.06l27.27-32.06h0.92V42.13z"/>
				<path class="st9" d="M464.92,42.13h-4.11V23.05h-2.32l-14.78,19.08h-5.08l14.78-19.08c-3.45-0.02-6.14-0.46-8.1-1.33
					c-1.96-0.86-3.46-2.15-4.52-3.85c-1.05-1.7-1.57-3.67-1.57-5.9c0-2.69,0.76-4.95,2.29-6.78c1.53-1.84,3.51-3.04,5.95-3.59
					c1.62-0.37,4.71-0.56,9.28-0.56h8.19V42.13z M453.56,5.05c-2.81,0-4.84,0.24-6.05,0.73c-1.21,0.48-2.19,1.29-2.94,2.42
					c-0.74,1.13-1.11,2.38-1.11,3.76c0,1.42,0.36,2.7,1.1,3.85c0.74,1.14,1.76,1.98,3.08,2.5c1.32,0.53,3.34,0.78,6.09,0.78
					l7.08-0.06V5.05H453.56z"/>
			</g>
			<g>
				<path class="st10" d="M133.37,129.48l8.82-61.64h1.01l25.05,50.57l24.82-50.57h0.99l8.87,61.64h-6.04l-6.09-44.08l-21.8,44.08
					h-1.57l-22.06-44.42l-6.05,44.42H133.37z"/>
				<path class="st10" d="M215.07,67.84h35.33v6.03h-29.17v19.32h28.91v6.03h-28.91v24.22h28.91v6.04h-35.07V67.84z"/>
				<path class="st10" d="M260.99,129.48V67.84h30.88v6.03h-24.81v19.73h2.89c7.68,0,13.26,0.68,16.74,2.03
					c3.48,1.36,6.21,3.49,8.21,6.42c2,2.92,3,6.16,3,9.74c0,4.69-1.76,8.82-5.28,12.36c-3.52,3.54-8.42,5.32-14.7,5.32H260.99z
					 M267.07,99.81v23.63h7.58c4.5,0,7.79-0.44,9.89-1.32c2.09-0.88,3.76-2.24,5-4.06c1.25-1.83,1.86-3.88,1.86-6.14
					c0-2.85-0.88-5.26-2.64-7.25c-1.75-1.98-3.96-3.28-6.58-3.92c-2.63-0.63-6.53-0.94-11.69-0.94H267.07z"/>
				<path class="st10" d="M310.22,67.84h35.33v6.03h-29.16v19.32h28.9v6.03h-28.9v24.22h28.9v6.04h-35.07V67.84z"/>
				<path class="st10" d="M406.1,129.48h-6.71l-20.42-47.62l-20.76,47.62h-6.71l26.81-61.64h1.35L406.1,129.48z"/>
				<path class="st10" d="M464.92,129.48h-6.41V82.22l-40.65,47.26h-1.38V67.84h6.15v48.07l40.9-48.07h1.38V129.48z"/>
			</g>
		</g>
	</g>
</g>
</svg>
