<svg width="147" height="41" viewBox="0 0 147 41" fill="none" xmlns="http://www.w3.org/2000/svg">
<g clip-path="url(#clip0_1173_19969)">
<path d="M16.3611 9.33289V10.9963C14.5987 9.72893 12.4601 9.05566 10.3017 9.05566C4.69774 9.05566 0.163086 13.4319 0.163086 18.8378C0.163086 23.8279 4.04427 27.9468 9.05418 28.5408C10.3413 28.6992 12.9552 28.5804 14.8958 27.5507C15.4106 27.2933 15.9057 26.9963 16.3611 26.6596L16.3413 36.4814L4.83635 36.323V40.224H20.6977L20.6581 9.33289H16.3611ZM10.6977 25.1943C7.272 25.1943 4.49972 22.3428 4.49972 18.818C4.49972 15.2933 7.272 12.4418 10.6977 12.4418C14.1235 12.4418 16.8958 15.3131 16.8958 18.818C16.8958 22.323 14.1433 25.1943 10.6977 25.1943Z" fill="black"/>
<path d="M64.7577 9.33447H50.0845V28.2652H54.3617V12.6414H64.7577V9.33447Z" fill="black"/>
<path d="M146.837 9.33447H129.055V12.6414H135.807V28.2652H140.084V12.6414H146.837V9.33447Z" fill="black"/>
<path d="M118.005 9.09365C115.826 9.09365 113.708 9.76692 111.945 11.0342V0.261963H107.628V11.0342C105.866 9.76692 103.747 9.09365 101.569 9.09365C95.965 9.09365 91.4502 13.4699 91.4502 18.8758C91.4502 23.8659 95.3314 27.9847 100.341 28.5788C101.628 28.7372 104.242 28.6184 106.183 27.5887C106.698 27.3511 107.173 27.054 107.628 26.7174L107.609 40.2422H107.628H111.945H111.965L111.945 26.7174C112.401 27.054 112.876 27.3313 113.391 27.5887C115.331 28.5986 117.945 28.7372 119.232 28.5788C124.242 27.9847 128.123 23.8659 128.123 18.8758C128.123 13.4501 123.589 9.09365 118.005 9.09365ZM101.708 25.2323C98.2819 25.2323 95.5096 22.3808 95.5096 18.856C95.5096 15.3313 98.2819 12.4798 101.708 12.4798C105.133 12.4798 107.906 15.3511 107.906 18.856C107.906 22.3808 105.133 25.2323 101.708 25.2323ZM117.866 25.2323C114.42 25.2323 111.668 22.3808 111.668 18.856C111.668 15.3313 114.44 12.4798 117.866 12.4798C121.292 12.4798 124.064 15.3313 124.064 18.856C124.064 22.361 121.292 25.2323 117.866 25.2323Z" fill="black"/>
<path d="M82.6782 9.33447V21.9681C81.7079 23.4533 79.7079 25.7305 76.8762 25.1365C72.9752 24.3048 73.3712 19.2553 73.3712 19.2553V9.33447H69.0742V20.5028C69.0742 20.5028 68.3811 28.2652 76.5395 28.6612C79.2524 28.7998 81.2722 27.7107 82.6583 26.4434V28.2454H86.9356V9.33447H82.6782Z" fill="black"/>
<path d="M40.1237 9.33447V21.9681C39.1534 23.4533 37.1534 25.7305 34.3217 25.1365C30.4207 24.3048 30.8167 19.2553 30.8167 19.2553V9.33447H26.5395V20.5028C26.5395 20.5028 25.8464 28.2652 34.0049 28.6612C36.7177 28.7998 38.7375 27.7107 40.1237 26.4434V28.2454H44.4009V9.33447H40.1237Z" fill="black"/>
</g>
<defs>
<clipPath id="clip0_1173_19969">
<rect width="146.673" height="40" fill="white" transform="translate(0.163086 0.244141)"/>
</clipPath>
</defs>
</svg>
