<svg width="152" height="40" viewBox="0 0 152 40" fill="none" xmlns="http://www.w3.org/2000/svg">
<path d="M55.6205 19.8996L53.8823 16.4604L53.7312 16.5369L53.8823 21.8103V27.0074H50.3304V10.2698H54.2602L58.4166 17.5304L60.6082 21.6575L60.6837 21.581L60.5326 16.4604V10.2698H64.16V27.0074H59.928L55.6205 19.8996Z" fill="#222222"/>
<path d="M78.5187 20.511C78.5187 21.5045 78.3675 22.4217 78.0653 23.2624C77.763 24.1031 77.3095 24.7909 76.705 25.4023C76.1004 26.0137 75.4203 26.4723 74.589 26.778C73.7577 27.0837 72.8508 27.2366 71.7928 27.2366C70.7348 27.2366 69.828 27.0837 68.9967 26.778C68.1654 26.4723 67.4853 25.9373 66.8807 25.4023C66.2761 24.7909 65.8227 24.1031 65.5204 23.2624C65.1425 22.4217 64.9914 21.5045 64.9914 20.511C64.9914 19.5174 65.1425 18.6003 65.4448 17.7596C65.7471 16.9189 66.2005 16.2311 66.8051 15.6196C67.4097 15.0082 68.0898 14.5497 68.9211 14.244C69.7524 13.9383 70.6593 13.7854 71.7173 13.7854C72.7753 13.7854 73.7577 13.9383 74.5134 14.244C75.3447 14.5497 76.0248 15.0847 76.6294 15.6196C77.234 16.2311 77.6874 16.9189 77.9897 17.7596C78.4431 18.6003 78.5187 20.511 78.5187 20.511ZM69.5257 23.5681C69.9791 24.1031 70.7348 24.4088 71.7173 24.4088C72.6997 24.4088 73.4554 24.1031 73.9088 23.5681C74.3623 22.9566 74.6645 21.9631 74.6645 20.511C74.6645 19.0589 74.4378 18.0653 73.9088 17.4539C73.4554 16.9189 72.6997 16.6132 71.7173 16.6132C70.7348 16.6132 69.9791 16.9189 69.5257 17.4539C69.0723 18.0653 68.77 19.0589 68.77 20.511C68.77 21.9631 69.0723 22.9566 69.5257 23.5681Z" fill="#222222"/>
<path d="M78.1404 16.6132L78.216 14.3969L80.2564 14.0147L81.39 10.5755L84.035 10.8812V14.0147H88.3426L88.5693 16.5368L84.035 16.9189V22.5745C84.035 23.2624 84.1862 23.721 84.4884 23.9502C84.7907 24.1795 85.3197 24.3324 85.9243 24.3324C86.2266 24.3324 86.6044 24.3324 86.9067 24.2559C87.209 24.1795 87.6624 24.1031 88.1914 23.9502L89.0983 26.1666C88.6449 26.5487 88.0403 26.8545 87.2846 27.0837C86.5289 27.313 85.8487 27.3894 85.093 27.3894C83.506 27.3894 82.2213 27.0073 81.39 26.243C80.5587 25.4788 80.1053 24.2559 80.1053 22.4981V17.0718L78.1404 16.6132Z" fill="#222222"/>
<path d="M90.2324 8.89412C90.6103 8.51198 91.2149 8.35913 91.895 8.35913C92.6507 8.35913 93.1797 8.51198 93.5576 8.89412C93.9354 9.27626 94.0866 9.73482 94.0866 10.3462C94.0866 10.9577 93.9354 11.4162 93.5576 11.7983C93.1797 12.1805 92.5752 12.3333 91.895 12.3333C91.1393 12.3333 90.6103 12.1805 90.2324 11.7983C89.8546 11.4162 89.7034 10.9577 89.7034 10.3462C89.7034 9.81125 89.8546 9.27626 90.2324 8.89412Z" fill="#28B2F7"/>
<path d="M90.0054 14.0148H93.8596V27.0074H91.2901L90.0054 25.9374V14.0148Z" fill="#222222"/>
<path d="M107.689 13.7855C106.858 13.4798 106.102 13.2505 105.271 13.0976C104.515 12.9448 103.759 12.8683 102.928 12.8683C102.399 12.8683 101.87 12.8683 101.492 12.9448C101.114 13.0212 100.812 13.174 100.585 13.3269C100.283 13.5562 100.132 13.9383 100.132 14.3969C100.132 14.8554 100.283 15.1611 100.51 15.3904C100.812 15.6961 101.416 15.9254 102.172 16.0783L104.666 16.6133C105.422 16.7661 106.177 16.9954 106.858 17.2247C107.538 17.454 108.142 17.9125 108.596 18.3711C108.974 18.7532 109.276 19.1354 109.503 19.6703C109.729 20.2053 109.88 20.8168 109.88 21.581C109.88 22.651 109.729 23.4917 109.351 24.1795C108.974 24.8674 108.445 25.4024 107.84 25.7845C107.16 26.2431 106.329 26.6252 105.422 26.8545C104.515 27.0838 103.532 27.1602 102.474 27.1602C101.719 27.1602 101.114 27.1602 100.51 27.0838C99.9806 27.0073 99.4516 26.9309 98.9226 26.8545C98.4692 26.7016 97.9402 26.5488 97.5623 26.3959C97.1089 26.2431 96.6555 26.0138 96.202 25.7081L97.4868 22.8803C97.9402 23.1096 98.4692 23.2624 98.847 23.4153C99.2249 23.5681 99.6783 23.6446 100.056 23.721C100.434 23.7974 100.812 23.8738 101.19 23.8738C101.568 23.8738 102.021 23.9503 102.399 23.9503C103.079 23.9503 103.684 23.8738 104.061 23.7974C104.515 23.721 104.893 23.5681 105.119 23.3388C105.497 23.0331 105.724 22.5746 105.724 22.0396C105.724 21.7339 105.648 21.5046 105.573 21.2753C105.497 21.1225 105.346 20.9696 105.195 20.8168C104.742 20.511 104.061 20.2053 103.155 20.0525L100.358 19.5175C99.6028 19.3646 98.9982 19.1354 98.3936 18.8296C97.8646 18.5239 97.3356 18.1418 96.9578 17.6068C96.6555 17.3011 96.5043 16.8425 96.2776 16.4604C96.1265 16.0018 96.0509 15.5433 96.0509 15.0083C96.0509 14.1676 96.202 13.4033 96.5043 12.7919C96.8066 12.1805 97.1845 11.7219 97.7135 11.3398C98.3181 10.8812 99.0738 10.4991 99.9051 10.2698C100.812 10.0405 101.719 9.96411 102.777 9.96411C103.986 9.96411 105.044 10.0405 105.951 10.2698C106.858 10.4991 107.764 10.8048 108.596 11.2634L107.689 13.7855Z" fill="#222222"/>
<path d="M110.259 20.5111C110.259 18.2947 110.788 16.6133 111.921 15.4669C113.055 14.3205 114.717 13.709 116.985 13.709C117.967 13.709 118.798 13.8619 119.554 14.0912C120.31 14.3205 120.99 14.779 121.519 15.314C122.048 15.849 122.501 16.5368 122.804 17.3775C123.106 18.2182 123.257 19.1354 123.257 20.2818C123.257 20.5111 123.257 20.8168 123.181 21.1225C123.106 21.4282 123.106 21.7339 123.03 22.0396H116.153L114.113 21.8867C114.188 22.8803 114.491 23.4917 115.02 23.8738C115.549 24.256 116.304 24.4088 117.362 24.4088C117.74 24.4088 118.118 24.4088 118.42 24.4088C118.723 24.4088 119.025 24.3324 119.327 24.3324C119.63 24.3324 119.932 24.256 120.31 24.1796C120.612 24.1031 120.99 24.0267 121.443 23.9503L122.199 26.3195C121.519 26.6252 120.763 26.9309 119.856 27.0838C118.949 27.2366 118.043 27.3131 117.06 27.3131C115.927 27.3131 114.869 27.1602 114.037 26.8545C113.13 26.5488 112.45 26.0902 111.846 25.4788C111.317 24.8674 110.863 24.1796 110.561 23.3389C110.334 22.4982 110.183 21.5046 110.259 20.5111ZM119.025 17.2247C118.647 16.7661 117.967 16.5368 117.06 16.5368C116.153 16.5368 115.398 16.7661 114.944 17.1483C114.491 17.5304 114.264 18.2947 114.113 19.3646H119.63C119.554 18.4475 119.327 17.6833 119.025 17.2247Z" fill="#222222"/>
<path d="M127.187 13.9383L128.169 14.8555L131.041 13.709H131.192C133.308 13.709 134.819 14.1676 135.802 15.1612C136.784 16.1547 137.238 17.6068 137.238 19.5939V27.0073H134.517L133.308 25.9374V19.4411C133.308 18.3711 133.157 17.6833 132.779 17.3011C132.401 16.919 131.721 16.6897 130.814 16.6897C130.285 16.6897 129.832 16.7661 129.454 16.8426C129.076 16.9954 128.698 17.1483 128.396 17.454V27.0073H124.542V14.5497L127.187 13.9383Z" fill="#222222"/>
<path d="M151.219 26.778L148.574 27.2366L147.667 26.243L144.568 27.3894H144.342C143.208 27.3894 142.226 27.2366 141.394 26.9309C140.563 26.6252 139.959 26.0902 139.43 25.5552C138.976 24.9438 138.598 24.2559 138.372 23.4152C138.145 22.5745 138.069 21.6574 138.069 20.6638C138.069 18.5239 138.598 16.8425 139.656 15.6197C140.714 14.3968 142.377 13.8618 144.493 13.8618C145.022 13.8618 145.475 13.9383 145.929 14.0147C146.382 14.0911 146.836 14.244 147.289 14.3968V9.88763H151.143L151.219 26.778ZM147.365 17.0718C146.987 16.9189 146.533 16.8425 146.155 16.7661C145.778 16.6896 145.324 16.6896 144.871 16.6896C144.417 16.6896 143.964 16.7661 143.586 16.8425C143.208 16.9953 142.906 17.1482 142.679 17.4539C142.452 17.7596 142.226 18.1418 142.15 18.6003C141.999 19.0589 141.999 19.7467 141.999 20.511C141.999 21.1224 141.999 21.6574 142.075 22.116C142.15 22.5745 142.301 22.9567 142.528 23.3388C142.755 23.6445 143.057 23.9502 143.435 24.1031C143.813 24.2559 144.342 24.3323 144.946 24.3323C145.929 24.3323 146.684 24.1795 147.44 23.7974L147.365 17.0718Z" fill="#222222"/>
<path d="M38.0879 29.2238L28.6414 38.8536L20.3286 27.3895L38.0879 29.2238Z" fill="url(#paint0_linear_4602_5706)"/>
<path d="M34.5359 32.8923L34.7626 37.5543L20.4796 27.3895L34.5359 32.8923Z" fill="url(#paint1_linear_4602_5706)"/>
<path d="M21.7644 39.0064L8.84167 35.4143L14.5851 22.4982L21.7644 39.0064Z" fill="url(#paint2_linear_4602_5706)"/>
<path d="M16.8526 37.6307L12.8474 40L14.5855 22.4982L16.8526 37.6307Z" fill="url(#paint3_linear_4602_5706)"/>
<path d="M5.28961 29.453L2.04004 16.2311L16.0208 14.9319L5.28961 29.453Z" fill="url(#paint4_linear_4602_5706)"/>
<path d="M4.08079 24.4088L0.0755005 22.116L16.0211 14.9319L4.08079 24.4088Z" fill="url(#paint5_linear_4602_5706)"/>
<path d="M5.44141 10.2698L15.1901 0.869263L23.2007 12.5626L5.44141 10.2698Z" fill="url(#paint6_linear_4602_5706)"/>
<path d="M9.14429 6.67773V2.01569L23.2006 12.5626L9.14429 6.67773Z" fill="url(#paint7_linear_4602_5706)"/>
<path d="M22.0669 0.94574L34.9141 4.91995L28.7928 17.6833L22.0669 0.94574Z" fill="url(#paint8_linear_4602_5706)"/>
<path d="M26.9031 2.39784L30.984 0.181458L28.7924 17.6832L26.9031 2.39784Z" fill="url(#paint9_linear_4602_5706)"/>
<path d="M38.2392 10.9576L41.1109 24.1795L27.1302 25.0966L38.2392 10.9576Z" fill="url(#paint10_linear_4602_5706)"/>
<path d="M39.3728 15.9254L43.3025 18.3711L27.1302 25.0967L39.3728 15.9254Z" fill="url(#paint11_linear_4602_5706)"/>
<defs>
<linearGradient id="paint0_linear_4602_5706" x1="21.394" y1="36.135" x2="26.3602" y2="24.5284" gradientUnits="userSpaceOnUse">
<stop stop-color="#179BFF"/>
<stop offset="1" stop-color="#74D7E8"/>
</linearGradient>
<linearGradient id="paint1_linear_4602_5706" x1="29.4531" y1="30.2986" x2="26.1828" y2="37.9405" gradientUnits="userSpaceOnUse">
<stop stop-color="#179BFF"/>
<stop offset="1" stop-color="#74D7E8"/>
</linearGradient>
<linearGradient id="paint2_linear_4602_5706" x1="7.60248" y1="27.694" x2="20.908" y2="30.1495" gradientUnits="userSpaceOnUse">
<stop stop-color="#179BFF"/>
<stop offset="1" stop-color="#74D7E8"/>
</linearGradient>
<linearGradient id="paint3_linear_4602_5706" x1="16.5535" y1="31.802" x2="8.00135" y2="31.7138" gradientUnits="userSpaceOnUse">
<stop stop-color="#179BFF"/>
<stop offset="1" stop-color="#74D7E8"/>
</linearGradient>
<linearGradient id="paint4_linear_4602_5706" x1="8.07129" y1="11.4199" x2="11.3365" y2="24.77" gradientUnits="userSpaceOnUse">
<stop stop-color="#179BFF"/>
<stop offset="1" stop-color="#74D7E8"/>
</linearGradient>
<linearGradient id="paint5_linear_4602_5706" x1="8.94322" y1="21.3208" x2="7.94569" y2="12.7749" gradientUnits="userSpaceOnUse">
<stop stop-color="#179BFF"/>
<stop offset="1" stop-color="#74D7E8"/>
</linearGradient>
<linearGradient id="paint6_linear_4602_5706" x1="22.3499" y1="3.79834" x2="16.9699" y2="15.2622" gradientUnits="userSpaceOnUse">
<stop stop-color="#179BFF"/>
<stop offset="1" stop-color="#74D7E8"/>
</linearGradient>
<linearGradient id="paint7_linear_4602_5706" x1="14.2573" y1="9.4408" x2="18.0464" y2="1.88801" gradientUnits="userSpaceOnUse">
<stop stop-color="#179BFF"/>
<stop offset="1" stop-color="#74D7E8"/>
</linearGradient>
<linearGradient id="paint8_linear_4602_5706" x1="35.8845" y1="12.5927" x2="22.6287" y2="10.0126" gradientUnits="userSpaceOnUse">
<stop stop-color="#179BFF"/>
<stop offset="1" stop-color="#74D7E8"/>
</linearGradient>
<linearGradient id="paint9_linear_4602_5706" x1="27.0441" y1="8.24826" x2="35.5546" y2="8.35222" gradientUnits="userSpaceOnUse">
<stop stop-color="#179BFF"/>
<stop offset="1" stop-color="#74D7E8"/>
</linearGradient>
<linearGradient id="paint10_linear_4602_5706" x1="34.9922" y1="28.8672" x2="32.2448" y2="15.3978" gradientUnits="userSpaceOnUse">
<stop stop-color="#179BFF"/>
<stop offset="1" stop-color="#74D7E8"/>
</linearGradient>
<linearGradient id="paint11_linear_4602_5706" x1="34.379" y1="18.9468" x2="35.2112" y2="27.5232" gradientUnits="userSpaceOnUse">
<stop stop-color="#179BFF"/>
<stop offset="1" stop-color="#74D7E8"/>
</linearGradient>
</defs>
</svg>
