<svg width="102" height="26" viewBox="0 0 102 26" fill="none" xmlns="http://www.w3.org/2000/svg">
<path d="M32.0792 3.32446H34.3464V11.5391H32.0792V3.32446ZM38.5414 3.32446H40.8195V11.5391H38.5414V3.32446ZM33.3497 6.35839H39.4833V8.3737H33.3497V6.35839ZM49.7075 6.6103V8.25322H43.4644V6.6103H49.7075ZM44.702 7.43176V10.7286L43.782 9.69899H50.0689V11.5391H42.4348V7.43176V3.32446H50.0142V5.16453H43.782L44.702 4.13497V7.43176ZM51.7112 11.5391V3.32446H53.9456V10.3452L53.3213 10.2028L57.9762 3.32446H60.9445V11.5391H58.6991V4.38688L59.3344 4.52927L54.5918 11.5391H51.7112ZM53.4856 0.827218H55.2709C55.3585 1.06088 55.4863 1.23977 55.6543 1.36391C55.8295 1.48074 56.0449 1.53915 56.3005 1.53915C56.556 1.53915 56.7678 1.48074 56.9357 1.36391C57.111 1.23977 57.2424 1.06088 57.33 0.827218H59.1153C58.9547 1.5209 58.6225 2.02473 58.1186 2.33871C57.6221 2.64538 57.0161 2.79872 56.3005 2.79872C55.5922 2.79872 54.9861 2.64538 54.4823 2.33871C53.9785 2.02473 53.6462 1.5209 53.4856 0.827218ZM67.4219 3.32446C68.1083 3.32446 68.6998 3.44129 69.1963 3.67495C69.7001 3.90861 70.0835 4.24084 70.3463 4.67165C70.6092 5.09516 70.7406 5.59169 70.7406 6.16123C70.7406 6.72348 70.6092 7.22001 70.3463 7.65082C70.0835 8.07432 69.7001 8.40291 69.1963 8.63657C68.6998 8.87023 68.1083 8.98706 67.4219 8.98706H63.8623V7.16889H67.2795C67.6446 7.16889 67.9294 7.08127 68.1339 6.90603C68.3383 6.72348 68.4405 6.47522 68.4405 6.16123C68.4405 5.83995 68.3383 5.59169 68.1339 5.41644C67.9294 5.2339 67.6446 5.14262 67.2795 5.14262H64.0594L65.078 4.09115V11.5391H62.8108V3.32446H67.4219ZM76.5725 11.7143C75.6013 11.7143 74.747 11.5354 74.0095 11.1776C73.2793 10.8198 72.7098 10.3197 72.3009 9.67709C71.8993 9.03452 71.6985 8.28608 71.6985 7.43176C71.6985 6.57744 71.8993 5.829 72.3009 5.18643C72.7098 4.54387 73.2793 4.04369 74.0095 3.6859C74.747 3.32811 75.6013 3.14921 76.5725 3.14921C77.5509 3.14921 78.4053 3.32811 79.1354 3.6859C79.8656 4.04369 80.4352 4.54387 80.8441 5.18643C81.253 5.829 81.4574 6.57744 81.4574 7.43176C81.4574 8.28608 81.253 9.03452 80.8441 9.67709C80.4352 10.3197 79.8656 10.8198 79.1354 11.1776C78.4053 11.5354 77.5509 11.7143 76.5725 11.7143ZM76.5725 9.68804C77.1055 9.68804 77.5655 9.59676 77.9525 9.41422C78.3395 9.23167 78.6353 8.97245 78.8397 8.63657C79.0515 8.30068 79.1574 7.89908 79.1574 7.43176C79.1574 6.96444 79.0515 6.56284 78.8397 6.22695C78.6353 5.89107 78.3395 5.63185 77.9525 5.4493C77.5655 5.26676 77.1055 5.17548 76.5725 5.17548C76.0468 5.17548 75.5904 5.26676 75.2034 5.4493C74.8164 5.63185 74.517 5.89107 74.3053 6.22695C74.0935 6.56284 73.9876 6.96444 73.9876 7.43176C73.9876 7.89908 74.0935 8.30068 74.3053 8.63657C74.517 8.97245 74.8164 9.23167 75.2034 9.41422C75.5904 9.59676 76.0468 9.68804 76.5725 9.68804Z" fill="black"/>
<path d="M32.0792 22.9297V14.7151H34.3136V21.7358L33.6893 21.5934L38.3442 14.7151H41.3124V22.9297H39.0671V15.7775L39.7023 15.9199L34.9598 22.9297H32.0792ZM43.1788 14.7151H45.446V22.9297H43.1788V14.7151ZM49.6409 14.7151H51.9191V22.9297H49.6409V14.7151ZM44.4493 17.749H50.5828V19.7643H44.4493V17.749ZM60.1937 21.6811V19.8848H62.8881C63.1874 19.8848 63.443 19.8373 63.6548 19.7424C63.8665 19.6402 64.0308 19.4942 64.1476 19.3043C64.2645 19.1145 64.3229 18.8881 64.3229 18.6252C64.3229 18.3624 64.2645 18.136 64.1476 17.9462C64.0308 17.7563 63.8665 17.6139 63.6548 17.519C63.443 17.4168 63.1874 17.3657 62.8881 17.3657H60.2046V15.5694H63.0195C63.7643 15.5694 64.4032 15.6972 64.9362 15.9528C65.4766 16.2083 65.8891 16.5625 66.1739 17.0152C66.466 17.4679 66.612 18.0046 66.612 18.6252C66.612 19.2386 66.466 19.7753 66.1739 20.2353C65.8891 20.688 65.4766 21.0422 64.9362 21.2977C64.4032 21.5533 63.7643 21.6811 63.0195 21.6811H60.1937ZM56.8969 21.6811C56.1521 21.6811 55.5095 21.5533 54.9692 21.2977C54.4362 21.0422 54.0236 20.688 53.7315 20.2353C53.4468 19.7753 53.3044 19.2386 53.3044 18.6252C53.3044 18.0046 53.4468 17.4679 53.7315 17.0152C54.0236 16.5625 54.4362 16.2083 54.9692 15.9528C55.5095 15.6972 56.1521 15.5694 56.8969 15.5694H59.7008V17.3657H57.0174C56.7253 17.3657 56.4734 17.4168 56.2616 17.519C56.0499 17.6139 55.8856 17.7563 55.7687 17.9462C55.6519 18.136 55.5935 18.3624 55.5935 18.6252C55.5935 18.8881 55.6519 19.1145 55.7687 19.3043C55.8856 19.4942 56.0499 19.6402 56.2616 19.7424C56.4734 19.8373 56.7253 19.8848 57.0174 19.8848H59.7118V21.6811H56.8969ZM58.8246 23.2035V14.4413H61.0918V23.2035H58.8246ZM72.5003 23.1049C71.5291 23.1049 70.6748 22.926 69.9373 22.5682C69.2071 22.2105 68.6376 21.7103 68.2287 21.0677C67.8271 20.4251 67.6263 19.6767 67.6263 18.8224C67.6263 17.9681 67.8271 17.2196 68.2287 16.5771C68.6376 15.9345 69.2071 15.4343 69.9373 15.0765C70.6748 14.7187 71.5291 14.5398 72.5003 14.5398C73.4787 14.5398 74.333 14.7187 75.0632 15.0765C75.7934 15.4343 76.363 15.9345 76.7719 16.5771C77.1808 17.2196 77.3852 17.9681 77.3852 18.8224C77.3852 19.6767 77.1808 20.4251 76.7719 21.0677C76.363 21.7103 75.7934 22.2105 75.0632 22.5682C74.333 22.926 73.4787 23.1049 72.5003 23.1049ZM72.5003 21.0787C73.0333 21.0787 73.4933 20.9874 73.8803 20.8048C74.2673 20.6223 74.563 20.3631 74.7675 20.0272C74.9793 19.6913 75.0851 19.2897 75.0851 18.8224C75.0851 18.3551 74.9793 17.9535 74.7675 17.6176C74.563 17.2817 74.2673 17.0225 73.8803 16.8399C73.4933 16.6574 73.0333 16.5661 72.5003 16.5661C71.9745 16.5661 71.5182 16.6574 71.1312 16.8399C70.7442 17.0225 70.4448 17.2817 70.233 17.6176C70.0213 17.9535 69.9154 18.3551 69.9154 18.8224C69.9154 19.2897 70.0213 19.6913 70.233 20.0272C70.4448 20.3631 70.7442 20.6223 71.1312 20.8048C71.5182 20.9874 71.9745 21.0787 72.5003 21.0787ZM83.4952 14.7151C84.1816 14.7151 84.773 14.8319 85.2695 15.0656C85.7734 15.2992 86.1567 15.6315 86.4196 16.0623C86.6824 16.4858 86.8139 16.9823 86.8139 17.5519C86.8139 18.1141 86.6824 18.6106 86.4196 19.0414C86.1567 19.4649 85.7734 19.7935 85.2695 20.0272C84.773 20.2609 84.1816 20.3777 83.4952 20.3777H79.9355V18.5595H83.3528C83.7179 18.5595 84.0027 18.4719 84.2071 18.2967C84.4116 18.1141 84.5138 17.8658 84.5138 17.5519C84.5138 17.2306 84.4116 16.9823 84.2071 16.8071C84.0027 16.6245 83.7179 16.5332 83.3528 16.5332H80.1327L81.1513 15.4818V22.9297H78.884V14.7151H83.4952ZM100.137 14.7151V22.9297H97.9797V15.5256L98.4617 15.5804L95.2854 22.9297H92.9853L89.798 15.6023L90.2909 15.5475V22.9297H88.1332V14.7151H91.6381L94.5844 21.7687H93.7082L96.6326 14.7151H100.137Z" fill="black"/>
<path fill-rule="evenodd" clip-rule="evenodd" d="M0 1.94391C0 1.2964 0.524912 0.771484 1.17242 0.771484H7.58101C8.22852 0.771484 8.75343 1.2964 8.75343 1.94391V7.86637C8.75343 8.51388 9.27834 9.03879 9.92585 9.03879H13.9447C14.5922 9.03879 15.1172 8.51388 15.1172 7.86637V1.94391C15.1172 1.2964 15.6421 0.771484 16.2896 0.771484H22.6982C23.3457 0.771484 23.8706 1.2964 23.8706 1.94391V9.36928C23.8706 10.0168 23.3457 10.5417 22.6982 10.5417H19.9259C19.2784 10.5417 18.7535 11.0666 18.7535 11.7141V14.3505C18.7535 14.998 19.2784 15.5229 19.9259 15.5229H22.6982C23.3457 15.5229 23.8706 16.0479 23.8706 16.6954V24.1087C23.8706 24.7562 23.3457 25.2811 22.6982 25.2811H16.2896C15.6421 25.2811 15.1172 24.7562 15.1172 24.1087V17.9642C15.1172 17.3167 14.5922 16.7918 13.9447 16.7918L9.92585 16.7918C9.27834 16.7918 8.75343 17.3167 8.75343 17.9642V24.1087C8.75343 24.7562 8.22852 25.2811 7.58101 25.2811H1.17242C0.524912 25.2811 0 24.7562 0 24.1087V16.6954C0 16.0479 0.52491 15.5229 1.17242 15.5229H3.85821C4.50572 15.5229 5.03063 14.998 5.03063 14.3505V11.7141C5.03063 11.0666 4.50572 10.5417 3.85821 10.5417H1.17242C0.524912 10.5417 0 10.0168 0 9.36928V1.94391Z" fill="#FE5428"/>
</svg>
