<svg width="1635" height="356" viewBox="0 0 1635 356" fill="none" xmlns="http://www.w3.org/2000/svg">
<g clip-path="url(#clip0_1040_53)">
<path d="M46.0824 11.6094H0.841797V339.614H46.0824V11.6094Z" fill="#00B76B"/>
<path d="M804.805 11.6094H759.564V339.614H804.805V11.6094Z" fill="#00B76B"/>
<path d="M941.502 9.26367H626.368V53.6085H941.502V9.26367Z" fill="#00B76B"/>
<path d="M1222.74 151.854H990.021V196.198H1222.74V151.854Z" fill="#00B76B"/>
<path d="M1240.86 344.305H1059.85C1010.54 344.305 985.502 323.283 985.502 281.805V68.6802C985.502 27.0716 1008.81 3.18359 1049.35 3.18359H1239.27V47.5285H1049.35C1040.98 47.5285 1037.21 49.1355 1035.57 50.4819C1032.52 52.9141 1030.79 59.5593 1030.79 68.6802V281.805C1030.79 286.582 1031.27 292.75 1033.67 294.835C1034.95 296.051 1040.67 299.873 1059.85 299.873H1240.86V344.305Z" fill="#00B76B"/>
<path d="M572.442 344.304H373.047C351.379 344.304 335.117 334.358 329.579 317.68C322.888 297.701 334.01 273.205 356.741 256.874C367.774 248.926 390.505 234.549 416.825 217.784C449.039 197.458 485.55 174.352 500.749 162.842C523.834 145.469 536.596 135.566 536.596 89.2668C536.919 84.2575 535.824 79.2578 533.432 74.82C531.039 70.3822 527.442 66.679 523.037 64.1193C512.402 57.3438 495.343 53.6085 475.049 53.6085H358.159V9.26367H475.182C541.071 9.26367 581.969 39.9272 581.969 89.2668C581.969 152.418 559.814 174.134 528.797 197.849C512.048 210.575 476.245 233.16 441.639 255.05C417.002 270.599 393.74 285.453 384.036 292.445C381.094 294.537 378.494 297.056 376.326 299.916H572.442V344.304Z" fill="#00B76B"/>
<path d="M318.546 355.423L319.56 354.163L318.546 353.338V355.423Z" fill="#00B76B"/>
<path d="M301.53 339.57C236.97 287.233 134.614 203.408 115.295 184.732C108.826 178.521 106.433 174.221 106.433 172.267C106.433 170.312 109.091 165.274 116.403 158.542C133.019 143.34 255.271 37.3645 284.781 11.6523H216.809C169.22 53.1306 98.5456 114.414 85.74 126.141C69.5225 140.952 61.5466 155.806 61.3694 171.659C61.1922 187.512 68.4147 201.714 83.5245 216.351C101.249 233.333 175.955 294.877 230.678 339.57H301.53Z" fill="#00B76B"/>
<path d="M1581.12 345.868H1635C1609.17 309.341 1544.65 217.958 1528.66 194.244C1517.36 177.392 1517.31 167.88 1528.43 151.897C1541.73 133.091 1620.07 16.3432 1630.66 0.577148H1577.49C1550.9 40.1878 1501.58 113.502 1491.79 127.401C1470.57 157.804 1470.48 186.687 1491.79 218.132C1505.13 238.111 1550.72 302.826 1581.12 345.868Z" fill="#00B76B"/>
<path d="M1408.62 194.244C1392.71 217.958 1328.2 309.341 1302.27 345.868H1356.16C1386.55 302.826 1432.15 238.111 1445.53 218.132C1466.62 186.687 1466.58 157.847 1445.31 127.357C1435.6 113.502 1386.33 40.1878 1359.7 0.577148H1306.53C1317.12 16.3432 1395.64 133.091 1408.75 151.897C1419.96 167.88 1419.92 177.392 1408.62 194.244Z" fill="#00B76B"/>
</g>
<defs>
<clipPath id="clip0_1040_53">
<rect width="1634.16" height="354.846" fill="white" transform="translate(0.841797 0.577148)"/>
</clipPath>
</defs>
</svg>
