<svg xmlns="http://www.w3.org/2000/svg" height="228.2" width="899.667" xml:space="preserve"><path style="fill:#0d0d0d;fill-opacity:1;fill-rule:nonzero;stroke:none" d="m2535.68 748.656 203.68 535.314 202.61-535.314zm42.47 924.384L1995.6 151.66h312.94l120.9 317.762h618.22l120.27-317.762h310.53l-580.15 1521.38h-320.16M6193.82 416.461c-149.25 0-269.61 120.359-269.61 269.609 0 149.246 120.36 269.606 269.61 269.606s269.61-120.36 269.61-269.606c0-149.25-120.36-269.609-269.61-269.609zm0 823.269c-305.72 0-553.66-247.945-553.66-553.66 0-303.32 247.94-553.672 553.66-553.672 305.72 0 553.67 250.352 553.67 553.672 0 305.715-247.95 553.66-553.67 553.66M3851.58 544.039l-252.76 676.431h-298.5l406.83-1068.81h296.09l399.6 1068.81h-298.5l-252.76-676.431M5341.66 1504.53h-284.05v-284.06h-166.1V965.305h166.1V510.34c0-257.578 142.02-368.309 341.82-368.309 77.04 0 142.03 14.438 197.4 38.52V445.34s-48.15-19.258-105.92-19.258c-86.66 0-149.25 33.707-149.25 149.25v389.973h255.17v255.165h-255.17v284.06M4636.34 1711.55c-113.14 0-207.02-93.88-207.02-207.02 0-115.55 93.88-207.03 207.02-207.03 115.55 0 207.02 91.48 207.02 207.03 0 113.14-91.47 207.02-207.02 207.02M4494.31 151.66h284.06v1068.81h-284.06V151.66" transform="matrix(.13333 0 0 -.13333 0 228.2)"/><path style="fill:#5ec67d;fill-opacity:1;fill-rule:nonzero;stroke:none" d="M553.664 1107.33C247.945 1107.33 0 859.387 0 553.672 0 247.949 247.945 0 553.664 0s553.666 247.949 553.666 553.672c0 305.715-247.947 553.658-553.666 553.658" transform="matrix(.13333 0 0 -.13333 0 228.2)"/><path style="fill:#ef3351;fill-opacity:1;fill-rule:nonzero;stroke:none" d="M1514.15 739.027c-185.35 0-334.6-149.246-334.6-334.605 0-185.363 149.25-334.613 334.6-334.613 185.36 0 334.61 149.25 334.61 334.613 0 185.359-149.25 334.605-334.61 334.605" transform="matrix(.13333 0 0 -.13333 0 228.2)"/><path style="fill:#7d64b8;fill-opacity:1;fill-rule:nonzero;stroke:none" d="M659.582 1179.55c115.551 0 207.023 93.88 207.023 207.02 0 115.55-91.472 207.02-207.023 207.02-113.141 0-207.019-91.47-207.019-207.02 0-113.14 93.878-207.02 207.019-207.02" transform="matrix(.13333 0 0 -.13333 0 228.2)"/><path style="fill:#40c1f3;fill-opacity:1;fill-rule:nonzero;stroke:none" d="M1384.16 811.242c247.95 0 450.16 202.208 450.16 450.148 0 247.95-202.21 450.16-450.16 450.16-247.94 0-450.152-202.21-450.152-450.16 0-247.94 202.212-450.148 450.152-450.148" transform="matrix(.13333 0 0 -.13333 0 228.2)"/></svg>