<?xml version="1.0"?>
<svg width="271" height="73" xmlns="http://www.w3.org/2000/svg" xmlns:svg="http://www.w3.org/2000/svg">
 <g class="layer">
  <title>Layer 1</title>
  <path d="m6.6,67.64l3.87,-7.78l2.16,0l-5.25,10.83l-1.59,0l-3.01,-6.34l0,8.92l-2.18,0l0,-13.41l2.14,0l3.86,7.78z" fill="#2C2C2C" id="svg_1"/>
  <path d="m14.14,73.27l4.66,-13.41l2.14,0l4.66,13.41l-2.39,0l-0.91,-2.78l-4.84,0l-0.91,2.78l-2.41,0zm3.95,-4.72l3.58,0l-1.79,-5.42l-1.79,5.42z" fill="#2C2C2C" id="svg_2"/>
  <path d="m36.95,59.86l0,13.41l-2.25,0l0,-11.45l-4.04,0l0,1.54c0,4.37 -0.19,6.16 -0.68,7.43c-0.62,1.61 -1.9,2.35 -3.85,2.66l0,-2.43c0.8,-0.16 1.46,-0.49 1.79,-1.36c0.37,-0.97 0.49,-2.72 0.49,-6.3l0,-3.5l8.54,0l0,0z" fill="#2C2C2C" id="svg_3"/>
  <path d="m42.16,59.86l0,5.09l2.04,0c3.52,0 4.86,2 4.86,4.16c0,2.16 -1.34,4.16 -5,4.16l-4.16,0l0,-13.41l2.26,0zm0,7.04l0,4.43l1.96,0c1.89,0 2.68,-0.89 2.68,-2.22c0,-1.3 -0.8,-2.22 -2.68,-2.22l-1.96,0l0,0.01zm10.32,6.37l-2.25,0l0,-13.41l2.25,0l0,13.41z" fill="#2C2C2C" id="svg_4"/>
  <path d="m57.67,59.86l0,9.16l5.93,-9.16l1.85,0l0,13.41l-2.25,0l0,-9.06l-5.91,9.06l-1.87,0l0,-13.41l2.25,0zm6.49,-3.67c0,1.94 -1.21,2.86 -3.56,2.86c-2.35,0 -3.58,-0.91 -3.58,-2.86l2.1,0c0,0.76 0.29,1.36 1.48,1.36c1.19,0 1.48,-0.6 1.48,-1.36l2.08,0z" fill="#2C2C2C" id="svg_5"/>
  <path d="m81.83,61.82l-6.34,0l0,3.13l2.41,0c3.52,0 4.84,2 4.84,4.16c0,2.16 -1.32,4.16 -4.84,4.16l-4.66,0l0,-13.41l8.59,0l0,1.96zm-6.34,5.08l0,4.43l2.33,0c1.89,0 2.66,-0.89 2.66,-2.22c0,-1.3 -0.78,-2.22 -2.66,-2.22l-2.33,0l0,0.01z" fill="#2C2C2C" id="svg_6"/>
  <path d="m87.08,59.86l0,9.16l5.93,-9.16l1.85,0l0,13.41l-2.25,0l0,-9.06l-5.91,9.06l-1.87,0l0,-13.41l2.25,0z" fill="#2C2C2C" id="svg_7"/>
  <path d="m100.42,65.34l1.36,0c1.69,0 2.37,-0.8 2.37,-1.92c0,-1.05 -0.62,-1.79 -2.2,-1.79c-1.52,0 -2.24,0.66 -2.64,1.83l-2.02,0c0.27,-2.35 2.37,-3.77 4.68,-3.77c2.55,0 4.43,1.26 4.43,3.6c0,1.4 -0.72,2.33 -1.96,2.93c1.42,0.47 2.39,1.63 2.39,3.21c0,2.22 -1.57,4.02 -4.8,4.02c-2.72,0 -4.51,-1.24 -5.07,-3.97l2.18,0c0.56,1.36 1.28,2 2.84,2c1.75,0 2.6,-0.78 2.6,-2.12c0,-1.34 -0.93,-2.08 -2.9,-2.08l-1.26,0l0,-1.94l0,0z" fill="#2C2C2C" id="svg_8"/>
  <path d="m111.26,65.36l5.13,0l0,-5.5l2.25,0l0,13.41l-2.25,0l0,-5.96l-5.13,0l0,5.97l-2.25,0l0,-13.42l2.25,0l0,5.5z" fill="#2C2C2C" id="svg_9"/>
  <path d="m129.83,59.86l0,1.96l-5.97,0l0,3.54l5.38,0l0,1.94l-5.38,0l0,4.02l5.97,0l0,1.94l-8.22,0l0,-13.4l8.22,0z" fill="#2C2C2C" id="svg_10"/>
  <path d="m139.14,64.02c-0.35,-1.63 -1.22,-2.37 -2.7,-2.37c-1.79,0 -2.76,1.17 -2.76,4.06l0,1.71c0,2.86 0.97,4.06 2.76,4.06c1.54,0 2.35,-0.74 2.7,-2.37l2.16,0c-0.45,3.01 -2.2,4.33 -4.86,4.33c-2.99,0 -5.02,-1.81 -5.02,-6.03l0,-1.7c0,-4.22 2.02,-6.03 5.02,-6.03c2.66,0 4.43,1.42 4.88,4.33l-2.18,0l0,0.01z" fill="#2C2C2C" id="svg_11"/>
  <path d="m155.5,67.46l3.87,-7.78l2.16,0l0,13.41l-2.18,0l0,-8.98l-3.07,6.39l-1.59,0l-3.01,-6.34l0,8.92l-2.18,0l0,-13.39l2.14,0l3.86,7.77z" fill="#2C2C2C" id="svg_12"/>
  <path d="m168.96,73.45c-2.99,0 -5.02,-1.81 -5.02,-6.03l0,-1.71c0,-4.22 2.02,-6.03 5.02,-6.03c3.01,0 5.03,1.81 5.03,6.03l0,1.71c0,4.22 -2.02,6.03 -5.03,6.03zm-2.76,-6.02c0,2.9 0.97,4.06 2.76,4.06c1.79,0 2.78,-1.17 2.78,-4.06l0,-1.71c0,-2.9 -0.99,-4.06 -2.78,-4.06c-1.79,0 -2.76,1.17 -2.76,4.06l0,1.71z" fill="#2C2C2C" id="svg_13"/>
  <path d="m183.57,64.03c-0.35,-1.63 -1.22,-2.37 -2.7,-2.37c-1.79,0 -2.76,1.17 -2.76,4.06l0,1.71c0,2.86 0.97,4.06 2.76,4.06c1.54,0 2.35,-0.74 2.7,-2.37l2.16,0c-0.45,3.01 -2.2,4.33 -4.86,4.33c-2.99,0 -5.02,-1.81 -5.02,-6.03l0,-1.71c0,-4.22 2.02,-6.03 5.02,-6.03c2.66,0 4.43,1.42 4.88,4.33l-2.18,0l0,0.02z" fill="#2C2C2C" id="svg_14"/>
  <path d="m195.35,73.09l-3.81,-5.77l-1.48,0l0,5.77l-2.25,0l0,-13.41l2.25,0l0,5.7l1.42,0l3.34,-5.7l2.49,0l-3.83,6.55l4.55,6.86l-2.68,0z" fill="#2C2C2C" id="svg_15"/>
  <path d="m204.06,59.68c3.15,0 4.76,1.17 4.76,3.48c0,1.38 -0.8,2.49 -1.96,2.92c1.52,0.43 2.39,1.48 2.39,3.17c0,2.02 -1.28,3.85 -4.76,3.85l-4.74,0l0,-13.42l4.31,0zm-2.06,5.48l2.2,0c1.67,0 2.37,-0.76 2.37,-1.87c0,-1.05 -0.52,-1.67 -2.66,-1.67l-1.9,0l0,3.54l-0.01,0zm0,5.98l2.35,0c1.81,0 2.64,-0.74 2.64,-2.02c0,-1.42 -0.93,-2.02 -2.92,-2.02l-2.08,0l0,4.04l0.01,0z" fill="#2C2C2C" id="svg_16"/>
  <path d="m213.71,59.68l0,5.09l2.04,0c3.52,0 4.86,2 4.86,4.16c0,2.16 -1.34,4.16 -5,4.16l-4.16,0l0,-13.41l2.26,0zm0,7.03l0,4.43l1.96,0c1.89,0 2.68,-0.89 2.68,-2.22c0,-1.3 -0.8,-2.22 -2.68,-2.22l-1.96,0l0,0.01zm10.32,6.38l-2.25,0l0,-13.41l2.25,0l0,13.41z" fill="#2C2C2C" id="svg_17"/>
  <path d="m146.09,0.69l10.69,0l12.98,24.29l12.91,-24.29l10.76,0l0,47.89l-10.83,0l0,-27.06l-9.85,19.16l-6.18,0l-9.65,-18.95l0,26.86l-10.83,0l0,-47.9l0,0z" fill="#2C2C2C" id="svg_18"/>
  <path d="m234.75,20.89l0,7.5c0,6.76 -1.69,11.93 -5.07,15.51c-3.38,3.59 -7.98,5.38 -13.81,5.38c-5.83,0 -10.43,-1.79 -13.81,-5.38c-3.38,-3.59 -5.07,-8.76 -5.07,-15.51l0,-7.5c0,-6.8 1.68,-11.98 5.03,-15.55c3.36,-3.56 7.98,-5.34 13.85,-5.34c5.87,0 10.49,1.78 13.85,5.34c3.36,3.57 5.03,8.75 5.03,15.55zm-26.23,0l0,7.5c0,7.54 2.45,11.31 7.36,11.31c4.91,0 7.36,-3.77 7.36,-11.31l0,-7.5c0,-7.54 -2.45,-11.31 -7.36,-11.31c-4.91,0 -7.36,3.77 -7.36,11.31z" fill="#2C2C2C" id="svg_19"/>
  <path d="m271.08,7.84l-8.54,6.11c-0.93,-1.57 -2.04,-2.69 -3.33,-3.37c-1.3,-0.67 -3.03,-1.01 -5.2,-1.01c-3.66,0 -5.48,1.39 -5.48,4.16c0,1.39 0.65,2.55 1.94,3.47c1.29,0.93 3.49,1.83 6.59,2.71c5.27,1.53 8.98,3.4 11.11,5.62c2.17,2.27 3.26,5.41 3.26,9.44c0,4.44 -1.46,7.94 -4.37,10.48c-2.91,2.55 -7.03,3.82 -12.35,3.82c-4.49,0 -8.25,-0.61 -11.28,-1.84c-3.03,-1.23 -5.66,-3.23 -7.88,-6l8.61,-6.04c2.31,2.87 5.51,4.3 9.58,4.3c2.04,0 3.57,-0.37 4.61,-1.11c1.04,-0.74 1.56,-1.76 1.56,-3.05c0,-1.39 -0.63,-2.52 -1.88,-3.4c-1.02,-0.79 -3.4,-1.8 -7.15,-3.05c-4.86,-1.57 -8.39,-3.55 -10.58,-5.93c-2.2,-2.38 -3.3,-5.49 -3.3,-9.34c0,-4.26 1.45,-7.62 4.34,-10.1c2.89,-2.47 7.06,-3.71 12.52,-3.71c8.06,0 13.79,2.61 17.22,7.84z" fill="#2C2C2C" id="svg_20"/>
  <path d="m23.66,25.01l12.9,-24.28l10.75,0l0,47.87l-10.82,0l0,-27.06l-9.85,19.15l-6.17,0l-9.64,-18.94l0,26.85l-10.83,0l0,-47.88l10.68,0l12.98,24.29z" fill="#2C2C2C" id="svg_21"/>
  <path d="m68.89,0.72c11.31,0 17.9,3.95 17.9,12.7c0,4.93 -2.15,7.77 -5.48,9.99c4.37,2.15 7.01,5.55 7.01,11.45c0,7.63 -5.13,13.74 -17.9,13.74l-18.25,0l0,-47.88l16.72,0zm-5.2,18.25l4.86,0c4.65,0 6.73,-1.46 6.73,-4.23c0,-2.84 -1.46,-4.51 -7.77,-4.51l-3.82,0l0,8.74l0,0zm0,20.05l5.48,0c5.13,0 7.63,-1.73 7.63,-5.27c0,-3.89 -2.64,-5.2 -8.46,-5.2l-4.65,0l0,10.47l0,0z" fill="#2C2C2C" id="svg_22"/>
  <path d="m116.14,25.01l12.9,-24.28l10.75,0l-20.68,39.96l-6.17,0l-9.64,-18.94l0,26.85l-10.82,0l0,-47.88l10.68,0l12.98,24.29z" fill="#2C2C2C" id="svg_23"/>
  <path d="m134.4,48.62c2.98,0 5.39,-2.41 5.39,-5.39c0,-2.98 -2.41,-5.39 -5.39,-5.39c-2.98,0 -5.39,2.41 -5.39,5.39c0,2.98 2.41,5.39 5.39,5.39z" fill="#E40046" id="svg_24"/>
 </g>
</svg>