<svg width="3000" height="322" viewBox="0 0 3000 322" fill="none" xmlns="http://www.w3.org/2000/svg">
<path d="M455.175 196.228V7.42773H391.381V191.121C391.381 230.253 369.7 254.063 325.912 254.063C282.123 254.063 262.118 230.253 262.118 191.121V7.42773H195.185V191.121C195.185 230.253 173.504 254.063 129.689 254.063C85.874 254.063 65.8952 230.253 65.8952 191.121V7.42773H0V196.228C0 273.616 48.896 318.681 129.689 318.681C171.987 318.681 205.401 306.311 227.667 283.406C250.04 306.285 283.586 318.681 325.885 318.681C406.678 318.681 455.148 273.616 455.148 196.228" fill="black"/>
<path d="M2860.65 321.868C2948.84 321.868 3000 283.507 3000 226.178C3000 168.848 2959.88 142.831 2882.25 129.609L2849.19 123.889C2809.5 116.84 2792.74 106.704 2792.74 91.2476C2792.74 73.6099 2817 61.7185 2850.49 61.7185C2888.85 61.7185 2916.63 78.0261 2939.56 98.3241L2989.84 50.7049C2958.1 20.2712 2910.91 0 2853.15 0C2781.27 0 2724.39 34.3975 2724.39 94.8126C2724.39 149.056 2764.96 176.377 2834.18 187.843L2876.08 194.893C2918.86 201.942 2931.66 212.53 2931.66 227.534C2931.66 246.05 2910.48 260.176 2865.07 260.176C2819.66 260.176 2786.59 239.905 2764.96 214.765L2713.38 261.506C2744.69 296.781 2797.6 321.921 2860.65 321.921M2484.97 253.578V68.3692H2520.7C2584.62 68.3692 2636.66 88.2149 2636.66 158.766C2636.66 234.158 2585.95 253.578 2520.7 253.578H2484.97V253.578ZM2417.5 315.297H2527.29C2622.53 315.297 2705 275.605 2705 158.766C2705 41.9259 2621.23 6.62409 2527.29 6.62409H2417.5V315.297ZM2147.19 160.974C2147.19 109.391 2180.71 63.9797 2233.62 63.9797C2289.62 63.9797 2319.18 109.391 2319.18 160.974C2319.18 212.557 2289.65 257.542 2233.62 257.542C2180.71 257.542 2147.19 212.557 2147.19 160.974ZM2221.71 320.165C2243.76 320.165 2267.57 315.749 2280.34 308.699L2302.82 266.374H2316.92V315.324H2383.96V6.65072H2316.92V55.1477H2302.82L2280.34 12.8224C2265.33 4.44254 2247.27 1.35677 2227.88 1.35677C2146.31 1.35677 2078.4 62.6498 2078.4 160.974C2078.4 254.004 2141.9 320.165 2221.71 320.165M1823.09 127.906C1834.1 86.0069 1865.41 61.7718 1907.74 61.7718C1954.93 61.7718 1982.71 92.6311 1984.91 127.906H1823.09ZM1910.4 321.921C1979.19 321.921 2024.61 291.94 2053.71 256.212L2008.3 209.923C1988.03 238.149 1959.35 259.298 1916.15 259.298C1867.2 259.298 1827.96 233.733 1820.03 183.028H2053.74C2054.19 179.064 2055.07 171.109 2055.07 152.168C2055.07 74.1154 2006.57 0.0266288 1907.79 0.0266288C1809.02 0.0266288 1751.69 74.9935 1751.69 160.974C1751.69 257.542 1814.31 321.921 1910.43 321.921M1531.2 315.297H1746.39V251.796H1598.67V6.62409H1531.2V315.297V315.297ZM1271.05 127.906C1282.07 86.0069 1313.38 61.7718 1355.7 61.7718C1402.9 61.7718 1430.67 92.6311 1432.88 127.906H1271.05ZM1358.36 321.921C1427.16 321.921 1472.57 291.94 1501.67 256.212L1456.26 209.923C1435.99 238.149 1407.31 259.298 1364.11 259.298C1315.16 259.298 1275.92 233.733 1267.99 183.028H1501.7C1502.15 179.064 1503.03 171.109 1503.03 152.168C1503.03 74.1154 1454.53 0.0266288 1355.76 0.0266288C1256.98 0.0266288 1199.65 74.9935 1199.65 160.974C1199.65 257.542 1262.27 321.921 1358.39 321.921M1174.51 215.217V192.738H1108.38V211.705C1108.38 246.103 1086.32 261.081 1062.97 261.081C1039.61 261.081 1017.55 246.103 1017.55 211.705V113.807H1174.09V52.9664H1017.55V0.0532577H950.541V52.9664H892.786V113.807H950.541V217.878C950.541 284.464 992.867 321.948 1060.33 321.948C1127.8 321.948 1174.54 280.501 1174.54 215.244M867.194 6.67734H800.155V315.35H867.194V6.67734ZM699.623 315.35H766.636V6.67734H699.623V123.969H553.68V6.67734H486.641V315.35H553.68V185.714H699.623V315.35Z" fill="black"/>
</svg>
