<?xml version="1.0" encoding="UTF-8"?>
<svg id="b" data-name="Calque 2" xmlns="http://www.w3.org/2000/svg" width="431" height="83.966" viewBox="0 0 431 83.966">
  <g id="c" data-name="Calque 1">
    <g>
      <g>
        <polygon points="20.353 63.937 31.851 83.966 31.851 61.034 20.353 40.995 20.353 63.937" fill="#94bcfb" stroke-width="0"/>
        <polygon points="52.206 52.513 63.704 72.543 63.704 49.61 52.206 29.571 52.206 52.513" fill="#94bcfb" stroke-width="0"/>
        <path d="m0,42.91v41.056h20.354v-42.971c-6.485,1.212-13.215,1.867-20.12,1.899-.078.005-.156.011-.234.016Z" fill="#0554f1" stroke-width="0"/>
        <path d="m31.852,83.966h20.353V29.571c-6.305,3.523-13.128,6.43-20.353,8.619v45.776Z" fill="#0554f1" stroke-width="0"/>
        <path d="m63.703,22.032v61.934h20.354V0c-5.256,8.317-12.164,15.767-20.354,22.032Z" fill="#0554f1" stroke-width="0"/>
      </g>
      <g>
        <polygon points="128.629 83.966 139.45 83.966 139.45 30.929 157.571 30.929 157.571 21.655 110.508 21.655 110.508 30.929 128.629 30.929 128.629 83.966" fill="#203687" stroke-width="0"/>
        <path d="m166.906,38.45h-8.265v45.516h10.821v-31.245l.123-.129c3.401-3.576,7.298-5.448,11.589-5.569v-8.566c-4.237.127-8.322,2.073-12.15,5.79l-.558.541-1.56-6.338Z" fill="#203687" stroke-width="0"/>
        <path d="m206.68,38.45c-4.913,0-10.442.713-16.438,2.117v8.365c5.982-1.389,11.509-2.093,16.438-2.093,6.249,0,9.418,2.247,9.418,6.677v4.029l-.527-.099c-3.109-.582-6.264-.877-9.377-.877-13.262,0-19.708,4.379-19.708,13.389,0,9.424,5.42,14.006,16.571,14.006,4.749,0,9.154-1.371,13.095-4.076l.306-.209,4.286,4.285h6.176v-30.67c0-9.99-6.62-14.846-20.239-14.846Zm9.418,34.167l-.184.133c-3.391,2.461-7.122,3.709-11.09,3.709-4.988,0-7.516-2.232-7.516-6.633,0-4.108,2.99-6.192,8.887-6.192,3.375,0,6.587.3,9.546.892l.358.071v8.018Z" fill="#203687" stroke-width="0"/>
        <path d="m235.147,60.324c0,15.909,7.951,23.642,24.305,23.642,3.945,0,7.808-.415,11.487-1.235v-8.368c-3.653.805-7.218,1.213-10.604,1.213-9.534,0-14.369-5.132-14.369-15.252,0-8.947,4.834-13.484,14.369-13.484,3.383,0,6.948.409,10.604,1.214v-8.368c-3.676-.821-7.538-1.236-11.487-1.236-16.355,0-24.305,7.155-24.305,21.874Z" fill="#203687" stroke-width="0"/>
        <polygon points="349.754 21.655 323.304 83.966 334.353 83.966 355.464 32.107 366.084 57.456 352.989 57.456 349.319 66.729 369.954 66.729 377.158 83.966 388.779 83.966 361.763 21.655 349.754 21.655" fill="#203687" stroke-width="0"/>
        <path d="m410.143,38.45c-14.511,0-21.565,7.14-21.565,21.83,0,15.938,7.213,23.686,22.052,23.686,6.601,0,13.453-.903,20.371-2.683V21.655h-10.821v19.249l-.628-.283c-3.2-1.44-6.365-2.171-9.408-2.171Zm10.037,11.425v23.682l-.312.098c-2.738.864-5.698,1.302-8.797,1.302-7.833,0-11.805-5.042-11.805-14.987,0-8.419,3.823-12.688,11.363-12.688,3.725,0,6.871.827,9.35,2.46l.201.132Z" fill="#203687" stroke-width="0"/>
        <g>
          <rect x="278.607" y="21.655" width="10.778" height="62.312" fill="#203687" stroke-width="0"/>
          <polygon points="318.849 38.387 306.035 38.387 293.586 55.74 293.586 63.202 306.701 83.956 319.593 83.956 304.224 59.081 318.849 38.387" fill="#203687" stroke-width="0"/>
        </g>
      </g>
    </g>
  </g>
</svg>