<?xml version="1.0"?>
<svg width="602" height="245" xmlns="http://www.w3.org/2000/svg" xmlns:svg="http://www.w3.org/2000/svg" version="1.1" xml:space="preserve">
 <metadata id="metadata8">image/svg+xml</metadata>
 <defs id="defs6">
  <clipPath clipPathUnits="userSpaceOnUse" id="clipPath34">
   <path d="m0,234.78l595.28,0l0,-234.78l-595.28,0l0,234.78z" id="path32"/>
  </clipPath>
 </defs>
 <g class="layer">
  <title>Layer 1</title>
  <g id="g10" transform="translate(-116.56 -13.32) matrix(1.33333 0 0 -1.33333 0 313.036)">
   <path d="m87.42,145.64l12.7,0l0,-104.57l-12.7,0l0,104.57z" fill="#8cc7b0" fill-rule="nonzero" id="path12"/>
   <g id="g14" transform="translate(211.9224,41.0723)">
    <path d="m0,0l-10.16,0l-65.28,82.16l0,-82.16l-11.95,0l0,104.57l10.16,0l65.28,-82.46l0,82.46l11.95,0l0,-104.57z" fill="#8cc7b0" fill-rule="nonzero" id="path16"/>
   </g>
   <g id="g18" transform="translate(236.332,41.0723)">
    <path d="m0,0l0,104.57l59.01,0l0,-11.95l-46.31,0l0,-37.05l41.82,0l0,-11.95l-41.82,0l0,-43.62l-12.7,0z" fill="#fcb24c" fill-rule="nonzero" id="path20"/>
   </g>
   <path d="m315.81,145.64l12.7,0l0,-104.57l-12.7,0l0,104.57z" fill="#fcb24c" fill-rule="nonzero" id="path22"/>
   <g id="g24" transform="translate(436.3672,41.0723)">
    <path d="m0,0l-10.16,0l-65.28,82.16l0,-82.16l-11.95,0l0,104.57l10.16,0l65.28,-82.46l0,82.46l11.95,0l0,-104.57z" fill="#fcb24c" fill-rule="nonzero" id="path26"/>
   </g>
   <g id="g28">
    <g clip-path="url(#clipPath34)" id="g30">
     <g id="g36" transform="translate(470.1865,149.8887)">
      <path d="m0,0c0,0 -1.76,-7.27 5.41,-10.3c7.16,-3.03 13.45,0.71 16.38,6.6c2.93,5.89 3.44,16.73 3.35,20.75c-0.09,4.02 1.23,7.45 2.35,7.26c1.12,-0.18 1.5,-5.41 0.86,-9.45c-0.64,-4.04 -4.19,-16.27 -1.01,-23.02c3.18,-6.75 10.26,-6.02 14.73,-3.61c4.48,2.42 7.06,8.34 7.75,11.16c0.68,2.81 0.29,5.64 0.29,5.64c0,0 8.23,-1.5 12.75,3.13c4.53,4.63 7.16,10.65 4.41,16.49c-2.75,5.83 -13.79,4.61 -19.2,3.84c-5.42,-0.78 -13.85,-2.1 -15.04,-1.56c-1.2,0.55 -3.34,4.3 1.02,4.35c4.36,0.06 14.38,-0.67 21.61,1.44c7.23,2.12 13.12,4.72 13.15,10.85c0.03,6.13 -2.62,10.6 -7.37,13.13c-4.74,2.53 -9.99,1.31 -9.99,1.31c0,0 1.32,5.78 -8.31,13.44c-9.63,7.65 -16.78,0.8 -17.49,-3.45c-0.72,-4.25 -0.92,-18.24 1.02,-23.95c1.94,-5.7 2.4,-10.49 1.31,-11.56c-1.09,-1.07 -3.03,1.27 -3.52,3.9c-0.48,2.63 -2.59,12.02 -2.64,17.94c-0.05,5.93 -1.58,16.5 -9.88,16.56c-8.29,0.06 -11.59,-5.05 -12.67,-7.93c-1.07,-2.88 -1.71,-7.17 -1.71,-7.17c0,0 -5.61,0.64 -9.48,-4.94c-3.87,-5.57 -3.89,-16.41 0.63,-18.11c4.52,-1.71 9.98,-3.72 15.89,-3.17c5.92,0.55 11.57,1.33 14.02,1.42c2.45,0.08 4.21,-0.12 4.57,-1c0.35,-0.89 -6.26,-1.12 -10.57,-1.07c-4.32,0.04 -24.32,-1.29 -28.97,-2.78c-4.66,-1.48 -13.84,-3.67 -19.53,-7.93c-5.68,-4.27 -7.72,-6.35 -6.09,-8.06c1.63,-1.71 4.35,-2.35 5.2,0.04c0.85,2.38 7.41,8.5 14.42,10.99c9.05,3.21 18.81,5.01 27.35,5.68c8.55,0.67 16.83,0.07 18.11,-0.54l1.28,-0.62c0,0 -1.89,-3.47 -7.38,-2.77c-5.48,0.7 -18.93,1.67 -25.47,-2.93c-6.54,-4.59 -5.4,-12.91 -1.87,-16.07c4.4,-3.94 10.33,-3.93 10.33,-3.93" fill="#8cc7b0" fill-rule="nonzero" id="path38"/>
     </g>
    </g>
   </g>
  </g>
 </g>
</svg>