<?xml version="1.0" encoding="UTF-8" standalone="no"?>
<!-- Created with Inkscape (http://www.inkscape.org/) -->

<svg
   version="1.1"
   id="svg2"
   width="592"
   height="149.33333"
   viewBox="0 0 592 149.33333"
   sodipodi:docname="RIA_MODA.eps"
   xmlns:inkscape="http://www.inkscape.org/namespaces/inkscape"
   xmlns:sodipodi="http://sodipodi.sourceforge.net/DTD/sodipodi-0.dtd"
   xmlns="http://www.w3.org/2000/svg"
   xmlns:svg="http://www.w3.org/2000/svg">
  <defs
     id="defs6" />
  <sodipodi:namedview
     id="namedview4"
     pagecolor="#ffffff"
     bordercolor="#000000"
     borderopacity="0.25"
     inkscape:showpageshadow="2"
     inkscape:pageopacity="0.0"
     inkscape:pagecheckerboard="0"
     inkscape:deskcolor="#d1d1d1" />
  <g
     id="g8"
     inkscape:groupmode="layer"
     inkscape:label="ink_ext_XXXXXX"
     transform="matrix(1.3333333,0,0,-1.3333333,0,149.33333)">
    <g
       id="g10"
       transform="scale(0.1)">
      <path
         d="M 4434.05,1.41797 H 1.55859 V 1119.1 H 4434.05 V 1.41797"
         style="fill:#ffffff;fill-opacity:1;fill-rule:evenodd;stroke:none"
         id="path12" />
      <path
         d="M 4434.05,1.41797 H 1.55859 V 1119.1 H 4434.05 V 1.41797"
         style="fill:#ffffff;fill-opacity:1;fill-rule:evenodd;stroke:none"
         id="path14" />
      <path
         d="m 1628.46,802.961 v 293.079 l -435.95,-0.44 -105.3,-399.178 -41.05,-154.758 c -3,3.457 -77.637,253.59 -77.637,261.297 v 14.125 l -4.398,0.707 -40.246,150.488 -32.996,127.759 H 456.809 V 43.793 h 250.566 l 2.977,735.262 56.195,-204.871 141.98,-530.391 212.173,-0.0742 5.59,24.121 195.14,721.0002 V 43.793 h 303.5 v 296.605 c 0.45,-0.328 57.25,-103.421 68.51,-118.597 24.11,-32.516 62.79,-71.215 95.28,-95.336 64.22,-47.672 171.43,-96.797 280.87,-96.797 h 67.05 l 0.6,-3.5352 122.92,21.1875 c 21.58,14.461 74.07,28.6992 104.49,47.2891 33.73,20.6176 58.22,39.5816 85.2,66.5816 27.55,27.567 47.79,48.094 70.05,81.747 8.92,13.484 50.93,94.953 54.35,97.46 V 43.793 h 458.77 c 94.61,0 170.05,29.8711 237.56,58.918 30.71,13.211 61.65,42.211 86.46,61.789 26.41,20.848 59.46,66.773 76.17,76.59 l -61.39,-197.297 264.46,0.0664 29.22,92.6096 34.52,112.121 h 285.85 c 12.58,0 31.44,-81.465 35.95,-98.215 8.62,-32.043 23.87,-75.5039 31.11,-106.582 l 335.65,0.125 -335.65,1052.122 h -342.32 c -14.68,0 -18.82,-47.4 -25.82,-62.45 -11.53,-24.82 -14.35,-40.981 -22.2,-69.59 -11.84,-43.082 -35.54,-94.258 -43.97,-136.094 -4.5,-22.34 -82.17,-263.722 -87.99,-272.117 0,321.375 -202.6,540.251 -522.31,540.251 H 2574.25 V 810.023 c -1.38,1.008 -55.02,101.61 -74.98,122.723 -36.35,38.465 -56.67,63.973 -102.88,94.794 -84.42,56.31 -173.87,82.62 -312.68,82.62 h -17.65 c -104.2,0 -215.93,-48.34 -276.24,-94.37 -36.43,-27.798 -65.37,-57.173 -92.85,-94.235 -15.04,-20.274 -22.8,-34.543 -36.05,-55.739 -10.5,-16.796 -23.21,-52.199 -32.46,-62.855"
         style="fill:#2a2b2c;fill-opacity:1;fill-rule:evenodd;stroke:none"
         id="path16" />
      <path
         d="m 1942.54,598.164 v -63.562 c 0,-122.606 34.88,-268.356 155.28,-268.356 h 7.06 c 126.12,0 151.75,140.473 151.75,268.356 v 88.277 c 0,52.707 -9.35,122.922 -24.54,159.055 -13.93,33.121 -55.74,88.117 -98.98,88.117 h -45.87 c -102.47,0 -144.7,-162.985 -144.7,-271.887"
         style="fill:#ffffff;fill-opacity:1;fill-rule:evenodd;stroke:none"
         id="path18" />
      <path
         d="m 2905.98,283.898 81.27,-0.898 42.25,4.434 c 22.41,15.019 40.52,16.707 67.71,38.175 17.8,14.051 35.04,38.075 46.38,59.524 26.87,50.824 41.18,98.129 41.18,174.187 v 56.496 c 0,25.887 -10.58,44.016 -10.58,74.153 -10.58,15.808 -13.77,38.062 -23.44,57.761 -9.58,19.532 -21.36,35.805 -33,51.727 -19.84,27.148 -65.58,56.469 -112.96,56.469 h -98.81 V 283.898"
         style="fill:#ffffff;fill-opacity:1;fill-rule:evenodd;stroke:none"
         id="path20" />
      <path
         d="M 15.6758,587.57 216.832,502.824 H 15.6758 V 393.363 H 396.816 v 102.399 c 0,18.136 -178.457,73.703 -190.57,91.808 h 190.57 V 700.563 H 15.6758 V 587.57"
         style="fill:#97262d;fill-opacity:1;fill-rule:evenodd;stroke:none"
         id="path22" />
      <path
         d="M 15.6758,223.875 V 47.3203 H 396.816 V 174.438 H 262.711 v 56.496 c 0,73.91 -42.793,144.773 -116.457,144.773 h -17.649 c -75.3042,0 -112.9292,-72.816 -112.9292,-151.832"
         style="fill:#97262d;fill-opacity:1;fill-rule:evenodd;stroke:none"
         id="path24" />
      <path
         d="m 266.625,1050.26 c -28.852,-3.38 -101.73,-32.91 -129.02,-42.73 C 117.977,1000.47 94.2305,995.742 72.207,988.227 60.832,984.344 10.0547,974.234 10.0547,962.133 V 849.141 c 0,-14.278 76.3672,-29.286 91.8593,-35.211 25.656,-9.809 68.602,-26.02 95.461,-31.602 61.328,-12.75 133.824,-46.32 193.82,-60.305 v 102.403 c -17.488,0.387 -74.109,14.687 -74.109,28.246 v 91.805 c 15.211,1.269 74.109,13.253 74.109,28.246 l 0.071,116.307 -124.641,-38.77"
         style="fill:#97262d;fill-opacity:1;fill-rule:evenodd;stroke:none"
         id="path26" />
      <path
         d="m 183.457,901.711 53.516,-17.645 2.211,42.914 -77.047,-17.824 21.32,-7.445"
         style="fill:#ffffff;fill-opacity:1;fill-rule:evenodd;stroke:none"
         id="path28" />
      <path
         d="m 107.434,223.875 v -52.969 h 67.05 v 45.907 c 0,15.277 -13.703,38.839 -28.23,38.839 h -14.117 c -11.239,0 -24.703,-17.992 -24.703,-31.777"
         style="fill:#ffffff;fill-opacity:1;fill-rule:evenodd;stroke:none"
         id="path30" />
      <path
         d="m 3845.73,632.133 -57.35,-212.625 167.94,0.586 -86.11,296.847 -24.48,-84.808"
         style="fill:#ffffff;fill-opacity:1;fill-rule:evenodd;stroke:none"
         id="path32" />
    </g>
  </g>
</svg>
