<svg width="1702" height="246" viewBox="0 0 1702 246" fill="none" xmlns="http://www.w3.org/2000/svg">
<g clip-path="url(#clip0_535_2)">
<path d="M436.6 138.48C449.733 132.14 459.907 123.5 467.12 112.56C474.56 101.4 478.28 88.6 478.28 74.16C478.28 59.28 474.56 46.3733 467.12 35.44C459.9 24.28 449.727 15.6367 436.6 9.51001C423.693 3.17001 408.597 0 391.31 0H257.1V246.12H300.41V147.67H349.95L432.69 246.12H484.54L400.69 147.35C414.11 146.43 426.08 143.473 436.6 138.48ZM300.41 37.41H387.41C401.843 37.41 413.217 40.69 421.53 47.25C430.07 53.6033 434.337 62.5733 434.33 74.16C434.33 85.54 430.063 94.51 421.53 101.07C413.223 107.63 401.85 110.91 387.41 110.91H300.41V37.41Z" fill="#2A292A"/>
<path d="M610.19 0L492.05 246.12H538.32L564.69 189.67H709.83L736.2 246.12H782.47L664.33 0H610.19ZM581.4 153.9L637.26 34.32L693.12 153.9H581.4Z" fill="#2A292A"/>
<path d="M978.17 205.04L878.75 0H812.47V246.12H853.81V41.36L954.89 246.12H1001.16L1102.23 41.07V246.12H1143.58V0H1077.29L978.17 205.04Z" fill="#2A292A"/>
<path d="M1684.18 58.74C1672.37 40.14 1655.85 25.7 1634.62 15.42C1613.62 5.13998 1589.12 0 1561.12 0H1449.87V246.12H1561.12C1589.12 246.12 1613.62 240.977 1634.62 230.69C1655.85 220.41 1672.37 206.077 1684.18 187.69C1695.99 169.103 1701.89 147.557 1701.9 123.05C1701.91 98.5433 1696 77.1067 1684.18 58.74ZM1646.11 167.74C1638.45 180.407 1627.51 190.36 1613.29 197.6C1599.29 204.6 1582.89 208.1 1564.08 208.1H1493.2V38.1H1564.08C1582.89 38.1 1599.29 41.71 1613.29 48.93C1627.52 55.93 1638.46 65.7767 1646.11 78.47C1653.99 91.1367 1657.93 106.013 1657.93 123.1C1657.94 139.913 1654 154.777 1646.11 167.69V167.74Z" fill="#2A292A"/>
<path d="M0 246.38H37.82V141.21H211.53V105.76H0V246.38Z" fill="#2A292A"/>
<path d="M211.53 0H0V37.11H211.53V0Z" fill="#2A292A"/>
<path d="M1192.34 37.22H1403.87V0.109985L1192.34 0V37.22Z" fill="#2A292A"/>
<path d="M1192.34 246.38H1403.87V207.98H1229.57V141.21H1403.87V105.62H1192.34V246.38Z" fill="#2A292A"/>
</g>
<defs>
<clipPath id="clip0_535_2">
<rect width="1702" height="246" fill="white"/>
</clipPath>
</defs>
</svg>
