<svg width="252" height="26" viewBox="0 0 252 26" fill="none" xmlns="http://www.w3.org/2000/svg">
<path d="M191.9 10V3.928H193.028V4.756L192.992 5.212H193.016C193.168 4.836 193.444 4.504 193.844 4.216C194.244 3.928 194.672 3.784 195.128 3.784C196.128 3.784 196.732 4.244 196.94 5.164H196.964C197.14 4.788 197.424 4.464 197.816 4.192C198.216 3.92 198.652 3.784 199.124 3.784C199.812 3.784 200.316 3.976 200.636 4.36C200.964 4.744 201.128 5.328 201.128 6.112V10H199.964V6.364C199.964 5.876 199.888 5.5 199.736 5.236C199.592 4.972 199.312 4.84 198.896 4.84C198.36 4.84 197.924 5.076 197.588 5.548C197.26 6.012 197.096 6.552 197.096 7.168V10H195.932V6.364C195.932 5.884 195.86 5.512 195.716 5.248C195.58 4.976 195.304 4.84 194.888 4.84C194.344 4.84 193.904 5.076 193.568 5.548C193.232 6.02 193.064 6.56 193.064 7.168V10H191.9ZM202.473 6.952C202.473 6.048 202.789 5.296 203.421 4.696C204.053 4.088 204.825 3.784 205.737 3.784C206.657 3.784 207.433 4.084 208.065 4.684C208.697 5.284 209.013 6.04 209.013 6.952C209.013 7.864 208.697 8.624 208.065 9.232C207.433 9.84 206.661 10.144 205.749 10.144C204.837 10.144 204.061 9.84 203.421 9.232C202.789 8.624 202.473 7.864 202.473 6.952ZM203.661 6.952C203.661 7.584 203.861 8.108 204.261 8.524C204.669 8.932 205.165 9.136 205.749 9.136C206.325 9.136 206.817 8.928 207.225 8.512C207.633 8.096 207.837 7.576 207.837 6.952C207.837 6.328 207.633 5.812 207.225 5.404C206.817 4.996 206.325 4.792 205.749 4.792C205.165 4.792 204.669 4.996 204.261 5.404C203.861 5.812 203.661 6.328 203.661 6.952ZM210.416 10V3.928H211.544V5.02L211.508 5.464H211.532C211.684 5 211.932 4.616 212.276 4.312C212.62 4.008 213.016 3.856 213.464 3.856C213.544 3.856 213.648 3.864 213.776 3.88V5.032C213.712 5.016 213.6 5.008 213.44 5.008C212.832 5.008 212.368 5.256 212.048 5.752C211.736 6.24 211.58 6.816 211.58 7.48V10H210.416ZM214.379 6.964C214.379 6.012 214.667 5.244 215.243 4.66C215.819 4.076 216.547 3.784 217.427 3.784C218.251 3.784 218.895 4.056 219.359 4.6C219.823 5.136 220.055 5.812 220.055 6.628C220.055 6.732 220.039 6.896 220.007 7.12H215.591C215.623 7.752 215.835 8.248 216.227 8.608C216.627 8.96 217.111 9.136 217.679 9.136C218.343 9.136 218.939 8.9 219.467 8.428L219.959 9.28C219.671 9.544 219.311 9.756 218.879 9.916C218.455 10.068 218.031 10.144 217.607 10.144C216.663 10.144 215.887 9.844 215.279 9.244C214.679 8.636 214.379 7.876 214.379 6.964ZM215.627 6.28H218.879C218.863 5.776 218.715 5.384 218.435 5.104C218.163 4.824 217.819 4.684 217.403 4.684C216.947 4.684 216.555 4.828 216.227 5.116C215.907 5.396 215.707 5.784 215.627 6.28ZM224.472 7.78V4.936H223.68V3.988H224.496V2.26H225.636V3.988H227.1V4.936H225.636V7.648C225.636 7.88 225.668 8.084 225.732 8.26C225.796 8.428 225.872 8.56 225.96 8.656C226.056 8.752 226.164 8.828 226.284 8.884C226.412 8.94 226.524 8.976 226.62 8.992C226.724 9.008 226.828 9.016 226.932 9.016C227.036 9.016 227.128 9.008 227.208 8.992V10.024C227.016 10.048 226.88 10.06 226.8 10.06C226.616 10.06 226.432 10.044 226.248 10.012C226.072 9.988 225.872 9.932 225.648 9.844C225.424 9.748 225.228 9.624 225.06 9.472C224.9 9.312 224.76 9.088 224.64 8.8C224.528 8.504 224.472 8.164 224.472 7.78ZM228.404 10V1.528H229.568V4.672L229.52 5.176H229.544C229.712 4.824 229.996 4.504 230.396 4.216C230.796 3.928 231.272 3.784 231.824 3.784C233.208 3.784 233.9 4.56 233.9 6.112V10H232.736V6.376C232.736 5.888 232.656 5.512 232.496 5.248C232.344 4.984 232.044 4.852 231.596 4.852C231.012 4.852 230.528 5.068 230.144 5.5C229.76 5.924 229.568 6.464 229.568 7.12V10H228.404ZM235.13 8.344C235.13 7.896 235.254 7.52 235.502 7.216C235.75 6.912 236.078 6.696 236.486 6.568C236.902 6.432 237.286 6.34 237.638 6.292C237.99 6.244 238.362 6.22 238.754 6.22H239.066V6.1C239.066 5.212 238.622 4.768 237.734 4.768C237.15 4.768 236.582 4.964 236.03 5.356L235.562 4.504C235.81 4.296 236.146 4.124 236.57 3.988C236.994 3.852 237.414 3.784 237.83 3.784C238.598 3.784 239.19 3.988 239.606 4.396C240.022 4.804 240.23 5.392 240.23 6.16V10H239.138V9.388L239.174 8.908H239.15C238.966 9.268 238.694 9.564 238.334 9.796C237.982 10.028 237.59 10.144 237.158 10.144C236.606 10.144 236.13 9.98 235.73 9.652C235.33 9.324 235.13 8.888 235.13 8.344ZM236.294 8.248C236.294 8.512 236.394 8.74 236.594 8.932C236.794 9.124 237.074 9.22 237.434 9.22C237.914 9.22 238.306 9.02 238.61 8.62C238.914 8.22 239.066 7.776 239.066 7.288V7.06H238.766C237.118 7.06 236.294 7.456 236.294 8.248ZM241.963 10V3.928H243.091V4.756L243.055 5.212H243.079C243.231 4.868 243.503 4.544 243.895 4.24C244.295 3.936 244.791 3.784 245.383 3.784C246.767 3.784 247.459 4.56 247.459 6.112V10H246.295V6.376C246.295 5.888 246.215 5.512 246.055 5.248C245.903 4.984 245.603 4.852 245.155 4.852C244.571 4.852 244.087 5.068 243.703 5.5C243.319 5.924 243.127 6.452 243.127 7.084V10H241.963ZM191.9 21.332V14.528H193.052V21.14C193.052 21.468 193.108 21.696 193.22 21.824C193.34 21.944 193.504 22.004 193.712 22.004C193.8 22.004 193.868 22 193.916 21.992V23.024C193.748 23.048 193.62 23.06 193.532 23.06C192.444 23.06 191.9 22.484 191.9 21.332ZM194.703 19.952C194.703 19.048 195.019 18.296 195.651 17.696C196.283 17.088 197.055 16.784 197.967 16.784C198.887 16.784 199.663 17.084 200.295 17.684C200.927 18.284 201.243 19.04 201.243 19.952C201.243 20.864 200.927 21.624 200.295 22.232C199.663 22.84 198.891 23.144 197.979 23.144C197.067 23.144 196.291 22.84 195.651 22.232C195.019 21.624 194.703 20.864 194.703 19.952ZM195.891 19.952C195.891 20.584 196.091 21.108 196.491 21.524C196.899 21.932 197.395 22.136 197.979 22.136C198.555 22.136 199.047 21.928 199.455 21.512C199.863 21.096 200.067 20.576 200.067 19.952C200.067 19.328 199.863 18.812 199.455 18.404C199.047 17.996 198.555 17.792 197.979 17.792C197.395 17.792 196.899 17.996 196.491 18.404C196.091 18.812 195.891 19.328 195.891 19.952ZM203.222 24.104C203.766 24.376 204.322 24.512 204.89 24.512C205.458 24.512 205.918 24.372 206.27 24.092C206.63 23.82 206.81 23.396 206.81 22.82V22.328L206.846 21.944H206.822C206.43 22.6 205.822 22.928 204.998 22.928C204.174 22.928 203.514 22.636 203.018 22.052C202.53 21.468 202.286 20.728 202.286 19.832C202.286 18.936 202.522 18.204 202.994 17.636C203.466 17.068 204.114 16.784 204.938 16.784C205.346 16.784 205.722 16.86 206.066 17.012C206.41 17.164 206.674 17.396 206.858 17.708H206.894C206.87 17.66 206.858 17.6 206.858 17.528V16.928H207.974V22.748C207.974 23.228 207.886 23.652 207.71 24.02C207.542 24.388 207.31 24.676 207.014 24.884C206.718 25.1 206.394 25.26 206.042 25.364C205.69 25.468 205.314 25.52 204.914 25.52C204.202 25.52 203.51 25.352 202.838 25.016L203.222 24.104ZM203.462 19.796C203.462 20.436 203.618 20.952 203.93 21.344C204.25 21.728 204.682 21.92 205.226 21.92C205.698 21.92 206.082 21.756 206.378 21.428C206.682 21.1 206.834 20.568 206.834 19.832C206.834 18.472 206.262 17.792 205.118 17.792C204.598 17.792 204.19 17.972 203.894 18.332C203.606 18.684 203.462 19.172 203.462 19.796ZM209.747 15.704V14.528H210.947V15.704H209.747ZM209.771 23V16.928H210.935V23H209.771ZM212.208 22.256L212.76 21.464C213.248 21.936 213.844 22.172 214.548 22.172C214.86 22.172 215.108 22.104 215.292 21.968C215.484 21.824 215.58 21.628 215.58 21.38C215.58 21.172 215.472 20.992 215.256 20.84C215.04 20.688 214.78 20.556 214.476 20.444C214.172 20.332 213.868 20.208 213.564 20.072C213.26 19.936 213 19.74 212.784 19.484C212.568 19.22 212.46 18.904 212.46 18.536C212.46 17.984 212.668 17.556 213.084 17.252C213.5 16.94 214.02 16.784 214.644 16.784C215.46 16.784 216.116 17.008 216.612 17.456L216.144 18.296C215.968 18.128 215.736 17.996 215.448 17.9C215.168 17.804 214.888 17.756 214.608 17.756C214.296 17.756 214.044 17.82 213.852 17.948C213.668 18.076 213.576 18.264 213.576 18.512C213.576 18.728 213.684 18.912 213.9 19.064C214.116 19.216 214.376 19.348 214.68 19.46C214.984 19.564 215.288 19.684 215.592 19.82C215.904 19.956 216.168 20.156 216.384 20.42C216.6 20.676 216.708 20.988 216.708 21.356C216.708 21.876 216.504 22.304 216.096 22.64C215.688 22.976 215.164 23.144 214.524 23.144C213.564 23.144 212.792 22.848 212.208 22.256ZM218.343 20.78V17.936H217.551V16.988H218.367V15.26H219.507V16.988H220.971V17.936H219.507V20.648C219.507 20.88 219.539 21.084 219.603 21.26C219.667 21.428 219.743 21.56 219.831 21.656C219.927 21.752 220.035 21.828 220.155 21.884C220.283 21.94 220.395 21.976 220.491 21.992C220.595 22.008 220.699 22.016 220.803 22.016C220.907 22.016 220.999 22.008 221.079 21.992V23.024C220.887 23.048 220.751 23.06 220.671 23.06C220.487 23.06 220.303 23.044 220.119 23.012C219.943 22.988 219.743 22.932 219.519 22.844C219.295 22.748 219.099 22.624 218.931 22.472C218.771 22.312 218.631 22.088 218.511 21.8C218.399 21.504 218.343 21.164 218.343 20.78ZM222.251 15.704V14.528H223.451V15.704H222.251ZM222.275 23V16.928H223.439V23H222.275ZM224.832 19.964C224.832 19.06 225.136 18.304 225.744 17.696C226.36 17.088 227.14 16.784 228.084 16.784C229.044 16.784 229.804 17.08 230.364 17.672L229.812 18.488C229.348 18.024 228.788 17.792 228.132 17.792C227.524 17.792 227.02 18 226.62 18.416C226.22 18.824 226.02 19.336 226.02 19.952C226.02 20.576 226.22 21.096 226.62 21.512C227.028 21.928 227.544 22.136 228.168 22.136C228.504 22.136 228.84 22.064 229.176 21.92C229.52 21.768 229.808 21.568 230.04 21.32L230.508 22.172C230.228 22.468 229.872 22.704 229.44 22.88C229.008 23.056 228.556 23.144 228.084 23.144C227.132 23.144 226.352 22.844 225.744 22.244C225.136 21.644 224.832 20.884 224.832 19.964ZM231.251 22.256L231.803 21.464C232.291 21.936 232.887 22.172 233.591 22.172C233.903 22.172 234.151 22.104 234.335 21.968C234.527 21.824 234.623 21.628 234.623 21.38C234.623 21.172 234.515 20.992 234.299 20.84C234.083 20.688 233.823 20.556 233.519 20.444C233.215 20.332 232.911 20.208 232.607 20.072C232.303 19.936 232.043 19.74 231.827 19.484C231.611 19.22 231.503 18.904 231.503 18.536C231.503 17.984 231.711 17.556 232.127 17.252C232.543 16.94 233.063 16.784 233.687 16.784C234.503 16.784 235.159 17.008 235.655 17.456L235.187 18.296C235.011 18.128 234.779 17.996 234.491 17.9C234.211 17.804 233.931 17.756 233.651 17.756C233.339 17.756 233.087 17.82 232.895 17.948C232.711 18.076 232.619 18.264 232.619 18.512C232.619 18.728 232.727 18.912 232.943 19.064C233.159 19.216 233.419 19.348 233.723 19.46C234.027 19.564 234.331 19.684 234.635 19.82C234.947 19.956 235.211 20.156 235.427 20.42C235.643 20.676 235.751 20.988 235.751 21.356C235.751 21.876 235.547 22.304 235.139 22.64C234.731 22.976 234.207 23.144 233.567 23.144C232.607 23.144 231.835 22.848 231.251 22.256Z" fill="black"/>
<path d="M181 0V24" stroke="url(#paint0_linear_199_3070)"/>
<g clip-path="url(#clip0_199_3070)">
<path fill-rule="evenodd" clip-rule="evenodd" d="M38.4248 12.14C45.3853 20.2067 47.5359 22 47.5359 22H37.518C34.7877 22 32.2684 20.6875 30.2588 18.4833L28.1516 16.0642H14.7269L16.8141 13.5458H26.0311L21.9911 8.87917H20.6522L26.3615 2H30.2763C30.2763 2 31.4609 4.07333 38.4248 12.14ZM23.5552 2L16.8967 10.0192L6.79203 22H0L16.9759 2H23.5552ZM151.49 12.14C158.452 20.2067 160.6 22 160.6 22H150.583C147.851 22 145.336 20.6875 143.326 18.4883L141.217 16.0633H127.787L129.879 13.5458H139.097L135.056 8.87917H133.727L139.436 2H143.34C143.34 2 144.527 4.07333 151.489 12.14H151.49ZM118.674 10.6667L115.678 13.3642H105.553V10.6667H118.674ZM59.4432 2C60.8255 2 61.9416 3.59917 61.9416 5.56917V22H48.7171C48.7171 22 49.3161 19.6667 49.3161 12.1333C49.3161 4.59667 48.7171 2 48.7171 2H59.4449H59.4432ZM136.626 2L130.462 9.42833L119.855 22H113.063L130.043 2H136.626ZM126.012 2L122.025 6.41417H103.745V18.4317C103.745 20.4033 102.626 22 101.247 22H90.5196C90.5196 22 91.1185 19.6667 91.1185 12.1333C91.1185 4.59667 90.5196 2 90.5196 2H126.012ZM76.938 2H83.5865L65.8573 14.58L62.6499 12.135L76.9371 2H76.938ZM89.813 22H78.568C76.6051 22 74.7541 21.3242 73.124 20.1283L67.8194 16.0775L75.2054 10.8358L89.813 22Z" fill="#ED1A3B"/>
</g>
<defs>
<linearGradient id="paint0_linear_199_3070" x1="181" y1="23.7447" x2="181" y2="-0.255319" gradientUnits="userSpaceOnUse">
<stop stop-color="#EC0D2F"/>
<stop offset="1" stop-color="#FCB9CE"/>
</linearGradient>
<clipPath id="clip0_199_3070">
<rect width="161" height="20" fill="white" transform="translate(0 2)"/>
</clipPath>
</defs>
</svg>
