<svg xmlns="http://www.w3.org/2000/svg" xmlns:xlink="http://www.w3.org/1999/xlink" width="1165" zoomAndPan="magnify" viewBox="0 0 873.75 873.749974" height="1165" preserveAspectRatio="xMidYMid meet" version="1.0"><defs><clipPath id="a453f95947"><path d="M 0 0 L 873.5 0 L 873.5 873.5 L 0 873.5 Z M 0 0 " clip-rule="nonzero"/></clipPath><clipPath id="563308ad68"><path d="M 0 0 L 814.765625 0 L 814.765625 304.914062 L 0 304.914062 Z M 0 0 " clip-rule="nonzero"/></clipPath><clipPath id="1acf5529dd"><path d="M 0 304.222656 L 0 0 L 814.277344 0 Z M 0 304.222656 " clip-rule="nonzero"/></clipPath><clipPath id="041d5086f1"><path d="M 569 59 L 873.5 59 L 873.5 873.5 L 569 873.5 Z M 569 59 " clip-rule="nonzero"/></clipPath><clipPath id="3f079200d1"><path d="M 569.527344 873.75 L 873.75 873.75 L 873.75 59.472656 Z M 569.527344 873.75 " clip-rule="nonzero"/></clipPath><clipPath id="482cd65170"><path d="M 0 45 L 830.761719 45 L 830.761719 873.5 L 0 873.5 Z M 0 45 " clip-rule="nonzero"/></clipPath><clipPath id="37816a911b"><path d="M 830.28125 45.746094 L 451.511719 873.75 L 0 873.75 L 0 425.449219 Z M 830.28125 45.746094 " clip-rule="nonzero"/></clipPath><clipPath id="23f1013307"><path d="M 68 292 L 291.917969 292 L 291.917969 585.832031 L 68 585.832031 Z M 68 292 " clip-rule="nonzero"/></clipPath><clipPath id="4b3cf132f1"><path d="M 291.054688 382.960938 C 291.054688 404.472656 285.386719 422.398438 274.070312 436.734375 C 263.035156 451.070312 249.089844 461.136719 232.242188 466.9375 C 215.667969 472.453125 196.484375 475.214844 174.660156 475.214844 L 139.441406 475.214844 L 139.441406 585.683594 L 68.609375 585.683594 L 68.609375 292.777344 L 176.308594 292.777344 C 211.097656 292.777344 238.851562 299.945312 259.566406 314.28125 C 280.558594 328.34375 291.046875 351.238281 291.046875 382.960938 Z M 220.226562 383.371094 C 220.226562 361.027344 203.652344 349.859375 170.519531 349.859375 L 139.441406 349.859375 L 139.441406 418.941406 L 169.269531 418.941406 C 203.242188 418.941406 220.226562 407.082031 220.226562 383.371094 Z M 220.226562 383.371094 " clip-rule="nonzero"/></clipPath><clipPath id="cf9b73b2e7"><path d="M 333.574219 292.777344 L 404.8125 292.777344 L 404.8125 585.683594 L 333.574219 585.683594 Z M 333.574219 292.777344 " clip-rule="nonzero"/></clipPath><clipPath id="575d1cb141"><path d="M 465 292 L 800.769531 292 L 800.769531 585.832031 L 465 585.832031 Z M 465 292 " clip-rule="nonzero"/></clipPath><clipPath id="0bd9073941"><path d="M 800.539062 585.683594 L 731.371094 585.683594 L 733.019531 378.410156 L 731.769531 378.410156 L 655.570312 585.683594 L 605.855469 585.683594 L 531.71875 378.410156 L 530.46875 378.410156 L 532.128906 585.683594 L 465.4375 585.683594 L 465.4375 292.777344 L 566.097656 292.777344 L 632.789062 480.59375 L 634.4375 480.59375 L 698.230469 292.777344 L 800.539062 292.777344 Z M 800.539062 585.683594 " clip-rule="nonzero"/></clipPath><clipPath id="6405e955cb"><path d="M 68 666 L 128.960938 666 L 128.960938 764 L 68 764 Z M 68 666 " clip-rule="nonzero"/></clipPath><clipPath id="f40fddd048"><path d="M 127.632812 677.617188 L 120.054688 683.644531 C 115.625 677.425781 109.148438 674.335938 100.640625 674.335938 C 95.414062 674.335938 90.765625 675.875 86.683594 678.933594 C 82.617188 681.996094 80.566406 686.273438 80.566406 691.792969 C 80.566406 694.070312 80.964844 696.121094 81.765625 697.960938 C 82.644531 699.808594 83.574219 701.25 84.554688 702.296875 C 85.535156 703.347656 87.125 704.4375 89.335938 705.566406 C 91.632812 706.71875 93.414062 707.496094 94.664062 707.945312 C 95.992188 708.375 98.121094 709.078125 101.039062 710.035156 C 104.050781 711.003906 106 711.65625 106.890625 712.003906 C 107.859375 712.265625 109.636719 712.925781 112.207031 713.976562 C 114.867188 715.023438 116.675781 715.933594 117.65625 716.734375 C 118.714844 717.433594 120.136719 718.535156 121.90625 720.011719 C 123.765625 721.503906 125.054688 722.980469 125.765625 724.480469 C 126.5625 725.960938 127.261719 727.800781 127.894531 730 C 128.601562 732.179688 128.953125 734.589844 128.953125 737.207031 C 128.953125 745.875 125.894531 752.515625 119.785156 757.164062 C 113.667969 761.703125 106.488281 763.992188 98.25 763.992188 C 92.3125 763.992188 86.675781 762.800781 81.367188 760.433594 C 76.136719 758.074219 71.890625 754.664062 68.609375 750.195312 L 76.847656 744.167969 C 79.066406 747.65625 82.035156 750.496094 85.753906 752.683594 C 89.472656 754.792969 93.691406 755.84375 98.382812 755.84375 C 103.789062 755.84375 108.617188 754.261719 112.878906 751.113281 C 117.125 747.875 119.246094 743.445312 119.246094 737.859375 C 119.246094 735.320312 118.765625 733.097656 117.796875 731.160156 C 116.90625 729.160156 115.886719 727.53125 114.738281 726.300781 C 113.578125 725.09375 111.757812 723.914062 109.289062 722.761719 C 106.898438 721.542969 104.898438 720.671875 103.308594 720.132812 C 101.800781 719.613281 99.453125 718.875 96.253906 717.902344 C 92.535156 716.765625 89.394531 715.625 86.824219 714.496094 C 84.34375 713.355469 81.777344 711.824219 79.105469 709.894531 C 76.4375 707.96875 74.417969 705.527344 72.988281 702.558594 C 71.660156 699.488281 70.988281 695.949219 70.988281 691.921875 C 70.988281 686.242188 72.539062 681.425781 75.636719 677.484375 C 78.828125 673.464844 82.597656 670.628906 86.945312 668.957031 C 91.375 667.207031 96.0625 666.328125 101.03125 666.328125 C 106.960938 666.328125 112.289062 667.417969 116.976562 669.609375 C 121.675781 671.707031 125.214844 674.375 127.613281 677.617188 Z M 127.632812 677.617188 " clip-rule="nonzero"/></clipPath><clipPath id="5a38c9249e"><path d="M 144 666 L 242.929688 666 L 242.929688 764 L 144 764 Z M 144 666 " clip-rule="nonzero"/></clipPath><clipPath id="2a7483e8e8"><path d="M 228.574219 680.234375 C 237.882812 689.421875 242.53125 701.046875 242.53125 715.132812 C 242.53125 729.21875 237.882812 740.898438 228.574219 750.175781 C 219.265625 759.363281 207.582031 763.960938 193.484375 763.960938 C 179.386719 763.960938 167.691406 759.363281 158.394531 750.175781 C 149.085938 740.90625 144.429688 729.21875 144.429688 715.132812 C 144.429688 701.046875 149.078125 689.410156 158.394531 680.234375 C 167.691406 670.96875 179.386719 666.320312 193.484375 666.320312 C 207.582031 666.320312 219.265625 670.96875 228.574219 680.234375 Z M 221.667969 743.875 C 228.84375 736 232.433594 726.421875 232.433594 715.132812 C 232.433594 703.847656 228.84375 694.269531 221.667969 686.394531 C 214.578125 678.515625 205.191406 674.585938 193.496094 674.585938 C 181.796875 674.585938 172.359375 678.515625 165.183594 686.394531 C 158.085938 694.269531 154.546875 703.859375 154.546875 715.132812 C 154.546875 726.410156 158.085938 736 165.183594 743.875 C 172.359375 751.664062 181.796875 755.554688 193.496094 755.554688 C 205.191406 755.554688 214.589844 751.664062 221.667969 743.875 Z M 221.667969 743.875 " clip-rule="nonzero"/></clipPath><clipPath id="1f5a3b9bb8"><path d="M 262.414062 668.6875 L 271.980469 668.6875 L 271.980469 753.195312 L 262.414062 753.195312 Z M 262.414062 753.195312 L 315.847656 753.195312 L 315.847656 761.589844 L 262.414062 761.589844 Z M 262.414062 753.195312 " clip-rule="nonzero"/></clipPath><clipPath id="e6e7e10c1d"><path d="M 326 668 L 396.886719 668 L 396.886719 764 L 326 764 Z M 326 668 " clip-rule="nonzero"/></clipPath><clipPath id="35ddbad55d"><path d="M 375.972656 761.589844 C 371.8125 763.171875 367.015625 763.960938 361.617188 763.960938 C 356.21875 763.960938 351.378906 763.160156 347.128906 761.589844 C 342.960938 759.933594 339.59375 757.871094 337.03125 755.421875 C 334.472656 752.972656 332.335938 750.042969 330.65625 746.636719 C 329.054688 743.214844 327.945312 739.9375 327.324219 736.777344 C 326.714844 733.558594 326.40625 730.269531 326.40625 726.941406 L 326.40625 668.6875 L 335.972656 668.6875 L 335.972656 725.902344 C 335.972656 734.289062 338.011719 741.335938 342.082031 747.015625 C 346.25 752.714844 352.757812 755.554688 361.617188 755.554688 C 370.472656 755.554688 376.941406 752.714844 381.019531 747.015625 C 385.179688 741.335938 387.269531 734.289062 387.269531 725.902344 L 387.269531 668.6875 L 396.835938 668.6875 L 396.835938 726.953125 C 396.835938 730.269531 396.527344 733.570312 395.90625 736.789062 C 395.296875 739.949219 394.136719 743.226562 392.445312 746.644531 C 390.847656 750.054688 388.769531 752.992188 386.199219 755.433594 C 383.628906 757.871094 380.210938 759.933594 375.960938 761.601562 Z M 375.972656 761.589844 " clip-rule="nonzero"/></clipPath><clipPath id="c5b906f421"><path d="M 410.390625 668.699219 L 482.972656 668.699219 L 482.972656 677.085938 L 410.390625 677.085938 Z M 441.894531 677.085938 L 451.460938 677.085938 L 451.460938 761.601562 L 441.894531 761.601562 Z M 441.894531 677.085938 " clip-rule="nonzero"/></clipPath><clipPath id="8caf95593a"><path d="M 497.097656 668.6875 L 506.664062 668.6875 L 506.664062 761.589844 L 497.097656 761.589844 Z M 497.097656 668.6875 " clip-rule="nonzero"/></clipPath><clipPath id="f8325098fb"><path d="M 526 666 L 624.820312 666 L 624.820312 764 L 526 764 Z M 526 666 " clip-rule="nonzero"/></clipPath><clipPath id="873e292abd"><path d="M 610.703125 680.234375 C 620 689.421875 624.660156 701.046875 624.660156 715.132812 C 624.660156 729.21875 620.011719 740.898438 610.703125 750.175781 C 601.398438 759.363281 589.699219 763.960938 575.613281 763.960938 C 561.527344 763.960938 549.820312 759.363281 540.515625 750.175781 C 531.21875 740.90625 526.558594 729.21875 526.558594 715.132812 C 526.558594 701.046875 531.21875 689.410156 540.515625 680.234375 C 549.820312 670.96875 561.519531 666.320312 575.613281 666.320312 C 589.691406 666.320312 601.398438 670.96875 610.703125 680.234375 Z M 603.796875 743.875 C 610.972656 736 614.5625 726.421875 614.5625 715.132812 C 614.5625 703.847656 610.972656 694.269531 603.796875 686.394531 C 596.707031 678.515625 587.320312 674.585938 575.625 674.585938 C 563.929688 674.585938 554.492188 678.515625 547.304688 686.394531 C 540.214844 694.269531 536.664062 703.859375 536.664062 715.132812 C 536.664062 726.410156 540.214844 736 547.304688 743.875 C 554.492188 751.664062 563.929688 755.554688 575.625 755.554688 C 587.320312 755.554688 596.71875 751.664062 603.796875 743.875 Z M 603.796875 743.875 " clip-rule="nonzero"/></clipPath><clipPath id="72b48f290c"><path d="M 644 668 L 721.792969 668 L 721.792969 761.78125 L 644 761.78125 Z M 644 668 " clip-rule="nonzero"/></clipPath><clipPath id="dd67d21a05"><path d="M 656.511719 668.6875 L 711.277344 747.816406 L 711.546875 747.816406 L 711.546875 668.6875 L 721.113281 668.6875 L 721.113281 761.589844 L 709.144531 761.589844 L 654.382812 681.683594 L 654.113281 681.683594 L 654.113281 761.589844 L 644.535156 761.589844 L 644.535156 668.6875 Z M 656.511719 668.6875 " clip-rule="nonzero"/></clipPath><clipPath id="9f69c59f1a"><path d="M 740 666 L 800.769531 666 L 800.769531 764 L 740 764 Z M 740 666 " clip-rule="nonzero"/></clipPath><clipPath id="f906dcc78e"><path d="M 799.210938 677.617188 L 791.632812 683.644531 C 787.203125 677.425781 780.734375 674.335938 772.226562 674.335938 C 767 674.335938 762.351562 675.875 758.273438 678.933594 C 754.195312 681.996094 752.152344 686.273438 752.152344 691.792969 C 752.152344 694.070312 752.554688 696.121094 753.355469 697.960938 C 754.234375 699.808594 755.164062 701.25 756.132812 702.296875 C 757.101562 703.347656 758.703125 704.4375 760.921875 705.566406 C 763.222656 706.71875 765 707.496094 766.238281 707.945312 C 767.570312 708.375 769.699219 709.078125 772.617188 710.035156 C 775.636719 711.003906 777.585938 711.65625 778.464844 712.003906 C 779.445312 712.265625 781.214844 712.925781 783.796875 713.976562 C 786.445312 715.023438 788.261719 715.933594 789.234375 716.734375 C 790.304688 717.433594 791.710938 718.535156 793.480469 720.011719 C 795.339844 721.503906 796.640625 722.980469 797.339844 724.480469 C 798.128906 725.960938 798.839844 727.800781 799.46875 730 C 800.171875 732.179688 800.519531 734.589844 800.519531 737.207031 C 800.519531 745.875 797.460938 752.515625 791.363281 757.164062 C 785.246094 761.703125 778.066406 763.992188 769.828125 763.992188 C 763.890625 763.992188 758.261719 762.800781 752.953125 760.433594 C 747.726562 758.074219 743.476562 754.664062 740.199219 750.195312 L 748.433594 744.167969 C 750.65625 747.65625 753.613281 750.496094 757.34375 752.683594 C 761.0625 754.792969 765.28125 755.84375 769.96875 755.84375 C 775.378906 755.84375 780.214844 754.261719 784.453125 751.113281 C 788.714844 747.875 790.832031 743.445312 790.832031 737.859375 C 790.832031 735.320312 790.351562 733.097656 789.375 731.160156 C 788.492188 729.160156 787.472656 727.53125 786.3125 726.300781 C 785.164062 725.09375 783.355469 723.914062 780.867188 722.761719 C 778.476562 721.542969 776.476562 720.671875 774.886719 720.132812 C 773.386719 719.613281 771.039062 718.875 767.847656 717.902344 C 764.128906 716.765625 760.980469 715.625 758.421875 714.496094 C 755.941406 713.355469 753.375 711.824219 750.703125 709.894531 C 748.035156 707.96875 746.003906 705.527344 744.585938 702.558594 C 743.257812 699.488281 742.585938 695.949219 742.585938 691.921875 C 742.585938 686.242188 744.136719 681.425781 747.234375 677.484375 C 750.425781 673.464844 754.183594 670.628906 758.542969 668.957031 C 762.960938 667.207031 767.660156 666.328125 772.617188 666.328125 C 778.554688 666.328125 783.875 667.417969 788.5625 669.609375 C 793.273438 671.707031 796.820312 674.375 799.199219 677.617188 Z M 799.210938 677.617188 " clip-rule="nonzero"/></clipPath></defs><g clip-path="url(#a453f95947)"><path fill="#ffffff" d="M 0 0 L 873.5 0 L 873.5 873.5 L 0 873.5 Z M 0 0 " fill-opacity="1" fill-rule="nonzero"/></g><g clip-path="url(#563308ad68)"><g clip-path="url(#1acf5529dd)"><rect x="-87.375" width="1048.5" fill="#010101" y="-87.374997" height="1048.499969" fill-opacity="1"/></g></g><g clip-path="url(#041d5086f1)"><g clip-path="url(#3f079200d1)"><rect x="-87.375" width="1048.5" fill="#fecc07" y="-87.374997" height="1048.499969" fill-opacity="1"/></g></g><g clip-path="url(#482cd65170)"><g clip-path="url(#37816a911b)"><rect x="-87.375" width="1048.5" fill="#fecc07" y="-87.374997" height="1048.499969" fill-opacity="1"/></g></g><g clip-path="url(#23f1013307)"><g clip-path="url(#4b3cf132f1)"><rect x="-87.375" width="1048.5" fill="#010101" y="-87.374997" height="1048.499969" fill-opacity="1"/></g></g><g clip-path="url(#cf9b73b2e7)"><rect x="-87.375" width="1048.5" fill="#010101" y="-87.374997" height="1048.499969" fill-opacity="1"/></g><g clip-path="url(#575d1cb141)"><g clip-path="url(#0bd9073941)"><rect x="-87.375" width="1048.5" fill="#010101" y="-87.374997" height="1048.499969" fill-opacity="1"/></g></g><g clip-path="url(#6405e955cb)"><g clip-path="url(#f40fddd048)"><rect x="-87.375" width="1048.5" fill="#010101" y="-87.374997" height="1048.499969" fill-opacity="1"/></g></g><g clip-path="url(#5a38c9249e)"><g clip-path="url(#2a7483e8e8)"><rect x="-87.375" width="1048.5" fill="#010101" y="-87.374997" height="1048.499969" fill-opacity="1"/></g></g><g clip-path="url(#1f5a3b9bb8)"><rect x="-87.375" width="1048.5" fill="#010101" y="-87.374997" height="1048.499969" fill-opacity="1"/></g><g clip-path="url(#e6e7e10c1d)"><g clip-path="url(#35ddbad55d)"><rect x="-87.375" width="1048.5" fill="#010101" y="-87.374997" height="1048.499969" fill-opacity="1"/></g></g><g clip-path="url(#c5b906f421)"><rect x="-87.375" width="1048.5" fill="#010101" y="-87.374997" height="1048.499969" fill-opacity="1"/></g><g clip-path="url(#8caf95593a)"><rect x="-87.375" width="1048.5" fill="#010101" y="-87.374997" height="1048.499969" fill-opacity="1"/></g><g clip-path="url(#f8325098fb)"><g clip-path="url(#873e292abd)"><rect x="-87.375" width="1048.5" fill="#010101" y="-87.374997" height="1048.499969" fill-opacity="1"/></g></g><g clip-path="url(#72b48f290c)"><g clip-path="url(#dd67d21a05)"><rect x="-87.375" width="1048.5" fill="#010101" y="-87.374997" height="1048.499969" fill-opacity="1"/></g></g><g clip-path="url(#9f69c59f1a)"><g clip-path="url(#f906dcc78e)"><rect x="-87.375" width="1048.5" fill="#010101" y="-87.374997" height="1048.499969" fill-opacity="1"/></g></g></svg>