<?xml version="1.0" encoding="utf-8"?>
<!-- Generator: Adobe Illustrator 27.8.1, SVG Export Plug-In . SVG Version: 6.00 Build 0)  -->
<svg version="1.1" id="Layer_1" xmlns="http://www.w3.org/2000/svg" xmlns:xlink="http://www.w3.org/1999/xlink" x="0px" y="0px"
	 viewBox="0 0 291.2 54.6" style="enable-background:new 0 0 291.2 54.6;" xml:space="preserve">
<style type="text/css">
	.st0{fill:#1C150D;}
	.st1{fill:#565656;}
	
		.st2{clip-path:url(#SVGID_00000041255131994526052300000014861218695419619745_);fill-rule:evenodd;clip-rule:evenodd;fill:#BE1E2D;}
	.st3{fill-rule:evenodd;clip-rule:evenodd;fill:#1C150D;}
	.st4{clip-path:url(#SVGID_00000036945695031656526230000014584317756859561376_);}
	
		.st5{clip-path:url(#SVGID_00000023980552254158477570000002377234144980345245_);fill-rule:evenodd;clip-rule:evenodd;fill:#BE1E2D;}
	.st6{fill:none;}
</style>
<g>
	<path class="st0" d="M88.3,28.3c-1.2,0.6-3.7,1.2-6.9,1.2c-7.4,0-12.9-4.6-12.9-13.2c0-8.2,5.5-13.7,13.6-13.7
		c3.3,0,5.3,0.7,6.2,1.2l-0.8,2.7c-1.3-0.6-3.1-1.1-5.3-1.1c-6.1,0-10.2,3.9-10.2,10.7c0,6.4,3.7,10.5,10,10.5
		c2.1,0,4.1-0.4,5.5-1.1L88.3,28.3z"/>
	<path class="st0" d="M90.6,3.4c1.6-0.3,3.7-0.5,6.5-0.5c3.3,0,5.8,0.8,7.3,2.2c1.4,1.2,2.3,3.1,2.3,5.5c0,2.4-0.7,4.2-2,5.6
		c-1.8,1.9-4.7,2.9-8,2.9c-1,0-1.9,0-2.7-0.2v10.4h-3.4V3.4z M94,16c0.7,0.2,1.7,0.3,2.8,0.3c4.1,0,6.6-2,6.6-5.6
		c0-3.4-2.4-5.1-6.2-5.1c-1.5,0-2.6,0.1-3.2,0.3V16z"/>
	<path class="st0" d="M110.3,21l-2.7,8.2h-3.5L113,3.1h4.1l8.9,26.1h-3.6l-2.8-8.2H110.3z M118.9,18.3l-2.6-7.5
		c-0.6-1.7-1-3.3-1.4-4.8h-0.1c-0.4,1.6-0.8,3.1-1.3,4.7l-2.6,7.5H118.9z"/>
	<path class="st0" d="M141.4,16.9h-10.2v9.4h11.3v2.8h-14.7V3.1H142v2.8h-10.7v8.2h10.2V16.9z"/>
	<path class="st0" d="M159.3,29.2l-3.3-5.8c-1.4-2.2-2.2-3.6-3-5.1h-0.1c-0.7,1.5-1.5,2.9-2.8,5.2l-3.1,5.7H143l8-13.2l-7.7-12.9
		h3.9l3.4,6.1c1,1.7,1.7,3,2.4,4.4h0.1c0.7-1.6,1.4-2.7,2.4-4.4l3.6-6.1h3.9l-8,12.7l8.2,13.4H159.3z"/>
	<path class="st0" d="M182.4,28.3c-1.2,0.6-3.7,1.2-6.9,1.2c-7.4,0-12.9-4.6-12.9-13.2c0-8.2,5.5-13.7,13.6-13.7
		c3.3,0,5.3,0.7,6.2,1.2l-0.8,2.7c-1.3-0.6-3.1-1.1-5.3-1.1c-6.1,0-10.2,3.9-10.2,10.7c0,6.4,3.7,10.5,10,10.5
		c2.1,0,4.2-0.4,5.5-1.1L182.4,28.3z"/>
	<path class="st0" d="M188,3.1V14h12.6V3.1h3.4v26.1h-3.4V16.9H188v12.2h-3.4V3.1H188z"/>
	<path class="st0" d="M212.2,21l-2.7,8.2H206l8.9-26.1h4.1l8.9,26.1h-3.6l-2.8-8.2H212.2z M220.8,18.3l-2.6-7.5
		c-0.6-1.7-1-3.3-1.4-4.8h-0.1c-0.4,1.6-0.8,3.1-1.3,4.7l-2.6,7.5H220.8z"/>
	<path class="st0" d="M229.8,29.2V3.1h3.7l8.4,13.2c1.9,3.1,3.4,5.8,4.7,8.5l0.1,0c-0.3-3.5-0.4-6.6-0.4-10.7V3.1h3.2v26.1H246
		l-8.3-13.2c-1.8-2.9-3.6-5.9-4.9-8.7l-0.1,0c0.2,3.3,0.3,6.4,0.3,10.7v11.1H229.8z"/>
	<path class="st0" d="M273.3,28c-1.5,0.5-4.5,1.4-8,1.4c-4,0-7.2-1-9.8-3.4c-2.2-2.2-3.6-5.6-3.6-9.7c0-7.8,5.4-13.5,14.1-13.5
		c3,0,5.4,0.7,6.5,1.2l-0.8,2.7c-1.4-0.6-3.1-1.1-5.8-1.1c-6.4,0-10.5,3.9-10.5,10.5c0,6.6,4,10.5,10.1,10.5c2.2,0,3.7-0.3,4.5-0.7
		v-7.8h-5.3v-2.7h8.6V28z"/>
	<path class="st0" d="M290,16.9h-10.2v9.4h11.3v2.8h-14.7V3.1h14.1v2.8h-10.7v8.2H290V16.9z"/>
</g>
<g>
	<path class="st1" d="M71.6,39.9h6.2c2.8,0,4.3,1.9,4.3,4.1c0,2.2-1.5,4.1-4.3,4.1h-3v4.2h-3.2V39.9z M77.4,42.6h-2.6v2.8h2.6
		c0.9,0,1.5-0.5,1.5-1.4C78.9,43.2,78.2,42.6,77.4,42.6z"/>
	<path class="st1" d="M95.8,50.5h-5.2L90,52.4h-3.5l4.7-12.5h4l4.7,12.5h-3.5L95.8,50.5z M91.5,47.8H95l-1.8-5.1L91.5,47.8z"/>
	<path class="st1" d="M108.6,47.3l-4.7-7.4h3.6l2.7,4.6l2.7-4.6h3.6l-4.7,7.4v5h-3.2V47.3z"/>
	<path class="st1" d="M133.4,39.9h6.2c2.8,0,4.3,1.9,4.3,4.1c0,2.2-1.5,4.1-4.3,4.1h-3v4.2h-3.2V39.9z M139.2,42.6h-2.6v2.8h2.6
		c0.9,0,1.5-0.5,1.5-1.4C140.7,43.2,140.1,42.6,139.2,42.6z"/>
	<path class="st1" d="M151,39.9h9.1v2.7h-5.9v2.1h5.8v2.7h-5.8v2.2h5.9v2.7H151V39.9z"/>
	<path class="st1" d="M172.5,48.2h-1.6v4.2h-3.2V39.9h6.2c2.8,0,4.3,1.8,4.3,4.1c0,2.2-1.3,3.3-2.5,3.7l2.5,4.6h-3.7L172.5,48.2z
		 M173.4,42.6h-2.5v2.8h2.5c0.8,0,1.6-0.5,1.6-1.4S174.2,42.6,173.4,42.6z"/>
	<path class="st1" d="M204,50.5h-5.2l-0.6,1.9h-3.5l4.7-12.5h4l4.7,12.5h-3.5L204,50.5z M199.6,47.8h3.5l-1.8-5.1L199.6,47.8z"/>
	<path class="st1" d="M213.4,46.2c0-3.8,2.9-6.4,6.6-6.4c3.1,0,4.7,1.7,5.5,3.3l-2.8,1.3c-0.4-1-1.5-1.8-2.8-1.8
		c-1.9,0-3.4,1.6-3.4,3.6c0,2,1.4,3.6,3.4,3.6c1.3,0,2.4-0.8,2.8-1.8l2.8,1.3c-0.8,1.6-2.4,3.3-5.5,3.3
		C216.3,52.6,213.4,50,213.4,46.2z"/>
	<path class="st1" d="M235.3,42.7h-3.5v-2.8H242v2.8h-3.5v9.7h-3.2V42.7z"/>
	<path class="st1" d="M249.2,39.9h3.2v12.5h-3.2V39.9z"/>
	<path class="st1" d="M266.3,39.7c3.8,0,6.6,2.7,6.6,6.4c0,3.8-2.8,6.4-6.6,6.4s-6.7-2.7-6.7-6.4C259.6,42.4,262.5,39.7,266.3,39.7z
		 M266.3,42.5c-2.1,0-3.4,1.6-3.4,3.6c0,2,1.3,3.6,3.4,3.6c2.1,0,3.4-1.6,3.4-3.6C269.6,44.1,268.3,42.5,266.3,42.5z"/>
	<path class="st1" d="M283.4,44.8v7.5h-3.2V39.9h3.3l5,7.2v-7.2h3.2v12.5h-3.1L283.4,44.8z"/>
</g>
<g>
	<g>
		<defs>
			<polygon id="SVGID_1_" points="2.4,0.8 22.7,0.9 48.6,27.8 22.7,54.6 2.3,54.6 2.2,54.6 18,27.8 2.2,1.2 2.4,0.8 			"/>
		</defs>
		<use xlink:href="#SVGID_1_"  style="overflow:visible;fill-rule:evenodd;clip-rule:evenodd;fill:#EF4136;"/>
		<clipPath id="SVGID_00000052790096192927497750000010131737815265638545_">
			<use xlink:href="#SVGID_1_"  style="overflow:visible;"/>
		</clipPath>
	</g>
	<g>
		<defs>
			<polygon id="SVGID_00000163063793441689362090000010513783772182979207_" points="2.4,0.8 22.7,0.9 48.6,27.8 22.7,54.6 
				2.3,54.6 2.2,54.6 18,27.8 2.2,1.2 2.4,0.8 			"/>
		</defs>
		<clipPath id="SVGID_00000099662647020092247150000007273535221303211171_">
			<use xlink:href="#SVGID_00000163063793441689362090000010513783772182979207_"  style="overflow:visible;"/>
		</clipPath>
		
			<polygon style="clip-path:url(#SVGID_00000099662647020092247150000007273535221303211171_);fill-rule:evenodd;clip-rule:evenodd;fill:#BE1E2D;" points="
			-13.2,30.8 44.1,10.1 49.3,33.2 -8.1,53.9 -13.2,30.8 		"/>
	</g>
	<path class="st3" d="M45.8,40.2l3.3,3.3l12,11.2l-20.4-0.1c0,0-1.9-1.9-4.6-4.8L45.8,40.2L45.8,40.2z M45.9,15.4l-9.7-9.6
		c2.8-2.9,4.6-4.8,4.6-4.8l20.3-0.1l-12,11.2L45.9,15.4L45.9,15.4z"/>
	<g>
		<defs>
			<polygon id="SVGID_00000083073988743286437770000011499776265127976323_" points="8.8,-2.4 54,8.3 48.6,30.8 3.5,20.1 8.8,-2.4 
							"/>
		</defs>
		<defs>
			<polygon id="SVGID_00000077304429305038735870000002426196342856135860_" points="2.4,0.8 22.7,0.9 48.6,27.8 22.7,54.6 
				2.3,54.6 2.2,54.6 18,27.8 2.2,1.2 2.4,0.8 			"/>
		</defs>
		<clipPath id="SVGID_00000147222356937769827390000007180278722199950744_">
			<use xlink:href="#SVGID_00000083073988743286437770000011499776265127976323_"  style="overflow:visible;"/>
		</clipPath>
		
			<clipPath id="SVGID_00000146499358262147314460000001313571703330909879_" style="clip-path:url(#SVGID_00000147222356937769827390000007180278722199950744_);">
			<use xlink:href="#SVGID_00000077304429305038735870000002426196342856135860_"  style="overflow:visible;"/>
		</clipPath>
	</g>
	<g>
		<defs>
			<polygon id="SVGID_00000062898809558578285610000001315306411856797109_" points="1.8,0.8 22.5,0.7 48.6,27.8 22.7,54.6 
				2.3,54.6 2.2,54.6 18,27.8 2.2,1.2 1.8,0.8 			"/>
		</defs>
		<clipPath id="SVGID_00000097477226360087963300000012254666977334904451_">
			<use xlink:href="#SVGID_00000062898809558578285610000001315306411856797109_"  style="overflow:visible;"/>
		</clipPath>
		
			<polygon style="clip-path:url(#SVGID_00000097477226360087963300000012254666977334904451_);fill-rule:evenodd;clip-rule:evenodd;fill:#BE1E2D;" points="
			-21.6,-1.9 22.8,-15.2 29.5,7 -15,20.3 -21.6,-1.9 		"/>
	</g>
</g>
<rect x="-75.3" y="-80" class="st6" width="442.3" height="210.8"/>
</svg>
