<?xml version="1.0" encoding="UTF-8"?>
<svg id="Layer_1" data-name="Layer 1" xmlns="http://www.w3.org/2000/svg" viewBox="0 0 1380.26 359.01">
  <defs>
    <style>
      .cls-1 {
        fill: #000;
        stroke-width: 0px;
      }
    </style>
  </defs>
  <path class="cls-1" d="M160.18,85.71c-14.41,0-28.07,3.28-40.27,9.13l2.98-8.9h-31.63l-3.36,10.06h0L0,358.78h31.63l3.36-10.06h0l42.26-126.34c15.62,29.89,46.93,50.34,82.92,50.34,51.56,0,93.5-41.94,93.5-93.5s-41.94-93.5-93.5-93.5ZM160.18,242.71c-35.01,0-63.5-28.49-63.5-63.5s28.49-63.5,63.5-63.5,63.5,28.49,63.5,63.5-28.49,63.5-63.5,63.5Z"/>
  <path class="cls-1" d="M358.71,85.63c-51.56,0-93.5,41.94-93.5,93.5s41.94,93.5,93.5,93.5,93.5-41.94,93.5-93.5-41.94-93.5-93.5-93.5ZM358.71,242.63c-35.01,0-63.5-28.49-63.5-63.5s28.49-63.5,63.5-63.5,63.5,28.49,63.5,63.5-28.49,63.5-63.5,63.5Z"/>
  <path class="cls-1" d="M692.72,241.53v-.03c-21.12,6.31-43.81-1.25-55.2-18.37-6.87-10.33-9.8-23.7-8.04-36.66.84-6.21,3.15-12.75,5.6-19.67.8-2.26,1.63-4.61,2.41-6.97l14.6-43.89h40.62v-29.91h-30.67l4.57-13.73h.03L690.7,0h-31.62l-16.23,48.8h-.03s-33.79,101.57-33.79,101.57c-.71,2.14-1.47,4.29-2.23,6.44-2.84,8.04-5.78,16.36-7.04,25.62-2.77,20.39,1.77,40.74,12.79,57.31,14.33,21.54,39.23,33.94,65.27,33.94,4.95,0,9.94-.45,14.91-1.37v-30.78Z"/>
  <path class="cls-1" d="M604.56,87.11c-51.1,0-92.9,40.5-95.03,91.08h-.09c0,35.91-29.21,65.12-65.12,65.12v30c51.1,0,92.9-40.5,95.03-91.08h.09c0-35.91,29.21-65.12,65.12-65.12v-30Z"/>
  <path class="cls-1" d="M847.72,85.95c-14.41,0-28.07,3.28-40.27,9.13l2.98-8.9h-31.63l-3.37,10.06h0l-87.88,262.77h31.63l3.37-10.06h0l42.26-126.34c15.62,29.89,46.93,50.34,82.92,50.34,51.56,0,93.5-41.94,93.5-93.5s-41.94-93.5-93.5-93.5ZM847.72,242.95c-35.01,0-63.5-28.49-63.5-63.5s28.49-63.5,63.5-63.5,63.5,28.49,63.5,63.5-28.49,63.5-63.5,63.5Z"/>
  <path class="cls-1" d="M1046.25,85.87c-51.56,0-93.5,41.94-93.5,93.5s41.94,93.5,93.5,93.5,93.5-41.94,93.5-93.5-41.94-93.5-93.5-93.5ZM1046.25,242.87c-35.01,0-63.5-28.49-63.5-63.5s28.49-63.5,63.5-63.5,63.5,28.49,63.5,63.5-28.49,63.5-63.5,63.5Z"/>
  <path class="cls-1" d="M1322.62,167.05c.8-2.26,1.63-4.61,2.41-6.97l14.6-43.89h40.62v-29.91h-30.67l4.57-13.73h.03L1378.24.24h-31.62l-16.23,48.8h-.03s-33.79,101.57-33.79,101.57c-.71,2.14-1.47,4.29-2.23,6.44-2.84,8.04-5.78,16.36-7.04,25.62-2.77,20.39,1.77,40.74,12.79,57.31,14.33,21.54,39.23,33.94,65.27,33.94,4.95,0,9.94-.45,14.91-1.37v-30.81c-21.12,6.31-43.81-1.25-55.2-18.37-6.87-10.34-9.8-23.7-8.04-36.66.84-6.21,3.15-12.75,5.6-19.66Z"/>
  <path class="cls-1" d="M1292.1,87.35c-51.1,0-92.9,40.5-95.03,91.08h-.09c0,35.91-29.21,65.12-65.12,65.12v30c51.1,0,92.9-40.5,95.03-91.08h.09c0-35.91,29.21-65.12,65.12-65.12v-30Z"/>
</svg>