<?xml version="1.0" encoding="UTF-8"?>
<svg id="_Слой_2" data-name="Слой 2" xmlns="http://www.w3.org/2000/svg" xmlns:xlink="http://www.w3.org/1999/xlink" viewBox="0 0 777.02 210.44">
  <defs>
    <style>
      .cls-1 {
        fill: url(#_Безымянный_градиент);
        fill-rule: evenodd;
      }

      .cls-2 {
        fill: #001523;
      }
    </style>
    <linearGradient id="_Безымянный_градиент" data-name="Безымянный градиент" x1="-152.57" y1="635.46" x2="-151.57" y2="635.46" gradientTransform="translate(27074.79 133833.3) scale(177.46 -210.44)" gradientUnits="userSpaceOnUse">
      <stop offset=".5" stop-color="#ed2d2a"/>
      <stop offset=".5" stop-color="#e3212e"/>
    </linearGradient>
  </defs>
  <g id="Group_407" data-name="Group 407">
    <g id="_Знак" data-name="Знак">
      <g id="Group_406" data-name="Group 406">
        <path id="Path_1056" data-name="Path 1056" class="cls-1" d="M6.04,48.89L45.27,9.66c2.41-2.41-.6-5.43-3.62-4.23-3.62,.6-28.37,7.85-32.59,9.05C5.43,15.09,0,19.31,0,22.94v22.94c0,3.02,3.02,6.04,6.04,3.02Zm0,53.72C8.45,99.59,97.78,10.86,102.01,6.64s0-6.64-3.62-6.64-19.32,.6-22.33,.6-6.64,2.41-7.85,4.22c-1.81,1.21-63.38,62.78-64.58,63.98s-3.62,3.62-3.62,7.24v22.94c0,3.62,3.02,6.64,6.04,3.62ZM146.07,8.45c-4.23-1.21-14.49-4.22-18.11-4.22s-6.04,2.41-7.24,3.62L6.04,122.53c-1.81,1.21-6.04,4.23-6.04,11.47s1.21,9.05,1.81,15.69,6.04,6.04,10.26,2.41L149.69,14.49c2.41-2.41,.6-4.83-3.62-6.04Zm27.76,38.03c2.42-2.62,3.72-6.09,3.62-9.66v-15.09c0-4.83-6.64-7.85-12.07-3.02L22.33,161.76c-5.43,5.43-3.62,9.66,0,12.07s5.43,4.83,10.87,7.24,7.24-1.21,8.45-2.41L173.83,46.48Zm-4.22,24.14c-3.02,3.02-112.27,111.66-115.89,115.89-4.23,4.23-2.41,7.24,.6,9.05s11.47,7.24,15.09,7.24,4.83-.6,6.04-1.81l97.78-97.78c1.21-1.21,3.62-3.62,3.62-7.24v-22.94c.61-4.22-3.01-6.64-7.24-2.41Zm1.21,53.12c-5.43,4.83-76.66,76.66-80.28,79.67-3.62,3.62-3.62,8.45,2.41,6.64,6.04-2.41,83.9-35.01,83.9-68.21v-14.49c0-5.43-3.02-7.24-6.04-3.62Z"/>
      </g>
    </g>
    <path id="Union_265" data-name="Union 265" class="cls-2" d="M625.15,155.96c-1.42,0-3.55,0-6.39-2.84-2.13-2.84-24.13-24.13-25.55-25.55s-4.97-1.42-6.39,0-25.55,25.55-25.55,25.55c0,0-2.84,2.84-4.26,2.84h-21.29c-1.91-.12-3.42-1.64-3.55-3.55V58.74c-.14-1.82,1.23-3.41,3.05-3.55,.16-.01,.33-.01,.5,0h17.74c2.84,0,3.55,2.13,3.55,4.26v54.65c0,2.13,2.84,2.13,4.97,0,1.42-2.13,56.07-56.07,57.49-57.49,.71-.71,3.55-1.42,4.97-1.42h26.26c5.68,0,6.39,1.42,4.26,3.55-2.84,2.84-42.58,42.58-44,44-1.42,1.63-1.42,4.05,0,5.68,1.42,1.42,41.16,41.16,44,42.58,1.42,2.13,3.55,4.97,0,4.97h-29.8Zm-127.74,0c-1.91-.12-3.43-1.64-3.55-3.55v-6.39c.11-1.85-1.3-3.44-3.14-3.55-.13,0-.27,0-.4,0h-70.26c-1.42,0-2.84,1.42-2.84,3.55v5.68c.14,1.82-1.23,3.41-3.06,3.55-.16,.01-.33,.01-.49,0h-18.45c-1.85,.11-3.44-1.3-3.55-3.14,0-.13,0-.27,0-.4V58.03c-.11-1.85,1.29-3.44,3.14-3.55,.14,0,.27,0,.41,0h119.23c2.13,0,3.55,1.42,4.26,3.55v94.39c.11,1.85-1.3,3.44-3.14,3.55-.13,0-.27,0-.4,0h-17.74Zm-80.9-69.55v26.96c.21,3.05,2.63,5.47,5.68,5.68h66c3.04-.21,5.47-2.63,5.67-5.68v-26.96c-.21-3.05-2.63-5.47-5.68-5.68h-66c-3.05,.21-5.47,2.63-5.68,5.68h0Zm-124.2,69.55c-1.43,.14-2.7-.91-2.84-2.34-.02-.17-.02-.34,0-.5v-10.65h-60.32c-1.82,.14-3.41-1.23-3.55-3.06-.01-.16-.01-.33,0-.49V58.03c.12-1.91,1.64-3.43,3.55-3.55h146.2c2.13,0,2.84,2.13,2.84,3.55v83.03c0,1.42-1.42,2.13-4.26,2.13h-58.9v9.94c.14,1.43-.91,2.7-2.34,2.84-.17,.02-.33,.02-.5,0h-19.88Zm22.71-69.55v26.96c.21,3.05,2.63,5.48,5.68,5.68h26.97c3.05-.21,5.47-2.63,5.68-5.68v-26.97c-.21-3.05-2.63-5.47-5.68-5.68h-26.97c-3.05,.21-5.47,2.63-5.68,5.68Zm-63.16,0v26.96c.21,3.05,2.63,5.47,5.68,5.68h26.96c3.05-.2,5.47-2.63,5.68-5.68v-26.96c-.21-3.05-2.63-5.47-5.68-5.68h-26.96c-3.05,.21-5.47,2.63-5.68,5.68Zm452.07,68.84c-2.84,0-4.26-2.84-4.26-4.26V83.58c.11-1.85-1.3-3.44-3.14-3.55-.13,0-.27,0-.4,0h-41.87c-2.84,0-3.55-1.42-1.42-3.55,1.42-2.13,19.87-19.88,20.58-20.59,1.18-1,2.71-1.51,4.26-1.42h92.97c3.55,0,6.39,1.42,6.39,6.39v13.48c0,3.55-2.13,5.68-6.39,5.68h-39.74c-4.26,0-5.68,1.42-5.68,5.68v64.58c0,2.13-1.42,4.97-4.26,4.97h-17.03Z"/>
  </g>
</svg>