<svg width="520" height="174" viewBox="0 0 520 174" fill="none" xmlns="http://www.w3.org/2000/svg">
<path d="M166.592 98.3636C167.055 95.822 165.202 93.5048 162.655 93.2207C160.109 92.9366 157.836 94.7943 157.342 97.3301C155.682 105.863 152.069 113.91 146.765 120.819C140.511 128.964 132.149 135.21 122.601 138.869C113.054 142.528 102.69 143.457 92.6514 141.556C82.6131 139.654 73.2902 134.994 65.7096 128.09C58.1289 121.185 52.5848 112.305 49.688 102.426C46.7912 92.5467 46.654 82.053 49.2917 72.1005C51.9293 62.148 57.2394 53.1229 64.6369 46.0195C70.9116 39.9944 78.4815 35.5502 86.7283 33.0167C89.1792 32.2638 90.7803 29.794 90.2411 27.2677C89.7019 24.7414 87.228 23.1178 84.7683 23.8411C74.854 26.7565 65.7515 32.0285 58.2395 39.2417C49.605 47.5329 43.407 58.0671 40.3283 69.6838C37.2496 81.3005 37.4096 93.549 40.7909 105.08C44.1721 116.611 50.6433 126.976 59.4915 135.035C68.3397 143.094 79.2216 148.533 90.9384 150.753C102.655 152.973 114.752 151.888 125.897 147.617C137.041 143.346 146.801 136.056 154.1 126.549C160.451 118.278 164.725 108.608 166.592 98.3636Z" fill="#F4B56C"/>
<path d="M135.16 161.558C136.204 163.986 135.104 166.821 132.643 167.738C119.36 172.69 105.044 174.257 90.9716 172.266C75.3286 170.052 60.5949 163.526 48.3938 153.407C36.1926 143.287 26.9974 129.968 21.8212 114.915C16.645 99.8617 15.6886 83.6598 19.0575 68.0938C22.4263 52.5277 29.9896 38.2016 40.9142 26.6936C51.8387 15.1857 65.7006 6.94247 80.9727 2.87213C96.2448 -1.19821 112.334 -0.937732 127.469 3.62487C141.084 7.72923 153.451 15.1717 163.479 25.2555C165.337 27.1239 165.166 30.1639 163.214 31.9318C161.262 33.6997 158.268 33.5245 156.397 31.6691C147.546 22.8913 136.687 16.4059 124.748 12.8068C111.289 8.74934 96.9811 8.5177 83.4 12.1374C69.8188 15.757 57.4918 23.0875 47.7768 33.3213C38.0618 43.5551 31.336 56.295 28.3401 70.1375C25.3443 83.9801 26.1948 98.3881 30.7979 111.774C35.4009 125.161 43.578 137.006 54.4282 146.004C65.2785 155.003 78.3808 160.807 92.2918 162.775C104.631 164.522 117.183 163.191 128.855 158.932C131.322 158.031 134.116 159.13 135.16 161.558Z" fill="#F4D4AF"/>
<path d="M3.53913 60.8979C0.96437 60.215 -0.584773 57.5519 0.20829 54.9886C6.25126 35.4565 17.7172 18.0756 33.2449 4.90893C35.2827 3.18098 38.3165 3.59356 39.9355 5.72524C41.5545 7.85691 41.1446 10.8998 39.1146 12.637C25.2774 24.4785 15.027 40.017 9.54282 57.4643C8.73825 60.024 6.11389 61.5807 3.53913 60.8979Z" fill="#FBECDB"/>
<path d="M483.255 139.841V138.297L488.473 137.765H489.379L495.13 138.297V139.841H483.255ZM487.195 139.841L500.083 100.966H502.373L515.473 139.841H511.852L499.923 103.522H500.988L500.775 104.268L489.272 139.841H487.195ZM492.894 126.421L493 124.77H508.923L509.03 126.421H492.894ZM505.089 139.841V138.297L512.172 137.765H513.237L520 138.297V139.841H505.089Z" fill="#212121"/>
<path d="M455.747 139.841V138.297L462.777 137.711H463.895L471.298 138.297V139.841H455.747ZM461.392 139.841C461.463 136.895 461.499 133.948 461.499 131.001C461.499 128.055 461.499 125.09 461.499 122.108V119.072C461.499 116.09 461.499 113.126 461.499 110.179C461.499 107.197 461.463 104.25 461.392 101.339H465.173C465.138 104.25 465.102 107.197 465.067 110.179C465.067 113.126 465.067 116.09 465.067 119.072V122.8C465.067 125.498 465.067 128.285 465.067 131.161C465.102 134.001 465.138 136.895 465.173 139.841H461.392ZM463.31 123.972V122.321H468.475C471.351 122.321 473.676 121.913 475.452 121.096C477.227 120.244 478.505 119.072 479.286 117.581C480.102 116.09 480.511 114.386 480.511 112.469C480.511 109.416 479.676 107.09 478.008 105.492C476.339 103.859 473.694 103.043 470.073 103.043H463.31V101.339H470.552C475.097 101.339 478.487 102.35 480.724 104.374C482.96 106.362 484.079 109.06 484.079 112.469C484.079 114.634 483.528 116.587 482.428 118.327C481.363 120.066 479.676 121.451 477.369 122.481C475.097 123.475 472.168 123.972 468.582 123.972H463.31ZM455.747 102.883V101.339H463.31V103.416H462.777L455.747 102.883Z" fill="#212121"/>
<path d="M421.32 140.268C421.497 139.522 421.852 138.989 422.385 138.67C422.953 138.35 423.574 138.191 424.249 138.191C425.03 138.191 425.74 138.386 426.379 138.776C427.054 139.167 427.906 139.895 428.935 140.96L427.231 141.865L426.645 140.747C428.207 140.072 429.628 138.812 430.906 136.966C432.184 135.084 433.338 132.936 434.367 130.522H434.42L440.012 117.049L446.562 101.339H448.799L435.485 131.694C434.385 134.25 433.302 136.362 432.237 138.031C431.172 139.664 430.054 140.889 428.882 141.705C427.71 142.522 426.432 142.93 425.048 142.93C424.054 142.93 423.219 142.699 422.545 142.238C421.87 141.812 421.462 141.155 421.32 140.268ZM415.994 102.883V101.339H429.734V102.883L422.971 103.416H421.906L415.994 102.883ZM440.278 102.883V101.339H452.58V102.883L447.201 103.416H446.19L440.278 102.883ZM433.355 134.25L419.349 101.339H423.237L435.006 130.628L433.355 134.25Z" fill="#212121"/>
<path d="M390.83 139.841V138.297L398.445 137.711H399.457L407.073 138.297V139.841H390.83ZM397.061 139.841C397.132 136.895 397.167 133.948 397.167 131.001C397.203 128.055 397.221 125.09 397.221 122.108V119.072C397.221 116.09 397.203 113.126 397.167 110.179C397.167 107.197 397.132 104.25 397.061 101.339H400.842C400.806 104.25 400.771 107.197 400.735 110.179C400.735 113.126 400.735 116.09 400.735 119.072V122.108C400.735 125.09 400.735 128.055 400.735 131.001C400.771 133.948 400.806 136.895 400.842 139.841H397.061ZM382.948 111.084L383.428 101.339H414.475L415.008 111.084H412.931L411.386 101.339L413.037 103.149H384.866L386.57 101.339L384.972 111.084H382.948Z" fill="#212121"/>
<path d="M346.795 139.841V138.297L353.824 137.711H354.836L361.919 138.297V139.841H346.795ZM346.795 102.883V101.339H361.919V102.883L354.836 103.416H353.824L346.795 102.883ZM352.44 139.841C352.511 136.895 352.546 133.948 352.546 131.001C352.546 128.055 352.546 125.09 352.546 122.108V119.072C352.546 116.09 352.546 113.126 352.546 110.179C352.546 107.197 352.511 104.25 352.44 101.339H356.221C356.185 104.25 356.15 107.232 356.114 110.285C356.114 113.303 356.114 116.463 356.114 119.765V120.776C356.114 124.433 356.114 127.788 356.114 130.842C356.15 133.895 356.185 136.895 356.221 139.841H352.44ZM371.451 137.285L367.99 127.486C367.102 125.037 366.002 123.333 364.688 122.374C363.41 121.415 361.599 120.936 359.256 120.936H354.41V119.339H359.15C360.215 119.339 361.138 119.25 361.919 119.072C362.735 118.859 363.463 118.469 364.102 117.901C364.741 117.297 365.38 116.427 366.019 115.291C366.694 114.155 367.422 112.664 368.203 110.818C369.339 108.191 370.351 106.149 371.238 104.694C372.161 103.238 373.102 102.208 374.061 101.605C375.019 100.966 376.102 100.593 377.309 100.487C378.019 100.629 378.57 100.93 378.96 101.392C379.351 101.818 379.546 102.315 379.546 102.883C379.546 103.416 379.315 103.913 378.854 104.374C378.428 104.8 377.718 105.013 376.724 105.013C376.084 105.013 375.392 104.942 374.647 104.8C373.937 104.658 373.138 104.498 372.25 104.321L374.86 102.99C374.114 103.842 373.457 104.676 372.889 105.492C372.357 106.274 371.842 107.143 371.345 108.102C370.848 109.025 370.315 110.161 369.747 111.51C368.895 113.356 368.114 114.847 367.404 115.984C366.729 117.12 366.037 118.007 365.327 118.646C364.653 119.25 363.889 119.711 363.037 120.031C362.221 120.315 361.244 120.546 360.108 120.723L360.268 119.711C362.469 119.818 364.298 120.226 365.753 120.936C367.209 121.646 368.38 122.569 369.268 123.705C370.191 124.806 370.901 126.084 371.398 127.54L375.552 138.67L374.114 137.871L381.25 138.35V139.841C380.718 139.948 380.061 140.037 379.28 140.108C378.534 140.214 377.7 140.268 376.777 140.268C375.676 140.268 374.771 140.179 374.061 140.001C373.386 139.824 372.836 139.522 372.41 139.096C372.019 138.67 371.7 138.066 371.451 137.285Z" fill="#212121"/>
<path d="M312.367 140.268C312.545 139.522 312.9 138.989 313.432 138.67C314 138.35 314.621 138.191 315.296 138.191C316.077 138.191 316.787 138.386 317.426 138.776C318.101 139.167 318.953 139.895 319.982 140.96L318.278 141.865L317.692 140.747C319.255 140.072 320.675 138.812 321.953 136.966C323.231 135.084 324.385 132.936 325.414 130.522H325.468L331.059 117.049L337.61 101.339H339.846L326.533 131.694C325.432 134.25 324.349 136.362 323.284 138.031C322.219 139.664 321.101 140.889 319.929 141.705C318.758 142.522 317.479 142.93 316.095 142.93C315.101 142.93 314.266 142.699 313.592 142.238C312.917 141.812 312.509 141.155 312.367 140.268ZM307.042 102.883V101.339H320.781V102.883L314.018 103.416H312.953L307.042 102.883ZM331.326 102.883V101.339H343.627V102.883L338.249 103.416H337.237L331.326 102.883ZM324.403 134.25L310.397 101.339H314.284L326.053 130.628L324.403 134.25Z" fill="#212121"/>
<path d="M276.69 139.841V138.297L283.72 137.711H284.838L292.241 138.297V139.841H276.69ZM282.335 139.841C282.406 136.895 282.442 133.948 282.442 131.001C282.442 128.055 282.442 125.09 282.442 122.108V119.072C282.442 116.09 282.442 113.126 282.442 110.179C282.442 107.197 282.406 104.25 282.335 101.339H286.116C286.081 104.25 286.045 107.197 286.01 110.179C286.01 113.126 286.01 116.09 286.01 119.072V122.8C286.01 125.498 286.01 128.285 286.01 131.161C286.045 134.001 286.081 136.895 286.116 139.841H282.335ZM284.253 123.972V122.321H289.418C292.294 122.321 294.619 121.913 296.395 121.096C298.17 120.244 299.448 119.072 300.229 117.581C301.045 116.09 301.454 114.386 301.454 112.469C301.454 109.416 300.619 107.09 298.951 105.492C297.282 103.859 294.637 103.043 291.016 103.043H284.253V101.339H291.495C296.04 101.339 299.43 102.35 301.667 104.374C303.903 106.362 305.022 109.06 305.022 112.469C305.022 114.634 304.471 116.587 303.371 118.327C302.306 120.066 300.619 121.451 298.312 122.481C296.04 123.475 293.111 123.972 289.525 123.972H284.253ZM276.69 102.883V101.339H284.253V103.416H283.72L276.69 102.883Z" fill="#212121"/>
<path d="M248.437 139.841V138.297L256.053 137.711H257.065L264.68 138.297V139.841H248.437ZM254.668 139.841C254.739 136.895 254.775 133.948 254.775 131.001C254.81 128.055 254.828 125.09 254.828 122.108V119.072C254.828 116.09 254.81 113.126 254.775 110.179C254.775 107.197 254.739 104.25 254.668 101.339H258.449C258.414 104.25 258.378 107.197 258.343 110.179C258.343 113.126 258.343 116.09 258.343 119.072V122.108C258.343 125.09 258.343 128.055 258.343 131.001C258.378 133.948 258.414 136.895 258.449 139.841H254.668ZM240.556 111.084L241.035 101.339H272.082L272.615 111.084H270.538L268.993 101.339L270.644 103.149H242.473L244.177 101.339L242.579 111.084H240.556Z" fill="#212121"/>
<path d="M225.083 140.64C222.243 140.64 219.651 140.179 217.308 139.256C215 138.297 212.994 136.948 211.29 135.208C209.621 133.433 208.326 131.321 207.402 128.871C206.515 126.386 206.071 123.634 206.071 120.617C206.071 117.634 206.533 114.918 207.456 112.469C208.414 109.984 209.746 107.853 211.45 106.078C213.154 104.268 215.16 102.883 217.468 101.924C219.811 100.966 222.349 100.487 225.083 100.487C227.178 100.487 229.077 100.717 230.781 101.179C232.485 101.64 234.207 102.386 235.947 103.416L236.16 111.67H233.976L232.592 102.99L234.828 103.735V105.599C233.302 104.427 231.811 103.593 230.355 103.096C228.935 102.599 227.337 102.35 225.562 102.35C222.509 102.35 219.811 103.078 217.468 104.534C215.124 105.99 213.278 108.084 211.929 110.818C210.615 113.516 209.959 116.782 209.959 120.617C209.959 124.451 210.615 127.735 211.929 130.469C213.243 133.202 215.053 135.297 217.361 136.753C219.669 138.173 222.296 138.883 225.243 138.883C227.018 138.883 228.722 138.652 230.355 138.191C231.988 137.694 233.568 136.877 235.095 135.741V137.445L232.965 137.978L234.402 129.51H236.586L236.426 137.711C234.58 138.812 232.751 139.575 230.941 140.001C229.13 140.427 227.178 140.64 225.083 140.64Z" fill="#212121"/>
<path d="M361.872 75.9364V74.392L367.091 73.8595H367.997L373.748 74.392V75.9364H361.872ZM365.813 75.9364L378.701 37.0608H380.991L394.091 75.9364H390.47L378.541 39.617H379.606L379.393 40.3626L367.89 75.9364H365.813ZM371.511 62.5163L371.618 60.8654H387.541L387.647 62.5163H371.511ZM383.707 75.9364V74.392L390.789 73.8595H391.854L398.618 74.392V75.9364H383.707Z" fill="#212121"/>
<path d="M334.365 75.9364V74.3921L341.395 73.8063H342.513L349.915 74.3921V75.9364H334.365ZM340.01 75.9364C340.081 72.9897 340.117 70.043 340.117 67.0962C340.117 64.1495 340.117 61.185 340.117 58.2028V55.1673C340.117 52.185 340.117 49.2205 340.117 46.2738C340.117 43.2916 340.081 40.3448 340.01 37.4336H343.791C343.756 40.3448 343.72 43.2916 343.685 46.2738C343.685 49.2205 343.685 52.185 343.685 55.1673V58.8951C343.685 61.5933 343.685 64.3803 343.685 67.256C343.72 70.0962 343.756 72.9897 343.791 75.9364H340.01ZM341.927 60.0667V58.4158H347.093C349.969 58.4158 352.294 58.0075 354.069 57.1909C355.844 56.3389 357.123 55.1673 357.904 53.6761C358.72 52.185 359.128 50.4809 359.128 48.5637C359.128 45.5105 358.294 43.1851 356.625 41.5874C354.957 39.9543 352.312 39.1377 348.691 39.1377H341.927V37.4336H349.17C353.714 37.4336 357.105 38.4454 359.341 40.4691C361.578 42.4572 362.696 45.1555 362.696 48.5637C362.696 50.7294 362.146 52.6821 361.046 54.4217C359.981 56.1613 358.294 57.546 355.986 58.5755C353.714 59.5696 350.785 60.0667 347.199 60.0667H341.927ZM334.365 38.978V37.4336H341.927V39.5105H341.395L334.365 38.978Z" fill="#212121"/>
<path d="M311.173 69.4926C307.446 69.4926 304.375 68.8713 301.96 67.6287C299.582 66.3861 297.807 64.7529 296.635 62.7293C295.499 60.7056 294.931 58.5222 294.931 56.179C294.931 53.5873 295.552 51.2796 296.795 49.2559C298.037 47.2323 299.866 45.6346 302.28 44.463C304.73 43.2915 307.73 42.7057 311.28 42.7057H312.558V44.463H311.333C308.564 44.463 306.203 44.9601 304.25 45.9542C302.333 46.9127 300.878 48.2619 299.883 50.0015C298.889 51.7056 298.392 53.7115 298.392 56.0192C298.392 58.2914 298.889 60.3151 299.883 62.0902C300.878 63.8298 302.333 65.2145 304.25 66.244C306.203 67.2381 308.564 67.7352 311.333 67.7352H312.558V69.4926H311.173ZM312.824 69.4926V67.7352H314.049C316.818 67.7352 319.162 67.2381 321.079 66.244C323.031 65.2145 324.505 63.8121 325.499 62.037C326.493 60.2618 326.99 58.2559 326.99 56.0192C326.99 53.7115 326.493 51.7056 325.499 50.0015C324.505 48.2619 323.049 46.9127 321.132 45.9542C319.215 44.9601 316.854 44.463 314.049 44.463H312.824V42.7057H314.102C317.724 42.7057 320.741 43.2915 323.156 44.463C325.57 45.6346 327.38 47.2323 328.588 49.2559C329.83 51.2796 330.451 53.5873 330.451 56.179C330.451 58.4867 329.866 60.6701 328.694 62.7293C327.558 64.7529 325.783 66.3861 323.369 67.6287C320.954 68.8713 317.883 69.4926 314.156 69.4926H312.824ZM305.209 76.5754V75.031L312.238 74.4452H313.197L320.227 75.031V76.5754H305.209ZM312.238 38.8713L305.209 38.3388V36.7944H320.227V38.3388L313.25 38.8713H312.238ZM311.12 76.5754V36.7944H314.209V76.5754H311.12Z" fill="#212121"/>
<path d="M251.519 75.9364V74.3921L258.549 73.8063H259.508L266.644 74.3921V75.9364H251.519ZM257.164 75.9364C257.235 72.9897 257.271 70.043 257.271 67.0962C257.271 64.1495 257.271 61.185 257.271 58.2028V55.1673C257.271 52.185 257.271 49.2205 257.271 46.2738C257.271 43.2916 257.235 40.3448 257.164 37.4336H260.945C260.91 40.3448 260.874 43.2916 260.839 46.2738C260.839 49.2205 260.839 52.185 260.839 55.1673V56.3389C260.839 60.2442 260.839 63.759 260.839 66.8832C260.874 69.972 260.91 72.9897 260.945 75.9364H257.164ZM259.082 56.7116V55.0075H283.312V56.7116H259.082ZM275.697 75.9364V74.3921L282.78 73.8063H283.792L290.768 74.3921V75.9364H275.697ZM281.342 75.9364C281.413 72.9897 281.448 69.972 281.448 66.8832C281.484 63.759 281.502 60.2442 281.502 56.3389V55.1673C281.502 52.185 281.484 49.2205 281.448 46.2738C281.448 43.2916 281.413 40.3448 281.342 37.4336H285.123C285.087 40.3448 285.052 43.2916 285.016 46.2738C285.016 49.2205 285.016 52.185 285.016 55.1673V58.2028C285.016 61.185 285.016 64.1495 285.016 67.0962C285.052 70.043 285.087 72.9897 285.123 75.9364H281.342ZM251.519 38.978V37.4336H266.644V38.978L259.508 39.5105H258.549L251.519 38.978ZM275.697 38.978V37.4336H290.768V38.978L283.792 39.5105H282.78L275.697 38.978Z" fill="#212121"/>
<path d="M211.503 75.9364C211.574 72.9897 211.61 70.043 211.61 67.0962C211.61 64.1495 211.61 61.185 211.61 58.2028V55.1673C211.61 52.185 211.61 49.2205 211.61 46.2738C211.61 43.2916 211.574 40.3448 211.503 37.4336H215.231C215.195 40.3448 215.16 43.2916 215.124 46.2738C215.124 49.2205 215.124 52.185 215.124 55.1673L215.071 75.9364H211.503ZM236.16 75.9364C236.231 72.9897 236.266 70.0252 236.266 67.043C236.302 64.0607 236.32 60.9897 236.32 57.83L236.373 37.4336H239.941C239.834 40.3448 239.763 43.2916 239.728 46.2738C239.728 49.2205 239.728 52.185 239.728 55.1673V58.2028C239.728 61.185 239.728 64.1495 239.728 67.0962C239.763 70.043 239.834 72.9897 239.941 75.9364H236.16ZM205.858 75.9364V74.3921L212.888 73.8063H213.846L220.982 74.3921V75.9364H205.858ZM205.858 38.978V37.4336H220.982V38.978L213.846 39.5105H212.888L205.858 38.978ZM230.462 75.9364V74.3921L237.544 73.8063H238.556L245.586 74.3921V75.9364H230.462ZM230.462 38.978V37.4336H245.586V38.978L238.556 39.5105H237.544L230.462 38.978ZM213.473 73.9128L212.941 71.2501H213.42L225.669 55.3803L237.917 39.404L238.556 42.12H238.024L225.669 58.1495L213.473 73.9128Z" fill="#212121"/>
<path d="M118.389 101.329V99.9119L125.376 99.3744H126.305L133.293 99.9119V101.329H118.389ZM124.106 101.329C124.171 98.6252 124.204 95.9213 124.204 93.2175C124.236 90.5137 124.253 87.7936 124.253 85.0571V82.2719C124.253 79.5355 124.236 76.8153 124.204 74.1115C124.204 71.3751 124.171 68.6713 124.106 66H127.575C127.543 68.6713 127.51 71.3751 127.478 74.1115C127.478 76.8153 127.478 79.5355 127.478 82.2719V85.0571C127.478 87.7936 127.478 90.5137 127.478 93.2175C127.51 95.9213 127.543 98.6252 127.575 101.329H124.106ZM111.157 74.9422L111.597 66H140.085L140.573 74.9422H138.668L137.251 66L138.765 67.6614H112.916L114.48 66L113.014 74.9422H111.157Z" fill="#212121"/>
<path d="M76.1005 101.329C76.1656 98.6252 76.1982 95.9213 76.1982 93.2175C76.1982 90.5137 76.1982 87.7936 76.1982 85.0571V82.2719C76.1982 79.5355 76.1982 76.8153 76.1982 74.1115C76.1982 71.3751 76.1656 68.6713 76.1005 66H79.521C79.4884 68.6713 79.4558 71.3751 79.4233 74.1115C79.4233 76.8153 79.4233 79.5355 79.4233 82.2719L79.3744 101.329H76.1005ZM98.7247 101.329C98.7899 98.6252 98.8225 95.905 98.8225 93.1686C98.855 90.4322 98.8713 87.6144 98.8713 84.7151L98.9202 66H102.194C102.096 68.6713 102.031 71.3751 101.999 74.1115C101.999 76.8153 101.999 79.5355 101.999 82.2719V85.0571C101.999 87.7936 101.999 90.5137 101.999 93.2175C102.031 95.9213 102.096 98.6252 102.194 101.329H98.7247ZM70.9208 101.329V99.9119L77.371 99.3744H78.2505L84.7984 99.9119V101.329H70.9208ZM70.9208 67.4171V66H84.7984V67.4171L78.2505 67.9057H77.371L70.9208 67.4171ZM93.4962 101.329V99.9119L99.9952 99.3744H100.924L107.374 99.9119V101.329H93.4962ZM93.4962 67.4171V66H107.374V67.4171L100.924 67.9057H99.9952L93.4962 67.4171ZM77.9085 99.4722L77.4198 97.0289H77.8596L89.0984 82.4673L100.337 67.808L100.924 70.3001H100.435L89.0984 85.0083L77.9085 99.4722Z" fill="#212121"/>
</svg>
