<?xml version="1.0" encoding="utf-8"?>
<!-- Generator: Adobe Illustrator 16.0.0, SVG Export Plug-In . SVG Version: 6.00 Build 0)  -->
<!DOCTYPE svg PUBLIC "-//W3C//DTD SVG 1.1//EN" "http://www.w3.org/Graphics/SVG/1.1/DTD/svg11.dtd">
<svg version="1.1" id="Слой_1" xmlns="http://www.w3.org/2000/svg" xmlns:xlink="http://www.w3.org/1999/xlink" x="0px" y="0px"
	 width="384px" height="54px" viewBox="0 0 384 54" enable-background="new 0 0 384 54" xml:space="preserve">
<g>
	<rect x="358" fill="#73787F" width="6" height="54"/>
	<path fill="#73787F" d="M384,26v-6h-8V0h-6v40c0,7.719,6.281,14,14,14v-6c-4.41,0-8-3.59-8-8V26H384z"/>
	<path fill="#73787F" d="M159,20c-9.375,0-17,7.626-17,17c0,9.375,7.625,17,17,17s17-7.625,17-17C176,27.626,168.375,20,159,20z
		 M159,48c-6.066,0-11-4.934-11-11s4.934-11,11-11s11,4.934,11,11S165.066,48,159,48z"/>
	<path fill="#73787F" d="M255,20c-9.375,0-17,7.626-17,17c0,9.375,7.625,17,17,17s17-7.625,17-17C272,27.626,264.375,20,255,20z
		 M255,48c-6.066,0-11-4.934-11-11s4.934-11,11-11s11,4.934,11,11S261.066,48,255,48z"/>
	<path fill="#73787F" d="M124,34v20h6V34c0-4.41,3.59-8,8-8v-6C130.281,20,124,26.28,124,34z"/>
	<path fill="#73787F" d="M218,22c-4.457,0-8.434,2.094-11,5.349C204.434,24.094,200.457,22,196,22c-7.719,0-14,6.281-14,14v18h6V36
		c0-4.41,3.59-8,8-8s8,3.59,8,8v18h6V36c0-4.41,3.59-8,8-8s8,3.59,8,8v18h6V36C232,28.281,225.719,22,218,22z"/>
	<path fill="#73787F" d="M98,0C86.973,0,78,8.972,78,20v34h6V34.258C87.609,37.805,92.551,40,98,40c11.027,0,20-8.973,20-20
		C118,8.972,109.027,0,98,0z M98,34c-7.719,0-14-6.28-14-14S90.281,6,98,6s14,6.28,14,14S105.719,34,98,34z"/>
	<path fill="#73787F" d="M298,0c-11.027,0-20,8.972-20,20v34h6V34.258c3.611,3.547,8.553,5.742,14,5.742c11.027,0,20-8.973,20-20
		C318,8.972,309.027,0,298,0z M298,34c-7.719,0-14-6.28-14-14s6.281-14,14-14s14,6.28,14,14S305.719,34,298,34z"/>
	<path fill="#73787F" d="M346,40c0,4.41-3.59,8-8,8s-8-3.59-8-8V20h-6v20c0,7.719,6.281,14,14,14s14-6.281,14-14V20h-6V40z"/>
</g>
<path id="_2_1_" fill="#BABCC2" d="M24,34v20h6V34H24z"/>
<path fill="#FF9B00" d="M27,0C12.112,0,0,12.112,0,27c0,12.463,8.5,22.953,20,26.047v-6.273C11.857,43.883,6,36.121,6,27
	C6,15.421,15.421,6,27,6c11.578,0,21,9.421,21,21c0,9.121-5.857,16.883-14,19.773v6.273C45.5,49.953,54,39.463,54,27
	C54,12.112,41.887,0,27,0z"/>
</svg>
