<svg width="745" height="180" viewBox="0 0 745 180" fill="none" xmlns="http://www.w3.org/2000/svg">
<path d="M70.4536 157.906L26.5662 132.594C23.1657 130.647 21.0759 127.036 21.0759 123.107L21.0759 56.8009C21.0759 52.8714 23.1657 49.2605 26.5662 47.3134L70.4536 22.0017C72.083 21.0459 73.1102 19.3113 73.1102 17.435L73.1102 5.29249C73.1102 1.22138 68.7179 -1.32749 65.1758 0.725764L16.0106 29.0465C6.09252 34.7815 2.97745e-08 45.331 3.73082e-08 56.8009L8.08828e-08 123.142C8.83932e-08 134.577 6.09252 145.162 16.0106 150.897L65.1403 179.253C68.6825 181.271 73.0748 178.757 73.0748 174.686L73.0748 162.544C73.0748 160.597 72.083 158.862 70.4536 157.906Z" fill="#FCD000"/>
<path d="M108.603 157.907L152.455 132.595C155.855 130.648 157.945 127.037 157.945 123.108L157.945 56.8018C157.945 52.8723 155.855 49.2614 152.455 47.3144L108.603 22.0027C106.974 21.0469 105.946 19.3122 105.946 17.436L105.946 5.29346C105.946 1.22235 110.339 -1.32651 113.881 0.726741L163.011 29.0829C172.929 34.8179 179.021 45.3673 179.021 56.8372L179.021 123.179C179.021 134.613 172.929 145.198 163.011 150.933L113.881 179.289C110.339 181.307 105.946 178.794 105.946 174.722L105.946 162.58C105.982 160.597 106.974 158.863 108.603 157.907Z" fill="#FCD000"/>
<path d="M112.65 52.3638C117.688 52.3638 121.772 56.4479 121.772 61.4859V117.784C121.772 123.426 117.198 128 111.556 128C108.235 128 105.122 126.387 103.208 123.674L75.6813 85.3467V118.859C75.6813 123.908 71.5889 128 66.5407 128C61.4924 128 57.4 123.908 57.4 118.859V62.7073C57.4 56.9947 62.031 52.3638 67.7435 52.3638C71.121 52.3638 74.2857 54.0127 76.2209 56.7808L103.528 94.9433V61.4859C103.528 56.4479 107.612 52.3638 112.65 52.3638Z" fill="#FCD000"/>
<g clip-path="url(#clip0_1_12)">
<path d="M240.477 125.045C235.243 125.045 231 120.802 231 115.568V64.7044C231 59.4702 235.243 55.2271 240.477 55.2271C245.711 55.2271 249.955 59.4702 249.955 64.7043V82.4998H274.046V64.7043C274.046 59.4702 278.289 55.2271 283.523 55.2271C288.757 55.2271 293 59.4702 293 64.7043V115.568C293 120.802 288.757 125.045 283.523 125.045C278.289 125.045 274.046 120.802 274.046 115.568V97.7725H249.955V115.568C249.955 120.802 245.711 125.045 240.477 125.045Z" fill="#333333"/>
<path d="M370.156 90.1366C370.156 97.9093 368.645 104.466 365.622 109.807C362.6 115.125 358.52 119.159 353.384 121.909C348.247 124.637 342.52 126 336.202 126C329.838 126 324.088 124.625 318.952 121.875C313.838 119.103 309.77 115.057 306.747 109.739C303.747 104.398 302.247 97.8638 302.247 90.1366C302.247 82.3638 303.747 75.8184 306.747 70.5002C309.77 65.1593 313.838 61.1252 318.952 58.3979C324.088 55.6479 329.838 54.2729 336.202 54.2729C342.52 54.2729 348.247 55.6479 353.384 58.3979C358.52 61.1252 362.6 65.1593 365.622 70.5002C368.645 75.8184 370.156 82.3638 370.156 90.1366ZM350.656 90.1366C350.656 85.9547 350.1 82.432 348.986 79.5684C347.895 76.682 346.27 74.5002 344.111 73.0229C341.975 71.5229 339.338 70.7729 336.202 70.7729C333.065 70.7729 330.418 71.5229 328.259 73.0229C326.122 74.5002 324.497 76.682 323.384 79.5684C322.293 82.432 321.747 85.9547 321.747 90.1366C321.747 94.3184 322.293 97.8525 323.384 100.739C324.497 103.603 326.122 105.784 328.259 107.284C330.418 108.762 333.065 109.5 336.202 109.5C339.338 109.5 341.975 108.762 344.111 107.284C346.27 105.784 347.895 103.603 348.986 100.739C350.1 97.8525 350.656 94.3184 350.656 90.1366Z" fill="#333333"/>
<path d="M390.446 125.045C384.923 125.045 380.446 120.568 380.446 115.045V65.2271C380.446 59.7042 384.923 55.2271 390.446 55.2271H395.583H410.719C416.037 55.2271 420.503 55.943 424.117 57.3748C427.753 58.8066 430.492 60.8293 432.333 63.443C434.196 66.0566 435.128 69.1362 435.128 72.6816C435.128 75.2498 434.56 77.5907 433.424 79.7043C432.31 81.818 430.742 83.5907 428.719 85.0225C426.696 86.4316 424.333 87.4089 421.628 87.9543V88.6362C424.628 88.7498 427.355 89.5112 429.81 90.9203C432.264 92.3066 434.219 94.2271 435.674 96.6816C437.128 99.1134 437.855 101.977 437.855 105.272C437.855 109.091 436.855 112.488 434.855 115.466C432.878 118.443 430.06 120.784 426.401 122.488C422.742 124.193 418.378 125.045 413.31 125.045H396.878H390.446ZM399.401 109.909H408.264C411.446 109.909 413.833 109.318 415.424 108.136C417.014 106.932 417.81 105.159 417.81 102.818C417.81 101.182 417.435 99.7953 416.685 98.6589C415.935 97.5225 414.867 96.6589 413.48 96.068C412.117 95.4771 410.469 95.1816 408.537 95.1816H399.401V109.909ZM399.401 83.4543H407.174C408.833 83.4543 410.299 83.193 411.571 82.6703C412.844 82.1475 413.833 81.3975 414.537 80.4203C415.264 79.4203 415.628 78.2043 415.628 76.7725C415.628 74.6134 414.855 72.9657 413.31 71.8293C411.764 70.6703 409.81 70.0907 407.446 70.0907H399.401V83.4543Z" fill="#333333"/>
<path d="M512.728 90.1366C512.728 97.9093 511.216 104.466 508.194 109.807C505.171 115.125 501.091 119.159 495.955 121.909C490.819 124.637 485.091 126 478.773 126C472.409 126 466.659 124.625 461.523 121.875C456.409 119.103 452.341 115.057 449.319 109.739C446.319 104.398 444.819 97.8638 444.819 90.1366C444.819 82.3638 446.319 75.8184 449.319 70.5002C452.341 65.1593 456.409 61.1252 461.523 58.3979C466.659 55.6479 472.409 54.2729 478.773 54.2729C485.091 54.2729 490.819 55.6479 495.955 58.3979C501.091 61.1252 505.171 65.1593 508.194 70.5002C511.216 75.8184 512.728 82.3638 512.728 90.1366ZM493.228 90.1366C493.228 85.9547 492.671 82.432 491.557 79.5684C490.466 76.682 488.841 74.5002 486.682 73.0229C484.546 71.5229 481.909 70.7729 478.773 70.7729C475.637 70.7729 472.989 71.5229 470.83 73.0229C468.694 74.5002 467.069 76.682 465.955 79.5684C464.864 82.432 464.319 85.9547 464.319 90.1366C464.319 94.3184 464.864 97.8525 465.955 100.739C467.069 103.603 468.694 105.784 470.83 107.284C472.989 108.762 475.637 109.5 478.773 109.5C481.909 109.5 484.546 108.762 486.682 107.284C488.841 105.784 490.466 103.603 491.557 100.739C492.671 97.8525 493.228 94.3184 493.228 90.1366Z" fill="#333333"/>
<path d="M550.017 62.1818H568.699C574.563 62.1818 579.756 63.375 584.279 65.7614C588.824 68.1477 592.381 71.5341 594.949 75.9205C597.54 80.3068 598.836 84.5 598.836 90.5C598.836 96.1818 597.54 100.102 594.949 104.261C592.381 108.42 588.824 111.636 584.279 113.909C579.756 116.182 574.563 117.318 568.699 117.318H550.017C544.108 117.318 538.87 116.193 534.302 113.943C529.756 111.693 526.188 108.477 523.597 104.296C521.029 100.114 519.745 96.1364 519.745 90.3636C519.745 84.3636 521.052 80.1818 523.665 75.8182C526.302 71.4545 529.892 68.0909 534.438 65.7273C539.006 63.3636 544.199 62.1818 550.017 62.1818ZM550.017 77.7273C547.654 77.7273 545.472 78.1705 543.472 79.0568C541.495 79.9432 539.904 81.3864 538.699 83.3864C537.517 85.3864 536.927 87.0455 536.927 90.3636C536.927 93.4091 537.54 94.8409 538.767 96.6591C540.017 98.4773 541.631 99.7841 543.608 100.579C545.608 101.375 547.745 101.773 550.017 101.773H568.836C571.154 101.773 573.267 101.364 575.177 100.546C577.108 99.7045 578.643 98.3864 579.779 96.5909C580.938 94.7727 581.517 93.4091 581.517 90.5C581.517 87.1818 580.938 85.5114 579.779 83.4886C578.643 81.4659 577.108 80 575.177 79.0909C573.267 78.1818 571.154 77.7273 568.836 77.7273H550.017ZM559.29 52C564.185 52 568.154 55.9684 568.154 60.8637V118.046C568.154 122.941 564.185 126.909 559.29 126.909C554.395 126.909 550.427 122.941 550.427 118.045V60.8636C550.427 55.9684 554.395 52 559.29 52Z" fill="#333333"/>
<path d="M672.736 90.1366C672.736 97.9093 671.225 104.466 668.202 109.807C665.18 115.125 661.1 119.159 655.964 121.909C650.827 124.637 645.1 126 638.782 126C632.418 126 626.668 124.625 621.532 121.875C616.418 119.103 612.35 115.057 609.327 109.739C606.327 104.398 604.827 97.8638 604.827 90.1366C604.827 82.3638 606.327 75.8184 609.327 70.5002C612.35 65.1593 616.418 61.1252 621.532 58.3979C626.668 55.6479 632.418 54.2729 638.782 54.2729C645.1 54.2729 650.827 55.6479 655.964 58.3979C661.1 61.1252 665.18 65.1593 668.202 70.5002C671.225 75.8184 672.736 82.3638 672.736 90.1366ZM653.236 90.1366C653.236 85.9547 652.68 82.432 651.566 79.5684C650.475 76.682 648.85 74.5002 646.691 73.0229C644.555 71.5229 641.918 70.7729 638.782 70.7729C635.645 70.7729 632.998 71.5229 630.839 73.0229C628.702 74.5002 627.077 76.682 625.964 79.5684C624.873 82.432 624.327 85.9547 624.327 90.1366C624.327 94.3184 624.873 97.8525 625.964 100.739C627.077 103.603 628.702 105.784 630.839 107.284C632.998 108.762 635.645 109.5 638.782 109.5C641.918 109.5 644.555 108.762 646.691 107.284C648.85 105.784 650.475 103.603 651.566 100.739C652.68 97.8525 653.236 94.3184 653.236 90.1366Z" fill="#333333"/>
<path d="M691.504 125.045C686.269 125.045 682.026 120.802 682.026 115.568V64.7044C682.026 59.4702 686.269 55.2271 691.504 55.2271C696.738 55.2271 700.981 59.4702 700.981 64.7044V82.4998H725.072V64.7044C725.072 59.4702 729.315 55.2271 734.549 55.2271C739.783 55.2271 744.026 59.4702 744.026 64.7044V115.568C744.026 120.802 739.783 125.045 734.549 125.045C729.315 125.045 725.072 120.802 725.072 115.568V97.7725H700.981V115.568C700.981 120.802 696.738 125.045 691.504 125.045Z" fill="#333333"/>
</g>
<defs>
<clipPath id="clip0_1_12">
<rect width="514" height="75" fill="white" transform="translate(231 52)"/>
</clipPath>
</defs>
</svg>
