<?xml version="1.0"?>
<svg width="283.17" height="156.77" xmlns="http://www.w3.org/2000/svg" xmlns:svg="http://www.w3.org/2000/svg">
 <defs>
  <style>.layer{fill:url(#svg_19);}</style>
  <linearGradient id="svg_19" x1="0" x2="1" y1="0" y2="0">
   <stop id="jq_stop_3034" offset="0" stop-color="#591080"/>
   <stop id="jq_stop_479" offset="1" stop-color="#87088a"/>
  </linearGradient>
 </defs>
 <title>logo white@1x</title>
 <g class="layer" display="inline">
  <title>Layer 1</title>
  <g id="svg_18">
   <path class="cls-1" d="m54.62,145.93c4.27,-12.52 4.38,-12.58 4.38,-13.36a1.84,1.84 0 0 0 -3.53,-0.6c-0.11,0.32 -1.13,3.79 -3.83,13c-3.81,-13.32 -3.53,-12.83 -4.46,-13.63a2.63,2.63 0 0 0 -2.94,0c-0.9,0.77 -0.62,0.31 -4.42,13.63c-3.69,-12.62 -3.66,-12.73 -4.16,-13.53a1.91,1.91 0 0 0 -2.68,0c-0.92,0.92 -0.46,1.93 0,3.29c4.33,12.82 4.42,13.84 5.66,14.52a2.53,2.53 0 0 0 3.1,-0.58c0.71,-1.14 0.8,-1.8 3.93,-12.81c3.33,11.41 3.33,11.14 3.57,11.92a2.34,2.34 0 0 0 2.35,1.68c2.01,0 2.41,-1.62 3.03,-3.53z" fill="url(#svg_19)" id="svg_1"/>
   <path class="cls-1" d="m66.57,133.83l-0.44,0.52l0,-7.63a1.87,1.87 0 0 0 -3.73,0l0,20.45a1.87,1.87 0 0 0 3.73,0l0,-6.91c0.18,-7 9.32,-6.34 9.32,-0.52l0,7.43a1.87,1.87 0 0 0 3.73,0l0,-6.7c0,-8.65 -8.95,-10.96 -12.61,-6.64z" fill="url(#svg_19)" id="svg_2"/>
   <path class="cls-1" d="m100.08,140.47c0,-11.72 -17.48,-11.72 -17.48,0s17.48,11.72 17.48,0zm-8.74,5.29c-3.13,0 -5,-2 -5,-5.29s1.88,-5.29 5,-5.29s5,2 5,5.29s-1.86,5.29 -5,5.29z" fill="url(#svg_19)" id="svg_3"/>
   <path class="cls-1" d="m115.84,126.93c0,-3.26 -4.89,-3.22 -4.89,0a2.45,2.45 0 1 0 4.89,0z" fill="url(#svg_19)" id="svg_4"/>
   <path class="cls-1" d="m113.41,131.91a1.86,1.86 0 0 0 -1.86,1.86l0,13.4a1.87,1.87 0 0 0 3.73,0l0,-13.4a1.87,1.87 0 0 0 -1.87,-1.86z" fill="url(#svg_19)" id="svg_5"/>
   <path class="cls-1" d="m133.65,143.82c0,-6.29 -10.76,-3.95 -10.76,-6.95c0,-1.4 1.91,-1.59 3.57,-1.59a36.91,36.91 0 0 1 4.38,0.31a1.67,1.67 0 0 0 1.89,-1.66a1.78,1.78 0 0 0 -1.49,-1.78c-5.45,-0.92 -11.9,-0.64 -11.9,4.86c0,6.74 10.75,4.19 10.75,7c0,1.46 -2,1.66 -4.16,1.66c-4.67,0 -5.2,-0.75 -6.16,0.09a1.76,1.76 0 0 0 0.93,3c5.64,0.97 12.95,0.78 12.95,-4.94z" fill="url(#svg_19)" id="svg_6"/>
   <path class="cls-1" d="m154.27,131.73a6.42,6.42 0 0 0 -5.43,2.64l0,-7.65a1.87,1.87 0 0 0 -3.73,0l0,13.75c0,11.77 17.48,11.65 17.48,0c0,-4.97 -3.59,-8.74 -8.32,-8.74zm-0.49,14c-3.18,0 -4.94,-1.88 -4.94,-5.29s1.76,-5.29 4.94,-5.29s5.08,1.93 5.08,5.29s-1.86,5.32 -5.08,5.32l0,-0.03z" fill="url(#svg_19)" id="svg_7"/>
   <path class="cls-1" d="m168.13,124.86a1.86,1.86 0 0 0 -1.86,1.86l0,20.45a1.87,1.87 0 0 0 3.73,0l0,-20.45a1.87,1.87 0 0 0 -1.87,-1.86z" fill="url(#svg_19)" id="svg_8"/>
   <path class="cls-1" d="m191.18,140.47c0,-11.72 -17.48,-11.72 -17.48,0s17.48,11.72 17.48,0zm-8.74,5.29c-3.13,0 -5,-2 -5,-5.29s1.87,-5.29 5,-5.29s5,2 5,5.29s-1.86,5.29 -5,5.29z" fill="url(#svg_19)" id="svg_9"/>
   <path class="cls-1" d="m250.8,137.3c0,-7.62 -16,-8.3 -16,3.24c0,5.88 4.36,10.1 13.66,8.24c1.28,-0.26 1.39,-1.93 0.39,-2.82s-1.75,-0.31 -4.57,-0.31c-4.06,0 -5.21,-1.65 -5.71,-4c6.33,3.02 12.23,0.11 12.23,-4.35zm-11.92,1c0.86,-2.15 2.49,-3 4.84,-3c2.08,0 3.32,0.74 3.32,2c-0.04,2.7 -5.47,2.17 -8.16,1.05l0,-0.05z" fill="url(#svg_19)" id="svg_10"/>
   <path class="cls-1" d="m262.62,135.55c2.49,-0.45 2.84,-3.81 0.84,-3.82c-5.29,0 -8.84,3.53 -8.84,8.77l0,6.67a1.87,1.87 0 0 0 3.73,0l0,-6.7a4.92,4.92 0 0 1 4.27,-4.92z" fill="url(#svg_19)" id="svg_11"/>
   <path class="cls-1" d="m231.82,147.78l-0.18,-7c0,-5.23 -3.51,-8.74 -8.74,-8.74c-11.72,0 -11.72,17.47 0,17.47a9.1,9.1 0 0 0 5.2,-1.49c-0.13,3.11 -1.83,4.79 -4.18,5.13s-2.73,3.61 -0.77,3.61a8.34,8.34 0 0 0 8.67,-8.98zm-8.92,-1.7c-3.14,0 -5,-2 -5,-5.29s1.87,-5.3 5,-5.3s5,2 5,5.3s-1.9,5.29 -5,5.29z" fill="url(#svg_19)" id="svg_12"/>
   <path class="cls-1" d="m211,147.78l-0.18,-7c0,-5.23 -3.51,-8.74 -8.74,-8.74c-11.72,0 -11.72,17.47 0,17.47a9.1,9.1 0 0 0 5.2,-1.49c-0.13,3.1 -1.82,4.79 -4.18,5.13s-2.73,3.61 -0.77,3.61a8.34,8.34 0 0 0 8.67,-8.98zm-8.92,-1.7c-3.14,0 -5,-2 -5,-5.29s1.87,-5.3 5,-5.3s5,2 5,5.3s-1.9,5.29 -5.08,5.29l0.08,0z" fill="url(#svg_19)" id="svg_13"/>
   <path class="cls-1" d="m168.19,36.22a10.78,10.78 0 0 0 -10.76,10.78l0,57a10.76,10.76 0 1 0 21.57,0l0,-57a10.77,10.77 0 0 0 -10.81,-10.78z" fill="url(#svg_19)" id="svg_14"/>
   <path class="cls-1" d="m168.28,25.77c12.6,0 16.24,-14.26 9.43,-21.93c-4.51,-5.07 -14.3,-5.23 -19.19,0.17c-6.86,7.59 -2.52,21.76 9.76,21.76z" fill="url(#svg_19)" id="svg_15"/>
   <path class="cls-1" d="m283.11,71.82c-1.57,-29.3 -33.83,-47.82 -60.11,-33.27l-2,1.08l-0.78,-2.08c-3.65,-9.62 -14.48,-17.42 -24.12,-19.92c4,13.63 5.65,27.74 6.12,42.09c0.17,5.09 0.33,9.9 0.25,14.56c-0.58,36.18 44.27,54.27 69.51,27.64a40.28,40.28 0 0 0 11.13,-30.1zm-40.49,23.55a21.33,21.33 0 1 1 21.38,-21.37a21.36,21.36 0 0 1 -21.38,21.37z" fill="url(#svg_19)" id="svg_16"/>
   <path class="cls-1" d="m117.48,37.09c-2.48,6.64 -2.73,29.09 -2.39,36.91c0.47,10.87 -8,20.22 -19.32,21.28l-0.11,0c-5.18,-0.1 -8.89,-1.76 -11.35,-5.07c-4.62,-6.21 -3.84,-13.01 -3.84,-25.21a10.28,10.28 0 0 0 -20.56,0c0,11.73 0.86,18.86 -3.84,25.21c-2.47,3.34 -6.23,5 -11.49,5.07l-0.1,0c-11.13,-1.02 -19.82,-10.57 -19.35,-21.28c0.33,-7.82 0.12,-30.27 -2.39,-36.91c-3.62,-9.55 -13.31,-17.02 -22.74,-19.46c4,13.61 5.65,27.66 6.13,42.09c0.16,5.11 0.32,9.93 0.25,14.56a39.55,39.55 0 0 0 40.85,40.19a28.08,28.08 0 0 0 21.39,-12.24l1.57,-2.23l1.57,2.23c18.52,26.24 62.65,7.37 62.08,-27.95c-0.07,-4.64 0.08,-9.46 0.25,-14.56c0.47,-14.23 2.07,-28.37 6.13,-42.09c-9.43,2.44 -19.13,9.91 -22.74,19.46z" fill="url(#svg_19)" id="svg_17"/>
  </g>
 </g>
</svg>