<?xml version="1.0" encoding="utf-8"?>
<!-- Generator: Adobe Illustrator 27.2.0, SVG Export Plug-In . SVG Version: 6.00 Build 0)  -->
<svg version="1.1" id="Layer_1" xmlns="http://www.w3.org/2000/svg" xmlns:xlink="http://www.w3.org/1999/xlink" x="0px" y="0px"
	 viewBox="0 0 1393 227" style="enable-background:new 0 0 1393 227;" xml:space="preserve">
<style type="text/css">
	.st0{fill:#787878;}
	.st1{fill:#EE6B45;}
</style>
<path class="st0" d="M980.1,85.1h55.2v28h-91.7V2.8h89.7v28h-53.1L980.1,85.1L980.1,85.1z M977.5,43.8h49.2v26.8h-49.2V43.8z"/>
<path class="st0" d="M1038.5,113.1l49.2-68.7l-0.2,26l-47.6-67.6h41.8l27.7,41l-17.8,0.2l27.1-41.2h40l-47.6,66.2V43.1l50,70h-42.5
	l-27.7-42.8l17.2-0.2l-27.1,43H1038.5z"/>
<path class="st0" d="M1165.7,113.1V2.8h53.1c10.3,0,19.2,1.7,26.7,5.1c7.5,3.4,13.3,8.2,17.4,14.4c4.1,6.3,6.1,13.6,6.1,22.1
	s-2.1,15.9-6.1,22.1c-4.1,6.2-9.9,11-17.4,14.4c-7.5,3.4-16.4,5.1-26.7,5.1h-32.5l16.6-15.9v43h-37.2V113.1z M1202.9,74.2
	l-16.6-16.9h30.1c5.1,0,8.9-1.1,11.4-3.4c2.4-2.3,3.7-5.4,3.7-9.4c0-4-1.2-7.1-3.7-9.4c-2.4-2.3-6.3-3.4-11.4-3.4h-30.1l16.6-16.9
	V74.2z"/>
<path class="st0" d="M1333.1,132c32.7,0,59.1-2.6,59.1-5.9c0-3.2-26.5-5.9-59.1-5.9c-32.6,0-59.1,2.6-59.1,5.9
	C1273.9,129.4,1300.4,132,1333.1,132z"/>
<path class="st0" d="M1333.1,126.1c-5,0-36.2-29.2-41.5-34c-5.2-4.9-9.2-10.5-12.1-17.1c-2.9-6.5-4.3-13.7-4.3-21.4
	s1.4-14.9,4.3-21.4c2.9-6.5,6.9-12.2,12.1-17c5.1-4.9,11.3-8.6,18.4-11.2c7.1-2.6,14.8-3.9,23.1-3.9c8.3,0,16.1,1.3,23.2,3.9
	c7,2.6,13.2,6.4,18.3,11.2c5.1,4.9,9.2,10.5,12.1,17c2.9,6.5,4.3,13.7,4.3,21.4s-1.4,14.9-4.3,21.4c-2.9,6.6-6.9,12.2-12.1,17.1
	C1369.4,96.9,1337.6,126.1,1333.1,126.1z M1333.1,79.3c3.2,0,6.2-0.6,9-1.8c2.8-1.1,5.2-2.9,7.3-5.1c2.1-2.2,3.7-4.9,4.9-8.1
	c1.1-3.1,1.8-6.8,1.8-10.8c0-4-0.6-7.6-1.8-10.8c-1.2-3.1-2.8-5.9-4.9-8.1c-2.1-2.2-4.6-3.9-7.3-5.1c-2.8-1.1-5.8-1.8-9-1.8
	c-3.2,0-6.2,0.6-9,1.8c-2.8,1.1-5.2,2.9-7.3,5.1c-2.1,2.2-3.7,4.9-4.9,8.1c-1.1,3.1-1.8,6.8-1.8,10.8c0,4,0.6,7.6,1.8,10.8
	c1.1,3.1,2.8,5.9,4.9,8.1c2.1,2.2,4.6,3.9,7.3,5.1C1326.8,78.6,1329.9,79.3,1333.1,79.3z"/>
<path class="st1" d="M531.5,112.8V31.4h-32.3V2.6H601v28.8h-32.3v81.5L531.5,112.8L531.5,112.8z"/>
<path class="st1" d="M610.7,112.8V2.6h37.2v110.3L610.7,112.8L610.7,112.8z"/>
<path class="st1" d="M665.8,112.8V2.6h36.6v110.3L665.8,112.8L665.8,112.8z M699.1,89.2L697,48.3l41.6-45.8h40.5l-46.7,51.4
	L711.8,75L699.1,89.2z M738.3,112.8L705.8,70l24.1-25.5l51.4,68.4H738.3L738.3,112.8z"/>
<path class="st1" d="M768.9,112.8L817.1,2.6h36.6l48.2,110.3h-38.5l-35.6-92.6h14.5l-35.6,92.6L768.9,112.8L768.9,112.8z
	 M797.6,93.6l9.4-26.8h50.7l9.4,26.8H797.6L797.6,93.6z"/>
<path class="st0" d="M860.9,171.1h20.8l7.9,12.7l7.9-12.7h21.1l-17.5,25.8l19.1,28.3h-21.5l-9.1-14l-9,14h-20.9l19-27.5L860.9,171.1
	z"/>
<path class="st0" d="M829.1,191.3h24.1v13.1h-24.1V191.3z M830.3,211.5h27v13.7h-44.9v-54h43.9V185h-26V211.5z"/>
<path class="st0" d="M750.6,225.3v-54h52.3v54h-17.9v-43.8l3.9,3.9h-24.3l3.9-3.9v43.8H750.6z"/>
<path class="st0" d="M720.8,226.5c-4.3,0-8.3-0.7-12-2c-3.7-1.4-6.8-3.3-9.6-5.9c-2.7-2.5-4.8-5.5-6.3-9c-1.5-3.4-2.2-7.3-2.2-11.4
	c0-4.2,0.7-8,2.2-11.4c1.5-3.4,3.6-6.4,6.3-9c2.7-2.5,5.9-4.5,9.6-5.8c3.7-1.4,7.7-2.1,12-2.1c5.3,0,10,0.9,14.1,2.8
	c4.1,1.9,7.5,4.5,10.2,8l-11.5,10.3c-1.6-2-3.4-3.6-5.3-4.6c-1.9-1.1-4.1-1.7-6.5-1.7c-1.9,0-3.6,0.3-5.2,0.9
	c-1.5,0.6-2.9,1.5-4,2.7c-1.1,1.2-1.9,2.6-2.5,4.3c-0.6,1.6-0.9,3.5-0.9,5.6c0,2.1,0.3,3.9,0.9,5.6c0.6,1.6,1.5,3.1,2.5,4.2
	c1.1,1.2,2.5,2.1,4,2.7c1.5,0.6,3.3,0.9,5.2,0.9c2.4,0,4.6-0.5,6.5-1.6c2-1.1,3.7-2.7,5.3-4.7l11.5,10.3c-2.7,3.4-6.1,6.1-10.2,8
	C730.8,225.6,726.1,226.5,720.8,226.5z"/>
<path class="st0" d="M640.9,211.1c3.2,0.8,5.7,1.1,7.5,0.8c1.8-0.3,3.4-1.4,4.8-3.3l2.6-3.7l1.5-1.7l15.7-32h17.6l-21.7,40.7
	c-2.4,4.4-5.2,7.9-8.6,10.3c-3.3,2.4-6.9,3.8-11,4.2c-4,0.4-8.3-0.4-12.7-2.2L640.9,211.1z M657.1,217.5l-25.2-46.3h19.2L667,205
	L657.1,217.5z"/>
<path class="st0" d="M543.3,225.3l23.6-54h17.9l23.6,54h-18.8l-17.4-45.4h7.1l-17.4,45.4H543.3z M557.3,215.8l4.6-13.1h24.9
	l4.6,13.1H557.3z"/>
<path class="st0" d="M520,171.2h18.2v54H520V171.2z M503.2,225.3h-18.2v-54h18.2V225.3z M521.2,205.3h-19.3v-15h19.3V205.3z"/>
<path class="st0" d="M432,226.5c-4.3,0-8.3-0.7-12-2c-3.7-1.4-6.8-3.3-9.6-5.9c-2.7-2.5-4.8-5.5-6.3-9c-1.5-3.4-2.2-7.3-2.2-11.4
	c0-4.2,0.7-8,2.2-11.4c1.5-3.4,3.6-6.4,6.3-9c2.7-2.5,5.9-4.5,9.6-5.8c3.7-1.4,7.7-2.1,12-2.1c5.3,0,10,0.9,14.1,2.8
	c4.1,1.9,7.5,4.5,10.2,8l-11.5,10.3c-1.6-2-3.4-3.6-5.3-4.6c-1.9-1.1-4.1-1.7-6.5-1.7c-1.9,0-3.6,0.3-5.2,0.9
	c-1.5,0.6-2.9,1.5-4,2.7c-1.1,1.2-1.9,2.6-2.5,4.3c-0.6,1.6-0.9,3.5-0.9,5.6c0,2.1,0.3,3.9,0.9,5.6c0.6,1.6,1.5,3.1,2.5,4.2
	c1.1,1.2,2.5,2.1,4,2.7c1.5,0.6,3.3,0.9,5.2,0.9c2.4,0,4.6-0.5,6.5-1.6c2-1.1,3.7-2.7,5.3-4.7l11.5,10.3c-2.7,3.4-6.1,6.1-10.2,8
	C442,225.6,437.3,226.5,432,226.5z"/>
<path class="st1" d="M0,112.8V2.6h37.2v81.5H87v28.8L0,112.8L0,112.8z"/>
<path class="st1" d="M153.5,115.4c-8.9,0-17.2-1.4-24.8-4.3c-7.6-2.8-14.2-6.9-19.8-12.1c-5.6-5.2-9.9-11.3-13-18.4
	c-3.1-7-4.6-14.7-4.6-23c0-8.3,1.6-16.1,4.6-23.1c3.1-7,7.4-13.1,13-18.3c5.6-5.2,12.1-9.2,19.8-12.1c7.6-2.8,15.9-4.3,24.8-4.3
	c8.9,0,17.3,1.4,24.9,4.3c7.6,2.8,14.1,6.9,19.7,12.1c5.6,5.2,9.9,11.3,13,18.3c3.1,7,4.6,14.7,4.6,23.1s-1.6,15.9-4.6,23
	c-3.1,7.1-7.4,13.1-13,18.4c-5.6,5.2-12.1,9.2-19.7,12.1C170.8,114,162.5,115.4,153.5,115.4z M153.5,85.3c3.4,0,6.7-0.6,9.7-1.9
	c3-1.3,5.6-3.1,7.9-5.4c2.3-2.4,4-5.3,5.3-8.7c1.3-3.4,1.9-7.3,1.9-11.6s-0.6-8.2-1.9-11.6c-1.3-3.4-3-6.3-5.3-8.7
	c-2.3-2.4-4.9-4.2-7.9-5.4c-3-1.3-6.3-1.9-9.7-1.9c-3.4,0-6.7,0.6-9.7,1.9c-3,1.3-5.6,3.1-7.9,5.4c-2.3,2.4-4,5.3-5.3,8.7
	c-1.3,3.4-1.9,7.3-1.9,11.6s0.6,8.2,1.9,11.6c1.3,3.4,3,6.3,5.3,8.7c2.3,2.4,4.9,4.2,7.9,5.4C146.8,84.7,150,85.3,153.5,85.3z"/>
<path class="st1" d="M286.5,115.4c-8.9,0-17.1-1.4-24.6-4.2c-7.5-2.8-14-6.8-19.5-11.9c-5.5-5.1-9.8-11.3-12.8-18.3
	c-3.1-7-4.6-14.8-4.6-23.3s1.5-16.3,4.6-23.3c3.1-7,7.4-13.1,12.9-18.3c5.6-5.1,12.1-9.1,19.8-11.9c7.5-2.8,15.9-4.3,25-4.3
	c10.9,0,20.6,1.8,29.2,5.5c8.6,3.7,15.6,8.9,21.2,15.8l-23.8,21c-3.4-4-7.2-7-11.3-9.1c-4.1-2.1-8.6-3.1-13.4-3.1
	c-4.1,0-7.8,0.6-11.1,1.9c-3.3,1.3-6.1,3.1-8.4,5.5c-2.3,2.4-4.1,5.3-5.4,8.7c-1.3,3.4-1.9,7.2-1.9,11.5c0,4.3,0.6,7.9,1.9,11.3
	c1.3,3.4,3.1,6.3,5.4,8.8s5.1,4.3,8.3,5.6c3.2,1.3,6.8,1.9,10.8,1.9c4.2,0,8.3-0.7,12.3-2.1c3.9-1.4,8.3-3.9,12.8-7.3l20.8,25.5
	c-6.8,4.5-14.4,8-23,10.4c-8.6,2.4-17,3.6-25.1,3.6L286.5,115.4z M302.3,96.6V54.7h32.3v46.7L302.3,96.6z"/>
<path class="st1" d="M350.5,112.8V2.6h37.2v110.3L350.5,112.8L350.5,112.8z"/>
<path class="st1" d="M446.8,115.4c-9.3,0-18.2-1.1-26.8-3.1c-8.6-2.1-15.7-4.8-21.3-8.2l12-27.1c5.3,3.1,11.1,5.5,17.6,7.3
	c6.4,1.8,12.8,2.8,18.8,2.8c3.6,0,6.4-0.3,8.4-0.7c2.1-0.5,3.6-1.1,4.5-2.1c0.9-0.9,1.4-1.9,1.4-3.3c0-2-1.1-3.6-3.3-4.8
	c-2.2-1.1-5.1-2.1-8.8-2.9c-3.6-0.8-7.6-1.6-11.9-2.5c-4.3-0.9-8.6-2.1-13-3.6c-4.4-1.4-8.4-3.4-12-5.8c-3.6-2.4-6.6-5.6-8.8-9.5
	c-2.2-3.9-3.3-8.8-3.3-14.8c0-6.8,1.9-13.1,5.8-18.7c3.8-5.6,9.6-10.1,17.2-13.4c7.6-3.4,17.1-5.1,28.5-5.1c7.4,0,14.8,0.8,22.1,2.4
	c7.3,1.6,13.8,4,19.5,7.3l-11.2,27c-5.4-2.8-10.8-4.8-15.8-6.1c-5.1-1.4-10.1-2.1-14.9-2.1c-3.6,0-6.4,0.3-8.5,0.9
	c-2.1,0.6-3.6,1.5-4.5,2.5c-0.9,1.1-1.3,2.2-1.3,3.4c0,1.9,1.1,3.4,3.3,4.5c2.2,1.1,5.1,2,8.8,2.8c3.6,0.8,7.6,1.5,12,2.4
	c4.4,0.8,8.7,2,13,3.4c4.3,1.5,8.3,3.4,11.9,5.8c3.6,2.4,6.6,5.6,8.8,9.4c2.2,3.9,3.3,8.7,3.3,14.5c0,6.8-1.9,12.9-5.8,18.5
	c-3.8,5.6-9.5,10.1-17.1,13.6c-7.6,3.4-17.1,5.1-28.5,5.1L446.8,115.4z"/>
<path class="st0" d="M347.9,225.3v-54h26c5,0,9.4,0.8,13,2.5c3.7,1.6,6.6,4,8.6,7.1c2,3,3,6.6,3,10.8c0,4.2-1,7.8-3,10.8
	c-2,3-4.9,5.4-8.6,7.1c-3.7,1.6-8,2.5-13,2.5h-15.9l8.1-7.8v21.1H347.9z M366.2,206.2l-8.1-8.3h14.7c2.5,0,4.4-0.6,5.6-1.7
	c1.2-1.1,1.9-2.7,1.9-4.6c0-2-0.6-3.5-1.9-4.6c-1.2-1.1-3-1.7-5.6-1.7h-14.7l8.1-8.3V206.2z"/>
<path class="st0" d="M294.4,211.1c3.2,0.8,5.7,1.1,7.5,0.8c1.8-0.3,3.4-1.4,4.8-3.3l2.6-3.7l1.5-1.7l15.7-32h17.6l-21.7,40.7
	c-2.4,4.4-5.2,7.9-8.6,10.3c-3.3,2.4-6.9,3.8-11,4.2c-4,0.4-8.3-0.4-12.7-2.2L294.4,211.1z M310.7,217.5l-25.2-46.3h19.2l15.8,33.7
	L310.7,217.5z"/>
<path class="st0" d="M264.3,225.3l-13.4-25.3l14.5-8.5l19.5,33.8H264.3z M230.6,225.3v-54h18.2v54H230.6z M243.6,205.7v-14.4H264
	v14.4H243.6z M267.1,200.2l-16.8-1.7l15.5-27.3h19L267.1,200.2z"/>
<path class="st0" d="M155.7,211.1l-3.9,3.9v-43.9h17.9v43.9l-4-3.9h18.8l-4,3.9v-43.9h17.9v54H123v-54h17.9v43.9l-3.9-3.9H155.7z"/>
<path class="st0" d="M52.8,225.3l23.6-54h17.9l23.6,54H99.1l-17.4-45.4h7.1l-17.4,45.4H52.8z M66.9,215.8l4.6-13.1h24.9l4.6,13.1
	H66.9z"/>
<path class="st0" d="M0,225.3v-54h27.4c6.7,0,11.9,1.2,15.5,3.7c3.7,2.5,5.6,5.9,5.6,10.4c0,4.4-1.7,7.8-5.1,10.4
	c-3.4,2.5-8,3.8-13.7,3.8l1.5-4.2c6.1,0,10.9,1.2,14.4,3.6c3.5,2.4,5.2,5.9,5.2,10.6c0,4.8-1.9,8.6-5.7,11.4
	c-3.8,2.8-9.2,4.2-16.3,4.2H0z M17.9,212.5H28c1.5,0,2.6-0.4,3.3-1.1c0.8-0.8,1.2-1.9,1.2-3.2s-0.4-2.4-1.2-3.1
	c-0.7-0.7-1.8-1.1-3.3-1.1H17.9V212.5z M17.9,192h7.7c1.5,0,2.7-0.3,3.4-1c0.7-0.7,1.1-1.6,1.1-2.9c0-1.3-0.4-2.3-1.1-3
	c-0.7-0.7-1.9-1.1-3.4-1.1h-7.7V192z"/>
</svg>
