<?xml version="1.0"?>
<svg width="427" height="55" xmlns="http://www.w3.org/2000/svg" xmlns:svg="http://www.w3.org/2000/svg">
 <g class="layer">
  <title>Layer 1</title>
  <path d="m100.41,43.04l11.59,0l0,-31.27l15.3,0l0,-10.74l-26.89,0l0,42.01z" fill="#8654CC" id="svg_1"/>
  <path d="m76.46,33.67c-5.66,0 -9.19,-3.65 -9.51,-9.6l28.72,0c0,0 0.18,-2.16 0.18,-4.38c0,-12.61 -7.5,-19.69 -19.27,-19.69c-12.42,0 -21.06,9.06 -21.06,21.97c0,13.08 8.52,22.08 20.94,22.08c11.53,0 19.27,-6.66 19.51,-16.44l-11.52,0c-0.66,3.84 -3.49,6.06 -7.99,6.06zm0.12,-23.95c4.65,0 7.41,2.01 8.18,6.25l-17.19,0c1.32,-3.97 4.56,-6.25 9.01,-6.25z" fill="#8654CC" id="svg_2"/>
  <path d="m391.33,1.03l0,10.74l12,0l0,31.27l11.59,0l0,-31.27l12,0l0,-10.74l-35.59,0z" fill="#8654CC" id="svg_3"/>
  <path d="m35.17,1.03l-7.97,25.73l-7.75,-25.73l-12.79,0l-6.66,42.01l10.62,0l4.06,-26.14l7.83,26.14l9.12,0l8.11,-26.61l3.9,26.61l10.8,0l-6.66,-42.01l-12.61,0z" fill="#8654CC" id="svg_4"/>
  <path d="m148.55,0c-12.36,0 -19.39,6.06 -19.09,16.39l12.01,0c0.06,-4.38 2.28,-6.48 7.08,-6.48c3.42,0 5.58,1.44 5.58,3.6c0,1.39 -0.54,1.92 -2.64,2.52l-9.66,2.65c-9.25,2.52 -13.39,6.36 -13.39,12.78c0,7.5 5.46,12.54 13.51,12.54c6.24,0 10.32,-2.52 12.36,-7.26l0,6.3l11.1,0l0,-27.91c0,-10.14 -6.42,-15.13 -16.86,-15.13zm-4.14,34.27c-2.94,0 -4.39,-1.44 -4.39,-3.54c0,-1.98 1.02,-3.23 4.2,-4.14l10.02,-2.82l0,0.78c0.01,5.4 -4.24,9.72 -9.83,9.72z" fill="#8654CC" id="svg_5"/>
  <path d="m349.62,1.03l-12.79,0l-9.01,15.6l-4.61,0l0,-15.6l-11.59,0l0,42.01l11.59,0l0,-16.09l4.55,0l9.67,16.09l13.09,0l-12.79,-21.43l11.89,-20.58z" fill="#8654CC" id="svg_6"/>
  <path d="m246.14,0c-12.36,0 -19.39,6.06 -19.08,16.39l12,0c0.06,-4.38 2.29,-6.48 7.08,-6.48c3.43,0 5.58,1.44 5.58,3.6c0,1.39 -0.54,1.92 -2.64,2.52l-9.66,2.65c-9.24,2.52 -13.38,6.36 -13.38,12.78c0,7.5 5.46,12.54 13.5,12.54c6.24,0 10.32,-2.46 12.36,-7.26l0,6.3l11.11,0l0,-27.91c0,-10.14 -6.42,-15.13 -16.87,-15.13zm-4.19,34.27c-2.88,0 -4.32,-1.44 -4.32,-3.54c0,-1.98 1.02,-3.18 4.2,-4.08l10.02,-2.81l0,0.71c-0.01,5.71 -4.27,9.72 -9.91,9.72l0.01,0z" fill="#8654CC" id="svg_7"/>
  <path d="m291.34,0c-5.55,0 -9.71,2.82 -11.35,7.32l0,-6.3l-11.58,0l0,53.48l11.58,0l0,-17.63c1.72,4.45 5.85,7.13 11.35,7.13c9.6,0 16.02,-7.44 16.02,-21.97c0,-14.53 -6.42,-22.03 -16.02,-22.03zm-3.24,33.25c-5.16,0 -8.29,-3.6 -8.29,-11.22c0,-7.56 3.19,-11.28 8.41,-11.28c4.92,0 7.86,3.66 7.86,11.28c0,7.92 -2.82,11.22 -7.98,11.22l0,0z" fill="#8654CC" id="svg_8"/>
  <path d="m204.13,1.03l-7.97,25.73l-7.76,-25.73l-12.78,0l-6.66,42.01l10.62,0l4.05,-26.14l7.83,26.14l9.13,0l8.11,-26.61l3.89,26.61l10.8,0l-6.66,-42.01l-12.6,0z" fill="#8654CC" id="svg_9"/>
  <path d="m369.36,33.67c-5.6,0 -9.18,-3.65 -9.51,-9.6l28.72,0c0,0 0.18,-2.16 0.18,-4.38c0,-12.61 -7.5,-19.69 -19.27,-19.69c-12.42,0 -21.07,9.06 -21.07,21.97c0,13.08 8.53,22.08 20.95,22.08c11.53,0 19.27,-6.66 19.51,-16.44l-11.53,0c-0.66,3.84 -3.48,6.06 -7.98,6.06zm0.12,-23.95c4.64,0 7.41,2.01 8.18,6.25l-17.19,0c1.31,-3.97 4.56,-6.25 9.01,-6.25z" fill="#8654CC" id="svg_10"/>
 </g>
</svg>