<svg id="Layer_1" data-name="Layer 1" xmlns="http://www.w3.org/2000/svg" viewBox="0 0 319.54 31.93"><defs><style>.cls-1{fill:#020608;}</style></defs><title>black</title><polygon class="cls-1" points="179.31 5.76 148.35 5.76 148.35 13.01 176.1 13.01 176.1 18.81 148.35 18.81 148.35 26.13 180.18 26.13 180.18 31.93 139.96 31.93 139.96 0 179.31 0 179.31 5.76"/><polygon class="cls-1" points="280.93 0 280.93 31.93 319.54 31.93 319.54 26.13 289.32 26.13 289.32 0 280.93 0"/><path class="cls-1" d="M227.7,0,204.51,31.93h9.6L218,26.11h22.48l3.91,5.82H254L230.8,0Zm-5.51,20.27,7.32-10.9,7,10.9Z"/><path class="cls-1" d="M101.6,18.7c5.85-.91,8.68-3.93,8.68-9.11a9.26,9.26,0,0,0-2.16-6.28,8.16,8.16,0,0,0-2.73-2.11C103.47.29,101.55,0,97.71,0H66.9l4.22,5.81H97.53c3,0,4.54,1.16,4.54,3.5,0,2.56-1.62,3.68-5.39,3.68H76.34l4.26,5.88H93.34l9.58,13.05h8.31Z"/><path class="cls-1" d="M23.19,0,0,31.93H9.6l3.91-5.82H36l3.9,5.82h9.6L26.28,0ZM17.43,20.27l7.3-10.9,7.32,10.9Z"/></svg>