<svg width="679" height="129" viewBox="0 0 679 129" fill="none" xmlns="http://www.w3.org/2000/svg">
<path d="M557.399 5.74937C572.161 2.24937 589.426 1.24937 600.435 1.24937C652.978 1.24937 666.99 24.4994 666.49 49.9994V98.2494L679 98.4994V123.499C673.495 124.999 667.49 126.249 661.485 126.249C646.723 126.249 639.217 118.499 637.465 108.999H635.214C626.206 121.499 610.193 126.999 594.68 126.999C570.66 126.999 548.391 113.999 548.391 86.4994C548.391 55.4994 576.915 47.4994 605.189 47.4994H633.963C633.462 32.7494 616.198 27.4994 596.932 27.4994C585.422 27.4994 571.16 29.4994 560.902 33.4994L557.399 5.74937ZM583.42 86.4994C583.42 97.2494 590.677 101.499 602.436 101.499C621.452 101.499 633.963 90.7494 633.963 70.2494L611.694 69.9994C590.927 69.9994 583.42 75.4994 583.42 86.4994Z" fill="#191919"/>
<path d="M452.17 123.999H417.141V3.9993H452.17V47.4993H460.927C478.192 47.4993 484.197 44.4993 494.956 19.2493L501.461 3.9993H535.74V6.7493L526.232 30.2493C520.477 44.4993 512.721 55.7493 504.464 62.4993L539.493 121.249V123.999H502.712L473.438 74.9993H452.17V123.999Z" fill="#191919"/>
<path d="M352.125 3.9993H387.154V123.999H352.125V80.9993C342.617 84.9993 331.608 87.4993 320.348 87.4993C293.826 87.4993 272.559 73.7493 272.559 39.7493V3.9993H307.588V39.9993C307.588 50.9993 314.594 60.2493 329.856 60.2493C336.862 60.2493 345.119 58.2493 352.125 55.2493V3.9993Z" fill="#191919"/>
<path d="M190.333 128C153.553 128 122.777 104 122.777 64C122.777 24 153.553 0 190.333 0C226.864 0 257.639 24 257.639 64C257.639 104 226.864 128 190.333 128ZM190.333 98.5C210.1 98.5 221.609 83.75 221.609 64C221.609 44.25 210.1 29.5 190.333 29.5C170.317 29.5 158.807 44.25 158.807 64C158.807 83.75 170.317 98.5 190.333 98.5Z" fill="#191919"/>
<path d="M114.095 3.9993V34.9993H74.562V123.999H39.5329V34.9993H0V3.9993H114.095Z" fill="#191919"/>
</svg>
