<?xml version="1.0"?>
<svg width="126" height="110" xmlns="http://www.w3.org/2000/svg" xmlns:svg="http://www.w3.org/2000/svg">
 <defs>
  <radialGradient cx="0" cy="0" gradientTransform="translate(37.4818 35.6032) rotate(180) scale(29.1937 28.7596)" gradientUnits="userSpaceOnUse" id="paint0_radial" r="1">
   <stop stop-color="#FDEC63"/>
   <stop offset="1" stop-color="#EF9121"/>
  </radialGradient>
  <linearGradient id="paint1_linear" x1="0.17" x2="0.81" y1="0" y2="1.06">
   <stop stop-color="#036635"/>
   <stop offset="0.17" stop-color="#308238"/>
   <stop offset="0.44" stop-color="#76AE3C"/>
   <stop offset="0.57" stop-color="#91BF3E"/>
   <stop offset="1" stop-color="#0197A0"/>
  </linearGradient>
 </defs>
 <g class="layer">
  <title>Layer 1</title>
  <path d="m5.39,91.05l8.19,12.31l0,-12.45c-0.04,-0.63 0.14,-1.26 0.51,-1.78c0.18,-0.2 0.39,-0.36 0.63,-0.46c0.24,-0.11 0.5,-0.16 0.76,-0.15c0.27,-0.01 0.52,0.05 0.76,0.15c0.25,0.11 0.46,0.26 0.63,0.46c0.39,0.52 0.57,1.16 0.53,1.81l0,16.43c0,1.83 -0.76,2.77 -2.29,2.77c-0.35,0.01 -0.7,-0.05 -1.03,-0.16c-0.32,-0.12 -0.61,-0.3 -0.86,-0.53c-0.28,-0.25 -0.53,-0.53 -0.75,-0.83l-0.68,-0.98l-7.9,-12.2l0,12.22c0.05,0.66 -0.15,1.3 -0.56,1.82c-0.17,0.19 -0.38,0.35 -0.62,0.46c-0.24,0.11 -0.5,0.16 -0.77,0.16c-0.26,0 -0.52,-0.05 -0.76,-0.16c-0.24,-0.11 -0.45,-0.27 -0.63,-0.46c-0.39,-0.52 -0.58,-1.17 -0.54,-1.82l0,-16.08c-0.02,-0.55 0.06,-1.09 0.23,-1.61c0.15,-0.41 0.41,-0.77 0.75,-1.05c0.41,-0.27 0.89,-0.4 1.39,-0.4c0.33,-0.01 0.67,0.05 0.98,0.18c0.28,0.12 0.53,0.29 0.74,0.51c0.24,0.25 0.45,0.51 0.64,0.8l0.65,1.04z" fill="#5e5e5e" id="svg_4"/>
  <path d="m26.76,101.61l6.28,0l-3.17,-8.64l-3.11,8.64zm8.42,5.79l-1,-2.63l-8.53,0l-1.03,2.69c-0.24,0.74 -0.58,1.45 -1.01,2.11c-0.17,0.2 -0.38,0.35 -0.62,0.45c-0.24,0.1 -0.5,0.13 -0.77,0.11c-0.26,0 -0.51,-0.06 -0.75,-0.16c-0.24,-0.1 -0.45,-0.25 -0.64,-0.44c-0.18,-0.16 -0.34,-0.36 -0.44,-0.59c-0.11,-0.23 -0.16,-0.47 -0.17,-0.72c0,-0.3 0.05,-0.6 0.14,-0.89c0.1,-0.3 0.25,-0.73 0.47,-1.27l5.37,-13.57c0.15,-0.39 0.33,-0.86 0.56,-1.39c0.17,-0.48 0.4,-0.94 0.68,-1.38c0.24,-0.37 0.57,-0.67 0.96,-0.88c0.46,-0.24 0.98,-0.35 1.5,-0.32c0.51,-0.02 1.02,0.09 1.47,0.33c0.38,0.21 0.71,0.5 0.96,0.86c0.25,0.35 0.46,0.73 0.63,1.13l0.64,1.62l5.47,13.49c0.35,0.7 0.57,1.45 0.66,2.23c0,0.26 -0.06,0.51 -0.16,0.75c-0.11,0.24 -0.26,0.45 -0.46,0.63c-0.19,0.2 -0.42,0.35 -0.67,0.45c-0.25,0.11 -0.52,0.16 -0.8,0.16c-0.3,0 -0.59,-0.06 -0.86,-0.18c-0.23,-0.12 -0.44,-0.28 -0.6,-0.49c-0.21,-0.29 -0.38,-0.6 -0.51,-0.94c-0.2,-0.43 -0.37,-0.8 -0.49,-1.12" fill="#5e5e5e" id="svg_5"/>
  <path d="m69.78,107.54l0,-16.46c-0.06,-0.69 0.15,-1.38 0.58,-1.93c0.2,-0.2 0.44,-0.36 0.7,-0.47c0.27,-0.1 0.55,-0.16 0.84,-0.16c0.28,0 0.56,0.06 0.83,0.16c0.26,0.11 0.5,0.27 0.7,0.47c0.44,0.55 0.65,1.23 0.6,1.93l0,16.46c0.05,0.7 -0.16,1.39 -0.6,1.94c-0.19,0.21 -0.43,0.38 -0.7,0.49c-0.26,0.11 -0.55,0.17 -0.84,0.16c-0.28,0.01 -0.57,-0.05 -0.83,-0.16c-0.26,-0.11 -0.5,-0.28 -0.69,-0.49c-0.43,-0.55 -0.65,-1.24 -0.59,-1.94z" fill="#5e5e5e" id="svg_6"/>
  <path d="m83.27,91.05l8.19,12.31l0,-12.45c-0.04,-0.64 0.14,-1.27 0.52,-1.78c0.17,-0.2 0.38,-0.36 0.62,-0.46c0.24,-0.11 0.5,-0.16 0.77,-0.15c0.26,0 0.52,0.05 0.76,0.15c0.24,0.11 0.45,0.26 0.63,0.46c0.38,0.52 0.56,1.16 0.51,1.81l0,16.43c0,1.83 -0.75,2.77 -2.28,2.77c-0.35,0.01 -0.7,-0.05 -1.03,-0.17c-0.32,-0.11 -0.61,-0.29 -0.86,-0.52c-0.28,-0.25 -0.53,-0.53 -0.75,-0.83l-0.68,-0.98l-7.9,-12.21l0,12.23c0.06,0.66 -0.14,1.3 -0.55,1.82c-0.19,0.19 -0.41,0.35 -0.66,0.45c-0.24,0.11 -0.51,0.17 -0.78,0.17c-0.27,0 -0.54,-0.06 -0.78,-0.17c-0.25,-0.1 -0.48,-0.26 -0.66,-0.45c-0.4,-0.52 -0.59,-1.17 -0.54,-1.82l0,-16.09c-0.02,-0.54 0.05,-1.08 0.22,-1.6c0.19,-0.43 0.5,-0.8 0.91,-1.05c0.41,-0.27 0.89,-0.41 1.38,-0.4c0.34,-0.02 0.67,0.05 0.98,0.18c0.27,0.12 0.52,0.29 0.72,0.51c0.24,0.24 0.45,0.51 0.63,0.8c0.22,0.33 0.44,0.68 0.66,1.04" fill="#5e5e5e" id="svg_7"/>
  <path d="m99.44,107.54l0,-16.46c-0.05,-0.7 0.16,-1.38 0.6,-1.93c0.19,-0.21 0.42,-0.37 0.68,-0.48c0.27,-0.11 0.55,-0.16 0.83,-0.15c0.29,-0.01 0.58,0.04 0.85,0.15c0.27,0.11 0.51,0.27 0.71,0.48c0.43,0.55 0.64,1.24 0.58,1.93l0,16.46c0.06,0.7 -0.15,1.39 -0.58,1.94c-0.2,0.21 -0.44,0.38 -0.71,0.49c-0.27,0.11 -0.56,0.17 -0.85,0.16c-0.28,0 -0.56,-0.05 -0.82,-0.16c-0.27,-0.12 -0.5,-0.28 -0.69,-0.49c-0.44,-0.55 -0.65,-1.24 -0.6,-1.94z" fill="#5e5e5e" id="svg_8"/>
  <path d="m112.73,101.61l6.27,0l-3.17,-8.64l-3.1,8.64zm8.34,5.79l-1,-2.63l-8.47,0l-1,2.69c-0.24,0.74 -0.57,1.45 -1,2.11c-0.17,0.2 -0.38,0.35 -0.62,0.45c-0.25,0.1 -0.51,0.13 -0.77,0.11c-0.26,-0.01 -0.51,-0.06 -0.75,-0.16c-0.24,-0.1 -0.46,-0.25 -0.64,-0.44c-0.19,-0.16 -0.34,-0.36 -0.44,-0.59c-0.11,-0.23 -0.17,-0.47 -0.17,-0.72c0,-0.3 0.05,-0.6 0.14,-0.89c0.1,-0.3 0.26,-0.73 0.47,-1.27l5.37,-13.57c0.15,-0.39 0.34,-0.86 0.55,-1.39c0.18,-0.48 0.41,-0.95 0.7,-1.38c0.24,-0.37 0.57,-0.68 0.96,-0.88c0.43,-0.23 0.9,-0.34 1.39,-0.34c0.51,-0.01 1.03,0.1 1.48,0.34c0.38,0.21 0.71,0.5 0.96,0.85c0.24,0.36 0.45,0.74 0.62,1.14l0.64,1.62l5.56,13.49c0.33,0.7 0.55,1.45 0.63,2.22c0,0.26 -0.05,0.52 -0.16,0.76c-0.1,0.24 -0.25,0.45 -0.45,0.63c-0.3,0.29 -0.68,0.49 -1.09,0.57c-0.42,0.08 -0.84,0.03 -1.23,-0.15c-0.24,-0.11 -0.45,-0.27 -0.61,-0.48c-0.2,-0.29 -0.38,-0.61 -0.51,-0.94c-0.2,-0.43 -0.35,-0.8 -0.49,-1.12" fill="#5e5e5e" id="svg_9"/>
  <path d="m56.23,106.5l-3.4,-12.45l-3.44,12.45c-0.27,0.96 -0.48,1.63 -0.63,2.05c-0.18,0.43 -0.47,0.81 -0.83,1.11c-0.44,0.35 -1,0.52 -1.56,0.49c-0.45,0.02 -0.9,-0.09 -1.29,-0.3c-0.34,-0.2 -0.62,-0.48 -0.82,-0.82c-0.23,-0.4 -0.4,-0.82 -0.52,-1.27c-0.14,-0.48 -0.26,-0.94 -0.36,-1.38l-3.47,-14.03c-0.18,-0.61 -0.28,-1.24 -0.31,-1.87c-0.01,-0.25 0.04,-0.51 0.14,-0.75c0.1,-0.24 0.24,-0.45 0.43,-0.63c0.18,-0.18 0.4,-0.32 0.64,-0.42c0.24,-0.09 0.49,-0.14 0.75,-0.13c0.3,-0.04 0.61,0.01 0.89,0.14c0.27,0.13 0.5,0.33 0.67,0.59c0.34,0.68 0.58,1.41 0.71,2.16l2.78,12.2l3.03,-11.4c0.16,-0.68 0.37,-1.35 0.61,-2.01c0.19,-0.46 0.49,-0.86 0.89,-1.17c0.48,-0.37 1.08,-0.57 1.69,-0.54c0.61,-0.03 1.2,0.17 1.67,0.55c0.36,0.31 0.64,0.7 0.82,1.14c0.15,0.41 0.36,1.09 0.61,2.03l3.12,11.41l2.78,-12.2c0.07,-0.52 0.18,-1.04 0.32,-1.55c0.11,-0.37 0.32,-0.7 0.61,-0.97c0.17,-0.15 0.38,-0.27 0.6,-0.34c0.22,-0.07 0.46,-0.09 0.69,-0.07c0.52,-0.01 1.02,0.19 1.39,0.55c0.19,0.18 0.34,0.39 0.44,0.63c0.1,0.24 0.14,0.5 0.13,0.75c-0.03,0.64 -0.14,1.26 -0.3,1.87l-3.48,14.1c-0.24,0.94 -0.43,1.65 -0.58,2.09c-0.18,0.44 -0.45,0.84 -0.81,1.16c-0.46,0.32 -1.01,0.49 -1.58,0.49c-0.56,0 -1.11,-0.17 -1.58,-0.49c-0.36,-0.28 -0.64,-0.65 -0.82,-1.08c-0.15,-0.41 -0.36,-1.09 -0.63,-2.07" fill="#5e5e5e" id="svg_10"/>
  <ellipse cx="-8.65" cy="36.71" fill="white" id="svg_1" rx="31.41" ry="31.22" transform="matrix(1 0 0 1 70.595 -0.01)"/>
  <path clip-rule="evenodd" d="m29.63,41.12c-9.86,-37.36 54.68,-48.1 57.84,-10.89c2.83,33.3 -47.33,50.71 -57.84,10.92l0,-0.03zm8.3,0.12c6.09,23.05 30.73,15.38 29.09,-3.91c-1.83,-21.54 -34.81,-17.73 -29.09,3.91z" fill="url(#paint0_radial)" fill-rule="evenodd" id="svg_2"/>
  <path clip-rule="evenodd" d="m57.94,72.59c-56.81,-0.41 -44.78,-81.39 9.23,-71.8c48.41,8.59 51.25,72.25 -9.23,71.8zm-3.47,-8.53c47.59,12.58 42.6,-55.08 9.26,-53.8c-32.69,1.27 -35.81,46.78 -9.26,53.8z" fill="url(#paint1_linear)" fill-rule="evenodd" id="svg_3"/>
 </g>
</svg>