<svg width="1927" height="633" viewBox="0 0 1927 633" fill="none" xmlns="http://www.w3.org/2000/svg">
<mask id="mask0_3616_6225" style="mask-type:luminance" maskUnits="userSpaceOnUse" x="0" y="0" width="574" height="574">
<path d="M574 574L574 0L0 -2.65196e-05L-2.37381e-05 574L574 574Z" fill="white"/>
</mask>
<g mask="url(#mask0_3616_6225)">
<path d="M301.667 137.987C302.718 126.283 309.025 115.958 319.958 110.072C330.726 104.161 346.121 103.063 360.675 109.137C375.251 115.141 385.343 126.798 388.754 138.571C392.328 150.461 389.478 162.212 381.956 171.251C374.387 180.339 364.085 185.618 354.508 188.422C344.813 191.155 335.843 191.435 327.877 188.141C319.934 184.847 313.814 178.307 308.908 169.523C304.143 160.763 300.545 149.761 301.643 137.987L301.667 137.987Z" fill="#6063FF"/>
<path d="M402.748 192.014C411.788 184.493 423.538 181.666 435.429 185.216C447.226 188.651 458.859 198.719 464.863 213.319C470.937 227.873 469.862 243.267 463.928 254.036C458.041 264.968 447.717 271.276 436.013 272.327C424.239 273.401 413.237 269.827 404.477 265.061C395.693 260.133 389.153 254.036 385.859 246.093C382.565 238.127 382.845 229.157 385.579 219.486C388.405 209.908 393.661 199.606 402.748 192.037L402.748 192.014Z" fill="#6063FF"/>
<path d="M417.79 91.4088C422.134 84.8683 430.567 81.8078 440.939 83.1631C451.265 84.4713 463.412 90.358 473.503 100.472C483.619 110.564 489.505 122.712 490.813 133.037C492.169 143.409 489.108 151.865 482.567 156.21C476.003 160.578 467.337 160.321 458.646 157.355C449.91 154.341 441.08 148.688 433.184 140.793C425.288 132.897 419.635 124.066 416.622 115.329C413.678 106.64 413.422 97.9731 417.766 91.4088L417.79 91.4088Z" fill="#6063FF" fill-opacity="0.3"/>
<path d="M371.816 7.2356C372.937 3.4746 377.119 0.975053 383.053 0.250887C388.986 -0.496639 396.671 0.577935 404.381 3.77829C412.089 6.97864 418.279 11.6507 421.923 16.3694C425.592 21.0882 426.759 25.8069 424.891 29.2643C423.022 32.7449 418.56 34.3568 412.907 34.4269C407.254 34.497 400.433 33.0253 393.448 30.1286C386.463 27.232 380.599 23.4242 376.629 19.3829C372.681 15.3416 370.649 11.0433 371.793 7.25896L371.816 7.2356Z" fill="#6063FF" fill-opacity="0.2"/>
<path d="M544.751 149.081C548.209 147.212 552.927 148.38 557.646 152.072C562.365 155.716 567.06 161.906 570.237 169.614C573.438 177.324 574.512 185.009 573.765 190.943C573.041 196.876 570.541 201.058 566.78 202.179C562.996 203.323 558.697 201.291 554.656 197.343C550.615 193.372 546.807 187.509 543.91 180.548C541.014 173.562 539.565 166.718 539.612 161.065C539.682 155.435 541.294 150.95 544.775 149.081L544.751 149.081Z" fill="#6063FF" fill-opacity="0.2"/>
<path d="M192.014 171.251C184.493 162.212 181.643 150.461 185.216 138.571C188.651 126.773 198.765 115.117 213.342 109.113C227.896 103.063 243.267 104.161 254.013 110.072C264.945 115.958 271.252 126.283 272.327 137.986C273.401 149.76 269.85 160.786 265.061 169.546C260.133 178.33 253.989 184.871 246.047 188.164C238.104 191.458 229.157 191.131 219.463 188.421C209.885 185.595 199.583 180.339 192.014 171.251Z" fill="#6063FF"/>
<path d="M241.19 56.2269C239.626 48.5413 243.433 40.412 251.749 34.0112C259.972 27.6339 272.727 23.1955 287.023 23.2188C301.319 23.2188 314.074 27.6339 322.297 34.0112C330.59 40.3886 334.421 48.518 332.856 56.2269C331.291 63.9591 324.983 69.8925 316.761 73.9573C308.468 77.9985 298.213 80.2413 287.047 80.2413C275.88 80.2413 265.625 77.9985 257.332 73.9573C249.086 69.8925 242.779 63.959 241.237 56.2269L241.19 56.2269Z" fill="#6063FF" fill-opacity="0.3"/>
<path d="M149.175 29.2199C147.306 25.7626 148.497 21.0439 152.188 16.3251C155.856 11.6064 162.047 6.91096 169.755 3.73397C177.464 0.533619 185.149 -0.517584 191.06 0.229944C196.993 0.977474 201.151 3.47701 202.273 7.23801C203.417 11.0224 201.385 15.3206 197.437 19.362C193.489 23.4033 187.626 27.1877 180.641 30.0843C173.657 32.981 166.812 34.4293 161.159 34.3826C155.506 34.3125 151.02 32.7006 149.175 29.2433L149.175 29.2199Z" fill="#6063FF" fill-opacity="0.2"/>
<path d="M436.01 301.673C447.713 302.747 458.038 309.054 463.925 319.963C469.835 330.732 470.933 346.08 464.883 360.657C458.879 375.234 447.246 385.349 435.425 388.783C423.535 392.357 411.785 389.506 402.745 381.985C393.657 374.416 388.401 364.114 385.575 354.536C382.841 344.865 382.538 335.918 385.832 327.952C389.125 319.986 395.666 313.866 404.45 308.938C413.21 304.172 424.236 300.598 436.01 301.673Z" fill="#6063FF"/>
<path d="M517.777 241.169C525.463 239.604 533.592 243.411 539.993 251.728C546.37 259.951 550.808 272.705 550.785 287.002C550.785 301.299 546.37 314.053 539.993 322.276C533.615 330.569 525.486 334.376 517.777 332.835C510.045 331.269 504.111 324.962 500.047 316.716C496.005 308.423 493.763 298.168 493.763 287.002C493.763 275.836 496.005 265.581 500.047 257.288C504.111 249.041 510.045 242.758 517.777 241.193L517.777 241.169Z" fill="#6063FF" fill-opacity="0.3"/>
<path d="M566.762 371.726C570.523 372.848 573.023 377.006 573.77 382.939C574.518 388.85 573.466 396.535 570.266 404.267C567.089 411.976 562.394 418.167 557.675 421.834C552.956 425.525 548.237 426.693 544.78 424.847C541.299 422.979 539.687 418.494 539.617 412.864C539.571 407.21 541.019 400.366 543.916 393.381C546.812 386.397 550.62 380.533 554.638 376.585C558.679 372.637 562.978 370.628 566.762 371.75L566.762 371.726Z" fill="#6063FF" fill-opacity="0.2"/>
<path d="M381.983 402.727C389.505 411.768 392.355 423.518 388.781 435.408C385.371 447.205 375.279 458.839 360.702 464.843C346.149 470.916 330.755 469.841 319.985 463.907C309.053 458.021 302.746 447.696 301.694 435.992C300.62 424.219 304.194 413.193 308.959 404.456C313.865 395.672 319.985 389.131 327.928 385.838C335.893 382.544 344.864 382.824 354.535 385.557C364.113 388.384 374.414 393.64 381.983 402.727Z" fill="#6063FF"/>
<path d="M482.572 417.77C489.112 422.115 492.173 430.548 490.817 440.943C489.509 451.269 483.622 463.416 473.507 473.508C463.393 483.622 451.269 489.51 440.943 490.817C430.571 492.173 422.115 489.112 417.77 482.572C413.402 476.007 413.659 467.341 416.625 458.65C419.639 449.914 425.292 441.083 433.188 433.188C441.083 425.292 449.914 419.639 458.65 416.625C467.341 413.659 476.007 413.425 482.572 417.77Z" fill="#6063FF" fill-opacity="0.3"/>
<path d="M424.919 544.734C426.788 548.191 425.62 552.91 421.928 557.629C418.284 562.348 412.094 567.02 404.386 570.22C396.676 573.42 388.991 574.495 383.057 573.748C377.101 573.023 372.942 570.524 371.821 566.763C370.677 562.978 372.709 558.68 376.657 554.639C380.628 550.597 386.491 546.79 393.476 543.893C400.461 540.996 407.282 539.548 412.959 539.595C418.588 539.665 423.073 541.277 424.942 544.734L424.919 544.734Z" fill="#6063FF" fill-opacity="0.2"/>
<path d="M272.327 435.984C271.253 447.688 264.946 458.013 254.014 463.9C243.244 469.81 227.897 470.908 213.343 464.858C198.766 458.854 188.628 447.197 185.217 435.4C181.643 423.51 184.494 411.76 192.015 402.719C199.584 393.632 209.886 388.376 219.464 385.549C229.135 382.816 238.082 382.513 246.048 385.807C254.014 389.1 260.134 395.641 265.062 404.424C269.828 413.185 273.402 424.211 272.327 435.984Z" fill="#6063FF"/>
<path d="M332.831 517.753C334.396 525.461 330.589 533.568 322.272 539.968C314.049 546.345 301.295 550.784 286.998 550.76C272.701 550.76 259.947 546.345 251.724 539.968C243.431 533.591 239.624 525.461 241.165 517.776C242.731 510.044 249.038 504.087 257.261 500.046C265.554 496.004 275.808 493.761 286.975 493.738C298.141 493.738 308.396 495.981 316.689 500.046C324.935 504.11 331.242 510.044 332.784 517.776L332.831 517.753Z" fill="#6063FF" fill-opacity="0.3"/>
<path d="M202.27 566.763C201.148 570.524 196.99 573.023 191.057 573.771C185.146 574.519 177.461 573.468 169.729 570.267C162.02 567.09 155.829 562.395 152.162 557.676C148.471 552.957 147.303 548.239 149.149 544.781C151.017 541.3 155.503 539.688 161.132 539.618C166.786 539.572 173.63 541.02 180.615 543.917C187.599 546.813 193.463 550.598 197.411 554.64C201.359 558.681 203.368 562.978 202.246 566.763L202.27 566.763Z" fill="#6063FF" fill-opacity="0.2"/>
<path d="M171.273 381.989C162.232 389.511 150.482 392.338 138.592 388.787C126.795 385.352 115.161 375.284 109.158 360.708C103.084 346.155 104.182 330.76 110.093 319.991C115.979 309.058 126.304 302.751 138.008 301.7C149.781 300.625 160.784 304.199 169.544 308.965C178.328 313.894 184.869 319.991 188.162 327.933C191.456 335.876 191.176 344.869 188.443 354.541C185.616 364.118 180.36 374.42 171.273 381.989Z" fill="#6063FF"/>
<path d="M156.225 482.572C151.88 489.113 143.447 492.173 133.052 490.818C122.727 489.51 110.58 483.623 100.488 473.508C90.3732 463.393 84.4865 451.246 83.1782 440.944C81.823 430.572 84.8835 422.116 91.4008 417.771C97.9651 413.402 106.632 413.659 115.345 416.626C124.082 419.639 132.912 425.293 140.808 433.188C148.704 441.084 154.357 449.915 157.37 458.651C160.337 467.341 160.571 476.008 156.225 482.572Z" fill="#6063FF" fill-opacity="0.3"/>
<path d="M29.2623 424.895C25.8048 426.764 21.086 425.596 16.3673 421.928C11.6485 418.284 6.95288 412.094 3.77595 404.385C0.5759 396.676 -0.498738 388.991 0.249053 383.057C0.972934 377.123 3.47221 372.942 7.23351 371.821C11.0179 370.676 15.3166 372.708 19.3577 376.656C23.3988 380.628 27.2064 386.491 30.1035 393.476C32.9998 400.461 34.4483 407.305 34.4012 412.935C34.3311 418.565 32.7199 423.05 29.2392 424.919L29.2623 424.895Z" fill="#6063FF" fill-opacity="0.2"/>
<path d="M138.008 272.329C126.305 271.254 115.979 264.947 110.093 254.015C104.182 243.245 103.084 227.898 109.135 213.321C115.138 198.744 126.795 188.606 138.592 185.195C150.482 181.622 162.232 184.471 171.273 191.993C180.36 199.562 185.616 209.864 188.443 219.442C191.176 229.136 191.479 238.083 188.186 246.025C184.892 253.991 178.351 260.135 169.568 265.041C160.808 269.806 149.781 273.38 138.008 272.306L138.008 272.329Z" fill="#6063FF"/>
<path d="M56.2435 332.81C48.5344 334.376 40.4051 330.567 34.0274 322.274C27.6504 314.052 23.2123 301.297 23.2354 287.001C23.2354 272.704 27.6504 259.949 34.0274 251.727C40.4051 243.434 48.5344 239.603 56.2196 241.167C63.9519 242.733 69.9087 249.04 73.9507 257.263C77.9918 265.556 80.2344 275.811 80.2344 286.977C80.2344 298.143 77.9918 308.399 73.9268 316.692C69.8625 324.937 63.9288 331.222 56.1965 332.787L56.2435 332.81Z" fill="#6063FF" fill-opacity="0.3"/>
<path d="M7.23708 202.249C3.47579 201.128 0.976522 196.97 0.228727 191.036C-0.51827 185.126 0.532454 177.441 3.7333 169.732C6.91023 162.023 11.6059 155.832 16.3246 152.141C21.0434 148.451 25.7621 147.283 29.2189 149.127C32.6996 150.997 34.3115 155.482 34.3817 161.135C34.4287 166.788 32.9802 173.632 30.0831 180.618C27.1868 187.602 23.4024 193.466 19.3613 197.414C15.3202 201.361 11.0215 203.37 7.23708 202.249Z" fill="#6063FF" fill-opacity="0.2"/>
<path d="M91.4283 156.231C84.8871 151.886 81.8266 143.453 83.1819 133.058C84.4901 122.733 90.3768 110.585 100.492 100.47C110.607 90.3559 122.754 84.4685 133.056 83.1841C143.451 81.8289 151.884 84.8663 156.229 91.4067C160.598 97.971 160.341 106.638 157.374 115.351C154.36 124.088 148.707 132.918 140.811 140.814C132.916 148.709 124.086 154.363 115.349 157.376C106.658 160.342 97.9919 160.576 91.4283 156.231Z" fill="#6063FF" fill-opacity="0.3"/>
<path d="M286.998 349.097C252.706 349.097 224.906 321.298 224.906 287.006C224.906 252.713 252.706 224.914 286.998 224.914C321.291 224.914 349.09 252.713 349.09 287.006C349.09 321.298 321.291 349.097 286.998 349.097Z" fill="#6063FF"/>
</g>
<path d="M696.222 284.229C696.563 248.615 703.206 217.564 716.151 191.078C729.506 164.595 747.304 144.295 769.547 130.18C792.199 116.068 817.238 109.143 844.665 109.406C868.408 109.633 888.831 114.537 905.934 124.117C923.037 133.697 936.219 146.515 945.482 162.57L945.94 114.675L1066.29 115.828L1062.99 460.303L942.64 459.15L943.099 411.255C933.531 427.13 919.9 439.691 902.208 448.937C884.925 458.188 864.616 462.701 841.283 462.478C813.856 462.215 788.953 454.812 766.576 440.269C744.608 425.73 727.202 405.093 714.357 378.359C701.926 351.22 695.881 319.843 696.222 284.229ZM944.293 286.606C944.505 264.5 938.531 247.044 926.372 234.236C914.622 221.432 899.946 214.946 882.344 214.777C864.332 214.605 849.33 220.806 837.337 233.383C825.348 245.55 819.245 262.891 819.029 285.405C818.818 307.511 824.585 325.17 836.331 338.383C848.081 351.187 862.961 357.675 880.973 357.848C898.576 358.017 913.373 351.813 925.366 339.236C937.769 326.664 944.078 309.12 944.293 286.606Z" fill="#6063FF"/>
<path d="M1360.25 115.574C1399.96 115.954 1431.35 129.56 1454.43 156.392C1477.52 182.815 1488.84 218.541 1488.41 263.57L1486.49 464.361L1366.13 463.207L1367.91 278.382C1368.09 258.733 1363.12 243.333 1353 232.182C1342.87 220.622 1329.21 214.76 1312.02 214.595C1294.01 214.422 1279.83 220.018 1269.49 231.382C1259.15 242.337 1253.88 257.639 1253.69 277.288L1251.92 462.113L1131.57 460.96L1134.87 116.485L1255.22 117.638L1254.75 166.761C1265.55 151.307 1279.99 138.959 1298.09 129.716C1316.2 120.064 1336.92 115.35 1360.25 115.574Z" fill="#6063FF"/>
<path d="M1926.7 124.071L1703.23 630.4L1572.44 629.147L1656.44 451.25L1518.37 120.159L1652.23 121.441L1722.81 317.4L1794.69 122.806L1926.7 124.071Z" fill="#6063FF"/>
</svg>
