<?xml version="1.0" encoding="utf-8"?>
<!-- Generator: Adobe Illustrator 16.0.0, SVG Export Plug-In . SVG Version: 6.00 Build 0)  -->
<!DOCTYPE svg PUBLIC "-//W3C//DTD SVG 1.1//EN" "http://www.w3.org/Graphics/SVG/1.1/DTD/svg11.dtd">
<svg version="1.1" id="Слой_1" xmlns="http://www.w3.org/2000/svg" xmlns:xlink="http://www.w3.org/1999/xlink" x="0px" y="0px"
	 width="144px" height="30px" viewBox="0 0 144 30" enable-background="new 0 0 144 30" xml:space="preserve">
<g>
	<path fill="#C9DA2D" d="M2.802,5.011l18.27-4.895c1.816-0.486,3.699,0.602,4.186,2.417l4.896,18.27
		c0.487,1.815-0.601,3.701-2.417,4.187l-18.27,4.895C7.65,30.37,5.767,29.283,5.28,27.468L0.385,9.198
		C-0.102,7.382,0.986,5.498,2.802,5.011L2.802,5.011z"/>
	<path fill="#EC2227" d="M2.802,5.011l18.27-4.895c1.816-0.486,3.699,0.602,4.186,2.417l4.896,18.27
		c0.487,1.815-0.601,3.701-2.417,4.187l-18.27,4.895C7.65,30.37,5.767,29.283,5.28,27.468L0.385,9.198
		C-0.102,7.382,0.986,5.498,2.802,5.011L2.802,5.011z"/>
	<path fill="#EC2227" d="M10.176,29.694l-0.71,0.189C7.65,30.37,5.767,29.283,5.28,27.468l-2.678-9.993h7.575L10.176,29.694
		L10.176,29.694z"/>
	<path fill="#231F20" d="M21.866,0.002c1.542-0.039,2.976,0.979,3.392,2.531l4.896,18.27c0.487,1.815-0.601,3.701-2.417,4.187
		l-5.871,1.572V0.002L21.866,0.002z"/>
	<path fill="#FFFFFF" d="M13.556,15.038H1.949l1.176,4.388h5.682v10.566C8.903,29.986,9,29.975,9.096,29.961
		c0.01-0.002,0.021-0.002,0.031-0.004c0.113-0.019,0.227-0.043,0.339-0.073l4.09-1.096L13.556,15.038L13.556,15.038z"/>
	<path fill="#FFFFFF" d="M24.43,15.038V1.063c-0.836-0.873-2.112-1.281-3.358-0.947L19.565,0.52v14.518h-4.307v4.388h4.307v7.754
		l4.864-1.305v-6.449h5.354l-1.175-4.388H24.43L24.43,15.038z"/>
	<path fill="#FFFFFF" d="M10.887,6.724c0.805,0,1.5,0.279,2.068,0.856c0.576,0.569,0.855,1.254,0.855,2.049
		c0,0.806-0.28,1.501-0.855,2.07c-0.568,0.575-1.263,0.856-2.068,0.856c-0.797,0-1.483-0.281-2.051-0.856
		c-0.568-0.569-0.856-1.265-0.856-2.07c0-0.812,0.28-1.499,0.848-2.066C9.387,7.003,10.073,6.724,10.887,6.724L10.887,6.724z"/>
</g>
<path fill="#231F20" stroke="#231F20" stroke-width="1.1348" d="M37.947,24.29V10.721h-2.174V8.357h5.011v15.934L37.947,24.29
	L37.947,24.29z M39.5,2.352c0.486,0,0.9,0.172,1.242,0.514c0.343,0.343,0.515,0.753,0.515,1.228c0,0.486-0.171,0.9-0.515,1.244
	C40.399,5.68,39.985,5.851,39.5,5.851c-0.477,0-0.886-0.171-1.229-0.513c-0.343-0.343-0.513-0.758-0.513-1.244
	s0.167-0.898,0.505-1.236C38.6,2.521,39.013,2.352,39.5,2.352z"/>
<path fill="#231F20" stroke="#231F20" stroke-width="1.1348" d="M46.287,10.295h-1.844V8.073h1.844V4.757l2.837-1.081v4.397h4.35
	v2.222h-4.35v7.923c0,1.341,0.224,2.294,0.672,2.86c0.449,0.565,1.17,0.849,2.166,0.849c0.72,0,1.463-0.189,2.233-0.567l0.414,2.484
	c-1.167,0.297-2.448,0.446-3.842,0.446c-1.255,0-2.316-0.468-3.182-1.405c-0.866-0.937-1.298-2.119-1.298-3.548L46.287,10.295
	L46.287,10.295z"/>
<path fill="#231F20" stroke="#231F20" stroke-width="0.7565" d="M81.861,24.29h-0.756l-4.658-10.827L71.791,24.29h-0.757
	L65.359,8.026h3.026l3.38,10.449l4.232-10.449h0.758l4.373,10.449l3.664-10.449h2.789L81.861,24.29z"/>
<path fill="#231F20" stroke="#231F20" stroke-width="0.7565" d="M90.441,16.003c0-2.456,0.66-4.438,1.986-5.949
	c1.324-1.509,3.068-2.265,5.23-2.265c2.281,0,4.053,0.726,5.314,2.176c1.26,1.451,1.889,3.464,1.889,6.038
	c0,2.565-0.645,4.587-1.934,6.067c-1.289,1.481-3.047,2.221-5.27,2.221c-2.271,0-4.043-0.748-5.313-2.243
	S90.441,18.538,90.441,16.003z M93.42,16.003c0,3.98,1.412,5.972,4.238,5.972c1.32,0,2.354-0.534,3.102-1.602
	c0.75-1.066,1.123-2.523,1.123-4.37c0-3.932-1.408-5.896-4.225-5.896c-1.287,0-2.316,0.523-3.086,1.57
	C93.803,12.725,93.42,14.166,93.42,16.003z"/>
<path fill="#231F20" stroke="#231F20" stroke-width="0.7565" d="M117.031,11.076c-0.613-0.426-1.23-0.64-1.852-0.64
	c-1,0-1.871,0.463-2.617,1.387c-0.746,0.925-1.121,2.037-1.121,3.339v9.128h-2.836V8.357h2.836v2.553
	c1.029-1.892,2.557-2.837,4.582-2.837c0.504,0,1.23,0.088,2.18,0.266L117.031,11.076z"/>
<path fill="#231F20" stroke="#231F20" stroke-width="0.7565" d="M121.672,19.489V1.548h2.836v17.484
	c0,0.853,0.244,1.525,0.732,2.016c0.486,0.491,1.127,0.737,1.916,0.737v2.505C123.5,24.29,121.672,22.69,121.672,19.489z"/>
<path fill="#231F20" stroke="#231F20" stroke-width="0.7565" d="M140.895,24.008v-1.176c-0.98,0.973-2.404,1.458-4.275,1.458
	c-1.988,0-3.602-0.713-4.836-2.14c-1.238-1.428-1.857-3.331-1.857-5.709c0-2.388,0.713-4.428,2.137-6.117
	c1.426-1.689,3.123-2.535,5.092-2.535c1.643,0,2.889,0.387,3.74,1.158v-7.4h2.836v22.459L140.895,24.008L140.895,24.008z
	 M140.895,11.761c-0.713-1.071-1.684-1.607-2.92-1.607c-1.514,0-2.736,0.565-3.67,1.696c-0.934,1.132-1.4,2.569-1.4,4.316
	c0,3.84,1.74,5.76,5.219,5.76c0.443,0,0.979-0.141,1.602-0.424c0.621-0.282,1.012-0.583,1.17-0.9V11.761z"/>
<path fill="#EC2227" d="M60.596,14.274c0.881,0,1.641,0.306,2.263,0.936c0.629,0.621,0.935,1.372,0.935,2.243
	c0,0.882-0.306,1.64-0.935,2.262c-0.623,0.631-1.382,0.937-2.263,0.937c-0.87,0-1.622-0.306-2.243-0.937
	c-0.622-0.622-0.937-1.38-0.937-2.262c0-0.889,0.307-1.64,0.927-2.262C58.957,14.58,59.707,14.274,60.596,14.274L60.596,14.274z"/>
</svg>
