<?xml version="1.0"?>
<svg width="130" height="33" xmlns="http://www.w3.org/2000/svg" xmlns:svg="http://www.w3.org/2000/svg" data-name="Layer 1" version="1.1">
 <defs>
  <style>.cls-1 {
        fill: #0af;
      }

      .cls-1, .cls-2 {
        stroke-width: 0px;
      }

      .cls-2 {
        fill: #002882;
      }</style>
 </defs>
 <g class="layer">
  <title>Layer 1</title>
  <path class="cls-1" d="m41.01,4.4l-22.21,0l1.6,-4.4l22.21,0l-1.6,4.4zm-0.8,2.2l-22.21,0l-1.6,4.4l22.21,0l1.6,-4.4zm-2.4,6.6l-22.21,0l-1.6,4.4l22.21,0l1.6,-4.4z" id="svg_1"/>
  <path class="cls-2" d="m93.93,28.59l3.98,0c1.51,0 2.42,-0.37 3.06,-1.19c0.32,-0.41 0.78,-1.14 0.78,-2.51s-0.46,-2.33 -1.37,-3.02c-0.55,-0.41 -1.28,-0.64 -2.51,-0.64l-3.93,0l0,7.36l-0.01,0zm-5.25,4.43l0,-26.42l17.19,0l-1.51,4.43l-10.42,0l0,5.85l4.25,0c3.43,0 5.21,0.82 6.44,1.87c0.96,0.82 2.61,2.65 2.61,6.26s-1.69,5.53 -3.11,6.54c-1.65,1.14 -3.38,1.46 -6.9,1.46l-8.55,0l0,0.01zm-15.22,0l0,-21.99l-7.63,0l0,-4.43l21.21,0l-1.51,4.43l-6.76,0l0,21.99l-5.3,0l-0.01,0zm-21.17,-15.86l2.97,0c0.91,0 1.37,0 1.83,-0.14c1.23,-0.37 2.01,-1.46 2.01,-2.97c0,-1.78 -0.82,-2.56 -2.01,-2.93c-0.5,-0.14 -1.01,-0.18 -2.01,-0.18l-2.79,0l0,6.22zm0.05,4.57l0,6.95l3.66,0c1.1,0 2.1,-0.09 2.83,-0.78c0.73,-0.69 1.05,-1.55 1.05,-2.7c0,-0.87 -0.23,-1.69 -0.69,-2.29c-0.78,-0.96 -1.74,-1.19 -3.38,-1.19l-3.47,0l0,0.01zm8.46,-2.79l0,0.09c1.01,0.37 1.97,1.01 2.47,1.42c1.55,1.28 2.24,2.97 2.24,5.17c0,3.61 -1.92,6.22 -5.07,7.04c-0.96,0.27 -1.97,0.37 -3.84,0.37l-9.55,0l0,-26.42l8.46,0c1.74,0 2.93,0.09 3.98,0.37c3.06,0.82 5.07,2.93 5.07,6.26c0,1.78 -0.64,3.29 -1.69,4.3c-0.46,0.46 -1.1,1.01 -2.06,1.42l-0.01,-0.02z" id="svg_2"/>
 </g>
</svg>