<?xml version="1.0"?>
<svg width="251" height="172" xmlns="http://www.w3.org/2000/svg" xmlns:svg="http://www.w3.org/2000/svg" enable-background="new 0 0 278.434375 178.2" version="1.1" xml:space="preserve">
 <style type="text/css">
  <![CDATA[
	.st0{fill-rule:evenodd;clip-rule:evenodd;fill:url(#SVGID_1_);}
	.st1{fill-rule:evenodd;clip-rule:evenodd;fill:url(#SVGID_2_);}
	.st2{fill-rule:evenodd;clip-rule:evenodd;fill:url(#SVGID_3_);}
	.st3{fill-rule:evenodd;clip-rule:evenodd;fill:url(#SVGID_4_);}
	.st4{fill-rule:evenodd;clip-rule:evenodd;fill:url(#SVGID_5_);}
	.st5{fill-rule:evenodd;clip-rule:evenodd;fill:url(#SVGID_6_);}
	.st6{fill-rule:evenodd;clip-rule:evenodd;fill:url(#SVGID_7_);}
	.st7{fill-rule:evenodd;clip-rule:evenodd;fill:url(#SVGID_8_);}
	.st8{fill-rule:evenodd;clip-rule:evenodd;fill:url(#SVGID_9_);}
]]>
 </style>
 <style type="text/css">.title{fill:#005680;}.slogan{fill:#005680;}</style>
 <g class="layer">
  <title>Layer 1</title>
  <g id="svg_1" transform="translate(-12.39 0.01) scale(3.01227 3.01227) matrix(1 0 0 1 24.5723 0)">
   <g id="svg_2">
    <linearGradient gradientUnits="userSpaceOnUse" id="SVGID_1_" x1="12.51" x2="25.58" y1="8.64" y2="24.77">
     <stop offset="0.01" stop-color="#17b3e8"/>
     <stop offset="1" stop-color="#005680"/>
    </linearGradient>
    <path class="st0" d="m36.21,14.08c-0.13,-0.33 -0.28,-0.65 -0.44,-0.97c0.28,-0.38 0.45,-0.85 0.45,-1.36c0,-0.97 -0.62,-1.81 -1.5,-2.12c-0.09,-0.65 -0.26,-1.26 -0.5,-1.85c-0.77,-1.86 -2.24,-3.33 -4.1,-4.1c-0.89,-0.37 -1.87,-0.57 -2.89,-0.57c-0.46,0 -0.92,0.04 -1.38,0.12c-0.9,-0.98 -1.99,-1.76 -3.18,-2.31c-3.55,-1.64 -7.77,-1.05 -10.79,1.42c-1.11,0.91 -2.04,2.06 -2.67,3.37c-0.13,-0.02 -0.26,-0.04 -0.39,-0.04c-1.25,0 -2.26,1.01 -2.26,2.26c0,0.09 0.01,0.17 0.02,0.26c-1.55,0.57 -2.9,1.51 -3.98,2.71c-1.63,1.84 -2.6,4.27 -2.6,6.88c0,2.01 0.6,3.95 1.71,5.62c0.75,1.11 1.68,2.05 2.8,2.79c1.66,1.12 3.61,1.71 5.61,1.71l2.72,0c0.94,0 1.7,-0.76 1.7,-1.7c0,-0.96 0,-1.93 0,-2.89l2.67,0c0.34,0 0.66,0.14 0.89,0.37s0.37,0.55 0.37,0.89l0,3.98c-0.88,0.3 -1.52,1.14 -1.52,2.13c0,1.24 1.01,2.25 2.26,2.25s2.25,-1.01 2.25,-2.25c0,-0.99 -0.63,-1.83 -1.51,-2.13l0,-3.98c0,-0.75 -0.31,-1.44 -0.81,-1.94c-0.49,-0.49 -1.18,-0.8 -1.93,-0.8l-2.67,0l0,-3.81l0,-4.46c0.89,-0.3 1.52,-1.14 1.52,-2.12c0,-1.25 -1.01,-2.26 -2.26,-2.26c-1.24,0 -2.25,1.01 -2.25,2.26c0,0.98 0.63,1.82 1.51,2.12l0,4.46l0,3.85l-2.66,0c-0.35,0 -0.66,-0.15 -0.89,-0.37c-0.23,-0.23 -0.37,-0.55 -0.37,-0.89l0,-2.21c0.86,-0.32 1.47,-1.15 1.47,-2.11c0,-1.25 -1.01,-2.26 -2.25,-2.26s-2.26,1.01 -2.26,2.26c0,1 0.65,1.85 1.56,2.14l0,2.18c0,0.75 0.31,1.44 0.8,1.94c0.5,0.49 1.19,0.8 1.94,0.8l2.66,0l0,3.07l-2.94,0c-1.7,0 -3.37,-0.5 -4.79,-1.45c-0.94,-0.63 -1.76,-1.46 -2.39,-2.39c-0.95,-1.42 -1.46,-3.09 -1.46,-4.8c0,-2.24 0.83,-4.32 2.23,-5.89c0.94,-1.06 2.14,-1.89 3.52,-2.36c0.4,0.4 0.97,0.65 1.59,0.65c1.24,0 2.25,-1.01 2.25,-2.25c0,-0.58 -0.21,-1.1 -0.57,-1.5c0.54,-1.15 1.34,-2.15 2.31,-2.94c2.59,-2.11 6.21,-2.62 9.24,-1.23c1.41,0.65 2.32,1.49 3.27,2.62l0.44,-0.11c0.48,-0.12 0.98,-0.18 1.47,-0.18c0.83,0 1.61,0.16 2.33,0.46c1.48,0.61 2.68,1.81 3.29,3.29c0.17,0.41 0.3,0.84 0.37,1.29c-0.88,0.3 -1.51,1.14 -1.51,2.12c0,1.25 1.01,2.26 2.25,2.26c0.2,0 0.39,-0.03 0.57,-0.07c0.11,0.22 0.21,0.45 0.3,0.69c0.61,1.53 0.76,3.21 0.44,4.84c-0.11,0.56 -0.28,1.1 -0.49,1.61c-0.44,1.06 -1.07,2 -1.88,2.81c-0.8,0.8 -1.75,1.44 -2.81,1.88c-1.79,0.74 -3.75,0.72 -5.69,0.68l0,-3.1l0.89,0c0.75,0 1.44,-0.31 1.93,-0.8c0.5,-0.5 0.81,-1.19 0.81,-1.94l0,-5.18c0.89,-0.3 1.52,-1.14 1.52,-2.13c0,-1.25 -1.01,-2.26 -2.25,-2.26s-2.26,1.01 -2.26,2.26c0,0.98 0.63,1.81 1.51,2.12l0,5.19c0,0.34 -0.15,0.66 -0.37,0.89s-0.55,0.37 -0.89,0.37l-0.89,0l0,-2.55c0,-0.93 -0.76,-1.7 -1.7,-1.7l-0.66,0c-0.35,0 -0.67,-0.14 -0.89,-0.37s-0.37,-0.54 -0.37,-0.89l0,-5.18c0.88,-0.31 1.51,-1.14 1.51,-2.13c0,-1.24 -1.01,-2.25 -2.26,-2.25c-1.24,0 -2.25,1.01 -2.25,2.25c0,0.99 0.63,1.82 1.51,2.13l0,5.18c0,0.76 0.31,1.44 0.81,1.94c0.49,0.49 1.18,0.8 1.94,0.8l0.88,0l0,2.77l0,0.74c0,1.2 0,2.41 0,3.61c0,0.93 0.75,1.69 1.68,1.71c2.06,0.02 4.12,0.01 6.06,-0.8c1.24,-0.51 2.36,-1.27 3.29,-2.2c1.4,-1.4 2.39,-3.22 2.77,-5.18c0.38,-1.89 0.2,-3.88 -0.51,-5.67zm-17,15.57c0.57,0 1.03,0.46 1.03,1.03s-0.46,1.03 -1.03,1.03s-1.03,-0.46 -1.03,-1.03s0.46,-1.03 1.03,-1.03zm-6.43,-18.21c0,-0.57 0.46,-1.03 1.02,-1.03s1.03,0.46 1.03,1.03s-0.46,1.02 -1.03,1.02s-1.02,-0.46 -1.02,-1.02zm-4.42,5.88c-0.57,0 -1.03,-0.46 -1.03,-1.03s0.46,-1.03 1.03,-1.03s1.02,0.46 1.02,1.03s-0.46,1.03 -1.02,1.03zm0.46,-8.36c-0.57,0 -1.03,-0.46 -1.03,-1.03s0.46,-1.03 1.03,-1.03s1.03,0.46 1.03,1.03s-0.46,1.03 -1.03,1.03zm25.15,3.82c-0.57,0 -1.03,-0.46 -1.03,-1.03s0.46,-1.03 1.03,-1.03c0.56,0 1.02,0.47 1.02,1.03s-0.46,1.03 -1.02,1.03zm-7.7,0.52c0,-0.57 0.46,-1.03 1.03,-1.03s1.03,0.46 1.03,1.03c0,0.57 -0.46,1.03 -1.03,1.03s-1.03,-0.46 -1.03,-1.03zm-6.24,-3.22c-0.56,0 -1.03,-0.46 -1.03,-1.03s0.47,-1.03 1.03,-1.03s1.03,0.46 1.03,1.03s-0.46,1.03 -1.03,1.03z" id="svg_3"/>
   </g>
  </g>
  <g id="svg_4" transform="translate(-12.39 0.01) scale(0.0197754 0.0197754) matrix(1 0 0 1 485.452 6988.48)">
   <path class="title" d="m1027,901c0,-72.67 -11.34,-137 -34,-193s-55.67,-103.17 -99,-141.5s-96.5,-67.5 -159.5,-87.5s-137.17,-30 -222.5,-30l-108,0l0,-413c0,-6.66 -2.17,-12.67 -6.5,-18s-11.5,-9.66 -21.5,-13s-23.34,-6 -40,-8s-38,-3 -64,-3c-25.34,0 -46.5,1 -63.5,3s-30.5,4.67 -40.5,8s-17,7.67 -21,13s-6,11.33 -6,18l0,1164c0,31.34 8.16,54.84 24.5,70.5s37.83,23.5 64.5,23.5l305,0c30.66,0 59.83,-1.16 87.5,-3.5s60.83,-7.33 99.5,-15s77.83,-21.83 117.5,-42.5s73.5,-46.83 101.5,-78.5s49.33,-68.67 64,-111s22,-89.83 22,-142.5zm-275,-19c0,45.33 -8,82.67 -24,112s-35.67,51.01 -59,65.01s-47.84,22.83 -73.5,26.5s-52.17,5.5 -79.5,5.5l-112,0l0,-439l118,0c42,0 77.16,5.66 105.5,17s51.5,27.16 69.5,47.49s31.66,44.67 41,73s14,59.17 14,92.5z" id="svg_5" transform="translate(0,0) rotate(180) scale(-1, 1)"/>
   <path class="title" d="m1101,34c0,-7.33 -1.34,-13.5 -4,-18.5s-9,-9.17 -19,-12.5s-24.67,-5.67 -44,-7s-45.67,-2 -79,-2c-28,0 -50.33,0.67 -67,2s-29.84,3.83 -39.5,7.5s-16.5,8.33 -20.5,14s-7.34,12.5 -10,20.5l-116,289c-14,32.67 -27.67,61.67 -41,87s-28.17,46.5 -44.5,63.5s-35.17,29.83 -56.5,38.5s-46,13 -74,13l-82,0l0,-493c0,-6.67 -2.17,-12.67 -6.5,-18s-11.5,-9.67 -21.5,-13s-23.33,-6 -40,-8s-38,-3 -64,-3c-25.33,0 -46.5,1 -63.5,3s-30.5,4.67 -40.5,8s-17,7.67 -21,13s-6,11.33 -6,18l0,1175c0,29.33 7.5,50.5 22.5,63.5s33.5,19.5 55.5,19.5l335,0c34,0 62,-0.67 84,-2s42,-3 60,-5c52,-7.33 98.83,-20 140.5,-38s77,-41.5 106,-70.5s51.17,-63.33 66.5,-103s23,-85.17 23,-136.5c0,-43.33 -5.5,-82.83 -16.5,-118.5s-27.17,-67.5 -48.5,-95.5s-47.67,-52.33 -79,-73s-67,-37.33 -107,-50c19.33,-9.33 37.5,-20.67 54.5,-34s33,-29.5 48,-48.5s29.17,-40.67 42.5,-65s26.33,-51.83 39,-82.5l109,-255c10,-25.33 16.67,-43.83 20,-55.5s5,-20.83 5,-27.5zm-339,878c0,42.67 -9.67,78.67 -29,108s-51,50 -95,62c-13.34,3.33 -28.5,6 -45.5,8s-40.5,3 -70.5,3l-118,0l0,-367l134,0c37.33,0 70,4.5 98,13.5s51.33,21.67 70,38s32.66,35.83 42,58.5s14,48 14,76z" id="svg_6" transform="translate(1090,0) rotate(180) scale(-1, 1)"/>
   <path class="title" d="m1305,662c0,-107.33 -13.33,-203.34 -40,-288s-66.34,-156.5 -119,-215.5s-117.84,-104 -195.5,-135s-167.5,-46.5 -269.5,-46.5c-100.67,0 -188.5,13.16 -263.5,39.5s-137.5,66.5 -187.5,120.5s-87.5,122.66 -112.5,206s-37.5,182 -37.5,296c0,104.67 13.33,198.83 40,282.5s66.33,154.83 119,213.5s117.83,103.67 195.5,135s167.83,47 270.5,47c98,0 184.5,-13 259.5,-39s137.67,-66 188,-120s88.33,-122.17 114,-204.5s38.5,-179.5 38.5,-291.5zm-276,-14c0,68 -5.33,129.83 -16,185.5s-28.83,103.33 -54.5,143s-59.83,70.33 -102.5,92s-96,32.5 -160,32.5c-64.67,0 -118.67,-12.17 -162,-36.5s-78.33,-56.83 -105,-97.5s-45.5,-88.17 -56.5,-142.5s-16.5,-111.83 -16.5,-172.5c0,-70.67 5.33,-134.17 16,-190.5s28.67,-104.5 54,-144.5s59.33,-70.5 102,-91.5s96.33,-31.5 161,-31.5s118.67,12 162,36s78.33,56.67 105,98s45.5,89.5 56.5,144.5s16.5,113.5 16.5,175.5z" id="svg_7" transform="translate(2243,0) rotate(180) scale(-1, 1)"/>
   <path class="title" d="m944,100c0,-18.67 -1,-34.5 -3,-47.5s-4.83,-23.33 -8.5,-31s-7.84,-13.17 -12.5,-16.5s-10,-5 -16,-5l-714,0c-5.34,0 -10.34,1.67 -15,5s-8.84,8.83 -12.5,16.5s-6.5,18 -8.5,31s-3,28.83 -3,47.5c0,19.33 0.83,35.5 2.5,48.5s4.33,23.5 8,31.5s7.83,13.83 12.5,17.5s10,5.5 16,5.5l241,0l0,842l-208,-115c-15.33,-7.33 -27.83,-11.83 -37.5,-13.5s-17.34,0.33 -23,6s-9.5,15.5 -11.5,29.5s-3,33.67 -3,59c0,16 0.33,29.17 1,39.5s2.33,19.17 5,26.5s6.33,13.33 11,18s11,9.67 19,15l278,180c3.33,2.67 7.5,4.83 12.5,6.5s11.5,3 19.5,4s18.5,1.67 31.5,2s29.83,0.5 50.5,0.5c25.33,0 45.83,-0.5 61.5,-1.5s27.5,-2.67 35.5,-5s13.33,-5.5 16,-9.5s4,-9 4,-15l0,-1069l211,0c6,0 11.5,-1.83 16.5,-5.5s9.33,-9.5 13,-17.5s6.33,-18.5 8,-31.5s2.5,-29.17 2.5,-48.5z" id="svg_8" transform="translate(3628,0) rotate(180) scale(-1, 1)"/>
   <path class="title" d="m982,652c0,-103.33 -8.33,-196.67 -25,-280s-43.83,-154.34 -81.5,-213s-86.67,-103.67 -147,-135s-134.17,-47 -221.5,-47c-88.67,0 -162,15.16 -220,45.5s-104,74 -138,131s-57.83,126.66 -71.5,209s-20.5,175.5 -20.5,279.5c0,102.67 8.5,195.83 25.5,279.5s44.33,154.83 82,213.5s86.67,103.67 147,135s133.83,47 220.5,47c88.67,0 162.17,-15.17 220.5,-45.5s104.5,-74 138.5,-131s57.67,-126.67 71,-209s20,-175.5 20,-279.5zm-265,-13c0,61.33 -1.67,115.5 -5,162.5s-8.5,87.83 -15.5,122.5s-15.67,64 -26,88s-22.83,43.16 -37.5,57.5s-31.33,24.5 -50,30.5s-39.33,9 -62,9c-39.33,0 -71.83,-9.5 -97.5,-28.5s-46,-47.5 -61,-85.5s-25.5,-85.33 -31.5,-142s-9,-122.67 -9,-198c0,-92 3.67,-168.17 11,-228.5s18.83,-108.33 34.5,-144s35.83,-60.67 60.5,-75s54.33,-21.5 89,-21.5c26,0 49,4.16 69,12.5s37.5,20.83 52.5,37.5s27.5,37.67 37.5,63s18.17,54.66 24.5,88s10.67,71 13,113s3.5,88.33 3.5,139z" id="svg_9" transform="translate(4666,0) rotate(180) scale(-1, 1)"/>
   <path class="title" d="m982,652c0,-103.33 -8.33,-196.67 -25,-280s-43.83,-154.34 -81.5,-213s-86.67,-103.67 -147,-135s-134.17,-47 -221.5,-47c-88.67,0 -162,15.16 -220,45.5s-104,74 -138,131s-57.83,126.66 -71.5,209s-20.5,175.5 -20.5,279.5c0,102.67 8.5,195.83 25.5,279.5s44.33,154.83 82,213.5s86.67,103.67 147,135s133.83,47 220.5,47c88.67,0 162.17,-15.17 220.5,-45.5s104.5,-74 138.5,-131s57.67,-126.67 71,-209s20,-175.5 20,-279.5zm-265,-13c0,61.33 -1.67,115.5 -5,162.5s-8.5,87.83 -15.5,122.5s-15.67,64 -26,88s-22.83,43.16 -37.5,57.5s-31.33,24.5 -50,30.5s-39.33,9 -62,9c-39.33,0 -71.83,-9.5 -97.5,-28.5s-46,-47.5 -61,-85.5s-25.5,-85.33 -31.5,-142s-9,-122.67 -9,-198c0,-92 3.67,-168.17 11,-228.5s18.83,-108.33 34.5,-144s35.83,-60.67 60.5,-75s54.33,-21.5 89,-21.5c26,0 49,4.16 69,12.5s37.5,20.83 52.5,37.5s27.5,37.67 37.5,63s18.17,54.66 24.5,88s10.67,71 13,113s3.5,88.33 3.5,139z" id="svg_10" transform="translate(5704,0) rotate(180) scale(-1, 1)"/>
   <path class="title" d="m1101,34c0,-7.33 -1.34,-13.5 -4,-18.5s-9,-9.17 -19,-12.5s-24.67,-5.67 -44,-7s-45.67,-2 -79,-2c-28,0 -50.33,0.67 -67,2s-29.84,3.83 -39.5,7.5s-16.5,8.33 -20.5,14s-7.34,12.5 -10,20.5l-116,289c-14,32.67 -27.67,61.67 -41,87s-28.17,46.5 -44.5,63.5s-35.17,29.83 -56.5,38.5s-46,13 -74,13l-82,0l0,-493c0,-6.67 -2.17,-12.67 -6.5,-18s-11.5,-9.67 -21.5,-13s-23.33,-6 -40,-8s-38,-3 -64,-3c-25.33,0 -46.5,1 -63.5,3s-30.5,4.67 -40.5,8s-17,7.67 -21,13s-6,11.33 -6,18l0,1175c0,29.33 7.5,50.5 22.5,63.5s33.5,19.5 55.5,19.5l335,0c34,0 62,-0.67 84,-2s42,-3 60,-5c52,-7.33 98.83,-20 140.5,-38s77,-41.5 106,-70.5s51.17,-63.33 66.5,-103s23,-85.17 23,-136.5c0,-43.33 -5.5,-82.83 -16.5,-118.5s-27.17,-67.5 -48.5,-95.5s-47.67,-52.33 -79,-73s-67,-37.33 -107,-50c19.33,-9.33 37.5,-20.67 54.5,-34s33,-29.5 48,-48.5s29.17,-40.67 42.5,-65s26.33,-51.83 39,-82.5l109,-255c10,-25.33 16.67,-43.83 20,-55.5s5,-20.83 5,-27.5zm-339,878c0,42.67 -9.67,78.67 -29,108s-51,50 -95,62c-13.34,3.33 -28.5,6 -45.5,8s-40.5,3 -70.5,3l-118,0l0,-367l134,0c37.33,0 70,4.5 98,13.5s51.33,21.67 70,38s32.66,35.83 42,58.5s14,48 14,76z" id="svg_11" transform="translate(6742,0) rotate(180) scale(-1, 1)"/>
   <path class="title" d="m1305,662c0,-107.33 -13.33,-203.34 -40,-288s-66.34,-156.5 -119,-215.5s-117.84,-104 -195.5,-135s-167.5,-46.5 -269.5,-46.5c-100.67,0 -188.5,13.16 -263.5,39.5s-137.5,66.5 -187.5,120.5s-87.5,122.66 -112.5,206s-37.5,182 -37.5,296c0,104.67 13.33,198.83 40,282.5s66.33,154.83 119,213.5s117.83,103.67 195.5,135s167.83,47 270.5,47c98,0 184.5,-13 259.5,-39s137.67,-66 188,-120s88.33,-122.17 114,-204.5s38.5,-179.5 38.5,-291.5zm-276,-14c0,68 -5.33,129.83 -16,185.5s-28.83,103.33 -54.5,143s-59.83,70.33 -102.5,92s-96,32.5 -160,32.5c-64.67,0 -118.67,-12.17 -162,-36.5s-78.33,-56.83 -105,-97.5s-45.5,-88.17 -56.5,-142.5s-16.5,-111.83 -16.5,-172.5c0,-70.67 5.33,-134.17 16,-190.5s28.67,-104.5 54,-144.5s59.33,-70.5 102,-91.5s96.33,-31.5 161,-31.5s118.67,12 162,36s78.33,56.67 105,98s45.5,89.5 56.5,144.5s16.5,113.5 16.5,175.5z" id="svg_12" transform="translate(7895,0) rotate(180) scale(-1, 1)"/>
   <path class="title" d="m1078,388c0,-46 -6.33,-87.67 -19,-125s-30.17,-70.33 -52.5,-99s-49,-53.33 -80,-74s-65.17,-37.67 -102.5,-51s-77.17,-23.17 -119.5,-29.5s-89.5,-9.5 -141.5,-9.5l-344,0c-22,0 -40.5,6.5 -55.5,19.5s-22.5,34.17 -22.5,63.5l0,1128c0,29.33 7.5,50.5 22.5,63.5s33.5,19.5 55.5,19.5l325,0c79.33,0 146.5,-6.67 201.5,-20s101.33,-33.5 139,-60.5s66.5,-61.17 86.5,-102.5s30,-90 30,-146c0,-31.33 -4,-60.83 -12,-88.5s-19.67,-52.83 -35,-75.5s-34.17,-42.67 -56.5,-60s-47.83,-31.33 -76.5,-42c36.67,-6.67 70.5,-18.33 101.5,-35s58,-38.17 81,-64.5s41.17,-57.17 54.5,-92.5s20,-75 20,-119zm-340,545c0,26 -4,49.33 -12,70s-20,37.83 -36,51.5s-36.17,24.17 -60.5,31.5s-56.83,11 -97.5,11l-133,0l0,-336l147,0c38,0 68.33,4.5 91,13.5s41.5,21.33 56.5,37s26.17,34 33.5,55s11,43.17 11,66.5zm67,-554c0,30 -5,56.83 -15,80.5s-24.67,43.5 -44,59.5s-44,28.33 -74,37s-69,13 -117,13l-156,0l0,-368l190,0c36.67,0 67.5,3.83 92.5,11.5s46.67,19 65,34s32.66,33.67 43,56s15.5,47.83 15.5,76.5z" id="svg_13" transform="translate(9280,0) rotate(180) scale(-1, 1)"/>
   <path class="title" d="m1305,662c0,-107.33 -13.33,-203.34 -40,-288s-66.34,-156.5 -119,-215.5s-117.84,-104 -195.5,-135s-167.5,-46.5 -269.5,-46.5c-100.67,0 -188.5,13.16 -263.5,39.5s-137.5,66.5 -187.5,120.5s-87.5,122.66 -112.5,206s-37.5,182 -37.5,296c0,104.67 13.33,198.83 40,282.5s66.33,154.83 119,213.5s117.83,103.67 195.5,135s167.83,47 270.5,47c98,0 184.5,-13 259.5,-39s137.67,-66 188,-120s88.33,-122.17 114,-204.5s38.5,-179.5 38.5,-291.5zm-276,-14c0,68 -5.33,129.83 -16,185.5s-28.83,103.33 -54.5,143s-59.83,70.33 -102.5,92s-96,32.5 -160,32.5c-64.67,0 -118.67,-12.17 -162,-36.5s-78.33,-56.83 -105,-97.5s-45.5,-88.17 -56.5,-142.5s-16.5,-111.83 -16.5,-172.5c0,-70.67 5.33,-134.17 16,-190.5s28.67,-104.5 54,-144.5s59.33,-70.5 102,-91.5s96.33,-31.5 161,-31.5s118.67,12 162,36s78.33,56.67 105,98s45.5,89.5 56.5,144.5s16.5,113.5 16.5,175.5z" id="svg_14" transform="translate(10428,0) rotate(180) scale(-1, 1)"/>
   <path class="title" d="m1002,1186c0,-19.33 -0.83,-35.83 -2.5,-49.5s-4.17,-24.67 -7.5,-33s-7.5,-14.5 -12.5,-18.5s-10.5,-6 -16.5,-6l-324,0l0,-1043c0,-6.67 -2.17,-12.67 -6.5,-18s-11.5,-9.67 -21.5,-13s-23.5,-6 -40.5,-8s-38.17,-3 -63.5,-3s-46.5,1 -63.5,3s-30.5,4.67 -40.5,8s-17.17,7.67 -21.5,13s-6.5,11.33 -6.5,18l0,1043l-324,0c-6.67,0 -12.33,2 -17,6s-8.67,10.17 -12,18.5s-5.83,19.33 -7.5,33s-2.5,30.17 -2.5,49.5c0,20 0.83,37 2.5,51s4.17,25.17 7.5,33.5s7.33,14.33 12,18s10.33,5.5 17,5.5l912,0c6,0 11.5,-1.83 16.5,-5.5s9.17,-9.67 12.5,-18s5.83,-19.5 7.5,-33.5s2.5,-31 2.5,-51z" id="svg_15" transform="translate(11813,0) rotate(180) scale(-1, 1)"/>
  </g>
  <g id="svg_16" transform="translate(-12.39 0.01) scale(0.0117188 0.0117188) matrix(1 0 0 1 2066.53 14353.1)">
   <path class="slogan" d="m1101,25c0,-5.33 -1.33,-9.83 -4,-13.5s-7.33,-6.83 -14,-9.5s-15.5,-4.67 -26.5,-6s-24.83,-2 -41.5,-2c-16,0 -29.67,0.67 -41,2s-20.17,3.33 -26.5,6s-11,5.83 -14,9.5s-4.5,8.17 -4.5,13.5l0,1120l-585,0l0,-1120c0,-5.33 -1.5,-9.83 -4.5,-13.5s-7.67,-6.83 -14,-9.5s-15,-4.67 -26,-6s-24.83,-2 -41.5,-2s-30.5,0.67 -41.5,2s-19.83,3.33 -26.5,6s-11.33,5.83 -14,9.5s-4,8.17 -4,13.5l0,1199c0,23.33 5.83,40.83 17.5,52.5s26.5,17.5 44.5,17.5l807,0c18.67,0 33.33,-5.83 44,-17.5s16,-29.17 16,-52.5l0,-1199z" id="svg_17" transform="translate(0,0) rotate(180) scale(-1, 1)"/>
   <path class="slogan" d="m990,485c0,-73.33 -9.67,-140.83 -29,-202.5s-48.17,-114.83 -86.5,-159.5s-86.33,-79.5 -144,-104.5s-124.5,-37.5 -200.5,-37.5c-74,0 -138.5,11 -193.5,33s-100.83,54 -137.5,96s-64,93 -82,153s-27,128 -27,204c0,73.33 9.5,140.83 28.5,202.5s47.67,114.83 86,159.5s86.17,79.33 143.5,104s124.33,37 201,37c74,0 138.5,-11 193.5,-33s100.83,-54 137.5,-96s64.17,-93 82.5,-153s27.5,-127.67 27.5,-203zm-174,-11c0,48.67 -4.5,94.66 -13.5,138s-23.83,81.33 -44.5,114s-48.67,58.5 -84,77.5s-79.33,28.5 -132,28.5c-48.67,0 -90.5,-8.67 -125.5,-26s-63.83,-41.83 -86.5,-73.5s-39.5,-69.17 -50.5,-112.5s-16.5,-90.67 -16.5,-142c0,-49.33 4.5,-95.67 13.5,-139s24,-81.17 45,-113.5s49.17,-58 84.5,-77s79.33,-28.5 132,-28.5c48,0 89.67,8.67 125,26s64.33,41.67 87,73s39.33,68.67 50,112s16,91 16,143z" id="svg_18" transform="translate(1273,0) rotate(180) scale(-1, 1)"/>
   <path class="slogan" d="m981,489c0,-78.67 -8.5,-149.33 -25.5,-212s-42,-115.83 -75,-159.5s-73.83,-77.33 -122.5,-101s-104.33,-35.5 -167,-35.5c-26.66,0 -51.33,2.67 -74,8s-44.83,13.67 -66.5,25s-43.17,25.67 -64.5,43s-44,37.66 -68,61l0,-450c0,-5.34 -1.33,-10 -4,-14s-7,-7.34 -13,-10s-14.33,-4.67 -25,-6s-24.33,-2 -41,-2c-16,0 -29.33,0.66 -40,2s-19.17,3.33 -25.5,6s-10.67,6 -13,10s-3.5,8.66 -3.5,14l0,1257c0,6 1,10.83 3,14.5s6,6.83 12,9.5s13.67,4.5 23,5.5s20.67,1.5 34,1.5c14,0 25.5,-0.5 34.5,-1.5s16.5,-2.83 22.5,-5.5s10.17,-5.83 12.5,-9.5s3.5,-8.5 3.5,-14.5l0,-121c27.33,28 53.67,52.33 79,73s50.83,37.83 76.5,51.5s52,24 79,31s55.5,10.5 85.5,10.5c65.33,0 121,-12.67 167,-38s83.5,-60 112.5,-104s50.17,-95.17 63.5,-153.5s20,-120.17 20,-185.5zm-174,-19c0,46 -3.5,90.5 -10.5,133.5s-19,81.17 -36,114.5s-39.83,60 -68.5,80s-64.33,30 -107,30c-21.33,0 -42.33,-3.16 -63,-9.5s-41.66,-16.33 -63,-30s-43.66,-31.66 -67,-54s-48,-49.83 -74,-82.5l0,-358c45.34,-55.33 88.34,-97.66 129,-126.99s83.34,-44 128,-44c41.34,0 76.84,10 106.5,30s53.67,46.66 72,80s31.84,70.66 40.5,111.99s13,83 13,125z" id="svg_19" transform="translate(2353,0) rotate(180) scale(-1, 1)"/>
   <path class="slogan" d="m563,0l-120,-331c-4,-10.67 -14.16,-18.83 -30.5,-24.5s-41.16,-8.5 -74.5,-8.5c-17.33,0 -31.33,0.83 -42,2.5s-18.83,4.5 -24.5,8.5s-8.83,9.33 -9.5,16s1,14.67 5,24l124,313c-6,2.66 -11.67,7 -17,13s-9,12.33 -11,19l-321,860c-5.33,14 -8,25 -8,33s2.67,14.33 8,19s14,7.83 26,9.5s28,2.5 48,2.5s35.67,-0.5 47,-1.5s20.33,-2.83 27,-5.5s11.5,-6.5 14.5,-11.5s6.17,-11.83 9.5,-20.5l257,-722l3,0l248,726c4,12.67 8.83,20.83 14.5,24.5s14.17,6.33 25.5,8s27.67,2.5 49,2.5c18.67,0 34,-0.83 46,-2.5s20.83,-4.83 26.5,-9.5s8.5,-11 8.5,-19s-2,-18 -6,-30l-323,-895z" id="svg_20" transform="translate(3429,0) rotate(180) scale(-1, 1)"/>
   <path class="slogan" d="m807,25c0,-5.33 -1.33,-9.83 -4,-13.5s-7,-6.83 -13,-9.5s-14.33,-4.67 -25,-6s-24,-2 -40,-2s-29.5,0.67 -40.5,2s-19.67,3.33 -26,6s-10.67,5.83 -13,9.5s-3.5,8.17 -3.5,13.5l0,362c-37.33,-16.67 -76.83,-29.83 -118.5,-39.5s-86.83,-14.5 -135.5,-14.5c-62,0 -113.67,8 -155,24s-74.33,38 -99,66s-42.17,61.33 -52.5,100s-15.5,87.33 -15.5,146l0,256c0,5.33 1.17,9.83 3.5,13.5s6.83,7 13.5,10s15.17,5 25.5,6s23.5,1.5 39.5,1.5c16.67,0 30.33,-0.5 41,-1.5s19,-3 25,-6s10.5,-6.33 13.5,-10s4.5,-8.17 4.5,-13.5l0,-230c0,-54 4,-94.33 12,-121s19.67,-47.83 35,-63.5s34.17,-26.67 56.5,-33s48.5,-9.5 78.5,-9.5c39.33,0 77.83,5 115.5,15s75.17,24.33 112.5,43l0,399c0,5.33 1.17,9.83 3.5,13.5s6.67,7 13,10s15,5 26,6s24.5,1.5 40.5,1.5s29.33,-0.5 40,-1.5s19,-3 25,-6s10.33,-6.33 13,-10s4,-8.17 4,-13.5l0,-900z" id="svg_21" transform="translate(4356,0) rotate(180) scale(-1, 1)"/>
   <path class="slogan" d="m954,24c0,-4.67 -1.33,-9 -4,-13s-7,-7.16 -13,-9.5s-14.33,-4.16 -25,-5.5s-24,-2 -40,-2s-29.33,0.67 -40,2s-19.33,3.17 -26,5.5s-11.33,5.5 -14,9.5s-4,8.34 -4,13l0,518c0,26 0.67,52.5 2,79.5s3,53.5 5,79.5c-15.33,-26.66 -32.16,-52.83 -50.5,-78.5l-55.5,-76.5l-382,-522l-12.5,-14c-3.66,-4 -8.33,-7.17 -14,-9.5s-12.83,-4 -21.5,-5s-19.33,-1.5 -32,-1.5c-14.67,0 -26.67,0.67 -36,2s-16.83,3.17 -22.5,5.5s-9.67,5.5 -12,9.5s-3.5,8.33 -3.5,13l0,902c0,4.67 1.17,9 3.5,13s6.67,7.33 13,10s14.83,4.5 25.5,5.5s23.67,1.5 39,1.5c32,0 54,-2.5 66,-7.5s18,-12.5 18,-22.5l0,-521c0,-26 -0.67,-51.83 -2,-77.5s-3,-51.17 -5,-76.5l46.5,74.5c15.67,24.33 32.5,48.17 50.5,71.5l387,529c4,5.33 8.17,10 12.5,14s9.67,7.17 16,9.5s13.83,4 22.5,5s20,1.5 34,1.5s25.83,-0.5 35.5,-1.5s17.33,-2.83 23,-5.5s9.67,-6 12,-10s3.5,-8.67 3.5,-14l0,-901z" id="svg_22" transform="translate(5316,0) rotate(180) scale(-1, 1)"/>
   <path class="slogan" d="m981,489c0,-78.67 -8.5,-149.33 -25.5,-212s-42,-115.83 -75,-159.5s-73.83,-77.33 -122.5,-101s-104.33,-35.5 -167,-35.5c-26.66,0 -51.33,2.67 -74,8s-44.83,13.67 -66.5,25s-43.17,25.67 -64.5,43s-44,37.66 -68,61l0,-450c0,-5.34 -1.33,-10 -4,-14s-7,-7.34 -13,-10s-14.33,-4.67 -25,-6s-24.33,-2 -41,-2c-16,0 -29.33,0.66 -40,2s-19.17,3.33 -25.5,6s-10.67,6 -13,10s-3.5,8.66 -3.5,14l0,1257c0,6 1,10.83 3,14.5s6,6.83 12,9.5s13.67,4.5 23,5.5s20.67,1.5 34,1.5c14,0 25.5,-0.5 34.5,-1.5s16.5,-2.83 22.5,-5.5s10.17,-5.83 12.5,-9.5s3.5,-8.5 3.5,-14.5l0,-121c27.33,28 53.67,52.33 79,73s50.83,37.83 76.5,51.5s52,24 79,31s55.5,10.5 85.5,10.5c65.33,0 121,-12.67 167,-38s83.5,-60 112.5,-104s50.17,-95.17 63.5,-153.5s20,-120.17 20,-185.5zm-174,-19c0,46 -3.5,90.5 -10.5,133.5s-19,81.17 -36,114.5s-39.83,60 -68.5,80s-64.33,30 -107,30c-21.33,0 -42.33,-3.16 -63,-9.5s-41.66,-16.33 -63,-30s-43.66,-31.66 -67,-54s-48,-49.83 -74,-82.5l0,-358c45.34,-55.33 88.34,-97.66 129,-126.99s83.34,-44 128,-44c41.34,0 76.84,10 106.5,30s53.67,46.66 72,80s31.84,70.66 40.5,111.99s13,83 13,125z" id="svg_23" transform="translate(6886,0) rotate(180) scale(-1, 1)"/>
   <path class="slogan" d="m831,24c0,-8 -2.67,-14 -8.01,-18s-12.66,-7 -22,-9s-23,-3 -41,-3c-17.33,0 -31.16,1 -41.5,3s-17.83,5 -22.5,9s-7,10 -7,18l0,90c-39.33,-42 -83.16,-74.67 -131.49,-98s-99.5,-35 -153.5,-35c-47.34,0 -90.17,6.16 -128.5,18.5s-71,30.16 -98,53.5s-48,52 -63,86s-22.5,72.66 -22.5,116c0,50.66 10.33,94.66 31,132s50.33,68.33 89,93s86,43.16 142,55.5s119,18.5 189,18.5l124,0l0,70c0,34.66 -3.67,65.33 -11,92s-19.17,48.83 -35.5,66.5s-37.5,31 -63.5,40s-58,13.5 -96,13.5c-40.67,0 -77.17,-4.83 -109.5,-14.5s-60.67,-20.33 -85,-32s-44.67,-22.34 -61,-32s-28.5,-14.5 -36.5,-14.5c-5.33,0 -10,1.33 -14,4s-7.5,6.66 -10.5,12s-5.17,12.16 -6.5,20.5s-2,17.5 -2,27.5c0,16.66 1.17,29.83 3.5,39.5s8,18.83 17,27.5s24.5,18.83 46.5,30.5s47.33,22.33 76,32s60,17.67 94,24s68.33,9.5 103,9.5c64.67,0 119.67,-7.33 165,-22s82,-36.17 110,-64.5s48.33,-63.5 61,-105.5s19,-91 19,-147l0,-607zm-164.01,411l-141,0c-45.33,0 -84.67,-3.83 -118,-11.5s-61,-19 -83,-34s-38.17,-33 -48.5,-54s-15.5,-45.17 -15.5,-72.5c0,-46.67 14.83,-83.84 44.5,-111.5s71.17,-41.5 124.5,-41.5c43.33,0 83.5,11 120.5,33s75.83,55.66 116.5,101l0,191z" id="svg_24" transform="translate(7962,0) rotate(180) scale(-1, 1)"/>
   <path class="slogan" d="m992,489c0,-75.33 -10.33,-144.01 -31,-206.01s-50.67,-115.5 -90,-160.5s-87.16,-79.83 -143.5,-104.5s-119.83,-37 -190.5,-37c-73.33,0 -136.83,11.83 -190.5,35.5s-98,59.33 -133,107s-60.83,107.34 -77.5,179s-25,155.84 -25,252.5c0,82 3.84,157.5 11.5,226.5s18.5,131 32.5,186s30.67,101.84 50,140.5s39.17,69.34 59.5,92.01s40.33,40.83 60,54.5s41.5,26.33 65.5,38s51.17,21.83 81.5,30.5s64.5,16.33 102.5,23l321,53c11.33,2 20.67,2.83 28,2.5s13,-3 17,-8s6.67,-13.17 8,-24.5s2,-27 2,-47c0,-13.33 -0.67,-24.67 -2,-34s-3.67,-17 -7,-23s-8.33,-10.67 -15,-14s-15.33,-6 -26,-8l-299,-50c-30,-4.67 -56.33,-10 -79,-16s-42.83,-12.67 -60.5,-20s-33.17,-15.5 -46.5,-24.5s-26.67,-20.5 -40,-34.5s-25.5,-31.33 -36.5,-52s-20.33,-44.17 -28,-70.5s-14,-55 -19,-86s-9.83,-64.17 -14.5,-99.5c22,23.33 45.33,44.5 70,63.5s50.67,35.17 78,48.5s56.17,23.5 86.5,30.5s62.5,10.5 96.5,10.5c64.67,0 121.17,-10.83 169.5,-32.5s88.33,-52.5 120,-92.5s55.33,-88 71,-144s23.5,-117.67 23.5,-185zm-171,-14.01c0,44 -4.17,86 -12.5,126s-21.67,75.17 -40,105.5s-43,54.67 -74,73s-69.17,27.5 -114.5,27.5c-28,0 -54.17,-3.5 -78.5,-10.5s-48.17,-17.66 -71.5,-32s-46.67,-32 -70,-53s-48.33,-45.83 -75,-74.5c-0.67,-10.66 -1,-23 -1,-37l0,-43c0,-72 4.5,-135.33 13.5,-190s23.83,-100.33 44.5,-137s48,-64.33 82,-83s75.67,-28 125,-28c43.33,0 82,8.5 116,25.5s62.5,40.83 85.5,71.5s40.5,68 52.5,112s18,93 18,147zm-821,476z" id="svg_25" transform="translate(8943,0) rotate(180) scale(-1, 1)"/>
   <path class="slogan" d="m990,485c0,-73.33 -9.67,-140.83 -29,-202.5s-48.17,-114.83 -86.5,-159.5s-86.33,-79.5 -144,-104.5s-124.5,-37.5 -200.5,-37.5c-74,0 -138.5,11 -193.5,33s-100.83,54 -137.5,96s-64,93 -82,153s-27,128 -27,204c0,73.33 9.5,140.83 28.5,202.5s47.67,114.83 86,159.5s86.17,79.33 143.5,104s124.33,37 201,37c74,0 138.5,-11 193.5,-33s100.83,-54 137.5,-96s64.17,-93 82.5,-153s27.5,-127.67 27.5,-203zm-174,-11c0,48.67 -4.5,94.66 -13.5,138s-23.83,81.33 -44.5,114s-48.67,58.5 -84,77.5s-79.33,28.5 -132,28.5c-48.67,0 -90.5,-8.67 -125.5,-26s-63.83,-41.83 -86.5,-73.5s-39.5,-69.17 -50.5,-112.5s-16.5,-90.67 -16.5,-142c0,-49.33 4.5,-95.67 13.5,-139s24,-81.17 45,-113.5s49.17,-58 84.5,-77s79.33,-28.5 132,-28.5c48,0 89.67,8.67 125,26s64.33,41.67 87,73s39.33,68.67 50,112s16,91 16,143z" id="svg_26" transform="translate(10034,0) rotate(180) scale(-1, 1)"/>
   <path class="slogan" d="m783,876c0,-13.33 -0.67,-24.67 -2,-34s-3.5,-17 -6.5,-23s-6.5,-10.5 -10.5,-13.5s-9,-4.5 -15,-4.5l-270,0l0,-776c0,-5.33 -1.33,-9.83 -4,-13.5s-7,-6.83 -13,-9.5s-14.33,-4.67 -25,-6s-24.33,-2 -41,-2c-16,0 -29.33,0.67 -40,2s-19.17,3.33 -25.5,6s-10.67,5.83 -13,9.5s-3.5,8.17 -3.5,13.5l0,776l-270,0c-5.33,0 -10.17,1.5 -14.5,4.5s-7.83,7.5 -10.5,13.5s-4.83,13.83 -6.5,23.5s-2.5,21.17 -2.5,34.5c0,12 0.83,22.67 2.5,32s4,17.17 7,23.5s6.5,11 10.5,14s8.67,4.5 14,4.5l705,0c5.33,0 10.17,-1.5 14.5,-4.5s7.83,-7.67 10.5,-14s4.83,-14.33 6.5,-24s2.5,-20.5 2.5,-32.5z" id="svg_27" transform="translate(11114,0) rotate(180) scale(-1, 1)"/>
   <path class="slogan" d="m563,0l-120,-331c-4,-10.67 -14.16,-18.83 -30.5,-24.5s-41.16,-8.5 -74.5,-8.5c-17.33,0 -31.33,0.83 -42,2.5s-18.83,4.5 -24.5,8.5s-8.83,9.33 -9.5,16s1,14.67 5,24l124,313c-6,2.66 -11.67,7 -17,13s-9,12.33 -11,19l-321,860c-5.33,14 -8,25 -8,33s2.67,14.33 8,19s14,7.83 26,9.5s28,2.5 48,2.5s35.67,-0.5 47,-1.5s20.33,-2.83 27,-5.5s11.5,-6.5 14.5,-11.5s6.17,-11.83 9.5,-20.5l257,-722l3,0l248,726c4,12.67 8.83,20.83 14.5,24.5s14.17,6.33 25.5,8s27.67,2.5 49,2.5c18.67,0 34,-0.83 46,-2.5s20.83,-4.83 26.5,-9.5s8.5,-11 8.5,-19s-2,-18 -6,-30l-323,-895z" id="svg_28" transform="translate(11907,0) rotate(180) scale(-1, 1)"/>
   <path class="slogan" d="m981,489c0,-78.67 -8.5,-149.33 -25.5,-212s-42,-115.83 -75,-159.5s-73.83,-77.33 -122.5,-101s-104.33,-35.5 -167,-35.5c-26.66,0 -51.33,2.67 -74,8s-44.83,13.67 -66.5,25s-43.17,25.67 -64.5,43s-44,37.66 -68,61l0,-450c0,-5.34 -1.33,-10 -4,-14s-7,-7.34 -13,-10s-14.33,-4.67 -25,-6s-24.33,-2 -41,-2c-16,0 -29.33,0.66 -40,2s-19.17,3.33 -25.5,6s-10.67,6 -13,10s-3.5,8.66 -3.5,14l0,1257c0,6 1,10.83 3,14.5s6,6.83 12,9.5s13.67,4.5 23,5.5s20.67,1.5 34,1.5c14,0 25.5,-0.5 34.5,-1.5s16.5,-2.83 22.5,-5.5s10.17,-5.83 12.5,-9.5s3.5,-8.5 3.5,-14.5l0,-121c27.33,28 53.67,52.33 79,73s50.83,37.83 76.5,51.5s52,24 79,31s55.5,10.5 85.5,10.5c65.33,0 121,-12.67 167,-38s83.5,-60 112.5,-104s50.17,-95.17 63.5,-153.5s20,-120.17 20,-185.5zm-174,-19c0,46 -3.5,90.5 -10.5,133.5s-19,81.17 -36,114.5s-39.83,60 -68.5,80s-64.33,30 -107,30c-21.33,0 -42.33,-3.16 -63,-9.5s-41.66,-16.33 -63,-30s-43.66,-31.66 -67,-54s-48,-49.83 -74,-82.5l0,-358c45.34,-55.33 88.34,-97.66 129,-126.99s83.34,-44 128,-44c41.34,0 76.84,10 106.5,30s53.67,46.66 72,80s31.84,70.66 40.5,111.99s13,83 13,125z" id="svg_29" transform="translate(13297,0) rotate(180) scale(-1, 1)"/>
   <path class="slogan" d="m990,485c0,-73.33 -9.67,-140.83 -29,-202.5s-48.17,-114.83 -86.5,-159.5s-86.33,-79.5 -144,-104.5s-124.5,-37.5 -200.5,-37.5c-74,0 -138.5,11 -193.5,33s-100.83,54 -137.5,96s-64,93 -82,153s-27,128 -27,204c0,73.33 9.5,140.83 28.5,202.5s47.67,114.83 86,159.5s86.17,79.33 143.5,104s124.33,37 201,37c74,0 138.5,-11 193.5,-33s100.83,-54 137.5,-96s64.17,-93 82.5,-153s27.5,-127.67 27.5,-203zm-174,-11c0,48.67 -4.5,94.66 -13.5,138s-23.83,81.33 -44.5,114s-48.67,58.5 -84,77.5s-79.33,28.5 -132,28.5c-48.67,0 -90.5,-8.67 -125.5,-26s-63.83,-41.83 -86.5,-73.5s-39.5,-69.17 -50.5,-112.5s-16.5,-90.67 -16.5,-142c0,-49.33 4.5,-95.67 13.5,-139s24,-81.17 45,-113.5s49.17,-58 84.5,-77s79.33,-28.5 132,-28.5c48,0 89.67,8.67 125,26s64.33,41.67 87,73s39.33,68.67 50,112s16,91 16,143z" id="svg_30" transform="translate(14373,0) rotate(180) scale(-1, 1)"/>
   <path class="slogan" d="m992,489c0,-75.33 -10.33,-144.01 -31,-206.01s-50.67,-115.5 -90,-160.5s-87.16,-79.83 -143.5,-104.5s-119.83,-37 -190.5,-37c-73.33,0 -136.83,11.83 -190.5,35.5s-98,59.33 -133,107s-60.83,107.34 -77.5,179s-25,155.84 -25,252.5c0,82 3.84,157.5 11.5,226.5s18.5,131 32.5,186s30.67,101.84 50,140.5s39.17,69.34 59.5,92.01s40.33,40.83 60,54.5s41.5,26.33 65.5,38s51.17,21.83 81.5,30.5s64.5,16.33 102.5,23l321,53c11.33,2 20.67,2.83 28,2.5s13,-3 17,-8s6.67,-13.17 8,-24.5s2,-27 2,-47c0,-13.33 -0.67,-24.67 -2,-34s-3.67,-17 -7,-23s-8.33,-10.67 -15,-14s-15.33,-6 -26,-8l-299,-50c-30,-4.67 -56.33,-10 -79,-16s-42.83,-12.67 -60.5,-20s-33.17,-15.5 -46.5,-24.5s-26.67,-20.5 -40,-34.5s-25.5,-31.33 -36.5,-52s-20.33,-44.17 -28,-70.5s-14,-55 -19,-86s-9.83,-64.17 -14.5,-99.5c22,23.33 45.33,44.5 70,63.5s50.67,35.17 78,48.5s56.17,23.5 86.5,30.5s62.5,10.5 96.5,10.5c64.67,0 121.17,-10.83 169.5,-32.5s88.33,-52.5 120,-92.5s55.33,-88 71,-144s23.5,-117.67 23.5,-185zm-171,-14.01c0,44 -4.17,86 -12.5,126s-21.67,75.17 -40,105.5s-43,54.67 -74,73s-69.17,27.5 -114.5,27.5c-28,0 -54.17,-3.5 -78.5,-10.5s-48.17,-17.66 -71.5,-32s-46.67,-32 -70,-53s-48.33,-45.83 -75,-74.5c-0.67,-10.66 -1,-23 -1,-37l0,-43c0,-72 4.5,-135.33 13.5,-190s23.83,-100.33 44.5,-137s48,-64.33 82,-83s75.67,-28 125,-28c43.33,0 82,8.5 116,25.5s62.5,40.83 85.5,71.5s40.5,68 52.5,112s18,93 18,147zm-821,476z" id="svg_31" transform="translate(15453,0) rotate(180) scale(-1, 1)"/>
   <path class="slogan" d="m990,485c0,-73.33 -9.67,-140.83 -29,-202.5s-48.17,-114.83 -86.5,-159.5s-86.33,-79.5 -144,-104.5s-124.5,-37.5 -200.5,-37.5c-74,0 -138.5,11 -193.5,33s-100.83,54 -137.5,96s-64,93 -82,153s-27,128 -27,204c0,73.33 9.5,140.83 28.5,202.5s47.67,114.83 86,159.5s86.17,79.33 143.5,104s124.33,37 201,37c74,0 138.5,-11 193.5,-33s100.83,-54 137.5,-96s64.17,-93 82.5,-153s27.5,-127.67 27.5,-203zm-174,-11c0,48.67 -4.5,94.66 -13.5,138s-23.83,81.33 -44.5,114s-48.67,58.5 -84,77.5s-79.33,28.5 -132,28.5c-48.67,0 -90.5,-8.67 -125.5,-26s-63.83,-41.83 -86.5,-73.5s-39.5,-69.17 -50.5,-112.5s-16.5,-90.67 -16.5,-142c0,-49.33 4.5,-95.67 13.5,-139s24,-81.17 45,-113.5s49.17,-58 84.5,-77s79.33,-28.5 132,-28.5c48,0 89.67,8.67 125,26s64.33,41.67 87,73s39.33,68.67 50,112s16,91 16,143z" id="svg_32" transform="translate(16544,0) rotate(180) scale(-1, 1)"/>
   <path class="slogan" d="m783,876c0,-13.33 -0.67,-24.67 -2,-34s-3.5,-17 -6.5,-23s-6.5,-10.5 -10.5,-13.5s-9,-4.5 -15,-4.5l-270,0l0,-776c0,-5.33 -1.33,-9.83 -4,-13.5s-7,-6.83 -13,-9.5s-14.33,-4.67 -25,-6s-24.33,-2 -41,-2c-16,0 -29.33,0.67 -40,2s-19.17,3.33 -25.5,6s-10.67,5.83 -13,9.5s-3.5,8.17 -3.5,13.5l0,776l-270,0c-5.33,0 -10.17,1.5 -14.5,4.5s-7.83,7.5 -10.5,13.5s-4.83,13.83 -6.5,23.5s-2.5,21.17 -2.5,34.5c0,12 0.83,22.67 2.5,32s4,17.17 7,23.5s6.5,11 10.5,14s8.67,4.5 14,4.5l705,0c5.33,0 10.17,-1.5 14.5,-4.5s7.83,-7.67 10.5,-14s4.83,-14.33 6.5,-24s2.5,-20.5 2.5,-32.5z" id="svg_33" transform="translate(17624,0) rotate(180) scale(-1, 1)"/>
   <path class="slogan" d="m563,0l-120,-331c-4,-10.67 -14.16,-18.83 -30.5,-24.5s-41.16,-8.5 -74.5,-8.5c-17.33,0 -31.33,0.83 -42,2.5s-18.83,4.5 -24.5,8.5s-8.83,9.33 -9.5,16s1,14.67 5,24l124,313c-6,2.66 -11.67,7 -17,13s-9,12.33 -11,19l-321,860c-5.33,14 -8,25 -8,33s2.67,14.33 8,19s14,7.83 26,9.5s28,2.5 48,2.5s35.67,-0.5 47,-1.5s20.33,-2.83 27,-5.5s11.5,-6.5 14.5,-11.5s6.17,-11.83 9.5,-20.5l257,-722l3,0l248,726c4,12.67 8.83,20.83 14.5,24.5s14.17,6.33 25.5,8s27.67,2.5 49,2.5c18.67,0 34,-0.83 46,-2.5s20.83,-4.83 26.5,-9.5s8.5,-11 8.5,-19s-2,-18 -6,-30l-323,-895z" id="svg_34" transform="translate(18417,0) rotate(180) scale(-1, 1)"/>
  </g>
 </g>
</svg>