<?xml version="1.0"?>
<svg width="295" height="100" xmlns="http://www.w3.org/2000/svg" xmlns:svg="http://www.w3.org/2000/svg" version="1.1">
 <g class="layer">
  <title>Layer 1</title>
  <path d="m157.34,0.12l40.38,40.37q0.66,0.66 -0.27,0.66l-23.21,0q-0.51,0 -0.88,-0.36q-13.2,-12.86 -16.4,-16.36c-0.63,-0.69 -0.26,-21.35 -0.32,-24a0.41,0.41 0 0 1 0.7,-0.31z" fill="#00aeef" id="svg_1"/>
  <rect fill="#f58220" height="58.24" id="svg_2" rx="0.63" width="15.5" x="0" y="13.4"/>
  <path d="m38.54,30.78q-1.29,-1.97 -1.27,0.39l0.31,39.69a0.79,0.78 -0.4 0 1 -0.79,0.79l-12.66,0q-0.63,0 -0.63,-0.62l-0.01,-56.63a1.01,1 0 0 1 1.01,-1l17.22,0a0.95,0.93 73.4 0 1 0.79,0.44l26.39,41.68a0.34,0.33 29.2 0 0 0.62,-0.17l-0.06,-41.37a0.58,0.58 0 0 1 0.58,-0.58l13.08,0q0.63,0 0.63,0.62l0,56.62a0.98,0.97 -89.4 0 1 -0.99,0.98l-17.24,-0.25q-0.44,-0.01 -0.68,-0.37l-26.3,-40.22z" fill="#f58220" id="svg_3"/>
  <path d="m93.41,71.57q-0.62,0 -0.63,-0.62l-0.1,-9.57q0,-0.43 0.43,-0.43c12.48,-0.09 34.47,1.67 39.25,-1.98c3.53,-2.69 3.06,-7.47 -0.34,-10.06c-5.91,-4.51 -22.62,-0.05 -30.83,-2.83c-20.18,-6.82 -13.69,-32.5 5.63,-32.62q20.29,-0.12 40.34,-0.04a0.61,0.61 0 0 1 0.61,0.61l0.06,8.91q0.01,0.43 -0.42,0.43q-16.35,0.06 -32.61,0.14c-11.16,0.05 -10.61,13.26 -0.5,13.33c8.47,0.06 21.17,-1.15 27.93,1.65c14.09,5.82 11.73,26.68 -1.62,31.57q-3.68,1.35 -13.35,1.49q-16.74,0.26 -33.85,0.02z" fill="#f58220" id="svg_4"/>
  <path d="m197.01,61.14q7.72,0.01 15.48,0.04c5.83,0.02 8.79,-3.1 10.28,-8.52c2.05,-7.53 2.17,-24.7 -6.7,-28.01c-4.59,-1.71 -13.75,-0.78 -18.83,-0.73a0.79,0.79 0 0 0 -0.79,0.81l0.16,6.14a0.51,0.5 -68.9 0 1 -0.85,0.38q-6.17,-5.98 -12.2,-12.41q-1.73,-1.85 -0.51,-4.98q0.16,-0.41 0.61,-0.42q14.71,-0.12 29.33,-0.06c25.67,0.1 30.16,34.1 18.28,50.66c-3.72,5.19 -9.04,7.36 -15.27,7.36q-16.32,-0.01 -32.66,0.07q-0.59,0 -0.59,-0.59l0,-23.98q0,-0.5 0.5,-0.5l12.67,0q0.6,0 0.6,0.6l-0.03,13.62q0,0.52 0.52,0.52z" fill="#f58220" id="svg_5"/>
  <path d="m294.1,71.56q-10.98,-0.07 -21.48,-0.17q-11.29,-0.12 -15.68,-1.69c-17.21,-6.17 -19.71,-31.03 -11.26,-44.67q7.07,-11.43 22.84,-11.55q12.7,-0.1 25.68,-0.08a0.66,0.65 -90 0 1 0.65,0.66l-0.07,8.96a1.15,1.15 0 0 1 -1.2,1.14q-10.67,-0.4 -21.82,-0.32q-11.97,0.1 -14.64,11.87a1.19,1.19 0 0 0 1.16,1.45l36.33,-0.03a0.38,0.38 0 0 1 0.38,0.38l0.01,9.3q0,0.66 -0.66,0.67l-36.58,0.23a0.65,0.65 0 0 0 -0.63,0.76c1.36,8.03 6.47,12.73 14.5,12.71q11.42,-0.03 22.82,-0.05q0.55,0 0.55,0.55l0,8.99a0.89,0.89 0 0 1 -0.9,0.89z" fill="#f58220" id="svg_6"/>
  <path d="m172.47,70.34q0.08,0.24 0.05,0.55q-0.04,0.53 -0.58,0.53l-14.68,0.05q-0.49,0 -0.49,-0.49l-0.06,-37.77q0,-0.97 0.69,-0.29l14.63,14.64q0.35,0.35 0.37,0.84q0.34,10.74 -0.01,21.34a1.88,1.76 -54.5 0 0 0.08,0.6z" fill="#f58220" id="svg_7"/>
  <path d="m83.87,83.85c3.1,6.22 -3.46,9.11 -8.49,9.38q-0.63,0.04 -0.63,0.67l0,5.14a0.88,0.88 0 0 1 -0.9,0.88l-3.21,-0.07q-0.48,-0.01 -0.48,-0.49l-0.08,-18.36q0,-0.46 0.44,-0.58c4.42,-1.26 10.97,-1.33 13.35,3.43zm-9.12,0.33l0,4.6a0.58,0.58 0 0 0 0.58,0.58l1.14,0a3.3,2.72 0 0 0 3.3,-2.72l0,-0.32a3.3,2.72 0 0 0 -3.3,-2.72l-1.14,0a0.58,0.58 0 0 0 -0.58,0.58z" fill="#849daa" id="svg_8"/>
  <path d="m294.77,91.47a8.49,8.49 0 0 1 -8.49,8.49l-1.88,0a8.49,8.49 0 0 1 -8.49,-8.49l0,-3.16a8.49,8.49 0 0 1 8.49,-8.49l1.88,0a8.49,8.49 0 0 1 8.49,8.49l0,3.16zm-9.35,5.16a6.54,4.67 89.8 0 0 4.65,-6.56a6.54,4.67 89.8 0 0 -4.69,-6.52a6.54,4.67 89.8 0 0 -4.65,6.56a6.54,4.67 89.8 0 0 4.69,6.52z" fill="#849daa" id="svg_9"/>
  <path d="m4.51,93.48l6.72,-12.86q0.25,-0.47 0.79,-0.47l3.86,0q0.62,0 0.62,0.63l0,18.43q0,0.56 -0.56,0.58l-3.33,0.1a0.49,0.49 0 0 1 -0.51,-0.45q-0.45,-5.82 0.4,-11.57a0.24,0.24 0 0 0 -0.44,-0.15l-6.47,11.73a0.79,0.78 -76 0 1 -0.67,0.41l-4.28,0.06q-0.64,0.01 -0.64,-0.63l0,-18.76a0.47,0.47 0 0 1 0.49,-0.47l3.06,0.12a0.69,0.69 0 0 1 0.67,0.68q0.12,6.27 -0.08,12.52q-0.02,0.85 0.37,0.1z" fill="#849daa" id="svg_10"/>
  <path d="m24.97,87.65l5.94,0a0.59,0.59 0 0 0 0.59,-0.59l0,-6.43a0.59,0.59 0 0 1 0.61,-0.59l3.57,0.15a0.59,0.59 0 0 1 0.57,0.59l0,18.44a0.59,0.59 0 0 1 -0.57,0.59l-3.57,0.13a0.59,0.59 0 0 1 -0.61,-0.59l0,-6.96a0.59,0.59 0 0 0 -0.6,-0.59l-5.82,0.15a0.59,0.59 0 0 0 -0.58,0.59l0,6.77a0.59,0.59 0 0 1 -0.59,0.59l-3.57,0a0.59,0.59 0 0 1 -0.59,-0.59l0,-18.81a0.59,0.59 0 0 1 0.64,-0.59l3.62,0.31a0.59,0.59 0 0 1 0.54,0.61l-0.17,6.21a0.59,0.59 0 0 0 0.59,0.61z" fill="#849daa" id="svg_11"/>
  <path d="m42.55,84.22l-4.57,-0.39a0.55,0.55 0 0 1 -0.5,-0.57l0.12,-2.59a0.55,0.55 0 0 1 0.55,-0.52l14.3,0a0.55,0.55 0 0 1 0.55,0.55l0,2.9a0.55,0.55 0 0 1 -0.55,0.55l-4.15,0a0.55,0.55 0 0 0 -0.55,0.55l0,14.56a0.55,0.55 0 0 1 -0.54,0.55l-3.68,0.04a0.55,0.55 0 0 1 -0.56,-0.55l0.09,-14.53a0.55,0.55 0 0 0 -0.51,-0.55z" fill="#849daa" id="svg_12"/>
  <path d="m91.62,87.65l6.01,0a0.62,0.62 0 0 0 0.62,-0.62l0,-6.39a0.62,0.62 0 0 1 0.65,-0.62l3.43,0.17a0.62,0.62 0 0 1 0.59,0.62l0.03,18.39a0.62,0.62 0 0 1 -0.6,0.62l-3.54,0.1a0.62,0.62 0 0 1 -0.64,-0.63l0.11,-6.76a0.62,0.62 0 0 0 -0.62,-0.63l-6.08,0a0.62,0.62 0 0 0 -0.62,0.63l0.13,6.53a0.62,0.62 0 0 1 -0.57,0.63l-3.35,0.27a0.62,0.62 0 0 1 -0.67,-0.61l0,-18.75a0.62,0.62 0 0 1 0.66,-0.62l3.26,0.22a0.62,0.62 0 0 1 0.58,0.62l0,6.21a0.62,0.62 0 0 0 0.62,0.62z" fill="#849daa" id="svg_13"/>
  <path d="m111.39,96.15l6.76,0a0.64,0.64 0 0 1 0.64,0.63l0.05,2.48a0.64,0.64 0 0 1 -0.64,0.65l-11.6,-0.03a0.64,0.64 0 0 1 -0.64,-0.64l0.13,-18.48a0.64,0.64 0 0 1 0.64,-0.64l10.88,0.03a0.64,0.64 0 0 1 0.64,0.64l0,2.82a0.64,0.64 0 0 1 -0.66,0.64l-6.4,-0.22a0.64,0.64 0 0 0 -0.66,0.66l0.06,2.34a0.64,0.64 0 0 0 0.64,0.62l5.97,0a0.64,0.64 0 0 1 0.63,0.6l0.16,2.72a0.64,0.64 0 0 1 -0.64,0.68l-5.96,0a0.64,0.64 0 0 0 -0.64,0.64l0,3.22a0.64,0.64 0 0 0 0.64,0.64z" fill="#849daa" id="svg_14"/>
  <path d="m181.08,92.2l-0.12,3.29a0.64,0.64 0 0 0 0.64,0.66l6.96,0a0.64,0.64 0 0 1 0.64,0.62l0.07,2.47a0.64,0.64 0 0 1 -0.64,0.66l-11.76,0a0.64,0.64 0 0 1 -0.64,-0.65l0.35,-18.55a0.64,0.64 0 0 1 0.65,-0.63l10.89,0.12a0.64,0.64 0 0 1 0.63,0.64l0,2.71a0.64,0.64 0 0 1 -0.65,0.64l-6.37,-0.1a0.64,0.64 0 0 0 -0.65,0.62l-0.05,2.3a0.64,0.64 0 0 0 0.64,0.66l5.94,-0.02a0.64,0.64 0 0 1 0.64,0.64l0,2.76a0.64,0.64 0 0 1 -0.65,0.64l-5.87,-0.1a0.64,0.64 0 0 0 -0.65,0.62z" fill="#849daa" id="svg_15"/>
  <path d="m202.98,91.9l-6.25,0a0.52,0.52 0 0 0 -0.52,0.53l0.14,6.78a0.52,0.52 0 0 1 -0.49,0.53l-3.59,0.23a0.52,0.52 0 0 1 -0.55,-0.52l-0.02,-18.91a0.52,0.52 0 0 1 0.55,-0.52l3.66,0.18a0.52,0.52 0 0 1 0.49,0.54l-0.21,6.46a0.52,0.52 0 0 0 0.53,0.54l6.27,-0.13a0.52,0.52 0 0 0 0.51,-0.52l0,-6.5a0.52,0.52 0 0 1 0.54,-0.52l3.5,0.11a0.52,0.52 0 0 1 0.5,0.52l0.13,18.66a0.52,0.52 0 0 1 -0.52,0.52l-3.63,0.03a0.52,0.52 0 0 1 -0.52,-0.52l0,-6.97a0.52,0.52 0 0 0 -0.52,-0.52z" fill="#849daa" id="svg_16"/>
  <path d="m225.25,80.93l-0.19,2.51a0.69,0.69 0 0 1 -0.71,0.64l-3.91,-0.14a0.69,0.69 0 0 0 -0.72,0.69l-0.12,14.58a0.69,0.69 0 0 1 -0.72,0.69l-3.21,-0.11a0.69,0.69 0 0 1 -0.67,-0.69l0,-14.48a0.69,0.69 0 0 0 -0.74,-0.69l-3.74,0.27a0.69,0.69 0 0 1 -0.74,-0.69l0,-2.74a0.69,0.69 0 0 1 0.69,-0.69l14.1,0.1a0.69,0.69 0 0 1 0.68,0.75z" fill="#849daa" id="svg_17"/>
  <path d="m235.99,83.69c-9.06,0.89 -6.5,16.22 3.83,12.18q0.49,-0.19 0.62,0.31l0.61,2.19a1.23,1.23 0 0 1 -1.24,1.56c-2.58,-0.12 -5.81,0.33 -8.06,-0.37c-11.96,-3.68 -6.69,-23.02 9.12,-19.25q0.56,0.13 0.44,0.69l-0.59,2.64q-0.14,0.6 -0.75,0.51c-1.37,-0.19 -2.7,-0.59 -3.98,-0.46z" fill="#849daa" id="svg_18"/>
  <path d="m271.38,89.4c5.58,3.41 3.11,10.16 -2.95,10.42q-4.15,0.18 -8.22,0.05a0.8,0.8 0 0 1 -0.77,-0.81l0.22,-18.08q0,-0.52 0.51,-0.64q5.11,-1.22 9.97,0.27c3.75,1.15 5.38,6.21 1.28,8.09q-0.68,0.31 -0.04,0.7zm-7.13,-5.48l-0.02,3.42a0.64,0.64 0 0 0 0.64,0.64l0.33,0.01a3.75,2.22 0.2 0 0 3.76,-2.21l0,-0.26a3.75,2.22 0.2 0 0 -3.74,-2.23l-0.33,-0.01a0.64,0.64 0 0 0 -0.64,0.64zm-0.02,8.23l0.02,3.8a0.83,0.83 0 0 0 0.83,0.83l0.48,0a3.95,2.64 -0.3 0 0 3.94,-2.66l0,-0.18a3.95,2.64 -0.3 0 0 -3.96,-2.62l-0.48,0a0.83,0.83 0 0 0 -0.83,0.83z" fill="#849daa" id="svg_19"/>
  <path d="m60.18,96.15l6.89,0a0.68,0.68 0 0 1 0.68,0.69l-0.01,2.37a0.68,0.68 0 0 1 -0.69,0.68l-11.62,-0.02a0.68,0.68 0 0 1 -0.68,-0.68l0,-18.36a0.68,0.68 0 0 1 0.68,-0.68l11.18,0a0.68,0.68 0 0 1 0.67,0.71l-0.13,2.65a0.68,0.68 0 0 1 -0.68,0.65l-6.27,-0.02a0.68,0.68 0 0 0 -0.69,0.68l-0.01,2.14a0.68,0.68 0 0 0 0.68,0.69l5.84,0a0.68,0.68 0 0 1 0.68,0.67l0.06,2.66a0.68,0.68 0 0 1 -0.7,0.7l-5.87,-0.1a0.68,0.68 0 0 0 -0.69,0.68l0,3.21a0.68,0.68 0 0 0 0.68,0.68z" fill="#849daa" id="svg_20"/>
  <path d="m119.75,83.45l0.01,-2.62a0.69,0.69 0 0 1 0.69,-0.68l14.18,0a0.69,0.69 0 0 1 0.69,0.71l-0.08,2.49a0.69,0.69 0 0 1 -0.72,0.67l-3.8,-0.15a0.69,0.69 0 0 0 -0.72,0.69l0,14.65a0.69,0.69 0 0 1 -0.69,0.69l-3.37,0a0.69,0.69 0 0 1 -0.69,-0.69l0,-14.72a0.69,0.69 0 0 0 -0.75,-0.69l-4.01,0.35a0.69,0.69 0 0 1 -0.74,-0.7z" fill="#849daa" id="svg_21"/>
  <path d="m148.71,95.65l-0.94,3.68a0.66,0.66 0 0 1 -0.62,0.5l-3.79,0.06a0.66,0.66 0 0 1 -0.64,-0.86l5.59,-18.41a0.66,0.66 0 0 1 0.63,-0.47l5.21,0a0.66,0.66 0 0 1 0.63,0.47l5.67,18.38a0.66,0.66 0 0 1 -0.62,0.86l-3.65,0.06a0.66,0.66 0 0 1 -0.64,-0.46l-1.21,-3.85a0.66,0.66 0 0 0 -0.63,-0.46l-4.35,0a0.66,0.66 0 0 0 -0.64,0.5zm2.26,-10.2l-1.39,5.3q-0.17,0.65 0.5,0.65l2.84,0q0.59,0 0.41,-0.57l-1.69,-5.44a0.36,0.34 -48.2 0 0 -0.67,0.06z" fill="#849daa" id="svg_22"/>
  <path d="m162.5,99.03l0,-18.11a0.77,0.77 0 0 1 0.77,-0.77l10.64,0a0.77,0.77 0 0 1 0.77,0.77l0,2.54a0.77,0.77 0 0 1 -0.81,0.77l-5.81,-0.3a0.77,0.77 0 0 0 -0.81,0.77l0,14.48a0.77,0.77 0 0 1 -0.8,0.76l-3.21,-0.14a0.77,0.77 0 0 1 -0.74,-0.77z" fill="#849daa" id="svg_23"/>
  <path d="m247.18,84.13l-4.11,0.03a0.57,0.57 0 0 1 -0.58,-0.58l0.03,-2.86a0.57,0.57 0 0 1 0.57,-0.57l14.09,0a0.57,0.57 0 0 1 0.57,0.57l0,2.92a0.57,0.57 0 0 1 -0.6,0.57l-4.05,-0.18a0.57,0.57 0 0 0 -0.6,0.57l0,14.65a0.57,0.57 0 0 1 -0.55,0.57l-3.61,0.09a0.57,0.57 0 0 1 -0.59,-0.57l0,-14.64a0.57,0.57 0 0 0 -0.57,-0.57z" fill="#849daa" id="svg_24"/>
  <rect fill="#849daa" height="3.14" id="svg_25" rx="0.88" transform="rotate(1 -2 -99.0993) translate(140.26 189.19)" width="7.96" x="-5.98" y="-100.67"/>
 </g>
</svg>