<?xml version="1.0" encoding="utf-8"?>
<!-- Generator: Adobe Illustrator 15.1.0, SVG Export Plug-In . SVG Version: 6.00 Build 0)  -->
<!DOCTYPE svg PUBLIC "-//W3C//DTD SVG 1.1//EN" "http://www.w3.org/Graphics/SVG/1.1/DTD/svg11.dtd">
<svg version="1.1" id="Layer_1" xmlns="http://www.w3.org/2000/svg" xmlns:xlink="http://www.w3.org/1999/xlink" x="0px" y="0px"
	 width="120px" height="120px" viewBox="0 0 120 120" enable-background="new 0 0 120 120" xml:space="preserve">
<g>
	<path fill="#231F20" d="M105,120H15V99.855h90V120z M20.578,115.068h0.913v-1.003l0.64-1.383v2.386h0.926v-4.764h-0.926v0.746
		l-0.64,1.414v-2.16h-0.913V115.068z M26.407,115.068h0.902v-2.166h0.631l0.01,2.166h0.885v-4.764H27.95l-0.01,1.89h-0.631v-1.89
		h-0.902V115.068z M32.516,110.535c-0.012,0.104-0.015,0.206-0.021,0.29c0,0.174-0.006,0.354-0.013,0.526
		c-0.006,0.181-0.014,0.354-0.021,0.541c-0.006,0.141-0.015,0.27-0.019,0.392c-0.003,0.122-0.015,0.283-0.027,0.463
		c-0.015,0.123-0.028,0.251-0.038,0.398c-0.014,0.136-0.032,0.245-0.044,0.328c-0.013,0.097-0.021,0.193-0.031,0.276
		c-0.009,0.09-0.03,0.207-0.054,0.342c-0.019,0.089-0.051,0.18-0.091,0.282h-0.285l0.072,1.839h0.667l0.098-1.145h1.433l0.077,1.145
		h0.666l0.086-1.839h-0.334v-4.069h-2.103C32.533,110.362,32.524,110.433,32.516,110.535z M33.723,114.374h-0.651
		c0.081-0.449,0.132-0.804,0.156-1.061c0.03-0.251,0.055-0.624,0.071-1.132c0.006-0.084,0.01-0.187,0.018-0.328
		c0-0.135,0.003-0.264,0.003-0.386c0.007-0.051,0.015-0.128,0.018-0.219c0.003-0.09,0.003-0.167,0.003-0.25h0.383V114.374z
		 M38.466,115.068l-0.01,0.142c-0.02,0.431-0.109,0.72-0.27,0.868c-0.161,0.142-0.323,0.206-0.49,0.193l0.082,0.668
		c0.485,0.199,0.834,0.122,1.056-0.219c0.212-0.347,0.372-0.765,0.48-1.267l1.17-5.149h-0.875l-0.64,3.8l-0.403-3.8h-0.87
		L38.466,115.068z M45.43,110.901c-0.124-0.257-0.276-0.431-0.464-0.533c-0.187-0.096-0.375-0.142-0.558-0.122
		c-0.44,0.039-0.746,0.264-0.916,0.682c-0.16,0.424-0.251,0.984-0.262,1.691c0,0.688,0.083,1.286,0.259,1.774
		c0.182,0.488,0.516,0.733,1.019,0.733c0.349-0.013,0.63-0.168,0.85-0.482c0.225-0.315,0.32-0.752,0.296-1.318l-0.78-0.096
		c-0.021,0.727-0.136,1.093-0.35,1.093c-0.148-0.007-0.243-0.181-0.278-0.541c-0.034-0.354-0.055-0.739-0.055-1.17
		c0-1.055,0.095-1.588,0.286-1.601c0.183-0.013,0.288,0.333,0.314,1.035l0.818-0.142C45.609,111.493,45.547,111.159,45.43,110.901z
		 M48.399,110.999h0.753v4.069h0.923v-4.069h0.8v-0.694h-2.477V110.999z M53.918,117.101h0.916v-2.495
		c0.173,0.341,0.396,0.509,0.662,0.521c0.183,0.013,0.366-0.071,0.543-0.252c0.174-0.186,0.309-0.487,0.411-0.918
		c0.094-0.432,0.135-0.984,0.106-1.666c-0.045-1.325-0.393-1.999-1.055-2.045c-0.302-0.026-0.547,0.129-0.739,0.45l-0.104-0.392
		h-0.742V117.101z M54.834,111.893c0-0.322,0.009-0.553,0.044-0.701c0.026-0.147,0.116-0.226,0.264-0.226
		c0.174,0,0.286,0.123,0.341,0.361c0.052,0.237,0.083,0.565,0.097,0.964c0.007,0.296,0.007,0.592,0,0.888
		c-0.013,0.289-0.026,0.501-0.039,0.649c0,0.154-0.021,0.27-0.063,0.347c-0.1,0.122-0.206,0.181-0.312,0.161
		c-0.086,0-0.177-0.053-0.253-0.161c-0.033-0.051-0.059-0.167-0.072-0.347c0-0.046-0.006-0.084-0.006-0.11c0-0.038,0-0.07,0-0.103
		V111.893z M59.649,115.068h0.914v-1.003l0.636-1.383v2.386h0.926v-4.764h-0.926v0.746l-0.636,1.414v-2.16h-0.914V115.068z
		 M65.476,115.068h0.912v-1.003l0.644-1.383v2.386h0.926v-4.764h-0.926v0.746l-0.644,1.414v-2.16h-0.912V115.068z M79.312,115.068
		l0.535-3.048v3.048h0.81v-4.764h-1.115l-0.56,2.327l-0.505-2.327h-1.122l0.007,4.764h0.819v-3.048l0.533,3.048H79.312z
		 M84.234,114.664c0.331,0.314,0.646,0.463,0.933,0.463c0.356-0.013,0.678-0.193,0.971-0.554s0.44-0.983,0.44-1.884
		c0-0.874-0.135-1.498-0.411-1.878c-0.27-0.379-0.608-0.565-1.01-0.565c-0.405,0-0.745,0.199-1.017,0.592
		c-0.27,0.392-0.401,1.01-0.401,1.852C83.739,113.692,83.906,114.355,84.234,114.664z M84.688,112.689
		c0-0.56,0.026-0.997,0.077-1.305c0.059-0.31,0.187-0.471,0.393-0.471c0.234,0,0.373,0.155,0.412,0.444
		c0.038,0.302,0.057,0.739,0.057,1.318c0,0.585-0.019,1.028-0.063,1.331c-0.045,0.309-0.181,0.463-0.415,0.463
		c-0.184-0.007-0.299-0.103-0.344-0.29c-0.052-0.192-0.084-0.456-0.097-0.797C84.694,113.088,84.688,112.856,84.688,112.689z
		 M89.967,110.535c-0.006,0.104-0.013,0.206-0.02,0.29c0,0.174-0.006,0.354-0.013,0.526c-0.006,0.181-0.013,0.354-0.02,0.541
		c-0.006,0.141-0.013,0.27-0.016,0.392c-0.01,0.122-0.017,0.283-0.032,0.463c-0.016,0.123-0.022,0.251-0.035,0.398
		c-0.017,0.136-0.032,0.245-0.042,0.328c-0.017,0.097-0.022,0.193-0.036,0.276c-0.006,0.09-0.025,0.207-0.051,0.342
		c-0.022,0.089-0.052,0.18-0.097,0.282h-0.283l0.071,1.839h0.669l0.096-1.145h1.44l0.07,1.145h0.667l0.086-1.839h-0.334v-4.069
		h-2.103C89.986,110.362,89.979,110.433,89.967,110.535z M91.176,114.374h-0.649c0.08-0.449,0.129-0.804,0.161-1.061
		c0.025-0.251,0.048-0.624,0.063-1.132c0.007-0.084,0.013-0.187,0.02-0.328c0-0.135,0-0.264,0-0.386
		c0.009-0.051,0.017-0.128,0.02-0.219c0.003-0.09,0.003-0.167,0.003-0.25h0.383V114.374z M95.464,115.068h0.907
		c0.476,0,0.862-0.129,1.161-0.398c0.299-0.257,0.437-0.662,0.41-1.189c-0.047-0.938-0.568-1.44-1.571-1.498v-1.678h-0.907V115.068z
		 M96.371,112.645c0.226,0.019,0.376,0.103,0.464,0.244c0.076,0.148,0.121,0.342,0.121,0.598c0.014,0.303-0.025,0.521-0.109,0.662
		c-0.084,0.143-0.24,0.207-0.476,0.213V112.645z M98.416,115.068h0.9v-4.764h-0.9V115.068z"/>
	<g>
		<path fill="#F2A42C" d="M20.578,102.511h0.913v2.16l0.64-1.414v-0.746h0.926v4.765h-0.926v-2.385l-0.64,1.389v0.996h-0.913
			V102.511z"/>
		<path fill="#F2A42C" d="M26.261,102.511h0.9v1.891h0.631l0.008-1.891h0.891v4.765H27.8l-0.008-2.167h-0.631v2.167h-0.9V102.511z"
			/>
		<path fill="#F2A42C" d="M31.589,102.511h2.472v0.694h-0.801v4.07h-0.925v-4.07h-0.746V102.511z"/>
		<path fill="#F2A42C" d="M38.426,105.572l0.78,0.108c-0.023,0.631-0.163,1.067-0.407,1.299c-0.248,0.238-0.511,0.354-0.797,0.354
			c-0.505,0-0.855-0.212-1.045-0.643c-0.19-0.431-0.288-1.003-0.288-1.704c0-1.698,0.437-2.546,1.317-2.533
			c0.379,0,0.702,0.206,0.966,0.611c0.26,0.404,0.349,1.093,0.254,2.057H37.68c-0.036,0.47-0.015,0.823,0.058,1.062
			c0.074,0.244,0.169,0.372,0.285,0.386C38.209,106.574,38.344,106.247,38.426,105.572z M38.321,104.428
			c0.026-0.425,0.01-0.746-0.051-0.952c-0.057-0.206-0.146-0.315-0.257-0.315c-0.088,0-0.164,0.064-0.216,0.2
			c-0.053,0.108-0.086,0.295-0.101,0.533c0,0.09,0,0.174,0,0.264c0,0.083,0,0.18,0,0.271H38.321z"/>
		<path fill="#F2A42C" d="M42.17,102.511h0.746l0.098,0.393c0.195-0.322,0.44-0.477,0.743-0.45c0.659,0.045,1.008,0.72,1.057,2.045
			c0.025,0.682-0.012,1.234-0.11,1.665c-0.098,0.431-0.238,0.733-0.411,0.92c-0.172,0.18-0.355,0.264-0.545,0.25
			c-0.26-0.013-0.485-0.18-0.661-0.521v2.495H42.17V102.511z M43.086,105.828c0,0.026,0,0.059,0.002,0.097
			c0.003,0.026,0.008,0.064,0.008,0.11c0.013,0.179,0.034,0.296,0.071,0.347c0.077,0.109,0.164,0.16,0.255,0.16
			c0.104,0.02,0.208-0.032,0.309-0.16c0.043-0.077,0.063-0.193,0.063-0.347c0.014-0.148,0.028-0.36,0.041-0.65
			c0.006-0.296,0.006-0.591,0-0.887c-0.013-0.398-0.048-0.727-0.099-0.965c-0.053-0.238-0.164-0.36-0.334-0.36
			c-0.152,0-0.241,0.077-0.271,0.226c-0.031,0.147-0.044,0.379-0.044,0.701V105.828z"/>
		<path fill="#F2A42C" d="M47.756,102.511h0.898v1.891h0.63l0.01-1.891h0.889v4.765h-0.889l-0.01-2.167h-0.63v2.167h-0.898V102.511z
			"/>
		<path fill="#F2A42C" d="M54.878,105.572l0.782,0.108c-0.029,0.631-0.164,1.067-0.409,1.299c-0.244,0.238-0.514,0.354-0.797,0.354
			c-0.508,0-0.852-0.212-1.045-0.643c-0.19-0.431-0.286-1.003-0.286-1.704c0-1.698,0.438-2.546,1.312-2.533
			c0.386,0,0.701,0.206,0.967,0.611c0.267,0.404,0.351,1.093,0.258,2.057h-1.53c-0.029,0.47-0.01,0.823,0.058,1.062
			c0.074,0.244,0.17,0.372,0.286,0.386C54.66,106.574,54.795,106.247,54.878,105.572z M54.776,104.428
			c0.023-0.425,0.007-0.746-0.055-0.952c-0.059-0.206-0.142-0.315-0.254-0.315c-0.09,0-0.167,0.064-0.219,0.2
			c-0.05,0.108-0.083,0.295-0.096,0.533c0,0.09,0,0.174,0,0.264c0,0.083,0,0.18,0,0.271H54.776z"/>
		<path fill="#F2A42C" d="M58.293,102.511h2.476v0.694h-0.801v4.07h-0.923v-4.07h-0.752V102.511z"/>
		<path fill="#F2A42C" d="M69.552,102.511h2.476v4.765h-0.939v-4.07h-0.616v4.07h-0.92V102.511z"/>
		<path fill="#F2A42C" d="M74.969,104.896c0-0.842,0.139-1.46,0.402-1.852c0.272-0.393,0.61-0.592,1.016-0.592
			s0.739,0.187,1.016,0.565c0.265,0.38,0.405,1.003,0.405,1.878c0,0.899-0.147,1.523-0.439,1.884
			c-0.293,0.36-0.614,0.54-0.969,0.553c-0.289,0-0.604-0.147-0.932-0.463C75.137,106.562,74.969,105.9,74.969,104.896z
			 M75.939,105.598c0.017,0.334,0.042,0.598,0.094,0.79c0.048,0.187,0.164,0.283,0.347,0.29c0.232,0,0.37-0.155,0.415-0.464
			c0.042-0.302,0.064-0.745,0.064-1.33c0-0.579-0.022-1.017-0.058-1.318c-0.042-0.29-0.177-0.443-0.415-0.443
			c-0.205,0-0.334,0.16-0.389,0.469c-0.052,0.309-0.08,0.752-0.08,1.306C75.918,105.063,75.924,105.295,75.939,105.598z"/>
		<path fill="#F2A42C" d="M80.746,102.511h0.747l0.096,0.393c0.192-0.322,0.443-0.477,0.746-0.45
			c0.655,0.045,1.003,0.72,1.055,2.045c0.024,0.682-0.014,1.234-0.11,1.665c-0.1,0.431-0.237,0.733-0.411,0.92
			c-0.174,0.18-0.356,0.264-0.546,0.25c-0.264-0.013-0.483-0.18-0.663-0.521v2.495h-0.913V102.511z M81.659,105.828
			c0,0.026,0,0.059,0.007,0.097c0,0.026,0.006,0.064,0.006,0.11c0.013,0.179,0.032,0.296,0.071,0.347
			c0.076,0.109,0.161,0.16,0.254,0.16c0.105,0.02,0.209-0.032,0.306-0.16c0.045-0.077,0.064-0.193,0.064-0.347
			c0.015-0.148,0.031-0.36,0.044-0.65c0.007-0.296,0.007-0.591,0-0.887c-0.013-0.398-0.051-0.727-0.103-0.965
			c-0.051-0.238-0.161-0.36-0.334-0.36c-0.151,0-0.238,0.077-0.271,0.226c-0.032,0.147-0.045,0.379-0.045,0.701V105.828z"/>
		<path fill="#F2A42C" d="M86.006,102.511h2.47v0.694h-0.799v4.07h-0.921v-4.07h-0.75V102.511z"/>
		<path fill="#F2A42C" d="M92.144,104.028l-0.833-0.173c0-0.252,0.055-0.482,0.167-0.702c0.116-0.212,0.273-0.392,0.476-0.514
			c0.203-0.122,0.435-0.187,0.698-0.187c0.351,0,0.627,0.108,0.832,0.321c0.209,0.205,0.313,0.508,0.313,0.894v2.424
			c0,0.226,0.015,0.399,0.041,0.521c0.032,0.116,0.109,0.231,0.234,0.334l-0.344,0.386c-0.26-0.052-0.494-0.18-0.701-0.386
			c-0.238,0.289-0.511,0.425-0.823,0.386c-0.579-0.032-0.938-0.386-1.061-1.061c-0.052-0.36-0.003-0.688,0.145-0.983
			c0.145-0.283,0.363-0.509,0.646-0.663c0.28-0.154,0.595-0.237,0.934-0.251v-0.727c0-0.153-0.032-0.27-0.1-0.341
			c-0.071-0.076-0.139-0.108-0.203-0.108c-0.106-0.014-0.2,0.058-0.286,0.219C92.194,103.565,92.146,103.771,92.144,104.028z
			 M92.867,104.999c-0.228-0.006-0.405,0.077-0.53,0.258c-0.126,0.173-0.188,0.386-0.188,0.644c0.007,0.481,0.151,0.72,0.435,0.72
			c0.138-0.007,0.226-0.052,0.247-0.136c0.025-0.083,0.036-0.205,0.036-0.373V104.999z"/>
		<path fill="#F2A42C" d="M99.419,102.511v4.765h-0.896v-4.058h-0.387l-0.097,2.077c-0.028,0.656-0.128,1.177-0.299,1.55
			c-0.173,0.366-0.511,0.54-1.005,0.488l-0.126-0.591c0.264-0.161,0.425-0.405,0.481-0.721c0.014-0.077,0.039-0.282,0.068-0.592
			c0.013-0.147,0.022-0.263,0.022-0.347l0.125-2.572H99.419z"/>
	</g>
	<path fill="#F2A42C" d="M105,96.073H15C15,88.168,15,7.2,15,7.2C15,3.224,15.19,0,19.822,0h80.151C105.105,0,105,3.224,105,7.2
		C105,7.2,105,87.976,105,96.073z M39.559,17.637h-3.598L30.086,46.63L24.23,17.637h-3.622V55.24h3.622V36.85l4.057,18.39h3.622
		l4.052-18.39v18.39h3.598V17.637z M59.422,23.501c0-1.626-0.611-3.009-1.846-4.153c-1.235-1.138-2.72-1.711-4.459-1.711
		c-1.755,0-3.252,0.573-4.485,1.711c-1.233,1.145-1.849,2.527-1.849,4.153v25.894c0,1.615,0.616,2.99,1.849,4.135
		c1.233,1.138,2.729,1.71,4.485,1.71c1.739,0,3.224-0.572,4.459-1.71c1.235-1.146,1.846-2.521,1.846-4.135V23.501z M55.017,51.183
		c-0.527,0.482-1.157,0.727-1.9,0.727c-0.389,0-0.756-0.071-1.084-0.199c-0.326-0.135-0.606-0.315-0.842-0.541
		c-0.237-0.226-0.431-0.495-0.574-0.797c-0.142-0.309-0.211-0.63-0.211-0.978V23.501c0-0.34,0.07-0.668,0.211-0.983
		c0.143-0.315,0.337-0.579,0.574-0.798c0.236-0.218,0.516-0.398,0.842-0.527c0.328-0.135,0.695-0.2,1.084-0.2
		c0.37,0,0.717,0.064,1.045,0.2c0.328,0.128,0.617,0.309,0.862,0.527c0.244,0.219,0.44,0.483,0.585,0.798
		c0.145,0.314,0.219,0.643,0.219,0.983v25.894C55.828,50.089,55.557,50.681,55.017,51.183z M79.265,23.507
		c0-1.626-0.614-3.009-1.846-4.146c-1.234-1.146-2.72-1.718-4.463-1.718h-6.327V55.24h6.327c1.743,0,3.229-0.572,4.463-1.71
		c1.231-1.146,1.846-2.521,1.846-4.128V23.507z M74.873,51.195c-0.521,0.489-1.151,0.727-1.891,0.727h-2.701V21.025h2.701
		c0.366,0,0.721,0.065,1.044,0.2c0.325,0.128,0.614,0.309,0.859,0.527c0.244,0.219,0.438,0.483,0.579,0.792
		c0.141,0.314,0.218,0.643,0.218,0.99v25.881C75.683,50.102,75.412,50.7,74.873,51.195z M93.532,17.637h-4.128L83.829,55.24h3.697
		l1.569-10.018h4.739l1.572,10.018h3.696L93.532,17.637z M89.629,41.865l1.849-11.606l1.823,11.606H89.629z"/>
	<g>
		<g>
			<path fill="#231F20" d="M33.226,93.267h-3.582l-5.403-21.508v21.508h-3.65V55.677h3.65l5.403,21.508V55.677h3.582V93.267z"/>
			<path fill="#231F20" d="M51.319,93.267H40.474V55.67h10.845v3.35h-7.223v13.773h7.223v3.35h-7.223v13.793h7.223V93.267z"/>
			<path fill="#231F20" d="M82.254,55.67l-5.597,37.596h-4.105l-3.524-23.643l-3.495,23.643h-4.131L55.828,55.67h3.7l3.951,24.981
				l3.929-24.981h3.267l3.954,24.981l3.93-24.981H82.254z"/>
			<path fill="#231F20" d="M99.409,87.429c0,1.613-0.617,2.99-1.852,4.127c-1.232,1.145-2.717,1.711-4.456,1.711
				c-1.76,0-3.254-0.566-4.488-1.711c-1.235-1.137-1.845-2.514-1.845-4.127v-2.508h3.619v2.508c0,0.348,0.071,0.669,0.212,0.977
				c0.142,0.303,0.335,0.566,0.573,0.797c0.237,0.227,0.518,0.406,0.849,0.535c0.328,0.135,0.688,0.199,1.08,0.199
				c0.742,0,1.376-0.238,1.896-0.727c0.544-0.496,0.817-1.094,0.817-1.781v-4.598c0-2.379-0.791-4.283-2.36-5.723l-4.334-3.306
				c-1.568-1.568-2.353-3.71-2.353-6.429v-5.84c0-1.626,0.609-3.009,1.845-4.154c1.234-1.144,2.729-1.71,4.488-1.71
				c1.739,0,3.224,0.566,4.456,1.71c1.234,1.145,1.852,2.527,1.852,4.154v2.482h-3.594v-2.482c0-0.347-0.078-0.674-0.226-0.983
				c-0.142-0.315-0.334-0.579-0.582-0.804c-0.244-0.218-0.53-0.392-0.862-0.527c-0.324-0.128-0.671-0.199-1.044-0.199
				c-0.392,0-0.752,0.071-1.08,0.199c-0.331,0.135-0.611,0.309-0.849,0.527c-0.238,0.225-0.432,0.489-0.573,0.804
				c-0.141,0.309-0.212,0.636-0.212,0.983v4.572c0,2.411,0.785,4.314,2.36,5.723l4.327,3.312c1.56,1.575,2.334,3.716,2.334,6.424
				V87.429z"/>
		</g>
		<g>
			<polyline fill="#231F20" points="21.498,8.204 21.038,11.027 20.34,11.027 19.472,6.05 20.34,6.05 20.713,8.828 21.174,6.05 
				21.817,6.05 22.298,8.828 22.661,6.05 23.52,6.05 22.661,11.027 21.954,11.027 21.498,8.204 			"/>
			<polyline fill="#231F20" points="28.104,8.204 27.648,11.027 26.949,11.027 26.082,6.05 26.949,6.05 27.32,8.828 27.786,6.05 
				28.427,6.05 28.905,8.828 29.268,6.05 30.13,6.05 29.268,11.027 28.563,11.027 28.104,8.204 			"/>
			<polyline fill="#231F20" points="34.709,8.204 34.255,11.027 33.557,11.027 32.688,6.05 33.557,6.05 33.93,8.828 34.39,6.05 
				35.033,6.05 35.513,8.828 35.875,6.05 36.735,6.05 35.875,11.027 35.169,11.027 34.709,8.204 			"/>
			<path fill="#231F20" d="M39.625,10.377c0-0.367,0.14-0.565,0.411-0.61c0.081-0.026,0.155-0.026,0.225,0
				c0.283,0.045,0.421,0.244,0.421,0.61c0,0.373-0.138,0.579-0.421,0.63h-0.225c-0.167-0.031-0.28-0.109-0.33-0.225
				C39.654,10.667,39.625,10.532,39.625,10.377"/>
			<path fill="#231F20" d="M43.779,5.986h0.687l0.149,0.437h0.018c0.149-0.315,0.395-0.469,0.733-0.456
				c0.358,0,0.633,0.154,0.815,0.469h0.04c0.15-0.341,0.402-0.495,0.757-0.469c0.322,0,0.549,0.096,0.684,0.302
				c0.135,0.199,0.206,0.559,0.206,1.073v3.665h-0.881V7.407c0-0.283-0.02-0.469-0.059-0.565C46.889,6.751,46.809,6.7,46.675,6.7
				c-0.208-0.02-0.331,0.045-0.369,0.193c-0.04,0.147-0.056,0.424-0.056,0.823v3.292h-0.867V7.407c0-0.283-0.024-0.469-0.063-0.565
				C45.277,6.751,45.192,6.7,45.062,6.7c-0.192-0.02-0.313,0.045-0.362,0.193c-0.044,0.147-0.067,0.424-0.067,0.823v3.292h-0.854
				V5.986"/>
			<path fill="#231F20" d="M51.603,9.246c0.015,0.354,0.047,0.63,0.094,0.823c0.048,0.2,0.164,0.302,0.343,0.309
				c0.232,0,0.367-0.154,0.409-0.482c0.044-0.322,0.064-0.785,0.064-1.389c0-0.611-0.016-1.068-0.058-1.376
				c-0.032-0.315-0.17-0.469-0.406-0.469c-0.206,0-0.331,0.167-0.389,0.488c-0.05,0.328-0.076,0.778-0.076,1.364
				C51.585,8.687,51.593,8.931,51.603,9.246L51.603,9.246z M50.643,8.513c0-0.881,0.135-1.524,0.401-1.936
				c0.267-0.411,0.601-0.611,1.006-0.611c0.399,0,0.733,0.193,1.003,0.592c0.27,0.392,0.405,1.042,0.405,1.955
				c0,0.938-0.148,1.602-0.437,1.974c-0.29,0.373-0.605,0.565-0.965,0.578c-0.279,0-0.593-0.161-0.919-0.482
				C50.81,10.256,50.643,9.567,50.643,8.513"/>
			<path fill="#231F20" d="M57.794,7.767c0-0.141,0-0.29-0.01-0.443c-0.006-0.155-0.035-0.283-0.083-0.38
				c-0.045-0.096-0.122-0.148-0.238-0.155c-0.135-0.019-0.225,0.032-0.283,0.148c-0.051,0.115-0.083,0.263-0.097,0.443
				c-0.019,0.174-0.026,0.386-0.026,0.631c-0.006,0.302-0.006,0.61,0,0.932c0,0.417,0.026,0.765,0.071,1.054
				c0.045,0.283,0.161,0.412,0.35,0.393c0.164-0.02,0.255-0.103,0.277-0.258c0.022-0.154,0.038-0.412,0.038-0.778V7.767
				L57.794,7.767z M58.672,11.007h-0.733l-0.086-0.398h-0.022c-0.036,0.122-0.116,0.232-0.238,0.328
				c-0.123,0.09-0.277,0.135-0.463,0.128c-0.637-0.058-0.971-0.765-1.016-2.128c-0.032-0.881,0.022-1.543,0.147-1.987
				c0.129-0.437,0.271-0.713,0.432-0.822c0.154-0.11,0.302-0.161,0.446-0.161c0.312,0,0.518,0.174,0.627,0.507h0.028V3.89h0.878
				V11.007"/>
			<path fill="#231F20" d="M63.309,8.622c-0.231-0.006-0.406,0.084-0.527,0.264c-0.126,0.187-0.188,0.411-0.188,0.675
				c0.007,0.502,0.148,0.759,0.428,0.759c0.139-0.007,0.223-0.058,0.252-0.142c0.016-0.09,0.035-0.218,0.035-0.392V8.622
				L63.309,8.622z M62.588,7.613l-0.823-0.187c0-0.264,0.053-0.508,0.167-0.733c0.106-0.226,0.264-0.405,0.463-0.533
				c0.206-0.13,0.435-0.193,0.701-0.193c0.342,0,0.617,0.109,0.822,0.328c0.207,0.225,0.307,0.533,0.307,0.938v2.534
				c0,0.237,0.016,0.418,0.042,0.54c0.025,0.122,0.105,0.245,0.231,0.354l-0.341,0.405c-0.254-0.058-0.488-0.193-0.695-0.405
				c-0.234,0.302-0.505,0.437-0.81,0.405c-0.579-0.039-0.933-0.405-1.058-1.119c-0.048-0.373-0.003-0.713,0.144-1.022
				c0.146-0.302,0.357-0.534,0.642-0.695c0.278-0.154,0.595-0.244,0.929-0.257V7.207c0-0.16-0.035-0.276-0.104-0.353
				c-0.07-0.078-0.135-0.116-0.198-0.116c-0.104-0.013-0.2,0.064-0.284,0.225C62.64,7.13,62.588,7.342,62.588,7.613"/>
			<path fill="#231F20" d="M67.228,5.986h0.69l0.143,0.437h0.019c0.157-0.315,0.398-0.469,0.733-0.456
				c0.341,0,0.578,0.103,0.701,0.315c0.114,0.211,0.186,0.566,0.186,1.061v3.665h-0.933V7.407c0-0.238-0.02-0.411-0.054-0.533
				c-0.036-0.123-0.125-0.18-0.273-0.174c-0.174,0-0.273,0.083-0.309,0.257c-0.038,0.167-0.052,0.424-0.052,0.759v3.292h-0.852
				V5.986"/>
			<path fill="#231F20" d="M74.114,8.024c0.025-0.443,0.009-0.778-0.049-0.997C74.008,6.815,73.924,6.7,73.809,6.7
				c-0.09,0-0.167,0.07-0.213,0.206c-0.057,0.116-0.086,0.302-0.1,0.56c0,0.09,0,0.187,0,0.276s0,0.186,0,0.283H74.114L74.114,8.024
				z M74.22,9.22l0.775,0.116c-0.029,0.662-0.167,1.112-0.408,1.363c-0.245,0.245-0.509,0.366-0.785,0.366
				c-0.508,0-0.849-0.224-1.041-0.675c-0.188-0.45-0.283-1.048-0.283-1.781c0-1.775,0.434-2.656,1.299-2.643
				c0.379,0,0.7,0.206,0.965,0.637c0.257,0.418,0.343,1.138,0.254,2.147h-1.518c-0.032,0.489-0.011,0.861,0.055,1.112
				c0.077,0.258,0.167,0.386,0.286,0.405C74.002,10.274,74.137,9.921,74.22,9.22"/>
			<polyline fill="#231F20" points="79.646,8.204 79.19,11.027 78.496,11.027 77.621,6.05 78.496,6.05 78.868,8.828 79.325,6.05 
				79.968,6.05 80.451,8.828 80.811,6.05 81.672,6.05 80.811,11.027 80.104,11.027 79.646,8.204 			"/>
			<path fill="#231F20" d="M84.289,9.452l0.727-0.155c0,0.078,0.006,0.136,0.01,0.168c0,0.058,0.009,0.16,0.016,0.302
				c0.049,0.386,0.168,0.578,0.364,0.591c0.086,0,0.164-0.052,0.221-0.141c0.071-0.091,0.094-0.207,0.071-0.341
				c-0.003-0.115-0.036-0.238-0.096-0.36c-0.059-0.122-0.13-0.245-0.213-0.367c-0.083-0.123-0.161-0.231-0.234-0.328
				c-0.147-0.18-0.248-0.302-0.296-0.366c-0.196-0.283-0.335-0.515-0.422-0.694c-0.083-0.18-0.129-0.399-0.129-0.637
				c0.011-0.335,0.11-0.604,0.296-0.816c0.19-0.219,0.431-0.334,0.721-0.341c0.705-0.032,1.1,0.431,1.189,1.395l-0.727,0.154
				c0-0.025-0.007-0.077-0.02-0.16c-0.013-0.077-0.021-0.136-0.021-0.167c-0.007-0.039-0.01-0.084-0.026-0.136
				c-0.048-0.276-0.15-0.405-0.306-0.405c-0.167,0-0.251,0.116-0.251,0.348c0,0.154,0.032,0.296,0.097,0.417
				c0.077,0.122,0.199,0.309,0.396,0.547c0.164,0.206,0.289,0.367,0.363,0.482c0.369,0.495,0.54,0.97,0.515,1.414
				c-0.014,0.225-0.064,0.438-0.178,0.617c-0.105,0.187-0.243,0.334-0.411,0.438c-0.17,0.103-0.354,0.154-0.556,0.154
				c-0.244,0-0.457-0.07-0.637-0.211c-0.187-0.143-0.321-0.348-0.408-0.598C84.264,9.998,84.244,9.734,84.289,9.452"/>
			<path fill="#231F20" d="M89.382,10.377c0-0.367,0.135-0.565,0.411-0.61c0.08-0.026,0.151-0.026,0.219,0
				c0.289,0.045,0.425,0.244,0.425,0.61c0,0.373-0.136,0.579-0.425,0.63h-0.219c-0.167-0.031-0.282-0.109-0.335-0.225
				C89.407,10.667,89.382,10.532,89.382,10.377"/>
			<path fill="#231F20" d="M93.426,6.024l0.752,0.013l0.1,0.271h0.004c0.16-0.226,0.328-0.341,0.524-0.341
				c0.248-0.026,0.424,0.089,0.544,0.341l-0.464,0.701c-0.02-0.026-0.032-0.058-0.045-0.103c-0.019-0.032-0.035-0.071-0.045-0.116
				c-0.056-0.096-0.122-0.141-0.22-0.141c-0.121,0.006-0.205,0.09-0.237,0.245c-0.032,0.147-0.058,0.347-0.058,0.591v3.523h-0.855
				V6.024"/>
			<path fill="#231F20" d="M100.528,11.007H99.83l-0.147-0.392l-0.02-0.007c-0.167,0.303-0.411,0.457-0.742,0.457
				c-0.338-0.006-0.568-0.115-0.688-0.328c-0.115-0.211-0.17-0.559-0.17-1.048V6.024h0.926v3.608c0,0.238,0.013,0.411,0.048,0.534
				c0.039,0.115,0.122,0.167,0.264,0.161c0.178,0,0.28-0.077,0.315-0.245c0.029-0.167,0.048-0.417,0.048-0.759V6.024h0.865V11.007"
				/>
		</g>
	</g>
</g>
</svg>
