<svg width="967" height="195" viewBox="0 0 967 195" fill="none" xmlns="http://www.w3.org/2000/svg">
<path d="M860.422 39.6807V33.9618H865.468V39.6807H860.422Z" fill="#1C1538"/>
<path d="M871.603 20.8715C871.603 14.957 872.951 10.2384 875.648 6.73746C878.345 3.21481 881.956 1.47522 886.481 1.47522C891.005 1.47522 894.616 3.21481 897.313 6.71571C900.01 10.2166 901.359 14.9352 901.359 20.8715C901.359 26.8079 900.01 31.5265 897.313 35.0491C894.616 38.5718 891.005 40.3331 886.481 40.3331C881.978 40.3331 878.367 38.5718 875.648 35.0491C872.951 31.5047 871.603 26.7861 871.603 20.8715ZM875.822 20.8715C875.822 25.8511 876.758 29.7217 878.65 32.505C880.542 35.2883 883.153 36.68 886.481 36.68C889.809 36.68 892.441 35.2883 894.311 32.505C896.204 29.7217 897.139 25.8511 897.139 20.8715C897.139 15.8703 896.204 11.9779 894.311 9.21636C892.419 6.43303 889.809 5.04137 886.481 5.04137C883.153 5.04137 880.521 6.43303 878.65 9.21636C876.758 11.9779 875.822 15.8703 875.822 20.8715Z" fill="#1C1538"/>
<path d="M907.253 39.6808V2.06238H917.802C923.066 2.06238 926.895 2.84518 929.287 4.43254C931.658 6.01991 932.855 8.5423 932.855 11.9997C932.855 14.4569 932.202 16.4791 930.919 18.0882C929.614 19.6974 927.678 20.8716 925.067 21.6109L933.92 39.6808H929.352L921.065 22.6111H911.386V39.6808H907.253ZM917.802 5.56328H911.342V19.132H917.65C921.522 19.132 924.328 18.5884 926.046 17.5229C927.765 16.4574 928.635 14.7395 928.635 12.3694C928.635 9.84698 927.873 8.08567 926.329 7.06367C924.785 6.04167 921.957 5.56328 917.802 5.56328Z" fill="#1C1538"/>
<path d="M961.828 39.6808L961.675 35.571C960.501 37.1801 959.109 38.3761 957.477 39.1589C955.846 39.9417 953.932 40.3331 951.735 40.3331C947.189 40.3331 943.6 38.6153 940.968 35.1579C938.314 31.7222 937.009 27.0253 937.009 21.0672C937.009 14.8482 938.314 10.0209 940.924 6.60699C943.534 3.17132 947.189 1.45349 951.909 1.45349C955.215 1.45349 957.956 2.36676 960.131 4.21507C962.306 6.06337 963.916 8.80322 964.981 12.4781L960.718 13.3261C959.979 10.5645 958.869 8.49879 957.368 7.10712C955.867 5.71546 953.997 5.04138 951.756 5.04138C948.407 5.04138 945.818 6.41129 944.013 9.12938C942.208 11.8475 941.294 15.7398 941.294 20.7846C941.294 25.8076 942.229 29.7217 944.122 32.5267C946.014 35.3318 948.646 36.7235 952.017 36.7235C954.823 36.7235 957.02 35.9189 958.673 34.2881C960.305 32.6789 961.131 30.461 961.131 27.6777V25.0031H952.431V21.4152H965.438V39.6808H961.828Z" fill="#1C1538"/>
<path d="M520.204 191.111C519.16 191.111 518.334 190.741 517.529 189.937C516.724 189.132 516.354 188.306 516.354 187.262V4.9108C516.354 3.64961 516.702 2.69284 517.464 1.88828C518.182 1.12722 519.03 0.779297 520.204 0.779297H578.281C605.101 0.779297 626.156 7.194 640.861 19.8277C655.456 32.3744 663.199 50.727 663.939 74.4287C664.113 79.8867 664.222 87.1277 664.222 95.9778C664.222 104.828 664.135 111.96 663.939 117.222C662.112 166.974 634.574 191.154 579.695 191.154H520.204V191.111ZM562.838 155.319H578.259C590.875 155.319 600.424 152.166 606.645 145.969C612.823 139.793 616.172 129.987 616.564 116.853C616.934 111.482 617.13 104.306 617.13 95.6733C617.13 87.0407 616.934 79.9736 616.564 74.6679C616.172 61.9907 612.562 52.3143 605.884 46.0301C599.206 39.7676 589.44 36.5929 576.867 36.5929H562.859V155.319H562.838Z" fill="#1C1538"/>
<path d="M747.313 193.938C725.387 193.938 707.964 188.023 695.522 176.39C683.124 164.778 676.642 147.534 676.294 125.116V116.461C677.012 95.2384 683.668 78.3863 696.11 66.4919C708.552 54.5758 725.692 48.5525 747.03 48.5525C762.496 48.5525 775.72 51.662 786.335 57.8157C796.885 63.926 804.868 72.4499 810.088 83.1483C815.374 93.9989 818.071 106.524 818.071 120.397V127.421C818.071 128.66 817.701 129.573 816.896 130.378C816.091 131.182 815.156 131.552 813.938 131.552H721.668V136.401C721.863 145.512 724.06 152.971 728.171 158.646C732.522 164.648 738.786 167.67 746.747 167.67C751.859 167.67 756.079 166.605 759.32 164.474C762.256 162.56 765.084 160.038 767.694 157.015C769.652 154.841 770.522 154.384 770.696 154.319C770.913 154.232 771.805 153.906 774.307 153.906H811.132C812.067 153.906 812.807 154.167 813.438 154.71C814.025 155.21 814.134 155.624 814.134 156.08C814.134 160.146 811.589 165.235 806.586 171.171C801.409 177.325 793.644 182.717 783.551 187.175C773.415 191.655 761.234 193.938 747.313 193.938ZM747.03 73.9503C738.917 73.9503 732.522 76.8641 728.084 82.6265C723.821 88.1496 721.668 95.8472 721.668 105.502V109.242H772.697V105.502C772.697 95.8255 770.478 88.1061 766.106 82.6047C761.56 76.8641 755.144 73.9503 747.03 73.9503Z" fill="#1C1538"/>
<path d="M874.429 194.916C872.602 194.916 871.276 194.568 870.471 193.873C869.448 192.981 868.557 191.633 867.817 189.85L814.417 59.5118C814.439 59.5118 814.352 59.1639 814.352 58.4246C814.352 57.3808 814.634 56.6415 815.243 56.0326C815.874 55.402 816.614 55.1411 817.636 55.1411H851.09C853.765 55.1411 855.419 56.3371 856.593 59.1204L890.134 151.101L924.045 58.9682C924.436 57.9462 925.089 57.0112 926.046 56.1196C926.764 55.4673 927.786 55.1411 929.222 55.1411H962.958C963.85 55.1411 964.568 55.4455 965.308 56.1196C965.873 56.6632 966.178 57.2721 966.243 58.0984L965.851 59.7075L912.821 189.872C912.103 191.611 911.19 192.938 910.102 193.807C909.189 194.547 907.775 194.916 905.926 194.916H874.429Z" fill="#1C1538"/>
<path d="M136.094 42.6597H0.885742V1.40991H94.8655C117.647 1.40991 136.115 19.8781 136.115 42.6597H136.094Z" fill="#7BD3F7"/>
<path d="M214.443 1.38818H170.787V42.6379H214.443V1.38818Z" fill="#4C72B6"/>
<path d="M214.443 148.861H170.787V190.111H214.443V148.861Z" fill="#7BD3F7"/>
<path d="M306.887 1.38818H263.231V42.6379H306.887V1.38818Z" fill="#4272B8"/>
<path d="M306.887 148.861H263.231V190.111H306.887V148.861Z" fill="#4272B8"/>
<path d="M0.885742 114.635V73.385H136.094C136.094 96.1666 117.625 114.635 94.8438 114.635H0.885742Z" fill="#69B3E4"/>
<path d="M306.887 73.3633H171.679V114.613H306.887V73.3633Z" fill="#459BD5"/>
<path d="M47.6299 148.861H0.885742V190.111H47.6299V148.861Z" fill="#459BD5"/>
<path d="M490.014 42.6597H354.806V1.40991H448.764C471.549 1.40991 490.023 19.8745 490.035 42.6597H490.014Z" fill="#3A63AE"/>
<path d="M489.992 73.385C489.992 96.1666 471.524 114.635 448.742 114.635H354.784V73.385H489.992Z" fill="#69B3E4"/>
<path d="M401.55 148.861H354.806V190.111H401.55V148.861Z" fill="#7BD3F7"/>
</svg>
