<svg width="1920" height="372" viewBox="0 0 1920 372" fill="none" xmlns="http://www.w3.org/2000/svg">
<path d="M996.379 83.0087C998.506 83.0087 999.623 83.6996 1000.69 86.9413L1049.09 247.273C1049.46 249.08 1050.15 249.452 1051.59 249.452H1053.07C1054.19 249.452 1054.94 249.08 1055.63 247.273L1104.03 100.599C1108.33 87.3133 1115.2 83.3807 1126.05 83.3807H1155.67C1168.65 83.3807 1175.14 88.0573 1179.12 100.599L1228.59 247.273C1229.33 249.08 1229.7 249.452 1231.14 249.452H1232.95C1234.01 249.452 1234.76 249.08 1235.45 247.273L1282.78 86.9413C1282.82 86.3726 1282.98 85.8177 1283.24 85.3097C1283.49 84.8016 1283.85 84.3508 1284.29 83.9839C1284.73 83.617 1285.23 83.3416 1285.78 83.1741C1286.32 83.0065 1286.9 82.9503 1287.46 83.0087H1327.88C1331.13 83.0087 1331.5 86.2504 1330.44 89.811L1273 268.849C1267.25 286.865 1261.46 291.541 1249.91 291.541H1214.87C1203.32 291.541 1197.9 286.227 1191.78 268.849L1144.77 127.542C1144.39 126.108 1144.02 125.364 1142.21 125.364H1141.15C1140.55 125.38 1139.96 125.607 1139.51 126.004C1139.05 126.402 1138.75 126.946 1138.65 127.542L1090.78 268.796C1084.67 286.44 1079.61 291.488 1067.7 291.488H1033.93C1020.53 291.488 1014.41 287.13 1008.61 268.796L953.724 89.811C952.66 85.8784 953.033 83.0087 956.277 83.0087H996.379Z" fill="#1A013A"/>
<path d="M1511.64 83.0088C1526.8 83.0088 1536.21 87.6854 1545.95 105.648L1644.87 284.686C1647.05 288.618 1645.99 291.541 1641.31 291.541H1603.39C1599.4 291.541 1598.07 290.797 1596.53 287.556L1575.25 249.08H1434.73L1414.15 287.556C1413.6 288.879 1412.63 289.987 1411.4 290.707C1410.16 291.427 1408.71 291.72 1407.29 291.541H1368.31C1363.25 291.541 1362.14 288.618 1364.32 284.686L1462.6 105.648C1472.34 87.6854 1481.38 83.0088 1493.98 83.0088H1511.64ZM1453.88 214.963H1556.8L1508.93 127.596C1508.66 126.952 1508.22 126.401 1507.64 126.013C1507.06 125.625 1506.38 125.418 1505.68 125.417H1503.88C1503.17 125.414 1502.48 125.62 1501.9 126.007C1501.31 126.395 1500.85 126.948 1500.58 127.596L1453.88 214.963Z" fill="#1A013A"/>
<path d="M1702.68 83.0117C1704.11 82.7828 1705.57 83.0089 1706.86 83.6577C1708.15 84.3065 1709.2 85.345 1709.86 86.6254L1789.64 194.08L1870.22 86.6254C1870.96 85.4043 1872.04 84.4175 1873.31 83.7783C1874.59 83.1391 1876.03 82.8734 1877.45 83.0117H1916.44C1919.68 83.0117 1921.12 86.2534 1918.99 89.1231L1811.71 227.879V285.061C1811.84 285.941 1811.76 286.838 1811.47 287.681C1811.19 288.524 1810.72 289.291 1810.09 289.919C1809.46 290.548 1808.69 291.022 1807.85 291.304C1807 291.586 1806.11 291.668 1805.23 291.544H1773.31C1772.41 291.677 1771.5 291.603 1770.63 291.33C1769.76 291.057 1768.97 290.59 1768.31 289.966C1767.65 289.342 1767.14 288.576 1766.82 287.727C1766.5 286.877 1766.37 285.965 1766.45 285.061V227.879L1660.08 89.1231C1659.57 88.6282 1659.22 87.9927 1659.08 87.2982C1658.93 86.6037 1659 85.8819 1659.27 85.2252C1659.54 84.5685 1660 84.007 1660.59 83.6126C1661.18 83.2182 1661.87 83.009 1662.58 83.0117H1702.68Z" fill="#1A013A"/>
<path d="M814.378 158.155L881.179 90.9296C883.679 88.3787 883.679 83.0113 878.254 83.0113H839.269C837.419 82.8865 835.566 83.2132 833.871 83.9631C832.175 84.713 830.687 85.8636 829.536 87.3159L785.126 131.903L814.378 158.155Z" fill="#27CDAA"/>
<path d="M885.168 283.996L694.87 87.6858C693.684 86.2592 692.183 85.1277 690.485 84.3807C688.786 83.6336 686.937 83.2914 685.084 83.3812H644.29C638.972 83.3812 638.972 88.3767 641.418 91.2995L730.61 181.642L632.377 283.624C629.824 286.121 629.824 291.542 634.876 291.542H673.915C675.782 291.788 677.681 291.511 679.4 290.742C681.118 289.972 682.589 288.741 683.648 287.184L757.682 210.286L831.716 286.972C832.811 288.49 834.288 289.692 835.997 290.457C837.706 291.222 839.587 291.523 841.449 291.329H882.243C883.119 291.39 883.993 291.171 884.737 290.703C885.481 290.236 886.057 289.544 886.383 288.729C886.708 287.913 886.766 287.015 886.547 286.164C886.329 285.314 885.846 284.554 885.168 283.996Z" fill="#1A013A"/>
<path fill-rule="evenodd" clip-rule="evenodd" d="M106.371 1.59279C111.003 2.31061 115.299 4.44277 118.67 7.69677C122.04 10.9508 124.321 15.1672 125.199 19.7676C125.515 21.5203 125.64 23.3023 125.571 25.0819C125.269 28.7739 125.774 32.4872 127.05 35.9649C128.327 39.4426 130.345 42.6016 132.964 45.2231C138.548 51.1751 145.888 58.8276 152.164 65.4705C155.15 68.7527 158.95 71.1888 163.181 72.5326C167.412 73.8763 171.922 74.08 176.257 73.1231C180.387 72.1109 184.686 72.0021 188.862 72.8042C195.462 73.9303 201.54 77.1022 206.237 81.871C210.933 86.6397 214.009 92.7636 215.029 99.3756C215.66 103.666 215.425 108.038 214.338 112.236C213.07 116.639 212.947 121.292 213.98 125.755C215.013 130.219 217.168 134.345 220.241 137.745L228.698 147.098C230.066 148.458 231.807 149.381 233.701 149.75C235.595 150.119 237.556 149.918 239.335 149.171C245.001 146.444 251.209 145.028 257.498 145.028C263.787 145.028 269.995 146.444 275.661 149.171C277.422 150.011 279.407 150.263 281.322 149.89C283.238 149.517 284.982 148.538 286.298 147.098L295.02 137.692C298.094 134.292 300.253 130.168 301.295 125.706C302.337 121.244 302.228 116.591 300.977 112.183C299.865 107.989 299.629 103.611 300.286 99.3225C301.17 92.6559 304.202 86.4579 308.922 81.6645C313.643 76.871 319.796 73.7424 326.453 72.7511C330.642 72.1299 334.906 72.2378 339.058 73.0699C343.384 74.0505 347.894 73.8581 352.12 72.5126C356.347 71.1672 360.137 68.7176 363.098 65.4174L377.458 50.0591C380.762 47.1685 383.319 43.5237 384.912 39.4343C386.504 35.3449 387.086 30.9318 386.606 26.5699C386.236 24.0324 386.236 21.4549 386.606 18.9174C387.553 14.4558 389.827 10.3843 393.13 7.23605C396.433 4.08781 400.61 2.00969 405.115 1.27393C407.957 0.862181 410.853 1.01392 413.637 1.72048C416.421 2.42703 419.039 3.67458 421.34 5.39188C423.642 7.10918 425.582 9.2626 427.05 11.7292C428.519 14.1958 429.487 16.9273 429.899 19.7676C430.311 22.608 430.159 25.5017 429.452 28.2834C428.745 31.0652 427.496 33.6805 425.778 35.9801C424.059 38.2797 421.904 40.2185 419.435 41.6859C416.967 43.1533 414.233 44.1205 411.39 44.5322C410.667 44.4926 409.943 44.6011 409.263 44.8511C402.298 45.242 395.724 48.1951 390.808 53.1414L368.789 76.5242C366.094 79.4455 364.122 82.9578 363.032 86.7789C361.942 90.6 361.764 94.6232 362.513 98.5254C363.205 101.856 363.205 105.292 362.513 108.623C361.464 115.071 358.458 121.043 353.902 125.729C349.345 130.415 343.458 133.589 337.037 134.822C334.046 135.45 330.97 135.557 327.942 135.141C323.9 134.676 319.806 135.159 315.983 136.552C312.161 137.945 308.717 140.209 305.923 143.165L296.137 153.794C294.37 155.297 293.144 157.336 292.644 159.6C292.145 161.865 292.4 164.23 293.372 166.336C296.789 172.538 298.581 179.503 298.581 186.583C298.581 193.663 296.789 200.628 293.372 206.831C292.428 208.515 292.053 210.459 292.302 212.374C292.551 214.288 293.411 216.071 294.754 217.459L305.923 229.363C308.75 232.273 312.2 234.507 316.013 235.896C319.826 237.286 323.904 237.796 327.942 237.388C330.97 236.971 334.046 237.079 337.037 237.707C343.527 238.782 349.502 241.905 354.087 246.62C358.671 251.335 361.624 257.393 362.513 263.906C362.834 267.264 362.834 270.645 362.513 274.003C361.764 277.905 361.942 281.928 363.032 285.75C364.122 289.571 366.094 293.083 368.789 296.004C375.437 302.913 384.159 312.107 390.808 318.856C393.213 321.417 396.111 323.467 399.328 324.882C402.544 326.297 406.014 327.049 409.529 327.093C410.361 327.052 411.193 327.178 411.975 327.465C416.648 328.259 420.951 330.505 424.273 333.882C427.596 337.259 429.769 341.596 430.484 346.277C430.909 349.617 430.558 353.009 429.458 356.191C428.358 359.373 426.538 362.258 424.141 364.623C421.743 366.988 418.832 368.768 415.634 369.826C412.435 370.884 409.036 371.191 405.7 370.723C401.209 370.037 397.034 368.002 393.728 364.888C390.422 361.775 388.142 357.731 387.191 353.292C386.872 350.734 386.872 348.145 387.191 345.587C387.829 341.745 387.528 337.806 386.315 334.105C385.102 330.404 383.012 327.05 380.224 324.329L363.789 306.899C360.817 303.611 357.029 301.167 352.807 299.814C348.585 298.461 344.081 298.247 339.749 299.193C335.62 300.197 331.326 300.323 327.144 299.565C322.799 298.844 318.649 297.233 314.957 294.832C311.266 292.43 308.111 289.291 305.693 285.612C303.275 281.933 301.646 277.793 300.907 273.454C300.169 269.115 300.337 264.669 301.403 260.399C302.69 256.002 302.818 251.348 301.774 246.888C300.73 242.428 298.55 238.313 295.446 234.943L286.723 225.484C285.36 224.117 283.618 223.19 281.722 222.82C279.827 222.451 277.864 222.657 276.086 223.411C270.446 226.244 264.209 227.684 257.897 227.609C251.536 227.6 245.267 226.089 239.601 223.199C237.838 222.366 235.856 222.119 233.942 222.491C232.029 222.864 230.284 223.838 228.964 225.271L220.241 234.731C217.114 238.131 214.909 242.276 213.839 246.769C212.768 251.262 212.867 255.954 214.125 260.399C215.213 264.614 215.448 269.005 214.816 273.312C213.915 279.972 210.878 286.161 206.161 290.952C201.443 295.742 195.299 298.876 188.649 299.884C184.456 300.463 180.196 300.338 176.044 299.512C171.705 298.544 167.187 298.748 162.953 300.102C158.719 301.457 154.921 303.912 151.951 307.217L132.964 327.093C130.43 329.78 128.498 332.975 127.296 336.466C126.095 339.957 125.652 343.664 125.997 347.34C126.062 349.12 125.937 350.901 125.624 352.655C124.922 357.393 122.639 361.756 119.144 365.036C115.649 368.316 111.148 370.32 106.371 370.723C103.019 371.126 99.6202 370.762 96.4298 369.66C93.2395 368.557 90.3414 366.745 87.9544 364.36C85.5675 361.975 83.754 359.08 82.6508 355.892C81.5477 352.704 81.1838 349.307 81.5866 345.959C82.4365 341.488 84.5677 337.36 87.7213 334.077C90.8749 330.794 94.915 328.497 99.3506 327.465C100.729 327.159 102.141 327.034 103.552 327.093C107.353 327.234 111.141 326.574 114.669 325.154C118.197 323.735 121.386 321.589 124.029 318.856L146.048 295.526C148.743 292.605 150.715 289.092 151.805 285.271C152.895 281.45 153.072 277.427 152.323 273.525C151.631 270.195 151.631 266.758 152.323 263.428C153.321 256.958 156.309 250.959 160.875 246.263C165.44 241.568 171.356 238.41 177.799 237.228C180.79 236.601 183.867 236.493 186.894 236.909C190.927 237.362 195.01 236.872 198.822 235.48C202.634 234.087 206.07 231.83 208.86 228.885L218.646 218.256C220.434 216.757 221.678 214.711 222.187 212.435C222.697 210.159 222.443 207.779 221.465 205.661C218.013 199.48 216.202 192.519 216.202 185.441C216.202 178.362 218.013 171.401 221.465 165.22C222.401 163.529 222.767 161.582 222.509 159.668C222.25 157.753 221.38 155.973 220.029 154.591L208.86 142.74C206.041 139.834 202.601 137.603 198.797 136.214C194.993 134.824 190.924 134.312 186.894 134.716C183.867 135.132 180.79 135.024 177.799 134.397C171.309 133.322 165.334 130.198 160.749 125.483C156.165 120.769 153.212 114.711 152.323 108.197C151.951 104.842 151.951 101.456 152.323 98.1002C153.072 94.1981 152.895 90.1748 151.805 86.3537C150.715 82.5327 148.743 79.0204 146.048 76.0991C139.399 69.0842 130.677 59.8905 124.029 53.1414C121.392 50.4736 118.229 48.3826 114.741 47.0012C111.252 45.6198 107.515 44.9781 103.765 45.1168C102.357 45.1675 100.948 45.0605 99.5633 44.7979C95.1247 43.6801 91.0967 41.3221 87.9507 37.9998C84.8047 34.6775 82.671 30.5285 81.7993 26.0385C81.3253 22.7085 81.6351 19.314 82.7041 16.1247C83.773 12.9353 85.5716 10.0389 87.957 7.66578C90.3424 5.29262 93.2489 3.50803 96.4454 2.4538C99.642 1.39957 103.041 1.10476 106.371 1.59279ZM48.9838 104.903C49.3157 99.6434 47.7242 94.4429 44.5054 90.2687C41.2866 86.0944 36.6597 83.2308 31.4857 82.2105C28.2953 81.5695 25.0019 81.6484 21.8459 82.4413C18.6899 83.2343 15.7509 84.7214 13.2434 86.794C10.7359 88.8666 8.72314 91.4725 7.35209 94.4215C5.98103 97.3705 5.28624 100.588 5.31843 103.84V106.284C5.96012 111.599 8.50582 116.503 12.485 120.088C16.4641 123.673 21.6077 125.698 26.965 125.788H27.3373C31.267 125.735 35.163 126.518 38.7667 128.084C42.3705 129.651 45.5994 131.966 48.2392 134.875L70.9495 158.949C73.6829 161.905 75.654 165.483 76.6919 169.372C77.7299 173.261 77.8034 177.345 76.9062 181.269C76.5975 182.879 76.4726 184.519 76.5339 186.158C76.4578 187.797 76.5828 189.439 76.9062 191.047C77.7153 194.974 77.5983 199.036 76.5644 202.91C75.5305 206.784 73.6081 210.364 70.9495 213.367L47.2287 238.504C44.5863 241.164 41.4224 243.249 37.9354 244.63C34.4485 246.011 30.7136 246.657 26.965 246.528C25.5569 246.476 24.1473 246.583 22.7633 246.847C18.3639 247.965 14.3645 250.288 11.2163 253.556C8.06814 256.824 5.89642 260.906 4.94613 265.341C4.48715 268.705 4.81382 272.13 5.90057 275.348C6.98732 278.565 8.80464 281.488 11.2103 283.886C13.6159 286.285 16.5445 288.094 19.7667 289.173C22.989 290.252 26.4175 290.571 29.7838 290.105C34.4142 289.406 38.7127 287.286 42.0854 284.04C45.4582 280.794 47.7386 276.581 48.6115 271.984C48.9261 270.231 49.0509 268.449 48.9838 266.669C48.6145 262.992 49.046 259.278 50.2487 255.783C51.4513 252.288 53.3967 249.095 55.9511 246.422C62.9184 239.088 72.3323 228.991 79.3528 221.657C82.1713 218.784 85.6324 216.621 89.4513 215.346C93.2702 214.071 97.3375 213.721 101.318 214.324C104.976 214.813 108.694 214.564 112.254 213.593C115.814 212.621 119.142 210.947 122.043 208.667C124.944 206.388 127.358 203.551 129.142 200.324C130.926 197.097 132.045 193.545 132.432 189.878C132.898 185.982 132.532 182.031 131.358 178.286C130.183 174.542 128.227 171.089 125.618 168.155C123.009 165.222 119.807 162.875 116.223 161.27C112.64 159.665 108.756 158.837 104.829 158.842C103.548 158.856 102.277 159.053 101.053 159.427C97.0127 159.859 92.9275 159.36 89.1106 157.969C85.2937 156.578 81.8465 154.332 79.0337 151.403L59.1423 130.145C55.8547 127.114 53.2491 123.419 51.4978 119.305C49.7466 115.192 48.8897 110.753 48.9838 106.284V104.903ZM412.454 213.739H409.529C402.327 213.425 395.525 210.346 390.54 205.143C385.555 199.94 382.773 193.015 382.773 185.813C382.773 178.61 385.555 171.685 390.54 166.482C395.525 161.279 402.327 158.2 409.529 157.886H412.348C416.656 158.45 421.037 157.95 425.107 156.431C429.178 154.911 432.813 152.419 435.696 149.171L458.087 125.469C460.621 122.782 462.554 119.587 463.755 116.095C464.956 112.604 465.399 108.897 465.055 105.221C464.994 103.444 465.1 101.665 465.374 99.9071C466.081 95.224 468.315 90.9048 471.728 87.6189C475.142 84.333 479.545 82.2639 484.255 81.7322C487.613 81.2975 491.026 81.6387 494.231 82.7296C497.436 83.8204 500.348 85.6317 502.742 88.0241C505.137 90.4165 506.949 93.326 508.041 96.5286C509.133 99.7313 509.474 103.142 509.039 106.497C508.136 110.893 506.025 114.952 502.944 118.218C499.863 121.485 495.933 123.829 491.594 124.991C490.216 125.296 488.803 125.421 487.393 125.363C483.644 125.233 479.909 125.88 476.422 127.261C472.935 128.641 469.771 130.727 467.129 133.387C460.162 140.721 450.748 150.818 443.408 158.524C440.671 161.478 438.697 165.055 437.659 168.945C436.621 172.835 436.55 176.92 437.451 180.844C437.76 182.454 437.885 184.094 437.824 185.733C437.896 187.372 437.771 189.013 437.451 190.622C436.646 194.549 436.766 198.609 437.799 202.483C438.833 206.356 440.753 209.937 443.408 212.942L467.129 238.025C469.771 240.685 472.935 242.771 476.422 244.152C479.909 245.533 483.644 246.179 487.393 246.05C488.803 245.991 490.216 246.116 491.594 246.422C496.002 247.522 500.011 249.841 503.162 253.111C506.313 256.382 508.479 260.473 509.412 264.916C509.87 268.28 509.544 271.705 508.457 274.923C507.37 278.14 505.553 281.062 503.147 283.461C500.742 285.859 497.813 287.669 494.591 288.748C491.369 289.827 487.94 290.146 484.574 289.68C479.943 288.981 475.645 286.861 472.272 283.615C468.899 280.369 466.619 276.156 465.746 271.559C465.434 269.805 465.309 268.024 465.374 266.244C465.743 262.567 465.312 258.853 464.109 255.358C462.906 251.863 460.961 248.67 458.407 245.997C452.077 238.823 442.823 229.416 436.122 222.455C433.175 219.199 429.483 216.705 425.361 215.187C421.239 213.669 416.81 213.172 412.454 213.739Z" fill="#27CDAA"/>
</svg>
