<?xml version="1.0" encoding="UTF-8"?>
<!DOCTYPE svg PUBLIC "-//W3C//DTD SVG 1.1//EN" "http://www.w3.org/Graphics/SVG/1.1/DTD/svg11.dtd">
<svg xmlns="http://www.w3.org/2000/svg" version="1.1" width="512px" height="115px" style="shape-rendering:geometricPrecision; text-rendering:geometricPrecision; image-rendering:optimizeQuality; fill-rule:evenodd; clip-rule:evenodd" xmlns:xlink="http://www.w3.org/1999/xlink">
<g><path style="opacity:0.958" fill="#28333b" d="M 6.5,0.5 C 8.9892,0.297769 11.3225,0.797769 13.5,2C 14.9141,5.05541 16.0807,8.22207 17,11.5C 17.6891,12.3567 18.5224,13.0233 19.5,13.5C 37.5343,3.44348 55.8676,2.94348 74.5,12C 77.5728,16.5079 80.0728,16.3413 82,11.5C 82.3905,2.29189 86.7238,-0.0414437 95,4.5C 97.519,13.595 95.6857,21.7617 89.5,29C 98.0804,52.6487 98.5804,76.4821 91,100.5C 88.3768,109.472 82.5435,112.972 73.5,111C 70,108.833 67.1667,106 65,102.5C 53.671,105.134 42.3377,105.134 31,102.5C 27.3754,111.228 21.2088,113.728 12.5,110C 6.51511,103.736 3.01511,96.2359 2,87.5C -0.920927,68.5029 0.412406,49.8362 6,31.5C 6.79217,29.4127 7.95884,27.5793 9.5,26C 3.72147,19.4354 1.88813,11.9354 4,3.5C 4.69794,2.30943 5.53128,1.30943 6.5,0.5 Z"/></g>
<g><path style="opacity:1" fill="#9566bd" d="M 7.5,3.5 C 11.9757,3.82222 13.4757,6.15556 12,10.5C 8.71246,13.1206 6.87913,12.1206 6.5,7.5C 6.84572,6.15082 7.17905,4.81748 7.5,3.5 Z"/></g>
<g><path style="opacity:1" fill="#9b69c5" d="M 86.5,5.5 C 91.0057,4.52722 93.1724,6.19389 93,10.5C 87.5947,12.5777 85.428,10.9111 86.5,5.5 Z"/></g>
<g><path style="opacity:0.956" fill="#253138" d="M 170.5,8.5 C 175.794,7.62385 179.127,9.79052 180.5,15C 178.48,21.8368 174.313,23.3368 168,19.5C 165.827,15.1793 166.66,11.5126 170.5,8.5 Z"/></g>
<g><path style="opacity:0.956" fill="#253138" d="M 331.5,8.5 C 338.329,7.82771 341.163,10.8277 340,17.5C 337.947,21.2916 334.781,22.4582 330.5,21C 326.286,16.3615 326.619,12.1948 331.5,8.5 Z"/></g>
<g><path style="opacity:1" fill="#9d6ac6" d="M 68.5,12.5 C 83.9228,32.7072 88.2562,55.0406 81.5,79.5C 81.762,78.0222 81.4287,76.6888 80.5,75.5C 79.9471,80.4762 78.9471,85.3095 77.5,90C 70.4183,93.0614 67.2516,90.8947 68,83.5C 71.9595,80.2765 73.4595,76.2765 72.5,71.5C 71.3529,75.7817 69.1862,79.4484 66,82.5C 65.3333,85.1667 65.3333,87.8333 66,90.5C 66.7083,91.3805 67.5416,92.0472 68.5,92.5C 67.8478,93.7251 66.6811,94.3917 65,94.5C 61.6827,94.986 58.3493,95.3193 55,95.5C 47.8432,94.6226 40.6765,94.4559 33.5,95C 31.249,95.7475 29.9156,97.2475 29.5,99.5C 27.9808,102.021 26.3141,104.521 24.5,107C 18.2258,109.967 13.3924,108.467 10,102.5C 6.77799,95.5005 4.77799,88.1672 4,80.5C 2.11424,64.0704 3.78091,48.0704 9,32.5C 19.2081,12.8145 35.3748,4.98113 57.5,9C 61.2924,9.8757 64.9591,11.0424 68.5,12.5 Z"/></g>
<g><path style="opacity:0.982" fill="#253137" d="M 114.5,9.5 C 119.099,9.20001 123.599,9.53335 128,10.5C 132.203,24.1075 136.203,37.7742 140,51.5C 143.845,37.788 147.845,24.1213 152,10.5C 156.401,9.53335 160.901,9.20001 165.5,9.5C 159.643,29.2398 153.476,48.9064 147,68.5C 144.959,69.7522 142.625,70.4188 140,70.5C 137.576,70.4704 135.243,70.1371 133,69.5C 126.319,49.6268 120.153,29.6268 114.5,9.5 Z"/></g>
<g><path style="opacity:1" fill="#8c5fb2" d="M 68.5,12.5 C 80.5502,18.8708 88.0502,28.8708 91,42.5C 92.5477,55.7914 92.8811,69.1247 92,82.5C 91.2299,91.4298 88.3965,99.5964 83.5,107C 75.9175,110.574 70.7508,108.408 68,100.5C 67.1074,99.9186 66.1074,99.5852 65,99.5C 53.133,102.082 41.2997,102.082 29.5,99.5C 29.9156,97.2475 31.249,95.7475 33.5,95C 40.6765,94.4559 47.8432,94.6226 55,95.5C 58.3493,95.3193 61.6827,94.986 65,94.5C 66.6811,94.3917 67.8478,93.7251 68.5,92.5C 78.9563,94.7121 83.2896,90.3788 81.5,79.5C 88.2562,55.0406 83.9228,32.7072 68.5,12.5 Z"/></g>
<g><path style="opacity:0.985" fill="#253138" d="M 466.5,15.5 C 478.838,15.3335 491.171,15.5001 503.5,16C 505.286,16.7845 506.786,17.9512 508,19.5C 510.107,34.0517 510.773,48.7184 510,63.5C 508.878,65.6238 507.378,67.4571 505.5,69C 475.215,70.657 444.881,71.8236 414.5,72.5C 410.5,72.3333 406.5,72.1667 402.5,72C 399,71.1667 396.833,69 396,65.5C 395.194,51.8342 394.861,38.1675 395,24.5C 396.122,22.3762 397.622,20.5429 399.5,19C 421.906,17.3427 444.239,16.1761 466.5,15.5 Z M 475.5,27.5 C 476.329,35.3228 476.829,43.3228 477,51.5C 480.081,52.9961 480.247,54.6628 477.5,56.5C 475.566,56.0995 474.066,55.0995 473,53.5C 472.817,45.2547 472.317,37.088 471.5,29C 473.058,28.79 474.391,28.29 475.5,27.5 Z M 420.5,33.5 C 421.5,33.5 422.5,33.5 423.5,33.5C 423.5,35.1667 423.5,36.8333 423.5,38.5C 425.167,38.5 426.833,38.5 428.5,38.5C 428.5,39.5 428.5,40.5 428.5,41.5C 427.167,41.5 425.833,41.5 424.5,41.5C 424.335,45.1817 424.501,48.8484 425,52.5C 426.699,53.4061 428.533,53.7394 430.5,53.5C 430.67,54.8221 430.337,55.9887 429.5,57C 426.534,57.8952 423.867,57.3952 421.5,55.5C 420.761,51.5269 420.095,47.5269 419.5,43.5C 416.812,41.1273 416.979,39.1273 420,37.5C 420.49,36.2068 420.657,34.8734 420.5,33.5 Z M 485.5,36.5 C 489.308,36.1632 492.974,36.6632 496.5,38C 495.601,39.2362 494.434,40.0696 493,40.5C 490.046,38.8645 487.546,39.3645 485.5,42C 488.882,43.7455 492.382,45.2455 496,46.5C 497.379,50.4755 496.213,53.3088 492.5,55C 488.618,55.8901 484.952,55.3901 481.5,53.5C 482,52.5 482.5,51.5 483,50.5C 486.455,53.1858 489.622,53.0191 492.5,50C 492.355,49.228 492.022,48.5613 491.5,48C 488.494,47.6676 485.66,46.8343 483,45.5C 480.915,41.6749 481.748,38.6749 485.5,36.5 Z M 437.5,37.5 C 448.105,37.7892 451.605,43.1225 448,53.5C 444.319,56.3597 440.152,57.1931 435.5,56C 434.667,55.1667 433.833,54.3333 433,53.5C 432.333,49.5 432.333,45.5 433,41.5C 434.397,39.9297 435.897,38.5964 437.5,37.5 Z M 455.5,37.5 C 466.632,36.3631 470.798,41.3631 468,52.5C 463.281,57.3657 458.281,57.699 453,53.5C 450.41,47.5274 451.244,42.1941 455.5,37.5 Z M 410.5,52.5 C 414.161,52.3501 415.161,53.8501 413.5,57C 409.707,57.4866 408.707,55.9866 410.5,52.5 Z"/></g>
<g><path style="opacity:0.96" fill="#253138" d="M 191.5,15.5 C 194.833,15.5 198.167,15.5 201.5,15.5C 201.5,19.1667 201.5,22.8333 201.5,26.5C 204.833,26.5 208.167,26.5 211.5,26.5C 211.5,29.8333 211.5,33.1667 211.5,36.5C 208.167,36.5 204.833,36.5 201.5,36.5C 201.334,43.5079 201.5,50.5079 202,57.5C 205.442,59.7334 209.108,60.0668 213,58.5C 214.154,62.104 214.987,65.7707 215.5,69.5C 209.537,70.5304 203.537,70.6971 197.5,70C 193.217,68.2801 190.717,65.1134 190,60.5C 189.5,52.5069 189.334,44.5069 189.5,36.5C 187.833,36.5 186.167,36.5 184.5,36.5C 184.5,33.1667 184.5,29.8333 184.5,26.5C 186.467,26.7394 188.301,26.4061 190,25.5C 190.61,22.1727 191.11,18.8394 191.5,15.5 Z"/></g>
<g><path style="opacity:1" fill="#343c47" d="M 45.5,19.5 C 61.1488,19.9815 67.9821,27.9815 66,43.5C 64.8333,50 61,53.8333 54.5,55C 37.0754,57.5756 29.5754,50.0756 32,32.5C 34.4424,25.8884 38.9424,21.555 45.5,19.5 Z"/></g>
<g><path style="opacity:1" fill="#f2f3f3" d="M 44.5,22.5 C 58.9776,22.1029 65.1443,29.1029 63,43.5C 60.0529,51.7215 54.2196,54.8882 45.5,53C 41.5085,52.5877 38.3419,50.7544 36,47.5C 31.7284,36.4648 34.5618,28.1315 44.5,22.5 Z"/></g>
<g><path style="opacity:0.98" fill="#253138" d="M 231.5,25.5 C 238.724,24.5972 245.224,26.2639 251,30.5C 252.275,32.7173 253.275,35.0506 254,37.5C 254.5,48.495 254.667,59.495 254.5,70.5C 250.833,70.5 247.167,70.5 243.5,70.5C 243.5,69.5 243.5,68.5 243.5,67.5C 240.763,68.031 238.096,68.8644 235.5,70C 219.093,71.9371 213.26,65.1038 218,49.5C 220.342,46.2456 223.509,44.4123 227.5,44C 232.489,43.5007 237.489,43.3341 242.5,43.5C 243.026,40.1922 241.693,38.0255 238.5,37C 233.055,35.7812 228.222,36.9479 224,40.5C 221.011,37.5476 219.511,34.2143 219.5,30.5C 223.27,28.0283 227.27,26.3616 231.5,25.5 Z M 231.5,52.5 C 235.167,52.5 238.833,52.5 242.5,52.5C 242.785,54.288 242.452,55.9547 241.5,57.5C 237.62,59.4857 233.62,59.819 229.5,58.5C 227.981,55.7232 228.648,53.7232 231.5,52.5 Z"/></g>
<g><path style="opacity:0.975" fill="#253138" d="M 279.5,25.5 C 285.369,25.0657 290.202,27.0657 294,31.5C 301.414,24.6186 309.247,23.952 317.5,29.5C 319.48,31.7948 320.647,34.4615 321,37.5C 321.5,48.495 321.667,59.495 321.5,70.5C 317.5,70.5 313.5,70.5 309.5,70.5C 309.666,60.4944 309.5,50.4944 309,40.5C 308.424,38.1484 306.924,37.1484 304.5,37.5C 301.724,37.8047 299.224,38.8047 297,40.5C 296.5,50.4944 296.334,60.4944 296.5,70.5C 292.5,70.5 288.5,70.5 284.5,70.5C 284.666,60.4944 284.5,50.4944 284,40.5C 283.424,38.1484 281.924,37.1484 279.5,37.5C 276.724,37.8047 274.224,38.8047 272,40.5C 271.5,50.4944 271.334,60.4944 271.5,70.5C 267.5,70.5 263.5,70.5 259.5,70.5C 259.5,55.8333 259.5,41.1667 259.5,26.5C 263.226,26.1774 266.893,26.5108 270.5,27.5C 270.808,28.3081 271.308,28.9747 272,29.5C 274.514,27.9958 277.014,26.6624 279.5,25.5 Z"/></g>
<g><path style="opacity:0.973" fill="#253138" d="M 368.5,25.5 C 372.702,25.3839 376.702,26.2173 380.5,28C 382.041,29.5793 383.208,31.4127 384,33.5C 385.439,45.7581 385.939,58.0915 385.5,70.5C 381.5,70.5 377.5,70.5 373.5,70.5C 373.666,60.4944 373.5,50.4944 373,40.5C 372.242,38.0904 370.575,37.0904 368,37.5C 364.929,37.7838 362.095,38.7838 359.5,40.5C 358.501,50.4778 358.168,60.4778 358.5,70.5C 354.5,70.5 350.5,70.5 346.5,70.5C 346.5,55.8333 346.5,41.1667 346.5,26.5C 350.182,26.3347 353.848,26.5014 357.5,27C 358.126,27.7504 358.626,28.5838 359,29.5C 362.139,27.8502 365.306,26.5169 368.5,25.5 Z"/></g>
<g><path style="opacity:1" fill="#2b373c" d="M 44.5,27.5 C 55.4903,25.9918 60.3236,30.6585 59,41.5C 52.3642,51.9151 45.5308,52.0817 38.5,42C 40.8008,39.8442 43.4675,38.1776 46.5,37C 44.1578,35.8289 41.8244,34.6622 39.5,33.5C 41.1897,31.4807 42.8564,29.4807 44.5,27.5 Z"/></g>
<g><path style="opacity:0.917" fill="#253137" d="M 167.5,26.5 C 171.5,26.5 175.5,26.5 179.5,26.5C 179.5,41.1667 179.5,55.8333 179.5,70.5C 175.5,70.5 171.5,70.5 167.5,70.5C 167.5,55.8333 167.5,41.1667 167.5,26.5 Z"/></g>
<g><path style="opacity:0.989" fill="#263137" d="M 327.5,26.5 C 331.5,26.5 335.5,26.5 339.5,26.5C 339.5,41.1667 339.5,55.8333 339.5,70.5C 335.5,70.5 331.5,70.5 327.5,70.5C 327.5,55.8333 327.5,41.1667 327.5,26.5 Z"/></g>
<g><path style="opacity:0.942" fill="#253138" d="M 437.5,41.5 C 440.044,41.1043 442.211,41.771 444,43.5C 445.004,46.9926 444.504,50.1592 442.5,53C 440.299,53.8249 438.466,53.3249 437,51.5C 436.253,48.0764 436.42,44.7431 437.5,41.5 Z"/></g>
<g><path style="opacity:0.992" fill="#253138" d="M 458.5,40.5 C 464.098,41.5073 465.931,44.8406 464,50.5C 461.925,52.6483 459.592,52.9817 457,51.5C 454.517,47.3101 455.017,43.6435 458.5,40.5 Z"/></g>
<g><path style="opacity:1" fill="#373d4b" d="M 66.5,59.5 C 64.6316,60.2632 62.9649,61.2632 61.5,62.5C 60.391,62.5569 59.391,62.8902 58.5,63.5C 56.597,63.7959 54.9303,64.4625 53.5,65.5C 52.5,65.5 51.5,65.5 50.5,65.5C 48.8333,65.5 47.1667,65.5 45.5,65.5C 44.4324,64.5655 43.099,64.2322 41.5,64.5C 40.0413,64.5674 38.7079,64.2341 37.5,63.5C 34.3232,62.5527 31.3232,61.2193 28.5,59.5C 29.1667,59.1667 29.8333,58.8333 30.5,58.5C 39.13,62.2551 48.13,63.4217 57.5,62C 61.8734,60.2869 65.7067,57.7869 69,54.5C 68.9421,56.4354 68.1088,58.1021 66.5,59.5 Z"/></g>
<g><path style="opacity:1" fill="#ede6f3" d="M 66.5,59.5 C 66.7989,61.604 66.4656,63.604 65.5,65.5C 62.5717,66.9209 61.2384,65.9209 61.5,62.5C 62.9649,61.2632 64.6316,60.2632 66.5,59.5 Z"/></g>
<g><path style="opacity:1" fill="#f5f0f9" d="M 37.5,63.5 C 38.7079,64.2341 40.0413,64.5674 41.5,64.5C 41.5,65.5 41.5,66.5 41.5,67.5C 38.5,67.8333 37.1667,66.5 37.5,63.5 Z"/></g>
<g><path style="opacity:1" fill="#e9e3ef" d="M 58.5,63.5 C 59.2634,67.1378 57.9301,68.6378 54.5,68C 53.7476,67.3292 53.4142,66.4959 53.5,65.5C 54.9303,64.4625 56.597,63.7959 58.5,63.5 Z"/></g>
<g><path style="opacity:1" fill="#f7f2fa" d="M 45.5,65.5 C 47.1667,65.5 48.8333,65.5 50.5,65.5C 49.9517,68.0838 48.285,69.0838 45.5,68.5C 45.5,67.5 45.5,66.5 45.5,65.5 Z"/></g>
<g><path style="opacity:1" fill="#303744" d="M 81.5,79.5 C 83.2896,90.3788 78.9563,94.7121 68.5,92.5C 67.5416,92.0472 66.7083,91.3805 66,90.5C 65.3333,87.8333 65.3333,85.1667 66,82.5C 69.1862,79.4484 71.3529,75.7817 72.5,71.5C 73.4595,76.2765 71.9595,80.2765 68,83.5C 67.2516,90.8947 70.4183,93.0614 77.5,90C 78.9471,85.3095 79.9471,80.4762 80.5,75.5C 81.4287,76.6888 81.762,78.0222 81.5,79.5 Z"/></g>
<g><path style="opacity:1" fill="#323846" d="M 16.5,75.5 C 15.9589,80.449 16.7922,85.1156 19,89.5C 21.9495,92.1445 24.7829,92.1445 27.5,89.5C 28.9468,88.8658 29.6134,87.6991 29.5,86C 27.7283,82.8716 25.8949,79.7049 24,76.5C 23.3333,74.8333 23.3333,73.1667 24,71.5C 25.2919,76.0807 27.6253,80.0807 31,83.5C 31.9854,92.121 28.1521,95.2877 19.5,93C 14.2388,87.7628 13.2388,81.9295 16.5,75.5 Z"/></g>
<g><path style="opacity:1" fill="#805aa3" d="M 16.5,75.5 C 16.5712,80.5373 18.2378,85.0373 21.5,89C 23.4727,89.4955 25.4727,89.6621 27.5,89.5C 24.7829,92.1445 21.9495,92.1445 19,89.5C 16.7922,85.1156 15.9589,80.449 16.5,75.5 Z"/></g>
<g><path style="opacity:0.902" fill="#253137" d="M 133.5,86.5 C 134.822,86.33 135.989,86.6634 137,87.5C 138.333,90.1667 139.667,92.8333 141,95.5C 142.167,93.1667 143.333,90.8333 144.5,88.5C 145.833,87.1667 147.167,87.1667 148.5,88.5C 144.454,94.2417 142.454,100.575 142.5,107.5C 141.5,107.5 140.5,107.5 139.5,107.5C 139.664,104.813 139.497,102.146 139,99.5C 136.597,95.3653 134.763,91.0319 133.5,86.5 Z"/></g>
<g><path style="opacity:0.926" fill="#253138" d="M 153.5,86.5 C 154.833,86.5 156.167,86.5 157.5,86.5C 159.531,93.4266 161.864,100.26 164.5,107C 162.051,107.775 160.384,106.942 159.5,104.5C 158.167,104.167 156.833,103.833 155.5,103.5C 152.481,104.309 149.815,105.642 147.5,107.5C 149.494,100.517 151.494,93.5169 153.5,86.5 Z M 154.5,94.5 C 156.185,95.1837 157.185,96.517 157.5,98.5C 156.167,99.8333 154.833,99.8333 153.5,98.5C 154.246,97.2638 154.579,95.9305 154.5,94.5 Z"/></g>
<g><path style="opacity:0.94" fill="#253138" d="M 170.5,86.5 C 173.206,86.5751 175.873,86.9084 178.5,87.5C 178.54,91.4685 176.874,92.4685 173.5,90.5C 171.626,90.3898 170.126,91.0564 169,92.5C 168.044,96.572 168.544,100.405 170.5,104C 174.547,105.148 176.547,103.648 176.5,99.5C 175.167,99.5 173.833,99.5 172.5,99.5C 172.5,98.5 172.5,97.5 172.5,96.5C 174.833,96.5 177.167,96.5 179.5,96.5C 179.784,99.7766 179.451,102.943 178.5,106C 173.962,108.303 169.795,107.803 166,104.5C 165.333,99.8333 165.333,95.1667 166,90.5C 167.25,88.8065 168.75,87.4732 170.5,86.5 Z"/></g>
<g><path style="opacity:0.917" fill="#263138" d="M 182.5,86.5 C 183.5,86.5 184.5,86.5 185.5,86.5C 185.5,92.5 185.5,98.5 185.5,104.5C 189.351,103.971 192.851,104.638 196,106.5C 197.91,99.4168 200.577,92.7502 204,86.5C 205.653,86.8198 206.653,87.8198 207,89.5C 209.149,95.445 210.983,101.445 212.5,107.5C 209.5,107.833 208.167,106.5 208.5,103.5C 205.753,103.187 203.086,103.52 200.5,104.5C 200.167,105.167 199.833,105.833 199.5,106.5C 193.872,107.495 188.206,107.829 182.5,107.5C 182.5,100.5 182.5,93.5 182.5,86.5 Z M 203.5,93.5 C 205.043,94.7358 206.043,96.4024 206.5,98.5C 205.311,99.4287 203.978,99.762 202.5,99.5C 202.833,97.5 203.167,95.5 203.5,93.5 Z"/></g>
<g><path style="opacity:0.951" fill="#253237" d="M 242.5,86.5 C 243.5,86.5 244.5,86.5 245.5,86.5C 245.5,92.5 245.5,98.5 245.5,104.5C 249.167,104.5 252.833,104.5 256.5,104.5C 256.5,105.5 256.5,106.5 256.5,107.5C 251.833,107.5 247.167,107.5 242.5,107.5C 242.5,100.5 242.5,93.5 242.5,86.5 Z"/></g>
<g><path style="opacity:0.942" fill="#253138" d="M 257.5,86.5 C 260.518,86.3354 263.518,86.502 266.5,87C 271.218,88.4486 272.718,91.6153 271,96.5C 268.103,99.2309 264.603,100.231 260.5,99.5C 260.5,102.167 260.5,104.833 260.5,107.5C 259.5,107.5 258.5,107.5 257.5,107.5C 257.5,100.5 257.5,93.5 257.5,86.5 Z M 260.5,90.5 C 263.916,89.8941 266.582,90.8941 268.5,93.5C 266.575,96.172 263.908,97.172 260.5,96.5C 260.5,94.5 260.5,92.5 260.5,90.5 Z"/></g>
<g><path style="opacity:0.906" fill="#253237" d="M 353.5,89.5 C 354.5,89.5 355.5,89.5 356.5,89.5C 356.5,90.5 356.5,91.5 356.5,92.5C 357.833,92.5 359.167,92.5 360.5,92.5C 360.5,93.5 360.5,94.5 360.5,95.5C 359.167,95.5 357.833,95.5 356.5,95.5C 356.336,98.1873 356.503,100.854 357,103.5C 358.356,104.38 359.856,104.714 361.5,104.5C 361.5,105.5 361.5,106.5 361.5,107.5C 358.881,107.768 356.381,107.435 354,106.5C 353.95,102.141 353.117,97.9739 351.5,94C 352.707,92.6998 353.374,91.1998 353.5,89.5 Z"/></g>
<g><path style="opacity:0.964" fill="#263138" d="M 225.5,91.5 C 226.496,91.4142 227.329,91.7476 228,92.5C 228.494,94.1341 228.66,95.8008 228.5,97.5C 230.167,97.5 231.833,97.5 233.5,97.5C 233.5,98.5 233.5,99.5 233.5,100.5C 231.833,100.5 230.167,100.5 228.5,100.5C 228.5,102.167 228.5,103.833 228.5,105.5C 227.5,105.5 226.5,105.5 225.5,105.5C 225.5,103.833 225.5,102.167 225.5,100.5C 223.833,100.5 222.167,100.5 220.5,100.5C 220.5,99.5 220.5,98.5 220.5,97.5C 222.167,97.5 223.833,97.5 225.5,97.5C 225.5,95.5 225.5,93.5 225.5,91.5 Z"/></g>
<g><path style="opacity:0.891" fill="#253138" d="M 289.5,92.5 C 296.5,91.5 299.5,94.5 298.5,101.5C 295.482,101.335 292.482,101.502 289.5,102C 290.09,103.299 291.09,104.132 292.5,104.5C 294.701,103.131 296.701,103.298 298.5,105C 295.569,107.681 292.235,108.181 288.5,106.5C 285.607,101.548 285.941,96.8813 289.5,92.5 Z M 290.5,95.5 C 292.665,95.1159 294.332,95.7826 295.5,97.5C 293.579,98.641 291.579,98.8077 289.5,98C 290.252,97.3292 290.586,96.4959 290.5,95.5 Z"/></g>
<g><path style="opacity:0.893" fill="#253238" d="M 300.5,92.5 C 303.684,92.8331 307.018,92.9998 310.5,93C 311,93.5 311.5,94 312,94.5C 312.499,98.8206 312.666,103.154 312.5,107.5C 311.5,107.5 310.5,107.5 309.5,107.5C 309.665,103.818 309.499,100.152 309,96.5C 307.542,95.2532 306.042,95.2532 304.5,96.5C 303.511,100.107 303.177,103.774 303.5,107.5C 302.5,107.5 301.5,107.5 300.5,107.5C 300.5,102.5 300.5,97.5 300.5,92.5 Z"/></g>
<g><path style="opacity:0.866" fill="#253138" d="M 317.5,92.5 C 324.5,91.5 327.5,94.5 326.5,101.5C 323.428,101.183 320.428,101.516 317.5,102.5C 318,103.881 319,104.547 320.5,104.5C 322.701,103.131 324.701,103.298 326.5,105C 323.569,107.681 320.235,108.181 316.5,106.5C 313.607,101.548 313.941,96.8813 317.5,92.5 Z M 318.5,95.5 C 320.716,95.2746 322.383,96.1079 323.5,98C 321.421,98.8077 319.421,98.641 317.5,97.5C 317.863,96.8165 318.196,96.1499 318.5,95.5 Z"/></g>
<g><path style="opacity:0.941" fill="#243138" d="M 328.5,92.5 C 331.458,93.5411 334.458,93.5411 337.5,92.5C 337.254,95.4701 335.588,96.8034 332.5,96.5C 332.5,100.167 332.5,103.833 332.5,107.5C 331.167,107.5 329.833,107.5 328.5,107.5C 328.5,102.5 328.5,97.5 328.5,92.5 Z"/></g>
<g><path style="opacity:0.89" fill="#263138" d="M 340.5,92.5 C 343.685,92.0196 346.519,92.6863 349,94.5C 349.499,98.8206 349.666,103.154 349.5,107.5C 346.316,107.167 342.982,107 339.5,107C 336.833,104.333 336.833,101.667 339.5,99C 341.9,98.8142 344.234,98.3142 346.5,97.5C 346,96.1195 345,95.4528 343.5,95.5C 338.986,96.9982 337.986,95.9982 340.5,92.5 Z M 341.5,101.5 C 346.96,101.461 347.46,102.461 343,104.5C 340.72,104.106 340.22,103.106 341.5,101.5 Z"/></g>
<g><path style="opacity:0.91" fill="#253138" d="M 274.5,92.5 C 277.993,92.9975 281.326,92.9975 284.5,92.5C 284.666,98.5092 284.499,104.509 284,110.5C 280.384,114.323 276.551,114.489 272.5,111C 273.108,110.13 273.941,109.63 275,109.5C 277.881,111.151 280.048,110.484 281.5,107.5C 279.43,107.448 277.097,107.281 274.5,107C 271.864,102.167 271.864,97.3341 274.5,92.5 Z M 276.5,95.5 C 281.317,96.2373 282.65,98.904 280.5,103.5C 278.958,104.747 277.458,104.747 276,103.5C 275.278,100.739 275.445,98.0728 276.5,95.5 Z"/></g>
<g><path style="opacity:0.898" fill="#253138" d="M 365.5,92.5 C 368.602,92.154 371.435,92.8207 374,94.5C 374.793,98.423 374.626,102.256 373.5,106C 362.996,109.155 359.496,105.322 363,94.5C 363.995,93.9341 364.828,93.2674 365.5,92.5 Z M 366.5,95.5 C 368.144,95.2865 369.644,95.6198 371,96.5C 371.769,99.0991 371.602,101.599 370.5,104C 368.888,104.72 367.388,104.554 366,103.5C 365.278,100.739 365.445,98.0728 366.5,95.5 Z"/></g>
<g><path style="opacity:0.835" fill="#253138" d="M 377.5,92.5 C 380.062,93.3715 382.728,93.3715 385.5,92.5C 385.254,95.4701 383.588,96.8034 380.5,96.5C 380.5,100.167 380.5,103.833 380.5,107.5C 379.5,107.5 378.5,107.5 377.5,107.5C 377.5,102.5 377.5,97.5 377.5,92.5 Z"/></g>
</svg>
