<?xml version="1.0" encoding="utf-8"?>
<svg xmlns="http://www.w3.org/2000/svg" xmlns:xlink="http://www.w3.org/1999/xlink" viewBox="0 0 800 160">
	<rect fill="#2b3031" x="0" y="0" width="800" height="160" />

	<g transform="matrix(1.3333333,0,0,-1.3333333,67,116)">
		<g transform="translate(46.4649,0.0117)"><path fill="#ffffff" d="M 0,0 C -3.185,0 -5.766,2.581 -5.766,5.766 V 22.753 L -15.084,3.44 c -0.96,-1.991 -2.974,-3.257 -5.184,-3.26 h -0.008 c -2.208,0 -4.222,1.261 -5.186,3.246 l -9.471,19.491 V 5.766 C -34.933,2.581 -37.515,0 -40.699,0 c -3.184,0 -5.766,2.581 -5.766,5.766 v 42.211 c 0,2.685 1.856,5.016 4.474,5.619 2.615,0.596 5.305,-0.682 6.478,-3.1 l 15.218,-31.318 15.102,31.304 c 1.168,2.42 3.859,3.7 6.478,3.116 2.621,-0.6 4.481,-2.934 4.481,-5.621 V 5.766 C 5.766,2.581 3.184,0 0,0" /></g>
		<g transform="translate(123.3438,27.6641)"><path fill="#ffffff" d="m 0,0 h 13.694 c 2.014,0 3.439,0.422 4.234,1.258 1.267,1.332 1.185,3.742 1.184,3.767 -0.004,0.093 -0.013,0.284 -0.013,0.38 v 2.579 c 0,2.114 -0.463,3.635 -1.378,4.516 -1.263,1.217 -3.469,1.428 -4.199,1.379 -0.073,-0.002 -0.235,-0.008 -0.308,-0.008 H 0 Z m -5.766,-27.652 c -3.184,0 -5.766,2.581 -5.766,5.765 v 41.524 c 0,3.183 2.582,5.765 5.766,5.765 h 18.847 c 1.482,0.065 7.719,0.006 12.481,-4.447 2.312,-2.163 5.069,-6.169 5.069,-12.971 V 5.565 c 0.072,-1.528 0.048,-7.494 -4.197,-12.091 -2.105,-2.284 -6.026,-5.006 -12.74,-5.006 H 0 v -10.355 c 0,-3.184 -2.582,-5.765 -5.766,-5.765" /></g>
		<g transform="translate(65.8032,0.0117)"><path fill="#ffffff" d="m 0,0 c -0.626,0 -1.26,0.101 -1.875,0.312 -2.327,0.802 -3.889,2.993 -3.889,5.454 v 41.532 c 0,3.184 2.581,5.765 5.765,5.765 3.185,0 5.767,-2.581 5.767,-5.765 V 22.517 l 22.123,28.328 c 1.513,1.942 4.089,2.708 6.42,1.906 2.327,-0.802 3.889,-2.993 3.889,-5.453 V 5.766 C 38.2,2.581 35.619,0 32.435,0 29.25,0 26.668,2.581 26.668,5.766 V 30.547 L 4.546,2.218 C 3.432,0.791 1.743,0 0,0" /></g>
		<g transform="translate(203.0845,8.8291)"><path fill="#5ac654" d="M 0,0 -14.847,23.675 -3.508,34.71 c 2.282,2.222 2.331,5.873 0.11,8.154 -2.223,2.285 -5.873,2.334 -8.153,0.113 L -31.354,23.705 v 15.184 c 0,3.184 -2.581,5.765 -5.765,5.765 -3.184,0 -5.766,-2.581 -5.766,-5.765 V -3.052 c 0,-3.184 2.582,-5.765 5.766,-5.765 3.184,0 5.765,2.581 5.765,5.765 V 7.609 l 8.056,7.841 13.528,-21.576 c 1.096,-1.746 2.971,-2.703 4.891,-2.703 1.046,0 2.106,0.284 3.057,0.881 C 0.877,-6.256 1.692,-2.697 0,0" /></g>
		<g transform="translate(317.8218,27.6641)"><path fill="#5ac654" d="m 0,0 h 13.693 c 2.014,0 3.438,0.422 4.235,1.258 C 19.195,2.59 19.113,5 19.113,5.025 19.107,5.118 19.1,5.309 19.1,5.405 v 2.579 c 0,2.114 -0.465,3.635 -1.377,4.516 -1.265,1.217 -3.475,1.428 -4.201,1.379 -0.074,-0.002 -0.237,-0.008 -0.31,-0.008 H 0 Z m -5.766,-27.652 c -3.184,0 -5.766,2.581 -5.766,5.765 v 41.524 c 0,3.183 2.582,5.765 5.766,5.765 h 18.849 c 1.478,0.065 7.72,0.006 12.478,-4.447 2.314,-2.163 5.07,-6.169 5.07,-12.971 V 5.565 c 0.07,-1.528 0.048,-7.494 -4.197,-12.091 -2.107,-2.284 -6.026,-5.006 -12.741,-5.006 H 0 v -10.355 c 0,-3.184 -2.582,-5.765 -5.766,-5.765" /></g>
		<g transform="translate(469.5357,27.6641)"><path fill="#5ac654" d="m 0,0 h 13.693 c 2.014,0 3.439,0.422 4.235,1.258 C 19.195,2.59 19.113,5 19.113,5.025 19.107,5.118 19.1,5.309 19.1,5.405 v 2.579 c 0,2.114 -0.465,3.635 -1.377,4.516 -1.265,1.217 -3.454,1.428 -4.201,1.379 -0.073,-0.002 -0.237,-0.008 -0.31,-0.008 H 0 Z m -5.766,-27.652 c -3.184,0 -5.766,2.581 -5.766,5.765 v 41.524 c 0,3.183 2.582,5.765 5.766,5.765 h 18.849 c 1.47,0.065 7.72,0.006 12.478,-4.447 2.314,-2.163 5.07,-6.169 5.07,-12.971 V 5.565 c 0.07,-1.528 0.048,-7.494 -4.197,-12.091 -2.107,-2.284 -6.026,-5.006 -12.741,-5.006 H 0 v -10.355 c 0,-3.184 -2.582,-5.765 -5.766,-5.765" /></g>
		<g transform="translate(411.9956,0.0117)"><path fill="#5ac654" d="m 0,0 c -0.628,0 -1.259,0.101 -1.875,0.312 -2.329,0.802 -3.889,2.993 -3.889,5.454 v 41.532 c 0,3.184 2.58,5.765 5.766,5.765 3.182,0 5.767,-2.581 5.767,-5.765 V 22.517 l 22.123,28.328 c 1.511,1.942 4.093,2.708 6.419,1.906 2.325,-0.802 3.89,-2.993 3.89,-5.453 V 5.766 C 38.201,2.581 35.617,0 32.436,0 29.248,0 26.67,2.581 26.67,5.766 V 30.547 L 4.547,2.218 C 3.432,0.791 1.742,0 0,0" /></g>
		<g transform="translate(220.0415,32.9336)"><path fill="#5ac654" d="m 0,0 h 11.802 c 0.049,0 0.097,0.003 0.145,0.006 0.25,0.042 0.507,0.067 0.767,0.076 2.758,0.45 2.758,2.686 2.758,4.59 0,3.363 -2.536,3.912 -4.046,3.937 H 0 Z m 0,-21.25 h 12.793 c 2.462,0.104 5.584,1.16 5.584,5.583 0,6.418 -6.468,5.761 -6.63,5.751 H 0 Z m -5.766,-11.531 c -3.184,0 -5.766,2.581 -5.766,5.765 v 41.392 c 0,3.184 2.582,5.766 5.766,5.766 h 17.297 c 6.283,-0.113 15.472,-4.328 15.472,-15.47 0,-3.492 -1.317,-6.19 -2.471,-8.14 0.12,-0.112 5.377,-2.723 5.377,-12.199 0,-12.362 -10.182,-17.008 -17.026,-17.114 z" /></g>
		<g transform="translate(271.5454,23.3369)"><path fill="#5ac654" d="M 0,0 4.904,11.855 9.809,0 Z M 29.257,-15.046 10.158,27.235 c -0.934,2.067 -2.99,3.393 -5.254,3.393 -2.268,0 -4.324,-1.326 -5.256,-3.393 l -19.099,-42.281 c -1.311,-2.902 -0.022,-6.317 2.88,-7.627 2.9,-1.314 6.317,-0.019 7.63,2.881 l 3.733,8.26 h 20.226 l 3.729,-8.26 c 0.963,-2.132 3.061,-3.395 5.257,-3.395 0.794,0.002 1.601,0.166 2.37,0.514 2.906,1.31 4.195,4.725 2.883,7.627" /></g>
		<g transform="translate(394.396,53.0752)"><path fill="#5ac654" d="m 0,0 h -37.838 c -3.182,0 -5.765,-2.581 -5.765,-5.766 0,-3.184 2.583,-5.766 5.765,-5.766 h 13.153 v -35.766 c 0,-3.184 2.585,-5.765 5.766,-5.765 3.188,0 5.766,2.581 5.766,5.765 v 35.766 H 0 c 3.188,0 5.767,2.582 5.767,5.766 C 5.767,-2.581 3.188,0 0,0" /></g>
	</g>
</svg>