<?xml version="1.0" encoding="UTF-8" standalone="no"?>
<svg
   xmlns:dc="http://purl.org/dc/elements/1.1/"
   xmlns:cc="http://creativecommons.org/ns#"
   xmlns:rdf="http://www.w3.org/1999/02/22-rdf-syntax-ns#"
   xmlns:svg="http://www.w3.org/2000/svg"
   xmlns="http://www.w3.org/2000/svg"
   viewBox="0 0 793.70135 916.17334"
   height="916.17334"
   width="793.70135"
   xml:space="preserve"
   id="svg2"
   version="1.1"><metadata
     id="metadata8"><rdf:RDF><cc:Work
         rdf:about=""><dc:format>image/svg+xml</dc:format><dc:type
           rdf:resource="http://purl.org/dc/dcmitype/StillImage" /></cc:Work></rdf:RDF></metadata><defs
     id="defs6"><clipPath
       id="clipPath24"
       clipPathUnits="userSpaceOnUse"><path
         id="path22"
         d="M 0,687.13 H 595.276 V 0 H 0 Z" /></clipPath></defs><g
     transform="matrix(1.3333333,0,0,-1.3333333,0,916.17333)"
     id="g10"><path
       id="path12"
       style="fill:#e54b4b;fill-opacity:1;fill-rule:evenodd;stroke:none"
       d="M 6.424,620.46 H 109.82 V 62.742 H 6.424 Z" /><g
       transform="translate(422.7598,382.3207)"
       id="g14"><path
         id="path16"
         style="fill:#e54b4b;fill-opacity:1;fill-rule:evenodd;stroke:none"
         d="M 0,0 H 57.548 L 26.561,-37.996 57.548,-76.361 H 0 l -29.143,38.365 z" /></g><g
       id="g18"><g
         clip-path="url(#clipPath24)"
         id="g20"><g
           transform="translate(402.0957,554.7963)"
           id="g26"><path
             id="path28"
             style="fill:#e54b4b;fill-opacity:1;fill-rule:evenodd;stroke:none"
             d="m 0,0 c 105.62,-10.232 188.245,-100.109 188.245,-209.448 0,-66.785 -30.832,-126.303 -78.895,-164.851 v -117.93 H -0.211 v 124.318 H 0 v 46.92 c 52.385,9.583 92.129,55.882 92.129,111.543 0,55.66 -39.744,101.964 -92.129,111.547 z" /></g><g
           transform="translate(386.3809,62.1976)"
           id="g30"><path
             id="path32"
             style="fill:#527db1;fill-opacity:1;fill-rule:evenodd;stroke:none"
             d="m 0,0 c -121.883,3.422 -224.041,85.54 -257.168,197.186 h -46.293 l -40.948,32.196 42.423,29.842 h 33.97 c -0.314,5.378 -0.492,10.792 -0.492,16.248 0,2.283 0.031,4.558 0.087,6.828 h -35.04 l -40.948,32.196 42.423,29.842 h 42.194 C -229.72,460.827 -125.161,547.531 0.226,550.95 L 0.127,454.975 c -71.681,-3.043 -132.537,-47.852 -158.7,-110.637 H -5.411 V 282.3 h -166.738 c -0.085,-2.267 -0.143,-4.54 -0.143,-6.828 0,-5.477 0.26,-10.895 0.742,-16.248 H -5.411 V 197.186 H -154.31 C -126.166,139.327 -67.805,98.783 0.318,95.962 Z" /></g><g
           transform="translate(39.5439,637.9017)"
           id="g34"><path
             id="path36"
             style="fill:#333333;fill-opacity:1;fill-rule:nonzero;stroke:none"
             d="M 0,0 H -8.392 V 14.593 H -21.814 V 0 h -8.417 v 36.258 h 8.417 V 21.067 H -8.392 V 36.258 H 0 Z" /></g><g
           transform="translate(67.061,659.3422)"
           id="g38"><path
             id="path40"
             style="fill:#333333;fill-opacity:1;fill-rule:nonzero;stroke:none"
             d="m 0,0 c 0,2.59 -0.61,4.715 -1.831,6.375 -1.219,1.66 -2.942,2.49 -5.167,2.49 -2.274,0 -4.013,-0.826 -5.216,-2.477 C -13.418,4.735 -14.02,2.606 -14.02,0 v -6.574 c 0,-2.623 0.61,-4.765 1.83,-6.425 1.221,-1.66 2.967,-2.49 5.242,-2.49 2.208,0 3.918,0.83 5.13,2.49 1.212,1.66 1.818,3.802 1.818,6.425 z m 8.392,-6.574 c 0,-4.466 -1.415,-8.148 -4.246,-11.044 -2.831,-2.898 -6.528,-4.346 -11.094,-4.346 -4.598,0 -8.326,1.448 -11.181,4.346 -2.855,2.896 -4.283,6.578 -4.283,11.044 v 6.524 c 0,4.449 1.423,8.127 4.271,11.032 2.847,2.905 6.561,4.358 11.143,4.358 4.549,0 8.251,-1.453 11.107,-4.358 C 6.964,8.077 8.392,4.399 8.392,-0.05 Z" /></g><g
           transform="translate(89,644.3763)"
           id="g42"><path
             id="path44"
             style="fill:#333333;fill-opacity:1;fill-rule:nonzero;stroke:none"
             d="M 0,0 H 15.564 V -6.475 H -8.417 V 29.783 H 0 Z" /></g><g
           transform="translate(117.4883,667.6849)"
           id="g46"><path
             id="path48"
             style="fill:#333333;fill-opacity:1;fill-rule:nonzero;stroke:none"
             d="m 0,0 v -23.309 h 4.856 c 1.909,0 3.482,0.781 4.719,2.341 1.237,1.56 1.855,3.577 1.855,6.051 v 6.574 c 0,2.441 -0.618,4.442 -1.855,6.002 C 8.338,-0.781 6.765,0 4.856,0 Z M -8.417,-29.783 V 6.475 H 4.856 c 4.267,0 7.835,-1.391 10.708,-4.171 2.872,-2.782 4.308,-6.347 4.308,-10.697 v -6.524 c 0,-4.366 -1.436,-7.936 -4.308,-10.708 -2.873,-2.772 -6.441,-4.158 -10.708,-4.158 z" /></g><path
           id="path50"
           style="fill:#333333;fill-opacity:1;fill-rule:nonzero;stroke:none"
           d="m 151.306,637.902 h -8.392 v 36.258 h 8.392 z" /><g
           transform="translate(187.8374,637.9017)"
           id="g52"><path
             id="path54"
             style="fill:#333333;fill-opacity:1;fill-rule:nonzero;stroke:none"
             d="m 0,0 h -8.392 l -13.273,22.811 -0.149,-0.05 V 0 h -8.417 v 36.258 h 8.417 l 13.272,-22.786 0.15,0.049 V 36.258 H 0 Z" /></g><g
           transform="translate(222.2524,642.9066)"
           id="g56"><path
             id="path58"
             style="fill:#333333;fill-opacity:1;fill-rule:nonzero;stroke:none"
             d="m 0,0 c -1.262,-1.527 -3.038,-2.83 -5.329,-3.909 -2.291,-1.08 -5.238,-1.619 -8.84,-1.619 -4.499,0 -8.152,1.378 -10.957,4.133 -2.806,2.756 -4.209,6.334 -4.209,10.734 v 7.57 c 0,4.366 1.365,7.935 4.097,10.708 2.73,2.773 6.246,4.158 10.546,4.158 4.631,0 8.13,-1.033 10.496,-3.099 2.366,-2.068 3.507,-4.894 3.424,-8.48 l -0.05,-0.149 h -7.894 c 0,1.776 -0.473,3.096 -1.419,3.959 -0.947,0.863 -2.375,1.295 -4.283,1.295 -1.959,0 -3.537,-0.772 -4.732,-2.316 -1.195,-1.544 -1.793,-3.552 -1.793,-6.026 v -7.62 c 0,-2.525 0.593,-4.554 1.781,-6.089 1.186,-1.536 2.851,-2.304 4.993,-2.304 1.544,0 2.759,0.125 3.648,0.374 0.888,0.249 1.589,0.581 2.104,0.996 v 6.475 h -6.425 v 5.578 l 14.842,0 z" /></g><path
           id="path60"
           style="fill:#333333;fill-opacity:1;fill-rule:nonzero;stroke:none"
           d="m 242.448,650.278 h -14.667 v 6.5 h 14.667 z" /><g
           transform="translate(270.7871,652.4945)"
           id="g62"><path
             id="path64"
             style="fill:#333333;fill-opacity:1;fill-rule:nonzero;stroke:none"
             d="M 0,0 H -13.273 V -14.593 H -21.69 V 21.665 H 2.54 V 15.19 H -13.273 V 6.475 L 0,6.475 Z" /></g><path
           id="path66"
           style="fill:#333333;fill-opacity:1;fill-rule:nonzero;stroke:none"
           d="m 286.476,637.902 h -8.392 v 36.258 h 8.392 z" /><g
           transform="translate(323.0078,637.9017)"
           id="g68"><path
             id="path70"
             style="fill:#333333;fill-opacity:1;fill-rule:nonzero;stroke:none"
             d="m 0,0 h -8.393 l -13.272,22.811 -0.149,-0.05 V 0 h -8.418 v 36.258 h 8.418 l 13.272,-22.786 0.149,0.049 V 36.258 H 0 Z" /></g><g
           transform="translate(339.3672,651.4232)"
           id="g72"><path
             id="path74"
             style="fill:#333333;fill-opacity:1;fill-rule:nonzero;stroke:none"
             d="M 0,0 H 6.898 L 3.512,11.256 H 3.363 Z M 8.842,-6.475 H -1.941 l -2.092,-7.046 h -8.865 L -1.07,22.736 h 4.508 v -0.025 l 0.025,0.025 h 4.506 l 11.853,-36.257 h -8.865 z" /></g><g
           transform="translate(392.0117,637.9017)"
           id="g76"><path
             id="path78"
             style="fill:#333333;fill-opacity:1;fill-rule:nonzero;stroke:none"
             d="m 0,0 h -8.392 l -13.273,22.811 -0.149,-0.05 V 0 h -8.417 v 36.258 h 8.417 l 13.272,-22.786 0.15,0.049 V 36.258 H 0 Z" /></g><g
           transform="translate(425.6299,650.1283)"
           id="g80"><path
             id="path82"
             style="fill:#333333;fill-opacity:1;fill-rule:nonzero;stroke:none"
             d="m 0,0 0.05,-0.149 c 0.066,-4.134 -1.1,-7.268 -3.499,-9.401 -2.4,-2.134 -5.798,-3.2 -10.197,-3.2 -4.483,0 -8.082,1.37 -10.795,4.109 -2.715,2.74 -4.072,6.326 -4.072,10.758 v 7.571 c 0,4.416 1.307,7.997 3.922,10.745 2.614,2.747 6.071,4.121 10.371,4.121 4.599,0 8.157,-1.071 10.671,-3.212 C -1.033,19.2 0.19,16.087 0.124,12.003 L 0.05,11.854 h -8.194 c 0,2.224 -0.472,3.818 -1.419,4.781 -0.946,0.963 -2.499,1.444 -4.657,1.444 -1.892,0 -3.344,-0.759 -4.357,-2.278 -1.013,-1.519 -1.52,-3.54 -1.52,-6.064 v -7.62 c 0,-2.54 0.557,-4.574 1.669,-6.101 1.113,-1.528 2.706,-2.291 4.782,-2.291 1.925,0 3.315,0.481 4.17,1.444 0.856,0.963 1.284,2.573 1.284,4.831 z" /></g><g
           transform="translate(451.5283,653.4154)"
           id="g84"><path
             id="path86"
             style="fill:#333333;fill-opacity:1;fill-rule:nonzero;stroke:none"
             d="M 0,0 H -12.774 V -9.039 H 2.541 v -6.475 H -21.191 V 20.744 H 2.565 V 14.27 H -12.774 V 6.475 L 0,6.475 Z" /></g><g
           transform="translate(405.4346,589.8636)"
           id="g88"><path
             id="path90"
             style="fill:#333333;fill-opacity:1;fill-rule:nonzero;stroke:none"
             d="m 0,0 v -9.09 h 5.402 c 1.793,0 3.139,0.353 4.036,1.059 0.896,0.705 1.343,1.789 1.343,3.25 0,1.544 -0.394,2.714 -1.181,3.51 C 8.811,-0.474 7.512,-0.05 5.701,0 H 5.428 Z m 0,5.578 h 3.311 c 2.025,0 3.537,0.353 4.533,1.058 0.996,0.706 1.494,1.756 1.494,3.15 0,1.544 -0.483,2.669 -1.445,3.374 -0.963,0.706 -2.44,1.059 -4.432,1.059 H 0 Z M -8.418,-15.564 V 20.693 H 3.461 c 4.498,0 8.006,-0.834 10.521,-2.503 2.516,-1.668 3.772,-4.154 3.772,-7.458 0,-1.726 -0.399,-3.257 -1.195,-4.594 -0.797,-1.336 -2.041,-2.345 -3.735,-3.026 2.158,-0.465 3.756,-1.427 4.793,-2.888 1.037,-1.461 1.557,-3.147 1.557,-5.055 0,-3.536 -1.188,-6.21 -3.561,-8.019 -2.375,-1.809 -5.777,-2.714 -10.211,-2.714 z" /></g><g
           transform="translate(437.957,594.6693)"
           id="g92"><path
             id="path94"
             style="fill:#333333;fill-opacity:1;fill-rule:nonzero;stroke:none"
             d="M 0,0 H 4.259 C 5.952,0 7.247,0.386 8.144,1.158 9.04,1.93 9.487,3.038 9.487,4.482 9.487,5.96 9.027,7.151 8.105,8.056 7.185,8.961 5.885,9.413 4.208,9.413 H 0 Z M 0,-6.475 V -20.37 H -8.417 V 15.888 H 4.208 c 4.2,0 7.529,-0.971 9.986,-2.913 2.457,-1.943 3.686,-4.599 3.686,-7.969 0,-1.877 -0.494,-3.486 -1.482,-4.831 -0.988,-1.345 -2.445,-2.441 -4.37,-3.287 2.224,-0.632 3.823,-1.682 4.793,-3.151 0.972,-1.469 1.457,-3.3 1.457,-5.491 v -2.291 c 0,-0.946 0.141,-2.025 0.424,-3.237 0.281,-1.212 0.772,-2.075 1.469,-2.59 v -0.498 h -8.692 c -0.664,0.515 -1.095,1.42 -1.294,2.715 -0.2,1.295 -0.299,2.514 -0.299,3.66 v 2.191 c 0,1.727 -0.456,3.047 -1.369,3.96 -0.913,0.912 -2.25,1.369 -4.01,1.369 z" /></g><g
           transform="translate(483.8027,595.7406)"
           id="g96"><path
             id="path98"
             style="fill:#333333;fill-opacity:1;fill-rule:nonzero;stroke:none"
             d="m 0,0 c 0,2.59 -0.61,4.715 -1.831,6.375 -1.22,1.659 -2.942,2.49 -5.167,2.49 -2.274,0 -4.014,-0.826 -5.217,-2.478 C -13.419,4.735 -14.021,2.605 -14.021,0 v -6.574 c 0,-2.624 0.611,-4.766 1.831,-6.425 1.22,-1.66 2.967,-2.49 5.242,-2.49 2.208,0 3.918,0.83 5.13,2.49 C -0.606,-11.34 0,-9.198 0,-6.574 Z m 8.392,-6.574 c 0,-4.467 -1.416,-8.148 -4.246,-11.045 -2.831,-2.897 -6.529,-4.345 -11.094,-4.345 -4.599,0 -8.326,1.448 -11.181,4.345 -2.856,2.897 -4.283,6.578 -4.283,11.045 v 6.524 c 0,4.448 1.423,8.126 4.27,11.031 2.847,2.906 6.562,4.359 11.144,4.359 4.549,0 8.251,-1.453 11.106,-4.359 C 6.964,8.076 8.392,4.398 8.392,-0.05 Z" /></g><g
           transform="translate(508.082,588.8422)"
           id="g100"><path
             id="path102"
             style="fill:#333333;fill-opacity:1;fill-rule:nonzero;stroke:none"
             d="m 0,0 h -2.341 v -14.543 h -8.417 v 36.258 h 8.417 V 7.521 h 1.743 L 7.596,21.715 H 18.179 L 6.773,5.229 19.15,-14.543 H 8.342 Z" /></g><g
           transform="translate(551.0381,589.8138)"
           id="g104"><path
             id="path106"
             style="fill:#333333;fill-opacity:1;fill-rule:nonzero;stroke:none"
             d="M 0,0 H -12.774 V -9.04 H 2.541 v -6.475 H -21.191 V 20.743 H 2.565 V 14.269 H -12.774 V 6.475 L 0,6.475 Z" /></g><g
           transform="translate(566.7266,594.6693)"
           id="g108"><path
             id="path110"
             style="fill:#333333;fill-opacity:1;fill-rule:nonzero;stroke:none"
             d="M 0,0 H 4.259 C 5.952,0 7.247,0.386 8.144,1.158 9.04,1.93 9.487,3.038 9.487,4.482 9.487,5.96 9.027,7.151 8.105,8.056 7.185,8.961 5.885,9.413 4.208,9.413 H 0 Z M 0,-6.475 V -20.37 H -8.417 V 15.888 H 4.208 c 4.2,0 7.529,-0.971 9.986,-2.913 2.457,-1.943 3.686,-4.599 3.686,-7.969 0,-1.877 -0.494,-3.486 -1.482,-4.831 -0.988,-1.345 -2.445,-2.441 -4.37,-3.287 2.224,-0.632 3.823,-1.682 4.793,-3.151 0.972,-1.469 1.457,-3.3 1.457,-5.491 v -2.291 c 0,-0.946 0.141,-2.025 0.424,-3.237 0.281,-1.212 0.772,-2.075 1.469,-2.59 v -0.498 h -8.692 c -0.664,0.515 -1.095,1.42 -1.294,2.715 -0.2,1.295 -0.299,2.514 -0.299,3.66 v 2.191 c 0,1.727 -0.456,3.047 -1.369,3.96 -0.913,0.912 -2.25,1.369 -4.01,1.369 z" /></g><path
           id="path112"
           style="fill:#333333;fill-opacity:1;fill-rule:nonzero;stroke:none"
           d="M 13.295,19.455 H 9.379 v 23.461 h 3.916 z" /><g
           transform="translate(36.8687,19.4555)"
           id="g114"><path
             id="path116"
             style="fill:#333333;fill-opacity:1;fill-rule:nonzero;stroke:none"
             d="M 0,0 H -3.916 L -14.309,16.902 -14.405,16.87 V 0 h -3.916 v 23.461 h 3.916 L -4.012,6.558 -3.916,6.59 V 23.461 H 0 Z" /></g><g
           transform="translate(57.7192,39.7738)"
           id="g118"><path
             id="path120"
             style="fill:#333333;fill-opacity:1;fill-rule:nonzero;stroke:none"
             d="m 0,0 h -7.251 v -20.318 h -3.916 V 0 h -7.138 V 3.143 H 0 Z" /></g><g
           transform="translate(73.8003,30.0092)"
           id="g122"><path
             id="path124"
             style="fill:#333333;fill-opacity:1;fill-rule:nonzero;stroke:none"
             d="M 0,0 H -9.185 V -7.428 H 1.644 v -3.126 H -13.1 V 12.907 H 1.531 V 9.765 H -9.185 V 3.143 l 9.185,0 z" /></g><g
           transform="translate(82.8882,32.3295)"
           id="g126"><path
             id="path128"
             style="fill:#333333;fill-opacity:1;fill-rule:nonzero;stroke:none"
             d="M 0,0 H 3.948 C 5.516,0 6.66,0.301 7.38,0.902 8.1,1.504 8.459,2.423 8.459,3.658 8.459,4.84 8.105,5.766 7.396,6.437 6.687,7.108 5.607,7.444 4.157,7.444 H 0 Z m 0,-3.142 v -9.732 h -3.916 v 23.461 h 8.073 c 2.611,0 4.63,-0.591 6.059,-1.773 1.429,-1.181 2.143,-2.868 2.143,-5.059 0,-1.214 -0.314,-2.259 -0.943,-3.134 -0.628,-0.876 -1.544,-1.577 -2.747,-2.103 1.321,-0.419 2.274,-1.101 2.86,-2.046 0.585,-0.946 0.878,-2.117 0.878,-3.513 v -1.95 c 0,-0.688 0.086,-1.359 0.258,-2.014 0.172,-0.655 0.457,-1.155 0.854,-1.499 v -0.37 H 9.491 c -0.43,0.354 -0.704,0.907 -0.822,1.659 -0.118,0.752 -0.177,1.504 -0.177,2.256 v 1.886 c 0,1.203 -0.346,2.159 -1.04,2.868 -0.692,0.709 -1.635,1.063 -2.827,1.063 z" /></g><g
           transform="translate(118.2891,19.4555)"
           id="g130"><path
             id="path132"
             style="fill:#333333;fill-opacity:1;fill-rule:nonzero;stroke:none"
             d="M 0,0 H -3.916 L -14.309,16.902 -14.405,16.87 V 0 h -3.916 v 23.461 h 3.916 L -4.012,6.558 -3.916,6.59 V 23.461 H 0 Z" /></g><g
           transform="translate(128.4888,28.2045)"
           id="g134"><path
             id="path136"
             style="fill:#333333;fill-opacity:1;fill-rule:nonzero;stroke:none"
             d="M 0,0 H 6.171 L 3.158,9.249 H 3.062 Z M 7.235,-3.271 H -1.08 L -2.884,-8.749 H -6.929 L 1.257,14.712 H 4.979 L 13.068,-8.749 H 9.023 Z" /></g><g
           transform="translate(159.4102,39.7738)"
           id="g138"><path
             id="path140"
             style="fill:#333333;fill-opacity:1;fill-rule:nonzero;stroke:none"
             d="m 0,0 h -7.251 v -20.318 h -3.916 V 0 h -7.138 V 3.143 H 0 Z" /></g><path
           id="path142"
           style="fill:#333333;fill-opacity:1;fill-rule:nonzero;stroke:none"
           d="m 166.629,19.455 h -3.916 v 23.461 h 3.916 z" /><g
           transform="translate(186.3999,33.3285)"
           id="g144"><path
             id="path146"
             style="fill:#333333;fill-opacity:1;fill-rule:nonzero;stroke:none"
             d="M 0,0 C 0,1.955 -0.521,3.562 -1.563,4.818 -2.605,6.075 -4.018,6.703 -5.801,6.703 -7.53,6.703 -8.892,6.075 -9.886,4.818 -10.879,3.562 -11.376,1.955 -11.376,0 v -4.254 c 0,-1.976 0.5,-3.596 1.499,-4.857 0.999,-1.263 2.357,-1.894 4.076,-1.894 1.794,0 3.209,0.628 4.246,1.885 C -0.519,-7.863 0,-6.241 0,-4.254 Z m 3.916,-4.254 c 0,-2.868 -0.9,-5.244 -2.699,-7.13 -1.8,-1.885 -4.139,-2.828 -7.018,-2.828 -2.803,0 -5.086,0.943 -6.848,2.828 -1.762,1.886 -2.643,4.262 -2.643,7.13 v 4.222 c 0,2.857 0.879,5.231 2.635,7.122 1.757,1.89 4.042,2.836 6.856,2.836 2.868,0 5.205,-0.946 7.009,-2.836 1.805,-1.891 2.708,-4.265 2.708,-7.122 z" /></g><g
           transform="translate(212.7935,19.4555)"
           id="g148"><path
             id="path150"
             style="fill:#333333;fill-opacity:1;fill-rule:nonzero;stroke:none"
             d="M 0,0 H -3.916 L -14.309,16.902 -14.405,16.87 V 0 h -3.916 v 23.461 h 3.916 L -4.012,6.558 -3.916,6.59 V 23.461 H 0 Z" /></g><g
           transform="translate(222.9932,28.2045)"
           id="g152"><path
             id="path154"
             style="fill:#333333;fill-opacity:1;fill-rule:nonzero;stroke:none"
             d="M 0,0 H 6.171 L 3.158,9.249 H 3.062 Z M 7.235,-3.271 H -1.08 L -2.884,-8.749 H -6.929 L 1.257,14.712 H 4.979 L 13.068,-8.749 H 9.023 Z" /></g><g
           transform="translate(242.877,22.5814)"
           id="g156"><path
             id="path158"
             style="fill:#333333;fill-opacity:1;fill-rule:nonzero;stroke:none"
             d="M 0,0 H 10.989 V -3.126 H -3.916 V 20.335 H 0 Z" /></g><g
           transform="translate(269.3188,22.5814)"
           id="g160"><path
             id="path162"
             style="fill:#333333;fill-opacity:1;fill-rule:nonzero;stroke:none"
             d="M 0,0 H 10.989 V -3.126 H -3.916 V 20.335 H 0 Z" /></g><g
           transform="translate(297.7422,33.3285)"
           id="g164"><path
             id="path166"
             style="fill:#333333;fill-opacity:1;fill-rule:nonzero;stroke:none"
             d="M 0,0 C 0,1.955 -0.521,3.562 -1.562,4.818 -2.604,6.075 -4.017,6.703 -5.8,6.703 -7.53,6.703 -8.892,6.075 -9.885,4.818 -10.879,3.562 -11.375,1.955 -11.375,0 v -4.254 c 0,-1.976 0.499,-3.596 1.498,-4.857 0.999,-1.263 2.358,-1.894 4.077,-1.894 1.794,0 3.209,0.628 4.246,1.885 C -0.519,-7.863 0,-6.241 0,-4.254 Z m 3.916,-4.254 c 0,-2.868 -0.9,-5.244 -2.699,-7.13 -1.8,-1.885 -4.138,-2.828 -7.017,-2.828 -2.804,0 -5.087,0.943 -6.848,2.828 -1.762,1.886 -2.643,4.262 -2.643,7.13 v 4.222 c 0,2.857 0.878,5.231 2.634,7.122 1.757,1.89 4.042,2.836 6.857,2.836 2.868,0 5.204,-0.946 7.009,-2.836 1.805,-1.891 2.707,-4.265 2.707,-7.122 z" /></g><g
           transform="translate(323.2012,22.6293)"
           id="g168"><path
             id="path170"
             style="fill:#333333;fill-opacity:1;fill-rule:nonzero;stroke:none"
             d="m 0,0 c -0.645,-0.913 -1.673,-1.727 -3.086,-2.44 -1.412,-0.715 -3.235,-1.073 -5.47,-1.073 -2.771,0 -5.051,0.895 -6.84,2.684 -1.789,1.788 -2.683,4.1 -2.683,6.936 v 4.899 c 0,2.836 0.865,5.148 2.595,6.936 1.729,1.789 3.953,2.683 6.671,2.683 2.728,0 4.855,-0.688 6.38,-2.063 1.526,-1.375 2.267,-3.168 2.224,-5.381 l -0.049,-0.097 h -3.721 c 0,1.321 -0.412,2.385 -1.234,3.19 -0.821,0.806 -2,1.209 -3.536,1.209 -1.622,0 -2.931,-0.607 -3.924,-1.821 -0.994,-1.214 -1.49,-2.755 -1.49,-4.624 V 6.107 c 0,-1.89 0.517,-3.446 1.555,-4.665 1.036,-1.219 2.387,-1.829 4.052,-1.829 1.257,0 2.25,0.143 2.981,0.428 0.73,0.284 1.284,0.631 1.66,1.039 V 5.93 H -8.83 V 8.862 H 0 Z" /></g><path
           id="path172"
           style="fill:#333333;fill-opacity:1;fill-rule:nonzero;stroke:none"
           d="m 332.225,19.455 h -3.915 v 23.461 h 3.915 z" /><g
           transform="translate(349.8359,25.4818)"
           id="g174"><path
             id="path176"
             style="fill:#333333;fill-opacity:1;fill-rule:nonzero;stroke:none"
             d="m 0,0 c 0,0.978 -0.346,1.777 -1.039,2.4 -0.693,0.623 -1.92,1.182 -3.682,1.676 -2.525,0.698 -4.47,1.614 -5.842,2.748 -1.369,1.133 -2.054,2.613 -2.054,4.439 0,1.89 0.752,3.448 2.256,4.673 1.504,1.224 3.437,1.836 5.8,1.836 2.536,0 4.565,-0.679 6.084,-2.038 1.52,-1.359 2.252,-3.037 2.2,-5.035 L 3.689,10.603 H -0.08 c 0,1.235 -0.41,2.217 -1.232,2.948 -0.823,0.73 -1.917,1.095 -3.28,1.095 -1.322,0 -2.34,-0.311 -3.053,-0.934 -0.714,-0.623 -1.072,-1.429 -1.072,-2.417 0,-0.902 0.393,-1.647 1.176,-2.232 0.785,-0.585 2.084,-1.141 3.9,-1.667 C -1.182,6.708 0.693,5.771 1.982,4.584 3.271,3.396 3.916,1.88 3.916,0.032 c 0,-1.944 -0.764,-3.497 -2.289,-4.657 -1.525,-1.16 -3.527,-1.74 -6.01,-1.74 -2.385,0 -4.463,0.634 -6.236,1.901 -1.772,1.268 -2.631,3.057 -2.578,5.366 l 0.033,0.097 h 3.769 c 0,-1.407 0.487,-2.469 1.459,-3.183 0.973,-0.714 2.157,-1.071 3.553,-1.071 1.387,0 2.463,0.292 3.231,0.878 C -0.383,-1.792 0,-0.999 0,0" /></g><g
           transform="translate(374.1514,39.7738)"
           id="g178"><path
             id="path180"
             style="fill:#333333;fill-opacity:1;fill-rule:nonzero;stroke:none"
             d="m 0,0 h -7.251 v -20.318 h -3.916 V 0 h -7.138 V 3.143 H 0 Z" /></g><path
           id="path182"
           style="fill:#333333;fill-opacity:1;fill-rule:nonzero;stroke:none"
           d="m 381.371,19.455 h -3.916 v 23.461 h 3.916 z" /><g
           transform="translate(403.7676,27.1254)"
           id="g184"><path
             id="path186"
             style="fill:#333333;fill-opacity:1;fill-rule:nonzero;stroke:none"
             d="m 0,0 0.033,-0.097 c 0.042,-2.363 -0.725,-4.273 -2.304,-5.728 -1.58,-1.456 -3.712,-2.184 -6.397,-2.184 -2.729,0 -4.942,0.921 -6.639,2.764 -1.698,1.842 -2.547,4.197 -2.547,7.065 v 4.464 c 0,2.858 0.838,5.213 2.514,7.066 1.676,1.853 3.862,2.779 6.559,2.779 2.76,0 4.933,-0.703 6.517,-2.11 1.585,-1.408 2.356,-3.336 2.313,-5.786 L 0.017,8.137 H -3.77 c 0,1.568 -0.424,2.768 -1.273,3.601 -0.849,0.832 -2.095,1.249 -3.738,1.249 -1.59,0 -2.85,-0.632 -3.779,-1.893 -0.929,-1.263 -1.393,-2.855 -1.393,-4.778 V 1.82 c 0,-1.944 0.472,-3.548 1.418,-4.809 0.944,-1.263 2.233,-1.894 3.867,-1.894 1.6,0 2.816,0.419 3.649,1.257 0.832,0.838 1.249,2.047 1.249,3.626 z" /></g><g
           transform="translate(419.9297,25.4818)"
           id="g188"><path
             id="path190"
             style="fill:#333333;fill-opacity:1;fill-rule:nonzero;stroke:none"
             d="m 0,0 c 0,0.978 -0.347,1.777 -1.039,2.4 -0.693,0.623 -1.921,1.182 -3.682,1.676 -2.525,0.698 -4.471,1.614 -5.842,2.748 -1.369,1.133 -2.054,2.613 -2.054,4.439 0,1.89 0.752,3.448 2.256,4.673 1.504,1.224 3.437,1.836 5.8,1.836 2.536,0 4.564,-0.679 6.083,-2.038 1.521,-1.359 2.253,-3.037 2.201,-5.035 L 3.689,10.603 H -0.08 c 0,1.235 -0.411,2.217 -1.233,2.948 -0.822,0.73 -1.916,1.095 -3.279,1.095 -1.322,0 -2.34,-0.311 -3.054,-0.934 -0.714,-0.623 -1.071,-1.429 -1.071,-2.417 0,-0.902 0.392,-1.647 1.176,-2.232 C -6.757,8.478 -5.457,7.922 -3.642,7.396 -1.182,6.708 0.693,5.771 1.982,4.584 3.271,3.396 3.916,1.88 3.916,0.032 c 0,-1.944 -0.764,-3.497 -2.289,-4.657 -1.525,-1.16 -3.528,-1.74 -6.01,-1.74 -2.385,0 -4.463,0.634 -6.236,1.901 -1.772,1.268 -2.632,3.057 -2.578,5.366 l 0.033,0.097 h 3.769 c 0,-1.407 0.487,-2.469 1.459,-3.183 0.972,-0.714 2.157,-1.071 3.553,-1.071 1.386,0 2.463,0.292 3.231,0.878 C -0.384,-1.792 0,-0.999 0,0" /></g><g
           transform="translate(453.2207,27.1254)"
           id="g192"><path
             id="path194"
             style="fill:#333333;fill-opacity:1;fill-rule:nonzero;stroke:none"
             d="m 0,0 0.033,-0.097 c 0.042,-2.363 -0.725,-4.273 -2.304,-5.728 -1.58,-1.456 -3.712,-2.184 -6.397,-2.184 -2.729,0 -4.942,0.921 -6.639,2.764 -1.698,1.842 -2.547,4.197 -2.547,7.065 v 4.464 c 0,2.858 0.838,5.213 2.514,7.066 1.676,1.853 3.862,2.779 6.559,2.779 2.76,0 4.933,-0.703 6.517,-2.11 1.585,-1.408 2.356,-3.336 2.313,-5.786 L 0.017,8.137 H -3.77 c 0,1.568 -0.424,2.768 -1.273,3.601 -0.849,0.832 -2.095,1.249 -3.738,1.249 -1.59,0 -2.85,-0.632 -3.779,-1.893 -0.929,-1.263 -1.393,-2.855 -1.393,-4.778 V 1.82 c 0,-1.944 0.472,-3.548 1.418,-4.809 0.944,-1.263 2.233,-1.894 3.867,-1.894 1.6,0 2.816,0.419 3.649,1.257 0.832,0.838 1.249,2.047 1.249,3.626 z" /></g><g
           transform="translate(471.542,33.3285)"
           id="g196"><path
             id="path198"
             style="fill:#333333;fill-opacity:1;fill-rule:nonzero;stroke:none"
             d="M 0,0 C 0,1.955 -0.521,3.562 -1.563,4.818 -2.605,6.075 -4.018,6.703 -5.801,6.703 -7.53,6.703 -8.892,6.075 -9.886,4.818 -10.879,3.562 -11.376,1.955 -11.376,0 v -4.254 c 0,-1.976 0.5,-3.596 1.498,-4.857 1,-1.263 2.358,-1.894 4.077,-1.894 1.794,0 3.209,0.628 4.246,1.885 C -0.519,-7.863 0,-6.241 0,-4.254 Z m 3.915,-4.254 c 0,-2.868 -0.899,-5.244 -2.698,-7.13 -1.8,-1.885 -4.139,-2.828 -7.018,-2.828 -2.803,0 -5.087,0.943 -6.848,2.828 -1.762,1.886 -2.643,4.262 -2.643,7.13 v 4.222 c 0,2.857 0.879,5.231 2.635,7.122 1.757,1.89 4.042,2.836 6.856,2.836 2.868,0 5.204,-0.946 7.009,-2.836 1.805,-1.891 2.707,-4.265 2.707,-7.122 z" /></g><g
           transform="translate(491.4893,24.8695)"
           id="g200"><path
             id="path202"
             style="fill:#333333;fill-opacity:1;fill-rule:nonzero;stroke:none"
             d="M 0,0 H 0.097 L 6.88,18.047 h 4.996 V -5.414 H 7.96 V 11.44 L 7.863,11.456 1.401,-5.414 h -2.69 L -7.863,11.778 -7.96,11.746 v -17.16 h -3.916 v 23.461 h 5.141 z" /></g><g
           transform="translate(512.2266,31.4916)"
           id="g204"><path
             id="path206"
             style="fill:#333333;fill-opacity:1;fill-rule:nonzero;stroke:none"
             d="m 0,0 h 5.076 c 1.449,0 2.54,0.387 3.271,1.16 0.73,0.774 1.095,1.757 1.095,2.949 0,1.193 -0.365,2.186 -1.095,2.981 C 7.616,7.885 6.525,8.282 5.076,8.282 H 0 Z m 0,-3.142 v -8.894 h -3.916 v 23.461 h 8.992 c 2.588,0 4.616,-0.669 6.082,-2.006 1.467,-1.338 2.199,-3.097 2.199,-5.277 0,-2.203 -0.732,-3.967 -2.199,-5.293 C 9.692,-2.479 7.664,-3.142 5.076,-3.142 Z" /></g><g
           transform="translate(531.4346,28.2045)"
           id="g208"><path
             id="path210"
             style="fill:#333333;fill-opacity:1;fill-rule:nonzero;stroke:none"
             d="M 0,0 H 6.171 L 3.158,9.249 H 3.062 Z M 7.235,-3.271 H -1.079 L -2.884,-8.749 H -6.929 L 1.257,14.712 H 4.979 L 13.067,-8.749 H 9.023 Z" /></g><g
           transform="translate(565.7236,19.4555)"
           id="g212"><path
             id="path214"
             style="fill:#333333;fill-opacity:1;fill-rule:nonzero;stroke:none"
             d="M 0,0 H -3.915 L -14.309,16.902 -14.405,16.87 V 0 h -3.916 v 23.461 h 3.916 L -4.013,6.558 -3.915,6.59 V 23.461 H 0 Z" /></g><g
           transform="translate(578.1797,31.5082)"
           id="g216"><path
             id="path218"
             style="fill:#333333;fill-opacity:1;fill-rule:nonzero;stroke:none"
             d="m 0,0 5.656,11.408 h 4.366 L 1.885,-3.852 v -8.201 h -3.899 v 8.444 l -8.008,15.017 h 4.366 z" /></g></g></g></g></svg>