<?xml version="1.0"?>
<svg width="133" height="50" xmlns="http://www.w3.org/2000/svg" xmlns:svg="http://www.w3.org/2000/svg">
 <g class="layer">
  <title>Layer 1</title>
  <path clip-rule="evenodd" d="m105.83,10.93c4.27,0.06 8.35,1.71 11.34,4.59c3,2.89 4.68,6.77 4.68,10.82c0,0.21 0,0.42 0,0.62l-4.87,0c0,-0.2 0,-0.41 0,-0.62c-0.01,-2.81 -1.17,-5.52 -3.25,-7.53c-2.08,-2.01 -4.91,-3.17 -7.88,-3.23l0,-4.62l-0.02,-0.03zm0,-10.93l0,4.61c6.03,0.07 11.8,2.38 16.04,6.44c4.24,4.06 6.63,9.54 6.64,15.26c0,0.21 0,0.41 0,0.62l4.87,0c0,-0.21 0,-0.41 0,-0.62c0,-6.94 -2.9,-13.61 -8.06,-18.53c-5.16,-4.93 -12.16,-7.73 -19.49,-7.78l0,0zm2.42,20.6c-0.78,-0.03 -1.54,0.23 -2.14,0.71c-0.59,0.49 -0.96,1.17 -1.05,1.91c-0.09,0.44 -0.08,0.9 0.04,1.34c0.12,0.44 0.35,0.85 0.66,1.2c0.3,0.35 0.69,0.62 1.13,0.81c0.43,0.19 0.91,0.28 1.39,0.27c0.84,-0.04 1.64,-0.39 2.22,-0.97c0.58,-0.58 0.91,-1.35 0.91,-2.15c0,-0.8 -0.33,-1.57 -0.91,-2.15c-0.58,-0.58 -1.38,-0.93 -2.22,-0.97l-0.03,0z" fill="#BC0A29" fill-rule="evenodd" id="svg_2"/>
  <path clip-rule="evenodd" d="m5.57,48.79c0,0.14 -0.04,0.27 -0.14,0.37c-0.12,0.13 -0.27,0.22 -0.44,0.28c-0.28,0.07 -0.56,0.12 -0.85,0.16c-0.45,0.04 -0.9,0.06 -1.36,0.06c-0.44,0 -0.89,-0.02 -1.33,-0.06c-0.29,-0.04 -0.57,-0.09 -0.85,-0.16c-0.17,-0.05 -0.33,-0.15 -0.46,-0.28c-0.09,-0.1 -0.14,-0.23 -0.14,-0.37l0,-25.22c0,-0.13 0.05,-0.27 0.13,-0.37c0.13,-0.13 0.29,-0.22 0.47,-0.27c0.28,-0.08 0.56,-0.14 0.85,-0.16c0.44,-0.05 0.88,-0.07 1.33,-0.07c0.45,0 0.9,0.02 1.35,0.07c0.29,0.02 0.57,0.08 0.85,0.16c0.17,0.05 0.32,0.14 0.45,0.27c0.08,0.1 0.13,0.24 0.13,0.37l0,25.22l0.01,0zm35.57,0c0,0.13 -0.04,0.26 -0.13,0.37c-0.11,0.12 -0.25,0.21 -0.41,0.25c-0.28,0.09 -0.56,0.14 -0.85,0.16c-0.34,0 -0.77,0.05 -1.29,0.05c-0.51,0 -0.98,0 -1.32,-0.05c-0.29,-0.02 -0.57,-0.07 -0.84,-0.16c-0.17,-0.04 -0.32,-0.13 -0.43,-0.25c-0.07,-0.11 -0.11,-0.24 -0.11,-0.37l0,-10.87c0.01,-0.56 -0.06,-1.11 -0.18,-1.66c-0.1,-0.46 -0.28,-0.91 -0.55,-1.3c-0.24,-0.37 -0.57,-0.67 -0.97,-0.87c-0.39,-0.21 -0.83,-0.3 -1.28,-0.28c-0.71,0.02 -1.38,0.28 -1.92,0.72c-0.78,0.62 -1.49,1.32 -2.1,2.1l0,12.2c0,0.14 -0.04,0.26 -0.13,0.37c-0.11,0.12 -0.26,0.21 -0.43,0.25c-0.28,0.09 -0.56,0.14 -0.85,0.16c-0.34,0 -0.77,0.05 -1.27,0.05c-0.5,0 -0.96,0 -1.29,-0.05c-0.29,-0.02 -0.58,-0.07 -0.85,-0.16c-0.17,-0.04 -0.32,-0.13 -0.43,-0.25c-0.09,-0.1 -0.14,-0.23 -0.14,-0.37l0,-10.91c0.01,-0.56 -0.05,-1.11 -0.18,-1.66c-0.09,-0.46 -0.28,-0.9 -0.54,-1.3c-0.23,-0.35 -0.55,-0.64 -0.92,-0.83c-0.41,-0.21 -0.87,-0.31 -1.33,-0.3c-0.71,0.02 -1.4,0.28 -1.94,0.73c-0.78,0.61 -1.48,1.32 -2.08,2.09l0,12.18c0,0.14 -0.05,0.27 -0.14,0.37c-0.11,0.12 -0.26,0.21 -0.43,0.25c-0.26,0.08 -0.53,0.14 -0.81,0.16c-0.33,0 -0.77,0.05 -1.28,0.05c-0.52,0 -0.95,0 -1.29,-0.05c-0.29,-0.02 -0.57,-0.07 -0.85,-0.16c-0.16,-0.04 -0.31,-0.13 -0.43,-0.25c-0.08,-0.11 -0.13,-0.23 -0.13,-0.37l0,-18.41c0,-0.13 0.04,-0.26 0.11,-0.37c0.1,-0.12 0.23,-0.21 0.38,-0.25c0.22,-0.08 0.46,-0.13 0.7,-0.16c0.36,-0.04 0.73,-0.05 1.09,-0.05c0.38,0 0.75,0.01 1.12,0.05c0.24,0.02 0.47,0.08 0.69,0.16c0.13,0.05 0.26,0.14 0.34,0.25c0.08,0.11 0.12,0.24 0.11,0.37l0,2.13c0.89,-0.99 1.94,-1.83 3.11,-2.49c0.99,-0.54 2.11,-0.82 3.25,-0.83c0.7,0 1.4,0.08 2.09,0.24c0.59,0.14 1.17,0.37 1.69,0.68c0.52,0.28 0.99,0.64 1.4,1.07c0.34,0.43 0.62,0.89 0.85,1.38c0.52,-0.54 1.09,-1.05 1.69,-1.52c0.5,-0.39 1.04,-0.74 1.61,-1.03c0.5,-0.27 1.03,-0.47 1.58,-0.6c0.53,-0.13 1.07,-0.2 1.61,-0.2c1.09,-0.03 2.17,0.18 3.17,0.62c0.82,0.38 1.53,0.95 2.07,1.66c0.55,0.74 0.93,1.59 1.13,2.48c0.23,0.99 0.35,2 0.34,3.02l-0.01,11.76z" fill="black" fill-rule="evenodd" id="svg_3"/>
  <path clip-rule="evenodd" d="m58.7,33.42c-0.02,0.25 -0.06,0.49 -0.12,0.73c-0.04,0.14 -0.12,0.26 -0.22,0.36c-0.1,0.07 -0.22,0.1 -0.34,0.1c-0.13,-0.01 -0.26,-0.03 -0.38,-0.07l-0.47,-0.16l-0.56,-0.14c-0.22,-0.05 -0.45,-0.08 -0.68,-0.08c-0.29,0.01 -0.57,0.07 -0.83,0.17c-0.33,0.14 -0.63,0.32 -0.9,0.55c-0.36,0.29 -0.68,0.61 -0.97,0.96c-0.41,0.47 -0.78,0.96 -1.12,1.47l0,11.22c0,0.13 -0.05,0.26 -0.13,0.36c-0.11,0.12 -0.26,0.21 -0.42,0.25c-0.27,0.08 -0.55,0.13 -0.83,0.15c-0.33,0 -0.75,0.05 -1.26,0.05c-0.51,0 -0.93,0 -1.26,-0.05c-0.28,-0.02 -0.56,-0.07 -0.83,-0.15c-0.16,-0.04 -0.31,-0.13 -0.42,-0.25c-0.09,-0.1 -0.14,-0.23 -0.14,-0.36l0,-17.97c0.01,-0.13 0.04,-0.25 0.11,-0.36c0.1,-0.11 0.22,-0.2 0.37,-0.25c0.22,-0.07 0.46,-0.13 0.69,-0.15c0.36,-0.04 0.71,-0.05 1.06,-0.05c0.37,0 0.74,0.01 1.1,0.05c0.23,0.02 0.46,0.07 0.68,0.15c0.13,0.06 0.25,0.14 0.33,0.25c0.07,0.11 0.11,0.23 0.11,0.36l0,2.24c0.41,-0.59 0.86,-1.14 1.36,-1.66c0.37,-0.38 0.78,-0.73 1.22,-1.03c0.35,-0.25 0.75,-0.43 1.17,-0.54c0.38,-0.1 0.79,-0.16 1.19,-0.15c0.19,-0.01 0.39,-0.01 0.58,0c0.22,0.02 0.43,0.05 0.64,0.1c0.2,0.04 0.39,0.09 0.58,0.16c0.13,0.04 0.26,0.1 0.36,0.19c0.07,0.06 0.13,0.14 0.17,0.22c0.04,0.11 0.07,0.22 0.09,0.34c0.04,0.21 0.06,0.42 0.07,0.63c0,0.28 0,0.66 0,1.14l0,1.19l0,0.03zm19.76,5.61c0.05,0.49 -0.1,0.98 -0.42,1.37c-0.15,0.15 -0.33,0.27 -0.53,0.35c-0.21,0.07 -0.42,0.11 -0.64,0.1l-11.22,0c-0.01,0.71 0.09,1.43 0.29,2.12c0.16,0.58 0.46,1.12 0.88,1.57c0.43,0.46 0.97,0.8 1.57,1c0.74,0.24 1.52,0.35 2.3,0.34c0.8,0.01 1.6,-0.06 2.39,-0.2c0.61,-0.11 1.2,-0.25 1.79,-0.42c0.5,-0.16 0.92,-0.3 1.25,-0.43c0.25,-0.13 0.53,-0.22 0.82,-0.25c0.11,0 0.21,0.02 0.31,0.07c0.09,0.06 0.17,0.15 0.21,0.26c0.06,0.16 0.1,0.33 0.11,0.5c0.01,0.27 0.01,0.54 0,0.81c0,0.3 0,0.55 0,0.76c0,0.21 0,0.38 -0.06,0.53c-0.02,0.13 -0.06,0.25 -0.12,0.37c-0.06,0.11 -0.13,0.21 -0.22,0.3c-0.22,0.16 -0.47,0.29 -0.74,0.38c-0.49,0.2 -1,0.36 -1.52,0.48c-0.62,0.16 -1.33,0.29 -2.12,0.42c-0.85,0.12 -1.71,0.17 -2.57,0.17c-1.46,0.03 -2.91,-0.18 -4.31,-0.6c-1.15,-0.35 -2.2,-0.97 -3.07,-1.79c-0.86,-0.88 -1.49,-1.94 -1.85,-3.1c-0.43,-1.43 -0.65,-2.92 -0.63,-4.41c-0.03,-1.46 0.19,-2.92 0.63,-4.31c0.38,-1.2 1.02,-2.3 1.87,-3.24c0.81,-0.89 1.82,-1.59 2.96,-2.04c1.25,-0.49 2.59,-0.73 3.94,-0.71c1.35,-0.04 2.7,0.19 3.96,0.67c1.04,0.4 1.96,1.03 2.7,1.84c0.71,0.81 1.24,1.76 1.55,2.79c0.34,1.14 0.51,2.32 0.49,3.51l0,0.81l0,-0.02zm-5.03,-1.44c0.11,-1.18 -0.2,-2.37 -0.89,-3.35c-0.34,-0.42 -0.78,-0.76 -1.29,-0.97c-0.5,-0.22 -1.06,-0.31 -1.61,-0.26c-0.59,-0.01 -1.18,0.11 -1.72,0.36c-0.48,0.23 -0.9,0.57 -1.23,0.98c-0.34,0.44 -0.59,0.93 -0.75,1.45c-0.17,0.59 -0.27,1.19 -0.29,1.79l7.78,0zm26.81,10.94c0,0.13 -0.03,0.26 -0.1,0.38c-0.09,0.11 -0.21,0.2 -0.35,0.25c-0.22,0.08 -0.45,0.13 -0.68,0.14c-0.28,0 -0.62,0 -1.04,0c-0.41,0 -0.82,0 -1.07,0c-0.23,-0.02 -0.46,-0.06 -0.68,-0.14c-0.14,-0.05 -0.26,-0.14 -0.36,-0.25c-0.08,-0.11 -0.12,-0.24 -0.12,-0.38l0,-2c-0.86,0.93 -1.86,1.71 -2.98,2.32c-1.09,0.53 -2.29,0.81 -3.51,0.81c-1.22,0 -2.42,-0.28 -3.51,-0.81c-0.96,-0.51 -1.78,-1.25 -2.38,-2.14c-0.64,-0.96 -1.09,-2.03 -1.34,-3.15c-0.28,-1.25 -0.42,-2.52 -0.41,-3.8c-0.02,-1.45 0.16,-2.9 0.53,-4.3c0.31,-1.16 0.83,-2.26 1.53,-3.24c0.66,-0.88 1.53,-1.59 2.53,-2.06c1.08,-0.51 2.27,-0.76 3.47,-0.73c0.97,-0.01 1.93,0.2 2.81,0.61c0.92,0.47 1.76,1.08 2.48,1.8l0,-9.69c0,-0.13 0.04,-0.26 0.11,-0.37c0.11,-0.13 0.26,-0.22 0.42,-0.26c0.27,-0.09 0.55,-0.15 0.83,-0.17c0.83,-0.09 1.67,-0.09 2.49,0c0.27,0.02 0.54,0.08 0.79,0.17c0.16,0.04 0.3,0.14 0.41,0.26c0.08,0.11 0.12,0.23 0.12,0.37l0,26.38l0.01,0zm-5.16,-12.03c-0.62,-0.79 -1.34,-1.49 -2.14,-2.1c-0.61,-0.46 -1.36,-0.71 -2.14,-0.72c-0.62,-0.02 -1.23,0.16 -1.75,0.49c-0.49,0.34 -0.9,0.79 -1.17,1.32c-0.31,0.58 -0.53,1.2 -0.66,1.84c-0.15,0.68 -0.22,1.38 -0.22,2.08c0,0.74 0.06,1.47 0.18,2.2c0.11,0.66 0.32,1.29 0.61,1.9c0.26,0.53 0.65,0.99 1.13,1.34c0.52,0.35 1.15,0.53 1.78,0.5c0.36,0 0.7,-0.05 1.04,-0.15c0.37,-0.11 0.72,-0.28 1.04,-0.5c0.39,-0.26 0.75,-0.55 1.08,-0.89c0.38,-0.37 0.79,-0.82 1.22,-1.35l0,-5.96zm15.6,12c0,0.13 -0.04,0.26 -0.13,0.36c-0.11,0.12 -0.26,0.21 -0.42,0.25c-0.27,0.08 -0.55,0.13 -0.83,0.15c-0.33,0 -0.75,0.05 -1.26,0.05c-0.5,0 -0.93,0 -1.26,-0.05c-0.28,-0.02 -0.56,-0.07 -0.83,-0.15c-0.16,-0.04 -0.31,-0.13 -0.42,-0.25c-0.09,-0.1 -0.14,-0.23 -0.13,-0.36l0,-17.9c-0.01,-0.13 0.04,-0.26 0.13,-0.36c0.11,-0.12 0.26,-0.21 0.42,-0.25c0.27,-0.09 0.55,-0.15 0.83,-0.17c0.83,-0.09 1.66,-0.09 2.49,0c0.28,0.02 0.56,0.08 0.83,0.17c0.16,0.05 0.3,0.13 0.42,0.25c0.08,0.11 0.13,0.23 0.13,0.36l0.03,17.9z" fill="#BC0A29" fill-rule="evenodd" id="svg_4"/>
 </g>
</svg>