<?xml version="1.0" encoding="UTF-8"?>
<svg width="200px" height="42px" viewBox="0 0 200 42" version="1.1" xmlns="http://www.w3.org/2000/svg" xmlns:xlink="http://www.w3.org/1999/xlink">
    <!-- Generator: Sketch 52.3 (67297) - http://www.bohemiancoding.com/sketch -->
    <title>AGIMA_full</title>
    <desc>Created with Sketch.</desc>
    <g id="Page-1" stroke="none" stroke-width="1" fill="none" fill-rule="evenodd">
        <path d="M93.3294813,0 C96.8336371,0 99.7742122,2.71960795 99.7742122,6.07191179 L99.7742122,35.9285357 C99.7742122,39.2826293 96.8336371,42 93.3294813,42 C89.8248811,42 86.8847504,39.2826293 86.8847504,35.9285357 L86.8847504,6.07191179 C86.8847504,2.71960795 89.8248811,0 93.3294813,0 Z M76.5985155,18.9061525 L76.6198498,18.9061525 L82.9592426,18.8515634 C82.9592426,23.1251691 82.4898884,26.5700953 81.545402,29.3022319 C80.0697809,33.3955148 77.6536735,36.5947904 74.2970799,38.7931178 C72.3907729,40.0486656 70.2813458,40.933724 67.9674652,41.45053 L67.9656874,41.4545571 C66.3438375,41.8201246 64.62465,42 62.8085693,42 C55.5598027,42 50.080448,39.5068023 46.1936086,34.5848399 C43.3050358,30.8441485 41.8347482,26.3982741 41.8347482,21.1774144 C41.8347482,15.422298 43.5410463,10.6189101 46.9554202,6.70281788 C50.8462598,2.25604858 56.2078315,0 63.1623628,0 C67.8154585,0 71.7058536,1.19022 74.9446642,3.56036861 C77.2429886,5.2835029 79.1897418,7.77267352 80.8360372,11.0900762 L71.1760523,15.0688116 C70.3489044,13.2884036 69.4079737,11.9223353 68.2879239,10.9750812 C66.6985199,9.72803494 64.8686608,9.07609865 62.6894529,9.07609865 C58.2692564,9.07609865 55.1482288,11.3876312 53.4414863,15.9511852 C52.793013,17.6170458 52.4387751,19.3893997 52.4387751,21.1698077 C52.4387751,24.9051297 53.6166052,28.0439994 55.9753767,30.5336174 C57.7394551,32.3704043 60.037335,33.3069195 62.9832437,33.3069195 C65.5740255,33.3069195 67.6403396,32.5055345 69.1719632,31.0204443 C70.17423,30.011442 70.8218143,28.7500772 71.1156051,26.5128216 L62.8836837,26.5128216 L62.8836837,18.9061525 L76.5985155,18.9061525 Z M27.5825592,0.60763863 L43.104138,41.3256912 L31.6471843,41.3256912 L28.9839548,33.719022 L14.1566292,33.719022 L11.3338371,41.3256912 L0,41.3256912 L15.8304814,0.60763863 L27.5825592,0.60763863 Z M184.478421,0.60763863 L200,41.3256912 L188.543046,41.3256912 L185.879817,33.719022 L171.052491,33.719022 L168.229699,41.3256912 L156.895862,41.3256912 L172.726343,0.60763863 L184.478421,0.60763863 Z M148.824392,0.60763863 L154.951331,41.3256912 L144.237522,41.3256912 L141.20272,18.0018537 L131.23161,41.3256912 L126.95942,41.3256912 L117.636339,17.9333937 L114.106405,41.3256912 L103.391262,41.3256912 L110.39024,0.60763863 L121.043157,0.60763863 L129.38175,21.7510467 L137.963465,0.60763863 L148.824392,0.60763863 Z" id="AGIMA_full" fill="#01AC6A"></path>
    </g>
</svg>