<?xml version="1.0"?>
<svg width="141" height="33" xmlns="http://www.w3.org/2000/svg" xmlns:svg="http://www.w3.org/2000/svg" version="1.1" xml:space="preserve">
 <metadata id="metadata8">image/svg+xml</metadata>
 <defs id="defs6">
  <clipPath clipPathUnits="userSpaceOnUse" id="clipPath18">
   <path d="m-19.05,60.14l140.9,0l0,-50.67l-140.9,0l0,50.67z" id="path16"/>
  </clipPath>
  <linearGradient id="linearGradient58" spreadMethod="pad" x1="0.25" x2="0.75" y1="0.07" y2="0.93">
   <stop id="stop48" offset="0" stop-color="#edee26"/>
   <stop id="stop50" offset="0.39" stop-color="#53bf36"/>
   <stop id="stop52" offset="0.78" stop-color="#3e8fcf"/>
   <stop id="stop54" offset="1" stop-color="#3e8fcf"/>
   <stop id="stop56" offset="1" stop-color="#3e8fcf"/>
  </linearGradient>
  <clipPath clipPathUnits="userSpaceOnUse" id="clipPath68">
   <path d="m-19.05,60.14l140.9,0l0,-50.67l-140.9,0l0,50.67z" id="path66"/>
  </clipPath>
  <linearGradient id="linearGradient132" spreadMethod="pad" x1="0.08" x2="0.69" y1="0.11" y2="1.58">
   <stop id="stop122" offset="0" stop-color="#edee26"/>
   <stop id="stop124" offset="0.39" stop-color="#53bf36"/>
   <stop id="stop126" offset="0.78" stop-color="#36ae3f"/>
   <stop id="stop128" offset="1" stop-color="#36ae3f"/>
   <stop id="stop130" offset="1" stop-color="#36ae3f"/>
  </linearGradient>
 </defs>
 <g class="layer">
  <title>Layer 1</title>
  <g id="g10" transform="matrix(1.33333 0 0 -1.33333 0 67.5647)">
   <g id="g12">
    <g clip-path="url(#clipPath18)" id="g14">
     <g id="g20" transform="translate(68.902 33.472)">
      <path d="m-19.05,9.47l-1.68,0l0,3.37l1.68,0c1.22,0 1.88,-0.6 1.88,-1.68c0,-1.09 -0.66,-1.69 -1.88,-1.69m0.04,4.83l-3.62,0l0,-8.78l1.9,0l0,2.49l1.72,0c2.31,0 3.74,1.21 3.74,3.15c0,1.94 -1.43,3.14 -3.74,3.14" fill="#36ae3f" fill-rule="nonzero" id="path22"/>
     </g>
     <g id="g24" transform="translate(61.5754 36.8436)">
      <path d="m-19.05,9.47l1.98,1.46l-6.64,0l0,-8.78l6.65,0l0,1.46l-4.75,0l0,2.25l4.05,0l0,1.46l-4.05,0l0,2.15l2.76,0z" fill="#36ae3f" fill-rule="nonzero" id="path26"/>
     </g>
     <g id="g28" transform="translate(51.5726 30.9832)">
      <path d="m-19.05,9.47l-1.98,0l0,2.44l1.98,0c1.2,0 1.76,-0.41 1.76,-1.22c0,-0.83 -0.59,-1.22 -1.76,-1.22m0.33,3.9l-2.31,0l0,1.96l3.69,0l1.98,1.46l-7.56,0l0,-8.78l3.96,0c2.22,0 3.49,1 3.49,2.76c0,1.67 -1.16,2.6 -3.25,2.6" fill="#36ae3f" fill-rule="nonzero" id="path30"/>
     </g>
     <g id="g32" transform="translate(44.4454 31.4226)">
      <path d="m-19.05,9.47c-0.49,-0.27 -1.05,-0.41 -1.64,-0.41c-1.71,0 -2.95,1.22 -2.95,2.9c0,1.68 1.24,2.9 2.95,2.9c0.65,0 1.23,-0.18 1.73,-0.54l1.36,1l-0.09,0.08c-0.8,0.7 -1.86,1.07 -3.07,1.07c-1.32,0 -2.51,-0.44 -3.36,-1.25c-0.86,-0.81 -1.33,-1.95 -1.33,-3.21c0,-1.27 0.47,-2.42 1.32,-3.26c0.86,-0.84 2.05,-1.3 3.36,-1.3c1.36,0 2.56,0.48 3.37,1.35c-0.63,0.46 -1.23,0.9 -1.23,0.9l-0.42,-0.23z" fill="#36ae3f" fill-rule="nonzero" id="path34"/>
     </g>
    </g>
   </g>
   <g id="g36">
    <g id="g38">
     <g id="g44">
      <g id="g46">
       <path d="m0,43.38c0,-4.03 3.27,-7.3 7.3,-7.3l0,0c4.03,0 7.3,3.27 7.3,7.3l0,0c0,0.45 -0.04,0.89 -0.12,1.31l0,0l-1.57,-1.16c0,-0.05 0,-0.1 0,-0.15l0,0c0,-3.09 -2.51,-5.61 -5.61,-5.61l0,0c-3.1,0 -5.62,2.52 -5.62,5.61l0,0c0,3.1 2.52,5.62 5.62,5.62l0,0c1.17,0 2.26,-0.36 3.16,-0.98l0,0l1.42,1.04c-1.25,1.02 -2.84,1.62 -4.58,1.62l0,0c-4.03,0 -7.3,-3.26 -7.3,-7.3" fill="url(#linearGradient58)" id="path60"/>
      </g>
     </g>
    </g>
   </g>
   <g id="g62">
    <g clip-path="url(#clipPath68)" id="g64">
     <g id="g70" transform="translate(32.1266 38.3772)">
      <path d="m-19.05,9.47c0.34,-0.45 0.64,-0.93 0.88,-1.45l-6.66,-4.9l-2.78,1.74l0,2.09l2.78,-1.74l5.78,4.26z" fill="#36ae3f" fill-rule="nonzero" id="path72"/>
     </g>
     <g id="g74" transform="translate(43.9954 20.4048)">
      <path d="m-19.05,9.47l-1.46,3.65l-1.46,-3.65l2.92,0zm3.13,-3.57l-1.69,0l-0.86,2.11l-4.08,0l-0.84,-2.11l-1.61,0l3.61,8.9l1.81,0l3.66,-8.9z" fill="#ed7f17" fill-rule="nonzero" id="path76"/>
     </g>
     <g id="g78" transform="translate(54.8442 20.6846)">
      <path d="m-19.05,9.47l-4.87,0l0,-3.85l-1.59,0l0,8.9l1.59,0l0,-3.59l4.87,0l0,3.59l1.59,0l0,-8.9l-1.59,0l0,3.85z" fill="#ed7f17" fill-rule="nonzero" id="path80"/>
     </g>
     <g id="g82" transform="translate(63.6327 20.4048)">
      <path d="m-19.05,9.47l-1.46,3.65l-1.46,-3.65l2.92,0zm3.13,-3.57l-1.69,0l-0.86,2.11l-4.08,0l-0.84,-2.11l-1.61,0l3.61,8.9l1.81,0l3.66,-8.9z" fill="#ed7f17" fill-rule="nonzero" id="path84"/>
     </g>
     <g id="g86" transform="translate(74.2017 24.2711)">
      <path d="m-19.05,9.47l-3.38,0l-0.03,-0.42c-0.35,-6.47 -1.49,-7.13 -2.78,-7.13c-0.28,0 -0.52,0.03 -0.72,0.12l0,1.61c0.13,-0.06 0.27,-0.07 0.39,-0.07c0.61,0 1.33,0.38 1.58,5.51l0.09,1.84l6.44,0l0,-8.9l-1.59,0l0,7.44z" fill="#ed7f17" fill-rule="nonzero" id="path88"/>
     </g>
     <g id="g90" transform="translate(79.6961 19.0821)">
      <path d="m-19.05,9.47l4.86,6.65l1.73,0l0,-8.9l-1.59,0l0,6.75l-4.89,-6.75l-1.7,0l0,8.9l1.59,0l0,-6.65z" fill="#ed7f17" fill-rule="nonzero" id="path92"/>
     </g>
     <g id="g94" transform="translate(95.1618 24.2711)">
      <path d="m-19.05,9.47l-3,0l0,-7.44l-1.59,0l0,7.44l-2.95,0l0,1.46l7.54,0l0,-1.46z" fill="#ed7f17" fill-rule="nonzero" id="path96"/>
     </g>
     <g id="g98" transform="translate(98.0871 19.0821)">
      <path d="m-19.05,9.47l4.86,6.65l1.73,0l0,-8.9l-1.59,0l0,6.75l-4.89,-6.75l-1.7,0l0,8.9l1.59,0l0,-6.65z" fill="#ed7f17" fill-rule="nonzero" id="path100"/>
     </g>
     <g id="g102" transform="translate(108.58 16.831)">
      <path d="m-19.05,9.47l-1.59,0l0,8.9l1.59,0l0,-3.74l1.33,0l2.87,3.74l1.93,0l-3.4,-4.23l3.95,-4.67l-2.04,0l-3.23,3.85l-1.41,0l0,-3.85z" fill="#ed7f17" fill-rule="nonzero" id="path104"/>
     </g>
     <g id="g106" transform="translate(121.553 20.4048)">
      <path d="m-19.05,9.47l-1.46,3.65l-1.46,-3.65l2.92,0zm3.13,-3.57l-1.69,0l-0.86,2.11l-4.08,0l-0.84,-2.11l-1.61,0l3.61,8.9l1.81,0l3.66,-8.9z" fill="#ed7f17" fill-rule="nonzero" id="path108"/>
     </g>
    </g>
   </g>
   <g id="g110">
    <g id="g112">
     <g id="g118">
      <g id="g120">
       <path d="m12.91,43.53c0,-0.05 0,-0.1 0,-0.15l0,0c0,-3.09 -2.51,-5.61 -5.61,-5.61l0,0c-0.02,0 -0.04,0 -0.07,0l0,0c0,0 0,0 0,0l0,0c-0.02,0 -0.04,0 -0.06,0l0,0c0,0 -0.01,0 -0.01,0l0,0c-0.02,0 -0.04,0 -0.06,0l0,0c0,0 0,0 -0.01,0l0,0c-0.02,0 -0.04,0 -0.06,0l0,0c0,0 0,0 0,0l0,0c-0.02,0.01 -0.04,0.01 -0.06,0.01l0,0c-0.01,0 -0.01,0 -0.01,0l0,0c-0.02,0 -0.04,0 -0.06,0l0,0c0,0 0,0 -0.01,0l0,0c-0.06,0.01 -0.13,0.01 -0.19,0.02l0,0c0,0 0,0 0,0l0,0c-0.02,0 -0.05,0.01 -0.07,0.01l0,0c0,0 0,0 0,0l0,0c-0.02,0 -0.04,0 -0.06,0.01l0,0c0,0 0,0 0,0l0,0c-1.16,0.15 -2.2,0.65 -3.03,1.39l0,0l-0.89,-1.46c1.13,-0.93 2.53,-1.52 4.07,-1.64l0,0c0,-0.01 0.01,-0.01 0.01,-0.01l0,0c0.01,0 0.02,0 0.03,0l0,0c0,0 0.01,0 0.01,0l0,0c0.01,0 0.02,0 0.03,0l0,0c0.01,0 0.01,0 0.01,0l0,0c0.01,0 0.02,0 0.03,0l0,0c0.01,0 0.01,0 0.02,0l0,0c0.01,0 0.02,-0.01 0.02,-0.01l0,0c0.01,0 0.02,0 0.03,0l0,0c0,0 0.01,0 0.02,0l0,0c0,0 0.01,0 0.02,0l0,0c0.01,0 0.03,0 0.04,0l0,0c0.01,0 0.02,0 0.02,0l0,0c0.01,0 0.02,0 0.02,0l0,0c0.01,0 0.02,0 0.03,0l0,0c0,0 0.01,0 0.02,-0.01l0,0c0.01,0 0.01,0 0.02,0l0,0c0.01,0 0.01,0 0.02,0l0,0c0.01,0 0.02,0 0.03,0l0,0c0,0 0.01,0 0.02,0l0,0c0,0 0.01,0 0.02,0l0,0c0.01,0 0.01,0 0.02,0l0,0c0.01,0 0.02,0 0.03,0l0,0c0.01,0 0.01,0 0.01,0l0,0c0.02,0 0.03,0 0.05,0l0,0c4.03,0 7.3,3.27 7.3,7.3l0,0c0,0.45 -0.04,0.89 -0.12,1.31l0,0l-1.57,-1.16z" fill="url(#linearGradient132)" id="path134"/>
      </g>
     </g>
    </g>
   </g>
  </g>
 </g>
</svg>