<?xml version="1.0"?>
<svg width="213" height="68" xmlns="http://www.w3.org/2000/svg" xmlns:svg="http://www.w3.org/2000/svg" enable-background="new 0 0 243.5 98" version="1.1" xml:space="preserve">
 <style type="text/css">.st0{fill:#2D2D2C;}
	.st1{fill:#B21E18;}</style>
 <g class="layer">
  <title>Layer 1</title>
  <g id="svg_1">
   <g id="svg_2">
    <path class="st0" d="m27,64.49l-1.21,0l-2.97,-6.45l-2.95,6.45l-1.22,0l4.07,-8.87l0.2,0l4.08,8.87z" id="svg_3"/>
    <path class="st0" d="m29.47,55.62l0,6.56l6.51,-6.56l0.09,0l0,8.87l-1.15,0l0,-6.51l-6.46,6.51l-0.14,0l0,-8.87l1.15,0z" id="svg_4"/>
    <path class="st0" d="m46.47,64.49l-8.3,0l0,-8.87l1.15,0l0,7.8l5.15,0l0,-7.8l1.16,0l0,7.8l1.92,0l0,2.47l-1.07,0l0,-1.4l-0.01,0z" id="svg_5"/>
    <path class="st0" d="m56.13,61.55l0.96,0.51c-0.31,0.62 -0.67,1.12 -1.08,1.5c-0.42,0.38 -0.88,0.67 -1.4,0.86c-0.52,0.19 -1.1,0.29 -1.75,0.29c-1.45,0 -2.58,-0.47 -3.39,-1.42c-0.81,-0.94 -1.22,-2.01 -1.22,-3.2c0,-1.13 0.34,-2.13 1.03,-3.01c0.88,-1.12 2.05,-1.68 3.52,-1.68c1.5,0 2.71,0.57 3.62,1.72c0.64,0.81 0.96,1.82 0.97,3.02l-7.97,0c0.02,1.04 0.35,1.89 0.99,2.55c0.64,0.66 1.42,0.99 2.35,0.99c0.45,0 0.89,-0.08 1.32,-0.24c0.43,-0.16 0.79,-0.37 1.09,-0.63c0.28,-0.26 0.61,-0.68 0.96,-1.26zm0,-2.38c-0.15,-0.61 -0.37,-1.1 -0.66,-1.46c-0.29,-0.36 -0.68,-0.66 -1.16,-0.88c-0.48,-0.22 -0.99,-0.34 -1.51,-0.34c-0.87,0 -1.61,0.28 -2.24,0.84c-0.45,0.41 -0.79,1.02 -1.03,1.84l6.6,0z" id="svg_6"/>
    <path class="st0" d="m65.66,60.22l-5.16,0l0,4.27l-1.15,0l0,-8.87l1.15,0l0,3.53l5.16,0l0,-3.53l1.14,0l0,8.87l-1.14,0l0,-4.27z" id="svg_7"/>
    <path class="st0" d="m70.4,59.36l0.59,0c0.39,0 0.73,-0.13 1.05,-0.38c0.31,-0.25 0.47,-0.61 0.47,-1.08c0,-0.39 -0.13,-0.73 -0.38,-1.02c-0.26,-0.29 -0.65,-0.42 -1.17,-0.42c-0.61,0 -1.23,0.24 -1.85,0.72l-0.64,-0.79c0.8,-0.67 1.64,-1 2.54,-1c0.74,0 1.35,0.22 1.86,0.66c0.5,0.44 0.75,1.01 0.75,1.71c0,0.92 -0.4,1.55 -1.22,1.88c1.06,0.45 1.59,1.23 1.59,2.35c0,0.7 -0.25,1.35 -0.75,1.9c-0.5,0.57 -1.24,0.85 -2.23,0.85c-1.21,0 -2.19,-0.39 -2.93,-1.18l0.72,-0.81c0.55,0.62 1.25,0.92 2.1,0.92c0.58,0 1.04,-0.15 1.36,-0.46c0.33,-0.31 0.49,-0.72 0.49,-1.23c0,-0.49 -0.16,-0.88 -0.49,-1.18c-0.33,-0.3 -0.72,-0.45 -1.17,-0.45l-0.7,0l0,-0.99l0.01,0z" id="svg_8"/>
    <path class="st0" d="m76.69,55.62l0,6.56l6.51,-6.56l0.09,0l0,8.87l-1.14,0l0,-6.51l-6.46,6.51l-0.14,0l0,-8.87l1.14,0z" id="svg_9"/>
    <path class="st0" d="m89.6,55.39c1.36,0 2.5,0.5 3.4,1.48c0.81,0.91 1.22,1.98 1.22,3.21c0,1.23 -0.43,2.32 -1.29,3.24c-0.87,0.92 -1.97,1.39 -3.33,1.39c-1.36,0 -2.46,-0.46 -3.33,-1.39c-0.86,-0.92 -1.29,-2.01 -1.29,-3.24c0,-1.23 0.41,-2.3 1.22,-3.21c0.91,-0.98 2.04,-1.48 3.4,-1.48zm0,1.12c-0.94,0 -1.75,0.35 -2.43,1.06c-0.68,0.7 -1.02,1.54 -1.02,2.53c0,0.65 0.16,1.25 0.47,1.8c0.31,0.56 0.73,0.99 1.26,1.29c0.52,0.3 1.1,0.45 1.73,0.45c0.64,0 1.22,-0.15 1.74,-0.45c0.52,-0.3 0.94,-0.73 1.25,-1.29c0.31,-0.56 0.46,-1.15 0.46,-1.8c0,-0.99 -0.34,-1.83 -1.02,-2.53c-0.68,-0.71 -1.49,-1.06 -2.44,-1.06z" id="svg_10"/>
    <path class="st0" d="m102.22,60.22l-5.15,0l0,4.27l-1.15,0l0,-8.87l1.15,0l0,3.53l5.15,0l0,-3.53l1.14,0l0,8.87l-1.14,0l0,-4.27z" id="svg_11"/>
    <path class="st0" d="m111.77,60.22l-5.15,0l0,4.27l-1.15,0l0,-8.87l1.15,0l0,3.53l5.15,0l0,-3.53l1.14,0l0,8.87l-1.14,0l0,-4.27z" id="svg_12"/>
    <path class="st0" d="m119.23,55.39c1.36,0 2.49,0.5 3.39,1.48c0.82,0.91 1.22,1.98 1.22,3.21c0,1.23 -0.43,2.32 -1.29,3.24c-0.86,0.92 -1.97,1.39 -3.32,1.39c-1.36,0 -2.48,-0.46 -3.33,-1.39c-0.86,-0.92 -1.29,-2.01 -1.29,-3.24c0,-1.23 0.41,-2.3 1.22,-3.21c0.9,-0.98 2.03,-1.48 3.4,-1.48zm0,1.12c-0.95,0 -1.76,0.35 -2.44,1.06c-0.68,0.7 -1.02,1.54 -1.02,2.53c0,0.65 0.15,1.25 0.46,1.8c0.31,0.56 0.73,0.99 1.26,1.29c0.53,0.3 1.11,0.45 1.74,0.45c0.63,0 1.21,-0.15 1.74,-0.45c0.53,-0.3 0.94,-0.73 1.25,-1.29c0.31,-0.56 0.46,-1.15 0.46,-1.8c0,-0.99 -0.34,-1.83 -1.02,-2.53c-0.68,-0.71 -1.49,-1.06 -2.43,-1.06z" id="svg_13"/>
    <path class="st0" d="m126.68,56.62l0,7.87l-1.14,0l0,-8.87l4.48,0l0,1l-3.34,0z" id="svg_14"/>
    <path class="st0" d="m134.92,55.39c1.37,0 2.5,0.5 3.4,1.48c0.81,0.91 1.22,1.98 1.22,3.21c0,1.23 -0.43,2.32 -1.29,3.24c-0.86,0.92 -1.97,1.39 -3.33,1.39c-1.36,0 -2.47,-0.46 -3.33,-1.39c-0.86,-0.92 -1.29,-2.01 -1.29,-3.24c0,-1.23 0.41,-2.3 1.22,-3.21c0.9,-0.98 2.04,-1.48 3.4,-1.48zm0,1.12c-0.94,0 -1.75,0.35 -2.43,1.06c-0.68,0.7 -1.02,1.54 -1.02,2.53c0,0.65 0.16,1.25 0.47,1.8c0.31,0.56 0.73,0.99 1.26,1.29c0.53,0.3 1.11,0.45 1.73,0.45c0.64,0 1.22,-0.15 1.74,-0.45c0.53,-0.3 0.94,-0.73 1.25,-1.29c0.31,-0.56 0.46,-1.15 0.46,-1.8c0,-0.99 -0.34,-1.83 -1.02,-2.53c-0.68,-0.71 -1.49,-1.06 -2.44,-1.06z" id="svg_15"/>
    <path class="st0" d="m145.29,55.62l1.13,0l0,1.63c0.45,-0.63 0.97,-1.09 1.56,-1.4c0.59,-0.31 1.25,-0.46 1.97,-0.46c1.26,0 2.34,0.46 3.24,1.36c0.9,0.91 1.34,2 1.34,3.27c0,1.31 -0.44,2.41 -1.33,3.33c-0.89,0.91 -1.96,1.36 -3.21,1.36c-0.71,0 -1.36,-0.14 -1.95,-0.44c-0.59,-0.29 -1.13,-0.73 -1.61,-1.31l0,4.77l-1.13,0l0,-12.11l-0.01,0zm4.56,0.87c-0.98,0 -1.81,0.34 -2.49,1.04c-0.68,0.69 -1.02,1.54 -1.02,2.57c0,0.68 0.15,1.28 0.46,1.83c0.3,0.54 0.73,0.97 1.29,1.28c0.56,0.31 1.15,0.47 1.78,0.47c0.62,0 1.19,-0.16 1.74,-0.48c0.54,-0.32 0.97,-0.76 1.3,-1.34c0.32,-0.57 0.48,-1.17 0.48,-1.79c0,-0.64 -0.16,-1.23 -0.48,-1.8c-0.32,-0.56 -0.74,-1 -1.28,-1.32c-0.55,-0.3 -1.14,-0.46 -1.78,-0.46z" id="svg_16"/>
    <path class="st0" d="m157.43,59.13l1.08,0c0.86,0 1.54,0.07 2.03,0.2c0.49,0.14 0.91,0.44 1.26,0.91c0.35,0.47 0.53,1 0.53,1.6c0,0.74 -0.25,1.36 -0.76,1.88c-0.51,0.52 -1.28,0.77 -2.32,0.77l-2.95,0l0,-8.87l1.13,0l0,3.51zm0.04,1.05l0,3.35l1.31,0c1.54,0 2.32,-0.54 2.32,-1.63c0,-0.3 -0.08,-0.61 -0.25,-0.91c-0.16,-0.3 -0.41,-0.51 -0.73,-0.63c-0.32,-0.12 -0.88,-0.18 -1.69,-0.18l-0.96,0zm6.45,-4.56l1.15,0l0,8.87l-1.15,0l0,-8.87z" id="svg_17"/>
    <path class="st0" d="m173.37,60.22l-5.15,0l0,4.27l-1.15,0l0,-8.87l1.15,0l0,3.53l5.15,0l0,-3.53l1.14,0l0,8.87l-1.14,0l0,-4.27z" id="svg_18"/>
    <path class="st0" d="m176.62,55.62l1.15,0l0,3.74l4.1,-3.74l1.59,0l-4.5,4.06l4.85,4.81l-1.61,0l-4.08,-4.11l-0.36,0.32l0,3.79l-1.15,0l0,-8.87l0.01,0z" id="svg_19"/>
    <path class="st0" d="m193.17,55.62l0,8.87l-1.13,0l0,-1.53c-0.48,0.59 -1.02,1.02 -1.61,1.31c-0.59,0.29 -1.25,0.44 -1.95,0.44c-1.26,0 -2.33,-0.45 -3.22,-1.36c-0.89,-0.91 -1.33,-2.02 -1.33,-3.33c0,-1.28 0.45,-2.37 1.34,-3.27c0.89,-0.9 1.98,-1.36 3.24,-1.36c0.73,0 1.39,0.16 1.98,0.46c0.59,0.31 1.11,0.77 1.56,1.4l0,-1.63l1.12,0zm-4.57,0.87c-0.64,0 -1.22,0.16 -1.76,0.47c-0.54,0.31 -0.97,0.75 -1.29,1.32c-0.32,0.57 -0.48,1.16 -0.48,1.8c0,0.62 0.16,1.22 0.49,1.79c0.33,0.57 0.75,1.02 1.29,1.34c0.54,0.32 1.12,0.48 1.73,0.48c0.63,0 1.22,-0.16 1.78,-0.47c0.56,-0.31 1,-0.74 1.3,-1.28c0.3,-0.54 0.46,-1.15 0.46,-1.83c0,-1.02 -0.34,-1.88 -1.02,-2.57c-0.67,-0.7 -1.51,-1.05 -2.5,-1.05z" id="svg_20"/>
   </g>
   <g id="svg_21">
    <path class="st0" d="m17.11,8.29c7.2,0 10.6,2.82 10.6,6.55c0,3.77 -2.64,6.17 -8.15,6.71l0,0.25c6.17,0 9.81,4.3 9.81,8.57c0,4.31 -3.65,8.57 -13.46,8.57l-15.54,0c-0.25,0 -0.37,-0.29 -0.37,-0.62c0,-0.33 0.12,-0.63 0.37,-0.63l3.11,0l0,-28.16l-3.11,0c-0.25,0 -0.37,-0.29 -0.37,-0.62c0,-0.33 0.12,-0.62 0.37,-0.62l16.74,0zm-5.35,13.08l3.07,0c3.11,0 4.59,-2.94 4.59,-5.92c0,-2.94 -1.49,-5.93 -4.39,-5.93l-3.27,0l0,11.85zm8.91,9.12c0,-3.9 -1.61,-7.87 -5.38,-7.87l-3.52,0l0,15.03c1,0.04 2.36,0.04 3.69,0.04c3.8,0 5.21,-3.56 5.21,-7.2z" id="svg_22"/>
    <path class="st0" d="m32.97,27.92c0,-7.45 5.55,-11.39 11.06,-11.39c5.42,0 10.98,3.85 11.06,11.76c0,0 -0.08,0.29 -0.29,0.29l-14.04,0c0,7.17 1.49,9.73 4.76,9.73c3.69,0 7.5,-1.98 8,-5.75c0,-0.21 0.25,-0.33 0.49,-0.33c0.25,0 0.54,0.12 0.54,0.33c-0.29,3.85 -4.44,6.79 -9.2,6.79c-6.29,0 -12.38,-4.64 -12.38,-11.43zm15.04,-0.38l0,-5.01c0,-3.35 -1.82,-5.05 -3.64,-5.05c-1.83,0 -3.65,1.71 -3.65,5.05l0,5.01l7.29,0z" id="svg_23"/>
    <path class="st0" d="m109.47,17.98c-1.74,0 -3.06,1.16 -4.39,2.53l0,18.43l-7.46,0l0,-18.02c0,-1.95 -0.99,-2.94 -2.49,-2.94c-1.69,0 -3.06,0.87 -4.43,2.31l0,18.64l-7.42,0l0,-20.95l-2.36,0c-0.12,0 -0.25,-0.25 -0.25,-0.5c0,-0.24 0.12,-0.53 0.25,-0.53l9.03,0c0.25,0 0.33,0.12 0.33,0.33l0,1.7l0.37,0c1.49,-1.4 3.52,-2.44 6.34,-2.44c2.6,0 5.51,0.95 7.04,3.48c1.86,-2.1 4.3,-3.48 7.29,-3.48c3.77,0 8.07,1.95 8.07,7.58l0,10.28c0,1.66 0.79,2.48 1.62,2.48c0.83,0 1.65,-0.82 1.65,-2.48c0,-0.25 0.29,-0.38 0.54,-0.38c0.25,0 0.5,0.13 0.5,0.38c0,3.3 -2.94,4.97 -5.88,4.97c-2.94,0 -5.88,-1.66 -5.88,-4.97l0,-13.48c0.01,-1.95 -0.98,-2.94 -2.47,-2.94z" id="svg_24"/>
    <path class="st0" d="m141.78,26.92l-6.63,0l0,12.01l-7.45,0l0,-20.95l-2.28,0c-0.21,0 -0.33,-0.29 -0.33,-0.5c0,-0.24 0.12,-0.53 0.33,-0.53l9.07,0c0.42,0 0.67,0.04 0.67,0.49l0,8.46l6.63,0l0,-8.95l6.87,0c0.29,0 0.58,0.2 0.58,0.49l0,16.95c0,1.66 0.79,2.48 1.61,2.48c0.83,0 1.66,-0.82 1.66,-2.48c0,-0.25 0.29,-0.38 0.54,-0.38c0.25,0 0.5,0.13 0.5,0.38c0,3.3 -2.94,4.97 -5.88,4.97c-2.94,0 -5.88,-1.66 -5.88,-4.97l0,-7.47l-0.01,0z" id="svg_25"/>
    <path class="st0" d="m165.46,39.35c-4.18,0 -8.32,-2.61 -8.32,-7.62l0,-13.75l-1.91,0c-0.21,0 -0.33,-0.25 -0.33,-0.5c0,-0.24 0.12,-0.53 0.33,-0.53l8.99,0c0.25,0 0.37,0.08 0.37,0.28l0,15.65c0,3.02 1.87,4.55 3.73,4.55c1.87,0 3.73,-1.54 3.73,-4.55l0,-15.93l7.13,0c0.25,0 0.33,0.12 0.33,0.28l0,17.19c0,1.65 0.82,2.43 1.7,2.43c0.87,0 1.74,-0.78 1.74,-2.43c0,-0.25 0.29,-0.38 0.53,-0.38c0.25,0 0.5,0.12 0.5,0.38c0,3.1 -2.9,4.92 -5.76,4.92c-2.36,0 -4.68,-1.2 -5.51,-3.64c-1.65,2.53 -4.39,3.65 -7.25,3.65z" id="svg_26"/>
    <path class="st0" d="m198.02,27.76l-2.53,0l0,11.18l-7.45,0l0,-20.96l-2.36,0c-0.21,0 -0.33,-0.25 -0.33,-0.5c0,-0.24 0.13,-0.53 0.33,-0.53l9.23,0c0.46,0 0.58,0.16 0.58,0.57l0,9.19l3.27,0c3.44,0 1.12,-6.82 4.1,-9.19c0.83,-0.66 1.99,-0.99 3.15,-0.99c2.2,0 4.39,1.24 4.39,3.77c0,2.45 -1.87,3.73 -3.77,3.73c-1.87,0 -3.77,-1.28 -3.77,-3.77l0,-0.16c-0.04,0 -0.21,-0.05 -0.25,-0.05c-0.5,1.41 -0.37,6.54 -2.23,7.09l0,0.12c0.66,-0.08 1.32,-0.12 1.9,-0.12c3.9,0 5.64,1.32 5.64,7.16c0,1.95 0.91,2.9 1.82,2.9c0.91,0 1.82,-0.91 1.82,-2.73c0,-0.25 0.29,-0.37 0.54,-0.37c0.25,0 0.5,0.12 0.5,0.37c0,2.98 -2.24,4.89 -6.09,4.89c-3.03,0 -6.05,-1.91 -6.05,-6.5c0,-2.95 -0.16,-5.1 -2.44,-5.1z" id="svg_27"/>
   </g>
   <g id="svg_28">
    <g id="svg_29">
     <path class="st1" d="m68.86,48.06c-5.31,0 -10.33,-2.06 -14.12,-5.79c-0.22,-0.21 -0.22,-0.56 -0.01,-0.78c0.21,-0.22 0.56,-0.22 0.78,-0.01c3.58,3.53 8.33,5.47 13.35,5.47c5.08,0 9.86,-1.98 13.45,-5.57c0.22,-0.22 0.57,-0.21 0.78,0c0.22,0.22 0.21,0.57 0,0.78c-3.79,3.81 -8.85,5.9 -14.23,5.9z" id="svg_30"/>
    </g>
    <g id="svg_31">
     <path class="st1" d="m54.93,14.76c-0.14,0 -0.28,-0.05 -0.38,-0.16c-0.22,-0.21 -0.22,-0.57 -0.01,-0.78c3.81,-3.87 8.9,-6.01 14.33,-6.01c5.38,0 10.43,2.1 14.23,5.9c0.22,0.22 0.22,0.57 0,0.78c-0.21,0.21 -0.57,0.21 -0.78,0c-3.59,-3.59 -8.37,-5.57 -13.45,-5.57c-5.13,0 -9.94,2.01 -13.55,5.67c-0.11,0.12 -0.25,0.17 -0.39,0.17z" id="svg_32"/>
    </g>
    <path class="st1" d="m58.36,27.96c0,-5.72 3.85,-11.43 11.59,-11.43c5.55,0 7.96,3.19 7.96,5.88c0,2.53 -1.87,3.81 -3.73,3.81c-1.86,0 -3.73,-1.28 -3.73,-3.77c0,-1.94 1.28,-3.48 4.31,-3.48c-1.37,-1.12 -3.02,-1.4 -4.52,-1.4c-3.52,0 -3.98,2.94 -3.98,8.33l0,4.14c0,5.46 0.54,8.28 3.94,8.28c3.69,0 6.5,-1.98 7,-5.75c0,-0.21 0.25,-0.33 0.5,-0.33c0.25,0 0.54,0.12 0.54,0.33c-0.29,3.84 -3.47,6.78 -8.24,6.78c-7.79,0 -11.64,-5.68 -11.64,-11.39z" id="svg_33"/>
    <g id="svg_34">
     <path class="st1" d="m49.39,9.23c-0.14,0 -0.28,-0.06 -0.39,-0.16c-0.22,-0.21 -0.22,-0.56 0,-0.78c5.29,-5.35 12.35,-8.29 19.86,-8.29c7.47,0 14.48,2.91 19.75,8.19c0.22,0.22 0.22,0.57 0,0.78c-0.22,0.22 -0.56,0.22 -0.78,0c-5.07,-5.07 -11.8,-7.86 -18.98,-7.86c-7.22,0 -14,2.83 -19.08,7.96c-0.09,0.1 -0.23,0.16 -0.38,0.16z" id="svg_35"/>
    </g>
   </g>
  </g>
 </g>
</svg>