<svg width="907" height="443" viewBox="0 0 907 443" fill="none" xmlns="http://www.w3.org/2000/svg">
<path d="M281.735 262.405C256.48 262.405 235.929 241.87 235.929 216.635H163.77C163.77 281.634 216.686 334.51 281.735 334.51V262.405Z" fill="#002A47"/>
<path d="M906.558 0.0327148H834.398V69.1904H906.558V0.0327148Z" fill="#002A47"/>
<path d="M235.931 216.634C235.931 151.635 183.014 98.7588 117.965 98.7588C52.9162 98.7588 0 151.635 0 216.634H72.1599C72.1599 191.399 92.7109 170.864 117.965 170.864C143.22 170.864 163.771 191.399 163.771 216.634H235.931Z" fill="#002A47"/>
<path d="M449.634 98.7588V108.015C435.54 102.057 420.059 98.7588 403.829 98.7588C338.779 98.7588 285.863 151.635 285.863 216.634C285.863 281.634 338.779 334.51 403.829 334.51C420.059 334.51 435.54 331.212 449.634 325.254V334.51H521.794V98.7588H449.634ZM403.829 262.405C378.574 262.405 358.023 241.869 358.023 216.634C358.023 191.399 378.574 170.864 403.829 170.864C429.083 170.864 449.634 191.399 449.634 216.634C449.634 241.869 429.083 262.405 403.829 262.405Z" fill="#002A47"/>
<path d="M650.062 0.0327148H577.902V334.51H650.062V0.0327148Z" fill="#002A47"/>
<path d="M778.304 0H706.145V334.509H778.304V0Z" fill="#002A47"/>
<path d="M906.558 98.7588H834.398V334.51H906.558V98.7588Z" fill="#002A47"/>
<path d="M163.771 0.0327148V216.634C163.771 241.869 143.22 262.405 117.965 262.405C92.7109 262.405 72.2555 241.965 72.1758 216.794C72.1758 216.73 72.2237 216.666 72.2237 216.587C72.2237 216.507 71.283 214.468 70.1032 214.468H2.12047C0.940661 214.484 0 215.424 0 216.587V216.618C0 281.634 52.9162 334.51 117.965 334.51C183.014 334.51 235.931 281.634 235.931 216.634V0.0327148H163.771Z" fill="#002A47"/>
<path d="M34.2975 411.432C37.2945 411.432 39.9482 410.66 42.2584 409.115C44.5999 407.571 46.2857 405.459 47.316 402.779L60.147 404.623C58.6798 410.613 55.5891 415.326 50.8749 418.762C46.1608 422.167 40.635 423.869 34.2975 423.869C29.2712 423.869 24.7132 422.797 20.6236 420.653C16.565 418.478 13.3182 415.294 10.8831 411.102C8.44802 406.877 7.23047 402.007 7.23047 396.49C7.23047 390.973 8.44802 386.102 10.8831 381.878C13.3182 377.654 16.565 374.47 20.6236 372.326C24.7132 370.151 29.2712 369.063 34.2975 369.063C40.635 369.063 46.1608 370.781 50.8749 374.217C55.5891 377.622 58.6798 382.335 60.147 388.356L47.316 390.201C46.2857 387.521 44.5999 385.409 42.2584 383.864C39.9482 382.288 37.2945 381.5 34.2975 381.5C30.1765 381.5 26.7737 382.902 24.0889 385.708C21.4352 388.482 20.1084 392.076 20.1084 396.49C20.1084 400.903 21.4352 404.497 24.0889 407.271C26.7737 410.045 30.1765 411.432 34.2975 411.432ZM122.429 369.867V423.112H109.973V382.445H89.8834C89.8834 385.409 89.7897 388.278 89.6024 391.052C89.4151 393.826 89.1029 396.695 88.6658 399.658C88.2287 402.59 87.6512 405.285 86.9332 407.744C86.2463 410.172 85.341 412.457 84.2171 414.601C83.0932 416.744 81.7976 418.51 80.3303 419.897C78.8942 421.252 77.146 422.245 75.0855 422.876C73.0562 423.475 70.8084 423.554 68.3421 423.112V410.534C71.8699 411.102 74.2894 409.32 75.6006 405.191C76.7556 401.628 77.3644 394.977 77.4269 385.235C77.4269 383.47 77.4113 380.648 77.38 376.771C77.38 373.745 77.38 371.443 77.38 369.867H122.429ZM186.585 369.867L164.529 428.456C162.281 434.54 158.628 438.623 153.571 440.703C148.513 442.784 142.831 442.61 136.525 440.183L139.429 429.354C140.553 429.701 141.629 429.938 142.659 430.064C143.689 430.19 144.719 430.127 145.75 429.874C146.811 429.654 147.732 429.228 148.513 428.598C149.325 427.999 150.027 427.085 150.621 425.855C151.213 424.626 151.589 423.144 151.745 421.41L132.778 369.867H147.061L159.612 409.257L172.302 369.867H186.585ZM271.064 369.867L246.291 396.442L271.064 423.065H257.999L238.846 403.914V423.112H226.155V403.914L207.002 423.065H193.937L218.71 396.442L193.937 369.867H207.002L226.155 388.971V369.867H238.846V388.971L257.999 369.867H271.064ZM306.092 376.676C310.713 376.676 314.928 377.622 318.736 379.514C322.576 381.374 325.635 384.1 327.915 387.694C330.225 391.257 331.379 395.355 331.379 399.989C331.379 404.592 330.241 408.737 327.961 412.425C325.682 416.082 322.607 418.904 318.736 420.89C314.896 422.876 310.682 423.869 306.092 423.869C302.658 423.869 299.364 423.286 296.211 422.119C293.058 420.953 290.295 419.345 287.922 417.296C285.581 415.247 283.708 412.709 282.303 409.683C280.898 406.656 280.196 403.425 280.196 399.989C280.196 393.873 280.352 386.827 280.664 378.852C280.82 371.065 283.005 365.17 287.22 361.166C291.435 357.131 297.21 355.113 304.547 355.113C305.452 355.113 306.92 355.129 308.949 355.161C310.978 355.192 312.492 355.208 313.491 355.208C314.49 355.176 315.817 355.113 317.471 355.019C319.127 354.924 320.687 354.751 322.155 354.499C323.622 354.215 325.152 353.837 326.744 353.364V364.996C325.152 365.438 323.622 365.8 322.155 366.084C320.718 366.368 319.141 366.557 317.425 366.651C315.708 366.746 314.412 366.809 313.538 366.841C312.664 366.872 311.102 366.872 308.855 366.841C306.639 366.778 305.202 366.746 304.547 366.746C300.426 366.746 297.335 367.676 295.275 369.536C293.245 371.396 292.168 374.501 292.043 378.852C292.043 379.419 292.028 379.876 291.996 380.223C296.274 377.859 300.972 376.676 306.092 376.676ZM319.064 399.989C319.095 396.584 317.846 393.731 315.317 391.43C312.82 389.097 309.745 387.931 306.092 387.931C302.44 387.931 299.364 389.097 296.866 391.43C294.369 393.731 293.12 396.584 293.12 399.989C293.12 403.425 294.369 406.294 296.866 408.595C299.364 410.897 302.44 412.047 306.092 412.047C309.807 412.047 312.883 410.897 315.317 408.595C317.753 406.294 319.002 403.425 319.064 399.989ZM386.216 369.867H398.954V423.112H386.216L385.889 413.419C384.39 416.697 382.157 419.266 379.192 421.126C376.257 422.955 372.652 423.869 368.375 423.869C360.725 423.869 354.42 421.347 349.456 416.303C344.522 411.228 342.057 404.623 342.057 396.49C342.057 392.455 342.712 388.735 344.023 385.33C345.366 381.894 347.192 378.993 349.503 376.629C351.844 374.233 354.638 372.373 357.885 371.049C361.132 369.725 364.629 369.063 368.375 369.063C372.652 369.063 376.273 369.993 379.238 371.853C382.235 373.682 384.499 376.235 386.029 379.514L386.216 369.867ZM359.43 407.555C362.021 410.172 365.44 411.48 369.686 411.48C373.962 411.48 377.412 410.093 380.034 407.319C382.657 404.513 383.953 400.856 383.922 396.348C383.86 391.934 382.517 388.356 379.895 385.614C377.272 382.839 373.885 381.452 369.733 381.452C365.518 381.452 362.099 382.792 359.477 385.472C356.854 388.151 355.544 391.824 355.544 396.49C355.544 401.218 356.839 404.907 359.43 407.555ZM486.337 410.534H493.969V439.71H481.513V423.112H447.703V439.71H435.246V410.534H441.287C442.723 404.008 443.629 397.94 444.003 392.328C444.409 386.685 444.612 379.198 444.612 369.867H486.337V410.534ZM453.697 410.534H473.833V382.445H456.975C456.694 392.502 455.601 401.865 453.697 410.534ZM543.046 420.653C538.988 422.797 534.429 423.869 529.372 423.869C524.314 423.869 519.757 422.797 515.698 420.653C511.64 418.478 508.393 415.294 505.957 411.102C503.523 406.909 502.305 402.038 502.305 396.49C502.305 390.973 503.523 386.102 505.957 381.878C508.393 377.654 511.64 374.47 515.698 372.326C519.788 370.151 524.345 369.063 529.372 369.063C534.429 369.063 538.988 370.151 543.046 372.326C547.136 374.47 550.399 377.654 552.833 381.878C555.269 386.102 556.486 390.973 556.486 396.49C556.486 402.038 555.269 406.909 552.833 411.102C550.399 415.294 547.136 418.478 543.046 420.653ZM529.372 411.432C533.555 411.432 536.943 410.061 539.534 407.319C542.157 404.576 543.483 400.966 543.514 396.49C543.545 392.076 542.219 388.482 539.534 385.708C536.88 382.902 533.493 381.5 529.372 381.5C525.251 381.5 521.848 382.902 519.163 385.708C516.51 388.482 515.183 392.076 515.183 396.49C515.183 400.966 516.51 404.576 519.163 407.319C521.817 410.061 525.22 411.432 529.372 411.432ZM592.216 411.432C595.213 411.432 597.867 410.66 600.177 409.115C602.518 407.571 604.205 405.459 605.234 402.779L618.066 404.623C616.598 410.613 613.507 415.326 608.794 418.762C604.08 422.167 598.554 423.869 592.216 423.869C587.19 423.869 582.632 422.797 578.542 420.653C574.484 418.478 571.237 415.294 568.801 411.102C566.367 406.877 565.149 402.007 565.149 396.49C565.149 390.973 566.367 386.102 568.801 381.878C571.237 377.654 574.484 374.47 578.542 372.326C582.632 370.151 587.19 369.063 592.216 369.063C598.554 369.063 604.08 370.781 608.794 374.217C613.507 377.622 616.598 382.335 618.066 388.356L605.234 390.201C604.205 387.521 602.518 385.409 600.177 383.864C597.867 382.288 595.213 381.5 592.216 381.5C588.095 381.5 584.693 382.902 582.007 385.708C579.354 388.482 578.027 392.076 578.027 396.49C578.027 400.903 579.354 404.497 582.007 407.271C584.693 410.045 588.095 411.432 592.216 411.432ZM666.768 369.867V382.445H652.719V423.112H638.437V382.445H624.341V369.867H666.768ZM718.233 369.867H730.971V423.112H718.233L717.904 413.419C716.406 416.697 714.174 419.266 711.208 421.126C708.274 422.955 704.667 423.869 700.391 423.869C692.742 423.869 686.435 421.347 681.472 416.303C676.539 411.228 674.074 404.623 674.074 396.49C674.074 392.455 674.729 388.735 676.04 385.33C677.382 381.894 679.209 378.993 681.519 376.629C683.86 374.233 686.654 372.373 689.901 371.049C693.148 369.725 696.644 369.063 700.391 369.063C704.667 369.063 708.29 369.993 711.255 371.853C714.252 373.682 716.516 376.235 718.045 379.514L718.233 369.867ZM691.446 407.555C694.038 410.172 697.457 411.48 701.702 411.48C705.979 411.48 709.429 410.093 712.051 407.319C714.674 404.513 715.969 400.856 715.938 396.348C715.875 391.934 714.534 388.356 711.91 385.614C709.289 382.839 705.901 381.452 701.749 381.452C697.534 381.452 694.116 382.792 691.493 385.472C688.871 388.151 687.56 391.824 687.56 396.49C687.56 401.218 688.855 404.907 691.446 407.555ZM782.388 396.395C785.229 396.647 787.493 397.956 789.178 400.32C790.895 402.653 791.754 405.553 791.754 409.021C791.754 411.417 791.254 413.545 790.255 415.405C789.288 417.233 787.961 418.699 786.275 419.802C784.589 420.906 782.701 421.741 780.609 422.309C778.517 422.844 776.285 423.112 773.912 423.112H744.176V369.867H772.929C775.302 369.867 777.503 370.135 779.532 370.671C781.592 371.207 783.434 372.042 785.057 373.177C786.681 374.281 787.961 375.746 788.897 377.575C789.833 379.403 790.302 381.515 790.302 383.911C790.302 387.19 789.631 389.917 788.289 392.092C786.946 394.267 784.979 395.702 782.388 396.395ZM757.007 378.331V392.092H769.838C771.805 392.092 773.46 391.462 774.802 390.201C776.144 388.908 776.815 387.253 776.815 385.235C776.815 383.186 776.144 381.531 774.802 380.27C773.491 378.978 771.836 378.331 769.838 378.331H757.007ZM770.821 413.986C772.788 413.986 774.428 413.371 775.738 412.142C777.081 410.881 777.752 409.241 777.752 407.224C777.752 405.175 777.081 403.504 775.738 402.211C774.428 400.919 772.788 400.273 770.821 400.273H757.007V413.986H770.821ZM847.293 369.867L823.879 396.442L847.293 423.065H833.853L814.935 403.914V423.112H802.15V369.867H814.935V388.971L833.853 369.867H847.293ZM907 369.867V423.112H894.543V389.964L872.018 423.112H858.251V369.867H870.754V403.015L893.279 369.867H907Z" fill="#002A47"/>
</svg>
