<?xml version="1.0"?>
<svg width="126" height="24" xmlns="http://www.w3.org/2000/svg" xmlns:svg="http://www.w3.org/2000/svg">
 <g class="layer">
  <title>Layer 1</title>
  <path d="m23.42,2.58l-15.96,0c-3.76,0 -4.91,1.15 -4.91,4.08l0,0.25c0,2.86 1.08,3.9 4.78,3.9l9.38,0c5.75,0 7.74,1.89 7.74,5.86l0,0.63c0,4.92 -1.95,6.7 -7.53,6.7l-16.2,0l0,-2.51l16.09,0c3.88,0 5.06,-1.01 5.06,-4.12l0,-0.28c0,-2.82 -1.15,-3.9 -5.16,-3.9l-9.38,0c-5.55,0 -7.33,-1.85 -7.33,-6.04l0,-0.77c0,-4.53 1.85,-6.38 7.46,-6.38l15.96,0l0,2.58l0,0z" fill="#000000" id="svg_1"/>
  <path d="m28.43,0l0,24l2.51,0l0,-10.54l18.87,0l0,-2.23l-18.87,0l0,-8.65l19.26,0l0,-2.58l-21.77,0z" fill="#000000" id="svg_2"/>
  <path d="m69.48,0l-13.39,0l0,24l13.39,0l0,-24z" fill="#FA4141" id="svg_3"/>
  <path d="m78.27,13.29l13.89,0c3.03,0 4.15,-1.19 4.15,-4.71l0,-1.01c0,-3.56 -0.91,-4.99 -4.15,-4.99l-13.89,0l0,10.71zm17.58,10.71l-10.57,-8.58l-7.01,0l0,8.58l-2.51,0l0,-24l16.4,0c4.91,0 6.66,1.95 6.66,7.26l0,1.04c0,5.2 -1.71,7.12 -6.66,7.12l-3.6,0l10.96,8.58l-3.67,0z" fill="#000000" id="svg_4"/>
  <path d="m116.39,21.49c4.7,0 6.41,-0.8 6.41,-5.1l0,-16.39l2.51,0l0,16.39c0,5.45 -1.84,7.61 -7.01,7.61l-7.78,0c-5.16,0 -6.97,-2.16 -6.97,-7.61l0,-16.39l2.51,0l0,16.39c0,3.53 1.36,5.1 4.46,5.1l5.87,0l0,0z" fill="#000000" id="svg_5"/>
 </g>
</svg>