<?xml version="1.0" encoding="UTF-8" standalone="no"?>
<!DOCTYPE svg PUBLIC "-//W3C//DTD SVG 1.1//EN" "http://www.w3.org/Graphics/SVG/1.1/DTD/svg11.dtd">
<svg width="100%" height="100%" viewBox="0 0 215 25" version="1.1" xmlns="http://www.w3.org/2000/svg" xmlns:xlink="http://www.w3.org/1999/xlink" xml:space="preserve" xmlns:serif="http://www.serif.com/" style="fill-rule:evenodd;clip-rule:evenodd;stroke-linejoin:round;stroke-miterlimit:2;">
    <g transform="matrix(1,0,0,1,-16.8033,-115.095)">
        <g transform="matrix(0.780884,0,0,1,379.257,12.434)">
            <g transform="matrix(0.401629,0,0,0.313626,-464.158,155.669)">
                <g transform="matrix(1.01622,0,0,1.01622,0,-111.153)">
                    <path d="M0,-56.938L0,0L56.983,-56.938L0,-56.938Z" style="fill:rgb(146,207,174);fill-rule:nonzero;"/>
                </g>
                <g transform="matrix(1.01622,0,0,1.01622,5.16565,-163.712)">
                    <path d="M0,56.929L56.969,56.929L56.969,0L0,56.929Z" style="fill:rgb(42,130,136);fill-rule:nonzero;"/>
                </g>
                <g transform="matrix(1.01622,0,0,1.01622,107.83,-125.917)">
                    <path d="M0,-22.59C0,-16.149 -3.787,-12.743 -10.951,-12.743L-18.663,-12.743L-18.663,-32.428L-10.951,-32.428C-3.48,-32.428 0,-29.41 0,-22.931L0,-22.59ZM-10.951,-42.329L-31.114,-42.329L-31.114,19.739L-18.663,19.739L-18.663,-3.45L-10.695,-3.45C3.853,-3.45 12.196,-10.426 12.196,-22.59L12.196,-22.931C12.196,-35.259 3.76,-42.329 -10.951,-42.329" style="fill:rgb(35,31,32);fill-rule:nonzero;"/>
                </g>
                <g transform="matrix(1.01622,0,0,1.01622,140.722,-140.087)">
                    <path d="M0,5.296L9.161,5.296C16.645,5.296 20.283,8.263 20.283,14.368L20.283,14.709C20.283,20.789 16.684,23.872 9.587,23.872L0,23.872L0,5.296ZM10.184,-4.006L0,-4.006L0,-18.318L27.023,-18.318L27.023,-28.386L-12.366,-28.386L-12.366,33.682L9.928,33.682C24.151,33.682 32.309,26.8 32.309,14.801L32.309,14.459C32.309,2.552 24.451,-4.006 10.184,-4.006" style="fill:rgb(35,31,32);fill-rule:nonzero;"/>
                </g>
                <g transform="matrix(1.01622,0,0,1.01622,204.797,-136.057)">
                    <path d="M0,-2.718L25.721,-32.434L12.053,-32.434L-10.488,-5.699L-10.488,-32.351L-22.94,-32.351L-22.94,29.716L-10.488,29.716L-10.488,2.243L12.135,29.716L26.968,29.716L0,-2.718Z" style="fill:rgb(35,31,32);fill-rule:nonzero;"/>
                </g>
                <g transform="matrix(7.10051,0,0,7.10051,-1281.99,-490.233)">
                    <path d="M220.942,46.318L220.942,45.238L219.012,45.238L219.012,46.318C216.826,46.378 215.064,47.457 215.052,49.642L215.052,49.726C215.052,51.874 216.718,52.965 219.012,53.025L219.012,54.129L220.942,54.129L220.942,53.025C223.127,52.965 224.89,51.898 224.902,49.714L224.902,49.618C224.902,47.469 223.247,46.378 220.942,46.318ZM219.012,51.622C217.871,51.574 216.994,51.082 216.994,49.726L216.994,49.642C217.006,48.261 217.907,47.757 219.012,47.709L219.012,51.622ZM220.942,47.721C222.095,47.769 222.972,48.261 222.972,49.618L222.972,49.714C222.96,51.106 222.047,51.586 220.942,51.634L220.942,47.721Z" style="fill:rgb(35,31,32);fill-rule:nonzero;"/>
                </g>
                <g transform="matrix(7.10051,0,0,7.10051,-1281.99,-490.233)">
                    <path d="M229.043,52.786C228.094,52.786 227.494,52.174 227.494,50.914L227.494,50.818C227.494,49.557 228.118,48.921 229.031,48.921C229.907,48.921 230.532,49.545 230.532,50.818L230.532,50.914C230.532,52.138 230.003,52.786 229.043,52.786ZM225.816,56.145L227.554,56.145L227.554,53.05C227.878,53.661 228.587,54.141 229.559,54.141C231.119,54.141 232.294,52.978 232.294,50.902L232.294,50.806C232.294,48.729 231.095,47.59 229.559,47.59C228.635,47.59 227.902,48.118 227.554,48.717L227.554,47.734L225.816,47.734L225.816,56.145Z" style="fill:rgb(35,31,32);fill-rule:nonzero;"/>
                </g>
                <g transform="matrix(7.10051,0,0,7.10051,-1281.99,-490.233)">
                    <path d="M235.367,52.93C234.73,52.93 234.454,52.63 234.454,52.174C234.454,51.501 235.042,51.285 236.051,51.285L236.724,51.285L236.724,51.813C236.724,52.51 236.135,52.93 235.367,52.93ZM234.85,54.141C235.835,54.141 236.387,53.757 236.748,53.254L236.748,54.009L238.438,54.009L238.438,49.918C238.438,48.214 237.347,47.59 235.811,47.59C234.274,47.59 233.099,48.25 232.991,49.738L234.634,49.738C234.706,49.197 235.018,48.849 235.703,48.849C236.495,48.849 236.724,49.257 236.724,50.002L236.724,50.254L236.015,50.254C234.094,50.254 232.752,50.806 232.752,52.27C232.752,53.59 233.711,54.141 234.85,54.141Z" style="fill:rgb(35,31,32);fill-rule:nonzero;"/>
                </g>
                <g transform="matrix(7.10051,0,0,7.10051,-1281.99,-490.233)">
                    <path d="M243.684,54.009L245.398,54.009L245.398,47.734L243.684,47.734L243.684,50.194L241.354,50.194L241.354,47.734L239.64,47.734L239.64,54.009L241.354,54.009L241.354,51.429L243.684,51.429L243.684,54.009Z" style="fill:rgb(35,31,32);fill-rule:nonzero;"/>
                </g>
                <g transform="matrix(7.10051,0,0,7.10051,-1281.99,-490.233)">
                    <path d="M246.66,54.009L255.094,54.009L255.094,47.734L253.38,47.734L253.38,52.774L251.734,52.774L251.734,47.734L250.02,47.734L250.02,52.774L248.374,52.774L248.374,47.734L246.66,47.734L246.66,54.009Z" style="fill:rgb(35,31,32);fill-rule:nonzero;"/>
                </g>
                <g transform="matrix(7.10051,0,0,7.10051,-1281.99,-490.233)">
                    <path d="M258.07,54.009L260.496,49.822L260.496,54.009L262.21,54.009L262.21,47.734L260.496,47.734L258.07,51.921L258.07,47.734L256.356,47.734L256.356,54.009L258.07,54.009Z" style="fill:rgb(35,31,32);fill-rule:nonzero;"/>
                </g>
                <g transform="matrix(7.10051,0,0,7.10051,-1281.99,-490.233)">
                    <path d="M268.33,49.281C268.33,48.226 267.251,47.59 265.776,47.59C264.468,47.59 263.292,48.238 263.124,49.738L264.672,49.738C264.816,49.197 265.188,48.921 265.728,48.921C266.34,48.921 266.556,49.185 266.556,49.558L266.556,49.582C266.556,50.026 266.292,50.254 265.74,50.254L265.032,50.254L265.032,51.333L265.848,51.333C266.484,51.333 266.772,51.573 266.772,52.042L266.772,52.078C266.772,52.582 266.46,52.87 265.836,52.87C265.068,52.87 264.696,52.522 264.54,51.873L262.992,51.873C263.16,53.278 264.096,54.141 265.86,54.141C267.479,54.141 268.546,53.29 268.546,52.15L268.546,52.114C268.546,51.321 268.031,50.854 267.131,50.71C267.934,50.542 268.33,50.026 268.33,49.305L268.33,49.281Z" style="fill:rgb(35,31,32);fill-rule:nonzero;"/>
                </g>
                <g transform="matrix(7.10051,0,0,7.10051,-1281.99,-490.233)">
                    <path d="M275.196,54.009L276.91,54.009L276.91,47.734L275.196,47.734L275.196,54.009ZM269.424,54.009L272.135,54.009C273.707,54.009 274.618,53.266 274.618,51.898L274.618,51.862C274.618,50.481 273.647,49.726 272.195,49.726L271.138,49.726L271.138,47.734L269.424,47.734L269.424,54.009ZM271.138,52.786L271.138,50.937L271.823,50.937C272.543,50.937 272.868,51.249 272.868,51.85L272.868,51.886C272.868,52.534 272.519,52.786 271.823,52.786L271.138,52.786Z" style="fill:rgb(35,31,32);fill-rule:nonzero;"/>
                </g>
            </g>
        </g>
    </g>
</svg>
