<?xml version="1.0"?>
<svg width="937" height="905" xmlns="http://www.w3.org/2000/svg" xmlns:svg="http://www.w3.org/2000/svg" enable-background="new 0 0 1500 1500" version="1.1" xml:space="preserve">
 <style type="text/css">.st0{fill-rule:evenodd;clip-rule:evenodd;fill:#1D1D1B;}
	.st1{fill:#1D1D1B;}
	.st2{fill-rule:evenodd;clip-rule:evenodd;fill:url(#SVGID_1_);}</style>
 <radialGradient cx="330.22" cy="1047.84" gradientTransform="matrix(4.450428e-14 -726.81 -907.274 -5.555451e-14 951430.625 240940.4375)" gradientUnits="userSpaceOnUse" id="SVGID_1_" r="1">
  <stop offset="0" stop-color="#01F0FF"/>
  <stop offset="1" stop-color="#002FD3"/>
 </radialGradient>
 <g class="layer">
  <title>Layer 1</title>
  <g id="svg_1" transform="translate(-282.02 -296.9)">
   <path class="st0" d="m1218.4,1079.9l-46.9,-81.1c-0.4,-0.6 -1,-1 -1.7,-1l-10.3,0c-0.7,0 -1.4,0.4 -1.7,1l-46.9,81.1c-0.8,1.3 0.2,3 1.7,3l14.4,0l10.2,-17.7c0.2,-0.3 0.5,-0.5 0.9,-0.5l53,0c0.4,0 0.7,0.2 0.9,0.5l10.2,17.7l14.4,0c1.6,0 2.6,-1.7 1.8,-3zm-73.1,-28.5l18.8,-32.6c0.3,-0.5 0.9,-0.5 1.2,0l18.8,32.6l-38.8,0z" id="svg_2"/>
   <path class="st0" d="m1037,1001.4c-5.4,-2.4 -11.8,-3.6 -19.2,-3.6l-54.8,0c-1.1,0 -2,0.9 -2,2l0,83l13.8,0c1.1,0 2,-0.9 2,-2l0,-21.5c0,-0.6 0.4,-1 1,-1l40,0c7.4,0 13.8,-1.2 19.2,-3.6c5.5,-2.4 9.7,-5.9 12.6,-10.4c2.9,-4.6 4.4,-10 4.4,-16.2c0,-6.2 -1.5,-11.6 -4.4,-16.2c-2.9,-4.5 -7.1,-8 -12.6,-10.5zm-4.2,39.2c-3.6,2.9 -8.8,4.4 -15.7,4.4l-40.3,0l0,-32.8c0,-0.6 0.4,-1 1,-1l39.3,0c6.9,0 12.1,1.5 15.7,4.4c3.6,2.9 5.3,7.1 5.3,12.5c0,5.4 -1.8,9.5 -5.3,12.5z" id="svg_3"/>
   <path class="st0" d="m847.5,998.4l-32,0c-27.2,0 -37.5,14.7 -37.5,41.9l0,1.3c0,27.1 10.3,41.9 37.5,41.9l32.1,0c27.1,0.1 37.4,-14.6 37.4,-41.8l0,-1.3c0,-27.3 -10.4,-42 -37.5,-42zm21,44c0,20 -6.1,28.5 -26.1,28.5l-21.8,0c-20.1,0 -26.2,-8.5 -26.2,-28.5l0,-2.8c0,-20 6,-28.5 26.2,-28.5l21.7,0c20.1,0 26.2,8.5 26.2,28.6l0,2.7z" id="svg_4"/>
   <path class="st0" d="m532.2,1038.7c4.1,-1.7 7.1,-4.2 9.2,-7.4c2.2,-3.2 3.3,-7.1 3.3,-11.6c0,-7 -2.7,-12.4 -8,-16.2c-5.4,-3.8 -12.8,-5.7 -22.4,-5.7l-58.2,0c-1.1,0 -2,0.9 -2,2l0,83.1l62.5,0c10.5,0 18.5,-2.1 24,-6.2c5.5,-4.1 8.3,-9.9 8.3,-17.4c0,-5.3 -1.4,-9.6 -4.3,-13.1c-2.8,-3.6 -6.9,-6.1 -12.4,-7.5zm-62.5,-27.7c0,-0.6 0.4,-1 1,-1l42.3,0c5.1,0 9,1.1 11.7,3.2c2.7,2 4,5 4,9c0,4 -1.3,7 -4,9c-2.7,2 -6.6,3 -11.7,3l-43.3,0l0,-23.2zm46.5,59.8l-46.4,0l0,-24.1c0,-0.6 0.4,-1 1,-1l45.4,0c11.2,0 16.8,4.1 16.8,12.4c0,8.5 -5.6,12.7 -16.8,12.7z" id="svg_5"/>
   <path class="st0" d="m697.7,1001.4c-5.4,-2.4 -11.8,-3.6 -19.2,-3.6l-54.8,0c-1.1,0 -2,0.9 -2,2l0,83l13.8,0c1.1,0 2,-0.9 2,-2l0,-21.5c0,-0.6 0.4,-1 1,-1l40,0c7.4,0 13.8,-1.2 19.2,-3.6c5.5,-2.4 9.7,-5.9 12.6,-10.4c2.9,-4.6 4.4,-10 4.4,-16.2c0,-6.2 -1.5,-11.6 -4.4,-16.2c-2.9,-4.5 -7.1,-8 -12.6,-10.5zm-4.3,39.2c-3.6,2.9 -8.8,4.4 -15.7,4.4l-40.3,0l0,-32.8c0,-0.6 0.4,-1 1,-1l39.3,0c6.9,0 12.1,1.5 15.7,4.4c3.6,2.9 5.3,7.1 5.3,12.5c0,5.4 -1.7,9.5 -5.3,12.5z" id="svg_6"/>
   <path class="st0" d="m342.9,998.8c-0.4,-0.6 -1,-1 -1.7,-1l-10.3,0c-0.7,0 -1.4,0.4 -1.7,1l-46.9,81.1c-0.8,1.3 0.2,3 1.7,3l14.4,0l10.2,-17.7c0.2,-0.3 0.5,-0.5 0.9,-0.5l53,0c0.4,0 0.7,0.2 0.9,0.5l10.2,17.7l14.4,0c1.5,0 2.5,-1.7 1.7,-3l-46.8,-81.1zm-26.3,52.7l18.8,-32.6c0.3,-0.5 0.9,-0.5 1.2,0l18.8,32.6l-38.8,0z" id="svg_7"/>
  </g>
  <g id="svg_8" transform="translate(-282.02 -296.9)">
   <polygon class="st1" id="svg_9" points="662.7,1146.6 655.8,1146.6 655.8,1187.7 642.6,1187.7 642.6,1146.6 635.8,1146.6 635.8,1194.2    660.3,1194.2 660.3,1202.2 667,1202.2 667,1187.7 662.7,1187.7  "/>
   <polygon class="st1" id="svg_10" points="696.9,1173.2 712.1,1173.2 712.1,1166.9 696.9,1166.9 696.9,1153.1 713.4,1153.1 713.4,1146.6    690.1,1146.6 690.1,1194.2 714.1,1194.2 714.1,1187.7 696.9,1187.7  "/>
   <polygon class="st1" id="svg_11" points="758.8,1166.9 745.3,1166.9 745.3,1146.6 738.4,1146.6 738.4,1194.2 745.3,1194.2 745.3,1173.3    758.8,1173.3 758.8,1194.2 765.6,1194.2 765.6,1146.6 758.8,1146.6  "/>
   <polygon class="st1" id="svg_12" points="788.5,1153.1 798.4,1153.1 798.4,1194.2 805.4,1194.2 805.4,1153.1 815.3,1153.1 815.3,1146.6    788.5,1146.6  "/>
   <path class="st1" d="m861.2,1150.7c-2.5,-2.7 -6.1,-4.1 -10.8,-4.1l-12.6,0l0,47.6l6.9,0l0,-16.7l5.7,0c4.7,0 8.3,-1.3 10.8,-4s3.8,-6.5 3.8,-11.5c0,-4.9 -1.2,-8.6 -3.8,-11.3zm-5.1,18.1c-1.3,1.5 -3.2,2.2 -5.8,2.2l-5.6,0l0,-17.8l5.6,0c5.1,0 7.7,2.9 7.7,8.8c0,3 -0.6,5.3 -1.9,6.8z" id="svg_13"/>
  </g>
  <path class="st2" d="m459.08,0l-269.5,155.4l0,309.3l261.4,-151l-109.5,-63.2l-3,-1.7l0,-9.1l0.1,-0.1l8,-4.6l2.9,1.7l109.6,63.3l0,-300zm-262.8,479.3l270.8,156.1l270.7,-156.1l-262.7,-151.7l0,126.5l0,3.4l-7.9,4.6l-0.2,0l-7.9,-4.6l0,-3.4l0,-126.6l-262.8,151.8zm548.3,-14.5l-261.6,-151.1l109.5,-63.2l3,-1.7l0,-9.1l-0.1,-0.1l-8,-4.6l-2.9,1.7l-109.4,63.2l0,-299.9l269.5,155.4l0,309.4z" id="svg_14"/>
 </g>
</svg>