<?xml version="1.0" encoding="UTF-8"?>
<svg width="693px" height="320px" viewBox="0 0 693 320" version="1.1" xmlns="http://www.w3.org/2000/svg" xmlns:xlink="http://www.w3.org/1999/xlink">
    <title>BAlogo_lightbackground</title>
    <g id="Page-1" stroke="none" stroke-width="1" fill="none" fill-rule="evenodd">
        <g id="BAlogo_lightbackground" transform="translate(0.783865, 0.000000)" fill-rule="nonzero">
            <path d="M488.871383,236.520182 L503.309919,276.055627 L517.458301,236.520182 L528.939627,236.520182 L505.016261,300.226269 C501.540317,309.50954 496.202833,313.673746 487.494839,313.673746 C486.58881,313.673746 485.647052,313.628561 484.666146,313.539659 L484.072877,313.481083 L483.129033,313.380528 L483.129033,303.378154 L484.264346,303.462655 L484.845335,303.500287 C490.450035,303.804675 492.889468,302.151329 494.935151,296.72488 L497.634203,289.513243 L477.282093,236.520182 L488.871383,236.520182 Z M668.532886,235.202222 C681.009997,235.202222 689.512401,241.688633 690.805709,252.154986 L690.842693,252.473364 L690.970059,253.646237 L680.234356,253.646237 L680.053009,252.814748 C679.003736,247.99397 674.804939,245.2291 668.532886,245.2291 C662.481826,245.2291 657.742362,247.971155 657.742362,251.472028 L657.749762,251.759286 C657.884032,254.264211 659.917246,255.496587 669.64559,257.064493 L671.796815,257.40815 C681.209021,258.941529 691.962822,261.402948 691.962822,274.091234 C691.962822,284.915802 682.952864,292.188796 669.543364,292.188796 C656.358977,292.188796 646.86657,284.96612 645.257264,273.755321 L645.210915,273.414382 L645.057403,272.221229 L655.845396,272.221229 L656.004813,273.089053 C657.001795,278.538517 662.316505,282.05967 669.543364,282.05967 C677.303504,282.05967 681.419898,278.420745 681.544716,274.768586 L681.547536,274.448711 C681.542446,272.063784 681.293008,269.399828 669.070418,267.641804 L668.29081,267.533118 C655.158811,265.640297 647.026064,262.344761 647.026064,251.777921 C647.026064,243.79512 653.756119,235.202222 668.532886,235.202222 Z M425.776046,235.202053 C439.485671,235.202053 447.725942,241.535248 447.889376,252.16334 L447.891854,252.486715 L447.891854,281.291388 C447.891854,283.632946 448.496111,287.139606 449.232936,289.154298 L449.334189,289.419532 L449.913654,290.870412 L439.176269,290.870412 L438.891176,290.259471 C438.347137,289.088288 437.949019,287.728668 437.712004,286.248212 C433.632135,290.077793 427.775916,292.087225 420.614848,292.087225 L419.993178,292.08178 C409.82841,291.903435 399.208399,287.320613 399.208399,274.903119 C399.208399,264.144462 406.697577,258.294463 421.469284,257.517055 L422.295821,257.474358 C435.560903,256.736562 437.375459,254.033217 437.375459,251.472704 C437.375459,247.567528 433.245179,245.301599 426.026525,245.230649 L425.67483,245.228931 C421.434588,245.228931 414.232796,246.291376 413.197612,253.334649 L413.158564,253.627478 L413.047226,254.559523 L402.081261,254.559523 L402.145365,253.440731 C402.791463,242.36097 412.067114,235.202053 425.776046,235.202053 Z M310.269534,235.202053 C323.979158,235.202053 332.219429,241.535248 332.382864,252.16334 L332.385342,252.486715 L332.385342,281.291388 C332.385342,283.632946 332.989599,287.139606 333.726423,289.154298 L333.827677,289.419532 L334.407141,290.870412 L323.669756,290.870412 L323.384663,290.259471 C322.840625,289.088288 322.442506,287.728668 322.205491,286.248212 C318.124778,290.077793 312.269404,292.087225 305.108335,292.087225 L304.486666,292.08178 C294.321897,291.903435 283.701886,287.320613 283.701886,274.903119 C283.701886,264.144462 291.191065,258.294463 305.962771,257.517055 L306.789308,257.474358 C320.05439,256.736562 321.868946,254.033217 321.868946,251.472704 C321.868946,247.567528 317.738667,245.301599 310.520013,245.230649 L310.168317,245.228931 C305.928075,245.228931 298.726283,246.291376 297.691099,253.334649 L297.652052,253.627478 L297.540714,254.559523 L286.574748,254.559523 L286.638852,253.440731 C287.28495,242.36097 296.559757,235.202053 310.269534,235.202053 Z M615.891443,235.202306 C627.604769,235.202306 637.217378,242.013767 641.067026,253.007498 L641.190511,253.367468 L641.65948,254.762578 L630.335039,254.762578 L630.038981,254.191353 C627.09358,248.495146 621.9366,245.229185 615.891443,245.229185 C606.815696,245.229185 599.431952,253.535625 599.431952,263.745871 C599.431952,273.844576 606.815696,282.059755 615.891443,282.059755 C621.92806,282.059755 627.007863,278.914285 629.877886,273.414284 L630.032234,273.111953 L630.324074,272.527207 L641.645984,272.527207 L641.193041,273.914712 C637.534064,285.123758 627.840052,292.087479 615.891443,292.087479 C600.906339,292.087479 588.715653,279.373471 588.715653,263.745871 C588.715653,248.00673 600.906339,235.202306 615.891443,235.202306 Z M549.323199,225.362597 L549.323199,236.520943 L561.168061,236.520943 L561.168061,246.85118 L549.323199,246.85118 L549.323199,270.743815 C549.323199,274.311443 550.220652,276.964772 551.991097,278.628595 C553.74248,280.276983 556.39869,281.029158 559.885823,280.865277 L560.249521,280.845055 L561.373024,280.774074 L561.373024,290.754477 L560.439302,290.862638 C559.377372,290.986855 558.339903,291.04854 557.332799,291.04854 C552.379937,291.04854 548.117879,289.559634 544.877263,286.669703 C540.927127,283.147381 538.79975,277.796548 538.711012,271.177298 L538.708117,270.743815 L538.708117,246.85118 L531.620431,246.85118 L531.620431,236.520943 L538.708117,236.520943 L538.708117,225.362597 L549.323199,225.362597 Z M369.390774,235.201968 C382.079984,235.201968 390.325758,244.114986 390.489404,257.949694 L390.491886,258.37043 L390.491886,290.870328 L379.875961,290.870328 L379.875961,258.067071 C379.875961,250.14849 375.392069,245.228847 368.175332,245.228847 C360.96119,245.228847 355.699255,250.406896 355.565519,257.582025 L355.562911,257.862579 L355.562911,290.870328 L344.846612,290.870328 L344.846612,236.520182 L355.260105,236.520182 L355.260105,240.579606 C358.990777,237.093098 363.91496,235.201968 369.390774,235.201968 Z M471.274893,213.294175 L471.274893,290.870243 L460.556065,290.870243 L460.556065,213.294175 L471.274893,213.294175 Z M579.794177,236.520943 L579.794177,290.870243 L569.077878,290.870243 L569.077878,236.520943 L579.794177,236.520943 Z M437.375459,263.767588 C433.738781,265.889089 428.538634,266.517795 423.675145,266.866604 L422.707499,266.932992 C411.28859,267.647025 409.824324,271.567868 409.824324,274.903119 C409.824324,281.271953 417.58257,281.958945 420.918497,281.958945 C428.660605,281.958945 436.994941,278.81226 437.36598,270.006957 L437.375459,269.708002 L437.375459,263.767588 Z M321.868946,263.767588 C318.232269,265.889089 313.031381,266.517795 308.168494,266.866604 L307.200986,266.932992 C295.782077,267.647025 294.317812,271.567868 294.317812,274.903119 C294.317812,281.271953 302.076057,281.958945 305.411985,281.958945 C313.154092,281.958945 321.488428,278.81226 321.859467,270.006957 L321.868946,269.708002 L321.868946,263.767588 Z M579.794177,218.365921 L579.794177,230.72587 L569.077878,230.72587 L569.077878,218.365921 L579.794177,218.365921 Z M298.164883,110.864698 L298.164883,140.179756 C301.900615,136.288489 307.750086,132.773251 314.825964,132.773251 C330.008441,132.773251 341.901381,145.311497 341.901381,161.316816 C341.901381,177.266364 330.008441,189.759825 314.825964,189.759825 C308.585122,189.759825 302.4504,186.97135 298.124644,182.313785 L297.862076,182.026301 L297.862076,188.440765 L287.448584,188.440765 L287.448584,110.864698 L298.164883,110.864698 Z M550.439954,110.864698 L550.439954,188.440765 L540.026462,188.440765 L540.026462,182.026301 C535.687648,186.856373 529.429937,189.759825 523.061731,189.759825 C507.822742,189.759825 495.885941,177.266364 495.885941,161.316816 C495.885941,145.311497 507.822742,132.773251 523.061731,132.773251 C530.001534,132.773251 535.761647,136.154587 539.505746,139.955699 L539.723656,140.179756 L539.723656,110.864698 L550.439954,110.864698 Z M407.049979,132.77342 C420.757934,132.77342 428.997362,139.106615 429.16078,149.734706 L429.163257,150.058082 L429.163257,178.862755 C429.163257,181.203504 429.768285,184.710902 430.504439,186.724921 L430.605592,186.990053 L431.185057,188.440934 L420.447672,188.440934 L420.162579,187.829148 C419.61854,186.659655 419.220422,185.300035 418.983407,183.817889 C414.903537,187.648316 409.047318,189.658593 401.88625,189.658593 L401.264582,189.653147 C391.099846,189.474768 380.480645,184.891152 380.480645,172.474486 C380.480645,161.715829 387.96898,155.864985 402.740687,155.088422 L403.567224,155.045675 C416.832306,154.307085 418.646861,151.603739 418.646861,149.043227 C418.646861,145.138881 414.516581,142.872966 407.297928,142.802016 L406.946232,142.800298 C402.70599,142.800298 395.504199,143.861921 394.469014,150.905982 L394.429967,151.198845 L394.318629,152.13089 L383.352664,152.13089 L383.416767,151.010407 C384.062866,139.931492 393.339359,132.77342 407.049979,132.77342 Z M466.168436,132.772743 C478.858481,132.772743 487.103437,141.68659 487.267067,155.521314 L487.269548,155.94205 L487.269548,188.441104 L476.654466,188.441104 L476.654466,155.637847 C476.654466,147.718421 472.170575,142.800468 464.953838,142.800468 C457.738863,142.800468 452.47774,147.978517 452.344025,155.152833 L452.341417,155.433355 L452.341417,188.441104 L441.625119,188.441104 L441.625119,134.091803 L452.037767,134.091803 L452.037767,138.150382 C455.769283,134.663874 460.693466,132.772743 466.168436,132.772743 Z M376.940522,132.841343 L377.310122,132.881834 L378.242157,132.99253 L378.242157,143.570355 L377.126245,143.506979 C372.326896,143.240802 368.148341,144.537891 365.36826,147.171785 C362.905484,149.50562 361.618991,152.731606 361.540991,156.766002 L361.537215,157.158948 L361.537215,188.441188 L350.820917,188.441188 L350.820917,134.091888 L361.23441,134.091888 L361.23441,138.165677 C365.176483,134.280152 371.027919,132.248278 376.940522,132.841343 Z M523.061731,142.901531 C513.831629,142.901531 506.602239,151.035589 506.602239,161.418217 C506.602239,171.516921 513.985984,179.732101 523.061731,179.732101 C532.092775,179.732101 539.723656,171.34623 539.723656,161.418217 C539.723656,151.207971 532.248816,142.901531 523.061731,142.901531 Z M314.825964,142.901531 C305.638878,142.901531 298.164883,151.207971 298.164883,161.418217 C298.164883,171.34623 305.794921,179.732101 314.825964,179.732101 C323.845199,179.732101 331.182552,171.516921 331.182552,161.418217 C331.182552,151.035589 323.997867,142.901531 314.825964,142.901531 Z M418.646861,161.337265 C414.888961,163.53112 409.461623,164.12783 404.461391,164.471046 L403.978902,164.503515 C392.559992,165.216702 391.095727,169.139235 391.095727,172.474486 C391.095727,178.84163 398.853972,179.529468 402.1899,179.529468 C409.932007,179.529468 418.266344,176.383609 418.637382,167.578324 L418.646861,167.27937 L418.646861,161.337265 Z" id="Shape" fill="#4C515C"></path>
            <path d="M29.3501046,122.974186 L29.0903156,200.549409 L29.0827243,200.809671 L29.0886287,201.069089 L29.0860983,201.733267 L29.1029676,201.733267 C29.4369822,250.80126 69.2808623,290.700059 118.370871,290.86568 C148.671831,290.967741 175.546177,275.902265 191.843384,252.822162 L192.333994,252.120319 L192.333994,294.217831 C171.998753,310.348212 146.167456,320.091168 118.273028,320.000634 C52.8399267,319.776825 -0.216925565,266.264083 0.000666894565,200.711651 C0.103426227,171.258079 10.9654257,144.330496 28.8073089,123.600468 L29.3501046,122.974186 Z M119.072554,82.2237161 C184.505656,82.4474614 237.559134,135.960203 237.34236,201.512635 C237.337643,202.079214 237.322078,202.642412 237.302593,203.204555 L237.241989,204.890137 L237.327179,204.890137 L236.979669,308.244899 L208.063799,308.244899 L208.245145,202.620442 L208.225745,202.620442 C208.232493,202.217373 208.258641,201.819373 208.260328,201.414614 C208.426491,151.922426 168.374274,111.525072 118.974712,111.358606 C109.008308,111.324979 99.4193331,112.952675 90.4476336,115.947325 L89.6337314,116.223323 L89.6337314,85.8291881 C99.0249368,83.4623176 108.954277,82.1922683 119.072554,82.2237161 Z" id="Combined-Shape" fill="#4870B7"></path>
            <path d="M44.8396893,0 L73.8297852,0.0971760558 L73.7935163,142.371372 L77.8033766,139.507636 C90.3196423,131.148805 105.039053,126.867988 120.531928,127.161206 C140.246374,127.656382 158.59018,135.814945 172.17934,150.137851 C185.769344,164.453997 192.982707,183.217426 192.485903,202.974585 C191.992472,222.724985 183.845386,241.1014 169.554458,254.719568 C155.660805,267.954101 137.577632,275.14513 118.468797,275.082986 C117.918011,275.082986 117.367224,275.070768 116.811377,275.062318 C77.1287859,274.055938 45.4708339,241.693324 44.8661956,202.279933 L44.8574021,201.083455 L44.8396893,201.083455 L44.8396893,0 Z M118.795221,155.957819 C107.129175,155.919404 96.0915134,160.312607 87.6095699,168.388359 C78.8838633,176.69987 73.9141324,187.918211 73.6104826,199.979028 C72.9880012,224.864548 92.6914822,245.623043 117.539293,246.250041 C129.451633,246.650575 141.005498,242.141606 149.733735,233.836011 C158.459442,225.5245 163.429172,214.306158 163.731979,202.244498 C164.034784,190.189597 159.633553,178.732117 151.337173,169.992187 C143.040793,161.250567 131.842873,156.275153 119.806542,155.97433 C119.470841,155.96081 119.131766,155.959965 118.795221,155.957819 Z" id="Combined-Shape" fill="#A3CF62"></path>
        </g>
    </g>
</svg>