<?xml version="1.0" encoding="utf-8"?>
<!-- Generator: Adobe Illustrator 20.1.0, SVG Export Plug-In . SVG Version: 6.00 Build 0)  -->
<svg version="1.1" id="Layer_1" xmlns="http://www.w3.org/2000/svg" xmlns:xlink="http://www.w3.org/1999/xlink" x="0px" y="0px"
	 viewBox="0 0 160 48.9" style="enable-background:new 0 0 160 48.9;" xml:space="preserve">
<style type="text/css">
	.st0{fill:#009CAB;}
</style>
<g>
	<polygon class="st0" points="144,34.5 136.4,25.2 143.8,17.2 138.2,17.2 132.1,23.9 132.1,17.2 127.5,17.2 127.5,34.5 132.1,34.5 
		132.1,27 138.3,34.5 	"/>
	<path class="st0" d="M17,34.5h-4.5v-2.4C11.2,34,9.3,35,6.8,35c-3.7,0-6-2-6-6.2V17.2h4.8v9.9c0,2.2,0.2,3.9,2.9,3.9
		c3,0,3.8-2.3,3.8-4.9v-8.9H17V34.5z"/>
	<path class="st0" d="M30.5,34.5v-7.3h-6.7v7.3h-4.7V17.2h4.7v6.3h6.7v-6.3h4.7v17.3H30.5z"/>
	<path class="st0" d="M46.1,20.9v13.6h-4.7V20.9h-4.9v-3.7H51v3.7H46.1z"/>
	<path class="st0" d="M59.7,35c-5.3,0-8.8-3.6-8.8-9c0-5.4,3.7-9.2,8.7-9.2c5.2,0,8.5,3.8,8.5,9.9v0.5H55.7c0.1,3,1.5,4.6,4.1,4.6
		c1.7,0,2.8-0.8,3.5-2.5h4.6C66.8,32.9,63.6,35,59.7,35z M59.6,20.2c-2.1,0-3.6,1.5-3.9,3.9h7.6C63.1,21.9,61.9,20.2,59.6,20.2z"/>
	<path class="st0" d="M73.7,19.4c1.3-1.8,3.2-2.6,5.4-2.6c4.7,0,7.7,3.7,7.7,9.2c0,5.4-3,9-7.5,9c-2.2,0-4.1-0.8-5.3-2.6v7.5h-4.7
		V17.2h4.5V19.4z M73.8,25.9c0,3.4,1.5,5.3,4.2,5.3c2.5,0,4.1-2,4.1-5.3c0-3.4-1.6-5.4-4.1-5.4C75.3,20.6,73.8,22.5,73.8,25.9z"/>
	<path class="st0" d="M150.9,34.9c-5.3,0-8.8-3.6-8.8-8.9c0-5.6,3.5-9.3,8.9-9.3c4.6,0,7.7,2.5,8.1,6.5h-4.7c-0.3-1.9-1.6-3-3.4-3
		c-2.6,0-4.1,2.1-4.1,5.6c0,3.5,1.5,5.4,4,5.4c2,0,3.3-1.2,3.7-3.5h4.6C158.6,32.3,155.5,34.9,150.9,34.9z"/>
	<path class="st0" d="M117.8,16.8c0,0-0.6,0-1.5,0l0,0h-3.5c-0.9,0-0.7-1-0.6-1.3c2.2-8.5,4.1-11,7.2-10.8c1.4,0.1,1.9,0.4,2.7,1.1
		c0.6,0.6,0.6,0.9,1.6-0.8c1.2-2.1,1.3-2.2,1.6-2.8c0.2-0.4,0.9-1.1-0.3-1.1c-14.6-0.3-14.8,5.3-19.7,14.8c-0.5,0.9-1.1,0.9-2.8,0.9
		c0,0-2.7,0-3.6,0c-2,0-4.7,0.3-6.9,1.8c-1.7,1.2-4.1,3.6-4.1,7.6c0,2.3,1.1,4.7,2.1,5.8c1.2,1.3,1.9,1.9,3,2.4
		c0.3,0.1,0.4,0.1,0.5,0.1c0.2,0,0.4-0.2,0.6-0.3c2.5-2.2,2.6-2.3,3.6-3.1c0.4-0.4,0.1-0.6-0.4-0.6c-1.9-0.2-3.1-0.6-3.9-1.5
		c-1-1-1.2-1.9-1.3-2.9c-0.2-2.4,1.6-4.4,3.2-5.3c1-0.5,2.3-0.8,4-0.8c2.5,0,3.2,0.1,3.6,0.4c0.3,0.3,0.6,0.6,0.2,1.7
		c-2.4,6-3.4,9.2-8,17.1c-2.3,3.9-6.4,6.4-12.2,4.5c-1.3-0.4-1.6,0.3-1.9,0.9c-0.3,0.5-1.5,2.2-1.6,2.6c-0.3,0.6,0.5,0.8,0.9,0.8
		c9.3,0.3,14.2-1.4,19.7-7.6c5.1-6.5,6.1-11.5,9.4-18.1c0.5-1.1,1.3-2.2,2.6-2.2c3.4,0,5.7,0,5.7,0c2.1,0,3.1,0.7,3.1,2.3
		c-1.3,0-2,0-2.5,0c-0.9,0-6.4-0.1-8.8,4.2c-0.4,0.7-1.1,2.1-0.9,3.8c0,0,0,0,0,0c0.2,2.3,1.9,3.9,4.2,4.5c0,0,0,0,0,0
		c0.4,0.1,0.7,0.2,1,0.2l0,0c0.4,0.1,0.9,0.1,1.4,0.1c2.1,0,4.1-0.7,5.6-2.1v1.5h4.6l0-12C125.4,17.6,121.3,16.8,117.8,16.8z
		 M120.8,28.4c0,1-0.5,2-1,2.5c-1.3,1.2-3.3,1.3-4.2,1.1c-0.8-0.2-2.1-1-2.1-2.3c-0.1-1.7,0.5-2.5,1.6-3.3c1.1-0.7,2.3-0.9,3.1-0.9
		c1,0,2.5,0,2.5,0S120.8,27.4,120.8,28.4z"/>
</g>
</svg>
