<?xml version="1.0" encoding="UTF-8"?> <svg xmlns="http://www.w3.org/2000/svg" width="105" height="15" viewBox="0 0 105 15" fill="none"><path d="M43.7525 10.4379C43.7525 11.0299 43.6273 11.5778 43.3769 12.0816C43.1397 12.5729 42.7377 13.0011 42.171 13.3664C41.6043 13.7191 40.8531 13.9962 39.9173 14.1977C38.9948 14.3992 37.8416 14.5 36.4577 14.5C35.0739 14.5 33.9405 14.3489 33.0575 14.0466C32.1876 13.7443 31.4957 13.3601 30.9817 12.8941C30.4809 12.4154 30.1185 11.8927 29.8944 11.3259C29.6835 10.7465 29.5517 10.1797 29.499 9.62551H31.5945C31.6736 10.6457 32.1217 11.4393 32.9388 12.0061C33.7691 12.5603 34.9619 12.8374 36.5171 12.8374C38.1249 12.8374 39.3902 12.661 40.3127 12.3084C41.2485 11.9431 41.7229 11.3637 41.7361 10.5702C41.7493 9.77665 41.3407 9.20985 40.5104 8.86977C39.6801 8.52969 38.3885 8.30927 36.6357 8.2085C35.4759 8.17072 34.4677 8.09514 33.611 7.98178C32.7675 7.86842 32.069 7.67949 31.5155 7.41498C30.9619 7.15047 30.5534 6.7915 30.2898 6.33806C30.0262 5.88462 29.8944 5.29262 29.8944 4.56208C29.8944 4.02047 30.0262 3.50405 30.2898 3.01282C30.5534 2.52159 30.9685 2.09334 31.5352 1.72807C32.1151 1.3502 32.8532 1.05421 33.7494 0.840081C34.6456 0.61336 35.7263 0.5 36.9915 0.5C38.349 0.5 39.4495 0.644849 40.2929 0.934548C41.1496 1.22425 41.8218 1.59582 42.3094 2.04926C42.8102 2.5027 43.1595 3.01282 43.3572 3.57962C43.568 4.14642 43.6998 4.70693 43.7525 5.26113H41.657C41.6043 4.66914 41.4527 4.17791 41.2023 3.78745C40.9519 3.38439 40.6158 3.0632 40.1941 2.82389C39.7855 2.58457 39.3045 2.41453 38.751 2.31377C38.1974 2.213 37.5912 2.16262 36.9322 2.16262C36.181 2.16262 35.4956 2.2067 34.8762 2.29487C34.27 2.38304 33.7428 2.52159 33.2947 2.71053C32.8598 2.88686 32.5171 3.11988 32.2667 3.40958C32.0295 3.68668 31.9109 4.02677 31.9109 4.42982C31.9109 4.82029 32.0031 5.14777 32.1876 5.41228C32.3853 5.66419 32.6884 5.87202 33.097 6.03576C33.5056 6.18691 34.0261 6.30657 34.6588 6.39474C35.3045 6.47031 36.0624 6.53329 36.9322 6.58367C38.1447 6.64665 39.1793 6.75371 40.0359 6.90486C40.8926 7.04341 41.5977 7.25753 42.1512 7.54723C42.7048 7.83693 43.1068 8.2148 43.3572 8.68084C43.6207 9.14687 43.7525 9.73257 43.7525 10.4379Z" fill="#463E93"></path><path d="M53.0192 2.55007V14.1128H51.0818V2.55007H44.9336V0.887451H59.1871V2.55007H53.0192Z" fill="#463E93"></path><path d="M63.9852 10.1074L61.9292 14.1128H59.7744L66.5948 0.887451H69.8764L76.6968 14.1128H74.5222L72.4662 10.1074H63.9852ZM64.8551 8.44481H71.5963L68.2356 1.90769L64.8551 8.44481Z" fill="#463E93"></path><path d="M80.2157 8.35034V14.1128H78.2783V0.887451H90.7526V2.55007H80.2157V6.68772H88.7559V8.35034H80.2157Z" fill="#463E93"></path><path d="M94.4637 8.35034V14.1128H92.5264V0.887451H105.001V2.55007H94.4637V6.68772H103.004V8.35034H94.4637Z" fill="#463E93"></path><path d="M27.8903 12.4502V14.1128H14.6846V0.887451H27.2379V2.55007H16.6219V6.12092H25.2413V7.78354H16.6219V12.4502H27.8903Z" fill="#8877FF"></path><path fill-rule="evenodd" clip-rule="evenodd" d="M7.2948 0.896729H0V2.55935H6.85988C7.92741 2.55935 8.72476 2.78607 9.25194 3.23951C9.77911 3.68035 10.0427 4.30384 10.0427 5.10995C10.0427 5.92867 9.75934 6.55215 9.19263 6.9804C8.6391 7.40865 7.78902 7.62277 6.64242 7.62277H0V9.28539H7.17618L10.0427 14.1032H12.3161L9.25194 9.03978C10.1218 8.78787 10.8005 8.35332 11.2882 7.73613C11.789 7.11895 12.0591 6.28134 12.0987 5.22331C12.0987 4.50537 11.9801 3.87559 11.7428 3.33398C11.5188 2.79237 11.1959 2.34522 10.7742 1.99255C10.3656 1.62727 9.86478 1.35647 9.27171 1.18013C8.67863 0.991195 8.01966 0.896729 7.2948 0.896729Z" fill="#8877FF"></path></svg> 