<svg width="100" height="28" viewBox="0 0 100 28" fill="none" xmlns="http://www.w3.org/2000/svg">
<path d="M15.9384 4.54609L12.7697 7.54213C12.3952 7.89621 11.787 7.89621 11.4117 7.54213L10.6483 6.82036C10.5547 6.73184 10.5547 6.58809 10.6483 6.49957L12.7144 4.54609C13.0889 4.19125 13.0889 3.61625 12.7144 3.26217L10.6483 1.30869C10.5547 1.22017 10.5547 1.07642 10.6483 0.987901L11.4117 0.266126C11.787 -0.0887087 12.3952 -0.0887087 12.7697 0.266126L15.9384 3.26217C16.3137 3.61625 16.3137 4.19125 15.9384 4.54609Z" fill="#685BC7"/>
<path d="M15.9384 14.6423L12.7697 17.6383C12.3952 17.9924 11.787 17.9924 11.4117 17.6383L10.6483 16.9165C10.5547 16.828 10.5547 16.6843 10.6483 16.5958L12.7144 14.6423C13.0889 14.2874 13.0889 13.7124 12.7144 13.3584L10.6483 11.4049C10.5547 11.3164 10.5547 11.1726 10.6483 11.0841L11.4117 10.3623C11.787 10.0075 12.3952 10.0075 12.7697 10.3623L15.9384 13.3584C16.3137 13.7124 16.3137 14.2874 15.9384 14.6423Z" fill="#685BC7"/>
<path d="M24.1192 4.54609L20.9504 7.54213C20.5759 7.89621 19.9678 7.89621 19.5925 7.54213L18.8291 6.82036C18.7355 6.73184 18.7355 6.58809 18.8291 6.49957L20.8952 4.54609C21.2697 4.19125 21.2697 3.61625 20.8952 3.26217L18.8291 1.30869C18.7355 1.22017 18.7355 1.07642 18.8291 0.987901L19.5925 0.266126C19.9678 -0.0887087 20.5759 -0.0887087 20.9504 0.266126L24.1192 3.26217C24.4945 3.61625 24.4945 4.19125 24.1192 4.54609Z" fill="#685BC7"/>
<path d="M3.4177 7.54158L0.278814 4.54576C-0.0929381 4.19095 -0.0929381 3.61675 0.278814 3.26194L3.4177 0.266107C3.78946 -0.0887023 4.39108 -0.0887023 4.76283 0.266107L7.90172 3.26194C8.27347 3.61675 8.27347 4.19095 7.90172 4.54576L4.76283 7.54158C4.39187 7.89639 3.78946 7.89639 3.4177 7.54158Z" fill="#685BC7"/>
<path d="M3.4177 17.6378L0.278814 14.6419C-0.0929381 14.2871 -0.0929381 13.7129 0.278814 13.3581L3.4177 10.3623C3.78946 10.0075 4.39108 10.0075 4.76283 10.3623L7.90172 13.3581C8.27347 13.7129 8.27347 14.2871 7.90172 14.6419L4.76283 17.6378C4.39187 17.9926 3.78946 17.9926 3.4177 17.6378Z" fill="#685BC7"/>
<path d="M3.4177 27.7387L0.278814 24.7945C-0.0929381 24.4458 -0.0929381 23.8815 0.278814 23.5328L3.4177 20.5887C3.78946 20.24 4.39108 20.24 4.76283 20.5887L7.90172 23.5328C8.27347 23.8815 8.27347 24.4458 7.90172 24.7945L4.76283 27.7387C4.39187 28.0874 3.78946 28.0874 3.4177 27.7387Z" fill="#685BC7"/>
<path fill-rule="evenodd" clip-rule="evenodd" d="M88.9188 13.731C88.1412 13.731 87.7013 14.498 88.1521 15.0679L91.7795 19.6539L87.3514 25.2427C87.2385 25.3852 87.3484 25.5771 87.5429 25.5771L90.7116 25.5771C90.7924 25.5771 90.8689 25.5417 90.9157 25.4825L93.6551 22.0252L96.3895 25.4823C96.4364 25.5416 96.5129 25.5771 96.5938 25.5771H99.7628C99.9572 25.5771 100.067 25.3853 99.9545 25.2429L95.5339 19.6539L99.1671 15.0685C99.6186 14.4986 99.1788 13.731 98.4009 13.731L96.989 13.731C96.666 13.731 96.36 13.8728 96.1726 14.1094L93.6583 17.2827L91.1489 14.11C90.9615 13.873 90.6552 13.731 90.3319 13.731L88.9188 13.731Z" fill="#1F1F1F"/>
<path d="M68.9705 8.69608C68.9705 8.2054 69.3872 7.80762 69.9014 7.80762H71.1426C71.6567 7.80762 72.0734 8.2054 72.0734 8.69608V25.3547C72.0734 25.4774 71.9693 25.5769 71.8407 25.5769H69.2032C69.0747 25.5769 68.9705 25.4774 68.9705 25.3547V8.69608Z" fill="#1F1F1F"/>
<path fill-rule="evenodd" clip-rule="evenodd" d="M64.2291 10.7692H64.3864H65.4876C66.0089 10.7692 66.4315 10.3714 66.4315 9.88069V8.69608C66.4315 8.20539 66.0089 7.80762 65.4876 7.80762H63.4425C63.3889 7.80762 63.3363 7.81182 63.2851 7.8199V7.80762C61.5475 7.80762 60.1388 9.13354 60.1388 10.7692V13.7307H59.1949C58.6736 13.7307 58.251 14.1285 58.251 14.6192V15.8038C58.251 16.244 58.5911 16.6095 59.0376 16.68V16.6922H59.1949C59.7162 16.6922 60.1388 17.09 60.1388 17.5807V17.6547V25.3547C60.1388 25.4774 60.2444 25.5769 60.3748 25.5769H63.0492C63.1795 25.5769 63.2851 25.4774 63.2851 25.3547V17.6547V17.5807C63.2851 17.09 63.7077 16.6922 64.2291 16.6922H64.3864H65.4876C66.0089 16.6922 66.4315 16.2945 66.4315 15.8038V14.6192C66.4315 14.1285 66.0089 13.7307 65.4876 13.7307H63.2851V11.7317V11.6576C63.2851 11.1669 63.7077 10.7692 64.2291 10.7692Z" fill="#1F1F1F"/>
<path d="M52.4685 14.6194C52.4685 14.1287 52.8853 13.731 53.3994 13.731H54.6406C55.1547 13.731 55.5715 14.1287 55.5715 14.6194V25.355C55.5715 25.4777 55.4673 25.5771 55.3388 25.5771H52.7012C52.5727 25.5771 52.4685 25.4777 52.4685 25.355V14.6194Z" fill="#1F1F1F"/>
<path d="M53.3545 8.01081C53.7204 7.66155 54.3137 7.66155 54.6797 8.01081L55.2871 8.59051C55.653 8.93977 55.653 9.50604 55.2871 9.8553L54.6797 10.435C54.3137 10.7843 53.7204 10.7843 53.3545 10.435L52.7471 9.8553C52.3812 9.50604 52.3812 8.93977 52.7471 8.59051L53.3545 8.01081Z" fill="#685BC7"/>
<path fill-rule="evenodd" clip-rule="evenodd" d="M80.6772 22.7706C81.8342 22.7706 82.5255 22.4516 83.0498 22.1066C83.1214 22.0594 83.2142 22.0518 83.2921 22.0889L85.2362 23.0167C85.4667 23.1267 85.5618 23.3962 85.4074 23.593C84.6058 24.6149 82.8202 25.4422 80.6772 25.4422C77.3276 25.4422 74.6123 22.8506 74.6123 19.6537C74.6123 16.4568 77.3276 13.8652 80.6772 13.8652C84.0267 13.8652 86.7421 16.4568 86.7421 19.6537C86.7421 19.9444 86.7196 20.2301 86.6763 20.5092C86.6598 20.6157 86.5626 20.6926 86.4499 20.6926H77.5881L77.6833 20.9005C78.1871 22.001 79.4331 22.7706 80.6772 22.7706ZM77.6833 18.4069L77.5881 18.6147H83.7662L83.6711 18.4069C83.1673 17.3064 82.0166 16.5368 80.6772 16.5368C79.3378 16.5368 78.1871 17.3064 77.6833 18.4069Z" fill="#1F1F1F"/>
<path fill-rule="evenodd" clip-rule="evenodd" d="M40.9592 7.80762C41.4733 7.80762 41.8901 8.2054 41.8901 8.69608V9.8807C41.8901 10.3714 41.4733 10.7692 40.9592 10.7692H35.6842L33.6673 10.7692H33.5121H33.5119C33.5118 10.7692 33.5116 10.7692 33.5115 10.7692C32.9977 10.7695 32.5812 11.1671 32.5812 11.6576V11.7317V15.2115L37.8563 15.2115C38.3704 15.2115 38.7872 15.6092 38.7872 16.0999V17.2845C38.7872 17.7752 38.3704 18.173 37.8563 18.173H33.6673H33.5121C32.998 18.173 32.5812 18.5708 32.5812 19.0615V19.1355V25.3547C32.5812 25.4774 32.477 25.5769 32.3485 25.5769H29.711C29.5825 25.5769 29.4783 25.4774 29.4783 25.3547V17.2845V16.0999V10.8432C29.4783 10.8183 29.4793 10.7936 29.4815 10.7692H29.4783C29.4783 9.13354 30.8675 7.80762 32.5812 7.80762C32.6487 7.80762 32.7156 7.80967 32.7819 7.81371C32.8179 7.80969 32.8544 7.80762 32.8915 7.80762L40.9592 7.80762Z" fill="#1F1F1F"/>
<path fill-rule="evenodd" clip-rule="evenodd" d="M50.0706 14.4713V15.9521C50.0706 16.3608 49.7245 16.6925 49.298 16.6925H48.2162C48.2162 16.6925 48.2073 16.6923 48.1902 16.6926C46.4935 16.704 45.1218 18.0255 45.1218 19.654V20.3204H45.1222C45.1219 20.3449 45.1218 20.3696 45.1218 20.3944V25.355C45.1218 25.4777 45.018 25.5771 44.89 25.5771H42.2629C42.1349 25.5771 42.0311 25.4777 42.0311 25.355V15.5819C42.0311 14.5594 42.8957 13.731 43.9628 13.731H45.1218V14.8415C45.8898 13.8368 47.4011 13.731 47.8647 13.731H49.298C49.7245 13.731 50.0706 14.0626 50.0706 14.4713Z" fill="#1F1F1F"/>
</svg>
