<svg xmlns="http://www.w3.org/2000/svg" xmlns:xlink="http://www.w3.org/1999/xlink" viewBox="0 0 143.07 28.35"><defs><style>.cls-1{fill:url(#linear-gradient);}.cls-2{fill:#f1f2f2;}.cls-3{fill:url(#linear-gradient-2);}.cls-4{fill:url(#linear-gradient-3);}</style><linearGradient id="linear-gradient" y1="14.17" x2="28.35" y2="14.17" gradientUnits="userSpaceOnUse"><stop offset="0" stop-color="#7e8bc0"/><stop offset="0.25" stop-color="#325ba3"/><stop offset="1" stop-color="#24427c"/></linearGradient><linearGradient id="linear-gradient-2" x1="25.51" y1="14.17" x2="53.86" y2="14.17" xlink:href="#linear-gradient"/><linearGradient id="linear-gradient-3" x1="51.02" y1="14.17" x2="79.37" y2="14.17" xlink:href="#linear-gradient"/></defs><g id="Layer_2" data-name="Layer 2"><g id="Слой_1" data-name="Слой 1"><path class="cls-1" d="M28.19,12H4.49A9.9,9.9,0,0,1,22.42,8.68L26,6.31a14.17,14.17,0,0,0-25.8,10h23.7A9.91,9.91,0,0,1,5.94,19.68L2.4,22.05A14.17,14.17,0,0,0,28.19,16.3a14,14,0,0,0,.16-2.12v0A14,14,0,0,0,28.19,12Z"/><path class="cls-2" d="M84.26,7.31V9.45a5.36,5.36,0,0,1,4.56-2.36c2.83,0,5.49,2.06,5.49,6v8H92.25V13.1A3.8,3.8,0,0,0,88.41,9a4.06,4.06,0,0,0-4.15,4.17V21H82.2V7.31Z"/><path class="cls-2" d="M107.54,17.08h2.25a6.27,6.27,0,0,1-6.26,4.18,6.79,6.79,0,0,1-6.95-7.09c0-3.93,2.61-7.09,6.81-7.09s6.81,3.16,6.81,7.09V15H98.69a4.78,4.78,0,0,0,4.86,4.39A4.29,4.29,0,0,0,107.54,17.08Zm-8.82-4h9.34a4.71,4.71,0,0,0-9.34,0Z"/><path class="cls-2" d="M120.71,10.08l-3.43,11h-2.36L110.6,7.31h2.2l3.29,11.18,3.49-11.18h2.25l3.49,11.18,3.29-11.18h2.2L126.51,21h-2.36Z"/><path class="cls-2" d="M142.63,11h-2.09c-.17-1.18-1-2.14-3.35-2.14-2.14,0-3.27.63-3.27,2,0,3.29,9.14,1.15,9.14,6.31,0,2.67-2.2,4.12-5.6,4.12-3.82,0-5.82-2.12-6-4.53h2.14c.14,1.4,1.18,2.77,3.85,2.77,1.13,0,3.51-.3,3.51-2.17,0-3.43-9.14-1.29-9.14-6.31,0-2.47,1.84-3.93,5.38-3.93S142.39,9,142.63,11Z"/><path class="cls-3" d="M53.86,14.17A14.17,14.17,0,0,0,25.67,12a14.2,14.2,0,0,0,0,4.25,14.17,14.17,0,0,0,25.79,5.76c-1.11-.87-2.37-1.59-3.55-2.37A9.9,9.9,0,0,1,30,16.3H53.7A14.13,14.13,0,0,0,53.86,14.17ZM30,12a9.92,9.92,0,0,1,19.37,0Z"/><path class="cls-4" d="M65.2,0A14.17,14.17,0,1,0,79.37,14.17,14.17,14.17,0,0,0,65.2,0Zm0,24.1a9.92,9.92,0,1,1,9.92-9.92A9.93,9.93,0,0,1,65.2,24.1Z"/></g></g></svg>