<svg width="191" height="34" viewBox="0 0 191 34" fill="none" xmlns="http://www.w3.org/2000/svg">
<path d="M70.545 26.884C68.0264 26.884 66.0015 26.5634 64.4702 25.9222V23.0368C65.3366 23.3574 66.2634 23.6179 67.2507 23.8183C68.2581 24.0187 69.2555 24.1188 70.2428 24.1188C71.7942 24.1188 72.9528 23.9385 73.7185 23.5778C74.5043 23.2172 74.8972 22.4958 74.8972 21.4138C74.8972 20.7526 74.736 20.2216 74.4136 19.8208C74.0912 19.4201 73.5573 19.0795 72.8118 18.7989C72.0663 18.4984 71.0387 18.1878 69.729 17.8672C67.6335 17.3262 66.1627 16.6449 65.3164 15.8234C64.4702 14.9818 64.0471 13.8297 64.0471 12.3669C64.0471 10.6638 64.6717 9.33129 65.9209 8.36949C67.1701 7.4077 69.0339 6.9268 71.5122 6.9268C72.6405 6.9268 73.6983 7.00695 74.6856 7.16725C75.693 7.32755 76.4788 7.50789 77.043 7.70826V10.5936C75.5117 10.0126 73.8192 9.72201 71.9655 9.72201C70.5148 9.72201 69.3865 9.91237 68.5805 10.2931C67.7746 10.6738 67.3716 11.3651 67.3716 12.3669C67.3716 12.948 67.5126 13.4189 67.7947 13.7796C68.0768 14.1402 68.5604 14.4508 69.2454 14.7113C69.9506 14.9718 70.9178 15.2623 72.1469 15.5829C73.7386 15.9837 74.9677 16.4646 75.8341 17.0256C76.7206 17.5666 77.3351 18.2078 77.6777 18.9492C78.0404 19.6706 78.2217 20.4921 78.2217 21.4138C78.2217 23.117 77.587 24.4595 76.3176 25.4413C75.0483 26.4031 73.1241 26.884 70.545 26.884Z" fill="black"/>
<path d="M88.6694 26.884C86.171 26.884 84.2367 26.2729 82.8666 25.0506C81.4965 23.8283 80.8114 21.9548 80.8114 19.4301C80.8114 17.1459 81.3957 15.3425 82.5644 14.02C83.733 12.6976 85.5061 12.0363 87.8836 12.0363C90.0597 12.0363 91.6918 12.6074 92.7798 13.7495C93.888 14.8716 94.4421 16.3243 94.4421 18.1076V20.7526H83.9546C84.1158 22.1351 84.6195 23.0869 85.4658 23.6079C86.312 24.1289 87.6016 24.3894 89.3343 24.3894C90.0597 24.3894 90.8052 24.3192 91.5709 24.179C92.3365 24.0387 93.0014 23.8584 93.5656 23.638V26.0424C92.9208 26.323 92.1753 26.5333 91.3291 26.6736C90.503 26.8139 89.6164 26.884 88.6694 26.884ZM83.9546 18.6186H91.5406V17.6267C91.5406 16.6449 91.2686 15.8835 90.7246 15.3425C90.1806 14.7814 89.2638 14.5009 87.9743 14.5009C86.443 14.5009 85.3852 14.8315 84.8009 15.4928C84.2367 16.154 83.9546 17.1959 83.9546 18.6186Z" fill="black"/>
<path d="M101.215 26.884C100.047 26.884 99.1602 26.6035 98.5557 26.0424C97.9512 25.4613 97.649 24.5096 97.649 23.1871V6.32568H100.943V22.8865C100.943 23.4476 101.044 23.8283 101.246 24.0287C101.447 24.2291 101.749 24.3292 102.152 24.3292C102.636 24.3292 103.099 24.2691 103.543 24.1489V26.5233C103.16 26.6636 102.787 26.7538 102.424 26.7938C102.082 26.8539 101.679 26.884 101.215 26.884Z" fill="black"/>
<path d="M108.919 26.884C107.75 26.884 106.864 26.6035 106.259 26.0424C105.655 25.4613 105.352 24.5096 105.352 23.1871V6.32568H108.647V22.8865C108.647 23.4476 108.747 23.8283 108.949 24.0287C109.15 24.2291 109.453 24.3292 109.856 24.3292C110.339 24.3292 110.803 24.2691 111.246 24.1489V26.5233C110.863 26.6636 110.49 26.7538 110.128 26.7938C109.785 26.8539 109.382 26.884 108.919 26.884Z" fill="black"/>
<path d="M121.077 26.884C118.578 26.884 116.644 26.2729 115.274 25.0506C113.904 23.8283 113.219 21.9548 113.219 19.4301C113.219 17.1459 113.803 15.3425 114.972 14.02C116.14 12.6976 117.913 12.0363 120.291 12.0363C122.467 12.0363 124.099 12.6074 125.187 13.7495C126.295 14.8716 126.849 16.3243 126.849 18.1076V20.7526H116.362C116.523 22.1351 117.027 23.0869 117.873 23.6079C118.719 24.1289 120.009 24.3894 121.742 24.3894C122.467 24.3894 123.212 24.3192 123.978 24.179C124.744 24.0387 125.409 23.8584 125.973 23.638V26.0424C125.328 26.323 124.583 26.5333 123.736 26.6736C122.91 26.8139 122.024 26.884 121.077 26.884ZM116.362 18.6186H123.948V17.6267C123.948 16.6449 123.676 15.8835 123.132 15.3425C122.588 14.7814 121.671 14.5009 120.382 14.5009C118.85 14.5009 117.792 14.8315 117.208 15.4928C116.644 16.154 116.362 17.1959 116.362 18.6186Z" fill="black"/>
<path d="M130.056 26.5834V12.3369H133.079L133.26 13.99C133.945 13.5491 134.761 13.1484 135.708 12.7877C136.655 12.4271 137.592 12.1766 138.519 12.0363V14.531C137.955 14.6312 137.34 14.7814 136.675 14.9818C136.03 15.1622 135.416 15.3725 134.831 15.613C134.247 15.8334 133.753 16.0638 133.351 16.3043V26.5834H130.056Z" fill="black"/>
<path d="M140.918 26.5834V7.22736H148.806C151.687 7.22736 153.823 7.98878 155.213 9.51162C156.603 11.0144 157.299 13.5191 157.299 17.0256C157.299 20.3318 156.613 22.7563 155.243 24.2992C153.873 25.822 151.727 26.5834 148.806 26.5834H140.918ZM144.212 24.0587H148.292C149.561 24.0587 150.619 23.8784 151.465 23.5177C152.312 23.137 152.946 22.4357 153.37 21.4138C153.793 20.3919 154.004 18.9292 154.004 17.0256C154.004 15.1221 153.813 13.6493 153.43 12.6074C153.047 11.5654 152.433 10.8341 151.586 10.4133C150.76 9.99252 149.662 9.78213 148.292 9.78213H144.212V24.0587Z" fill="black"/>
<path d="M167.798 26.884C165.3 26.884 163.366 26.2729 161.996 25.0506C160.626 23.8283 159.94 21.9548 159.94 19.4301C159.94 17.1459 160.525 15.3425 161.693 14.02C162.862 12.6976 164.635 12.0363 167.013 12.0363C169.189 12.0363 170.821 12.6074 171.909 13.7495C173.017 14.8716 173.571 16.3243 173.571 18.1076V20.7526H163.084C163.245 22.1351 163.749 23.0869 164.595 23.6079C165.441 24.1289 166.731 24.3894 168.463 24.3894C169.189 24.3894 169.934 24.3192 170.7 24.179C171.466 24.0387 172.13 23.8584 172.695 23.638V26.0424C172.05 26.323 171.304 26.5333 170.458 26.6736C169.632 26.8139 168.745 26.884 167.798 26.884ZM163.084 18.6186H170.67V17.6267C170.67 16.6449 170.398 15.8835 169.854 15.3425C169.31 14.7814 168.393 14.5009 167.103 14.5009C165.572 14.5009 164.514 14.8315 163.93 15.4928C163.366 16.154 163.084 17.1959 163.084 18.6186Z" fill="black"/>
<path d="M176.778 26.5834V12.3369H179.8L179.951 13.8397C180.596 13.3388 181.362 12.918 182.248 12.5773C183.155 12.2167 184.152 12.0363 185.241 12.0363C187.094 12.0363 188.444 12.4671 189.29 13.3287C190.137 14.1903 190.56 15.5328 190.56 17.3562V26.5834H187.296V17.5065C187.296 16.4045 187.064 15.633 186.601 15.1922C186.157 14.7514 185.311 14.531 184.062 14.531C183.316 14.531 182.581 14.6813 181.856 14.9818C181.15 15.2824 180.556 15.6731 180.072 16.154V26.5834H176.778Z" fill="black"/>
<path d="M25.4979 0.000732422L50.6051 23.7771H0L25.4979 0.000732422Z" fill="#EEF8FF"/>
<path d="M4.46709 33.9936L37.5811 33.9939L46.5426 33.9939L46.5427 30.5008L46.5426 26.984L25.5015 -1.35002e-05L4.46709 26.92L4.46709 33.9936Z" fill="#A1DAFF"/>
<path d="M4.47723 26.892V34H25.4837V0.0168457L4.47723 26.892Z" fill="#DAF0FF"/>
<path d="M37.5268 33.9711H13.4775L25.5022 13.2415L37.5268 33.9711Z" fill="#0069C0"/>
<path fill-rule="evenodd" clip-rule="evenodd" d="M37.5419 33.9937C37.9345 32.5518 38.1447 31.0297 38.1447 29.4563C38.1447 21.4621 32.7192 14.7914 25.5041 13.2415L37.5419 33.9937Z" fill="white"/>
<path fill-rule="evenodd" clip-rule="evenodd" d="M13.4663 33.9938C13.0737 32.5519 12.8635 31.0298 12.8635 29.4564C12.8635 21.4622 18.289 14.7914 25.5041 13.2415L13.4663 33.9938Z" fill="white"/>
</svg>
