<?xml version="1.0"?>
<svg width="458" height="184" xmlns="http://www.w3.org/2000/svg" xmlns:svg="http://www.w3.org/2000/svg">
 <g class="layer">
  <title>Layer 1</title>
  <path clip-rule="evenodd" d="m249.98,58.62c-1,6.06 -3.76,11.32 -8.32,15.93c-5.96,5.92 -13.07,8.87 -21.49,8.87c-8.32,0 -15.48,-2.95 -21.44,-8.87c-4.56,-4.61 -7.37,-9.87 -8.37,-15.93c-0.35,-1.75 -0.5,-3.61 -0.5,-5.46c0,-8.37 2.95,-15.48 8.87,-21.34c5.96,-6.01 13.12,-9.02 21.44,-9.02c8.42,0 15.53,3.01 21.49,9.02c5.86,5.86 8.82,12.97 8.82,21.34c0,1.85 -0.15,3.71 -0.5,5.46m22.94,-4.26c-0.1,-11.02 -4.41,-20.44 -12.92,-28.15c-8.32,-7.47 -18.29,-11.32 -29.91,-11.63l-2.36,0c-11.57,0.31 -21.59,4.16 -29.91,11.63c-8.56,7.71 -12.82,17.13 -12.82,28.15c0,1.46 0.05,2.86 0.25,4.26c0.72,6.86 3.31,13.07 7.74,18.59c-1.63,2.2 -2.43,4.74 -2.43,7.66c0,3.51 1.25,6.62 3.81,9.12c2.5,2.51 5.51,3.76 9.07,3.76c3.65,0 6.71,-1.25 9.22,-3.76c0.69,-0.69 1.28,-1.43 1.79,-2.21c3.26,1.01 6.69,1.67 10.29,1.97c-0.04,0.46 -0.06,0.92 -0.06,1.39c0,4.21 1.5,7.77 4.41,10.67c2.9,3.01 6.56,4.51 10.82,4.51c4.11,0 7.71,-1.5 10.72,-4.51c2.91,-2.9 4.41,-6.46 4.41,-10.67c0,-0.83 -0.06,-1.63 -0.18,-2.42c0.59,0.08 1.2,0.12 1.83,0.12c3.61,0 6.71,-1.2 9.22,-3.66c2.55,-2.55 3.86,-5.61 3.86,-9.17c0,-2.59 -0.68,-4.93 -2.01,-6.97c2.67,-4.42 4.31,-9.23 4.91,-14.42c0.15,-1.4 0.25,-2.8 0.25,-4.26" fill="#FFA400" fill-rule="evenodd" id="svg_1"/>
  <path clip-rule="evenodd" d="m225.18,64.18c-3.26,1.81 -6.06,2.36 -8.57,1.71c-1.2,-0.35 -1.45,-0.71 -0.9,-1.11c0.5,-0.7 2.46,-1.6 5.76,-2.75c3.41,-1.15 8.52,-2.06 8.42,-1.55c-0.3,1 -1.9,2.25 -4.71,3.7m-17.59,-10.77c-0.55,0 -2.55,-5.64 2.76,-10.77c2.81,-2.35 6.36,-3.41 10.72,-2.2c4.05,1.24 4.72,2.68 4.86,2.95c0.2,0.3 -0.1,1.1 -1,2.46c-0.95,1.4 -2.96,2.85 -6.01,4.36c-2.96,1.6 -8.94,3.2 -11.33,3.2m26.46,-9.67c-2.41,-4.31 -6.06,-7.11 -10.82,-8.46c-4.81,-1.31 -9.32,-0.71 -13.63,1.8c-4.21,2.6 -6.97,6.31 -8.22,11.02c-1,3.66 -0.85,7.17 0.4,10.52c0.35,1 0.81,2.01 1.31,2.96c2.5,4.31 6.16,7.11 10.97,8.36c4.66,1.31 9.17,0.76 13.47,-1.7c3.91,-2.3 6.62,-5.51 7.97,-9.62c0.15,-0.45 0.3,-0.9 0.45,-1.35c1.25,-4.76 0.65,-9.32 -1.9,-13.53" fill="black" fill-rule="evenodd" id="svg_2"/>
  <path clip-rule="evenodd" d="m235.38,5.05c0,-2.79 -2.26,-5.05 -5.05,-5.05c-2.79,0 -5.05,2.26 -5.05,5.05c0,2.18 1.39,4.04 3.33,4.74l0,7.8c0,0 0.59,0.53 1.9,0.53c1.32,0 1.83,-0.53 1.83,-0.53l0,-7.91c1.79,-0.77 3.04,-2.56 3.04,-4.63" fill="#00A94F" fill-rule="evenodd" id="svg_3"/>
  <path d="m22.19,172.87c-4.48,0 -8.41,-0.96 -11.79,-2.87c-3.33,-1.91 -5.9,-4.65 -7.7,-8.21c-1.8,-3.56 -2.7,-7.72 -2.7,-12.5c0,-4.78 0.9,-8.92 2.7,-12.44c1.8,-3.56 4.37,-6.29 7.7,-8.2c3.38,-1.91 7.31,-2.87 11.79,-2.87c2.89,0 5.61,0.44 8.16,1.31c2.55,0.82 4.81,2.04 6.78,3.64c0.57,0.43 0.97,0.89 1.19,1.37c0.22,0.48 0.33,1.06 0.33,1.76c0,0.95 -0.27,1.76 -0.79,2.41c-0.53,0.65 -1.17,0.97 -1.91,0.97c-0.88,0 -1.78,-0.3 -2.7,-0.91c-1.89,-1.39 -3.65,-2.34 -5.27,-2.86c-1.62,-0.57 -3.42,-0.85 -5.4,-0.85c-4.56,0 -8.03,1.41 -10.4,4.23c-2.33,2.83 -3.49,6.97 -3.49,12.44c0,5.52 1.16,9.68 3.49,12.5c2.37,2.83 5.84,4.24 10.4,4.24c1.89,0 3.62,-0.28 5.2,-0.85c1.63,-0.56 3.45,-1.52 5.47,-2.87c0.44,-0.25 0.88,-0.47 1.31,-0.65c0.44,-0.17 0.9,-0.26 1.39,-0.26c0.74,0 1.38,0.33 1.91,0.98c0.52,0.65 0.79,1.46 0.79,2.41c0,0.65 -0.11,1.24 -0.33,1.76c-0.22,0.48 -0.62,0.93 -1.19,1.37c-1.97,1.6 -4.23,2.84 -6.78,3.71c-2.55,0.82 -5.27,1.24 -8.16,1.24z" fill="#FFA400" id="svg_4"/>
  <path d="m49.43,172.67c-1.19,0 -2.18,-0.33 -2.97,-0.98c-0.74,-0.69 -1.12,-1.67 -1.12,-2.93l0,-38.88c0,-1.25 0.38,-2.21 1.12,-2.86c0.79,-0.65 1.78,-0.98 2.97,-0.98c1.18,0 2.17,0.33 2.96,0.98c0.79,0.65 1.18,1.61 1.18,2.86l0,38.88c0,1.26 -0.39,2.24 -1.18,2.93c-0.79,0.65 -1.78,0.98 -2.96,0.98z" fill="#FFA400" id="svg_5"/>
  <path d="m87.54,163.55c0.74,0 1.34,0.29 1.78,0.85c0.48,0.56 0.72,1.32 0.72,2.28c0,1.34 -0.81,2.47 -2.44,3.38c-1.49,0.83 -3.18,1.5 -5.07,2.02c-1.88,0.48 -3.68,0.72 -5.39,0.72c-5.18,0 -9.29,-1.48 -12.32,-4.43c-3.02,-2.95 -4.54,-6.99 -4.54,-12.11c0,-3.26 0.66,-6.14 1.98,-8.66c1.31,-2.52 3.16,-4.47 5.53,-5.86c2.41,-1.39 5.13,-2.09 8.16,-2.09c2.9,0 5.42,0.63 7.57,1.89c2.15,1.26 3.82,3.04 5.01,5.34c1.18,2.3 1.77,5.02 1.77,8.14c0,1.87 -0.83,2.8 -2.5,2.8l-19.42,0c0.26,3 1.12,5.21 2.57,6.64c1.45,1.39 3.55,2.09 6.32,2.09c1.4,0 2.63,-0.18 3.68,-0.52c1.1,-0.35 2.33,-0.83 3.69,-1.44c1.32,-0.69 2.28,-1.04 2.9,-1.04zm-11.39,-18.17c-2.24,0 -4.04,0.7 -5.4,2.09c-1.32,1.39 -2.11,3.38 -2.37,5.99l14.88,0c-0.09,-2.65 -0.75,-4.65 -1.98,-5.99c-1.22,-1.39 -2.94,-2.09 -5.13,-2.09z" fill="#FFA400" id="svg_6"/>
  <path d="m118.97,142.13c0.35,-0.78 0.81,-1.37 1.38,-1.76c0.62,-0.39 1.28,-0.59 1.98,-0.59c1.01,0 1.91,0.35 2.7,1.04c0.83,0.66 1.25,1.48 1.25,2.48c0,0.52 -0.13,1.04 -0.4,1.56l-12.18,25.2c-0.39,0.83 -0.96,1.46 -1.71,1.89c-0.7,0.44 -1.49,0.65 -2.37,0.65c-0.83,0 -1.64,-0.21 -2.43,-0.65c-0.75,-0.43 -1.32,-1.06 -1.72,-1.89l-12.24,-25.2c-0.22,-0.43 -0.33,-0.93 -0.33,-1.49c0,-1 0.42,-1.85 1.25,-2.55c0.88,-0.69 1.87,-1.04 2.96,-1.04c1.58,0 2.75,0.76 3.49,2.28l9.22,20.13l9.15,-20.06z" fill="#FFA400" id="svg_7"/>
  <path d="m156.14,163.55c0.74,0 1.34,0.29 1.78,0.85c0.48,0.56 0.72,1.32 0.72,2.28c0,1.34 -0.81,2.47 -2.43,3.38c-1.5,0.83 -3.19,1.5 -5.08,2.02c-1.88,0.48 -3.68,0.72 -5.39,0.72c-5.18,0 -9.29,-1.48 -12.31,-4.43c-3.03,-2.95 -4.55,-6.99 -4.55,-12.11c0,-3.26 0.66,-6.14 1.98,-8.66c1.31,-2.52 3.16,-4.47 5.53,-5.86c2.41,-1.39 5.13,-2.09 8.16,-2.09c2.9,0 5.42,0.63 7.57,1.89c2.15,1.26 3.82,3.04 5.01,5.34c1.18,2.3 1.77,5.02 1.77,8.14c0,1.87 -0.83,2.8 -2.5,2.8l-19.42,0c0.26,3 1.12,5.21 2.57,6.64c1.45,1.39 3.55,2.09 6.32,2.09c1.4,0 2.63,-0.18 3.69,-0.52c1.09,-0.35 2.32,-0.83 3.68,-1.44c1.32,-0.69 2.28,-1.04 2.9,-1.04zm-11.39,-18.17c-2.24,0 -4.04,0.7 -5.4,2.09c-1.32,1.39 -2.11,3.38 -2.37,5.99l14.88,0c-0.09,-2.65 -0.75,-4.65 -1.98,-5.99c-1.22,-1.39 -2.94,-2.09 -5.13,-2.09z" fill="#FFA400" id="svg_8"/>
  <path d="m183.61,139.78c1.14,-0.08 2.04,0.16 2.7,0.72c0.66,0.56 0.99,1.41 0.99,2.54c0,1.17 -0.29,2.04 -0.86,2.6c-0.57,0.57 -1.6,0.94 -3.1,1.11l-1.97,0.2c-2.59,0.26 -4.5,1.12 -5.73,2.6c-1.18,1.48 -1.77,3.32 -1.77,5.54l0,13.67c0,1.26 -0.4,2.24 -1.19,2.93c-0.79,0.65 -1.78,0.98 -2.96,0.98c-1.19,0 -2.18,-0.33 -2.97,-0.98c-0.74,-0.69 -1.12,-1.67 -1.12,-2.93l0,-25.2c0,-1.22 0.38,-2.15 1.12,-2.8c0.79,-0.65 1.76,-0.98 2.9,-0.98c1.14,0 2.06,0.33 2.77,0.98c0.7,0.61 1.05,1.5 1.05,2.67l0,2.6c0.83,-1.9 2.06,-3.38 3.69,-4.42c1.66,-1.05 3.51,-1.63 5.53,-1.76l0.92,-0.07z" fill="#FFA400" id="svg_9"/>
  <path d="m202.68,172.67c-1.27,0 -2.3,-0.37 -3.09,-1.11c-0.75,-0.78 -1.12,-1.82 -1.12,-3.12l0,-38.1c0,-1.26 0.35,-2.24 1.05,-2.93c0.75,-0.69 1.76,-1.04 3.03,-1.04l16.2,0c4.95,0 8.82,1.24 11.58,3.71c2.77,2.43 4.15,5.86 4.15,10.29c0,4.43 -1.38,7.88 -4.15,10.35c-2.76,2.48 -6.63,3.72 -11.58,3.72l-11.79,0l0,14c0,1.3 -0.4,2.34 -1.18,3.12c-0.75,0.74 -1.78,1.11 -3.1,1.11zm15.01,-24.68c5.84,0 8.76,-2.52 8.76,-7.56c0,-5.03 -2.92,-7.55 -8.76,-7.55l-10.73,0l0,15.11l10.73,0z" fill="black" id="svg_10"/>
  <path d="m266.1,139.78c1.28,0 2.29,0.35 3.03,1.04c0.75,0.7 1.12,1.63 1.12,2.81l0,25.26c0,1.13 -0.39,2.04 -1.18,2.74c-0.75,0.69 -1.74,1.04 -2.97,1.04c-1.18,0 -2.13,-0.33 -2.83,-0.98c-0.7,-0.65 -1.05,-1.54 -1.05,-2.67l0,-1.62c-1.01,1.73 -2.37,3.08 -4.08,4.03c-1.71,0.91 -3.65,1.37 -5.8,1.37c-7.9,0 -11.85,-4.39 -11.85,-13.15l0,-16.02c0,-1.18 0.38,-2.11 1.12,-2.81c0.75,-0.69 1.74,-1.04 2.96,-1.04c1.28,0 2.29,0.35 3.03,1.04c0.75,0.7 1.12,1.63 1.12,2.81l0,16.08c0,2.26 0.46,3.93 1.39,5.01c0.92,1.09 2.37,1.63 4.34,1.63c2.28,0 4.1,-0.73 5.47,-2.21c1.4,-1.52 2.1,-3.52 2.1,-5.99l0,-14.52c0,-1.18 0.37,-2.11 1.12,-2.81c0.75,-0.69 1.73,-1.04 2.96,-1.04z" fill="black" id="svg_11"/>
  <path d="m317.07,139.65c3.51,0 6.18,1.04 8.03,3.13c1.89,2.04 2.83,5.36 2.83,9.96l0,16.02c0,1.26 -0.39,2.24 -1.18,2.93c-0.75,0.65 -1.74,0.98 -2.97,0.98c-1.18,0 -2.17,-0.33 -2.96,-0.98c-0.75,-0.69 -1.12,-1.67 -1.12,-2.93l0,-16.02c0,-2.39 -0.44,-4.08 -1.32,-5.08c-0.83,-1.04 -2.13,-1.56 -3.88,-1.56c-2.15,0 -3.86,0.74 -5.14,2.21c-1.27,1.44 -1.91,3.41 -1.91,5.93l0,14.52c0,1.26 -0.39,2.24 -1.18,2.93c-0.75,0.65 -1.71,0.98 -2.9,0.98c-1.18,0 -2.17,-0.33 -2.96,-0.98c-0.79,-0.69 -1.18,-1.67 -1.18,-2.93l0,-16.02c0,-2.39 -0.44,-4.08 -1.32,-5.08c-0.84,-1.04 -2.13,-1.56 -3.89,-1.56c-2.15,0 -3.86,0.74 -5.13,2.21c-1.23,1.44 -1.84,3.41 -1.84,5.93l0,14.52c0,1.26 -0.4,2.24 -1.19,2.93c-0.79,0.65 -1.78,0.98 -2.96,0.98c-1.19,0 -2.17,-0.33 -2.96,-0.98c-0.75,-0.69 -1.12,-1.67 -1.12,-2.93l0,-25.2c0,-1.22 0.39,-2.15 1.18,-2.8c0.79,-0.65 1.78,-0.98 2.96,-0.98c1.15,0 2.07,0.33 2.77,0.98c0.75,0.61 1.12,1.5 1.12,2.67l0,1.56c1.01,-1.73 2.35,-3.06 4.01,-3.97c1.72,-0.91 3.67,-1.37 5.86,-1.37c4.83,0 8.06,2 9.68,5.99c0.97,-1.82 2.39,-3.27 4.28,-4.36c1.89,-1.08 4.02,-1.63 6.39,-1.63z" fill="black" id="svg_12"/>
  <path d="m354.79,139.65c2.77,0 5.23,0.7 7.38,2.09c2.19,1.39 3.88,3.36 5.07,5.92c1.23,2.52 1.84,5.43 1.84,8.73c0,3.3 -0.61,6.19 -1.84,8.66c-1.19,2.48 -2.86,4.39 -5.01,5.73c-2.15,1.35 -4.63,2.02 -7.44,2.02c-2.28,0 -4.32,-0.48 -6.12,-1.43c-1.8,-0.96 -3.18,-2.28 -4.15,-3.97l0,13.28c0,1.13 -0.37,2.02 -1.12,2.67c-0.74,0.65 -1.73,0.98 -2.96,0.98c-1.23,0 -2.24,-0.35 -3.03,-1.05c-0.74,-0.69 -1.12,-1.6 -1.12,-2.73l0,-36.92c0,-1.18 0.35,-2.11 1.06,-2.81c0.74,-0.69 1.73,-1.04 2.96,-1.04c1.23,0 2.22,0.35 2.96,1.04c0.75,0.7 1.12,1.63 1.12,2.81l0,1.62c0.97,-1.78 2.35,-3.14 4.15,-4.1c1.84,-1 3.93,-1.5 6.25,-1.5zm-2.17,26.83c2.59,0 4.61,-0.86 6.06,-2.6c1.45,-1.78 2.17,-4.28 2.17,-7.49c0,-3.3 -0.72,-5.86 -2.17,-7.68c-1.45,-1.83 -3.47,-2.74 -6.06,-2.74c-2.63,0 -4.67,0.89 -6.12,2.67c-1.41,1.78 -2.11,4.32 -2.11,7.62c0,3.25 0.7,5.77 2.11,7.55c1.45,1.78 3.49,2.67 6.12,2.67z" fill="black" id="svg_13"/>
  <path d="m404.47,165.96c0.88,0.83 1.32,1.76 1.32,2.8c0,1 -0.37,1.89 -1.12,2.67c-0.7,0.78 -1.54,1.17 -2.5,1.17c-0.97,0 -1.87,-0.39 -2.7,-1.17l-15.41,-13.8l0,11.13c0,1.26 -0.39,2.22 -1.18,2.87c-0.79,0.65 -1.78,0.97 -2.96,0.97c-1.19,0 -2.18,-0.32 -2.97,-0.97c-0.74,-0.65 -1.12,-1.61 -1.12,-2.87l0,-38.88c0,-1.25 0.38,-2.21 1.12,-2.86c0.79,-0.65 1.78,-0.98 2.97,-0.98c1.18,0 2.17,0.33 2.96,0.98c0.79,0.65 1.18,1.61 1.18,2.86l0,24.49l14.09,-13.35c0.79,-0.78 1.69,-1.17 2.7,-1.17c1.01,0 1.89,0.37 2.64,1.11c0.74,0.73 1.11,1.6 1.11,2.6c0,1 -0.41,1.91 -1.25,2.73l-10.33,9.51l11.45,10.16z" fill="black" id="svg_14"/>
  <path d="m415.21,172.67c-1.18,0 -2.17,-0.33 -2.96,-0.98c-0.75,-0.69 -1.12,-1.67 -1.12,-2.93l0,-25.13c0,-1.26 0.37,-2.22 1.12,-2.87c0.79,-0.65 1.78,-0.98 2.96,-0.98c1.19,0 2.17,0.33 2.97,0.98c0.79,0.65 1.18,1.61 1.18,2.87l0,25.13c0,1.26 -0.39,2.24 -1.18,2.93c-0.8,0.65 -1.78,0.98 -2.97,0.98zm0,-38.68c-1.49,0 -2.67,-0.39 -3.55,-1.18c-0.88,-0.82 -1.32,-1.88 -1.32,-3.19c0,-1.3 0.44,-2.34 1.32,-3.12c0.88,-0.78 2.06,-1.17 3.55,-1.17c1.45,0 2.61,0.39 3.49,1.17c0.92,0.78 1.38,1.82 1.38,3.12c0,1.31 -0.43,2.37 -1.31,3.19c-0.88,0.79 -2.07,1.18 -3.56,1.18z" fill="black" id="svg_15"/>
  <path d="m446.55,139.65c3.86,0 6.73,1.09 8.62,3.26c1.89,2.17 2.83,5.45 2.83,9.83l0,16.02c0,1.22 -0.37,2.17 -1.12,2.87c-0.7,0.69 -1.69,1.04 -2.96,1.04c-1.28,0 -2.28,-0.35 -3.03,-1.04c-0.75,-0.7 -1.12,-1.65 -1.12,-2.87l0,-15.56c0,-2.48 -0.48,-4.28 -1.45,-5.41c-0.92,-1.13 -2.39,-1.69 -4.41,-1.69c-2.37,0 -4.28,0.74 -5.73,2.21c-1.4,1.48 -2.1,3.46 -2.1,5.93l0,14.52c0,1.22 -0.38,2.17 -1.12,2.87c-0.75,0.69 -1.76,1.04 -3.03,1.04c-1.27,0 -2.28,-0.35 -3.03,-1.04c-0.7,-0.7 -1.05,-1.65 -1.05,-2.87l0,-25.2c0,-1.13 0.37,-2.04 1.12,-2.74c0.74,-0.69 1.75,-1.04 3.03,-1.04c1.14,0 2.06,0.35 2.76,1.04c0.75,0.66 1.12,1.52 1.12,2.61l0,1.76c1.1,-1.78 2.57,-3.15 4.41,-4.1c1.84,-0.96 3.93,-1.44 6.26,-1.44z" fill="black" id="svg_16"/>
 </g>
</svg>