<?xml version="1.0"?>
<svg width="656" height="175" xmlns="http://www.w3.org/2000/svg" xmlns:svg="http://www.w3.org/2000/svg" enable-background="new 0 0 772.818 292.666" version="1.1" xml:space="preserve">
 <g class="layer">
  <title>Layer 1</title>
  <g id="svg_1" transform="translate(-58.53 -58.67)">
   <polyline id="svg_2" points="261.756,92.084 270.76,92.084 270.76,150.617 261.756,150.617 261.756,92.084  "/>
   <path clip-rule="evenodd" d="m410.35,69.57l9.01,0l0,51.58c0,0.03 0,0.06 0,0.09c0,0.04 0,0.07 0,0.11l0,0.06c0,0.05 0,0.09 0,0.13l0,29.08l-9.01,0l0,-7.21c-5.72,5.83 -13.7,9.45 -22.51,9.45c-17.41,0 -31.53,-14.1 -31.53,-31.51c0,-17.41 14.12,-31.52 31.53,-31.52c6.69,0 12.9,2.09 18,5.65l0,12.62c-4.15,-5.41 -10.74,-8.9 -18,-8.9c-12.24,0 -22.16,9.91 -22.16,22.15c0,12.23 9.92,22.15 22.16,22.15c11.49,0 21.66,-7.63 22.51,-19.77l0,-0.13l0,-31.52l0,-22.51" fill-rule="evenodd" id="svg_3"/>
   <path clip-rule="evenodd" d="m585.96,168.63l-9.01,0l0,-81.05l9.01,0l0,31.52l0,3.65c0.74,11.58 10.74,20.75 22.51,20.75c12.23,0 22.15,-9.92 22.15,-22.15c0,-12.24 -9.92,-22.15 -22.15,-22.15c-7.16,0 -13.81,2.96 -18.01,8.13l0,-11.85c5.1,-3.56 11.31,-5.65 18.01,-5.65c17.41,0 31.52,14.11 31.52,31.52c0,17.41 -14.11,31.52 -31.52,31.52c-8.82,0 -16.79,-3.63 -22.51,-9.46l0,25.22" fill-rule="evenodd" id="svg_4"/>
   <path clip-rule="evenodd" d="m705.28,87.58l9,0l0,63.04l-9,0l0,-7.21l0,-21.95c0,-0.04 0,-0.07 0,-0.11l0,-1.92c0,0 0,0 0,0l0,-0.33l-0.01,0c-0.68,-12.21 -10.96,-19.9 -22.51,-19.9c-12.23,0 -22.15,9.92 -22.15,22.15s9.92,22.15 22.15,22.15c7.29,0 13.87,-3.51 18.02,-8.94l0,12.66c-5.11,3.56 -11.32,5.65 -18.02,5.65c-17.4,0 -31.51,-14.11 -31.51,-31.52c0,-17.41 14.11,-31.52 31.51,-31.52c8.83,0 16.8,3.62 22.52,9.46l0,-11.71" fill-rule="evenodd" id="svg_5"/>
   <path clip-rule="evenodd" d="m297.78,107.74c4.1,-5.44 10.64,-8.91 18.01,-8.91c12.46,0 22.51,9.89 22.51,22.52l0,29.27l9.01,0l0,-29.27c0,-17.66 -14.14,-31.52 -31.52,-31.52c-6.69,0 -12.9,2.05 -18.01,5.59l0,12.32m-4.5,15.86l0,0l0,-31.52l-9.01,0l0,58.54l9.01,0l0,-27.02z" fill-rule="evenodd" id="svg_6"/>
   <path clip-rule="evenodd" d="m462.37,98.23c11.33,0 20.76,8.15 22.73,18.91l-45.46,0c1.98,-10.76 11.4,-18.91 22.73,-18.91m31.24,18.91c0.18,1.38 0.28,2.79 0.28,4.21c0,1.42 -0.1,2.83 -0.28,4.2l-8.51,0l-45.46,0c1.98,10.76 11.4,18.91 22.73,18.91c8.11,0 15.25,-4.18 19.38,-10.51l9.52,0c-4.87,11.13 -15.97,18.91 -28.9,18.91c-15.98,0 -29.19,-11.89 -31.24,-27.31c-0.19,-1.37 -0.28,-2.78 -0.28,-4.2c0,-1.42 0.09,-2.83 0.28,-4.21c2.05,-15.42 15.26,-27.31 31.24,-27.31c15.99,0 29.19,11.89 31.24,27.31z" fill-rule="evenodd" id="svg_7"/>
   <path clip-rule="evenodd" d="m534.52,98.23c11.33,0 20.76,8.15 22.73,18.91l-45.46,0c1.97,-10.76 11.4,-18.91 22.73,-18.91m31.24,18.91c0.18,1.38 0.27,2.79 0.27,4.21c0,1.42 -0.09,2.83 -0.27,4.2l-8.51,0l-45.46,0c1.97,10.76 11.4,18.91 22.73,18.91c8.11,0 15.25,-4.18 19.37,-10.51l9.52,0c-4.86,11.13 -15.97,18.91 -28.89,18.91c-15.98,0 -29.19,-11.89 -31.24,-27.31c-0.19,-1.37 -0.28,-2.78 -0.28,-4.2c0,-1.42 0.09,-2.83 0.28,-4.21c2.05,-15.42 15.26,-27.31 31.24,-27.31c15.98,0 29.19,11.89 31.24,27.31z" fill-rule="evenodd" id="svg_8"/>
  </g>
  <g id="svg_9" transform="translate(-58.53 -58.67)">
   <path clip-rule="evenodd" d="m107.14,141.83l69.77,0c-2.16,-17.34 -16.95,-30.76 -34.88,-30.76c-17.93,0 -32.72,13.42 -34.89,30.76zm34.33,-82.94c0.31,-0.3 0.81,-0.3 1.11,0l82.95,82.94l-39.78,0c-2.2,-22.21 -20.94,-39.55 -43.72,-39.55s-41.53,17.34 -43.73,39.55l-39.77,0l82.94,-82.94z" fill="#007CFF" fill-rule="evenodd" id="svg_10"/>
   <path clip-rule="evenodd" d="m98.3,150.62l-39.77,0l82.94,82.94c0.31,0.31 0.81,0.31 1.11,0l82.95,-82.94l-39.78,0l-17.36,0l-61.25,0c2.17,17.34 16.96,30.76 34.89,30.76c13.01,0 24.37,-7.07 30.45,-17.58l9.84,0c-6.79,15.53 -22.27,26.37 -40.29,26.37c-22.79,0 -41.53,-17.34 -43.73,-39.55" fill="#0011FF" fill-rule="evenodd" id="svg_11"/>
  </g>
  <g id="svg_12" transform="translate(-58.53 -58.67)">
   <path d="m282.24,188.34c0,5.51 -3.99,8.84 -10.59,8.84l-6.27,0l0,7.69l-3.62,0l0,-25.38l9.89,0c6.6,0 10.59,3.33 10.59,8.85zm-3.62,0c0,-3.63 -2.43,-5.7 -7.07,-5.7l-6.17,0l0,11.39l6.17,0c4.64,0 7.07,-2.07 7.07,-5.69z" id="svg_13"/>
   <path d="m305.69,201.71l0,3.16l-18.42,0l0,-25.38l17.91,0l0,3.15l-14.28,0l0,7.8l12.73,0l0,3.08l-12.73,0l0,8.19l14.79,0z" id="svg_14"/>
   <path d="m333.24,179.49l0,25.38l-3.55,0l0,-22.23l-14.72,0l0,22.23l-3.59,0l0,-25.38l21.86,0z" id="svg_15"/>
   <path d="m361.63,188.34c0,5.51 -3.99,8.84 -10.59,8.84l-6.27,0l0,7.69l-3.63,0l0,-25.38l9.9,0c6.6,0 10.59,3.33 10.59,8.85zm-3.63,0c0,-3.63 -2.43,-5.7 -7.07,-5.7l-6.16,0l0,11.39l6.16,0c4.64,0 7.07,-2.07 7.07,-5.69z" id="svg_16"/>
   <path d="m381.89,198.52l-13.49,0l-2.79,6.35l-3.73,0l11.49,-25.38l3.59,0l11.53,25.38l-3.81,0l-2.79,-6.35zm-1.27,-2.9l-5.48,-12.43l-5.47,12.43l10.95,0z" id="svg_17"/>
   <path d="m392.87,179.49l3.59,0l0,19.58l15.01,-19.58l3.33,0l0,25.38l-3.55,0l0,-19.54l-15.05,19.54l-3.33,0l0,-25.38zm4.67,-6.74l2.58,0c0.03,1.88 1.41,2.97 3.66,2.97c2.18,0 3.59,-1.09 3.66,-2.97l2.54,0c-0.04,3.15 -2.28,4.96 -6.2,4.96c-3.99,0 -6.2,-1.81 -6.24,-4.96z" id="svg_18"/>
   <path d="m420.63,192.18c0,-7.51 5.73,-12.98 13.45,-12.98c3.92,0 7.33,1.34 9.65,3.95l-2.36,2.28c-1.96,-2.06 -4.35,-3.01 -7.14,-3.01c-5.73,0 -9.97,4.14 -9.97,9.76c0,5.62 4.24,9.75 9.97,9.75c2.79,0 5.18,-0.98 7.14,-3.05l2.36,2.29c-2.32,2.61 -5.73,3.99 -9.68,3.99c-7.69,0 -13.42,-5.48 -13.42,-12.98z" id="svg_19"/>
   <path d="m467.14,201.71l0,3.16l-18.41,0l0,-25.38l17.91,0l0,3.15l-14.29,0l0,7.8l12.73,0l0,3.08l-12.73,0l0,8.19l14.79,0z" id="svg_20"/>
   <path d="m493.32,188.34c0,5.51 -3.99,8.84 -10.59,8.84l-6.27,0l0,7.69l-3.63,0l0,-25.38l9.9,0c6.6,0 10.59,3.33 10.59,8.85zm-3.63,0c0,-3.63 -2.43,-5.7 -7.07,-5.7l-6.16,0l0,11.39l6.16,0c4.64,0 7.07,-2.07 7.07,-5.69z" id="svg_21"/>
  </g>
 </g>
</svg>