<?xml version="1.0"?>
<svg width="259" height="114" xmlns="http://www.w3.org/2000/svg" xmlns:svg="http://www.w3.org/2000/svg">
 <g class="layer">
  <title>Layer 1</title>
  <path d="m156.4,53.84c-1.77,-0.83 -4.09,-1.3 -6.88,-1.3c-6.77,0 -11.33,4.18 -11.33,11.51c0,7.9 4.91,12.35 12.81,12.35c1.4,0 3.53,-0.11 5.38,-0.47l0,-22.09l0.02,0zm11.13,30.17c-4.92,1.3 -11.33,1.95 -16.9,1.95c-14.29,0 -23.77,-7.62 -23.77,-21.54c0,-13.18 8.81,-21.73 21.72,-21.73c2.89,0 5.95,0.37 7.8,1.3l0,-19.12l11.15,0l0,59.14z" fill="#222222" id="svg_2"/>
  <path d="m247.81,53.84c-1.77,-0.83 -4.09,-1.3 -6.87,-1.3c-6.78,0 -11.33,4.18 -11.33,11.51c0,7.9 4.92,12.35 12.81,12.35c1.4,0 3.54,-0.11 5.39,-0.47l0,-22.09zm11.14,30.17c-4.91,1.3 -11.33,1.95 -16.89,1.95c-14.3,0 -23.78,-7.62 -23.78,-21.54c0,-13.18 8.82,-21.73 21.73,-21.73c2.88,0 5.95,0.37 7.8,1.3l0,-19.12l11.14,0l0,59.14z" fill="#222222" id="svg_3"/>
  <path d="m185.05,53.76c1.85,-0.75 4.45,-1.02 6.68,-1.02c6.86,0 11.61,3.98 11.61,11.13c0,8.43 -5.25,12.24 -12.26,12.34l0,9.75c0.18,0 0.37,0 0.57,0c14.39,0 23.02,-8.08 23.02,-22.46c0,-13.09 -9.2,-20.79 -22.74,-20.79c-6.86,0 -13.64,1.58 -18.11,3.43l0,55.61l11.23,0l0,-47.99z" fill="#222222" id="svg_4"/>
  <path clip-rule="evenodd" d="m47.4,0.41l-44.92,24.74l50.36,28.47c0.47,0.25 0.82,0.85 0.82,1.4l-0.02,42.8c0,0.53 -0.36,1.15 -0.83,1.4l-2.7,1.5c-0.22,0.11 -0.5,0.18 -0.8,0.18l-0.05,0c-0.32,0 -0.62,-0.05 -0.87,-0.18l-2.69,-1.5c-0.47,-0.25 -0.82,-0.87 -0.82,-1.4l-0.03,-38.15c-0.02,-0.28 -0.24,-0.62 -0.45,-0.75l-44.35,-25.15l-0.05,50.01c0,1.13 0.8,2.51 1.77,3.08l45.73,26.79c0.96,0.56 2.56,0.56 3.53,-0.02l45.11,-26.81c0.97,-0.56 1.77,-1.96 1.77,-3.1l0,-50.47l-30.01,17.99c-0.21,0.13 -0.5,0.2 -0.78,0.2c-0.32,0 -0.62,-0.08 -0.85,-0.22l-2.62,-1.61c-0.45,-0.27 -0.79,-0.9 -0.79,-1.42l0,-3.1c0,-0.53 0.34,-1.13 0.81,-1.4l0.02,-0.01c0.11,-0.15 0.23,-0.29 0.38,-0.37l30.89,-18.53l-43.98,-24.37c-0.5,-0.26 -1.15,-0.41 -1.8,-0.41c-0.64,0 -1.28,0.13 -1.78,0.41z" fill="#DC0032" fill-rule="evenodd" id="svg_5"/>
 </g>
</svg>