<svg width="448" height="129" viewBox="0 0 448 129" fill="none" xmlns="http://www.w3.org/2000/svg">
<path d="M18.53 54.14H0.0100098V1.06995H18.53V18.6299H47.09V1.06995H65.71V54.14H47.09V33.11H18.53V54.14ZM0 127.24H18.52V88.65H121.43V127.24H140.05V74.17H0V127.24ZM429.06 108.71L447.01 111.89C443.34 122.7 433.5 128.29 412.95 128.29C390.66 128.29 377.06 117.87 377.06 100.69C377.06 84.19 390.38 73.09 412.66 73.09C433.5 73.09 447.39 82.74 447.39 98.95C447.39 101.26 447.2 103 446.72 104.93H395.49C397.13 111.49 402.82 114.77 413.05 114.77C422.6 114.79 427.52 112.86 429.06 108.71ZM395.87 94.8199H428.96C427.32 88.7399 421.82 86.23 412.75 86.23C403.2 86.23 397.8 89.0299 395.87 94.8199ZM221.97 100.71C221.97 118.08 208.95 128.31 186.37 128.31C163.89 128.31 150.77 118.08 150.77 100.71C150.77 83.34 163.89 73.11 186.37 73.11C208.85 73.11 221.97 83.34 221.97 100.71ZM202.96 100.71C202.96 91.54 197.85 87.2 186.37 87.2C174.89 87.2 169.68 91.54 169.68 100.71C169.68 109.88 174.89 114.22 186.37 114.22C197.85 114.22 202.96 109.87 202.96 100.71ZM377.34 74.17H353.22L327.85 94.92V74.17H309.33V127.24H327.85V103.7L353.13 127.24H378.12L346.67 98.1L377.34 74.17ZM238.07 86.91C238.07 100.61 237.4 107.37 234.89 110.84C233.15 113.15 230.55 114.12 226.59 114.31L227.36 128.11C237.3 128.3 244.15 126.66 248.59 121.45C253.41 115.95 255.63 106.69 255.73 89.42V88.65H276.47V127.24H294.99V74.17H238.16L238.07 86.91ZM101.08 22.59L122.69 20.85C122.3 15.35 118.54 12.94 109.28 12.94C100.31 12.94 96.35 15.16 95.48 19.98L77.63 17.08C81.01 5.49996 90.95 0 109.57 0C130.8 0 140.06 6.45999 140.06 20.36V54.1299H125.3L123.37 45.64C117.87 51.72 109.09 55.19 98.28 55.19C84.29 55.19 75.99 49.21 75.99 39.17C75.99 29.15 83.52 24.04 101.08 22.59ZM100.21 33.2C95.97 33.59 93.94 35.23 93.94 37.93C93.94 41.21 96.54 42.66 102.53 42.66C114.2 42.66 122.98 37.84 122.98 31.47L122.97 31.18L100.21 33.2Z" fill="#F8371C"/>
</svg>
