<?xml version="1.0" encoding="UTF-8"?>
<svg id="_Слой_2" data-name="Слой 2" xmlns="http://www.w3.org/2000/svg" viewBox="0 0 324.7 193.8">
  <g id="_Слой_1-2" data-name="Слой 1">
    <g>
      <path d="m23.9,78.1l16.5,38.3h-7.9l-3.7-8.5H11.5l-3.7,8.5H0l16.5-38.3h7.4Zm-3.8,10l-5.7,13h11.4l-5.7-13Z"/>
      <path d="m110.6,78.1v31.6h19.1v6.7h-26.6v-38.3h7.5Z"/>
      <g>
        <rect x="161.7" y="38.7" width="2.1" height="116.4"/>
        <rect x="67" y="77.4" width="2.1" height="116.4"/>
        <rect x="256.6" width="2.1" height="116.4"/>
      </g>
      <path d="m319.1,111.4c-3.7,3.8-8.4,5.8-14.2,5.8s-10.5-1.9-14.2-5.8c-3.7-3.8-5.6-8.5-5.6-14.1s1.9-10.3,5.6-14.1,8.4-5.8,14.2-5.8,10.5,1.9,14.2,5.8c3.7,3.8,5.6,8.5,5.6,14.1,0,5.5-1.9,10.2-5.6,14.1Zm-22.9-4.8c2.3,2.6,5.2,3.8,8.7,3.8s6.4-1.2,8.7-3.8c2.3-2.6,3.5-5.6,3.5-9.3s-1.2-6.9-3.5-9.3c-2.3-2.5-5.2-3.8-8.7-3.8s-6.4,1.2-8.7,3.8c-2.3,2.5-3.5,5.6-3.5,9.3s1.2,6.8,3.5,9.3Z"/>
      <path d="m193.4,78.1h32.2v6.7h-12.3v31.6h-7.5v-31.6h-12.4v-6.7Z"/>
    </g>
  </g>
</svg>