<?xml version="1.0" encoding="utf-8"?>
<!-- Generator: Adobe Illustrator 16.0.0, SVG Export Plug-In . SVG Version: 6.00 Build 0)  -->
<!DOCTYPE svg PUBLIC "-//W3C//DTD SVG 1.1 Tiny//EN" "http://www.w3.org/Graphics/SVG/1.1/DTD/svg11-tiny.dtd">
<svg version="1.1" baseProfile="tiny" id="знак"
	 xmlns="http://www.w3.org/2000/svg" xmlns:xlink="http://www.w3.org/1999/xlink" x="0px" y="0px" width="118px" height="17px"
	 viewBox="0 0 118 17" xml:space="preserve">
<style type="text/css">
	#_x33_51_xD7_51_исходный{fill:#D82C2C;}
</style>
<path id="_x33_51_xD7_51_исходный" d="M74.188,0.65v15.302h2.856V6.639l9.951,9.824h0.555V1.013h-2.856v9.398L74.699,0.65
	H74.188z M50.874,0.735c-4.24,0-7.735,3.474-7.735,7.758s3.495,7.757,7.735,7.757c2.11,0,3.325-0.361,4.455-0.831l0.64-0.276V7.811
	h-2.856v5.307c-0.554,0.19-1.15,0.276-2.152,0.276c-2.195,0-4.88-1.684-4.88-4.9c0-3.217,2.685-4.901,4.88-4.901
	c1.704,0,2.407,0.128,4.411,1.022V1.589C54.007,1.034,53.069,0.735,50.874,0.735L50.874,0.735z M34.423,0.65l-6.969,15.302h3.154
	l1.215-2.983h5.605l1.235,2.983h3.239L34.934,0.65H34.423z M69.627,15.952v-2.897h-5.924V9.622h5.285V6.938h-5.285V3.911h5.924
	V1.013h-8.779v14.939H69.627z M98.802,13.395c-2.194,0-4.88-1.684-4.88-4.9c0-3.217,2.686-4.901,4.88-4.901
	c1.704,0,2.407,0.128,4.411,1.022V1.589c-1.363-0.555-2.302-0.854-4.496-0.854c-4.24,0-7.736,3.474-7.736,7.758
	s3.496,7.757,7.736,7.757c2.194,0,3.133-0.298,4.496-0.854v-3.024C101.209,13.268,100.506,13.395,98.802,13.395L98.802,13.395z
	 M110.032,15.952h2.854V9.688l4.773-8.674h-3.239l-2.962,5.584l-2.962-5.584h-3.239l4.773,8.674L110.032,15.952L110.032,15.952z
	 M7.358,1.013v2.898h3.75v12.041h2.856V3.911h3.75V1.013H7.358z M3.863,15.952V1.013H1.008v14.939H3.863z M26.069,9.622V6.938
	h-6.735v2.685L26.069,9.622L26.069,9.622z M34.614,6.213l1.748,4.198h-3.473L34.614,6.213z"/>
</svg>
