<svg width="347" height="85" viewBox="0 0 347 85" fill="none" xmlns="http://www.w3.org/2000/svg">
<path d="M77.6131 52.2188V44.0341C70.8834 44.8723 65.9996 45.709 62.9571 46.5459C58.9935 47.6614 56.6899 50.3594 56.6899 53.3343C56.6899 56.9619 59.548 59.3792 63.8788 59.3792C69.3168 59.3792 74.3865 56.6831 77.6131 52.2188ZM77.7975 59.0074C73.9255 63.5645 69.0405 65.796 63.0493 65.796C54.5704 65.796 49.0403 61.1456 49.0403 54.1712C49.0403 47.0108 54.2941 42.2677 63.1415 40.4082C65.9996 39.7573 70.7912 39.1064 77.6131 38.3628V35.0139C77.6131 29.8989 73.2807 26.0855 67.2895 26.0855C61.483 26.0855 57.3347 28.9692 57.3347 32.7826C57.3347 33.2475 57.427 33.6196 57.5192 33.9914L50.6065 35.386C50.3302 34.6421 50.238 33.7127 50.238 32.5969C50.238 24.9697 57.6114 19.2969 67.8424 19.2969C77.7053 19.2969 84.9861 25.5276 84.9861 34.0845V56.0322C84.9861 57.8916 86.2764 59.2862 88.1192 59.2862C90.6088 59.2862 92.3594 56.0322 92.3594 51.6609L98.6269 53.1485C98.6269 60.402 93.7416 65.796 87.3819 65.796C82.4966 65.796 78.6267 63.0069 77.7975 59.0074Z" fill="#F25430"/>
<path d="M170.116 51.3711L160.898 23.8432V64.8553H154.262V20.2158H167.35L176.199 47.0928L184.77 20.2158H197.767V64.8553H191.131V23.9362L181.545 51.3711H170.116Z" fill="#F25430"/>
<path d="M240.441 64.8553V23.9362L221.27 64.8553H210.025V20.2158H217.029V58.0667L235.002 20.2158H247.445V64.8553H240.441Z" fill="#F25430"/>
<path d="M292.16 64.8553L274.926 45.8843H266.906C266.906 56.5794 266.906 62.9031 266.998 64.8553H259.625C259.717 60.3912 259.717 52.9517 259.717 42.5357C259.717 32.1194 259.717 24.6802 259.625 20.2158H266.998C266.906 24.0292 266.906 30.26 266.906 39.0026H275.11L291.792 20.2158H301.009L281.746 41.8848L302.483 64.8553H292.16Z" fill="#F25430"/>
<path d="M345.457 52.033C342.23 60.495 334.396 65.796 325.086 65.796C312.459 65.796 303.059 56.2186 303.059 42.5468C303.059 28.9695 312.459 19.2969 325.086 19.2969C335.594 19.2969 343.981 25.8067 346.378 35.9439L339.558 38.177C337.99 31.2008 332.275 26.6452 325.178 26.6452C316.607 26.6452 310.248 33.3405 310.248 42.5468C310.248 51.7542 316.607 58.4498 325.178 58.4498C331.354 58.4498 336.516 54.8222 338.728 48.9633L345.457 52.033Z" fill="#F25430"/>
<path d="M31.1614 64.8553V45.5121H7.93462V64.8553H0.561279V20.2158H7.93462V38.6308H31.1614V20.2158H38.5363V64.8553H31.1614Z" fill="#F25430"/>
<path d="M25.0801 78.9756C25.0801 82.0475 22.6117 84.5381 19.5671 84.5381C16.5225 84.5381 14.0541 82.0475 14.0541 78.9756C14.0541 75.9036 16.5225 73.4131 19.5671 73.4131C22.6117 73.4131 25.0801 75.9036 25.0801 78.9756Z" fill="#F25430"/>
<path d="M25.0801 6.10058C25.0801 9.17252 22.6117 11.6631 19.5671 11.6631C16.5225 11.6631 14.0541 9.17252 14.0541 6.10058C14.0541 3.02864 16.5225 0.53808 19.5671 0.53808C22.6117 0.53808 25.0801 3.02864 25.0801 6.10058Z" fill="#F25430"/>
<path d="M135.078 64.9959V24.0768L115.907 64.9959H104.662V20.3564H111.667V58.2073L129.642 20.3564H142.084V64.9959H135.078Z" fill="#F25430"/>
<path d="M133.891 0.918945C133.891 7.12805 128.933 12.044 122.78 12.044C116.797 12.044 111.668 7.12805 111.668 0.918945H117.395C117.395 7.99162 128.165 7.99162 128.165 0.918945H133.891Z" fill="#F25430"/>
</svg>
