<svg width="1247" height="1066" viewBox="0 0 1247 1066" fill="none" xmlns="http://www.w3.org/2000/svg">
<path d="M531.993 1066C825.804 1066 1063.99 827.368 1063.99 533C1063.99 238.632 825.804 0 531.993 0C238.181 0 0 238.632 0 533C0 827.368 238.181 1066 531.993 1066Z" fill="#FFE400"/>
<path d="M443.787 238.141C443.633 229.195 445.317 220.313 448.736 212.048C452.155 203.782 457.234 196.31 463.659 190.095C470.084 183.881 477.716 179.057 486.081 175.925C494.446 172.792 503.365 171.418 512.283 171.887C521.195 171.417 530.107 172.792 538.464 175.926C546.822 179.06 554.445 183.885 560.858 190.102C567.271 196.319 572.337 203.793 575.739 212.058C579.141 220.324 580.807 229.203 580.632 238.141C580.807 247.08 579.141 255.959 575.739 264.224C572.337 272.49 567.271 279.964 560.858 286.181C554.445 292.397 546.822 297.223 538.464 300.357C530.107 303.491 521.195 304.866 512.283 304.396C503.365 304.865 494.446 303.49 486.081 300.358C477.716 297.225 470.084 292.402 463.659 286.187C457.234 279.973 452.155 272.501 448.736 264.235C445.317 255.969 443.633 247.087 443.787 238.141ZM547.345 238.141C547.656 233.366 546.985 228.578 545.375 224.073C543.765 219.567 541.249 215.441 537.984 211.949C534.718 208.457 530.772 205.673 526.389 203.77C522.007 201.867 517.282 200.886 512.505 200.886C507.729 200.886 503.003 201.867 498.621 203.77C494.239 205.673 490.293 208.457 487.027 211.949C483.761 215.441 481.246 219.567 479.635 224.073C478.025 228.578 477.355 233.366 477.665 238.141C477.355 242.917 478.025 247.705 479.635 252.21C481.246 256.715 483.761 260.841 487.027 264.334C490.293 267.826 494.239 270.609 498.621 272.512C503.003 274.415 507.729 275.397 512.505 275.397C517.282 275.397 522.007 274.415 526.389 272.512C530.772 270.609 534.718 267.826 537.984 264.334C541.249 260.841 543.765 256.715 545.375 252.21C546.985 247.705 547.656 242.917 547.345 238.141Z" fill="black"/>
<path d="M700.633 302.236V174.025H764.691C770.481 173.584 776.298 174.371 781.764 176.336C787.229 178.301 792.219 181.399 796.408 185.428C800.596 189.457 803.889 194.326 806.072 199.716C808.254 205.107 809.277 210.899 809.073 216.713C809.256 222.515 808.217 228.29 806.025 233.663C803.834 239.036 800.537 243.887 796.351 247.899C792.164 251.912 787.182 254.996 781.727 256.952C776.272 258.908 770.468 259.692 764.691 259.252H733.623V302.384L700.633 302.236ZM775.638 216.713C775.644 214.812 775.257 212.931 774.501 211.187C773.746 209.443 772.639 207.874 771.25 206.58C769.86 205.285 768.219 204.293 766.428 203.664C764.637 203.036 762.736 202.785 760.844 202.928H734.215V230.349H760.844C762.724 230.491 764.613 230.245 766.393 229.626C768.174 229.006 769.809 228.027 771.196 226.748C772.583 225.47 773.693 223.919 774.457 222.193C775.221 220.467 775.624 218.601 775.638 216.713Z" fill="black"/>
<path d="M967.681 302.211V202.903H932.027V174H1036.62V202.903H1000.67V302.359L967.681 302.211Z" fill="black"/>
<path d="M1167.24 302.211V174H1200.23V302.211H1167.24Z" fill="black"/>
<path d="M562.158 596.976V513.528L529.759 596.976H514.965L482.714 513.528V596.976H450.02V468.766H495.881L522.51 538.281L549.435 468.766H595.297V596.976H562.158Z" fill="black"/>
<path d="M729.508 596.976V468.766H762.498V596.976H729.508Z" fill="black"/>
<path d="M892.84 596.976V570.593L946.838 497.52H892.84V468.766H991.22V495.001L936.482 568.073H992.551V596.976H892.84Z" fill="black"/>
<path d="M1209.41 596.999L1203.05 578.027H1152.6L1146.24 596.554H1109.55L1157.78 468.344H1198.31L1246.69 596.554L1209.41 596.999ZM1177.75 501.397L1161.48 549.717H1194.17L1177.75 501.397Z" fill="black"/>
<path d="M490.137 891.671V792.364H454.188V763.461H558.781V792.364H523.128V891.82L490.137 891.671Z" fill="black"/>
<path d="M685.781 891.671V763.461H718.772V891.671H685.781Z" fill="black"/>
<path d="M846.756 827.779C846.284 814.115 849.897 800.621 857.131 789.028C864.365 777.435 874.891 768.271 887.358 762.711C899.825 757.152 913.666 755.45 927.105 757.824C940.544 760.198 952.969 766.54 962.786 776.036C972.604 785.532 979.367 797.75 982.207 811.123C985.048 824.495 983.837 838.413 978.729 851.092C973.622 863.77 964.851 874.631 953.541 882.282C942.231 889.933 928.898 894.025 915.252 894.033C906.334 894.502 897.415 893.128 889.05 889.995C880.685 886.863 873.053 882.039 866.628 875.825C860.203 869.61 855.123 862.138 851.705 853.872C848.286 845.607 846.601 836.725 846.756 827.779ZM950.314 827.779C949.909 820.957 947.519 814.404 943.439 808.928C939.358 803.452 933.766 799.293 927.353 796.966C920.94 794.638 913.987 794.243 907.353 795.83C900.719 797.417 894.694 800.917 890.022 805.896C885.351 810.875 882.237 817.116 881.066 823.848C879.895 830.581 880.718 837.509 883.433 843.778C886.148 850.047 890.636 855.382 896.344 859.124C902.051 862.866 908.727 864.851 915.548 864.834C920.282 864.826 924.963 863.842 929.301 861.942C933.638 860.042 937.538 857.267 940.758 853.79C943.979 850.314 946.449 846.21 948.017 841.735C949.585 837.26 950.215 832.509 949.87 827.779H950.314Z" fill="black"/>
<path d="M1198.39 891.671L1144.24 817.561V891.671H1111.4V763.461H1145.42L1197.2 834.014V763.461H1230.34V891.671H1198.39Z" fill="black"/>
</svg>
