<svg width="115" height="31" viewBox="0 0 115 31" fill="none" xmlns="http://www.w3.org/2000/svg">
<path d="M59.8537 9.91741H62.6523V20.4604C62.6523 22.1794 62.0665 23.4781 60.9268 24.3854C59.787 25.2927 58.4211 25.7479 56.826 25.7479C55.6224 25.7479 54.5465 25.5218 53.6359 25.0666C52.7252 24.6115 52.0408 23.9303 51.5536 23.0549L54.0274 21.6286C54.5813 22.6664 55.5557 23.1853 56.9565 23.1853C57.8671 23.1853 58.5835 22.9592 59.1055 22.4722C59.6246 21.9852 59.8856 21.3359 59.8856 20.4604V19.2603C59.0388 20.3966 57.8671 20.9474 56.3388 20.9474C54.8104 20.9474 53.4415 20.3966 52.3685 19.2922C51.3274 18.1877 50.7734 16.8253 50.7734 15.2686C50.7734 13.712 51.2926 12.3814 52.3685 11.2451C53.4415 10.1087 54.7437 9.58984 56.3069 9.58984C57.87 9.58984 59.0069 10.1406 59.8537 11.277V9.91451V9.91741ZM54.5146 17.4427C55.1004 17.9935 55.8486 18.2863 56.7593 18.2863C57.6699 18.2863 58.4182 17.9935 58.9721 17.4427C59.5579 16.8601 59.8508 16.1441 59.8508 15.2367C59.8508 14.3294 59.5579 13.6482 58.9721 13.0945C58.3863 12.5119 57.638 12.2191 56.7593 12.2191C55.8805 12.2191 55.1004 12.5119 54.5146 13.0945C53.9288 13.6453 53.6359 14.3584 53.6359 15.2367C53.6359 16.1151 53.9288 16.892 54.5146 17.4427Z" fill="#101828"/>
<path d="M65.0583 8.58771C64.571 8.58771 64.1795 8.42538 63.8228 8.06882C63.498 7.71227 63.3008 7.28904 63.3008 6.83682C63.3008 6.38461 63.4632 5.96138 63.8228 5.60483C64.1795 5.24827 64.6029 5.08594 65.0583 5.08594C65.5455 5.08594 65.9689 5.24827 66.2937 5.60483C66.6504 5.96138 66.8128 6.38461 66.8128 6.83682C66.8128 7.28904 66.6504 7.71227 66.2937 8.06882C65.9689 8.39349 65.5455 8.58771 65.0583 8.58771ZM63.6575 20.9802V9.91827H66.5228V20.9802H63.6575Z" fill="#101828"/>
<path d="M74.2588 7.71224C72.6956 7.58179 71.9155 8.23113 71.9155 9.59357V9.88635H74.2588V12.6431H71.9155V20.9801H69.0501V12.6431H67.4551V9.88635H69.0501V9.59357C69.0501 8.03691 69.4736 6.8368 70.3523 6.02513C71.231 5.21346 72.5332 4.8569 74.2588 4.95546V7.71224Z" fill="#101828"/>
<path d="M82.5813 12.6468H80.0437V17.253C80.0437 17.6415 80.1423 17.9024 80.3366 18.0966C80.5309 18.2589 80.8238 18.3894 81.1834 18.4213C81.543 18.4213 82.0302 18.4213 82.5494 18.3894V20.9838C80.5628 21.2099 79.1968 21.0157 78.35 20.433C77.538 19.8504 77.1464 18.7778 77.1464 17.253V12.6468H75.2266V9.89004H77.1464V7.68404L80.0118 6.80859V9.92193H82.5175V12.6468H82.5813Z" fill="#101828"/>
<path d="M86.5437 16.6314C86.9352 18.0257 87.9764 18.7069 89.6671 18.7069C90.775 18.7069 91.587 18.3504 92.1728 17.6025L94.4842 18.933C93.3764 20.5216 91.7842 21.3014 89.6352 21.3014C87.7792 21.3014 86.3146 20.7506 85.2097 19.6462C84.1018 18.5417 83.5508 17.1474 83.5508 15.4603C83.5508 13.7731 84.1047 12.4107 85.2097 11.3063C86.3175 10.1699 87.7154 9.61914 89.4409 9.61914C91.0679 9.61914 92.402 10.1699 93.4779 11.3063C94.5509 12.4426 95.073 13.805 95.073 15.4603C95.073 15.8168 95.0411 16.2053 94.9744 16.6285H86.5437V16.6314ZM86.4799 14.3935H92.1438C91.9814 13.6485 91.6566 13.0629 91.1346 12.7064C90.6474 12.3498 90.0616 12.1556 89.409 12.1556C88.6289 12.1556 88.0083 12.3498 87.4892 12.7383C87.0019 13.1586 86.6423 13.6804 86.4799 14.3935Z" fill="#101828"/>
<path d="M98.9324 11.8008C99.1934 11.0877 99.6487 10.5688 100.235 10.2122C100.852 9.85569 101.537 9.69336 102.317 9.69336V12.8734C101.438 12.7748 100.658 12.9371 99.9735 13.3923C99.2891 13.8474 98.9643 14.6243 98.9643 15.662V20.9814H96.0352V9.91947H98.9005V11.8008H98.9324Z" fill="#101828"/>
<path d="M111.779 9.91369H114.838L110.801 20.9756C110.215 22.5641 109.467 23.7324 108.49 24.4136C107.544 25.1267 106.341 25.4514 104.943 25.3876V22.7265C105.723 22.7265 106.309 22.5641 106.764 22.2395C107.22 21.9148 107.579 21.364 107.837 20.5842L103.281 9.87891H106.405L109.302 17.3086L111.776 9.91079L111.779 9.91369Z" fill="#101828"/>
<g clip-path="url(#clip0_843_1885)">
<path d="M0.906687 0.0771666C-0.57727 1.11775 -0.13401 16.9 1.29213 17.7864C2.81463 18.7307 20.2752 15.474 20.9112 13.7012C21.8748 11.0997 2.58337 -1.07904 0.906687 0.0771666Z" fill="#6B4EFF"/>
<g clip-path="url(#clip1_843_1885)">
<path d="M42.9506 0.0791198C44.4223 1.11971 43.9827 16.902 42.5683 17.7884C41.0584 18.7326 23.7421 15.476 23.1114 13.7031C22.1749 11.1016 41.3069 -1.07709 42.9506 0.0791198Z" fill="#6B4EFF"/>
<path d="M38.2657 25.3537C38.0363 26.6448 27.4669 31.154 26.4539 30.4603C25.3836 29.728 22.2682 17.1061 23.243 16.1426C24.6573 14.7358 38.5333 23.8892 38.2657 25.3537Z" fill="#6B4EFF"/>
<path d="M7.03322 21.5544C7.03322 22.6528 15.0606 27.9328 15.9972 27.5089C16.991 27.0657 21.387 17.1608 20.7372 16.2166C19.7624 14.8484 7.01411 20.3019 7.03322 21.5544Z" fill="#6B4EFF"/>
</g>
</g>
<defs>
<clipPath id="clip0_843_1885">
<rect width="44.2104" height="30.6203" fill="white"/>
</clipPath>
<clipPath id="clip1_843_1885">
<rect width="114.838" height="30.6203" fill="white"/>
</clipPath>
</defs>
</svg>
