<svg width="336" height="80" viewBox="0 0 336 80" fill="none" xmlns="http://www.w3.org/2000/svg">
<path fill-rule="evenodd" clip-rule="evenodd" d="M179.644 38.7466H174.753L166.409 28.7623L158.108 38.7466H153.25L163.975 25.847L153.804 13.6793H158.695L166.412 22.9141L174.091 13.6793H178.95L168.849 25.8294L179.644 38.7466ZM105.816 39.3733C98.1365 39.3733 95.8297 37.4933 95.8297 37.4933V1.14558H99.5745V14.3586C100.96 13.6717 102.957 13.0526 105.816 13.0526C113.4 13.0526 119.547 18.5975 119.547 26.2129C119.547 33.8284 113.4 39.3733 105.816 39.3733ZM105.816 16.8127C103.217 16.8127 101.085 17.8129 99.5745 18.8431V34.3598C99.5745 34.3598 101.584 35.6132 105.816 35.6132C111.331 35.6132 115.802 31.7503 115.802 26.2129C115.802 20.6756 111.331 16.8127 105.816 16.8127ZM83.347 1.14558H87.0918V38.7466H83.347V1.14558ZM74.6091 1.14558V38.7466H70.8643V1.14558H74.6091ZM60.1766 6.78574C58.4515 6.78574 57.0559 5.38196 57.0559 3.65232C57.0559 1.92267 58.4515 0.518894 60.1766 0.518894C61.8992 0.518894 63.2973 1.92267 63.2973 3.65232C63.2973 5.38196 61.8992 6.78574 60.1766 6.78574ZM47.7713 38.7466L34.6645 25.5863L46.523 13.6793H51.8182L39.9596 25.5863L53.0665 38.7466H47.7713ZM30.9197 38.7466V1.14558H34.6645V25.5863V38.7466H30.9197ZM24.9879 28.5191C24.9879 34.801 20.0023 39.3608 12.0858 39.3608C6.96285 39.3608 2.97588 36.819 0 33.9111L2.64883 30.9732C5.1254 33.3421 8.04136 35.6458 12.0333 35.6458C16.4697 35.6458 21.253 33.1491 21.253 28.662C21.253 24.9395 18.3021 22.5105 12.1082 20.5928C5.04801 18.422 1.46297 15.4841 1.46297 9.95927C1.46297 4.48957 6.07408 0 12.6425 0C17.5482 0 20.6214 2.10065 23.6073 4.78536L21.0059 7.68566C18.3845 5.35439 15.888 3.77514 12.8247 3.77514C9.02499 3.77514 5.28268 6.23425 5.28268 9.77627C5.28268 12.9874 7.11764 15.0304 13.5987 17.0232C19.5354 18.8607 24.9879 21.7058 24.9879 28.5191ZM62.1264 38.7466H58.3816V13.6793H62.1264V38.7466ZM137.647 40C130.062 40 123.916 33.8284 123.916 26.2129C123.916 18.5975 130.062 12.4259 137.647 12.4259C145.231 12.4259 151.378 18.5975 151.378 26.2129C151.378 33.8284 145.231 40 137.647 40ZM137.647 16.186C132.132 16.186 127.661 20.6756 127.661 26.2129C127.661 31.7503 132.132 36.2399 137.647 36.2399C143.162 36.2399 147.633 31.7503 147.633 26.2129C147.633 20.6756 143.162 16.186 137.647 16.186Z" fill="black"/>
<path d="M199.604 2.96675H205.662L216.725 31.4578L227.439 2.96675H233.446V39.5396H229.091V8.7468L217.226 39.5396H215.874L203.609 8.7468V39.5396H199.604V2.96675Z" fill="black"/>
<path d="M253.479 40C251.61 40 249.908 39.676 248.373 39.0281C246.838 38.3802 245.503 37.4766 244.368 36.3171C243.233 35.1236 242.349 33.6914 241.715 32.0205C241.114 30.3495 240.814 28.491 240.814 26.445V26.0358C240.814 24.0239 241.114 22.1824 241.715 20.5115C242.316 18.8065 243.15 17.3572 244.218 16.1637C245.319 14.9361 246.621 13.9983 248.123 13.3504C249.625 12.6684 251.277 12.3274 253.079 12.3274C254.581 12.3274 256.033 12.5831 257.434 13.0946C258.87 13.572 260.138 14.3393 261.239 15.3964C262.341 16.4535 263.208 17.8346 263.842 19.5396C264.51 21.2106 264.844 23.2396 264.844 25.6266V27.0077H245.119C245.219 30.0767 245.97 32.4297 247.372 34.0665C248.774 35.6692 250.826 36.4706 253.53 36.4706C257.635 36.4706 259.954 34.919 260.488 31.8159H264.643C264.176 34.5098 262.941 36.5558 260.939 37.954C258.936 39.318 256.45 40 253.479 40ZM260.588 23.5806C260.388 20.8184 259.62 18.8406 258.285 17.6471C256.984 16.4535 255.248 15.8568 253.079 15.8568C250.943 15.8568 249.191 16.5558 247.822 17.954C246.487 19.318 245.636 21.1935 245.269 23.5806H260.588Z" fill="black"/>
<path d="M281.669 40C279.966 40 278.381 39.7101 276.913 39.1304C275.477 38.5166 274.226 37.6471 273.158 36.5217C272.123 35.3623 271.306 33.9642 270.705 32.3274C270.137 30.6564 269.854 28.7809 269.854 26.7008V26.2916C269.854 24.2455 270.154 22.37 270.755 20.665C271.356 18.9599 272.19 17.4936 273.258 16.266C274.326 15.0043 275.611 14.0324 277.113 13.3504C278.615 12.6684 280.267 12.3274 282.069 12.3274C284.272 12.3274 286.057 12.8048 287.426 13.7596C288.794 14.6803 289.862 15.7886 290.63 17.0844V0H294.785V39.5396H290.63V34.9361C290.263 35.584 289.762 36.2148 289.128 36.8286C288.494 37.4425 287.776 37.9881 286.975 38.4655C286.208 38.9088 285.356 39.2668 284.422 39.5396C283.521 39.8465 282.603 40 281.669 40ZM282.119 36.4706C283.321 36.4706 284.455 36.266 285.523 35.8568C286.591 35.4476 287.509 34.8338 288.277 34.0153C289.044 33.1628 289.645 32.1057 290.079 30.844C290.546 29.5482 290.78 28.0477 290.78 26.3427V25.9335C290.78 22.4893 290.029 19.9488 288.527 18.312C287.059 16.6752 285.039 15.8568 282.47 15.8568C279.866 15.8568 277.83 16.7434 276.362 18.5166C274.893 20.2899 274.159 22.8133 274.159 26.087V26.4962C274.159 28.2012 274.359 29.6846 274.76 30.9463C275.194 32.1739 275.761 33.1969 276.462 34.0153C277.196 34.8338 278.047 35.4476 279.015 35.8568C279.983 36.266 281.018 36.4706 282.119 36.4706Z" fill="black"/>
<path d="M303.88 12.7877H308.035V39.5396H303.88V12.7877ZM305.882 7.21228C305.115 7.21228 304.464 6.93947 303.93 6.39386C303.396 5.84825 303.129 5.18329 303.129 4.39898C303.129 3.61466 303.396 2.9497 303.93 2.40409C304.464 1.85848 305.115 1.58568 305.882 1.58568C306.65 1.58568 307.301 1.85848 307.835 2.40409C308.369 2.9497 308.636 3.61466 308.636 4.39898C308.636 5.18329 308.369 5.84825 307.835 6.39386C307.301 6.93947 306.65 7.21228 305.882 7.21228Z" fill="black"/>
<path d="M323.685 40C322.483 40 321.348 39.8465 320.28 39.5396C319.212 39.2327 318.278 38.7553 317.477 38.1074C316.709 37.4595 316.092 36.6411 315.625 35.6522C315.191 34.6633 314.974 33.4868 314.974 32.1228C314.974 30.5882 315.341 29.2924 316.075 28.2353C316.809 27.1782 317.777 26.3257 318.979 25.6777C320.214 25.0298 321.615 24.5695 323.184 24.2967C324.786 23.9898 326.421 23.8363 328.09 23.8363H331.845V21.8926C331.845 19.7442 331.411 18.2097 330.543 17.289C329.675 16.3342 328.24 15.8568 326.238 15.8568C322.633 15.8568 320.631 17.4595 320.23 20.665H316.075C316.209 19.1304 316.576 17.8346 317.177 16.7775C317.811 15.7204 318.595 14.8679 319.529 14.2199C320.497 13.5379 321.565 13.0605 322.733 12.7877C323.935 12.4808 325.17 12.3274 326.438 12.3274C327.673 12.3274 328.874 12.4808 330.043 12.7877C331.211 13.0605 332.229 13.572 333.096 14.3223C333.964 15.0384 334.665 16.0102 335.199 17.2379C335.733 18.4655 336 20.0171 336 21.8926V39.5396H331.845V36.1637C330.877 37.4254 329.759 38.3802 328.491 39.0281C327.222 39.676 325.62 40 323.685 40ZM324.085 36.624C325.187 36.624 326.204 36.4876 327.139 36.2148C328.107 35.9079 328.925 35.4817 329.592 34.9361C330.293 34.3904 330.844 33.7255 331.244 32.9412C331.645 32.1228 331.845 31.202 331.845 30.179V26.8542H328.24C326.939 26.8542 325.721 26.9565 324.586 27.1611C323.484 27.3316 322.517 27.6215 321.682 28.0307C320.881 28.4399 320.247 28.9855 319.78 29.6675C319.346 30.3154 319.129 31.1338 319.129 32.1228C319.129 33.5209 319.496 34.6292 320.23 35.4476C320.965 36.2319 322.25 36.624 324.085 36.624Z" fill="black"/>
<path d="M108.732 61.7H112.292L116.052 71.46L119.732 61.7H123.252V76H120.592V65.2L116.332 76H115.472L111.132 65.2V76H108.732V61.7ZM130.205 61.7H133.685L138.405 76H135.645L134.505 72.46H129.045L127.925 76H125.425L130.205 61.7ZM129.665 70.52H133.885L131.785 63.88L129.665 70.52ZM140.587 61.7H145.187C145.987 61.7 146.714 61.7933 147.367 61.98C148.021 62.1533 148.574 62.4267 149.027 62.8C149.494 63.16 149.854 63.62 150.107 64.18C150.361 64.7267 150.487 65.3733 150.487 66.12V66.2C150.487 66.96 150.354 67.6133 150.087 68.16C149.834 68.7067 149.474 69.16 149.007 69.52C148.554 69.8667 148.001 70.1267 147.347 70.3C146.707 70.4733 146.007 70.56 145.247 70.56H143.247V76H140.587V61.7ZM145.187 68.64C146.067 68.64 146.734 68.4333 147.187 68.02C147.654 67.6067 147.887 67 147.887 66.2V66.12C147.887 65.2667 147.647 64.66 147.167 64.3C146.701 63.94 146.041 63.76 145.187 63.76H143.247V68.64H145.187ZM152.775 61.7H155.435V68.18L160.915 61.68H163.775L157.855 68.52L164.075 76H160.935L155.435 69.32V76H152.775V61.7ZM165.958 61.7H174.898V63.8H168.618V67.72H173.658V69.72H168.618V73.9H175.238V76H165.958V61.7ZM180.498 63.8H176.518V61.7H187.158V63.8H183.178V76H180.498V63.8ZM189.298 76V61.7H191.978V72.42L198.618 61.7H201.298V76H198.618V65.22L191.978 76H189.298ZM204.552 61.7H207.212V67.78H213.632V61.7H216.312V76H213.632V69.92H207.212V76H204.552V61.7ZM219.572 61.7H228.232V63.84H222.252V76H219.572V61.7Z" fill="black"/>
</svg>
