<svg width="892" height="256" viewBox="0 0 892 256" fill="none" xmlns="http://www.w3.org/2000/svg">
<path d="M579.1 39.3C579.6 40.5 580.1 41.7 580.6 42.9C581.1 41.6 581.6 40.4 582.1 39.2C582.6 38 583.2 36.9 583.8 35.8L599.8 4.3C600.1 3.8 600.4 3.3 600.7 3C601 2.7 601.3 2.5 601.7 2.3C602.1 2.2 602.5 2.1 603 2C603.5 2 604 2 604.6 2H615.7V64.4H602.9V28.5C602.9 26.8 603 24.9 603.2 22.8L586.7 54.9C586.2 55.9 585.5 56.7 584.6 57.2C583.7 57.7 582.7 58 581.6 58H579.6C578.5 58 577.5 57.7 576.6 57.2C575.7 56.7 575 55.9 574.5 54.9L557.9 22.8C558 23.8 558.1 24.8 558.2 25.8C558.3 26.8 558.3 27.7 558.3 28.5V64.4H545.5V2H556.6C557.2 2 557.8 2 558.2 2C558.7 2 559.1 2.1 559.5 2.3C559.9 2.4 560.2 2.7 560.5 3C560.8 3.3 561.1 3.7 561.4 4.3L577.5 36C578 37 578.6 38.1 579.1 39.3Z" fill="#263238"/>
<path d="M645.8 19.2998C648.7 19.2998 651.4 19.7998 653.9 20.6998C656.3 21.5998 658.4 22.8998 660.2 24.6998C662 26.3998 663.3 28.5998 664.3 31.0998C665.3 33.5998 665.8 36.4998 665.8 39.6998C665.8 40.6998 665.8 41.4998 665.7 42.0998C665.6 42.6998 665.5 43.1998 665.2 43.5998C665 43.9998 664.7 44.1998 664.3 44.3998C663.9 44.4998 663.4 44.5998 662.8 44.5998H637.2C637.6 48.2998 638.8 50.9998 640.6 52.6998C642.4 54.3998 644.8 55.1998 647.7 55.1998C649.2 55.1998 650.6 54.9998 651.7 54.5998C652.8 54.1998 653.8 53.7998 654.7 53.3998C655.6 52.8998 656.4 52.4998 657.1 52.1998C657.8 51.7998 658.6 51.5998 659.4 51.5998C660.5 51.5998 661.3 51.9998 661.8 52.7998L665.7 57.5998C664.3 59.1998 662.9 60.3998 661.3 61.3998C659.7 62.3998 658.1 63.1998 656.4 63.6998C654.7 64.2998 653.1 64.5998 651.4 64.8998C649.7 65.1998 648.1 65.1998 646.6 65.1998C643.5 65.1998 640.6 64.6998 637.8 63.6998C635.1 62.6998 632.7 61.1998 630.6 59.1998C628.6 57.1998 626.9 54.6998 625.8 51.6998C624.6 48.6998 624 45.2998 624 41.2998C624 38.2998 624.5 35.4998 625.5 32.8998C626.5 30.1998 628 27.8998 629.9 25.8998C631.8 23.8998 634.1 22.2998 636.8 21.0998C639.4 19.8998 642.4 19.2998 645.8 19.2998ZM646.1 28.4998C643.6 28.4998 641.6 29.1998 640.1 30.6998C638.7 32.0998 637.7 34.1998 637.3 36.8998H653.9C653.9 35.7998 653.8 34.7998 653.5 33.7998C653.2 32.7998 652.8 31.8998 652.2 31.0998C651.6 30.2998 650.8 29.6998 649.8 29.1998C648.7 28.6998 647.5 28.4998 646.1 28.4998Z" fill="#263238"/>
<path d="M704.4 64.3998C702.7 64.3998 701.7 63.6998 701.1 62.1998L700.1 58.7998C699.2 59.6998 698.3 60.5998 697.3 61.3998C696.3 62.1998 695.3 62.7998 694.2 63.3998C693.1 63.9998 691.9 64.3998 690.6 64.6998C689.3 64.9998 687.9 65.0998 686.4 65.0998C684.1 65.0998 681.9 64.5998 680 63.5998C678 62.5998 676.3 61.0998 674.9 59.0998C673.5 57.1998 672.4 54.7998 671.5 51.9998C670.7 49.1998 670.3 45.9998 670.3 42.3998C670.3 39.0998 670.8 35.9998 671.7 33.1998C672.6 30.3998 673.9 27.8998 675.6 25.7998C677.3 23.6998 679.3 22.0998 681.6 20.8998C683.9 19.6998 686.5 19.0998 689.4 19.0998C691.7 19.0998 693.6 19.3998 695.2 20.0998C696.8 20.7998 698.2 21.5998 699.5 22.6998V0.299805H712.8V64.3998H704.4ZM691 54.8998C692 54.8998 692.8 54.7998 693.6 54.5998C694.4 54.3998 695.1 54.1998 695.8 53.7998C696.5 53.3998 697.1 52.9998 697.7 52.4998C698.3 51.9998 698.9 51.3998 699.4 50.6998V31.8998C698.4 30.7998 697.3 29.9998 696.1 29.5998C694.9 29.1998 693.7 28.8998 692.4 28.8998C691.2 28.8998 690 29.0998 689 29.5998C688 30.0998 687.1 30.8998 686.3 31.8998C685.5 32.8998 685 34.3998 684.5 36.0998C684.1 37.7998 683.9 39.8998 683.9 42.2998C683.9 44.5998 684.1 46.5998 684.4 48.1998C684.7 49.7998 685.2 51.0998 685.8 52.0998C686.4 53.0998 687.1 53.7998 688 54.1998C689 54.6998 689.9 54.8998 691 54.8998Z" fill="#263238"/>
<path d="M736.6 7.8C736.6 8.9 736.4 9.8 736 10.8C735.6 11.7 735 12.5 734.2 13.2C733.5 13.9 732.6 14.5 731.6 14.9C730.6 15.3 729.6 15.5 728.5 15.5C727.4 15.5 726.4 15.3 725.5 14.9C724.6 14.5 723.7 13.9 723 13.2C722.3 12.5 721.7 11.7 721.3 10.8C720.9 9.9 720.7 8.9 720.7 7.8C720.7 6.7 720.9 5.7 721.3 4.8C721.7 3.9 722.3 3 723 2.3C723.7 1.6 724.6 1 725.5 0.6C726.4 0.2 727.5 0 728.5 0C729.6 0 730.7 0.2 731.6 0.6C732.6 1 733.4 1.6 734.2 2.3C734.9 3 735.5 3.8 736 4.8C736.4 5.7 736.6 6.7 736.6 7.8ZM735.3 20V64.4H722V20H735.3Z" fill="#263238"/>
<path d="M774.3 64.4C773 64.4 772.1 64.2 771.5 63.9C770.9 63.6 770.3 62.8 769.9 61.8L769 59.4C767.9 60.3 766.8 61.2 765.8 61.9C764.8 62.6 763.7 63.2 762.6 63.7C761.5 64.2 760.3 64.6 759.1 64.8C757.9 65 756.5 65.2 755 65.2C753 65.2 751.1 64.9 749.5 64.4C747.8 63.9 746.4 63.1 745.3 62.1C744.1 61.1 743.2 59.8 742.6 58.3C742 56.8 741.7 55 741.7 53C741.7 51.4 742.1 49.8 742.9 48.2C743.7 46.5 745.1 45 747.1 43.7C749.1 42.3 751.7 41.2 755.1 40.3C758.4 39.4 762.7 38.9 767.7 38.8V36.9C767.7 34.3 767.2 32.4 766.1 31.3C765 30.1 763.5 29.6 761.5 29.6C759.9 29.6 758.6 29.8 757.6 30.1C756.6 30.4 755.7 30.8 754.9 31.3C754.1 31.7 753.4 32.1 752.6 32.5C751.9 32.8 751 33 749.9 33C749 33 748.2 32.8 747.6 32.3C747 31.8 746.5 31.3 746.1 30.7L743.7 26.5C746.4 24.1 749.4 22.4 752.6 21.2C755.9 20 759.4 19.5 763.1 19.5C765.8 19.5 768.2 19.9 770.4 20.8C772.6 21.7 774.4 22.9 775.9 24.4C777.4 26 778.5 27.8 779.3 29.9C780.1 32 780.5 34.4 780.5 36.9V64.7H774.3V64.4ZM759.1 56.3C760.8 56.3 762.3 56 763.6 55.4C764.9 54.8 766.2 53.8 767.5 52.5V46.3C764.8 46.4 762.7 46.6 760.9 47C759.1 47.4 757.8 47.8 756.8 48.3C755.8 48.8 755.1 49.4 754.7 50.1C754.3 50.8 754.1 51.5 754.1 52.2C754.1 53.7 754.5 54.8 755.3 55.4C756.3 56 757.5 56.3 759.1 56.3Z" fill="#263238"/>
<path d="M269.7 164.2H238.1V240.7H205V35.7002H289.7C334.2 35.7002 359.4 62.1002 359.4 100.7C359.4 134.4 340.4 156.4 307.8 162.5L369 240.7H328.3L269.7 164.2ZM238.1 134.9H286.1C313.3 134.9 325.9 120.8 325.9 100.9C325.9 81.0002 313 67.2002 286.1 67.2002H238.1V134.9Z" fill="#58C233"/>
<path d="M188.8 208.3V19.4002H211.9V3.2002H156.7L97.8 91.7002L39 3.2002H0V208.3H33.1V48.0002L96.1 143.5H99.3L162.6 48.0002V208.3H188.8Z" fill="#58C233"/>
<path d="M492.7 51.1004V19.4004H358.9V55.4004C369.7 66.7004 375.6 82.2004 375.6 100.7C375.6 119.3 369.6 134.2 358.9 145V207L372.6 224.5H392V137.2H485.5V105.6H392V51.1004H492.7Z" fill="#58C233"/>
<path d="M561.7 130V153.1H547.2V90.7002H567.5C572 90.7002 575.9 91.2002 579 92.1002C582.2 93.0002 584.8 94.3002 586.8 96.0002C588.8 97.7002 590.3 99.6002 591.2 101.9C592.1 104.2 592.6 106.6 592.6 109.3C592.6 111.3 592.3 113.2 591.8 115C591.3 116.8 590.5 118.5 589.4 120C588.3 121.5 587 122.9 585.5 124.1C583.9 125.3 582.2 126.3 580.1 127.1C581.1 127.6 582 128.2 582.8 128.9C583.6 129.6 584.4 130.5 585 131.5L598.3 153.2H585.2C582.8 153.2 581 152.3 580 150.5L569.6 132.4C569.1 131.6 568.6 131.1 568 130.7C567.4 130.3 566.5 130.2 565.4 130.2H561.7V130ZM561.7 120H567.5C569.5 120 571.1 119.8 572.5 119.2C573.9 118.7 575 118 575.9 117.1C576.8 116.2 577.4 115.2 577.8 114C578.2 112.8 578.4 111.5 578.4 110.2C578.4 107.5 577.5 105.3 575.7 103.8C573.9 102.3 571.2 101.5 567.4 101.5H561.6V120H561.7Z" fill="#263238"/>
<path d="M621.6 108C624.5 108 627.2 108.5 629.7 109.4C632.1 110.3 634.2 111.6 636 113.4C637.8 115.1 639.1 117.3 640.1 119.8C641.1 122.3 641.6 125.2 641.6 128.4C641.6 129.4 641.6 130.2 641.5 130.8C641.4 131.4 641.3 131.9 641 132.3C640.7 132.7 640.5 132.9 640.1 133.1C639.7 133.3 639.2 133.3 638.6 133.3H613C613.4 137 614.6 139.7 616.4 141.4C618.2 143.1 620.6 143.9 623.5 143.9C625 143.9 626.4 143.7 627.5 143.3C628.6 142.9 629.6 142.5 630.5 142.1C631.4 141.6 632.2 141.2 632.9 140.9C633.6 140.5 634.4 140.3 635.2 140.3C636.3 140.3 637.1 140.7 637.6 141.5L641.5 146.3C640.1 147.9 638.7 149.1 637.1 150.1C635.5 151.1 633.9 151.9 632.2 152.4C630.5 153 628.9 153.3 627.2 153.6C625.5 153.9 623.9 153.9 622.4 153.9C619.3 153.9 616.4 153.4 613.6 152.4C610.9 151.4 608.5 149.9 606.4 147.9C604.4 145.9 602.7 143.4 601.6 140.4C600.4 137.4 599.8 134 599.8 130C599.8 127 600.3 124.2 601.3 121.6C602.3 118.9 603.8 116.6 605.7 114.6C607.6 112.6 609.9 111 612.6 109.8C615.1 108.6 618.2 108 621.6 108ZM621.8 117.2C619.3 117.2 617.3 117.9 615.8 119.4C614.4 120.8 613.4 122.9 613 125.6H629.6C629.6 124.5 629.5 123.5 629.2 122.5C628.9 121.5 628.5 120.6 627.9 119.8C627.3 119 626.5 118.4 625.5 117.9C624.5 117.4 623.2 117.2 621.8 117.2Z" fill="#263238"/>
<path d="M676.4 118.4C676.1 118.9 675.7 119.3 675.3 119.6C674.9 119.8 674.4 119.9 673.8 119.9C673.2 119.9 672.5 119.8 671.9 119.5C671.3 119.2 670.6 118.9 669.9 118.6C669.2 118.3 668.4 118 667.4 117.7C666.5 117.4 665.4 117.3 664.3 117.3C662.6 117.3 661.3 117.6 660.4 118.3C659.5 118.9 659 119.8 659 121C659 121.8 659.3 122.5 659.9 123.1C660.5 123.6 661.3 124.1 662.2 124.5C663.2 124.9 664.3 125.3 665.5 125.7C666.7 126.1 668 126.5 669.3 126.9C670.6 127.4 671.8 127.9 673.1 128.5C674.3 129.1 675.4 129.9 676.4 130.8C677.4 131.7 678.2 132.8 678.7 134.1C679.3 135.4 679.6 136.9 679.6 138.7C679.6 140.9 679.2 142.9 678.4 144.8C677.6 146.7 676.4 148.3 674.8 149.6C673.2 150.9 671.3 152 668.9 152.7C666.6 153.4 663.9 153.8 660.9 153.8C659.4 153.8 657.9 153.7 656.4 153.4C654.9 153.1 653.4 152.7 652 152.2C650.6 151.7 649.3 151.1 648.1 150.5C646.9 149.8 645.9 149.1 645 148.3L648.1 143.4C648.4 142.8 648.9 142.4 649.4 142.1C649.9 141.8 650.6 141.6 651.4 141.6C652.2 141.6 652.9 141.8 653.5 142.1C654.1 142.4 654.8 142.8 655.5 143.2C656.2 143.6 657 144 658 144.3C659 144.6 660.2 144.8 661.6 144.8C662.6 144.8 663.5 144.7 664.2 144.5C664.9 144.3 665.5 144 665.9 143.6C666.3 143.2 666.6 142.8 666.8 142.4C667 141.9 667.1 141.5 667.1 141C667.1 140.1 666.8 139.4 666.2 138.8C665.6 138.2 664.8 137.7 663.8 137.3C662.8 136.9 661.7 136.5 660.5 136.1C659.3 135.7 658 135.3 656.7 134.9C655.4 134.4 654.2 133.9 652.9 133.3C651.7 132.7 650.6 131.8 649.6 130.9C648.6 129.9 647.8 128.7 647.2 127.3C646.6 125.9 646.3 124.1 646.3 122.1C646.3 120.2 646.7 118.4 647.4 116.7C648.1 115 649.2 113.5 650.7 112.2C652.2 110.9 654 109.9 656.2 109.1C658.4 108.3 661 108 663.9 108C665.5 108 667.1 108.1 668.5 108.4C670 108.7 671.4 109.1 672.7 109.6C674 110.1 675.2 110.7 676.3 111.4C677.4 112.1 678.3 112.9 679.2 113.7L676.4 118.4Z" fill="#263238"/>
<path d="M705.9 108C708.8 108 711.5 108.5 714 109.4C716.4 110.3 718.5 111.6 720.3 113.4C722.1 115.1 723.4 117.3 724.4 119.8C725.4 122.3 725.9 125.2 725.9 128.4C725.9 129.4 725.9 130.2 725.8 130.8C725.7 131.4 725.6 131.9 725.3 132.3C725 132.7 724.8 132.9 724.4 133.1C724 133.3 723.5 133.3 722.9 133.3H697.3C697.7 137 698.9 139.7 700.7 141.4C702.5 143.1 704.9 143.9 707.8 143.9C709.3 143.9 710.7 143.7 711.8 143.3C712.9 142.9 713.9 142.5 714.8 142.1C715.7 141.6 716.5 141.2 717.2 140.9C717.9 140.5 718.7 140.3 719.5 140.3C720.6 140.3 721.4 140.7 721.9 141.5L725.8 146.3C724.4 147.9 723 149.1 721.4 150.1C719.8 151.1 718.2 151.9 716.5 152.4C714.8 153 713.2 153.3 711.5 153.6C709.8 153.9 708.2 153.9 706.7 153.9C703.6 153.9 700.7 153.4 697.9 152.4C695.2 151.4 692.8 149.9 690.7 147.9C688.7 145.9 687 143.4 685.9 140.4C684.7 137.4 684.1 134 684.1 130C684.1 127 684.6 124.2 685.6 121.6C686.6 118.9 688.1 116.6 690 114.6C691.9 112.6 694.2 111 696.9 109.8C699.5 108.6 702.5 108 705.9 108ZM706.2 117.2C703.7 117.2 701.7 117.9 700.2 119.4C698.8 120.8 697.8 122.9 697.4 125.6H714C714 124.5 713.9 123.5 713.6 122.5C713.3 121.5 712.9 120.6 712.3 119.8C711.7 119 710.9 118.4 709.9 117.9C708.8 117.4 707.6 117.2 706.2 117.2Z" fill="#263238"/>
<path d="M762.3 153.1C761 153.1 760.1 152.9 759.5 152.6C758.9 152.3 758.3 151.5 757.9 150.5L757 148.1C755.9 149 754.8 149.9 753.8 150.6C752.8 151.3 751.7 151.9 750.6 152.4C749.5 152.9 748.3 153.3 747.1 153.5C745.9 153.7 744.5 153.9 743 153.9C741 153.9 739.1 153.6 737.5 153.1C735.8 152.6 734.4 151.8 733.3 150.8C732.1 149.8 731.2 148.5 730.6 147C730 145.5 729.7 143.7 729.7 141.7C729.7 140.1 730.1 138.5 730.9 136.9C731.7 135.2 733.1 133.7 735.1 132.4C737.1 131 739.7 129.9 743.1 129C746.4 128.1 750.7 127.6 755.7 127.5V125.6C755.7 123 755.2 121.1 754.1 120C753 118.8 751.5 118.3 749.5 118.3C747.9 118.3 746.6 118.5 745.6 118.8C744.6 119.1 743.7 119.5 742.9 120C742.1 120.4 741.4 120.8 740.6 121.2C739.9 121.5 739 121.7 737.9 121.7C737 121.7 736.2 121.5 735.6 121C735 120.5 734.5 120 734.1 119.4L731.7 115.2C734.4 112.8 737.4 111.1 740.6 109.9C743.9 108.7 747.4 108.2 751.1 108.2C753.8 108.2 756.2 108.6 758.4 109.5C760.6 110.4 762.4 111.6 763.9 113.1C765.4 114.7 766.5 116.5 767.3 118.6C768.1 120.7 768.5 123.1 768.5 125.6V153.4H762.3V153.1ZM747.1 145C748.8 145 750.3 144.7 751.6 144.1C752.9 143.5 754.2 142.5 755.5 141.2V135C752.8 135.1 750.7 135.3 748.9 135.7C747.1 136.1 745.8 136.5 744.8 137C743.8 137.5 743.1 138.1 742.7 138.8C742.3 139.5 742.1 140.2 742.1 140.9C742.1 142.4 742.5 143.5 743.3 144.1C744.3 144.7 745.5 145 747.1 145Z" fill="#263238"/>
<path d="M776.9 153.1V108.7H784.8C785.5 108.7 786 108.8 786.4 108.9C786.8 109 787.2 109.2 787.5 109.4C787.8 109.6 788 110 788.2 110.4C788.4 110.8 788.5 111.3 788.6 111.9L789.2 115.7C790.6 113.3 792.2 111.4 794 110C795.8 108.6 797.8 107.9 800.1 107.9C802.1 107.9 803.7 108.4 805 109.3L804.1 119.1C804 119.7 803.7 120.2 803.4 120.4C803.1 120.6 802.6 120.7 802.1 120.7C801.9 120.7 801.6 120.7 801.2 120.7C800.8 120.7 800.4 120.6 800 120.6C799.6 120.6 799.2 120.5 798.8 120.5C798.4 120.5 798 120.4 797.7 120.4C795.8 120.4 794.2 120.9 793.1 122C791.9 123 791 124.5 790.2 126.3V153.3H776.9V153.1Z" fill="#263238"/>
<path d="M842.2 119.2C841.8 119.7 841.4 120.1 841 120.4C840.6 120.7 840.1 120.8 839.4 120.8C838.7 120.8 838.2 120.6 837.6 120.3C837.1 120 836.5 119.6 835.8 119.3C835.1 119 834.4 118.6 833.5 118.3C832.6 118 831.5 117.8 830.2 117.8C828.6 117.8 827.2 118.1 826 118.7C824.8 119.3 823.8 120.2 823.1 121.3C822.4 122.4 821.8 123.8 821.4 125.4C821 127 820.8 128.8 820.8 130.9C820.8 135.2 821.6 138.4 823.3 140.7C824.9 143 827.2 144.1 830.1 144.1C831.6 144.1 832.9 143.9 833.8 143.5C834.7 143.1 835.5 142.7 836.1 142.2C836.7 141.7 837.3 141.3 837.8 140.9C838.3 140.5 839 140.3 839.8 140.3C840.9 140.3 841.7 140.7 842.2 141.5L846.1 146.3C844.7 147.9 843.3 149.1 841.8 150.1C840.3 151.1 838.7 151.9 837.2 152.4C835.6 153 834 153.3 832.4 153.6C830.8 153.8 829.2 153.9 827.7 153.9C825 153.9 822.4 153.4 819.9 152.4C817.4 151.4 815.3 149.9 813.4 147.9C811.5 145.9 810 143.5 808.9 140.7C807.8 137.8 807.3 134.6 807.3 130.9C807.3 127.7 807.8 124.7 808.7 121.9C809.7 119.1 811.1 116.7 812.9 114.7C814.8 112.7 817.1 111.1 819.8 109.9C822.6 108.7 825.7 108.1 829.4 108.1C832.9 108.1 835.9 108.7 838.6 109.8C841.2 110.9 843.6 112.5 845.7 114.7L842.2 119.2Z" fill="#263238"/>
<path d="M851.3 153.1V89H864.6V112.6C866.2 111.2 867.9 110.1 869.8 109.3C871.7 108.5 873.9 108 876.5 108C878.9 108 881.1 108.4 882.9 109.3C884.8 110.1 886.3 111.3 887.6 112.8C888.9 114.3 889.9 116.1 890.5 118.2C891.1 120.3 891.5 122.5 891.5 124.9V153.1H878.2V124.9C878.2 122.7 877.7 121 876.7 119.8C875.7 118.6 874.2 118 872.3 118C870.8 118 869.5 118.3 868.2 118.9C866.9 119.5 865.7 120.4 864.5 121.4V153.1H851.3Z" fill="#263238"/>
<path d="M585.7 179.4V190.5H560.1V206.3H581.4V217.5H560.1V241.8H545.5V179.4H585.7Z" fill="#263238"/>
<path d="M622.3 241.9C621 241.9 620.1 241.7 619.5 241.4C618.9 241.1 618.3 240.3 617.9 239.3L617 236.9C615.9 237.8 614.8 238.7 613.8 239.4C612.8 240.1 611.7 240.7 610.6 241.2C609.5 241.7 608.3 242.1 607.1 242.3C605.9 242.5 604.5 242.7 603 242.7C601 242.7 599.1 242.4 597.5 241.9C595.8 241.4 594.4 240.6 593.3 239.6C592.1 238.6 591.2 237.3 590.6 235.8C590 234.3 589.7 232.5 589.7 230.5C589.7 228.9 590.1 227.3 590.9 225.7C591.7 224 593.1 222.5 595.1 221.2C597.1 219.8 599.7 218.7 603.1 217.8C606.4 216.9 610.7 216.4 615.7 216.3V214.4C615.7 211.8 615.2 209.9 614.1 208.8C613 207.6 611.5 207.1 609.5 207.1C607.9 207.1 606.6 207.3 605.6 207.6C604.6 207.9 603.7 208.3 602.9 208.8C602.1 209.2 601.4 209.6 600.6 210C599.9 210.3 599 210.5 597.9 210.5C597 210.5 596.2 210.3 595.6 209.8C595 209.3 594.5 208.8 594.1 208.2L591.7 204C594.4 201.6 597.4 199.9 600.6 198.7C603.9 197.5 607.4 197 611.1 197C613.8 197 616.2 197.4 618.4 198.3C620.6 199.2 622.4 200.4 623.9 201.9C625.4 203.5 626.5 205.3 627.3 207.4C628.1 209.5 628.5 211.9 628.5 214.4V242.2H622.3V241.9ZM607 233.8C608.7 233.8 610.2 233.5 611.5 232.9C612.8 232.3 614.1 231.3 615.4 230V223.8C612.7 223.9 610.6 224.1 608.8 224.5C607 224.9 605.7 225.3 604.7 225.8C603.7 226.3 603 226.9 602.6 227.6C602.2 228.3 602 229 602 229.7C602 231.2 602.4 232.3 603.2 232.9C604.2 233.4 605.4 233.8 607 233.8Z" fill="#263238"/>
<path d="M636.9 241.901V197.501H645.1C646.8 197.501 647.8 198.201 648.4 199.701L649.1 202.101C649.8 201.301 650.6 200.601 651.4 200.001C652.2 199.401 653.1 198.801 654 198.301C654.9 197.801 655.9 197.501 657 197.201C658.1 196.901 659.2 196.801 660.5 196.801C663.2 196.801 665.4 197.501 667.2 198.901C669 200.301 670.3 202.101 671.2 204.401C671.9 203.001 672.9 201.901 673.9 200.901C675 199.901 676.1 199.101 677.4 198.501C678.6 197.901 680 197.501 681.3 197.201C682.7 196.901 684.1 196.801 685.4 196.801C687.9 196.801 690.2 197.201 692.2 197.901C694.2 198.701 695.8 199.801 697.1 201.201C698.4 202.601 699.4 204.401 700.1 206.501C700.8 208.601 701.1 211.001 701.1 213.601V241.801H687.8V213.601C687.8 209.001 685.8 206.701 681.9 206.701C680.1 206.701 678.6 207.301 677.4 208.501C676.2 209.701 675.6 211.401 675.6 213.601V241.801H662.3V213.601C662.3 211.101 661.8 209.301 660.8 208.201C659.8 207.101 658.3 206.701 656.4 206.701C655.2 206.701 654.1 207.001 653 207.501C651.9 208.001 650.9 208.801 650 209.701V241.801H636.9V241.901Z" fill="#263238"/>
<path d="M724.8 185.2C724.8 186.3 724.6 187.2 724.2 188.2C723.8 189.1 723.2 189.9 722.4 190.6C721.7 191.3 720.8 191.9 719.8 192.3C718.8 192.7 717.8 192.9 716.7 192.9C715.6 192.9 714.6 192.7 713.7 192.3C712.8 191.9 711.9 191.3 711.2 190.6C710.5 189.9 709.9 189.1 709.5 188.2C709.1 187.3 708.9 186.3 708.9 185.2C708.9 184.1 709.1 183.1 709.5 182.2C709.9 181.3 710.5 180.4 711.2 179.7C711.9 179 712.8 178.4 713.7 178C714.6 177.6 715.7 177.4 716.7 177.4C717.8 177.4 718.9 177.6 719.8 178C720.8 178.4 721.6 179 722.4 179.7C723.1 180.4 723.7 181.2 724.2 182.2C724.5 183.1 724.8 184.2 724.8 185.2ZM723.4 197.4V241.8H710.1V197.4H723.4Z" fill="#263238"/>
<path d="M746 177.7V241.8H732.7V177.7H746Z" fill="#263238"/>
<path d="M773.4 253.4C773 254.3 772.5 254.9 771.9 255.4C771.3 255.9 770.4 256 769.2 256H759.3L767.9 238L750.2 197.5H761.9C762.9 197.5 763.7 197.7 764.3 198.2C764.9 198.7 765.3 199.2 765.5 199.8L772.8 219C773.5 220.8 774 222.5 774.5 224.3C774.8 223.4 775.1 222.5 775.4 221.6C775.7 220.7 776.1 219.8 776.4 218.9L783 199.8C783.3 199.1 783.7 198.6 784.4 198.2C785.1 197.8 785.8 197.5 786.5 197.5H797.2L773.4 253.4Z" fill="#263238"/>
</svg>
