<svg width="117" height="32" viewBox="0 0 117 32" fill="none" xmlns="http://www.w3.org/2000/svg">
<path fill-rule="evenodd" clip-rule="evenodd" d="M32.0001 6.40001C32.0001 2.86538 29.1347 0 25.6001 0H6.40001C2.86538 0 0 2.86538 0 6.40001V25.6C0 29.1346 2.86538 32 6.40001 32H23.8272C26.19 32 27.3733 29.1433 25.7025 27.4726C24.7604 26.5304 23.2765 26.4746 22.0569 27.0109C20.8699 27.5329 19.5577 27.8227 18.1779 27.8227C12.8513 27.8227 8.53319 23.5046 8.53319 18.178C8.53319 12.8514 12.8513 8.53333 18.1779 8.53333C23.5045 8.53333 27.8226 12.8514 27.8226 18.178C27.8226 19.5578 27.5329 20.8699 27.0109 22.0569C26.4745 23.2766 26.5304 24.7604 27.4726 25.7026C29.1434 27.3734 32.0001 26.1901 32.0001 23.8273V6.40001ZM25.226 18.178C25.226 22.0705 22.0704 25.2261 18.1779 25.2261C14.2854 25.2261 11.1298 22.0705 11.1298 18.178C11.1298 14.2855 14.2854 11.13 18.1779 11.13C22.0704 11.13 25.226 14.2855 25.226 18.178Z" fill="#D8093B"/>
<path d="M106.544 25.28C106.186 25.28 105.895 25.1947 105.674 25.024C105.452 24.8533 105.341 24.6485 105.341 24.4096V7.46241C105.341 7.17227 105.469 6.9504 105.725 6.7968C105.981 6.64321 106.254 6.56641 106.544 6.56641H111.203C112.125 6.56641 112.978 6.68587 113.763 6.92481C114.548 7.16374 115.18 7.60747 115.658 8.25601C116.136 8.88747 116.374 9.80054 116.374 10.9952C116.374 12.0704 116.178 12.9579 115.786 13.6576C115.41 14.3573 114.881 14.8523 114.198 15.1424C114.728 15.3472 115.188 15.6203 115.581 15.9616C115.973 16.2859 116.281 16.7296 116.502 17.2928C116.724 17.8389 116.835 18.5472 116.835 19.4176V19.904C116.835 21.2181 116.613 22.2677 116.17 23.0528C115.726 23.8379 115.12 24.4096 114.352 24.768C113.584 25.1093 112.714 25.28 111.741 25.28H106.544ZM108.029 22.8736H111.229C112.15 22.8736 112.859 22.6261 113.354 22.1312C113.866 21.6192 114.122 20.8085 114.122 19.6992V19.2896C114.122 18.1632 113.866 17.3696 113.354 16.9088C112.859 16.448 112.15 16.2176 111.229 16.2176H108.029V22.8736ZM108.029 14.0672H111.101C111.971 14.0672 112.611 13.8453 113.021 13.4016C113.448 12.9579 113.661 12.3008 113.661 11.4304C113.661 10.8501 113.55 10.3808 113.328 10.0224C113.123 9.66401 112.825 9.39947 112.432 9.22881C112.04 9.05814 111.579 8.97281 111.05 8.97281H108.029V14.0672Z" fill="#D8093B"/>
<path d="M97.9327 25.4336C96.8404 25.4336 95.8591 25.2459 94.9887 24.8704C94.1353 24.4949 93.4526 23.8891 92.9406 23.0528C92.4457 22.2165 92.1982 21.1072 92.1982 19.7248V12.2752C92.1982 10.8928 92.4457 9.78347 92.9406 8.94721C93.4526 8.11094 94.1353 7.50507 94.9887 7.1296C95.8591 6.75414 96.8404 6.56641 97.9327 6.56641C99.0079 6.56641 99.9807 6.75414 100.851 7.1296C101.721 7.50507 102.413 8.11094 102.925 8.94721C103.437 9.78347 103.693 10.8928 103.693 12.2752V19.7248C103.693 21.1072 103.437 22.2165 102.925 23.0528C102.413 23.8891 101.721 24.4949 100.851 24.8704C99.9807 25.2459 99.0079 25.4336 97.9327 25.4336ZM97.9327 23.0272C98.8713 23.0272 99.6137 22.7627 100.16 22.2336C100.706 21.6875 100.979 20.8512 100.979 19.7248V12.2752C100.979 11.1488 100.706 10.3211 100.16 9.79201C99.6308 9.24587 98.8884 8.97281 97.9327 8.97281C96.9769 8.97281 96.226 9.24587 95.6799 9.79201C95.1508 10.3211 94.8863 11.1488 94.8863 12.2752V19.7248C94.8863 20.8512 95.1508 21.6875 95.6799 22.2336C96.226 22.7627 96.9769 23.0272 97.9327 23.0272Z" fill="#D8093B"/>
<path d="M84.9433 25.4336C83.8169 25.4336 82.8099 25.2373 81.9225 24.8448C81.035 24.4352 80.3438 23.8635 79.8489 23.1296C79.3539 22.3957 79.1064 21.5339 79.1064 20.544C79.1064 20.032 79.2174 19.6907 79.4392 19.52C79.6782 19.3323 80.0195 19.2384 80.4633 19.2384C80.8217 19.2384 81.1289 19.3067 81.3849 19.4432C81.6579 19.5627 81.803 19.7931 81.8201 20.1344C81.8371 20.6293 81.9481 21.0987 82.1529 21.5424C82.3577 21.9861 82.6819 22.3445 83.1257 22.6176C83.5694 22.8907 84.1411 23.0272 84.8409 23.0272C85.8137 23.0272 86.5646 22.7627 87.0937 22.2336C87.6398 21.6875 87.9129 20.8512 87.9129 19.7248V8.97281H84.9177C84.6275 8.97281 84.4057 8.85334 84.2521 8.61441C84.0985 8.35841 84.0217 8.06827 84.0217 7.744C84.0217 7.47094 84.0899 7.20641 84.2265 6.95041C84.363 6.69441 84.5934 6.56641 84.9177 6.56641H89.3977C89.722 6.56641 90.0036 6.64321 90.2425 6.7968C90.4985 6.9504 90.6265 7.17227 90.6265 7.46241V19.7248C90.6265 21.1072 90.3705 22.2165 89.8585 23.0528C89.3465 23.8891 88.6638 24.4949 87.8105 24.8704C86.9571 25.2459 86.0014 25.4336 84.9433 25.4336Z" fill="#D8093B"/>
<path d="M69.8526 25.28C69.5625 25.28 69.2894 25.2032 69.0334 25.0496C68.7774 24.896 68.6494 24.6741 68.6494 24.384V7.46241C68.6494 7.17227 68.7774 6.9504 69.0334 6.7968C69.2894 6.64321 69.5625 6.56641 69.8526 6.56641H78.9663C79.2905 6.56641 79.5209 6.69441 79.6575 6.95041C79.794 7.20641 79.8623 7.47094 79.8623 7.744C79.8623 8.06827 79.7855 8.35841 79.6319 8.61441C79.4783 8.85334 79.2564 8.97281 78.9663 8.97281H71.363V14.8352H75.3054C75.5956 14.8352 75.8174 14.9461 75.971 15.168C76.1246 15.3899 76.2014 15.6459 76.2014 15.936C76.2014 16.1749 76.1332 16.4139 75.9966 16.6528C75.8601 16.8747 75.6297 16.9856 75.3054 16.9856H71.363V22.8736H78.9663C79.2564 22.8736 79.4783 22.9931 79.6319 23.232C79.7855 23.4709 79.8623 23.7611 79.8623 24.1024C79.8623 24.3755 79.794 24.64 79.6575 24.896C79.5209 25.152 79.2905 25.28 78.9663 25.28H69.8526Z" fill="#222222"/>
<path d="M56.713 25.28C56.3546 25.28 56.0644 25.1947 55.8426 25.024C55.6207 24.8533 55.5098 24.6485 55.5098 24.4096V7.43681C55.5098 7.19787 55.6207 6.99307 55.8426 6.82241C56.0644 6.65174 56.3546 6.56641 56.713 6.56641H61.2442C62.3194 6.56641 63.2922 6.75414 64.1626 7.12961C65.0501 7.50507 65.7413 8.11094 66.2362 8.94721C66.7482 9.78347 67.0042 10.8928 67.0042 12.2752V19.5712C67.0042 20.9536 66.7482 22.0629 66.2362 22.8992C65.7413 23.7355 65.0501 24.3413 64.1626 24.7168C63.2922 25.0923 62.3194 25.28 61.2442 25.28H56.713ZM58.2234 22.8736H61.2442C62.1999 22.8736 62.9423 22.6091 63.4714 22.08C64.0175 21.5339 64.2906 20.6976 64.2906 19.5712V12.2752C64.2906 11.1488 64.0175 10.3211 63.4714 9.79201C62.9423 9.24587 62.1999 8.97281 61.2442 8.97281H58.2234V22.8736Z" fill="#222222"/>
<path d="M48.4014 25.4336C47.3091 25.4336 46.3278 25.2459 45.4574 24.8704C44.6041 24.4949 43.9214 23.8891 43.4094 23.0528C42.9145 22.2165 42.667 21.1072 42.667 19.7248V12.2752C42.667 10.8928 42.9145 9.78347 43.4094 8.94721C43.9214 8.11094 44.6041 7.50507 45.4574 7.1296C46.3278 6.75414 47.2835 6.56641 48.3246 6.56641C49.4852 6.56641 50.5006 6.76267 51.371 7.15521C52.2414 7.54774 52.9241 8.09387 53.419 8.7936C53.914 9.49334 54.1614 10.3296 54.1614 11.3024C54.1614 11.8144 54.042 12.1643 53.803 12.352C53.5812 12.5227 53.2484 12.608 52.8046 12.608C52.4462 12.608 52.1305 12.5483 51.8574 12.4288C51.6014 12.2923 51.4649 12.0533 51.4478 11.712C51.3966 11.2171 51.2772 10.7648 51.0894 10.3552C50.9017 9.92854 50.5945 9.59574 50.1678 9.3568C49.7412 9.10081 49.1524 8.97281 48.4014 8.97281C47.4457 8.97281 46.6947 9.24587 46.1486 9.79201C45.6195 10.3211 45.355 11.1488 45.355 12.2752V19.7248C45.355 20.8512 45.6195 21.6875 46.1486 22.2336C46.6947 22.7627 47.4457 23.0272 48.4014 23.0272C49.3401 23.0272 50.0825 22.7627 50.6286 22.2336C51.1748 21.6875 51.4478 20.8512 51.4478 19.7248V17.6256H48.8622C48.5891 17.6256 48.3758 17.5147 48.2222 17.2928C48.0686 17.0709 47.9918 16.8149 47.9918 16.5248C47.9918 16.2688 48.0686 16.0299 48.2222 15.808C48.3758 15.5691 48.5891 15.4496 48.8622 15.4496H53.2654C53.5556 15.4496 53.7774 15.5435 53.931 15.7312C54.0846 15.9019 54.1614 16.1152 54.1614 16.3712V19.7248C54.1614 21.1072 53.9054 22.2165 53.3934 23.0528C52.8814 23.8891 52.1902 24.4949 51.3198 24.8704C50.4494 25.2459 49.4766 25.4336 48.4014 25.4336Z" fill="#222222"/>
</svg>
