<?xml version="1.0"?>
<svg width="1921" height="241" xmlns="http://www.w3.org/2000/svg" xmlns:svg="http://www.w3.org/2000/svg" data-name="Слой_1" version="1.1">
 <!-- Generator: Adobe Illustrator 29.1.0, SVG Export Plug-In . SVG Version: 2.1.0 Build 142)  -->
 <defs>
  <style>.st0 {
        fill: #fa4b23;
      }</style>
 </defs>
 <g class="layer">
  <title>Layer 1</title>
  <g id="svg_1" transform="translate(-428.93 -419.43)">
   <circle cx="867.58" cy="452.75" id="svg_2" r="30.71"/>
   <circle cx="867.58" cy="627.25" id="svg_3" r="30.71"/>
   <path d="m428.93,424.27l97.98,0c43.26,0 68.76,25.18 68.76,66.5l0,14.69c0,41.97 -25.5,67.31 -68.76,67.31l-52.62,0l0,82.96l-45.36,0l0,-231.46zm121.22,82l0,-13.4c0,-21.14 -12.59,-33.73 -32.77,-33.73l-43.1,0l0,80.87l43.1,0c20.18,0 32.77,-12.59 32.77,-33.73l0,-0.01z" id="svg_4"/>
   <path d="m622.48,560.5l0,-41c0,-67.95 32.28,-100.07 91.84,-100.07s92,32.12 92,100.07l0,41c0,67.95 -32.28,100.07 -92,100.07s-91.84,-32.12 -91.84,-100.07zm137.2,4.2l0,-49.39c0,-41.81 -18.72,-60.53 -45.36,-60.53s-45.2,18.72 -45.2,60.53l0,49.39c0,41.81 18.72,60.53 45.2,60.53s45.36,-18.72 45.36,-60.53z" id="svg_5"/>
   <path d="m936.78,424.27l51.97,0l79.41,159.96l0,-159.96l40.51,0l0,231.46l-46.97,0l-84.58,-169.64l0.16,169.64l-40.51,0l0,-231.46l0.01,0z" id="svg_6"/>
   <path d="m1196.37,461.07l-60.37,0l0,-36.8l166.09,0l0,36.8l-60.37,0l0,194.66l-45.36,0l0,-194.66l0.01,0z" id="svg_7"/>
   <path d="m1317.71,587.13l0,-7.42l45.52,-0.16l0,8.56c0.65,24.86 14.04,38.58 42.61,38.58c26.96,0 39.71,-12.75 39.71,-33.57l0,-3.23c0,-16.62 -8.56,-25.5 -25.83,-28.89l-49.55,-9.2c-31.96,-6.3 -50.2,-24.05 -50.2,-59.56l0,-4.36c0,-42.45 25.66,-68.44 82.96,-68.44s81.35,25.34 81.67,69.57l0,5.49l-45.03,0l0,-5.97c-0.65,-22.92 -12.59,-35.19 -37.61,-35.19s-36.48,12.11 -36.48,31.96l0,2.74c0,16.63 8.56,25.34 25.18,28.89l50.04,9.04c32.28,6.46 50.36,24.05 50.36,60.85l0,4.36c0,43.42 -25.66,69.41 -86.35,69.41s-86.52,-25.99 -87,-73.44l0,-0.02z" id="svg_8"/>
  </g>
  <g id="svg_9" transform="translate(-428.93 -419.43)">
   <path class="st0" d="m1527.17,424.27l147.05,0l0,35.35l-101.69,0l0,61.66l83.61,0l0,34.22l-83.61,0l0,64.89l102.5,0l0,35.35l-147.85,0l0,-231.46l-0.01,-0.01z" id="svg_10"/>
   <path class="st0" d="m1698.82,560.5l0,-41c0,-67.95 32.12,-100.07 92.33,-100.07c56.82,0 85.55,28.89 86.19,84.74l0,5.49l-46,0l0,-7.75c-0.65,-31.48 -16.14,-47.13 -40.68,-47.13c-26.63,0 -45.19,18.56 -45.19,59.88l0,50.36c0,41.64 18.56,60.21 45.36,60.21c25.02,0 41.32,-16.14 41.8,-48.59l0,-9.04l46.16,0l0,6.46c-0.32,57.3 -29.54,86.52 -87.48,86.52s-92.49,-32.12 -92.49,-100.07l0,-0.01z" id="svg_11"/>
   <path class="st0" d="m1910.83,560.5l0,-41c0,-67.95 32.28,-100.07 91.84,-100.07s92,32.12 92,100.07l0,41c0,67.95 -32.28,100.07 -92,100.07s-91.84,-32.12 -91.84,-100.07zm137.2,4.2l0,-49.39c0,-41.81 -18.72,-60.53 -45.36,-60.53s-45.19,18.72 -45.19,60.53l0,49.39c0,41.81 18.72,60.53 45.19,60.53s45.36,-18.72 45.36,-60.53z" id="svg_12"/>
   <path class="st0" d="m2129.93,424.27l63.76,0l46.49,157.37l46.49,-157.37l63.43,0l0,231.46l-42.77,0l0.16,-186.27l-54.39,186.27l-28.57,0l-54.4,-185.95l0.32,185.95l-40.51,0l0,-231.46l-0.01,0z" id="svg_13"/>
  </g>
 </g>
</svg>