<?xml version="1.0" encoding="UTF-8" standalone="no"?>
<svg
   xmlns:dc="http://purl.org/dc/elements/1.1/"
   xmlns:cc="http://creativecommons.org/ns#"
   xmlns:rdf="http://www.w3.org/1999/02/22-rdf-syntax-ns#"
   xmlns:svg="http://www.w3.org/2000/svg"
   xmlns="http://www.w3.org/2000/svg"
   viewBox="0 0 566.79999 162.8"
   height="162.8"
   width="566.79999"
   xml:space="preserve"
   id="svg2"
   version="1.1"><metadata
     id="metadata8"><rdf:RDF><cc:Work
         rdf:about=""><dc:format>image/svg+xml</dc:format><dc:type
           rdf:resource="http://purl.org/dc/dcmitype/StillImage" /></cc:Work></rdf:RDF></metadata><defs
     id="defs6" /><g
     transform="matrix(1.3333333,0,0,-1.3333333,0,162.8)"
     id="g10"><g
       transform="scale(0.1)"
       id="g12"><path
         id="path14"
         style="fill:#234379;fill-opacity:1;fill-rule:nonzero;stroke:none"
         d="M 0.0273438,2.60938 0,152.852 H 45.582 L 72.9961,50.3398 100.074,152.852 h 45.68 V 2.60938 H 117.488 V 120.91 L 87.4805,2.60938 H 58.1719 L 28.3242,120.91 V 2.60938 Z M 176.395,152.898 204.938,152.852 V 52.8203 l 61.14,100.0317 h 30.43 V 2.60938 H 267.949 V 100.641 L 206.918,2.60938 H 176.395 Z M 327.594,2.60938 327.449,152.852 h 48.957 c 18.477,0 30.602,-0.75 36.25,-2.262 8.614,-2.199 15.883,-7.18 21.676,-14.699 5.848,-7.52 8.781,-17.301 8.781,-29.289 0,-9.2309 -1.746,-16.9809 -5.039,-23.2934 -3.34,-6.168 -7.613,-11.1797 -12.797,-14.7773 -5.195,-3.5704 -10.547,-6 -15.82,-7.1211 -7.238,-1.461 -17.82,-2.1094 -31.602,-2.1094 H 357.992 V 2.60938 Z M 357.992,127.41 V 84.8008 h 16.664 c 12,0 19.977,0.8008 24.016,2.3086 4.137,1.6523 7.32,4.082 9.586,7.4726 2.367,3.2774 3.461,7.18 3.461,11.609 0,5.457 -1.606,10.02 -4.805,13.52 -3.297,3.578 -7.355,5.828 -12.281,6.68 -3.637,0.711 -10.985,1.019 -21.973,1.019 z m 110.793,25.488 112.793,-0.046 V 127.68 H 499.199 V 92.8203 h 40.778 c 11.25,0 20.566,-1.3711 27.961,-4.1211 7.429,-2.75 13.765,-7.8281 18.96,-15.1484 5.247,-7.4024 7.961,-16.082 7.961,-25.9727 0,-10.1875 -2.765,-18.9492 -7.961,-26.1679 C 581.594,14.1992 575.57,9.21094 568.813,6.55078 562.09,3.94141 552.441,2.60938 539.977,2.60938 h -71.25 z m 30.414,-125.0269 29.696,-0.1016 c 9.441,0 16.089,0.4688 19.878,1.3321 3.844,1.039 7.165,3.0976 10.098,6.3593 2.809,3.2891 4.215,7.3399 4.215,12.1172 0,6.961 -2.496,12.0821 -7.461,15.2032 -4.926,3.1406 -13.445,4.7382 -25.449,4.7382 h -30.977 z m 120.817,125.0269 28.461,-0.046 V 52.8203 L 709.68,152.852 h 30.336 V 2.60938 H 711.52 V 100.641 L 650.488,2.60938 H 620.016 Z M 867.66,57.8516 897.172,48.5195 C 892.66,32.1211 885.105,19.9102 874.59,11.8984 864.086,4 850.719,0 834.516,0 814.465,0 797.969,6.83984 785.082,20.5195 772.234,34.0508 765.719,52.75 765.719,76.3594 c 0,25.0316 6.515,44.4726 19.472,58.2816 12.969,13.828 30.024,20.769 51.137,20.769 18.508,0 33.473,-5.379 44.988,-16.262 6.832,-6.437 12.047,-15.668 15.465,-27.699 l -30.136,-7.16 c -1.821,7.742 -5.551,13.891 -11.172,18.43 -5.676,4.511 -12.543,6.742 -20.66,6.742 -11.157,0 -20.27,-4 -27.2,-11.941 -6.988,-8.008 -10.5,-21.0005 -10.5,-38.8911 0,-18.9687 3.434,-32.5 10.313,-40.6289 6.851,-8.0117 15.793,-12.0781 26.762,-12.0781 8.085,0 15.074,2.5898 20.914,7.7383 5.82,5.0898 10.015,13.1914 12.558,24.1914" /><path
         id="path16"
         style="fill:#234379;fill-opacity:1;fill-rule:nonzero;stroke:none"
         d="m 684.434,1221 c -0.954,-39.66 0.953,-70.68 0,-110.28 C 685.387,1048.75 655.27,972.383 581.316,950.973 461.063,917.02 362.398,850.68 297.012,741.965 227.773,627.004 219.438,515.305 224.574,408.066 182.676,376.105 140.961,344.211 99.125,312.238 c -8.4062,147.117 -15.8984,294.2 58.566,441.317 44.555,104.492 127.551,192.129 236.403,258.465 76.023,46.39 162.664,61.89 213.719,92.86 51.031,31 56.496,80.31 76.621,116.12" /><path
         id="path18"
         style="fill:#234379;fill-opacity:1;fill-rule:nonzero;stroke:none"
         d="m 716.957,1221 c 0.895,-39.66 -0.996,-70.68 0,-110.28 -0.996,-61.97 29.074,-138.337 103.086,-159.747 120.129,-33.953 218.897,-100.293 284.277,-209.008 69.27,-114.961 77.54,-226.66 72.44,-333.899 41.82,-31.961 83.61,-63.855 125.41,-95.828 8.48,147.117 15.91,294.2 -58.56,441.317 -44.51,104.492 -127.54,192.129 -236.38,258.465 -76.078,46.39 -162.671,61.89 -213.652,92.86 -51.09,31 -56.461,80.31 -76.621,116.12" /><path
         id="path20"
         style="fill:#234379;fill-opacity:1;fill-rule:nonzero;stroke:none"
         d="m 542.875,334.355 c 3.371,0 6.391,1.094 8.957,3.352 2.449,2.156 2.43,2.168 3.809,4.902 1.257,2.508 0.793,4.903 -0.25,6.532 -0.981,1.75 -2.95,2.636 -5.836,2.636 -3.309,0 -6.582,-0.886 -8.957,-3.269 -2.41,-2.422 -0.735,-0.422 -3.996,-5.09 -1.629,-2.332 -0.766,-4.91 0.207,-6.543 0.98,-1.68 3.004,-2.52 6.066,-2.52" /><path
         id="path22"
         style="fill:#234379;fill-opacity:1;fill-rule:nonzero;stroke:none"
         d="m 828.676,341.27 c -0.653,-2.286 -0.59,-4.266 0.25,-5.711 0.894,-1.438 2.594,-2.141 5.277,-2.141 2.914,0 5.524,0.937 7.785,2.852 2.188,1.984 1.996,1.269 2.735,3.761 0.73,2.235 0.652,4.199 -0.207,5.711 -0.918,1.379 -2.586,2.207 -5.051,2.207 -2.938,0 -5.594,-0.957 -7.84,-2.871 -2.309,-1.863 -2.152,-1.199 -2.949,-3.808" /><path
         id="path24"
         style="fill:#234379;fill-opacity:1;fill-rule:nonzero;stroke:none"
         d="m 710.383,243.938 c 0.824,0.839 1.527,1.562 2.289,2.273 -1.777,-0.555 -3.059,-1.102 -2.289,-2.273" /><path
         id="path26"
         style="fill:#234379;fill-opacity:1;fill-rule:nonzero;stroke:none"
         d="m 719.352,253.184 c -1.735,-2.032 -3.559,-3.985 -6.747,-7.02 -1.199,-0.305 -7.894,-2.969 -5.941,-6.418 -8.086,-8.035 -16.961,-14.617 -26.668,-19.777 -9.582,-5.188 -17.902,-7.719 -24.781,-7.719 -7.133,0 -9.535,3.801 -7.192,11.395 2.258,7.46 9.172,17.429 19.536,30.945 l 44.957,58.918 c 19.457,11.941 141.769,84.375 124.886,130.722 -6.179,16.961 -48.316,-5.429 -64.121,-27.441 L 715.727,346.496 C 700.98,332.5 686.313,318.488 671.832,304.738 650.156,284.16 634.055,268.633 623.785,258.469 l -0.293,-0.528 c -14.328,-14.464 -25.609,-25.207 -33.847,-31.992 -10.973,-9.14 -19.727,-13.699 -26.161,-13.699 -3.195,0 -4.441,1.531 -3.488,4.531 0.996,3.348 4.336,8.348 9.938,14.93 2.386,2.742 8.566,9.578 18.523,20.254 6.723,6.855 12.684,13.308 17.645,19.199 5.058,5.801 7.996,10.32 8.961,13.289 0.828,2.539 -0.418,5.774 -3.575,9.602 -3.195,3.816 -8.425,8.172 -15.57,13.027 3.086,1.719 5.18,4.168 6.07,7.195 1.45,4.621 -0.269,6.946 -5.195,6.946 -5.047,0 -8.539,-2.735 -10.133,-8.118 -0.89,-2.714 -0.094,-5.039 2.5,-6.835 l -50.375,-48.594 -0.515,-0.625 c -0.063,-0.047 -0.09,-0.106 -0.141,-0.176 -11.094,-11.668 -20.066,-20.437 -26.934,-26.316 -14.617,-12.489 -25.797,-18.739 -33.472,-18.739 -5.582,0 -7.473,2.961 -5.696,8.809 0.985,3.297 2.996,6.598 5.778,9.93 l 69.484,83.445 -33.016,-2.43 -53.261,-51.398 c -0.145,-0.039 -0.188,-0.145 -0.219,-0.203 -0.109,-0.078 -0.234,-0.235 -0.449,-0.391 l -0.735,-0.762 -0.191,-0.285 c -4.383,-4.773 -11.266,-11.953 -20.488,-21.894 -15.528,-15.496 -27.371,-23.25 -35.594,-23.25 -8.973,0 -11.078,7.625 -6.32,22.879 2.902,9.484 9.019,23.058 18.242,40.566 1.777,3.262 10.14,18.477 25.125,45.723 14.836,27.109 28.055,50.175 39.523,69.004 14.266,23.906 25.989,41.964 35.098,53.917 -14.836,-8.957 -31.133,-21.242 -48.996,-36.796 -25.953,-22.735 -50.863,-49.309 -74.516,-79.426 -20.008,-26.094 -40.058,-52 -60.019,-77.508 -19.848,-25.566 -32.192,-38.359 -36.778,-38.359 -2.953,0 -3.804,2.32 -2.406,6.871 2.406,7.66 14.641,27.523 36.781,59.437 12.985,18.926 22.446,32.891 28.231,41.844 l 79.711,123.937 c -12.547,1.016 -28.211,1.622 -49.36,-17.121 -12.922,-11.328 -25.355,-22.468 -38.293,-38.437 -31.336,-38.555 -68.988,-87.742 -103.175,-124.18 -34.164,-36.406 -62.957,-54.691 -86.161,-54.691 -7.722,0 -13.593,2.058 -17.523,5.91 1.672,-0.41 3.469,-0.641 5.258,-0.641 13.25,0 23.984,10.907 23.984,24.5 0,13.457 -10.734,24.453 -23.984,24.453 -8.719,0 -16.352,-4.824 -20.473,-11.933 -1.328,-1.766 -2.418,-3.953 -3.105,-6.758 -3.106,-14.453 3.386,-23.906 8.988,-30.531 5.617,-6.641 13.937,-9.942 24.906,-9.942 18.707,0 39.324,9.481 61.871,28.61 13.817,11.707 35.145,33.914 63.766,66.562 28.648,32.606 56.348,70.633 71.594,85.586 19.425,19.102 34.379,31.817 27.152,19.227 l -6.992,-12.059 c -16.461,-28.566 -36.016,-47.101 -51.324,-70.566 -23.25,-35.696 -40.789,-62.551 -47.422,-84.055 -3.043,-10.019 -3.528,-17.742 -1.266,-23.176 2.262,-5.547 7.461,-8.25 15.649,-8.25 5.136,0 12.968,5.614 23.316,16.758 5.68,6.133 17.34,20.586 34.816,43.242 21.672,28.078 36.954,47.442 45.594,58.196 18.309,22.89 37.289,43.554 55.121,60.847 14.832,14.387 27.473,21.856 16.406,9.063 -15.863,-18.348 -43.542,-51.739 -58.851,-74.871 -7.352,-11.457 -13.777,-22.618 -19.149,-33.332 -5.289,-10.633 -9.332,-20.379 -12,-29.071 -4.871,-15.84 -5.476,-28.261 -1.746,-37.265 3.727,-9.043 11.918,-13.567 24.418,-13.567 9.973,0 21.008,5.242 32.868,15.657 6.242,5.566 16.882,16.835 31.644,33.75 l 40.793,39.277 -38.59,-47.754 c -3.652,-4.582 -6.523,-10.078 -8.519,-16.426 -2.004,-6.711 -1.813,-12.39 0.605,-17.222 2.516,-4.801 7.567,-7.282 15.246,-7.282 7.926,0 16.59,2.934 25.985,8.793 9.082,5.692 22.718,17.879 40.867,36.434 0.344,0.242 0.605,0.39 0.797,0.652 2.601,2.735 10.191,10.129 22.468,21.789 9.754,9.207 19.383,18.555 28.981,27.977 4.82,-2.5 8.211,-5.262 10.219,-8.008 -7.176,-4.863 -13.84,-10.145 -19.868,-15.73 -4.519,-4.024 -9.031,-8.653 -13.464,-13.711 -7.926,-8.457 -13.684,-15.559 -17.071,-21.106 -3.34,-5.664 -5.715,-10.476 -6.929,-14.519 -2.047,-6.602 -1.7,-12.071 1.058,-16.329 2.801,-4.019 7.727,-6.242 14.563,-6.242 6.629,0 14.843,3.282 24.343,9.84 9.52,6.422 23.75,19.547 42.571,39.047 l 0.078,0.176 c 7.633,7.59 16.637,16.308 27.101,26.222 11.051,10.391 24.321,22.665 39.657,36.7 l -46.348,-56.164 c -4.914,-6.289 -8.441,-11.192 -10.234,-14.481 -1.672,-3.359 -3.313,-7.305 -4.727,-11.855 -2.723,-8.996 -2.469,-16.282 0.934,-21.883 3.336,-5.512 9.785,-8.36 19.254,-8.36 8.664,0 19.039,3.692 31.007,11.09 9.801,6.086 18.071,12.785 24.61,19.844 2.297,-1.445 5.023,-2.246 8.129,-2.246 3.59,0 7.754,1.457 12.578,4.219 4.824,2.746 16.949,14.758 17.086,14.824 l 43.226,41.711 -38.59,-47.754 c -3.714,-4.582 -6.519,-10.078 -8.503,-16.426 -2.059,-6.711 -1.891,-12.39 0.589,-17.222 2.532,-4.801 7.512,-7.282 15.25,-7.282 7.911,0 16.586,2.934 25.965,8.793 9.254,5.817 23.426,18.485 42.231,37.809 l 0.09,0.168 c 2.98,2.918 10.347,10.039 22.285,21.238 9.722,9.211 19.347,18.274 28.761,27.227 -0.156,-4.618 -0.546,-8.953 -1.144,-12.93 -0.625,-3.887 -1.789,-8.914 -3.652,-15 -5.723,-18.418 -12.59,-33.516 -20.661,-45.535 -7.972,-11.93 -16.289,-17.938 -24.714,-17.938 -2.282,0 -4.946,0.692 -7.832,1.961 -2.934,1.18 -4.137,2.617 -3.653,4.168 l 1.824,1.129 c 8.446,0.801 13.762,4.723 16.028,11.801 0.797,2.609 0.433,4.719 -0.953,6.34 -1.434,1.668 -3.43,2.527 -5.993,2.527 -3.257,0 -6.507,-1.121 -9.66,-3.262 -3.043,-2.156 -5.179,-5.222 -6.383,-8.984 -2.351,-7.621 -0.546,-13.27 5.508,-16.82 5.024,-2.801 12.301,-4.18 21.739,-4.18 11.781,0 30.086,1.488 40.386,17.543 l 7.383,11.484 c 2.621,5.137 4.43,9.2 5.352,12.207 3.132,10.207 3.523,21.223 1.277,32.942 -1.777,9.082 -4.898,18.445 -9.379,27.84 1.313,0.996 3.313,2.714 5.945,4.992 2.594,2.265 4.247,4.5 4.883,6.472 1.239,4.063 -0.183,6.204 -4.211,6.204 -2.808,0 -5.195,-1.094 -6.972,-3.125 -1.762,-1.993 -3.078,-4.465 -3.996,-7.286 l -0.793,-6.425 c -3.235,-3.157 -10.348,-9.895 -21.227,-20.305 C 840.352,272.941 829.629,262.609 825.18,258 c -0.496,-0.324 -0.934,-0.684 -1.45,-1.125 -11.05,-11.668 -20.003,-20.437 -26.933,-26.316 -14.652,-12.489 -25.813,-18.739 -33.442,-18.739 -5.652,0 -7.519,2.961 -5.742,8.809 1.032,3.297 2.934,6.598 5.742,9.93 l 69.551,83.445 -32.957,-2.43 -54.758,-52.754 c 0,0 -12.015,-12.023 -16.418,-14.843 -4.476,-2.747 -8.222,-4.231 -11.312,-4.231 -1.965,0 -3.617,0.813 -4.711,2.277 9.598,8.602 11.938,11.161 19.27,20.586 7.429,9.395 10.222,11.387 12.375,18.321 3.453,11.199 -9.047,15.066 -15.043,8.828 -4.872,-5.098 3.043,-9.551 5.101,-7.961 1.926,1.484 0.457,4.16 0.457,4.16 7.387,0 4.891,-4.715 1.36,-9.941 -2.375,-3.504 -6.059,-9.395 -11.723,-16.453 m 73.437,165.945 c 13.688,12.746 24.907,16.191 28.993,12.812 6.242,-5.058 -0.731,-13.621 -10.61,-31.054 -13.89,-24.442 -69.472,-62.911 -90.945,-76.836 z m -87.793,-113.477 -0.109,-0.125 c -0.332,-0.207 -0.203,-0.051 0.109,0.125" /><path
         id="path28"
         style="fill:#234379;fill-opacity:1;fill-rule:nonzero;stroke:none"
         d="m 1571.13,945.992 38.25,-97.543 h 0.5 l 38.26,97.543 h 20.78 V 825.938 h -16.25 v 47.496 l 1.65,48.808 -0.41,0.082 -38.92,-96.386 h -10.8 l -38.75,96.144 -0.42,-0.086 1.57,-48.562 v -47.496 h -16.24 v 120.054 h 20.78" /><path
         id="path30"
         style="fill:#234379;fill-opacity:1;fill-rule:nonzero;stroke:none"
         d="m 1773.3,896.766 c 0,11 -2.97,20.004 -8.91,27.043 -5.93,7.043 -13.9,10.558 -23.91,10.558 -9.45,0 -17,-3.515 -22.63,-10.558 -5.63,-7.039 -8.45,-16.043 -8.45,-27.043 v -21.52 c 0,-11.098 2.82,-20.168 8.45,-27.207 5.63,-7.047 13.18,-10.559 22.63,-10.559 10.07,0 18.05,3.497 23.96,10.524 5.91,6.992 8.86,16.078 8.86,27.242 z m 16.25,-21.52 c 0,-14.68 -4.56,-26.848 -13.65,-36.523 -9.1,-9.688 -20.91,-14.512 -35.42,-14.512 -14.01,0 -25.41,4.824 -34.17,14.512 -8.77,9.675 -13.15,21.843 -13.15,36.523 v 21.356 c 0,14.625 4.38,26.796 13.15,36.523 8.76,9.734 20.16,14.598 34.17,14.598 14.51,0 26.32,-4.852 35.42,-14.563 9.09,-9.695 13.65,-21.883 13.65,-36.558 v -21.356" /><path
         id="path32"
         style="fill:#234379;fill-opacity:1;fill-rule:nonzero;stroke:none"
         d="m 1898.63,864.445 0.16,-0.492 c 0.23,-11.265 -3.73,-20.715 -11.87,-28.316 -8.14,-7.617 -18.88,-11.426 -32.24,-11.426 -13.58,0 -24.64,4.812 -33.19,14.422 -8.55,9.613 -12.82,21.82 -12.82,36.613 v 21.356 c 0,14.793 4.27,26.992 12.82,36.656 8.55,9.633 19.61,14.465 33.19,14.465 13.58,0 24.38,-3.61 32.4,-10.836 8.03,-7.239 11.94,-16.821 11.71,-28.742 l -0.16,-0.497 h -15.58 c 0,8.415 -2.48,15.059 -7.43,19.957 -4.94,4.895 -11.92,7.336 -20.94,7.336 -9.07,0 -16.3,-3.644 -21.68,-10.949 -5.39,-7.304 -8.08,-16.375 -8.08,-27.195 v -21.504 c 0,-10.93 2.69,-20.051 8.08,-27.355 5.38,-7.305 12.61,-10.954 21.68,-10.954 9.02,0 16,2.442 20.94,7.293 4.95,4.879 7.43,11.594 7.43,20.168 h 15.58" /><path
         id="path34"
         style="fill:#234379;fill-opacity:1;fill-rule:nonzero;stroke:none"
         d="m 1950.99,880.109 h -14.02 v -54.171 h -16.24 v 120.054 h 16.24 v -53.101 h 12.53 l 42.96,53.101 h 17.97 l 0.25,-0.414 -46.58,-57.633 49.96,-61.597 -0.24,-0.41 h -19.38 l -43.45,54.171" /><path
         id="path36"
         style="fill:#234379;fill-opacity:1;fill-rule:nonzero;stroke:none"
         d="m 2101.38,896.766 c 0,11 -2.97,20.004 -8.9,27.043 -5.94,7.043 -13.91,10.558 -23.92,10.558 -9.45,0 -17,-3.515 -22.63,-10.558 -5.63,-7.039 -8.45,-16.043 -8.45,-27.043 v -21.52 c 0,-11.098 2.82,-20.168 8.45,-27.207 5.63,-7.047 13.18,-10.559 22.63,-10.559 10.06,0 18.05,3.497 23.96,10.524 5.91,6.992 8.86,16.078 8.86,27.242 z m 16.25,-21.52 c 0,-14.68 -4.56,-26.848 -13.65,-36.523 -9.1,-9.688 -20.9,-14.512 -35.42,-14.512 -14.01,0 -25.41,4.824 -34.17,14.512 -8.77,9.675 -13.15,21.843 -13.15,36.523 v 21.356 c 0,14.625 4.38,26.796 13.15,36.523 8.76,9.734 20.16,14.598 34.17,14.598 14.52,0 26.32,-4.852 35.42,-14.563 9.09,-9.695 13.65,-21.883 13.65,-36.558 v -21.356" /><path
         id="path38"
         style="fill:#234379;fill-opacity:1;fill-rule:nonzero;stroke:none"
         d="m 2158.11,882.176 v -43.453 h 28.12 c 7.35,0 13.11,1.812 17.23,5.453 4.12,3.648 6.18,8.808 6.18,15.488 0,7.008 -1.71,12.516 -5.15,16.504 -3.44,4.008 -8.73,6.008 -15.88,6.008 z m 0,12.777 h 26.3 c 6.05,0 10.97,1.664 14.76,4.996 3.79,3.313 5.69,7.949 5.69,13.887 0,6.477 -2.05,11.34 -6.14,14.543 -4.1,3.234 -10,4.832 -17.69,4.832 h -22.92 z m -16.24,-69.015 v 120.054 h 39.16 c 12.53,0 22.35,-2.703 29.44,-8.113 7.09,-5.426 10.63,-13.543 10.63,-24.375 0,-5.328 -1.71,-10.094 -5.1,-14.313 -3.41,-4.191 -7.9,-7.324 -13.45,-9.351 7.25,-1.531 12.97,-5.078 17.11,-10.637 4.15,-5.558 6.23,-12.004 6.23,-19.379 0,-10.996 -3.57,-19.386 -10.69,-25.176 -7.1,-5.808 -16.77,-8.71 -28.97,-8.71 h -44.36" /><path
         id="path40"
         style="fill:#234379;fill-opacity:1;fill-rule:nonzero;stroke:none"
         d="m 2334.64,864.445 0.16,-0.492 c 0.22,-11.265 -3.74,-20.715 -11.87,-28.316 -8.14,-7.617 -18.88,-11.426 -32.24,-11.426 -13.58,0 -24.64,4.812 -33.19,14.422 -8.55,9.613 -12.81,21.82 -12.81,36.613 v 21.356 c 0,14.793 4.26,26.992 12.81,36.656 8.55,9.633 19.61,14.465 33.19,14.465 13.58,0 24.38,-3.61 32.41,-10.836 8.01,-7.239 11.92,-16.821 11.7,-28.742 l -0.16,-0.497 h -15.59 c 0,8.415 -2.47,15.059 -7.41,19.957 -4.95,4.895 -11.94,7.336 -20.95,7.336 -9.07,0 -16.31,-3.644 -21.69,-10.949 -5.39,-7.304 -8.07,-16.375 -8.07,-27.195 v -21.504 c 0,-10.93 2.68,-20.051 8.07,-27.355 5.38,-7.305 12.62,-10.954 21.69,-10.954 9.01,0 16,2.442 20.95,7.293 4.94,4.879 7.41,11.594 7.41,20.168 h 15.59" /><path
         id="path42"
         style="fill:#234379;fill-opacity:1;fill-rule:nonzero;stroke:none"
         d="m 2387,880.109 h -14.02 v -54.171 h -16.24 v 120.054 h 16.24 v -53.101 h 12.54 l 42.96,53.101 h 17.97 l 0.25,-0.414 -46.59,-57.633 49.97,-61.597 -0.26,-0.41 h -19.37 L 2387,880.109" /><path
         id="path44"
         style="fill:#234379;fill-opacity:1;fill-rule:nonzero;stroke:none"
         d="m 2485.12,870.465 h 40.4 l -19.79,54.664 h -0.5 z m 45.26,-13.61 h -50.29 l -11.38,-30.917 h -16.57 l 46.41,120.054 h 13.94 l 45.68,-120.054 h -16.57 l -11.22,30.917" /><path
         id="path46"
         style="fill:#234379;fill-opacity:1;fill-rule:nonzero;stroke:none"
         d="m 2637.08,933.211 h -22.18 c -8.57,0 -15.11,-2.063 -19.59,-6.184 -4.47,-4.125 -6.72,-9.781 -6.72,-16.988 0,-7.207 2.25,-13.059 6.77,-17.562 4.5,-4.5 10.97,-6.758 19.38,-6.758 h 22.34 z m -51.87,-107.273 h -17.23 l 28.12,51.335 c -7.75,2.969 -13.66,7.207 -17.69,12.7 -4.04,5.492 -6.06,12.136 -6.06,19.937 0,11.43 3.78,20.281 11.33,26.602 7.57,6.312 17.96,9.48 31.22,9.48 h 38.42 V 825.938 h -16.24 v 47 h -26.88 l -24.99,-47" /><path
         id="path48"
         style="fill:#234379;fill-opacity:1;fill-rule:nonzero;stroke:none"
         d="m 2745.67,945.992 38.26,-97.543 h 0.49 l 38.26,97.543 h 20.78 V 825.938 h -16.24 v 47.496 l 1.65,48.808 -0.42,0.082 -38.92,-96.386 h -10.8 l -38.75,96.144 -0.41,-0.086 1.56,-48.562 v -47.496 h -16.24 v 120.054 h 20.78" /><path
         id="path50"
         style="fill:#234379;fill-opacity:1;fill-rule:nonzero;stroke:none"
         d="m 2944.46,881.594 h -55 v -42.871 h 63.41 v -12.785 h -79.65 v 120.054 h 78.74 v -12.781 h -62.5 v -38.836 h 55 v -12.781" /><path
         id="path52"
         style="fill:#234379;fill-opacity:1;fill-rule:nonzero;stroke:none"
         d="m 3055.28,881.016 h -12.61 v -55.078 h -16.24 v 55.078 h -13.36 l -33.4,-55.078 h -20.29 l 40.16,63.492 -36.78,56.562 h 18.97 l 31.17,-52.195 h 13.53 v 52.195 h 16.24 v -52.195 h 12.86 l 31.17,52.195 h 18.95 l -36.85,-56.484 40.16,-63.57 h -20.2 l -33.48,55.078" /><path
         id="path54"
         style="fill:#234379;fill-opacity:1;fill-rule:nonzero;stroke:none"
         d="m 3160.73,897.457 c -0.49,-13.074 -2.14,-24.586 -4.94,-34.512 -2.8,-9.945 -6.41,-18.027 -10.8,-24.222 h 58.05 v 94.488 h -40.4 z m 58.55,-58.734 h 16.49 l -1.65,-42.219 h -14.6 v 29.434 h -86.65 V 796.34 h -13.77 l -2.48,42.383 h 10.31 c 4.22,4.781 8.1,11.785 11.62,21.039 3.52,9.269 5.45,21.832 5.78,37.695 l 2.72,48.535 h 72.23 V 838.723" /><path
         id="path56"
         style="fill:#234379;fill-opacity:1;fill-rule:nonzero;stroke:none"
         d="m 3288.96,889.84 6.01,-15.504 h 0.5 l 27.04,71.656 h 18.88 l -41.97,-100.347 c -3.25,-7.207 -6.77,-12.586 -10.6,-16.114 -3.81,-3.562 -9.91,-5.32 -18.25,-5.32 -1.39,0 -2.99,0.078 -4.84,0.242 -1.82,0.168 -3,0.332 -3.49,0.5 l 0.41,12.363 c 0.54,-0.117 1.74,-0.195 3.58,-0.246 1.85,-0.047 3.23,-0.086 4.17,-0.086 3.89,0 6.7,0.996 8.36,2.957 1.68,1.981 3.56,5.145 5.65,9.528 l 3.3,6.894 -40.23,89.629 h 18.22 l 23.26,-56.152" /><path
         id="path58"
         style="fill:#234379;fill-opacity:1;fill-rule:nonzero;stroke:none"
         d="m 3452.21,825.938 h -16.24 v 53.019 h -58.3 v -53.019 h -16.24 v 120.054 h 16.24 v -54.258 h 58.3 v 54.258 h 16.24 V 825.938" /><path
         id="path60"
         style="fill:#234379;fill-opacity:1;fill-rule:nonzero;stroke:none"
         d="m 3503.16,870.465 h 40.4 l -19.78,54.664 h -0.5 z m 45.27,-13.61 h -50.3 l -11.37,-30.917 h -16.57 l 46.41,120.054 h 13.94 l 45.68,-120.054 h -16.57 l -11.22,30.917" /><path
         id="path62"
         style="fill:#234379;fill-opacity:1;fill-rule:nonzero;stroke:none"
         d="m 3608.96,886.871 h 29.67 c 8.14,0 14.2,2.18 18.23,6.547 4,4.352 6.01,9.859 6.01,16.492 0,6.645 -2.02,12.188 -6.06,16.641 -4.05,4.433 -10.09,6.66 -18.18,6.66 h -29.67 z m 0,-12.777 v -48.156 h -16.25 v 120.054 h 45.92 c 12.81,0 22.76,-3.301 29.86,-9.898 7.09,-6.598 10.63,-15.285 10.63,-26.055 0,-10.93 -3.54,-19.656 -10.63,-26.184 -7.1,-6.5 -17.05,-9.761 -29.86,-9.761 h -29.67" /><path
         id="path64"
         style="fill:#234379;fill-opacity:1;fill-rule:nonzero;stroke:none"
         d="m 3775.51,896.766 c 0,11 -2.97,20.004 -8.91,27.043 -5.94,7.043 -13.91,10.558 -23.91,10.558 -9.47,0 -17.01,-3.515 -22.64,-10.558 -5.63,-7.039 -8.45,-16.043 -8.45,-27.043 v -21.52 c 0,-11.098 2.82,-20.168 8.45,-27.207 5.63,-7.047 13.17,-10.559 22.64,-10.559 10.06,0 18.04,3.497 23.94,10.524 5.93,6.992 8.88,16.078 8.88,27.242 z m 16.24,-21.52 c 0,-14.68 -4.55,-26.848 -13.65,-36.523 -9.09,-9.688 -20.9,-14.512 -35.41,-14.512 -14.02,0 -25.41,4.824 -34.18,14.512 -8.76,9.675 -13.15,21.843 -13.15,36.523 v 21.356 c 0,14.625 4.39,26.796 13.15,36.523 8.77,9.734 20.16,14.598 34.18,14.598 14.51,0 26.32,-4.852 35.41,-14.563 9.1,-9.695 13.65,-21.883 13.65,-36.558 v -21.356" /><path
         id="path66"
         style="fill:#234379;fill-opacity:1;fill-rule:nonzero;stroke:none"
         d="m 3846.49,897.457 c -0.48,-13.074 -2.13,-24.586 -4.94,-34.512 -2.8,-9.945 -6.41,-18.027 -10.8,-24.222 h 58.05 v 94.488 h -40.4 z m 58.55,-58.734 h 16.49 l -1.65,-42.219 h -14.6 v 29.434 h -86.65 V 796.34 h -13.77 l -2.48,42.383 h 10.32 c 4.21,4.781 8.09,11.785 11.62,21.039 3.51,9.269 5.44,21.832 5.77,37.695 l 2.72,48.535 h 72.23 V 838.723" /><path
         id="path68"
         style="fill:#234379;fill-opacity:1;fill-rule:nonzero;stroke:none"
         d="m 4031.86,825.938 h -16.25 v 53.019 h -58.3 v -53.019 h -16.24 v 120.054 h 16.24 v -54.258 h 58.3 v 54.258 h 16.25 V 825.938" /><path
         id="path70"
         style="fill:#234379;fill-opacity:1;fill-rule:nonzero;stroke:none"
         d="m 4082.81,870.465 h 40.4 l -19.79,54.664 h -0.49 z m 45.27,-13.61 h -50.3 l -11.38,-30.917 h -16.58 l 46.43,120.054 h 13.94 l 45.67,-120.054 h -16.57 l -11.21,30.917" /><path
         id="path72"
         style="fill:#234379;fill-opacity:1;fill-rule:nonzero;stroke:none"
         d="m 4234.77,933.211 h -22.18 c -8.58,0 -15.11,-2.063 -19.59,-6.184 -4.47,-4.125 -6.71,-9.781 -6.71,-16.988 0,-7.207 2.24,-13.059 6.76,-17.562 4.5,-4.5 10.96,-6.758 19.37,-6.758 h 22.35 z m -51.86,-107.273 h -17.24 l 28.12,51.335 c -7.75,2.969 -13.65,7.207 -17.7,12.7 -4.04,5.492 -6.05,12.136 -6.05,19.937 0,11.43 3.78,20.281 11.34,26.602 7.57,6.312 17.95,9.48 31.21,9.48 h 38.43 V 825.938 h -16.25 v 47 h -26.88 l -24.98,-47" /><path
         id="path74"
         style="fill:#234379;fill-opacity:1;fill-rule:nonzero;stroke:none"
         d="m 1566.59,679.531 v -43.445 h 28.12 c 7.36,0 13.11,1.805 17.23,5.457 4.12,3.645 6.18,8.801 6.18,15.48 0,7.012 -1.71,12.52 -5.15,16.512 -3.44,4.004 -8.72,5.996 -15.87,5.996 z m 0,12.785 h 26.31 c 6.04,0 10.96,1.668 14.75,5 3.8,3.309 5.69,7.95 5.69,13.875 0,6.485 -2.04,11.348 -6.14,14.551 -4.1,3.235 -9.99,4.836 -17.69,4.836 h -22.92 z m -16.24,-69.015 v 120.051 h 39.16 c 12.54,0 22.35,-2.707 29.44,-8.106 7.09,-5.43 10.63,-13.547 10.63,-24.375 0,-5.332 -1.7,-10.098 -5.11,-14.316 -3.4,-4.192 -7.89,-7.325 -13.43,-9.348 7.25,-1.543 12.95,-5.086 17.1,-10.644 4.15,-5.555 6.23,-12 6.23,-19.375 0,-10.997 -3.56,-19.395 -10.68,-25.176 -7.11,-5.809 -16.78,-8.711 -28.98,-8.711 h -44.36" /><path
         id="path76"
         style="fill:#234379;fill-opacity:1;fill-rule:nonzero;stroke:none"
         d="m 1775.61,623.301 h -16.33 v 120.051 h 16.33 z m -101.09,59.777 v -46.992 h 29.6 c 8.08,0 14.16,2.324 18.22,6.953 4.07,4.637 6.11,10.32 6.11,17.07 0,6.532 -2.02,11.993 -6.06,16.395 -4.05,4.387 -10.13,6.574 -18.27,6.574 z m 0,12.781 h 29.6 c 12.81,0 22.77,-3.281 29.89,-9.863 7.12,-6.562 10.68,-15.254 10.68,-26.082 0,-10.891 -3.57,-19.707 -10.72,-26.465 -7.15,-6.769 -17.09,-10.148 -29.85,-10.148 h -45.84 v 120.051 h 16.24 v -47.493" /><path
         id="path78"
         style="fill:#234379;fill-opacity:1;fill-rule:nonzero;stroke:none"
         d="m 1890.05,661.809 0.17,-0.5 c 0.22,-11.258 -3.74,-20.711 -11.88,-28.309 -8.13,-7.617 -18.88,-11.426 -32.23,-11.426 -13.58,0 -24.64,4.813 -33.19,14.422 -8.55,9.621 -12.82,21.817 -12.82,36.613 v 21.356 c 0,14.797 4.27,26.992 12.82,36.66 8.55,9.629 19.61,14.465 33.19,14.465 13.58,0 24.38,-3.613 32.4,-10.84 8.02,-7.238 11.93,-16.816 11.71,-28.742 l -0.17,-0.496 h -15.58 c 0,8.406 -2.47,15.058 -7.42,19.949 -4.95,4.902 -11.93,7.344 -20.94,7.344 -9.07,0 -16.31,-3.641 -21.69,-10.946 -5.38,-7.304 -8.08,-16.379 -8.08,-27.199 v -21.504 c 0,-10.926 2.7,-20.047 8.08,-27.351 5.38,-7.305 12.62,-10.957 21.69,-10.957 9.01,0 15.99,2.441 20.94,7.293 4.95,4.882 7.42,11.593 7.42,20.168 h 15.58" /><path
         id="path80"
         style="fill:#234379;fill-opacity:1;fill-rule:nonzero;stroke:none"
         d="M 1928.39,743.352 V 636.086 h 40.57 v 107.266 h 16.16 V 636.086 h 40.41 v 107.266 h 16.24 V 623.301 h -129.62 v 120.051 h 16.24" /><path
         id="path82"
         style="fill:#234379;fill-opacity:1;fill-rule:nonzero;stroke:none"
         d="m 2092.72,667.824 h 40.4 l -19.79,54.668 h -0.49 z m 45.27,-13.605 h -50.29 l -11.38,-30.918 h -16.58 l 46.42,120.051 h 13.94 l 45.68,-120.051 h -16.58 l -11.21,30.918" /><path
         id="path84"
         style="fill:#234379;fill-opacity:1;fill-rule:nonzero;stroke:none"
         d="m 2244.69,730.578 h -22.18 c -8.58,0 -15.11,-2.062 -19.59,-6.191 -4.47,-4.121 -6.72,-9.778 -6.72,-16.985 0,-7.207 2.26,-13.054 6.76,-17.558 4.51,-4.5 10.97,-6.766 19.38,-6.766 h 22.35 z m -51.87,-107.277 h -17.23 l 28.11,51.34 c -7.74,2.968 -13.64,7.207 -17.68,12.695 -4.04,5.488 -6.06,12.137 -6.06,19.941 0,11.426 3.78,20.282 11.34,26.59 7.56,6.321 17.96,9.485 31.21,9.485 h 38.42 V 623.301 h -16.24 v 47.004 h -26.89 l -24.98,-47.004" /><path
         id="path86"
         style="fill:#234379;fill-opacity:1;fill-rule:nonzero;stroke:none"
         d="M 2348.74,743.352 V 636.086 h 40.57 v 107.266 h 16.16 V 636.086 h 40.4 v 107.266 h 16.24 V 623.301 H 2332.5 v 120.051 h 16.24" /><path
         id="path88"
         style="fill:#234379;fill-opacity:1;fill-rule:nonzero;stroke:none"
         d="m 2522.06,677.473 h -14.02 v -54.172 h -16.24 v 120.051 h 16.24 v -53.098 h 12.54 l 42.96,53.098 h 17.96 l 0.25,-0.411 -46.58,-57.636 49.97,-61.594 -0.26,-0.41 h -19.37 l -43.45,54.172" /><path
         id="path90"
         style="fill:#234379;fill-opacity:1;fill-rule:nonzero;stroke:none"
         d="m 2672.45,694.133 c 0,10.996 -2.97,20 -8.91,27.039 -5.93,7.043 -13.91,10.558 -23.9,10.558 -9.47,0 -17,-3.515 -22.65,-10.558 -5.62,-7.039 -8.45,-16.043 -8.45,-27.039 v -21.524 c 0,-11.093 2.83,-20.168 8.45,-27.207 5.65,-7.043 13.18,-10.558 22.65,-10.558 10.06,0 18.04,3.496 23.93,10.519 5.93,6.992 8.88,16.082 8.88,27.246 z m 16.24,-21.524 c 0,-14.679 -4.55,-26.847 -13.65,-36.523 -9.08,-9.68 -20.89,-14.512 -35.4,-14.512 -14.02,0 -25.42,4.832 -34.19,14.512 -8.76,9.676 -13.15,21.844 -13.15,36.523 v 21.356 c 0,14.629 4.39,26.797 13.15,36.523 8.77,9.727 20.17,14.602 34.19,14.602 14.51,0 26.32,-4.856 35.4,-14.563 9.1,-9.695 13.65,-21.882 13.65,-36.562 v -21.356" /><path
         id="path92"
         style="fill:#234379;fill-opacity:1;fill-rule:nonzero;stroke:none"
         d="M 2800.33,743.352 V 623.301 h -16.24 v 107.277 h -43.37 l -0.09,-43.789 c 0,-21.984 -2.83,-38.059 -8.48,-48.234 -5.68,-10.176 -15.08,-15.254 -28.2,-15.254 h -4.37 v 12.785 h 3.38 c 7.59,0 13.05,3.906 16.41,11.738 3.34,7.832 5.04,20.828 5.11,39.012 l 0.08,56.516 h 75.77" /><path
         id="path94"
         style="fill:#234379;fill-opacity:1;fill-rule:nonzero;stroke:none"
         d="m 2851.29,667.824 h 40.4 l -19.79,54.668 h -0.49 z m 45.27,-13.605 h -50.3 l -11.38,-30.918 h -16.57 l 46.42,120.051 h 13.93 l 45.69,-120.051 h -16.58 l -11.21,30.918" /><path
         id="path96"
         style="fill:#234379;fill-opacity:1;fill-rule:nonzero;stroke:none"
         d="m 2997.65,683.078 v -46.992 h 29.6 c 8.07,0 14.15,2.324 18.22,6.953 4.05,4.637 6.1,10.32 6.1,17.07 0,6.532 -2.03,11.993 -6.07,16.395 -4.04,4.387 -10.13,6.574 -18.25,6.574 z m 57.38,47.5 h -57.38 v -34.719 h 29.6 c 12.79,0 22.77,-3.281 29.88,-9.863 7.12,-6.562 10.68,-15.254 10.68,-26.082 0,-10.891 -3.57,-19.707 -10.72,-26.465 -7.15,-6.769 -17.1,-10.148 -29.84,-10.148 h -45.84 v 120.051 h 73.62 v -12.774" /><path
         id="path98"
         style="fill:#234379;fill-opacity:1;fill-rule:nonzero;stroke:none"
         d="m 3163.87,743.352 h 16.25 V 623.301 h -16.25 v 91.523 l -0.49,0.168 -57.8,-91.691 h -16.24 v 120.051 h 16.24 v -91.438 l 0.49,-0.164 57.8,91.602" /><path
         id="path100"
         style="fill:#234379;fill-opacity:1;fill-rule:nonzero;stroke:none"
         d="m 3295.96,710.879 c 0,-5.535 -1.88,-10.594 -5.61,-15.203 -3.74,-4.582 -8.9,-8.156 -15.5,-10.754 7.43,-2.305 13.1,-5.848 17.03,-10.633 3.93,-4.777 5.89,-10.617 5.89,-17.492 0,-11.055 -4.38,-19.695 -13.15,-25.906 -8.76,-6.223 -20.24,-9.317 -34.42,-9.317 -12.44,0 -23.09,2.949 -32,8.856 -8.89,5.918 -13.22,14.511 -12.94,25.773 l 0.17,0.496 h 15.5 c 0,-6.269 2.72,-11.562 8.16,-15.886 5.44,-4.297 12.46,-6.465 21.11,-6.465 9.78,0 17.45,2.05 23,6.14 5.54,4.102 8.33,9.446 8.33,16.047 0,7.305 -2.54,12.742 -7.58,16.27 -5.06,3.562 -12.53,5.332 -22.44,5.332 h -15.08 v 12.773 h 15.08 c 9.57,0 16.66,1.817 21.28,5.449 4.62,3.621 6.93,8.575 6.93,14.832 0,6.153 -2.49,11.223 -7.47,15.176 -4.96,3.957 -12.32,5.938 -22.05,5.938 -7.75,0 -14.28,-1.942 -19.59,-5.86 -5.3,-3.906 -7.95,-8.738 -7.95,-14.511 h -15.5 l -0.08,0.5 c -0.33,9.675 3.69,17.527 12.07,23.582 8.39,6.054 18.73,9.074 31.05,9.074 14.12,0 25.28,-2.969 33.47,-8.906 8.19,-5.918 12.29,-14.368 12.29,-25.305" /><path
         id="path102"
         style="fill:#234379;fill-opacity:1;fill-rule:nonzero;stroke:none"
         d="m 3414.78,623.301 h -16.24 v 53.019 h -58.31 v -53.019 h -16.24 v 120.051 h 16.24 v -54.25 h 58.31 v 54.25 h 16.24 V 623.301" /><path
         id="path104"
         style="fill:#234379;fill-opacity:1;fill-rule:nonzero;stroke:none"
         d="m 3515.69,678.957 h -54.99 v -42.871 h 63.41 v -12.785 h -79.66 v 120.051 h 78.75 v -12.774 h -62.5 v -38.84 h 54.99 v -12.781" /><path
         id="path106"
         style="fill:#234379;fill-opacity:1;fill-rule:nonzero;stroke:none"
         d="m 3628,661.809 0.16,-0.5 c 0.22,-11.258 -3.74,-20.711 -11.87,-28.309 -8.15,-7.617 -18.88,-11.426 -32.24,-11.426 -13.59,0 -24.64,4.813 -33.19,14.422 -8.55,9.621 -12.82,21.817 -12.82,36.613 v 21.356 c 0,14.797 4.27,26.992 12.82,36.66 8.55,9.629 19.6,14.465 33.19,14.465 13.58,0 24.38,-3.613 32.41,-10.84 8.01,-7.238 11.92,-16.816 11.7,-28.742 l -0.16,-0.496 h -15.59 c 0,8.406 -2.47,15.058 -7.42,19.949 -4.94,4.902 -11.93,7.344 -20.94,7.344 -9.07,0 -16.31,-3.641 -21.69,-10.946 -5.39,-7.304 -8.07,-16.379 -8.07,-27.199 v -21.504 c 0,-10.926 2.68,-20.047 8.07,-27.351 5.38,-7.305 12.62,-10.957 21.69,-10.957 9.01,0 16,2.441 20.94,7.293 4.95,4.882 7.42,11.593 7.42,20.168 H 3628" /><path
         id="path108"
         style="fill:#234379;fill-opacity:1;fill-rule:nonzero;stroke:none"
         d="m 3669.88,667.824 h 40.4 l -19.78,54.668 h -0.5 z m 45.27,-13.605 h -50.3 l -11.37,-30.918 h -16.58 l 46.42,120.051 h 13.94 l 45.68,-120.051 h -16.57 l -11.22,30.918" /><path
         id="path110"
         style="fill:#234379;fill-opacity:1;fill-rule:nonzero;stroke:none"
         d="m 1578.13,540.723 30.6,-88.485 h 0.49 l 30.84,88.485 h 31.49 V 420.676 h -24.07 v 35.781 l 2.31,53.008 -0.5,0.098 -32.16,-88.887 h -16.15 l -32,88.554 -0.49,-0.097 2.31,-52.676 v -35.781 h -24.08 v 120.047 h 31.41" /><path
         id="path112"
         style="fill:#234379;fill-opacity:1;fill-rule:nonzero;stroke:none"
         d="m 1766.13,540.723 h 24.16 V 420.676 h -24.16 v 80.047 l -0.5,0.097 -48.4,-80.144 h -23.99 v 120.047 h 23.99 v -79.981 l 0.5,-0.097 48.4,80.078" /><path
         id="path114"
         style="fill:#234379;fill-opacity:1;fill-rule:nonzero;stroke:none"
         d="m 1836.54,482.746 h 23.75 c 6.7,0 11.79,1.844 15.25,5.508 3.46,3.621 5.2,8.309 5.2,13.953 0,5.773 -1.72,10.547 -5.15,14.309 -3.44,3.757 -8.54,5.644 -15.3,5.644 h -23.75 z m 0,-18.535 v -43.535 h -24.07 v 120.047 h 47.82 c 13.79,0 24.65,-3.524 32.57,-10.555 7.91,-7.051 11.87,-16.289 11.87,-27.805 0,-11.472 -3.96,-20.703 -11.87,-27.695 -7.92,-6.961 -18.78,-10.457 -32.57,-10.457 h -23.75" /><path
         id="path116"
         style="fill:#234379;fill-opacity:1;fill-rule:nonzero;stroke:none"
         d="m 1946.21,479.941 v -40.73 h 20.61 c 6.76,0 11.97,2.012 15.62,6.004 3.65,4.023 5.48,8.937 5.48,14.738 0,5.606 -1.83,10.32 -5.48,14.18 -3.65,3.894 -8.86,5.808 -15.62,5.808 z m 53.1,42.219 h -53.1 v -23.652 h 20.61 c 13.8,0 24.76,-3.594 32.9,-10.813 8.14,-7.195 12.2,-16.523 12.2,-27.937 0,-11.543 -4.08,-20.949 -12.24,-28.203 -8.17,-7.258 -19.12,-10.879 -32.86,-10.879 h -45.77 v 120.047 h 78.26 V 522.16" /><path
         id="path118"
         style="fill:#234379;fill-opacity:1;fill-rule:nonzero;stroke:none"
         d="m 2100.31,540.723 h 24.16 V 420.676 h -24.16 v 80.047 l -0.5,0.097 -48.39,-80.144 h -24 v 120.047 h 24 v -79.981 l 0.49,-0.097 48.4,80.078" /><path
         id="path120"
         style="fill:#234379;fill-opacity:1;fill-rule:nonzero;stroke:none"
         d="m 2237.27,461.574 0.16,-0.5 c 0.22,-12.929 -3.73,-23.183 -11.83,-30.769 -8.11,-7.59 -19.36,-11.379 -33.76,-11.379 -14.46,0 -26.2,4.648 -35.21,13.957 -9.02,9.265 -13.53,21.23 -13.53,35.847 v 23.84 c 0,14.551 4.4,26.524 13.19,35.848 8.8,9.375 20.23,14.023 34.31,14.023 14.84,0 26.44,-3.796 34.79,-11.414 8.34,-7.617 12.42,-17.968 12.21,-31.132 l -0.17,-0.5 h -23.42 c 0,7.921 -1.89,13.984 -5.69,18.214 -3.79,4.188 -9.7,6.297 -17.72,6.297 -7.2,0 -12.92,-2.937 -17.15,-8.777 -4.24,-5.871 -6.36,-13.32 -6.36,-22.356 v -23.984 c 0,-9.168 2.23,-16.687 6.68,-22.519 4.46,-5.868 10.48,-8.778 18.07,-8.778 7.53,0 13.08,2.012 16.69,6.074 3.6,4.024 5.4,10.02 5.4,18.008 h 23.34" /><path
         id="path122"
         style="fill:#234379;fill-opacity:1;fill-rule:nonzero;stroke:none"
         d="m 2295.64,469.484 c 0,21.543 4.17,39.844 12.53,54.883 8.34,15.008 17.82,24.766 28.36,29.219 h 0.5 l 4.38,-12.031 c -7.21,-5.41 -13.27,-14.082 -18.15,-26.055 -4.89,-12.012 -7.33,-27.277 -7.33,-45.852 v -2.136 c 0,-18.645 2.44,-33.946 7.33,-45.879 4.88,-11.973 10.94,-20.715 18.15,-26.289 l -4.38,-11.778 h -0.5 c -10.54,4.454 -20.02,14.188 -28.36,29.188 -8.36,15.012 -12.53,33.312 -12.53,54.922 v 1.808" /><path
         id="path124"
         style="fill:#234379;fill-opacity:1;fill-rule:nonzero;stroke:none"
         d="m 2427.31,540.723 h 24.16 V 420.676 h -24.16 v 80.047 l -0.48,0.097 -48.4,-80.144 h -24 v 120.047 h 24 v -79.981 l 0.49,-0.097 48.39,80.078" /><path
         id="path126"
         style="fill:#234379;fill-opacity:1;fill-rule:nonzero;stroke:none"
         d="m 2570.7,420.676 h -23.99 v 49.863 h -48.98 v -49.863 h -24.08 v 120.047 h 24.08 v -51.61 h 48.98 v 51.61 h 23.99 V 420.676" /><path
         id="path128"
         style="fill:#234379;fill-opacity:1;fill-rule:nonzero;stroke:none"
         d="m 2683.83,461.574 0.16,-0.5 c 0.22,-12.929 -3.73,-23.183 -11.83,-30.769 -8.11,-7.59 -19.37,-11.379 -33.76,-11.379 -14.46,0 -26.2,4.648 -35.21,13.957 -9.02,9.265 -13.52,21.23 -13.52,35.847 v 23.84 c 0,14.551 4.38,26.524 13.19,35.848 8.79,9.375 20.22,14.023 34.3,14.023 14.84,0 26.43,-3.796 34.79,-11.414 8.35,-7.617 12.43,-17.968 12.21,-31.132 l -0.17,-0.5 h -23.41 c 0,7.921 -1.9,13.984 -5.69,18.214 -3.8,4.188 -9.71,6.297 -17.73,6.297 -7.21,0 -12.93,-2.937 -17.15,-8.777 -4.24,-5.871 -6.35,-13.32 -6.35,-22.356 v -23.984 c 0,-9.168 2.23,-16.687 6.68,-22.519 4.45,-5.868 10.47,-8.778 18.06,-8.778 7.52,0 13.09,2.012 16.69,6.074 3.61,4.024 5.41,10.02 5.41,18.008 h 23.33" /><path
         id="path130"
         style="fill:#234379;fill-opacity:1;fill-rule:nonzero;stroke:none"
         d="m 2781.29,522.16 h -33.98 V 420.676 h -24.07 V 522.16 h -33.81 v 18.563 h 91.86 V 522.16" /><path
         id="path132"
         style="fill:#234379;fill-opacity:1;fill-rule:nonzero;stroke:none"
         d="m 2866.8,540.723 h 24.15 V 420.676 h -24.15 v 80.047 l -0.5,0.097 -48.4,-80.144 h -23.99 v 120.047 h 23.99 v -79.981 l 0.49,-0.097 48.41,80.078" /><path
         id="path134"
         style="fill:#234379;fill-opacity:1;fill-rule:nonzero;stroke:none"
         d="m 2996.07,522.16 h -33.96 V 420.676 h -24.08 V 522.16 h -33.8 v 18.563 h 91.84 V 522.16" /><path
         id="path136"
         style="fill:#234379;fill-opacity:1;fill-rule:nonzero;stroke:none"
         d="m 3051.82,487.363 1.89,-6.336 h 0.5 l 22.67,59.696 h 25.48 l -40.98,-97.293 c -3.53,-7.883 -7.63,-13.918 -12.34,-18.137 -4.69,-4.258 -11.44,-6.367 -20.23,-6.367 -1.38,0 -2.95,0.07 -4.7,0.129 -1.77,0.105 -3.08,0.164 -3.95,0.3 l -0.17,18.469 c 0.6,-0.129 1.65,-0.195 3.14,-0.265 1.48,-0.028 2.6,-0.067 3.37,-0.067 4.39,0 7.69,0.957 9.85,2.871 2.18,1.914 3.97,4.813 5.41,8.672 l 1.81,4.52 -42.3,87.168 h 25.98 l 24.57,-53.36" /><path
         id="path138"
         style="fill:#234379;fill-opacity:1;fill-rule:nonzero;stroke:none"
         d="m 3200.81,522.16 h -33.97 V 420.676 h -24.08 V 522.16 h -33.8 v 18.563 h 91.85 V 522.16" /><path
         id="path140"
         style="fill:#234379;fill-opacity:1;fill-rule:nonzero;stroke:none"
         d="m 3252.68,467.676 c 0,-21.082 -4.36,-39.246 -13.08,-54.551 -8.71,-15.312 -18.41,-25.164 -29.06,-29.559 h -0.49 l -4.45,11.778 c 7.09,5.41 13.1,14.121 18.05,26.152 4.94,12.039 7.42,27.371 7.42,46.016 v 2.136 c 0,18.469 -2.51,33.782 -7.51,45.879 -5.01,12.141 -10.99,20.911 -17.96,26.348 l 4.45,11.711 h 0.49 c 10.65,-4.414 20.35,-14.277 29.06,-29.609 8.72,-15.344 13.08,-33.516 13.08,-54.493 v -1.808" /></g></g></svg>