<?xml version="1.0" encoding="UTF-8"?>
<svg id="Layer_2" data-name="Layer 2" xmlns="http://www.w3.org/2000/svg" viewBox="0 0 250.61 38.38">
  <defs>
    <style>
      .cls-1 {
        fill: #20d67d;
      }
    </style>
  </defs>
  <g id="Layer_1-2" data-name="Layer 1">
    <g>
      <path d="M14.78,7.87c0-2.18,.77-4.03,2.3-5.56,1.54-1.54,3.39-2.3,5.56-2.3h1.73c1.75,0,3.25,.63,4.51,1.89,1.26,1.26,1.89,2.76,1.89,4.51h-9.59v31.98h-6.4V7.87Zm22.39,24.11h-6.4V6.4h6.4V31.98Zm6.4,6.4c-1.75,0-3.25-.63-4.51-1.89-1.26-1.26-1.89-2.76-1.89-4.51h9.59V0h6.4V30.51c0,2.18-.77,4.03-2.3,5.56-1.54,1.54-3.39,2.3-5.56,2.3h-1.73Z"/>
      <path d="M61.15,38.38V6.4h6.4V31.98h20.59c1.36,0,2.54-.48,3.52-1.44,.98-.96,1.47-2.12,1.47-3.49V11.32c0-1.36-.49-2.53-1.47-3.49-.98-.96-2.15-1.44-3.52-1.44h-20.59V0h20.98c2,0,3.85,.5,5.53,1.5,1.68,1,3.02,2.36,4,4.06,.98,1.71,1.47,3.56,1.47,5.57V27.25c0,2-.49,3.86-1.47,5.56-.98,1.71-2.31,3.06-4,4.06-1.68,1-3.53,1.5-5.53,1.5h-27.37Z"/>
      <path d="M113.92,15.99h-6.4V0h38.37V6.4h-31.98V15.99Zm31.98,22.39h-38.37v-15.99h6.4v9.59h31.98v6.4Zm-6.4-15.99h-25.58v-6.4h25.58v6.4Z"/>
      <path d="M199.34,0c1.75,0,3.25,.63,4.51,1.89,1.26,1.26,1.89,2.76,1.89,4.51v31.98h-6.4V0Z"/>
      <path d="M0,0C1.75,0,3.25,.63,4.51,1.89c1.26,1.26,1.89,2.76,1.89,4.51v31.98H0V0Z"/>
      <polygon class="cls-1" points="151.52 0 159.2 0 172.02 19.15 159.19 38.38 151.52 38.38 164.42 19.15 151.52 0"/>
      <polygon class="cls-1" points="192.53 0 184.84 0 172.02 19.15 184.85 38.38 192.53 38.38 179.62 19.15 192.53 0"/>
      <path d="M61.15,38.38V6.4h6.4V31.98h20.59c1.36,0,2.54-.48,3.52-1.44,.98-.96,1.47-2.12,1.47-3.49V11.32c0-1.36-.49-2.53-1.47-3.49-.98-.96-2.15-1.44-3.52-1.44h-20.59V0h20.98c2,0,3.85,.5,5.53,1.5,1.68,1,3.02,2.36,4,4.06,.98,1.71,1.47,3.56,1.47,5.57V27.25c0,2-.49,3.86-1.47,5.56-.98,1.71-2.31,3.06-4,4.06-1.68,1-3.53,1.5-5.53,1.5h-27.37Z"/>
      <path d="M223.81,38.38c-2.05,0-3.94-.51-5.69-1.54-1.75-1.02-3.11-2.41-4.09-4.16-.98-1.75-1.45-3.67-1.41-5.76h6.4c-.09,1.37,.35,2.55,1.31,3.55,.96,1,2.12,1.5,3.49,1.5h20.4v-9.59c1.75,0,3.25,.63,4.51,1.89,1.26,1.26,1.89,2.76,1.89,4.51v1.73c0,2.18-.77,4.03-2.3,5.56-1.53,1.54-3.39,2.3-5.56,2.3h-18.93Zm-4.8-22.39c-1.75,0-3.25-.63-4.51-1.89-1.26-1.26-1.89-2.76-1.89-4.51v-1.73c0-2.18,.77-4.03,2.3-5.56C216.45,.77,218.31,0,220.48,0h18.93c2.05,0,3.94,.51,5.69,1.54,1.75,1.02,3.11,2.41,4.09,4.16,.98,1.75,1.45,3.67,1.41,5.76h-6.4c.08-1.36-.35-2.55-1.31-3.55-.96-1-2.12-1.5-3.49-1.5h-20.4V15.99Zm25.2,6.4h-25.2v-6.4h25.2v6.4Z"/>
    </g>
  </g>
</svg>