<svg width="1000" height="238" viewBox="0 0 1000 238" fill="none" xmlns="http://www.w3.org/2000/svg">
<path d="M604.265 0.51709H545.024V47.4894L511.809 14.275L469.919 56.1652L503.133 89.3797H456.161V148.621H503.133L469.919 181.836L511.809 223.726L545.024 190.512V237.484H604.265V190.512L637.48 223.726L679.37 181.836L646.156 148.621H693.128V89.3797H646.156L679.37 56.1652L637.48 14.275L604.265 47.4894V0.51709Z" fill="#C46BFF"/>
<path fill-rule="evenodd" clip-rule="evenodd" d="M104.926 80.4818C102.877 74.3345 102.17 67.8192 102.852 61.3753C103.524 54.9305 105.572 48.7051 108.856 43.1194C120.619 23.1111 145.909 14.492 169.679 20.6632L176.585 31.0732L165.531 39.7824C142.817 33.7142 119.369 42.3591 109.59 58.9403C105.801 65.4485 104.168 72.989 104.926 80.4818V80.4818Z" fill="#C46BFF"/>
<path d="M0 61.9156C0.0366942 59.0174 1.19591 56.2464 3.23379 54.1854C5.28131 52.1143 8.05239 50.9181 10.9639 50.8486C13.9059 50.8812 16.7179 52.0651 18.7971 54.1467C20.8787 56.2259 22.0628 59.0381 22.0954 61.9801C22.0381 64.8891 20.8505 67.6616 18.7842 69.7102C16.6975 71.7615 13.89 72.9132 10.9639 72.9182C8.06228 72.8862 5.28811 71.721 3.23379 69.6715C1.1828 67.6088 0.0218609 64.8244 0 61.9156V61.9156ZM2.08713 81.241H20.0339V150.812H2.08713V81.241Z" fill="#171A1E"/>
<path d="M100.931 108.091V150.813H82.971V110.32C82.971 100.863 77.2764 95.9935 69.1984 95.9935C60.4375 95.9935 53.8927 101.147 53.8927 113.245V150.813H35.9459V81.2418H53.8927V88.972C58.067 82.7106 65.3075 79.2319 74.6223 79.2319C89.4642 79.2964 100.931 89.5904 100.931 108.091Z" fill="#171A1E"/>
<path d="M111.728 128.691L128.155 119.08C131.633 128.098 138.461 133.973 150.546 133.973C162.142 133.973 166.135 129.103 166.135 123.667C166.135 116.426 159.591 113.643 145.122 109.495C130.242 105.179 115.761 98.9171 115.761 80.4162C115.761 61.9154 131.066 51.4797 147.763 51.4797C163.765 51.4797 176.017 59.6866 182.549 73.3818L166.419 82.7095C162.94 75.3272 157.645 70.1867 147.763 70.1867C139.698 70.1867 134.97 74.3609 134.97 79.9266C134.97 85.9046 138.719 89.1127 153.471 93.5576C168.931 98.4276 185.345 103.581 185.345 123.473C185.345 141.704 170.722 152.835 149.992 152.835C130.1 152.758 117.023 143.185 111.728 128.691Z" fill="#171A1E"/>
<path d="M269.382 81.2413V150.813H251.422V142.606C246.423 148.867 238.899 152.758 228.747 152.758C210.233 152.758 194.927 136.757 194.927 116.027C194.927 95.2973 210.233 79.2959 228.747 79.2959C238.899 79.2959 246.423 83.161 251.422 89.4482V81.2413H269.382ZM251.422 116.027C251.422 104.342 243.215 96.4053 232.097 96.4053C220.978 96.4053 212.9 104.342 212.9 116.027C212.9 127.712 221.107 135.649 232.097 135.649C243.086 135.649 251.422 127.725 251.422 116.027Z" fill="#171A1E"/>
<path d="M285.164 49.2393H303.201V150.813H285.164V49.2393Z" fill="#171A1E"/>
<path d="M353.977 136.473C360.934 136.473 366.499 133.562 369.553 129.516L384.034 137.865C377.489 147.334 367.053 152.758 353.693 152.758C330.322 152.758 315.571 136.757 315.571 116.027C315.571 95.2973 330.451 79.2959 352.302 79.2959C372.915 79.2959 387.512 95.5679 387.512 116.027C387.501 118.499 387.268 120.966 386.817 123.396H334.355C336.854 132.582 344.43 136.473 353.977 136.473ZM369.553 109.418C367.337 99.4072 359.813 95.3617 352.302 95.3617C342.703 95.3617 336.159 100.515 334.071 109.418H369.553Z" fill="#171A1E"/>
<path d="M449.288 130.496C449.288 145.518 436.211 152.759 421.318 152.759C407.404 152.759 397.11 146.91 392.098 136.203L407.687 127.43C409.632 133.137 414.361 136.448 421.318 136.448C427.025 136.448 430.916 134.503 430.916 130.47C430.916 120.318 395.023 125.884 395.023 101.392C395.023 87.22 407.12 79.2708 421.46 79.2708C432.733 79.2708 442.473 84.4243 447.897 94.0097L432.591 102.358C431.651 100.204 430.09 98.3779 428.107 97.1145C426.125 95.8512 423.81 95.2097 421.46 95.2722C417.002 95.2722 413.382 97.2177 413.382 100.967C413.382 111.299 449.288 104.896 449.288 130.496Z" fill="#171A1E"/>
<path d="M651.007 127.562V103.701H642.004L627.145 127.562H616.733L634.521 99.4714L618.252 73.3325H628.555L641.896 96.0006H651.007V73.3325H660.009V96.0006H669.119L683.002 73.3325H692.655L676.712 99.0375L694.391 127.562H683.762L669.445 103.701H660.009V127.562H651.007ZM721.49 127.779L698.171 73.3325H708.584L726.154 115.632L740.796 73.3325H750.449L728.215 133.311C723.985 144.808 719.104 147.845 712.814 147.845C709.343 147.845 705.764 146.868 704.137 145.458V136.131C705.764 137.758 708.801 139.276 711.729 139.276C715.091 139.276 718.67 137.866 721.49 127.779ZM759.663 147.085V73.3325H768.231V83.7447C770.943 77.454 777.342 72.2479 788.297 72.2479C802.722 72.2479 811.941 80.2739 811.941 99.2544C811.941 120.621 802.722 128.756 787.212 128.756C778.101 128.756 771.702 124.309 768.665 119.211V147.085H759.663ZM768.665 97.5191V102.725C768.665 114.005 775.607 120.621 785.802 120.621C797.733 120.621 802.83 114.873 802.83 99.7967C802.83 85.2631 796.106 80.3824 785.91 80.3824C774.631 80.3824 768.882 86.6731 768.665 97.5191ZM862.544 127.562V104.135H833.911V127.562H824.909V73.3325H833.911V96.0006H862.544V73.3325H871.546V127.562H862.544ZM889.751 90.2523V77.454C893.33 74.7425 899.838 72.2479 908.189 72.2479C922.072 72.2479 930.423 76.9117 930.423 91.7707V127.562H921.855V118.343C919.035 124.309 912.094 128.43 903.525 128.43C892.788 128.43 885.629 122.682 885.629 111.619C885.629 99.6883 894.089 96.2176 908.514 96.2176H921.421V91.8792C921.421 82.6601 915.998 80.057 908.189 80.057C899.729 80.057 893.438 84.1785 889.751 90.2523ZM905.803 120.079C916.866 120.079 920.879 112.92 921.421 109.233V103.376H908.84C899.078 103.376 894.848 104.894 894.848 111.077C894.848 116.391 898.536 120.079 905.803 120.079ZM982.284 127.562V81.3585H961.243L961.134 85.48C959.724 125.936 951.59 128.213 943.672 128.213C941.937 128.213 940.418 127.996 939.334 127.671V118.018C940.31 118.235 941.286 118.343 942.045 118.343C947.577 118.343 951.807 116.825 952.891 80.8162L953.108 73.3325H991.286V127.562H982.284Z" fill="#171A1E"/>
</svg>
