<?xml version="1.0"?>
<svg width="3226" height="331" xmlns="http://www.w3.org/2000/svg" xmlns:svg="http://www.w3.org/2000/svg">
 <g class="layer">
  <title>Layer 1</title>
  <path d="m2989.09,325.13l66.59,-89.09c-14.7,-4.28 -26.94,-12.7 -36.74,-25.25c-9.49,-12.86 -14.24,-28.02 -14.24,-45.47c0,-16.53 2.76,-30.15 8.27,-40.87c5.51,-10.71 13.01,-18.98 22.5,-24.8c9.8,-6.12 20.67,-10.41 32.61,-12.86c12.24,-2.45 24.95,-3.67 38.11,-3.67l119.4,0l0,242.01l-72.56,0l0,-73.93l-29.39,0l-48.67,73.93l-85.88,0zm126.75,-133.63l37.19,0l0,-46.38l-45,0c-4.9,0 -9.34,0.45 -13.32,1.37c-3.98,0.92 -7.34,2.45 -10.1,4.59c-2.45,1.84 -4.44,4.14 -5.97,6.89c-1.22,2.76 -1.84,5.97 -1.84,9.65c0,4.9 1.23,9.03 3.68,12.4c2.45,3.06 5.66,5.51 9.64,7.34c3.98,1.53 8.27,2.61 12.86,3.22c4.59,0.61 8.88,0.92 12.86,0.92z" fill="black" id="svg_1"/>
  <path d="m2720.82,325.13l0,-242.01l73.01,0l0,129.5c1.84,-2.75 3.68,-5.51 5.51,-8.26c2.15,-2.76 4.29,-5.21 6.43,-7.35l90.01,-113.89l61.54,0l0,242.01l-73.02,0l0,-125.83c-2.14,3.37 -4.44,6.59 -6.89,9.65c-2.45,2.75 -4.9,5.66 -7.34,8.72l-84.96,107.46l-64.29,0z" fill="black" id="svg_2"/>
  <path d="m2447.25,325.13l0,-242.01l73.02,0l0,88.63l80.83,0l0,-88.63l73.01,0l0,242.01l-73.01,0l0,-87.71l-80.83,0l0,87.71l-73.02,0z" fill="black" id="svg_3"/>
  <path d="m2295.62,328.81c-25.1,0 -46.84,-5.06 -65.21,-15.16c-18.06,-10.1 -31.99,-24.34 -41.79,-42.71c-9.79,-18.67 -14.69,-40.56 -14.69,-65.67c0,-25.1 5.05,-47.14 15.15,-66.13c10.1,-18.98 24.19,-33.82 42.25,-44.54c18.37,-10.72 39.95,-16.07 64.75,-16.07c17.76,0 33.68,2.91 47.76,8.72c14.08,5.82 26.02,14.09 35.82,24.8c9.8,10.41 17.3,22.96 22.5,37.66c5.21,14.69 7.66,30.92 7.35,48.68c0,4.59 -0.15,9.18 -0.46,13.77c-0.31,4.29 -1.07,8.73 -2.3,13.32l-160.72,0c0.91,7.65 3.21,14.7 6.88,21.12c3.68,6.43 8.88,11.48 15.62,15.16c6.73,3.67 15.3,5.51 25.71,5.51c7.35,0 13.93,-0.77 19.75,-2.3c6.12,-1.83 11.18,-4.28 15.16,-7.34c3.98,-3.37 6.58,-7.05 7.8,-11.03l71.64,0c-3.98,19.29 -11.63,35.06 -22.96,47.3c-11.33,11.94 -24.8,20.82 -40.41,26.64c-15.62,5.51 -32.15,8.27 -49.6,8.27zm-48.22,-152.47l93.23,0c0,-6.43 -1.69,-12.7 -5.06,-18.83c-3.06,-6.12 -7.96,-11.02 -14.69,-14.69c-6.74,-3.98 -15.46,-5.97 -26.18,-5.97c-10.41,0 -19.13,1.99 -26.17,5.97c-7.04,3.98 -12.25,9.03 -15.62,15.15c-3.36,6.13 -5.2,12.25 -5.51,18.37z" fill="black" id="svg_4"/>
  <path d="m1792.95,325.13l0,-242.01l73.02,0l0,176.8l61.53,0l0,-176.8l73.02,0l0,176.8l62.91,0l0,-176.8l72.56,0l0,242.01l-343.04,0z" fill="black" id="svg_5"/>
  <path d="m1641.31,328.81c-25.1,0 -46.84,-5.06 -65.21,-15.16c-18.06,-10.1 -31.99,-24.34 -41.79,-42.71c-9.79,-18.67 -14.69,-40.56 -14.69,-65.67c0,-25.1 5.05,-47.14 15.15,-66.13c10.11,-18.98 24.19,-33.82 42.25,-44.54c18.37,-10.72 39.95,-16.07 64.75,-16.07c17.76,0 33.68,2.91 47.76,8.72c14.09,5.82 26.03,14.09 35.82,24.8c9.8,10.41 17.3,22.96 22.5,37.66c5.21,14.69 7.66,30.92 7.35,48.67c0,4.6 -0.15,9.19 -0.46,13.78c-0.3,4.29 -1.07,8.73 -2.29,13.32l-160.73,0c0.92,7.65 3.21,14.7 6.89,21.12c3.67,6.43 8.87,11.48 15.61,15.16c6.73,3.67 15.31,5.51 25.72,5.51c7.34,0 13.93,-0.77 19.74,-2.3c6.13,-1.83 11.18,-4.28 15.16,-7.34c3.98,-3.37 6.58,-7.05 7.8,-11.03l71.64,0c-3.98,19.29 -11.63,35.06 -22.96,47.3c-11.33,11.94 -24.8,20.82 -40.41,26.64c-15.61,5.51 -32.15,8.27 -49.6,8.27zm-48.21,-152.47l93.22,0c0,-6.43 -1.69,-12.7 -5.05,-18.83c-3.06,-6.12 -7.96,-11.02 -14.7,-14.69c-6.73,-3.98 -15.46,-5.97 -26.17,-5.97c-10.41,0 -19.14,1.99 -26.18,5.97c-7.04,3.98 -12.25,9.03 -15.61,15.15c-3.37,6.13 -5.21,12.25 -5.51,18.37z" fill="black" id="svg_6"/>
  <path d="m1239.31,325.13l0,-325.13l131.8,0c25.1,0 46.99,3.67 65.67,11.02c18.98,7.35 33.68,19.29 44.08,35.82c10.72,16.53 16.08,38.88 16.08,67.05c0,26.02 -5.67,47.76 -16.99,65.21c-11.33,17.45 -26.79,30.46 -46.39,39.03c-19.59,8.27 -41.94,12.4 -67.04,12.4l-52.81,0l0,94.6l-74.4,0zm74.4,-160.73l52.81,0c17.45,0 31.22,-4.28 41.33,-12.86c10.41,-8.57 15.61,-21.12 15.61,-37.65c0,-15 -4.44,-26.18 -13.32,-33.53c-8.57,-7.65 -22.8,-11.48 -42.7,-11.48l-53.73,0l0,95.52z" fill="black" id="svg_7"/>
  <path clip-rule="evenodd" d="m1078.06,6.02c44.87,0 81.25,36.38 81.25,81.25c0,40.5 -29.63,74.07 -68.4,80.23l0,2.04c38.77,6.15 68.4,39.73 68.4,80.23l0,81.25c-0.21,0 -60.61,0 -81.25,0c-40.5,0 -74.08,-29.63 -80.23,-68.4l-2.04,0c-6.15,38.77 -39.73,68.4 -80.23,68.4c-44.88,0 -81.25,-36.37 -81.25,-81.25c0,-40.81 30.1,-74.6 69.31,-80.37l0,-1.76c-39.21,-5.77 -69.31,-39.56 -69.31,-80.37c0,-44.87 36.38,-81.25 81.25,-81.25c40.5,0 74.08,29.63 80.24,68.4l2.03,0c6.15,-38.77 39.73,-68.4 80.23,-68.4zm-81.25,97.47c0,89.73 0,42.98 0,131.24l1.4,0c6.27,-33.54 33.16,-59.82 67.01,-65.2l0,-2.03c-33.46,-5.31 -60.11,-31.04 -66.79,-64.01l-1.62,0z" fill="black" fill-rule="evenodd" id="svg_8"/>
  <path clip-rule="evenodd" d="m338.43,89.56c37.9,-13.9 93.04,-14.2 131.76,0c22.66,8.32 40.53,26.07 48.9,48.58c9.57,25.76 13.06,57.05 10.3,86.88l-49.17,0l0,0.08l-130.35,0c0.82,5.15 1.96,10.12 3.43,14.74c3.72,11.72 11.66,20.96 21.73,25.29c17.2,7.39 41.71,7.23 58.56,0c6.55,-2.82 12.21,-7.72 16.38,-14.03l75.28,0c-1.64,7.2 -3.7,14.17 -6.16,20.81c-8.37,22.51 -26.24,40.26 -48.9,48.57c-37.91,13.91 -93.05,14.2 -131.76,0c-22.66,-8.31 -40.53,-26.06 -48.9,-48.57c-14.86,-39.98 -15.06,-93.26 0,-133.77c8.37,-22.51 26.24,-40.26 48.9,-48.58zm95.16,55.36c-17.21,-7.4 -41.71,-7.24 -58.56,0c-10.07,4.33 -18.01,13.57 -21.73,25.28c-1.49,4.69 -2.64,9.7 -3.46,14.9l108.94,0c-0.82,-5.21 -1.98,-10.23 -3.46,-14.9c-3.72,-11.71 -11.66,-20.95 -21.73,-25.28z" fill="black" fill-rule="evenodd" id="svg_9"/>
  <path d="m648.51,151.03c35.26,0 70.53,0 105.8,0l0,-67.01l-35.56,0c-35.28,0 -60.77,0 -80.69,2.64c-20.36,2.7 -33.25,7.99 -43.11,17.71c-9.85,9.72 -15.23,22.43 -17.96,42.5c-2.68,19.62 -2.68,44.75 -2.68,79.54l0,98.59l74.2,0l0,-173.97z" fill="black" id="svg_10"/>
  <path clip-rule="evenodd" d="m131.81,0.01c22.65,0.16 45.28,3.55 64.05,10.25c22.66,8.09 40.52,25.36 48.9,47.27c13.22,34.61 13.22,81.12 0,115.73c-6.49,16.97 -23.52,40.1 -49.24,48.66c-23.36,7.77 -44.09,8.72 -61.64,8.8c-19.31,0.08 -49.64,-2.57 -62.37,-14l-4.42,3.71c4.1,6.59 6.32,12.24 6.91,19.95c2.51,33.09 6.02,84.77 6.02,84.77l-80.02,0l0,-325.15l131.81,0l0,0.01zm-57.81,165.58l59.35,0l0,-0.07c9.28,-0.31 18.36,-1.9 25.91,-4.74c10.07,-3.79 18.01,-11.88 21.73,-22.13c4.76,-13.13 4.53,-34.02 0,-46.51c-3.72,-10.26 -11.66,-18.34 -21.73,-22.13c-7.63,-2.87 -16.7,-4.44 -25.91,-4.75l0,-0.06l-59.35,0l0,100.39z" fill="black" fill-rule="evenodd" id="svg_11"/>
 </g>
</svg>