<?xml version="1.0" encoding="UTF-8"?> <svg xmlns="http://www.w3.org/2000/svg" width="162" height="117" viewBox="0 0 162 117" fill="none"> <path d="M0 112.677L42.051 4.5908C42.051 4.5908 46.8759 -4.24495 55.8362 4.5908C64.7966 13.4265 79.9665 27.0443 79.9665 27.0443L109.58 0.537002C109.58 0.537002 117.168 -2.18163 119.925 4.61509C122.682 11.4118 162.001 112.677 162.001 112.677C162.001 112.677 153.724 119.474 146.831 112.677L124.061 52.174L141.292 113.357C141.292 113.357 133.71 118.114 127.507 108.599L110.275 56.2581L120.657 104.545C120.657 104.545 110.312 102.506 105.488 80.7505C100.663 58.995 96.5272 39.9641 96.5272 39.9641L79.985 54.923L65.5043 41.3235L57.2332 80.0709C57.2332 80.0709 51.6945 101.147 41.3802 104.545L51.7314 55.633L34.4999 109.333C34.4999 109.333 25.5334 117.489 20.0193 113.411L37.2508 52.9082L14.4806 114.091C14.4806 114.091 5.51408 119.498 0 112.677Z" fill="#262626"></path> </svg> 