<?xml version="1.0"?>
<svg width="76" height="14" xmlns="http://www.w3.org/2000/svg" xmlns:svg="http://www.w3.org/2000/svg">
 <g class="layer">
  <title>Layer 1</title>
  <path clip-rule="evenodd" d="m2.07,10.27c1.14,0 2.07,0.92 2.07,2.07c0,1.14 -0.93,2.07 -2.07,2.07c-1.14,0 -2.07,-0.93 -2.07,-2.07c0,-1.15 0.93,-2.07 2.07,-2.07z" fill="#1A2026" fill-rule="evenodd" id="svg_2"/>
  <path clip-rule="evenodd" d="m8.01,3.68c1.14,0 2.07,0.93 2.07,2.07c0,1.15 -0.93,2.07 -2.07,2.07c-1.14,0 -2.07,-0.92 -2.07,-2.07c0,-1.14 0.93,-2.07 2.07,-2.07z" fill="#1A2026" fill-rule="evenodd" id="svg_3"/>
  <path clip-rule="evenodd" d="m2.07,3.68c1.14,0 2.07,0.93 2.07,2.07c0,1.15 -0.93,2.07 -2.07,2.07c-1.14,0 -2.07,-0.92 -2.07,-2.07c0,-1.14 0.93,-2.07 2.07,-2.07z" fill="#EC008C" fill-rule="evenodd" id="svg_4"/>
  <path clip-rule="evenodd" d="m8,10.27c1.15,0 2.07,0.92 2.07,2.06c0,1.14 -0.92,2.07 -2.07,2.07c-1.14,0 -2.06,-0.93 -2.06,-2.07c0,-1.14 0.92,-2.06 2.06,-2.06z" fill="#00AEEF" fill-rule="evenodd" id="svg_5"/>
  <path clip-rule="evenodd" d="m17.47,9.15c0,0.32 0.05,0.63 0.17,0.91c0.12,0.28 0.28,0.52 0.48,0.72c0.21,0.21 0.45,0.37 0.73,0.49c0.27,0.12 0.57,0.18 0.9,0.18c0.31,0 0.6,-0.06 0.85,-0.18c0.26,-0.12 0.47,-0.28 0.64,-0.5c0.18,-0.21 0.31,-0.46 0.4,-0.74c0.1,-0.28 0.14,-0.58 0.14,-0.92l0,-3.96c0,-0.2 0.04,-0.4 0.12,-0.57c0.09,-0.18 0.19,-0.34 0.33,-0.47c0.13,-0.13 0.29,-0.24 0.46,-0.31c0.18,-0.08 0.37,-0.12 0.57,-0.12c0.2,0 0.39,0.04 0.56,0.12c0.17,0.07 0.31,0.18 0.44,0.31c0.13,0.13 0.23,0.29 0.3,0.47c0.08,0.17 0.11,0.37 0.11,0.57l0,3.91c0,0.73 -0.12,1.42 -0.36,2.07c-0.25,0.65 -0.59,1.22 -1.02,1.7c-0.43,0.49 -0.95,0.87 -1.56,1.15c-0.6,0.28 -1.26,0.42 -1.98,0.42c-0.72,0 -1.38,-0.14 -2.01,-0.41c-0.63,-0.28 -1.18,-0.66 -1.65,-1.14c-0.47,-0.47 -0.84,-1.03 -1.11,-1.67c-0.27,-0.64 -0.41,-1.33 -0.41,-2.06l0,-3.97c0,-0.2 0.04,-0.4 0.12,-0.57c0.07,-0.18 0.17,-0.34 0.3,-0.47c0.13,-0.13 0.28,-0.24 0.46,-0.31c0.17,-0.08 0.36,-0.12 0.56,-0.12c0.2,0 0.39,0.04 0.56,0.12c0.18,0.07 0.33,0.18 0.46,0.31c0.14,0.13 0.24,0.29 0.32,0.47c0.08,0.17 0.12,0.37 0.12,0.57l0,4z" fill="#1A2026" fill-rule="evenodd" id="svg_6"/>
  <path d="m41.98,1.34l0,7.84c0,0.36 0.04,0.71 0.11,1.04c0.06,0.34 0.16,0.67 0.3,0.99c0.14,0.31 0.3,0.61 0.48,0.89c0.19,0.28 0.39,0.54 0.63,0.78c0.23,0.23 0.48,0.44 0.75,0.63c0.27,0.19 0.56,0.35 0.87,0.49c0.3,0.14 0.62,0.24 0.95,0.3c0.33,0.08 0.67,0.11 1.02,0.11c0.35,0 0.69,-0.03 1.02,-0.11c0.33,-0.06 0.65,-0.16 0.96,-0.3c0.31,-0.13 0.59,-0.3 0.86,-0.49c0.28,-0.19 0.52,-0.4 0.76,-0.63c0.23,-0.24 0.43,-0.5 0.61,-0.78c0.19,-0.28 0.35,-0.58 0.48,-0.89c0.27,-0.63 0.4,-1.31 0.4,-2.03c0,-0.36 -0.03,-0.71 -0.1,-1.05c-0.07,-0.34 -0.17,-0.66 -0.3,-0.97l0,-0.01c-0.14,-0.32 -0.3,-0.62 -0.47,-0.89c-0.19,-0.28 -0.39,-0.54 -0.62,-0.77c-0.24,-0.24 -0.48,-0.45 -0.76,-0.64c-0.26,-0.19 -0.54,-0.35 -0.85,-0.48l-0.01,-0.01c-0.31,-0.14 -0.63,-0.24 -0.96,-0.3c-0.33,-0.07 -0.67,-0.11 -1.02,-0.11c-0.22,0 -0.42,0.01 -0.62,0.04c-0.2,0.03 -0.4,0.07 -0.6,0.11c-0.19,0.06 -0.38,0.12 -0.56,0.19c-0.18,0.07 -0.36,0.15 -0.53,0.23c-0.03,0.02 -0.06,0.04 -0.11,0.04c-0.11,0 -0.2,-0.09 -0.2,-0.21l0,-3.01c0,-0.1 0,-0.19 -0.02,-0.28c-0.02,-0.09 -0.04,-0.17 -0.07,-0.26c-0.03,-0.08 -0.07,-0.15 -0.11,-0.22c-0.04,-0.07 -0.09,-0.14 -0.15,-0.19l0,0c-0.06,-0.06 -0.11,-0.12 -0.18,-0.16c-0.06,-0.05 -0.14,-0.09 -0.21,-0.13c-0.15,-0.06 -0.31,-0.1 -0.49,-0.1c-0.09,0 -0.17,0.01 -0.25,0.03c-0.08,0.01 -0.16,0.04 -0.24,0.07c-0.07,0.04 -0.14,0.08 -0.21,0.13c-0.07,0.04 -0.13,0.1 -0.19,0.16c-0.06,0.06 -0.11,0.12 -0.15,0.19c-0.05,0.07 -0.09,0.14 -0.12,0.23c-0.03,0.08 -0.06,0.17 -0.07,0.25c-0.02,0.09 -0.03,0.18 -0.03,0.28zm2.7,8.88c-0.14,-0.32 -0.21,-0.67 -0.21,-1.04c0,-0.18 0.02,-0.36 0.06,-0.53c0.03,-0.18 0.08,-0.35 0.15,-0.51c0.07,-0.16 0.15,-0.31 0.25,-0.45c0.09,-0.14 0.2,-0.27 0.32,-0.4c0.12,-0.12 0.25,-0.23 0.38,-0.32c0.14,-0.1 0.29,-0.18 0.45,-0.25c0.16,-0.07 0.32,-0.12 0.49,-0.16c0.17,-0.03 0.34,-0.05 0.52,-0.05c0.18,0 0.35,0.02 0.52,0.05c0.17,0.04 0.34,0.09 0.5,0.16c0.16,0.07 0.3,0.15 0.44,0.25c0.14,0.09 0.27,0.2 0.38,0.32c0.12,0.13 0.22,0.26 0.32,0.4c0.09,0.14 0.17,0.29 0.23,0.45c0.07,0.16 0.12,0.33 0.16,0.51c0.03,0.17 0.05,0.35 0.05,0.53c0,0.18 -0.02,0.36 -0.05,0.53c-0.03,0.17 -0.08,0.33 -0.15,0.49l-0.01,0.02c-0.06,0.16 -0.14,0.31 -0.23,0.45c-0.1,0.14 -0.2,0.28 -0.32,0.4c-0.11,0.12 -0.24,0.23 -0.38,0.32c-0.14,0.1 -0.28,0.18 -0.44,0.25c-0.16,0.07 -0.33,0.12 -0.5,0.16c-0.17,0.03 -0.34,0.05 -0.52,0.05c-0.18,0 -0.35,-0.02 -0.52,-0.05c-0.17,-0.04 -0.33,-0.09 -0.49,-0.16c-0.16,-0.07 -0.31,-0.15 -0.45,-0.25c-0.13,-0.09 -0.26,-0.2 -0.38,-0.32c-0.12,-0.12 -0.23,-0.26 -0.32,-0.4c-0.1,-0.13 -0.18,-0.28 -0.25,-0.45z" fill="#1A2026" id="svg_7"/>
  <path d="m56.63,11.15c-0.16,-0.15 -0.3,-0.33 -0.42,-0.53c-0.02,-0.03 -0.04,-0.07 -0.04,-0.12c0,-0.11 0.09,-0.2 0.2,-0.2l6.03,0c0.19,0 0.36,-0.02 0.5,-0.08c0.15,-0.06 0.28,-0.14 0.39,-0.25c0.11,-0.11 0.19,-0.23 0.25,-0.37c0.05,-0.15 0.08,-0.31 0.08,-0.5l0,0c0,-0.35 -0.04,-0.7 -0.11,-1.04c-0.08,-0.33 -0.18,-0.65 -0.32,-0.97c-0.14,-0.31 -0.3,-0.6 -0.48,-0.87c-0.19,-0.28 -0.4,-0.53 -0.63,-0.76c-0.23,-0.24 -0.48,-0.45 -0.75,-0.63l0,0c-0.27,-0.18 -0.56,-0.34 -0.88,-0.48c-0.31,-0.13 -0.62,-0.23 -0.95,-0.3c-0.33,-0.06 -0.67,-0.09 -1.01,-0.09c-0.36,0 -0.7,0.03 -1.03,0.1c-0.33,0.06 -0.65,0.17 -0.96,0.3c-0.31,0.14 -0.6,0.31 -0.87,0.49c-0.28,0.19 -0.53,0.4 -0.76,0.63c-0.24,0.24 -0.45,0.5 -0.63,0.77c-0.19,0.28 -0.35,0.58 -0.48,0.89c-0.14,0.32 -0.24,0.65 -0.31,0.99c-0.07,0.34 -0.1,0.69 -0.1,1.05c0,0.36 0.03,0.72 0.1,1.05c0.07,0.34 0.17,0.67 0.31,0.98c0.13,0.32 0.29,0.62 0.48,0.89c0.18,0.28 0.39,0.54 0.63,0.78c0.23,0.24 0.48,0.45 0.76,0.64c0.27,0.18 0.56,0.34 0.87,0.48c0.31,0.14 0.63,0.24 0.96,0.31c0.33,0.07 0.67,0.1 1.03,0.1c0.2,0 0.4,0 0.58,-0.02c0.18,-0.01 0.35,-0.03 0.51,-0.06c0.16,-0.03 0.31,-0.06 0.44,-0.1c0.13,-0.03 0.26,-0.07 0.38,-0.11c0.12,-0.05 0.23,-0.09 0.34,-0.14c0.1,-0.05 0.19,-0.11 0.28,-0.16c0.1,-0.05 0.18,-0.11 0.26,-0.17c0.07,-0.05 0.15,-0.11 0.22,-0.16c0.07,-0.06 0.13,-0.13 0.18,-0.19c0.06,-0.07 0.11,-0.13 0.14,-0.2l0.01,0c0.03,-0.07 0.07,-0.14 0.09,-0.22c0.02,-0.07 0.04,-0.14 0.05,-0.21c0.01,-0.07 0.01,-0.15 0.01,-0.22c0,-0.08 -0.01,-0.15 -0.03,-0.22c-0.02,-0.08 -0.04,-0.15 -0.06,-0.21l0,-0.01c-0.03,-0.07 -0.06,-0.14 -0.09,-0.2l-0.01,0c-0.03,-0.06 -0.07,-0.12 -0.12,-0.18c-0.04,-0.05 -0.09,-0.11 -0.14,-0.15c-0.05,-0.05 -0.11,-0.09 -0.17,-0.13c-0.05,-0.03 -0.11,-0.07 -0.18,-0.09c-0.09,-0.04 -0.18,-0.06 -0.28,-0.07c-0.09,-0.01 -0.2,0 -0.3,0.01c-0.1,0.02 -0.21,0.05 -0.32,0.1c-0.11,0.05 -0.22,0.12 -0.34,0.2l-0.02,0.01c-0.09,0.07 -0.19,0.12 -0.29,0.17c-0.11,0.04 -0.22,0.08 -0.34,0.11c-0.11,0.02 -0.23,0.04 -0.37,0.06c-0.14,0.01 -0.28,0.01 -0.43,0.01c-0.24,0 -0.47,-0.02 -0.69,-0.07c-0.22,-0.06 -0.42,-0.13 -0.62,-0.24c-0.21,-0.1 -0.39,-0.24 -0.55,-0.4zm4,-3.83c0.16,0.18 0.3,0.39 0.4,0.63c0.02,0.03 0.03,0.06 0.03,0.09c0,0.12 -0.09,0.21 -0.2,0.21l-4.57,0c-0.03,0 -0.06,-0.01 -0.09,-0.02c-0.1,-0.05 -0.14,-0.17 -0.1,-0.27c0.11,-0.23 0.24,-0.43 0.4,-0.61c0.16,-0.18 0.34,-0.34 0.56,-0.46c0.21,-0.13 0.44,-0.22 0.69,-0.28c0.24,-0.07 0.51,-0.1 0.79,-0.1c0.28,0 0.55,0.03 0.8,0.09c0.25,0.06 0.49,0.14 0.7,0.26c0.23,0.12 0.42,0.27 0.59,0.46z" fill="#1A2026" id="svg_8"/>
  <path d="m68.67,11.88c-0.08,-0.02 -0.17,-0.03 -0.26,-0.03c-0.13,0 -0.26,-0.01 -0.38,-0.04c-0.12,-0.03 -0.23,-0.08 -0.33,-0.14c-0.11,-0.07 -0.2,-0.16 -0.26,-0.27c-0.05,-0.12 -0.08,-0.24 -0.08,-0.39l0,-9.59c0,-0.09 -0.01,-0.18 -0.02,-0.26c-0.02,-0.08 -0.05,-0.16 -0.08,-0.24c-0.04,-0.08 -0.08,-0.15 -0.13,-0.22c-0.05,-0.07 -0.1,-0.13 -0.16,-0.19c-0.05,-0.06 -0.12,-0.11 -0.19,-0.15c-0.07,-0.05 -0.14,-0.09 -0.21,-0.12l-0.01,0c-0.08,-0.03 -0.16,-0.06 -0.24,-0.08c-0.09,-0.01 -0.17,-0.02 -0.26,-0.02c-0.08,0 -0.16,0.01 -0.24,0.02c-0.07,0.02 -0.14,0.04 -0.22,0.07c-0.07,0.04 -0.13,0.08 -0.2,0.12c-0.06,0.04 -0.11,0.09 -0.17,0.15l0,0c-0.05,0.06 -0.1,0.12 -0.15,0.19c-0.04,0.07 -0.08,0.14 -0.11,0.22c-0.03,0.08 -0.06,0.16 -0.07,0.25c-0.02,0.08 -0.03,0.17 -0.03,0.26l0,9.59c0,0.25 0.03,0.49 0.07,0.72c0.05,0.22 0.11,0.44 0.2,0.64l0,0.01c0.1,0.2 0.2,0.4 0.33,0.58c0.12,0.17 0.26,0.33 0.42,0.48c0.15,0.15 0.33,0.28 0.51,0.4c0.19,0.12 0.39,0.22 0.6,0.31c0.21,0.08 0.43,0.14 0.66,0.19c0.22,0.04 0.45,0.06 0.68,0.07l0.07,0c0.09,0 0.18,-0.01 0.26,-0.03c0.08,-0.01 0.15,-0.03 0.22,-0.06l0.02,-0.01c0.07,-0.03 0.14,-0.06 0.2,-0.11c0.07,-0.04 0.13,-0.09 0.18,-0.14c0.05,-0.06 0.1,-0.12 0.14,-0.18c0.04,-0.07 0.08,-0.14 0.11,-0.21l0,0c0.03,-0.08 0.05,-0.16 0.07,-0.25c0.01,-0.08 0.02,-0.16 0.02,-0.26c0,-0.09 -0.01,-0.17 -0.02,-0.26c-0.02,-0.08 -0.04,-0.16 -0.07,-0.25c-0.03,-0.08 -0.07,-0.15 -0.11,-0.22c-0.04,-0.07 -0.09,-0.13 -0.14,-0.19c-0.06,-0.06 -0.12,-0.11 -0.18,-0.16c-0.07,-0.05 -0.14,-0.09 -0.22,-0.12c-0.07,-0.04 -0.14,-0.06 -0.22,-0.08z" fill="#1A2026" id="svg_9"/>
  <path d="m74.85,11.88c-0.08,-0.02 -0.17,-0.03 -0.25,-0.03c-0.14,0 -0.26,-0.01 -0.38,-0.04c-0.12,-0.03 -0.23,-0.08 -0.33,-0.14c-0.11,-0.07 -0.2,-0.16 -0.26,-0.27c-0.05,-0.12 -0.08,-0.24 -0.08,-0.39l0,-9.59c0,-0.09 -0.01,-0.18 -0.03,-0.26c-0.01,-0.08 -0.04,-0.16 -0.08,-0.24c-0.03,-0.08 -0.07,-0.16 -0.12,-0.22c-0.05,-0.07 -0.1,-0.13 -0.16,-0.19c-0.06,-0.06 -0.12,-0.11 -0.19,-0.15c-0.07,-0.05 -0.15,-0.09 -0.22,-0.12l-0.01,0c-0.07,-0.03 -0.16,-0.06 -0.24,-0.08c-0.08,-0.01 -0.16,-0.02 -0.25,-0.02c-0.09,0 -0.16,0.01 -0.24,0.02c-0.08,0.02 -0.15,0.04 -0.22,0.07c-0.07,0.04 -0.14,0.08 -0.2,0.12c-0.06,0.05 -0.12,0.09 -0.17,0.15l-0.01,0c-0.05,0.06 -0.1,0.12 -0.14,0.19c-0.04,0.07 -0.08,0.14 -0.11,0.21l0,0.01c-0.04,0.08 -0.06,0.16 -0.08,0.25c-0.01,0.08 -0.02,0.17 -0.02,0.26l0,9.59c0,0.25 0.02,0.49 0.07,0.72c0.04,0.22 0.11,0.44 0.2,0.64l0,0.01c0.09,0.2 0.2,0.4 0.32,0.58c0.13,0.17 0.27,0.33 0.43,0.48c0.15,0.15 0.32,0.29 0.51,0.4c0.18,0.12 0.38,0.22 0.59,0.31c0.21,0.08 0.43,0.14 0.66,0.19c0.22,0.04 0.45,0.06 0.69,0.07l0.07,0c0.09,0 0.17,-0.01 0.26,-0.03c0.08,-0.01 0.16,-0.03 0.23,-0.07c0.07,-0.02 0.15,-0.06 0.21,-0.1c0.06,-0.05 0.12,-0.1 0.17,-0.15l0,0c0.11,-0.11 0.19,-0.24 0.26,-0.4c0.03,-0.07 0.05,-0.15 0.06,-0.24c0.02,-0.08 0.03,-0.16 0.03,-0.26c0,-0.09 -0.01,-0.18 -0.03,-0.26c-0.01,-0.08 -0.03,-0.16 -0.07,-0.25c-0.06,-0.15 -0.14,-0.29 -0.25,-0.41c-0.05,-0.06 -0.11,-0.11 -0.18,-0.16c-0.06,-0.04 -0.13,-0.09 -0.21,-0.12c-0.07,-0.04 -0.15,-0.06 -0.23,-0.08z" fill="#1A2026" id="svg_10"/>
  <path d="m40.27,13.63c0.07,-0.15 0.1,-0.31 0.1,-0.49l0,-7.65c0,-0.09 -0.01,-0.18 -0.03,-0.26c-0.01,-0.08 -0.03,-0.16 -0.06,-0.24c-0.03,-0.08 -0.07,-0.15 -0.11,-0.21c-0.04,-0.07 -0.09,-0.13 -0.15,-0.19c-0.06,-0.05 -0.12,-0.1 -0.18,-0.15c-0.07,-0.05 -0.14,-0.08 -0.21,-0.12c-0.07,-0.03 -0.14,-0.05 -0.22,-0.07c-0.08,-0.01 -0.16,-0.02 -0.25,-0.02c-0.09,0 -0.17,0.01 -0.25,0.02c-0.08,0.02 -0.17,0.04 -0.24,0.08c-0.08,0.03 -0.16,0.07 -0.22,0.11c-0.07,0.05 -0.13,0.1 -0.19,0.15c-0.06,0.06 -0.11,0.12 -0.16,0.19c-0.04,0.07 -0.08,0.14 -0.11,0.22c-0.07,0.15 -0.1,0.31 -0.1,0.49l0,7.65c0,0.09 0,0.17 0.02,0.25l0,0.01c0.02,0.08 0.04,0.16 0.08,0.23c0.03,0.08 0.07,0.16 0.11,0.22c0.05,0.07 0.1,0.13 0.16,0.19c0.06,0.05 0.12,0.1 0.19,0.15c0.06,0.05 0.13,0.08 0.21,0.12c0.07,0.03 0.15,0.05 0.23,0.07c0.08,0.01 0.16,0.02 0.25,0.02c0.09,0 0.17,-0.01 0.25,-0.02c0.07,-0.02 0.15,-0.04 0.23,-0.07c0.07,-0.04 0.14,-0.07 0.21,-0.12c0.06,-0.05 0.12,-0.1 0.18,-0.15c0.05,-0.06 0.11,-0.12 0.15,-0.19c0.04,-0.06 0.08,-0.14 0.11,-0.22z" fill="#1A2026" id="svg_11"/>
  <path d="m37.8,1.14c-0.02,0.09 -0.03,0.18 -0.03,0.28c0,0.09 0.01,0.18 0.03,0.27l0,0.01c0.02,0.09 0.04,0.17 0.08,0.25c0.04,0.09 0.08,0.16 0.12,0.24c0.05,0.07 0.11,0.13 0.17,0.2l0,0c0.06,0.06 0.13,0.12 0.2,0.17c0.07,0.05 0.14,0.09 0.23,0.13l0,0c0.07,0.03 0.16,0.06 0.24,0.08c0.09,0.01 0.18,0.03 0.27,0.03c0.1,0 0.18,-0.02 0.26,-0.03c0.09,-0.02 0.17,-0.05 0.25,-0.08c0.09,-0.04 0.17,-0.08 0.24,-0.13c0.07,-0.05 0.14,-0.11 0.2,-0.17c0.07,-0.07 0.12,-0.13 0.17,-0.21c0.05,-0.07 0.09,-0.14 0.13,-0.23c0.03,-0.08 0.06,-0.16 0.08,-0.25c0.02,-0.09 0.02,-0.18 0.02,-0.28c0,-0.1 0,-0.19 -0.02,-0.28c-0.02,-0.1 -0.05,-0.18 -0.08,-0.26c-0.04,-0.09 -0.08,-0.17 -0.13,-0.24c-0.05,-0.07 -0.1,-0.14 -0.16,-0.2c-0.07,-0.06 -0.14,-0.12 -0.21,-0.16c-0.07,-0.05 -0.15,-0.09 -0.23,-0.13l-0.01,0c-0.08,-0.04 -0.16,-0.06 -0.25,-0.08c-0.08,-0.02 -0.16,-0.03 -0.26,-0.03c-0.09,0 -0.18,0.01 -0.27,0.03c-0.08,0.02 -0.17,0.04 -0.25,0.07c-0.07,0.04 -0.15,0.09 -0.22,0.14c-0.08,0.04 -0.14,0.1 -0.2,0.16c-0.06,0.06 -0.12,0.13 -0.17,0.2c-0.05,0.07 -0.09,0.15 -0.12,0.24c-0.04,0.08 -0.06,0.16 -0.08,0.26z" fill="#1A2026" id="svg_12"/>
  <path d="m36.19,12.96c0,0.21 -0.04,0.4 -0.11,0.57c-0.07,0.18 -0.17,0.33 -0.3,0.46c-0.13,0.14 -0.27,0.24 -0.45,0.31c-0.17,0.07 -0.35,0.11 -0.55,0.11c-0.2,0 -0.39,-0.04 -0.57,-0.11c-0.18,-0.07 -0.33,-0.17 -0.47,-0.31c-0.14,-0.13 -0.24,-0.28 -0.33,-0.46c-0.07,-0.17 -0.11,-0.36 -0.11,-0.57l0,-4.05c0,-0.03 0,-0.06 0.01,-0.08c-0.01,-0.3 -0.08,-0.59 -0.19,-0.86c-0.12,-0.27 -0.27,-0.5 -0.46,-0.71c-0.2,-0.2 -0.42,-0.35 -0.68,-0.47c-0.26,-0.11 -0.54,-0.17 -0.85,-0.17c-0.32,0 -0.61,0.06 -0.87,0.18c-0.27,0.12 -0.49,0.28 -0.68,0.48c-0.19,0.21 -0.34,0.45 -0.44,0.73c-0.1,0.27 -0.15,0.58 -0.15,0.9l0,4.05c0,0.21 -0.04,0.4 -0.12,0.57c-0.07,0.18 -0.17,0.33 -0.3,0.46c-0.12,0.14 -0.27,0.24 -0.44,0.31c-0.17,0.07 -0.36,0.11 -0.56,0.11c-0.2,0 -0.39,-0.04 -0.57,-0.11c-0.17,-0.07 -0.33,-0.17 -0.46,-0.31c-0.13,-0.13 -0.24,-0.28 -0.32,-0.46c-0.08,-0.17 -0.13,-0.36 -0.13,-0.57l0,-4.05c0,-0.73 0.13,-1.41 0.39,-2.05c0.26,-0.64 0.62,-1.19 1.07,-1.67c0.45,-0.47 0.98,-0.84 1.6,-1.12c0.61,-0.27 1.27,-0.4 1.98,-0.4c0.71,0 1.38,0.13 1.99,0.4c0.62,0.28 1.15,0.65 1.61,1.12c0.46,0.48 0.81,1.03 1.07,1.67c0.26,0.64 0.39,1.32 0.39,2.05l0,4.05z" fill="#1A2026" id="svg_13"/>
 </g>
</svg>