<?xml version="1.0" encoding="UTF-8"?>
<svg id="_Слой_2" data-name="Слой 2" xmlns="http://www.w3.org/2000/svg" xmlns:xlink="http://www.w3.org/1999/xlink" viewBox="0 0 980.31 1215.8">
  <defs>
    <style>
      .cls-1 {
        fill: url(#_Безымянный_градиент_46-21);
      }

      .cls-1, .cls-2, .cls-3, .cls-4, .cls-5, .cls-6, .cls-7, .cls-8, .cls-9, .cls-10, .cls-11, .cls-12, .cls-13, .cls-14, .cls-15, .cls-16, .cls-17, .cls-18, .cls-19, .cls-20, .cls-21, .cls-22, .cls-23, .cls-24, .cls-25, .cls-26, .cls-27, .cls-28, .cls-29, .cls-30, .cls-31, .cls-32, .cls-33, .cls-34, .cls-35, .cls-36 {
        stroke-width: 0px;
      }

      .cls-2 {
        fill: url(#_Безымянный_градиент_46-24);
      }

      .cls-3 {
        fill: url(#_Безымянный_градиент_46-20);
      }

      .cls-4 {
        fill: url(#_Безымянный_градиент_46-2);
      }

      .cls-5 {
        fill: url(#_Безымянный_градиент_46-6);
      }

      .cls-6 {
        fill: url(#_Безымянный_градиент_46-23);
      }

      .cls-7 {
        fill: url(#_Безымянный_градиент_46-18);
      }

      .cls-8 {
        fill: url(#_Безымянный_градиент_46-17);
      }

      .cls-9 {
        fill: url(#_Безымянный_градиент_46-25);
      }

      .cls-10 {
        fill: url(#_Безымянный_градиент_46-28);
      }

      .cls-11 {
        fill: url(#_Безымянный_градиент_46-5);
      }

      .cls-12 {
        fill: url(#_Безымянный_градиент_46-8);
      }

      .cls-13 {
        fill: url(#_Безымянный_градиент_46-13);
      }

      .cls-14 {
        fill: url(#_Безымянный_градиент_46);
      }

      .cls-15 {
        fill: url(#_Безымянный_градиент_46-7);
      }

      .cls-16 {
        fill: url(#_Безымянный_градиент_46-29);
      }

      .cls-17 {
        fill: #fff;
      }

      .cls-18 {
        fill: url(#_Безымянный_градиент_46-19);
      }

      .cls-19 {
        fill: url(#_Безымянный_градиент_46-27);
      }

      .cls-20 {
        fill: url(#_Безымянный_градиент_46-30);
      }

      .cls-21 {
        fill: url(#_Безымянный_градиент_46-3);
      }

      .cls-22 {
        fill: url(#_Безымянный_градиент_46-26);
      }

      .cls-23 {
        fill: #434343;
      }

      .cls-24 {
        fill: url(#_Безымянный_градиент_46-4);
      }

      .cls-25 {
        fill: url(#_Безымянный_градиент_46-10);
      }

      .cls-26 {
        fill: url(#_Безымянный_градиент_46-22);
      }

      .cls-27 {
        fill: url(#_Безымянный_градиент_46-31);
      }

      .cls-28 {
        fill: url(#_Безымянный_градиент_46-9);
      }

      .cls-29 {
        fill: url(#_Безымянный_градиент_46-32);
      }

      .cls-30 {
        fill: url(#_Безымянный_градиент_46-33);
      }

      .cls-31 {
        fill: url(#_Безымянный_градиент_46-16);
      }

      .cls-32 {
        fill: url(#_Безымянный_градиент_7);
      }

      .cls-33 {
        fill: url(#_Безымянный_градиент_46-11);
      }

      .cls-34 {
        fill: url(#_Безымянный_градиент_46-12);
      }

      .cls-35 {
        fill: url(#_Безымянный_градиент_46-15);
      }

      .cls-36 {
        fill: url(#_Безымянный_градиент_46-14);
      }
    </style>
    <linearGradient id="_Безымянный_градиент_46" data-name="Безымянный градиент 46" x1="682.62" y1="82.06" x2="130.37" y2="606.23" gradientUnits="userSpaceOnUse">
      <stop offset="0" stop-color="#f5c432"/>
      <stop offset="1" stop-color="#ed345c"/>
    </linearGradient>
    <linearGradient id="_Безымянный_градиент_46-2" data-name="Безымянный градиент 46" x1="836.68" y1="131.09" x2="384.17" y2="560.59" xlink:href="#_Безымянный_градиент_46"/>
    <linearGradient id="_Безымянный_градиент_46-3" data-name="Безымянный градиент 46" x1="907.64" y1="-212.94" x2="-45.18" y2="691.43" xlink:href="#_Безымянный_градиент_46"/>
    <linearGradient id="_Безымянный_градиент_46-4" data-name="Безымянный градиент 46" x1="849.55" y1="-273.4" x2="-113.38" y2="640.57" xlink:href="#_Безымянный_градиент_46"/>
    <linearGradient id="_Безымянный_градиент_46-5" data-name="Безымянный градиент 46" x1="940.1" y1="-194.86" x2="-47.39" y2="742.42" xlink:href="#_Безымянный_градиент_46"/>
    <linearGradient id="_Безымянный_градиент_46-6" data-name="Безымянный градиент 46" x1="1014.27" y1="-100.59" x2="61.45" y2="803.78" xlink:href="#_Безымянный_градиент_46"/>
    <linearGradient id="_Безымянный_градиент_46-7" data-name="Безымянный градиент 46" x1="879.98" y1="-410.24" x2="-177.26" y2="593.24" xlink:href="#_Безымянный_градиент_46"/>
    <linearGradient id="_Безымянный_градиент_46-8" data-name="Безымянный градиент 46" x1="728.45" y1="-336.67" x2="-172.16" y2="518.16" xlink:href="#_Безымянный_градиент_46"/>
    <linearGradient id="_Безымянный_градиент_46-9" data-name="Безымянный градиент 46" x1="787.63" y1="-277.51" x2="-109.79" y2="574.28" xlink:href="#_Безымянный_градиент_46"/>
    <linearGradient id="_Безымянный_градиент_46-10" data-name="Безымянный градиент 46" x1="762.35" y1="-366.01" x2="-190.47" y2="538.36" xlink:href="#_Безымянный_градиент_46"/>
    <linearGradient id="_Безымянный_градиент_46-11" data-name="Безымянный градиент 46" x1="837.86" y1="-369.45" x2="-198.85" y2="614.55" xlink:href="#_Безымянный_градиент_46"/>
    <linearGradient id="_Безымянный_градиент_46-12" data-name="Безымянный градиент 46" x1="731.04" y1="-399" x2="-221.78" y2="505.38" xlink:href="#_Безымянный_градиент_46"/>
    <linearGradient id="_Безымянный_градиент_46-13" data-name="Безымянный градиент 46" x1="1107.19" y1="-34.34" x2="105.15" y2="916.75" xlink:href="#_Безымянный_градиент_46"/>
    <linearGradient id="_Безымянный_градиент_46-14" data-name="Безымянный градиент 46" x1="1018.5" y1="-96.14" x2="65.68" y2="808.23" xlink:href="#_Безымянный_градиент_46"/>
    <linearGradient id="_Безымянный_градиент_46-15" data-name="Безымянный градиент 46" x1="1187.47" y1="13.56" x2="99.01" y2="1046.68" xlink:href="#_Безымянный_градиент_46"/>
    <linearGradient id="_Безымянный_градиент_46-16" data-name="Безымянный градиент 46" x1="729.01" y1="272.83" x2="185.06" y2="789.12" gradientTransform="translate(719.06 1247.05) rotate(-180)" xlink:href="#_Безымянный_градиент_46"/>
    <linearGradient id="_Безымянный_градиент_46-17" data-name="Безымянный градиент 46" x1="1085.94" y1="288.44" x2="566.2" y2="781.75" gradientTransform="translate(1465.81 1247.05) rotate(-180)" xlink:href="#_Безымянный_градиент_46"/>
    <linearGradient id="_Безымянный_градиент_46-18" data-name="Безымянный градиент 46" x1="1211.62" y1="107.33" x2="258.8" y2="1011.7" gradientTransform="translate(1041.6 1526.05) rotate(-180)" xlink:href="#_Безымянный_градиент_46"/>
    <linearGradient id="_Безымянный_градиент_46-19" data-name="Безымянный градиент 46" x1="1294.66" y1="144.91" x2="315.09" y2="1074.67" gradientTransform="translate(967.75 1828.93) rotate(-180)" xlink:href="#_Безымянный_градиент_46"/>
    <linearGradient id="_Безымянный_градиент_46-20" data-name="Безымянный градиент 46" x1="1226.62" y1="43.32" x2="231.48" y2="987.86" gradientTransform="translate(661.75 1787.05) rotate(-180)" xlink:href="#_Безымянный_градиент_46"/>
    <linearGradient id="_Безымянный_градиент_46-21" data-name="Безымянный градиент 46" x1="1364.28" y1="185.98" x2="307.04" y2="1189.46" gradientTransform="translate(1806.6 1247.05) rotate(-180)" xlink:href="#_Безымянный_градиент_46"/>
    <linearGradient id="_Безымянный_градиент_46-22" data-name="Безымянный градиент 46" x1="1303.4" y1="309.74" x2="441.15" y2="1128.15" gradientTransform="translate(1689.6 1490.05) rotate(-180)" xlink:href="#_Безымянный_градиент_46"/>
    <linearGradient id="_Безымянный_градиент_46-23" data-name="Безымянный градиент 46" x1="1356.91" y1="260.4" x2="404.09" y2="1164.77" gradientTransform="translate(1455.6 1715.05) rotate(-180)" xlink:href="#_Безымянный_градиент_46"/>
    <linearGradient id="_Безымянный_градиент_46-24" data-name="Безымянный градиент 46" x1="1394.15" y1="158.16" x2="340.87" y2="1157.89" gradientTransform="translate(1221.6 1803.36) rotate(180)" xlink:href="#_Безымянный_градиент_46"/>
    <linearGradient id="_Безымянный_градиент_46-25" data-name="Безымянный градиент 46" x1="1388.22" y1="293.38" x2="435.39" y2="1197.76" gradientTransform="translate(1644.6 1661.05) rotate(180)" xlink:href="#_Безымянный_градиент_46"/>
    <linearGradient id="_Безымянный_градиент_46-26" data-name="Безымянный градиент 46" x1="1070.99" y1="-127.2" x2="68.95" y2="823.89" gradientTransform="translate(294.6 1499.05) rotate(-180)" xlink:href="#_Безымянный_градиент_46"/>
    <linearGradient id="_Безымянный_градиент_46-27" data-name="Безымянный градиент 46" x1="1098.76" y1="-9.47" x2="145.94" y2="894.9" gradientTransform="translate(389.6 1697.05) rotate(-180)" xlink:href="#_Безымянный_градиент_46"/>
    <linearGradient id="_Безымянный_градиент_46-28" data-name="Безымянный градиент 46" x1="956.42" y1="-161.54" x2="3.6" y2="742.83" gradientTransform="translate(258.6 1247.05) rotate(-180)" xlink:href="#_Безымянный_градиент_46"/>
    <linearGradient id="_Безымянный_градиент_46-29" data-name="Безымянный градиент 46" x1="1093.77" y1="381.52" x2="451.38" y2="991.25" xlink:href="#_Безымянный_градиент_46"/>
    <linearGradient id="_Безымянный_градиент_46-30" data-name="Безымянный градиент 46" x1="1131.35" y1="377.99" x2="488.82" y2="987.85" xlink:href="#_Безымянный_градиент_46"/>
    <linearGradient id="_Безымянный_градиент_46-31" data-name="Безымянный градиент 46" x1="698.67" y1="-111.17" x2="-21.82" y2="572.68" xlink:href="#_Безымянный_градиент_46"/>
    <linearGradient id="_Безымянный_градиент_7" data-name="Безымянный градиент 7" x1="349" y1="712.56" x2="245.74" y2="810.57" gradientUnits="userSpaceOnUse">
      <stop offset=".04" stop-color="#ee615b"/>
      <stop offset="1" stop-color="#ed345c"/>
    </linearGradient>
    <linearGradient id="_Безымянный_градиент_46-32" data-name="Безымянный градиент 46" x1="421.66" y1="628.65" x2="716.62" y2="429.5" xlink:href="#_Безымянный_градиент_46"/>
    <linearGradient id="_Безымянный_градиент_46-33" data-name="Безымянный градиент 46" x1="1042.59" y1="155.28" x2="89.77" y2="1059.65" xlink:href="#_Безымянный_градиент_46"/>
  </defs>
  <g id="Layer_1" data-name="Layer 1">
    <g>
      <rect class="cls-14" x="294.8" y="299.52" width="203.63" height="108" rx="25" ry="25"/>
      <rect class="cls-4" x="525.59" y="299.52" width="153.49" height="108" rx="25" ry="25"/>
      <rect class="cls-21" x="322.8" y="155.52" width="270" height="117" rx="25" ry="25"/>
      <rect class="cls-24" x="439.8" y="0" width="108" height="128.52" rx="25.25" ry="25.25"/>
      <rect class="cls-11" x="574.8" y="38.52" width="144" height="90" rx="26.35" ry="26.35"/>
      <rect class="cls-5" x="619.8" y="155.52" width="126" height="117" rx="25" ry="25"/>
      <rect class="cls-15" x="25.8" y="299.52" width="99" height="108" rx="25" ry="25"/>
      <rect class="cls-12" x="79.8" y="191.52" width="99" height="81" rx="25" ry="25"/>
      <rect class="cls-28" x="205.8" y="191.52" width="90" height="81" rx="25" ry="25"/>
      <rect class="cls-25" x="205.8" y="74.52" width="90" height="90" rx="25" ry="25"/>
      <rect class="cls-33" x="322.8" y="24.9" width="90" height="103.63" rx="25" ry="25"/>
      <rect class="cls-34" x="133.8" y="128.52" width="45" height="36" rx="18" ry="18"/>
      <rect class="cls-13" x="772.8" y="182.52" width="117" height="90" rx="25" ry="25"/>
      <rect class="cls-36" x="754.8" y="101.52" width="54" height="54" rx="25" ry="25"/>
      <rect class="cls-35" x="705.8" y="299.52" width="247" height="108" rx="25" ry="25"/>
      <rect class="cls-31" x="259.8" y="569.52" width="199.46" height="108" rx="25" ry="25" transform="translate(719.06 1247.05) rotate(180)"/>
      <rect class="cls-8" x="639.26" y="569.52" width="187.29" height="108" rx="25" ry="25" transform="translate(1465.81 1247.05) rotate(180)"/>
      <rect class="cls-7" x="385.8" y="704.52" width="270" height="117" rx="25" ry="25" transform="translate(1041.6 1526.05) rotate(180)"/>
      <rect class="cls-18" x="429.87" y="848.52" width="108" height="131.89" rx="25" ry="25" transform="translate(967.75 1828.93) rotate(180)"/>
      <rect class="cls-3" x="258.87" y="848.52" width="144" height="90" rx="25" ry="25" transform="translate(661.75 1787.05) rotate(180)"/>
      <rect class="cls-1" x="853.8" y="569.52" width="99" height="108" rx="25" ry="25" transform="translate(1806.6 1247.05) rotate(180)"/>
      <rect class="cls-26" x="799.8" y="704.52" width="90" height="81" rx="22.61" ry="22.61" transform="translate(1689.6 1490.05) rotate(180)"/>
      <rect class="cls-6" x="682.8" y="812.52" width="90" height="90" rx="25" ry="25" transform="translate(1455.6 1715.05) rotate(180)"/>
      <rect class="cls-2" x="565.8" y="848.52" width="90" height="106.32" rx="25" ry="25" transform="translate(1221.6 1803.36) rotate(-180)"/>
      <rect class="cls-9" x="799.8" y="812.52" width="45" height="36" rx="18" ry="18" transform="translate(1644.6 1661.05) rotate(-180)"/>
      <rect class="cls-22" x="88.8" y="704.52" width="117" height="90" rx="25" ry="25" transform="translate(294.6 1499.05) rotate(180)"/>
      <rect class="cls-19" x="167.8" y="821.52" width="54" height="54" rx="25" ry="25" transform="translate(389.6 1697.05) rotate(180)"/>
      <rect class="cls-10" x="25.8" y="569.52" width="207" height="108" rx="25" ry="25" transform="translate(258.6 1247.05) rotate(180)"/>
      <g>
        <path class="cls-16" d="M735.26,750.68h-19.13c-1.81,0-3.52-.82-4.66-2.22-1.14-1.41-1.58-3.25-1.21-5.02l8.23-38.92h-11.97c-13.1,0-23.72,10.62-23.72,23.72v33.57c0,13.1,10.62,23.72,23.72,23.72h18.02l10.72-34.84Z"/>
        <path class="cls-20" d="M749.08,704.52h-18.33l-7.23,34.16h19.85c1.9,0,3.7.9,4.83,2.44,1.13,1.53,1.47,3.51.91,5.33l-12.02,39.08h11.99c13.1,0,23.72-10.62,23.72-23.72v-33.57c0-13.1-10.62-23.72-23.72-23.72Z"/>
      </g>
      <circle class="cls-27" cx="209.18" cy="353.42" r="54.84"/>
      <path class="cls-32" d="M329.72,818.18h-64.7c-15.49,0-28.1-12.6-28.1-28.09v-57.04c0-15.49,12.6-28.09,28.1-28.09h64.7c15.49,0,28.09,12.6,28.09,28.09v57.04c0,15.49-12.6,28.09-28.09,28.09ZM265.02,718.57c-7.98,0-14.47,6.49-14.47,14.47v57.04c0,7.98,6.49,14.47,14.47,14.47h64.7c7.98,0,14.47-6.49,14.47-14.47v-57.04c0-7.98-6.49-14.47-14.47-14.47h-64.7Z"/>
      <g>
        <polygon class="cls-29" points="557.18 569.62 570.25 556.54 506.53 538.87 515.07 569.62 557.18 569.62"/>
        <path class="cls-30" d="M587.26,569.52h-29.98l-1.21,1.21,28.68,28.68c1.76,1.76,1.76,4.61,0,6.37l-11.84,11.84c-1.76,1.76-4.61,1.76-6.37,0l-28.68-28.68-13.65,13.65-9.17-33.07h-3.78c-13.81,0-25,11.19-25,25v58c0,13.81,11.19,25,25,25h76c13.81,0,25-11.19,25-25v-58c0-13.81-11.19-25-25-25Z"/>
      </g>
      <g>
        <path class="cls-23" d="M.26,537.72v-101.17h48.56l42.78,82.53h2.75c-1.45-4.24-2.55-8.6-3.32-13.08-.77-4.48-1.16-9.9-1.16-16.26v-53.19h29.92v101.17h-48.42l-42.93-82.53h-2.6c1.45,4.43,2.55,8.87,3.32,13.3.77,4.43,1.16,9.78,1.16,16.04v53.19H.26Z"/>
        <path class="cls-23" d="M242.93,436.55v23.99h-71.11v15.18h60.99v21.25h-60.99v16.77h71.11v23.99h-102.33v-101.17h102.33Z"/>
        <path class="cls-23" d="M284.33,532.88c-10.07-4.58-17.66-10.84-22.76-18.79-5.11-7.95-7.66-16.93-7.66-26.96s2.55-19.01,7.66-26.96c5.11-7.95,12.69-14.21,22.76-18.79,10.07-4.58,22.23-6.87,36.49-6.87,13.39,0,24.88,1.88,34.47,5.64,9.59,3.76,17.1,8.87,22.55,15.32,5.44,6.46,8.79,13.78,10.04,21.97h-31.22c-1.25-4.82-4.84-8.96-10.77-12.43s-14.29-5.2-25.08-5.2c-7.71,0-14.24,1.18-19.58,3.54-5.35,2.36-9.37,5.61-12.07,9.76-2.7,4.14-4.05,8.82-4.05,14.02s1.35,9.88,4.05,14.02c2.7,4.14,6.72,7.4,12.07,9.76,5.35,2.36,11.87,3.54,19.58,3.54,10.79,0,19.15-1.73,25.08-5.2s9.51-7.61,10.77-12.43h31.22c-1.25,8.29-4.58,15.66-9.97,22.11-5.4,6.46-12.91,11.54-22.55,15.25-9.64,3.71-21.15,5.56-34.54,5.56-14.26,0-26.43-2.29-36.49-6.87Z"/>
        <path class="cls-23" d="M458.57,537.72h-31.22v-75.45h-39.46v-25.73h110.13v25.73h-39.46v75.45Z"/>
        <path class="cls-23" d="M616.83,537.72h-33.1l-6.21-14.74h-50.01l-6.21,14.74h-33.1l45.82-101.17h36.86l45.96,101.17ZM537.34,499.13h30.35l-8.09-19.22c-2.22-5.59-3.74-10.14-4.55-13.66-.82-3.52-1.23-7.01-1.23-10.48v-.58h-2.6v.58c0,3.47-.41,6.96-1.23,10.48-.82,3.52-2.34,8.07-4.55,13.66l-8.09,19.22Z"/>
        <path class="cls-23" d="M743.44,537.72h-37.29l-10.84-26.02c-1.25-2.99-3.04-5.08-5.35-6.29-2.31-1.2-5.59-1.81-9.83-1.81h-20.81v34.11h-31.22v-101.17h67.93c13.97,0,24.5,2.92,31.58,8.74,7.08,5.83,10.62,13.71,10.62,23.63,0,5.4-1.21,10.36-3.61,14.89-2.41,4.53-5.64,8.17-9.68,10.91s-8.53,4.26-13.44,4.55v2.6c5.59.19,10.12,1.47,13.59,3.83,3.47,2.36,6.65,6.63,9.54,12.79l8.82,19.22ZM692.13,485.25c4.82,0,8.5-1.11,11.06-3.32,2.55-2.22,3.83-5.2,3.83-8.96s-1.28-6.77-3.83-9.03c-2.55-2.26-6.24-3.4-11.06-3.4h-34.54v24.71h34.54Z"/>
        <path class="cls-23" d="M841.14,537.72h-90.77v-24.57h29.77v-52.03h-29.77v-24.57h90.77v24.57h-29.77v52.03h29.77v24.57Z"/>
        <path class="cls-23" d="M858.92,537.72v-101.17h48.56l42.78,82.53h2.75c-1.45-4.24-2.55-8.6-3.32-13.08-.77-4.48-1.16-9.9-1.16-16.26v-53.19h29.92v101.17h-48.42l-42.93-82.53h-2.6c1.45,4.43,2.55,8.87,3.32,13.3.77,4.43,1.16,9.78,1.16,16.04v53.19h-30.06Z"/>
      </g>
      <path class="cls-17" d="M637.79,351.54c-.64-.68-15.94-16.63-35.34-16.63s-34.7,15.95-35.34,16.63c-1.24,1.31-1.24,3.37,0,4.68.64.68,15.94,16.63,35.34,16.63s34.7-15.95,35.34-16.63c1.24-1.31,1.24-3.37,0-4.68ZM594.01,342.92c-3.28,2.53-5.39,6.5-5.39,10.96s2.11,8.43,5.39,10.96c-8.66-2.4-15.82-7.83-19.43-10.96,3.61-3.13,10.77-8.56,19.43-10.96ZM610.9,364.84c3.28-2.53,5.39-6.5,5.39-10.96s-2.11-8.43-5.39-10.96c8.66,2.4,15.82,7.83,19.43,10.96-3.61,3.13-10.77,8.56-19.43,10.96Z"/>
      <g>
        <path class="cls-17" d="M844.8,743.65c-8.95,0-16.2,5.34-16.2,11.94s7.25,11.94,16.2,11.94,16.2-5.34,16.2-11.94-7.25-11.94-16.2-11.94Z"/>
        <path class="cls-17" d="M834,734.7c0-4.94-3.63-8.95-8.1-8.95s-8.1,4.01-8.1,8.95,3.63,8.95,8.1,8.95,8.1-4.01,8.1-8.95Z"/>
        <ellipse class="cls-17" cx="863.7" cy="734.7" rx="8.1" ry="8.95"/>
        <path class="cls-17" d="M844.8,737.68c4.47,0,8.1-4.01,8.1-8.95s-3.63-8.95-8.1-8.95-8.1,4.01-8.1,8.95,3.63,8.95,8.1,8.95Z"/>
      </g>
      <path class="cls-17" d="M750.55,848.21c-1.41-1.41-6.12-1.93-8.38-1.84-.95-10.56,0-17.21-17.21-17.21-11.44,0-18.94,4.05-18.94,15.49,0,6.52.54,15.82,5.24,19.62-.11.37-.18.75-.18,1.15v6.88c0,2.15,1.66,3.89,3.77,4.06v6.39c0,2.73,2.21,4.94,4.94,4.94h8.96c2.73,0,4.94-2.21,4.94-4.94v-6.39c2.1-.17,3.77-1.91,3.77-4.06v-.76c2.99-.87,6.18-2.76,8.96-5.54,6.06-6.06,7.92-14.03,4.16-17.79Z"/>
      <g>
        <path class="cls-17" d="M504.86,898.53c0-12.43-10.07-22.5-22.5-22.5s-22.5,10.07-22.5,22.5c0,7.35,3.54,13.86,9,17.97v9.34c0,2.31,1.87,4.19,4.19,4.19h18.63c2.31,0,4.19-1.87,4.19-4.19v-9.34c5.46-4.11,9-10.62,9-17.97Z"/>
        <path class="cls-17" d="M493.61,934.53h-22.5c-1.24,0-2.25,1.01-2.25,2.25s1.01,2.25,2.25,2.25h22.5c1.24,0,2.25-1.01,2.25-2.25s-1.01-2.25-2.25-2.25Z"/>
        <path class="cls-17" d="M493.61,943.53h-22.5c-1.24,0-2.25,1.01-2.25,2.25s1.01,2.25,2.25,2.25h22.5c1.24,0,2.25-1.01,2.25-2.25s-1.01-2.25-2.25-2.25Z"/>
      </g>
      <g>
        <path class="cls-17" d="M279.17,917.26c-1.39.4-2.92-.23-3.6-1.57-.78-1.52-.18-3.39,1.34-4.18l34.51-17.74c1.12-.57,2.47-.42,3.43.4l5.35,4.55,39.27-21.26c1.5-.81,3.39-.26,4.2,1.25.82,1.51.25,3.39-1.25,4.2l-41.14,22.27c-1.12.61-2.51.46-3.49-.37l-5.38-4.58-32.67,16.79c-.19.1-.38.17-.57.23Z"/>
        <path class="cls-17" d="M357.54,874.29l6.69,11.61c.85,1.48,2.98,1.46,3.81-.03l6.71-12.05c.83-1.49-.28-3.31-1.99-3.26l-13.39.44c-1.65.05-2.65,1.85-1.83,3.28Z"/>
      </g>
      <path class="cls-17" d="M264.1,118.73h-3.65l-4.18-12.53c0-2.31-1.87-4.18-4.18-4.18h0c-2.31,0-4.18,1.87-4.18,4.18v6.26h-7.24c-5.23,0-9.46,4.24-9.46,9.46v6.13c0,5.23,4.24,9.46,9.46,9.46h23.42c2.6,0,4.7-2.11,4.7-4.7v-9.39c0-2.6-2.11-4.7-4.7-4.7Z"/>
      <path class="cls-17" d="M99.26,349.97h-4.06c-.46-1.8-1.18-3.5-2.1-5.06l2.88-2.88c1.53-1.53,1.53-4.02,0-5.55l-1.4-1.4c-1.53-1.53-4.02-1.53-5.55,0l-2.88,2.88c-1.56-.92-3.26-1.64-5.06-2.1v-4.06c0-2.17-1.76-3.92-3.92-3.92h-1.97c-2.17,0-3.92,1.76-3.92,3.92v4.06c-1.8.46-3.5,1.18-5.06,2.1l-2.88-2.88c-1.53-1.53-4.02-1.53-5.55,0l-1.39,1.4c-1.53,1.53-1.53,4.02,0,5.55l2.87,2.88c-.92,1.56-1.64,3.26-2.1,5.06h-4.06c-2.17,0-3.92,1.76-3.92,3.92v1.97c0,2.17,1.76,3.92,3.92,3.92h4.06c.46,1.8,1.18,3.5,2.1,5.06l-2.87,2.88c-1.53,1.53-1.53,4.02,0,5.55l1.39,1.4c1.53,1.53,4.02,1.53,5.55,0l2.88-2.88c1.56.92,3.26,1.64,5.06,2.1v4.06c0,2.17,1.76,3.92,3.92,3.92h1.97c2.17,0,3.92-1.76,3.92-3.92v-4.06c1.8-.46,3.5-1.18,5.06-2.1l2.88,2.88c1.53,1.53,4.02,1.53,5.55,0l1.4-1.4c1.53-1.53,1.53-4.02,0-5.55l-2.88-2.88c.92-1.56,1.64-3.26,2.1-5.06h4.06c2.17,0,3.92-1.76,3.92-3.92v-1.97c0-2.17-1.76-3.92-3.92-3.92Z"/>
      <path class="cls-17" d="M157.54,228.28c0-8.09-4.5-15.13-11.13-18.76l-10.23,18.76h21.36Z"/>
      <path class="cls-17" d="M849.73,241.73l-10.03-10.03c-.16-.16-.34-.31-.53-.43,1.63-2.36,2.59-5.22,2.59-8.31,0-8.07-6.54-14.62-14.62-14.62s-14.62,6.54-14.62,14.62,6.54,14.62,14.62,14.62c2.09,0,4.07-.44,5.86-1.23.16.46.42.89.79,1.25l10.03,10.03c1.31,1.31,3.43,1.31,4.73,0l1.17-1.17c1.31-1.31,1.31-3.42,0-4.73ZM818.79,222.96c0-4.61,3.74-8.35,8.35-8.35s8.35,3.74,8.35,8.35-3.74,8.35-8.35,8.35-8.35-3.74-8.35-8.35Z"/>
      <path class="cls-17" d="M475.8,81.15v-39.25c0-1.92,2.11-3.09,3.74-2.07l31.4,19.63c1.53.96,1.53,3.18,0,4.14l-31.4,19.63c-1.63,1.02-3.74-.15-3.74-2.07Z"/>
      <g>
        <path class="cls-17" d="M661.34,65.52h-5.82c-1.67,0-3.02,1.52-3.02,3.39v28.77c0,1.87,1.35,3.39,3.02,3.39h5.82c1.67,0,3.02-1.52,3.02-3.39v-28.77c0-1.87-1.35-3.39-3.02-3.39Z"/>
        <path class="cls-17" d="M637.64,65.52h-5.82c-1.67,0-3.02,1.52-3.02,3.39v28.77c0,1.87,1.35,3.39,3.02,3.39h5.82c1.67,0,3.02-1.52,3.02-3.39v-28.77c0-1.87-1.35-3.39-3.02-3.39Z"/>
      </g>
      <rect class="cls-17" x="349.8" y="57.51" width="33.85" height="33.85" rx="4.79" ry="4.79"/>
      <g>
        <path class="cls-17" d="M249.55,224.67c-7.51,0-14.26,3.07-17.61,8.02-.95,1.4-.58,3.3.81,4.25,1.4.95,3.3.58,4.25-.81,2.2-3.24,7.12-5.33,12.55-5.33s10.35,2.09,12.55,5.33c.59.87,1.55,1.34,2.53,1.34.59,0,1.19-.17,1.71-.53,1.4-.95,1.76-2.85.81-4.25-3.36-4.94-10.1-8.02-17.61-8.02Z"/>
        <path class="cls-17" d="M273.77,222.46c-4.58-6.75-13.86-10.94-24.22-10.94s-19.64,4.19-24.22,10.94c-.95,1.4-.58,3.3.81,4.25.53.36,1.12.53,1.71.53.98,0,1.94-.47,2.53-1.34,3.4-5.02,10.93-8.26,19.16-8.26s15.75,3.24,19.16,8.26c.95,1.4,2.85,1.76,4.25.81,1.4-.95,1.76-2.85.81-4.25Z"/>
        <path class="cls-17" d="M249.55,237.74c-3.69,0-6.67,2.99-6.67,6.67s2.99,6.67,6.67,6.67,6.67-2.99,6.67-6.67-2.99-6.67-6.67-6.67Z"/>
      </g>
      <g>
        <path class="cls-17" d="M207.15,343.99h0c-3.51,0-6.35,2.35-6.35,5.25v19.68c0,2.9,2.84,5.25,6.35,5.25h0c3.51,0,6.35-2.35,6.35-5.25v-19.68c0-2.9-2.84-5.25-6.35-5.25Z"/>
        <path class="cls-17" d="M207.15,339.23c3.51,0,6.35-2.84,6.35-6.35s-2.84-6.35-6.35-6.35-6.35,2.84-6.35,6.35,2.84,6.35,6.35,6.35Z"/>
      </g>
      <path class="cls-17" d="M917.53,618.05h-.94c0-6.92-4.71-12.53-10.53-12.53-4.33,0-8.04,3.11-9.66,7.55-1.23-.82-2.65-1.29-4.16-1.29-3.7,0-6.85,2.8-8.04,6.72-3.35,1.26-5.78,4.98-5.78,9.39v.67c0,5.44,3.7,9.84,8.27,9.84h30.84c4.57,0,8.27-4.41,8.27-9.84v-.67c0-5.44-3.7-9.84-8.27-9.84Z"/>
      <g>
        <path class="cls-17" d="M600.73,886.81c-1.52.29-2.52,1.76-2.23,3.28.29,1.52,1.76,2.52,3.28,2.23,3.53-.68,8.08,1.16,11.59,4.68,3.52,3.52,5.35,8.07,4.68,11.59-.18.95.14,1.88.77,2.51.38.38.88.66,1.45.77,1.52.29,2.99-.71,3.28-2.23,1.03-5.38-1.35-11.75-6.22-16.62-4.87-4.87-11.23-7.25-16.61-6.22Z"/>
        <path class="cls-17" d="M625.87,884.51c-6.72-6.72-15.45-10.02-22.8-8.61-1.52.29-2.52,1.76-2.23,3.28.11.57.39,1.07.77,1.45.64.64,1.56.95,2.51.77,5.46-1.05,12.44,1.73,17.78,7.07,5.34,5.34,8.11,12.32,7.07,17.78-.29,1.52.71,2.99,2.23,3.28,1.52.29,2.99-.71,3.28-2.23,1.41-7.35-1.89-16.08-8.61-22.8Z"/>
        <path class="cls-17" d="M608.95,908.38c0-4.03-3.26-7.29-7.29-7.29-1.07,0-2.08.24-3,.65l-4.88-4.88c-5.32,5.32-5.32,13.94,0,19.26.19.19.39.37.59.55v6.55c0,1.87,1.52,3.39,3.39,3.39h.52c1.87,0,3.39-1.52,3.39-3.39v-3.23c4.04.52,8.27-.77,11.38-3.87l-4.74-4.74c.41-.91.65-1.93.65-3Z"/>
      </g>
      <path class="cls-17" d="M176.46,762.53s-.04-.05-.07-.06l-9.1-6.3c0-.22,0-.44,0-.66v-20.85c0-5.61-4.38-10.15-9.78-10.15h-23.12c-5.4,0-9.78,4.55-9.78,10.15v20.85c0,.23,0,.44.02.66h-.02l-9.3,6.3s-.05.04-.07.06c-2.13,2.83-.19,6.97,3.27,6.97h54.67c3.47,0,5.4-4.15,3.27-6.97ZM130.7,736.67c0-3.22-.05-5.83,3.05-5.83h24.39c3.1,0,3.05,2.61,3.05,5.83v7.33c0,3.22.05,5.83-3.05,5.83h-24.39c-3.1,0-3.05-2.61-3.05-5.83v-7.33Z"/>
      <g>
        <path class="cls-17" d="M425.52,221.11c1.17,0,2.1.3,2.78.91s1.03,1.37,1.03,2.29-.34,1.69-1.03,2.29-1.61.91-2.78.91h-12.99c-1.11,0-2.02-.34-2.73-1.03s-1.07-1.54-1.07-2.57v-21.21c0-1.03.36-1.88,1.07-2.57s1.63-1.03,2.73-1.03,2.01.34,2.72,1.03,1.06,1.54,1.06,2.57v18.4h9.2Z"/>
        <path class="cls-17" d="M439.91,205.92v4.39h7.6c1.17,0,2.1.3,2.78.91s1.03,1.37,1.03,2.29-.34,1.69-1.03,2.29-1.61.91-2.78.91h-7.6v4.39h11.6c1.17,0,2.1.3,2.78.91s1.03,1.37,1.03,2.29-.34,1.69-1.03,2.29-1.61.91-2.78.91h-15.39c-1.11,0-2.02-.34-2.73-1.03s-1.07-1.54-1.07-2.57v-20.8c0-1.03.36-1.89,1.07-2.58.72-.69,1.63-1.04,2.73-1.04h15c1.17,0,2.1.3,2.77.91s1.02,1.37,1.02,2.29-.34,1.69-1.02,2.29-1.6.91-2.77.91h-11.21Z"/>
        <path class="cls-17" d="M464.7,224.32c-.43,1.2-.97,2.1-1.62,2.7s-1.51.9-2.58.9-2.01-.34-2.72-1.03-1.06-1.54-1.06-2.57c0-.44.04-.86.12-1.26.08-.4.16-.72.25-.96.09-.24.23-.57.43-.99l6.99-18.2c.53-1.38,1.25-2.42,2.16-3.13.91-.71,2.12-1.06,3.64-1.06s2.74.36,3.64,1.06c.91.71,1.62,1.75,2.16,3.13l6.99,18.2c.2.42.34.75.43.99.09.24.18.56.25.96.08.4.12.82.12,1.26,0,1.03-.35,1.88-1.06,2.57s-1.62,1.03-2.72,1.03-1.93-.31-2.6-.92c-.66-.61-1.2-1.5-1.6-2.68l-1-2.79h-9.2l-1.02,2.79ZM473.1,215.12l-2.6-7.79h-.39l-2.6,7.79h5.59Z"/>
        <path class="cls-17" d="M510.7,215.92c0,2.27-.5,4.27-1.51,6.02-1.01,1.75-2.47,3.11-4.38,4.1-1.91.99-4.15,1.48-6.7,1.48h-7.19c-1.11,0-2.02-.34-2.73-1.03s-1.07-1.54-1.07-2.57v-20.8c0-1.03.36-1.89,1.07-2.58.72-.69,1.63-1.04,2.73-1.04h7.19c2.55,0,4.79.5,6.7,1.48,1.91.99,3.38,2.36,4.38,4.1,1.01,1.75,1.51,3.75,1.51,6.02v4.8ZM494.7,205.92v15.2h3.4c1.54,0,2.72-.44,3.55-1.33.83-.88,1.25-2.17,1.25-3.87v-4.8c0-1.69-.42-2.98-1.25-3.87-.83-.88-2.02-1.33-3.55-1.33h-3.4Z"/>
      </g>
      <g>
        <path class="cls-17" d="M494.01,751.71c0-1.03.35-1.88,1.06-2.57s1.62-1.03,2.72-1.03,2.02.34,2.73,1.03,1.07,1.54,1.07,2.57v13.2c0,3.85-1.04,6.88-3.11,9.09s-4.84,3.31-8.3,3.31c-1.11,0-2.01-.34-2.72-1.03s-1.06-1.54-1.06-2.57c0-.68.14-1.25.42-1.71.28-.46.64-.82,1.09-1.07s.94-.48,1.48-.69c.54-.21,1.08-.44,1.61-.68.53-.25,1.03-.54,1.47-.89.45-.34.81-.83,1.09-1.46.28-.63.42-1.4.42-2.29v-13.2Z"/>
        <path class="cls-17" d="M531.58,765.72c0,2.27-.5,4.27-1.51,6.02-1.01,1.75-2.47,3.11-4.38,4.1s-4.15,1.48-6.7,1.48-4.79-.5-6.7-1.48-3.38-2.36-4.38-4.1c-1.01-1.74-1.51-3.75-1.51-6.02v-6.41c0-2.27.5-4.27,1.51-6.02,1.01-1.74,2.47-3.11,4.38-4.1,1.91-.99,4.15-1.48,6.7-1.48s4.79.5,6.7,1.48c1.91.99,3.38,2.36,4.38,4.1,1.01,1.75,1.51,3.75,1.51,6.02v6.41ZM523.79,759.31c0-1.69-.42-2.98-1.25-3.87-.83-.89-2.02-1.33-3.55-1.33s-2.72.44-3.55,1.33c-.83.89-1.25,2.17-1.25,3.87v6.41c0,1.69.42,2.98,1.25,3.87.83.89,2.02,1.33,3.55,1.33s2.72-.44,3.55-1.33c.83-.89,1.25-2.17,1.25-3.87v-6.41Z"/>
        <path class="cls-17" d="M552.17,750.11c.86-1.33,1.99-1.99,3.4-1.99,1.11,0,2.02.34,2.73,1.03s1.07,1.54,1.07,2.57c0,.26-.03.51-.08.76-.05.25-.11.46-.18.63s-.16.37-.28.59-.22.37-.29.47-.18.24-.32.42c-.14.18-.23.29-.25.33l-7.79,11.21v7.19c0,1.03-.36,1.88-1.07,2.57s-1.63,1.03-2.73,1.03-2.01-.34-2.72-1.03-1.06-1.54-1.06-2.57v-7.19l-7.81-11.21s-.11-.15-.25-.33c-.14-.18-.25-.32-.32-.42s-.17-.25-.29-.47-.22-.41-.28-.59-.12-.39-.18-.63c-.05-.25-.08-.5-.08-.76,0-1.03.36-1.88,1.07-2.57s1.63-1.03,2.73-1.03c1.41,0,2.54.66,3.4,1.99l5.61,8.61h.39l5.61-8.61Z"/>
      </g>
      <g>
        <path class="cls-17" d="M323.01,636.32c0,1.03-.35,1.88-1.06,2.57s-1.62,1.03-2.72,1.03-2.02-.34-2.73-1.03-1.07-1.54-1.07-2.57v-21.6c0-1.03.36-1.88,1.07-2.57s1.63-1.03,2.73-1.03,2.01.34,2.72,1.03,1.06,1.54,1.06,2.57v21.6Z"/>
        <path class="cls-17" d="M352,627.92c0,2.27-.5,4.27-1.51,6.02-1.01,1.75-2.47,3.11-4.38,4.1-1.91.99-4.15,1.48-6.7,1.48h-7.19c-1.11,0-2.02-.34-2.73-1.03s-1.07-1.54-1.07-2.57v-20.8c0-1.03.36-1.89,1.07-2.58.72-.69,1.63-1.04,2.73-1.04h7.19c2.55,0,4.79.5,6.7,1.48,1.91.99,3.38,2.36,4.38,4.1,1.01,1.75,1.51,3.75,1.51,6.02v4.8ZM336,617.92v15.2h3.4c1.54,0,2.72-.44,3.55-1.33.83-.88,1.25-2.17,1.25-3.87v-4.8c0-1.69-.42-2.98-1.25-3.87-.83-.88-2.02-1.33-3.55-1.33h-3.4Z"/>
        <path class="cls-17" d="M364.4,617.92v4.39h7.6c1.17,0,2.1.3,2.78.91s1.03,1.37,1.03,2.29-.34,1.69-1.03,2.29-1.61.91-2.78.91h-7.6v4.39h11.6c1.17,0,2.1.3,2.78.91s1.03,1.37,1.03,2.29-.34,1.69-1.03,2.29-1.61.91-2.78.91h-15.39c-1.11,0-2.02-.34-2.73-1.03s-1.07-1.54-1.07-2.57v-20.8c0-1.03.36-1.89,1.07-2.58.72-.69,1.63-1.04,2.73-1.04h15c1.17,0,2.1.3,2.77.91s1.02,1.37,1.02,2.29-.34,1.69-1.02,2.29-1.6.91-2.77.91h-11.21Z"/>
        <path class="cls-17" d="M389.18,636.32c-.43,1.2-.97,2.1-1.62,2.7s-1.51.9-2.58.9-2.01-.34-2.72-1.03-1.06-1.54-1.06-2.57c0-.44.04-.86.12-1.26.08-.4.16-.72.25-.96.09-.24.23-.57.43-.99l6.99-18.2c.53-1.38,1.25-2.42,2.16-3.13.91-.71,2.12-1.06,3.64-1.06s2.74.36,3.64,1.06c.91.71,1.62,1.75,2.16,3.13l6.99,18.2c.2.42.34.75.43.99.09.24.18.56.25.96.08.4.12.82.12,1.26,0,1.03-.35,1.88-1.06,2.57s-1.62,1.03-2.72,1.03-1.93-.31-2.6-.92c-.66-.61-1.2-1.5-1.6-2.68l-1-2.79h-9.2l-1.02,2.79ZM397.58,627.12l-2.6-7.79h-.39l-2.6,7.79h5.59Z"/>
      </g>
      <g>
        <path class="cls-17" d="M704.26,628.72c0,2.27-.5,4.27-1.51,6.02-1.01,1.75-2.47,3.11-4.38,4.1s-4.15,1.48-6.7,1.48-4.79-.5-6.7-1.48-3.38-2.36-4.38-4.1c-1.01-1.74-1.51-3.75-1.51-6.02v-6.41c0-2.27.5-4.27,1.51-6.02,1.01-1.74,2.47-3.11,4.38-4.1,1.91-.99,4.15-1.48,6.7-1.48s4.79.5,6.7,1.48c1.91.99,3.38,2.36,4.38,4.1,1.01,1.75,1.51,3.75,1.51,6.02v6.41ZM696.46,622.31c0-1.69-.42-2.98-1.25-3.87-.83-.88-2.02-1.33-3.55-1.33s-2.72.44-3.55,1.33c-.83.89-1.25,2.17-1.25,3.87v6.41c0,1.69.42,2.98,1.25,3.87.83.89,2.02,1.33,3.55,1.33s2.72-.44,3.55-1.33c.83-.88,1.25-2.17,1.25-3.87v-6.41Z"/>
        <path class="cls-17" d="M716.64,630.71v5.61c0,1.03-.35,1.88-1.06,2.57s-1.62,1.03-2.72,1.03-2.02-.34-2.73-1.03-1.07-1.54-1.07-2.57v-21.19c0-1.03.36-1.89,1.07-2.58.72-.69,1.63-1.04,2.73-1.04h7.79c1.76,0,3.36.25,4.81.74,1.45.5,2.65,1.18,3.6,2.04.95.87,1.69,1.88,2.21,3.05.52,1.17.78,2.43.78,3.78s-.26,2.61-.78,3.78c-.52,1.17-1.26,2.18-2.21,3.04s-2.15,1.54-3.6,2.03c-1.45.5-3.06.74-4.81.74h-4ZM720.64,624.32c1.09,0,1.97-.3,2.62-.91s.98-1.37.98-2.29-.33-1.69-.98-2.29-1.52-.91-2.62-.91h-4v6.41h4Z"/>
        <path class="cls-17" d="M743.83,617.92v4.39h7.6c1.17,0,2.1.3,2.78.91s1.03,1.37,1.03,2.29-.34,1.69-1.03,2.29-1.61.91-2.78.91h-7.6v4.39h11.6c1.17,0,2.1.3,2.78.91s1.03,1.37,1.03,2.29-.34,1.69-1.03,2.29-1.61.91-2.78.91h-15.39c-1.11,0-2.02-.34-2.73-1.03s-1.07-1.54-1.07-2.57v-20.8c0-1.03.36-1.89,1.07-2.58.72-.69,1.63-1.04,2.73-1.04h15c1.17,0,2.1.3,2.77.91s1.02,1.37,1.02,2.29-.34,1.69-1.02,2.29-1.6.91-2.77.91h-11.21Z"/>
        <path class="cls-17" d="M770.21,624.91v11.41c0,1.03-.35,1.88-1.06,2.57s-1.62,1.03-2.72,1.03-2.02-.34-2.73-1.03-1.07-1.54-1.07-2.57v-21.6c0-1.03.36-1.88,1.07-2.57s1.63-1.03,2.73-1.03c.96,0,1.79.26,2.48.79s1.46,1.4,2.3,2.61l7.81,11.6h.39v-11.41c0-1.03.36-1.88,1.07-2.57s1.63-1.03,2.73-1.03,2.01.34,2.72,1.03,1.06,1.54,1.06,2.57v21.6c0,1.03-.35,1.88-1.06,2.57s-1.62,1.03-2.72,1.03c-.96,0-1.8-.26-2.5-.79s-1.47-1.4-2.3-2.61l-7.79-11.6h-.41Z"/>
      </g>
      <g>
        <path class="cls-17" d="M79.99,617.92c-1.17,0-2.1-.3-2.78-.91s-1.03-1.37-1.03-2.29.34-1.69,1.03-2.29,1.61-.91,2.78-.91h17.21c1.17,0,2.1.3,2.77.91s1.02,1.37,1.02,2.29-.34,1.69-1.02,2.29-1.6.91-2.77.91h-4.8v18.4c0,1.03-.36,1.88-1.07,2.57s-1.63,1.03-2.73,1.03-2.01-.34-2.72-1.03-1.06-1.54-1.06-2.57v-18.4h-4.8Z"/>
        <path class="cls-17" d="M111.58,617.92v4.39h7.6c1.17,0,2.1.3,2.78.91s1.03,1.37,1.03,2.29-.34,1.69-1.03,2.29-1.61.91-2.78.91h-7.6v4.39h11.6c1.17,0,2.1.3,2.78.91s1.03,1.37,1.03,2.29-.34,1.69-1.03,2.29-1.61.91-2.78.91h-15.39c-1.11,0-2.02-.34-2.73-1.03s-1.07-1.54-1.07-2.57v-20.8c0-1.03.36-1.89,1.07-2.58.72-.69,1.63-1.04,2.73-1.04h15c1.17,0,2.1.3,2.77.91s1.02,1.37,1.02,2.29-.34,1.69-1.02,2.29-1.6.91-2.77.91h-11.21Z"/>
        <path class="cls-17" d="M129.98,622.31c0-2.27.5-4.27,1.51-6.02,1.01-1.74,2.47-3.11,4.38-4.1,1.91-.99,4.15-1.48,6.7-1.48,1.58,0,3.05.22,4.42.66,1.37.44,2.5,1,3.37,1.67.87.67,1.56,1.38,2.05,2.14.5.76.74,1.46.74,2.13,0,1.03-.33,1.85-1.01,2.47-.67.62-1.6.93-2.78.93-.59,0-1.1-.12-1.55-.37-.45-.25-.83-.55-1.14-.9s-.63-.7-.97-1.05-.76-.65-1.29-.9c-.53-.25-1.14-.37-1.85-.37-1.54,0-2.72.44-3.55,1.33-.83.89-1.25,2.17-1.25,3.87v6.41c0,1.69.42,2.98,1.25,3.87.83.89,2.02,1.33,3.55,1.33.77,0,1.45-.12,2.03-.37.59-.25,1.06-.55,1.42-.9s.7-.7,1.04-1.05.72-.65,1.17-.9c.45-.25.96-.37,1.53-.37,1.18,0,2.12.31,2.79.93.68.62,1.02,1.44,1.02,2.47,0,.66-.25,1.37-.75,2.13-.5.76-1.2,1.47-2.1,2.14-.9.67-2.06,1.23-3.5,1.67s-2.98.66-4.65.66c-2.55,0-4.79-.5-6.7-1.48s-3.38-2.36-4.38-4.1c-1.01-1.74-1.51-3.75-1.51-6.02v-6.41Z"/>
        <path class="cls-17" d="M181.36,636.32c0,1.03-.36,1.88-1.07,2.57s-1.63,1.03-2.73,1.03-2.01-.34-2.72-1.03-1.06-1.54-1.06-2.57v-7.4h-8.81v7.4c0,1.03-.35,1.88-1.06,2.57s-1.62,1.03-2.72,1.03-2.02-.34-2.73-1.03-1.07-1.54-1.07-2.57v-21.6c0-1.03.36-1.88,1.07-2.57s1.63-1.03,2.73-1.03,2.01.34,2.72,1.03,1.06,1.54,1.06,2.57v7.81h8.81v-7.81c0-1.03.35-1.88,1.06-2.57s1.62-1.03,2.72-1.03,2.02.34,2.73,1.03,1.07,1.54,1.07,2.57v21.6Z"/>
      </g>
      <g>
        <path class="cls-17" d="M767.15,365.32c0,1.03-.36,1.88-1.07,2.57s-1.63,1.03-2.73,1.03-2.01-.34-2.72-1.03-1.06-1.54-1.06-2.57v-7.4h-8.81v7.4c0,1.03-.35,1.88-1.06,2.57s-1.62,1.03-2.72,1.03-2.02-.34-2.73-1.03-1.07-1.54-1.07-2.57v-21.6c0-1.03.36-1.88,1.07-2.57s1.63-1.03,2.73-1.03,2.01.34,2.72,1.03,1.06,1.54,1.06,2.57v7.81h8.81v-7.81c0-1.03.35-1.88,1.06-2.57s1.62-1.03,2.72-1.03,2.02.34,2.73,1.03,1.07,1.54,1.07,2.57v21.6Z"/>
        <path class="cls-17" d="M793.18,366.3c-2.12,2.01-5.06,3.02-8.82,3.02s-6.71-1.01-8.83-3.02-3.18-4.74-3.18-8.17v-14.41c0-1.03.36-1.88,1.07-2.57s1.63-1.03,2.73-1.03,2.01.34,2.72,1.03,1.06,1.54,1.06,2.57v14.41c0,1.59.38,2.78,1.13,3.58s1.85,1.2,3.28,1.2,2.52-.4,3.27-1.2,1.12-2,1.12-3.58v-14.41c0-1.03.35-1.88,1.06-2.57s1.62-1.03,2.72-1.03,2.02.34,2.73,1.03,1.07,1.54,1.07,2.57v14.41c0,3.44-1.06,6.16-3.17,8.17Z"/>
        <path class="cls-17" d="M817.54,356.31l6.21-12.6c1.17-2.4,2.9-3.59,5.2-3.59,1.18,0,2.18.39,2.99,1.17s1.21,1.73,1.21,2.83v21.19c0,1.03-.36,1.88-1.07,2.57s-1.63,1.03-2.73,1.03-2.01-.34-2.72-1.03-1.06-1.54-1.06-2.57v-10h-.41l-3.4,6.8c-.6,1.2-1.24,2.1-1.92,2.71s-1.51.91-2.47.91-1.79-.3-2.47-.91-1.33-1.51-1.92-2.71l-3.4-6.8h-.41v10c0,1.03-.35,1.88-1.06,2.57s-1.62,1.03-2.72,1.03-2.02-.34-2.73-1.03-1.07-1.54-1.07-2.57v-21.19c0-1.11.4-2.05,1.21-2.83s1.8-1.17,2.99-1.17c2.29,0,4.02,1.2,5.2,3.59l6.21,12.6h.39Z"/>
        <path class="cls-17" d="M844.34,365.32c-.43,1.2-.97,2.1-1.62,2.7s-1.51.9-2.58.9-2.01-.34-2.72-1.03-1.06-1.54-1.06-2.57c0-.44.04-.86.12-1.26.08-.4.16-.72.25-.96.09-.24.23-.57.43-.99l6.99-18.2c.53-1.38,1.25-2.42,2.16-3.13.91-.71,2.12-1.06,3.64-1.06s2.74.36,3.64,1.06c.91.71,1.62,1.75,2.16,3.13l6.99,18.2c.2.42.34.75.43.99.09.24.18.56.25.96.08.4.12.82.12,1.26,0,1.03-.35,1.88-1.06,2.57s-1.62,1.03-2.72,1.03-1.93-.31-2.6-.92c-.66-.61-1.2-1.5-1.6-2.68l-1-2.79h-9.2l-1.02,2.79ZM852.74,356.12l-2.6-7.79h-.39l-2.6,7.79h5.59Z"/>
        <path class="cls-17" d="M874.34,353.91v11.41c0,1.03-.35,1.88-1.06,2.57s-1.62,1.03-2.72,1.03-2.02-.34-2.73-1.03-1.07-1.54-1.07-2.57v-21.6c0-1.03.36-1.88,1.07-2.57s1.63-1.03,2.73-1.03c.96,0,1.79.26,2.48.79s1.46,1.4,2.3,2.61l7.81,11.6h.39v-11.41c0-1.03.36-1.88,1.07-2.57s1.63-1.03,2.73-1.03,2.01.34,2.72,1.03,1.06,1.54,1.06,2.57v21.6c0,1.03-.35,1.88-1.06,2.57s-1.62,1.03-2.72,1.03c-.96,0-1.8-.26-2.5-.79s-1.47-1.4-2.3-2.61l-7.79-11.6h-.41Z"/>
        <path class="cls-17" d="M910.14,360.32c0-.43-.17-.81-.51-1.15-.34-.34-.79-.63-1.37-.87-.57-.24-1.23-.47-1.96-.68s-1.51-.45-2.33-.69c-.82-.25-1.64-.52-2.46-.81s-1.6-.66-2.33-1.09c-.74-.44-1.39-.93-1.96-1.48-.57-.55-1.03-1.24-1.37-2.07-.34-.83-.51-1.74-.51-2.74,0-1.26.25-2.44.74-3.53.5-1.09,1.21-2.04,2.14-2.85.93-.81,2.11-1.46,3.54-1.92s3.02-.7,4.78-.7c1.58,0,3.05.22,4.42.66,1.37.44,2.5,1,3.37,1.67.87.67,1.56,1.38,2.06,2.14.5.76.75,1.46.75,2.13,0,1.03-.33,1.85-1.01,2.47-.67.62-1.6.93-2.78.93-.59,0-1.11-.12-1.58-.37-.47-.25-.87-.55-1.21-.9s-.69-.7-1.05-1.05-.83-.65-1.4-.9c-.57-.25-1.22-.37-1.96-.37-.98,0-1.72.21-2.24.62s-.77.94-.77,1.59c0,.43.17.81.51,1.15.34.34.79.63,1.37.87.57.24,1.23.47,1.96.68s1.51.45,2.33.69c.82.25,1.64.52,2.46.81s1.6.66,2.33,1.09c.74.44,1.39.93,1.96,1.48.57.55,1.03,1.24,1.37,2.07.34.83.51,1.74.51,2.74,0,1.32-.26,2.54-.79,3.66-.53,1.13-1.29,2.12-2.29,2.98s-2.29,1.53-3.85,2.02-3.32.73-5.27.73c-1.67,0-3.22-.22-4.65-.66s-2.6-1-3.5-1.67c-.9-.67-1.6-1.38-2.1-2.14-.5-.75-.75-1.46-.75-2.13,0-1.03.34-1.85,1.02-2.47.68-.62,1.61-.93,2.79-.93.59,0,1.11.12,1.57.37.46.25.86.55,1.2.9s.7.7,1.07,1.05.89.65,1.52.9c.64.25,1.38.37,2.23.37,1.22,0,2.2-.26,2.92-.79s1.08-1.13,1.08-1.81Z"/>
      </g>
      <g>
        <path class="cls-17" d="M371.44,358.13v7.19c0,1.03-.35,1.88-1.06,2.57s-1.62,1.03-2.72,1.03-2.02-.34-2.73-1.03-1.07-1.54-1.07-2.57v-21.19c0-1.03.36-1.89,1.07-2.58.72-.69,1.63-1.04,2.73-1.04h8.4c3.41,0,6.06.83,7.96,2.5,1.89,1.67,2.84,3.83,2.84,6.5,0,2.17-.71,3.92-2.13,5.23-.59.59-1.28,1.04-2.07,1.37v.41l4.59,6c.2.23.36.5.49.8.34.65.51,1.32.51,1.99,0,1.03-.35,1.88-1.06,2.57s-1.62,1.03-2.72,1.03c-.82,0-1.46-.15-1.91-.45-.46-.3-.89-.75-1.29-1.35l-6.6-8.98h-3.2ZM376.05,352.12c.87,0,1.59-.25,2.15-.76s.84-1.12.84-1.84-.28-1.33-.84-1.84-1.28-.76-2.15-.76h-4.61v5.2h4.61Z"/>
        <path class="cls-17" d="M416.63,357.72c0,2.27-.5,4.27-1.51,6.02-1.01,1.75-2.47,3.11-4.38,4.1s-4.15,1.48-6.7,1.48-4.79-.5-6.7-1.48-3.38-2.36-4.38-4.1c-1.01-1.74-1.51-3.75-1.51-6.02v-6.41c0-2.27.5-4.27,1.51-6.02,1.01-1.74,2.47-3.11,4.38-4.1,1.91-.99,4.15-1.48,6.7-1.48s4.79.5,6.7,1.48c1.91.99,3.38,2.36,4.38,4.1,1.01,1.75,1.51,3.75,1.51,6.02v6.41ZM408.84,351.31c0-1.69-.42-2.98-1.25-3.87-.83-.88-2.02-1.33-3.55-1.33s-2.72.44-3.55,1.33c-.83.89-1.25,2.17-1.25,3.87v6.41c0,1.69.42,2.98,1.25,3.87.83.89,2.02,1.33,3.55,1.33s2.72-.44,3.55-1.33c.83-.88,1.25-2.17,1.25-3.87v-6.41Z"/>
        <path class="cls-17" d="M429.21,365.32c0,1.03-.35,1.88-1.06,2.57s-1.62,1.03-2.72,1.03-2.02-.34-2.73-1.03-1.07-1.54-1.07-2.57v-21.6c0-1.03.36-1.88,1.07-2.57s1.63-1.03,2.73-1.03,2.01.34,2.72,1.03,1.06,1.54,1.06,2.57v21.6Z"/>
      </g>
      <path class="cls-17" d="M664.7,176.17c6.82,1.79,13.91,3,20.99,2.6,6.69-.38,13.13-2.13,19.29-4.71l-3.08-3.08c-7.24,23.87-18.84,46.24-29.77,68.56-2.97,6.06-5.92,12.12-8.76,18.23l4.57,1.93c2.31-9.09,4.83-18.15,6.07-27.47.6-4.48.95-9.04.47-13.55-.11-1.05-.26-2.11-.46-3.15-.08-.42-.18-.83-.26-1.24-.03-.16-.06-.33-.09-.49-.09-.54.03.45-.02-.15-.1-1.32-.1-2.62,0-3.93.06-.69.13-1.38.22-2.06-.07.52.06-.38.07-.49.06-.38.12-.77.18-1.15.22-1.34.47-2.67.69-4,.41-2.46.91-5.06.41-7.54-1.48-7.31-10.52-2.67-14.25-.44-1.24.74-2.52,1.68-2.96,3.14-.41,1.37.1,2.77,1.15,3.71,2.08,1.86,5.46,2.25,8.1,2.64,9.97,1.44,20.17,1.46,30.22,1.36s20.05-.4,29.97-1.6c2.78-.34,6.1-.5,8.64-1.82,1.31-.68,2.26-2,1.84-3.54-.3-1.1-1.23-1.83-2.21-2.31-2.52-1.23-5.38-1.83-8.1-2.46-4.35-1.01-8.74-1.84-13.13-2.63-11.41-2.06-22.87-3.8-34.34-5.43-10.54-1.49-21.09-2.9-31.67-4.04-3.07-.33-6.15-.67-9.23-.81-.8-.04-1.59-.07-2.39.05-1.84.26-2.88,1.92-2.31,3.71.45,1.44,1.65,2.71,2.58,3.84,1.42,1.73,2.94,3.38,4.47,5.02,4.3,4.62,8.74,9.1,13.21,13.56,8.31,8.28,16.66,16.62,25.42,24.43,3.96,3.53,8.16,6.81,12.38,10.02,5.38,4.09,10.9,8.04,16.69,11.53,2.45,1.47,4.96,2.88,7.58,4.02,2.24.98,4.55,1.87,7.02,2.03,2.05.13,4.15-.58,5.31-2.35,1.28-1.95.89-4.24-.02-6.24-1.01-2.22-2.71-4.17-4.37-5.93-2.11-2.24-4.43-4.29-6.8-6.25-4.9-4.06-10.07-7.81-15.34-11.38-4.33-2.92-8.66-5.49-13.52-7.47-7.47-3.04-15.35-5.1-23.24-6.7s-16.25-2.8-24.46-2.98c-3.26-.07-6.58,0-9.8.55-2.95.5-4.74,3.07-3.8,6,.84,2.61,3.4,3.67,5.86,4.18,5.94,1.23,12.05,1.8,18.1,2.29,7.47.61,14.97.96,22.47,1.1,7.07.13,14.16.11,21.22-.35,2.86-.19,5.71-.46,8.55-.89,1.82-.28,3.67-.62,5.39-1.31,1.93-.77,4.05-2.28,3.36-4.69-.59-2.05-2.99-2.86-4.82-3.37-5.6-1.56-11.71-1.86-17.49-1.99-3.01-.07-6.03-.03-9.04.22-2.44.2-4.98.46-7.31,1.27-1.28.44-2.12,1.71-1.75,3.08.34,1.24,1.79,2.19,3.08,1.75.96-.33,1.96-.55,2.96-.73.27-.05.54-.09.8-.13.08-.01.52-.07.19-.03-.4.05.32-.04.31-.04.65-.07,1.29-.14,1.94-.19,2.97-.24,5.96-.27,8.94-.2s6.08.26,9.11.59c.37.04.73.08,1.1.13.16.02.98.13.51.06.66.09,1.32.19,1.98.31,1.06.18,2.13.39,3.17.68.4.11.79.22,1.18.36.09.03.77.31.32.11s.12.07.22.12c.05.03.32.23.38.23,0,0-.51-.47-.19-.13.13.14,0,.13-.08-.12l-.16-.2c.12.21.06.06-.17-.44-.04-.16-.05-.73.02-.97.05-.19.65-.96.2-.51.27-.28.45-.29.07-.1-.15.08-.31.15-.46.24-.47.27.4-.11.09-.04-.15.04-.3.11-.45.17-.38.13-.77.25-1.17.35-.9.24-1.81.42-2.73.57-.53.09-1.07.17-1.6.25-.37.05.44-.06.06,0-.14.02-.27.04-.41.05-.35.04-.7.08-1.06.12-2.8.31-5.62.49-8.43.62-13.93.63-27.99.15-41.88-1.07-3-.26-5.99-.57-8.98-.96-.51-.07-.16-.02-.05,0-.19-.03-.39-.05-.58-.08-.3-.04-.61-.09-.91-.13-.65-.1-1.3-.2-1.95-.3-1.31-.22-2.65-.42-3.93-.78-.27-.08-1.09-.54-1.24-.52-.03,0-.05.08-.08.09l-.35.34.41-.1c.2-.01.43-.07.64-.1-.56.08.21-.02.26-.03,1.43-.16,2.87-.25,4.31-.3,3.45-.1,6.9.07,10.33.36,7.81.67,15.56,2.06,23.17,3.92,6.88,1.69,13.93,3.76,20.11,6.81,3.98,1.96,7.66,4.57,11.29,7.1,5.04,3.5,9.58,6.85,14.14,10.86,2.09,1.83,4.13,3.75,5.92,5.89.17.21.35.42.52.63-.33-.41.08.11.2.27.31.43.61.88.88,1.34.21.36.4.74.58,1.12-.32-.7.06.44.17.7.09.24-.02-.64-.01,0,0,.12-.06.69.02.17s-.03.09-.08.19c-.16.31.33-.63,0-.07-.26.45.38-.44.06-.09-.4.45.28-.23.09-.05-.09.08-.24.15-.35.19.49-.19.39-.16,0-.05-.33.09-.54-.06.11,0-.16-.02-.33.03-.48.03-.17,0-.35,0-.52-.02-.09,0-.18-.02-.27-.02-.49,0,.59.13.1.01-.92-.22-1.83-.41-2.72-.72-.52-.18-1.03-.38-1.54-.59-.34-.14.38.16.03.01-.13-.06-.26-.11-.38-.17-.33-.15-.66-.3-.98-.45-1.2-.57-2.38-1.19-3.54-1.84-2.68-1.49-5.27-3.12-7.83-4.81-2.71-1.8-5.37-3.67-7.99-5.6s-4.74-3.54-7.02-5.34c-7.43-5.87-14.24-12.37-21.05-18.94-8.94-8.62-17.88-17.3-26.29-26.44-1.34-1.46-2.67-2.92-3.92-4.46-.12-.15-.25-.31-.37-.46-.36-.44.33.47.02.03-.18-.25-.37-.49-.54-.75-.12-.18-.23-.38-.35-.57-.35-.52.16.59.04.11.2.84-.11,1.94-1.09,2.52-.23.13-.79.29-.4.19-1.01.25-.37.05.08.04.9-.01,1.81.05,2.7.11,7.88.54,15.75,1.6,23.58,2.61,1.33.17,2.65.34,3.98.52.62.08,1.24.16,1.86.25.5.07.14.02.04,0,.16.02.31.04.47.06.39.05.79.11,1.18.16,2.78.38,5.57.77,8.35,1.16,5.6.8,11.2,1.63,16.79,2.51,9.5,1.5,19.02,3.03,28.41,5.13,2.68.6,5.32,1.27,7.91,2.17.54.19-.62-.32.02,0,.15.08.31.16.46.24.12.06.58.35.07.02-.42-.28-.21-.17-.11-.07.26.27-.34-.48-.28-.38-.44-.73-.23-1.99.31-2.52-.13.13.67-.49.21-.18-.42.29-.25.05.1-.02-.98.19-1.94.56-2.93.75-.71.13-1.43.25-2.14.35-.18.03-.36.05-.54.08-.42.06.63-.08-.04,0-.45.06-.9.11-1.35.16-4.29.5-8.6.79-12.91,1.02-10.4.55-20.85.72-31.26.37-4.38-.15-8.78-.38-13.13-.9-.21-.03-.42-.05-.63-.08-.64-.08.24.04-.1-.01-.43-.07-.86-.13-1.3-.2-.73-.12-1.45-.25-2.17-.41-.61-.14-1.23-.29-1.83-.48-.23-.07-.45-.18-.69-.24-.44-.13.62.33.18.08-.1-.06-.21-.09-.3-.15-.13-.08-.34-.25-.48-.29.32.08.46.45.1.03.4.48.57.8.38,1.6.13-.54-.37.67-.09.19.23-.4-.54.39-.05.08.07-.04.17-.15.23-.21.3-.33-.14.15-.2.15.18,0,.66-.43.81-.52.87-.52,1.76-1.01,2.67-1.47.79-.4,1.38-.69,1.95-.89.54-.19,1.08-.34,1.63-.49.68-.18-.18-.04.18-.04.23,0,.49.02.72,0-.64.06-.37-.09-.06.03s-.58-.3-.1-.02c.04.02-.31-.21-.23-.22-.08.01-.21-.31-.04-.03.05.07.11.16.14.24-.25-.87-.07-.16-.03.02.02.09.15.73.07.25s.01.21.02.32c.01.26.02.53.01.79,0,.5-.05,1-.1,1.49-.03.25-.06.51-.09.76.08-.63-.06.37-.08.53-.19,1.23-.42,2.46-.63,3.68-.48,2.74-.95,5.51-.98,8.3-.03,3.15.93,6.18,1.08,9.32.2,4.21-.19,8.44-.84,12.6-1.32,8.4-3.6,16.6-5.69,24.83-.67,2.64,3.33,4.58,4.57,1.93,10.68-22.96,22.71-45.29,32.18-68.8,2.54-6.3,4.88-12.69,6.85-19.19.5-1.66-1.28-3.83-3.08-3.08-5.73,2.39-11.74,4.18-17.96,4.53-6.67.37-13.23-.74-19.66-2.42-3.12-.82-4.44,4-1.33,4.82h0Z"/>
      <path class="cls-17" d="M128.16,233.56l10.23-18.76c-3.22-1.76-6.93-2.71-10.88-2.6-11.28.33-20.45,9.56-20.71,20.85-.28,12.03,9.39,21.87,21.36,21.87s21.36-9.57,21.36-21.36h-21.36ZM118.97,230.06c-2.04,0-3.7-1.66-3.7-3.7s1.66-3.7,3.7-3.7,3.7,1.66,3.7,3.7-1.66,3.7-3.7,3.7Z"/>
    </g>
    <g>
      <path class="cls-23" d="M202.18,1127.63c4.92,2.24,10.87,3.36,17.85,3.36,6.55,0,12.18-.92,16.89-2.76,4.71-1.84,8.39-4.32,11.03-7.46,2.64-3.13,4.26-6.73,4.88-10.78h-15.27c-.38,1.46-1.24,2.85-2.58,4.17-1.34,1.32-3.26,2.39-5.76,3.22-2.5.83-5.56,1.24-9.19,1.24s-6.96-.58-9.58-1.73c-2.62-1.15-4.58-2.74-5.9-4.77-1.32-2.03-1.98-4.31-1.98-6.86s.66-4.83,1.98-6.86c1.32-2.03,3.29-3.62,5.9-4.77,2.61-1.15,5.81-1.73,9.58-1.73s6.69.41,9.19,1.24c2.5.82,4.42,1.9,5.76,3.22,1.34,1.32,2.2,2.71,2.58,4.17h15.27c-.61-4-2.24-7.59-4.88-10.74-2.64-3.16-6.31-5.65-11.03-7.49-4.71-1.84-10.34-2.76-16.89-2.76-6.97,0-12.92,1.12-17.85,3.36-4.92,2.24-8.63,5.3-11.13,9.19-2.5,3.89-3.75,8.28-3.75,13.18s1.25,9.29,3.75,13.18c2.5,3.89,6.21,6.95,11.13,9.19Z"/>
      <path class="cls-23" d="M309.36,1128.37c2.73-1.08,4.74-2.62,6.01-4.59,1.27-1.98,1.91-4.38,1.91-7.21,0-3.68-1.23-6.57-3.67-8.69-2.09-1.81-4.99-2.86-8.69-3.16v-1.48c1.87-.19,3.49-.63,4.88-1.3,1.84-.89,3.25-2.18,4.24-3.85.99-1.67,1.48-3.59,1.48-5.76,0-3.63-1.36-6.5-4.06-8.62-2.71-2.12-6.82-3.18-12.33-3.18h-38.8v49.48h38.45c4.33,0,7.87-.54,10.6-1.63ZM295.22,1092.04c1.65,0,2.9.34,3.75,1.02.85.68,1.27,1.64,1.27,2.86s-.42,2.19-1.27,2.9c-.85.71-2.1,1.06-3.75,1.06h-20.21v-7.85h20.21ZM275.01,1118.47v-8.55h21.63c1.74,0,3.07.38,3.99,1.13.92.75,1.38,1.81,1.38,3.18s-.46,2.36-1.38,3.11c-.92.75-2.25,1.13-3.99,1.13h-21.63Z"/>
      <path class="cls-23" d="M337.35,1127.63c4.99,2.24,11.05,3.36,18.17,3.36s13.17-1.12,18.16-3.36c4.99-2.24,8.75-5.3,11.27-9.19,2.52-3.89,3.78-8.28,3.78-13.18s-1.26-9.29-3.78-13.18c-2.52-3.89-6.28-6.95-11.27-9.19-5-2.24-11.05-3.36-18.16-3.36s-13.17,1.12-18.17,3.36c-4.99,2.24-8.75,5.3-11.27,9.19-2.52,3.89-3.78,8.28-3.78,13.18s1.26,9.29,3.78,13.18c2.52,3.89,6.28,6.95,11.27,9.19ZM339.57,1098.4c1.34-2.03,3.36-3.62,6.04-4.77,2.69-1.15,5.98-1.73,9.9-1.73s7.21.58,9.89,1.73c2.69,1.16,4.7,2.75,6.04,4.77,1.34,2.03,2.01,4.31,2.01,6.86s-.67,4.83-2.01,6.86c-1.34,2.03-3.36,3.62-6.04,4.77-2.69,1.16-5.98,1.73-9.89,1.73s-7.21-.58-9.9-1.73c-2.69-1.15-4.7-2.74-6.04-4.77-1.34-2.03-2.01-4.31-2.01-6.86s.67-4.83,2.01-6.86Z"/>
      <path class="cls-23" d="M440.82,1103.98v26.01h14.63v-49.48h-23.68l-20.99,40.36h-1.27c.71-2.07,1.25-4.22,1.63-6.43.38-2.21.57-4.85.57-7.92v-26.01h-14.7v49.48h23.75l20.92-40.36h1.34c-.71,2.07-1.25,4.22-1.63,6.43-.38,2.22-.57,4.85-.57,7.92Z"/>
      <path class="cls-23" d="M496.9,1129c2.47-1.32,4.39-3.25,5.76-5.8,1.37-2.54,2.26-5.73,2.69-9.54l2.26-20.57h21.2v36.89h15.27v-49.48h-49.83l-3.6,30.53c-.28,2.5-.94,4.24-1.98,5.23-1.04.99-2.66,1.48-4.88,1.48-.66,0-1.24-.04-1.73-.11s-1.02-.2-1.59-.39v12.58c1.98.75,4.36,1.13,7.14,1.13,3.72,0,6.82-.66,9.29-1.98Z"/>
      <path class="cls-23" d="M633.53,1118.37c2.47-3.89,3.71-8.26,3.71-13.11s-1.24-9.22-3.71-13.11c-2.47-3.89-6.03-6.96-10.67-9.22-4.64-2.26-10.17-3.39-16.57-3.39s-11.93,1.13-16.57,3.39c-4.64,2.26-8.2,5.34-10.67,9.22-1.38,2.17-2.36,4.49-2.97,6.96h-6.54v-18.59h-15.27v49.48h15.27v-18.87h6.47c.6,2.58,1.61,4.99,3.04,7.24,2.47,3.89,6.03,6.96,10.67,9.22,4.64,2.26,10.17,3.39,16.57,3.39s11.93-1.13,16.57-3.39c4.64-2.26,8.2-5.34,10.67-9.22ZM620.03,1112.08c-1.3,2.05-3.15,3.65-5.55,4.81-2.4,1.16-5.23,1.73-8.48,1.73s-6.15-.58-8.55-1.73c-2.4-1.15-4.24-2.76-5.51-4.81s-1.91-4.32-1.91-6.82.64-4.77,1.91-6.82,3.11-3.65,5.51-4.81c2.4-1.15,5.25-1.73,8.55-1.73s6.08.58,8.48,1.73c2.4,1.16,4.25,2.76,5.55,4.81,1.3,2.05,1.94,4.32,1.94,6.82s-.65,4.77-1.94,6.82Z"/>
      <path class="cls-23" d="M653.71,1129.99h38.87v11.8h14.63v-24.1h-7.49v-37.18h-47.71l-3.6,30.67c-.24,2.17-.9,3.79-1.98,4.88-1.08,1.08-2.54,1.63-4.38,1.63h-3.04v24.1h14.7v-11.8ZM661.02,1116.46c1.25-1.48,2.04-3.78,2.37-6.89l1.77-16.75h19.93v24.88h-25.55c.57-.33,1.06-.74,1.48-1.24Z"/>
      <path class="cls-23" d="M758.59,1089.64h1.34c-.71,2.07-1.25,4.22-1.63,6.43-.38,2.22-.57,4.85-.57,7.92v26.01h14.63v-49.48h-23.68l-20.99,40.36h-1.27c.71-2.07,1.25-4.22,1.63-6.43.38-2.21.57-4.85.57-7.92v-26.01h-14.7v49.48h23.75l20.92-40.36Z"/>
      <path class="cls-23" d="M53.29,1192.68c-2.09-1.81-4.99-2.86-8.69-3.16v-1.48c1.87-.19,3.49-.63,4.88-1.3,1.84-.89,3.25-2.18,4.24-3.85.99-1.67,1.48-3.59,1.48-5.76,0-3.63-1.35-6.5-4.06-8.62-2.71-2.12-6.82-3.18-12.33-3.18H0v49.48h38.45c4.33,0,7.87-.54,10.6-1.63,2.73-1.08,4.74-2.62,6.01-4.59,1.27-1.98,1.91-4.38,1.91-7.21,0-3.68-1.23-6.57-3.68-8.69ZM34.92,1176.85c1.65,0,2.9.34,3.75,1.02.85.68,1.27,1.64,1.27,2.86s-.42,2.19-1.27,2.9c-.85.71-2.1,1.06-3.75,1.06H14.7v-7.85h20.21ZM40.32,1202.16c-.92.75-2.25,1.13-3.99,1.13H14.7v-8.55h21.63c1.74,0,3.07.38,3.99,1.13.92.75,1.38,1.81,1.38,3.18s-.46,2.36-1.38,3.11Z"/>
      <path class="cls-23" d="M135.91,1192.68c-2.09-1.81-4.99-2.86-8.69-3.16v-1.48c1.87-.19,3.49-.63,4.88-1.3,1.84-.89,3.25-2.18,4.24-3.85.99-1.67,1.48-3.59,1.48-5.76,0-3.63-1.35-6.5-4.06-8.62-2.71-2.12-6.82-3.18-12.33-3.18h-38.8v49.48h38.45c4.33,0,7.87-.54,10.6-1.63,2.73-1.08,4.74-2.62,6.01-4.59s1.91-4.38,1.91-7.21c0-3.68-1.23-6.57-3.68-8.69ZM117.54,1176.85c1.65,0,2.9.34,3.75,1.02.85.68,1.27,1.64,1.27,2.86s-.42,2.19-1.27,2.9c-.85.71-2.1,1.06-3.75,1.06h-20.21v-7.85h20.21ZM122.94,1202.16c-.92.75-2.25,1.13-3.99,1.13h-21.63v-8.55h21.63c1.74,0,3.07.38,3.99,1.13.92.75,1.38,1.81,1.38,3.18s-.46,2.36-1.38,3.11Z"/>
      <path class="cls-23" d="M162.84,1165.33l-22.41,49.48h16.19l3.01-7.21h24.51l3.01,7.21h16.19l-22.48-49.48h-18.02ZM164.5,1195.94l3.92-9.4c1.08-2.69,1.83-4.9,2.23-6.64.4-1.74.6-3.46.6-5.16v-.28h1.27v.28c0,1.7.2,3.42.6,5.16.4,1.74,1.14,3.96,2.23,6.64l3.92,9.4h-14.78Z"/>
      <polygon class="cls-23" points="269.71 1202.51 254.3 1202.51 254.3 1165.33 239.6 1165.33 239.6 1202.51 224.12 1202.51 224.12 1165.33 208.85 1165.33 208.85 1214.81 284.98 1214.81 284.98 1165.33 269.71 1165.33 269.71 1202.51"/>
      <polygon class="cls-23" points="295.15 1214.81 345.19 1214.81 345.19 1203.07 310.42 1203.07 310.42 1194.88 340.25 1194.88 340.25 1184.49 310.42 1184.49 310.42 1177.06 345.19 1177.06 345.19 1165.33 295.15 1165.33 295.15 1214.81"/>
      <path class="cls-23" d="M380.07,1150.42c-1.16-.42-2.01-.98-2.58-1.66-.57-.68-.92-1.42-1.06-2.23h-12.23c.33,2.88,1.24,5.34,2.72,7.39,1.48,2.05,3.67,3.64,6.57,4.77s6.54,1.7,10.92,1.7c6.46,0,11.32-1.21,14.6-3.64,3.27-2.43,5.15-5.83,5.62-10.21h-12.3c-.19,1.32-.92,2.4-2.19,3.25s-3.18,1.27-5.73,1.27c-1.74,0-3.19-.21-4.35-.64Z"/>
      <path class="cls-23" d="M367.67,1205.69h-1.27c.71-2.07,1.25-4.22,1.63-6.43.38-2.21.57-4.85.57-7.92v-26.01h-14.7v49.48h23.75l20.92-40.36h1.34c-.71,2.07-1.25,4.22-1.63,6.43-.38,2.22-.57,4.85-.57,7.92v26.01h14.63v-49.48h-23.68l-20.99,40.36Z"/>
      <path class="cls-23" d="M516.45,1165.33l-21.63,47.77-22.02-24.02,22.16-23.75h-19.08l-19.37,22.17v-22.17h-15.27v49.48h15.27v-23.54l20.14,23.54h33.57l3.01-7.21h24.51l3.01,7.21h16.19l-22.48-49.48h-18.02ZM518.11,1195.94l3.92-9.4c1.08-2.69,1.83-4.9,2.23-6.64.4-1.74.6-3.46.6-5.16v-.28h1.27v.28c0,1.7.2,3.42.6,5.16.4,1.74,1.14,3.96,2.23,6.64l3.92,9.4h-14.78Z"/>
      <polygon class="cls-23" points="552.14 1177.91 571.44 1177.91 571.44 1214.81 586.7 1214.81 586.7 1177.91 606 1177.91 606 1165.33 552.14 1165.33 552.14 1177.91"/>
      <polygon class="cls-23" points="611.51 1214.81 661.55 1214.81 661.55 1203.07 626.78 1203.07 626.78 1194.88 656.6 1194.88 656.6 1184.49 626.78 1184.49 626.78 1177.06 661.55 1177.06 661.55 1165.33 611.51 1165.33 611.51 1214.81"/>
      <polygon class="cls-23" points="670.24 1214.81 685.51 1214.81 685.51 1177.91 716.18 1177.91 716.18 1165.33 670.24 1165.33 670.24 1214.81"/>
      <path class="cls-23" d="M768.7,1167.7c-5-2.24-11.05-3.36-18.16-3.36s-13.17,1.12-18.16,3.36c-5,2.24-8.75,5.3-11.27,9.19-2.52,3.89-3.78,8.28-3.78,13.18s1.26,9.29,3.78,13.18c2.52,3.89,6.28,6.95,11.27,9.19,4.99,2.24,11.05,3.36,18.16,3.36s13.17-1.12,18.16-3.36c4.99-2.24,8.75-5.3,11.27-9.19,2.52-3.89,3.78-8.28,3.78-13.18s-1.26-9.29-3.78-13.18c-2.52-3.89-6.28-6.95-11.27-9.19ZM766.47,1196.93c-1.34,2.03-3.36,3.62-6.04,4.77-2.69,1.16-5.98,1.73-9.9,1.73s-7.21-.58-9.9-1.73c-2.69-1.15-4.7-2.74-6.04-4.77-1.34-2.03-2.01-4.31-2.01-6.86s.67-4.83,2.01-6.86c1.34-2.03,3.36-3.62,6.04-4.77,2.69-1.15,5.98-1.73,9.9-1.73s7.21.58,9.9,1.73c2.69,1.16,4.7,2.75,6.04,4.77,1.34,2.03,2.01,4.31,2.01,6.86s-.67,4.83-2.01,6.86Z"/>
      <path class="cls-23" d="M836.09,1167.49c-3.18-1.44-7.13-2.16-11.84-2.16h-32.23v49.48h15.27v-14.28h16.96c4.71,0,8.66-.72,11.84-2.16,3.18-1.44,5.55-3.46,7.1-6.08s2.33-5.74,2.33-9.36-.78-6.75-2.33-9.37c-1.55-2.61-3.92-4.64-7.1-6.08ZM829.52,1185.86c-.49.82-1.25,1.47-2.26,1.94-1.01.47-2.25.71-3.71.71h-17.1v-11.17h17.1c1.46,0,2.7.24,3.71.71,1.01.47,1.77,1.12,2.26,1.94.49.82.74,1.8.74,2.93s-.25,2.11-.74,2.93Z"/>
      <path class="cls-23" d="M867.01,1205.69h-1.27c.71-2.07,1.25-4.22,1.63-6.43.38-2.21.57-4.85.57-7.92v-26.01h-14.7v49.48h23.75l20.92-40.36h1.34c-.71,2.07-1.25,4.22-1.63,6.43-.38,2.22-.57,4.85-.57,7.92v26.01h14.63v-49.48h-23.68l-20.99,40.36Z"/>
      <path class="cls-23" d="M956.63,1165.33l-20.99,40.36h-1.27c.71-2.07,1.25-4.22,1.63-6.43.38-2.21.57-4.85.57-7.92v-26.01h-14.7v49.48h23.75l20.92-40.36h1.34c-.71,2.07-1.25,4.22-1.63,6.43-.38,2.22-.57,4.85-.57,7.92v26.01h14.63v-49.48h-23.68Z"/>
    </g>
  </g>
</svg>