<?xml version="1.0"?>
<svg width="263" height="64" xmlns="http://www.w3.org/2000/svg" xmlns:svg="http://www.w3.org/2000/svg">
 <g class="layer">
  <title>Layer 1</title>
  <path d="m99.29,60l0,-11.36l4.8,0c0.49,0 0.94,0.1 1.34,0.3c0.41,0.21 0.76,0.48 1.06,0.84c0.31,0.34 0.54,0.72 0.7,1.15c0.17,0.41 0.26,0.84 0.26,1.28c0,0.54 -0.11,1.05 -0.32,1.53c-0.21,0.48 -0.5,0.89 -0.88,1.22c-0.38,0.33 -0.82,0.55 -1.33,0.66l2.78,4.38l-1.26,0l-2.67,-4.19l-3.36,0l0,4.19l-1.12,0zm1.12,-5.18l3.71,0c0.45,0 0.84,-0.13 1.17,-0.37c0.33,-0.25 0.58,-0.57 0.77,-0.96c0.18,-0.41 0.27,-0.83 0.27,-1.28c0,-0.46 -0.11,-0.88 -0.32,-1.27c-0.21,-0.39 -0.48,-0.71 -0.84,-0.94c-0.34,-0.25 -0.72,-0.37 -1.15,-0.37l-3.61,0l0,5.19zm12.46,5.34c-0.6,0 -1.16,-0.11 -1.67,-0.34c-0.51,-0.23 -0.95,-0.55 -1.33,-0.94c-0.37,-0.41 -0.66,-0.87 -0.88,-1.39c-0.2,-0.52 -0.3,-1.08 -0.3,-1.68c0,-0.78 0.18,-1.5 0.53,-2.15c0.36,-0.65 0.86,-1.16 1.49,-1.55c0.63,-0.39 1.34,-0.59 2.14,-0.59c0.82,0 1.54,0.2 2.14,0.59c0.62,0.4 1.11,0.92 1.46,1.57c0.35,0.64 0.53,1.34 0.53,2.11c0,0.09 0,0.17 0,0.26c0,0.07 -0.01,0.13 -0.02,0.17l-7.13,0c0.05,0.6 0.21,1.13 0.49,1.6c0.29,0.46 0.66,0.83 1.11,1.11c0.45,0.26 0.95,0.4 1.48,0.4c0.55,0 1.06,-0.14 1.54,-0.42c0.49,-0.28 0.83,-0.64 1.02,-1.09l0.95,0.26c-0.17,0.39 -0.43,0.75 -0.79,1.07c-0.35,0.32 -0.76,0.57 -1.24,0.75c-0.47,0.17 -0.98,0.26 -1.52,0.26zm-3.08,-4.72l6.16,0c-0.04,-0.61 -0.2,-1.14 -0.49,-1.6c-0.28,-0.46 -0.65,-0.82 -1.11,-1.07c-0.44,-0.27 -0.94,-0.4 -1.48,-0.4c-0.55,0 -1.04,0.13 -1.49,0.4c-0.45,0.25 -0.82,0.62 -1.11,1.09c-0.27,0.45 -0.43,0.98 -0.48,1.58zm12.79,4.16c-0.09,0.03 -0.22,0.09 -0.4,0.18c-0.18,0.08 -0.4,0.16 -0.66,0.22c-0.25,0.06 -0.53,0.1 -0.83,0.1c-0.31,0 -0.6,-0.06 -0.88,-0.18c-0.27,-0.12 -0.48,-0.29 -0.64,-0.53c-0.16,-0.24 -0.24,-0.54 -0.24,-0.89l0,-5.97l-1.15,0l0,-0.87l1.15,0l0,-2.81l1.09,0l0,2.81l1.92,0l0,0.87l-1.92,0l0,5.66c0.02,0.3 0.13,0.52 0.32,0.67c0.2,0.15 0.43,0.23 0.69,0.23c0.29,0 0.57,-0.05 0.81,-0.15c0.25,-0.1 0.4,-0.18 0.45,-0.22l0.29,0.88zm4.82,0.56c-0.6,0 -1.15,-0.11 -1.67,-0.34c-0.51,-0.23 -0.95,-0.55 -1.32,-0.94c-0.38,-0.41 -0.67,-0.87 -0.88,-1.39c-0.21,-0.52 -0.31,-1.08 -0.31,-1.68c0,-0.78 0.18,-1.5 0.53,-2.15c0.36,-0.65 0.86,-1.16 1.49,-1.55c0.63,-0.39 1.34,-0.59 2.14,-0.59c0.82,0 1.54,0.2 2.15,0.59c0.61,0.4 1.1,0.92 1.45,1.57c0.35,0.64 0.53,1.34 0.53,2.11c0,0.09 0,0.17 0,0.26c0,0.07 -0.01,0.13 -0.02,0.17l-7.13,0c0.05,0.6 0.22,1.13 0.49,1.6c0.29,0.46 0.66,0.83 1.11,1.11c0.46,0.26 0.95,0.4 1.49,0.4c0.54,0 1.05,-0.14 1.53,-0.42c0.49,-0.28 0.83,-0.64 1.03,-1.09l0.94,0.26c-0.17,0.39 -0.43,0.75 -0.78,1.07c-0.36,0.32 -0.77,0.57 -1.25,0.75c-0.47,0.17 -0.98,0.26 -1.52,0.26zm-3.07,-4.72l6.16,0c-0.05,-0.61 -0.21,-1.14 -0.5,-1.6c-0.28,-0.46 -0.65,-0.82 -1.1,-1.07c-0.45,-0.27 -0.95,-0.4 -1.49,-0.4c-0.55,0 -1.04,0.13 -1.49,0.4c-0.45,0.25 -0.82,0.62 -1.1,1.09c-0.28,0.45 -0.44,0.98 -0.48,1.58zm15.87,4.56l-1.09,0l0,-4.66c0,-0.98 -0.15,-1.69 -0.43,-2.14c-0.29,-0.46 -0.74,-0.69 -1.36,-0.69c-0.43,0 -0.85,0.11 -1.27,0.32c-0.41,0.2 -0.78,0.49 -1.1,0.85c-0.31,0.35 -0.54,0.76 -0.67,1.22l0,5.1l-1.09,0l0,-8.34l0.99,0l0,1.89c0.22,-0.4 0.52,-0.76 0.88,-1.05c0.36,-0.31 0.77,-0.55 1.23,-0.72c0.46,-0.17 0.93,-0.26 1.43,-0.26c0.45,0 0.84,0.09 1.16,0.26c0.32,0.17 0.58,0.41 0.77,0.73c0.19,0.31 0.33,0.69 0.42,1.14c0.08,0.44 0.13,0.93 0.13,1.47l0,4.88zm6.24,-0.4c-0.09,0.03 -0.22,0.09 -0.4,0.18c-0.18,0.08 -0.4,0.16 -0.66,0.22c-0.25,0.06 -0.53,0.1 -0.83,0.1c-0.31,0 -0.6,-0.06 -0.88,-0.18c-0.27,-0.12 -0.48,-0.29 -0.64,-0.53c-0.16,-0.24 -0.24,-0.54 -0.24,-0.89l0,-5.97l-1.15,0l0,-0.87l1.15,0l0,-2.81l1.09,0l0,2.81l1.92,0l0,0.87l-1.92,0l0,5.66c0.02,0.3 0.13,0.52 0.32,0.67c0.2,0.15 0.43,0.23 0.69,0.23c0.3,0 0.57,-0.05 0.81,-0.15c0.25,-0.1 0.4,-0.18 0.45,-0.22l0.29,0.88zm1.36,0.4l0,-8.34l1.09,0l0,8.34l-1.09,0zm0,-10.08l0,-1.6l1.09,0l0,1.6l-1.09,0zm7.03,10.24c-0.59,0 -1.15,-0.11 -1.66,-0.34c-0.5,-0.23 -0.94,-0.55 -1.31,-0.94c-0.36,-0.41 -0.65,-0.86 -0.85,-1.38c-0.2,-0.52 -0.3,-1.07 -0.3,-1.64c0,-0.6 0.1,-1.16 0.3,-1.67c0.2,-0.52 0.49,-0.98 0.86,-1.37c0.38,-0.41 0.82,-0.72 1.32,-0.95c0.51,-0.23 1.06,-0.35 1.66,-0.35c0.6,0 1.15,0.12 1.65,0.35c0.5,0.23 0.94,0.54 1.31,0.95c0.37,0.39 0.66,0.85 0.86,1.37c0.21,0.51 0.31,1.07 0.31,1.67c0,0.57 -0.1,1.12 -0.31,1.64c-0.2,0.52 -0.49,0.97 -0.86,1.38c-0.36,0.39 -0.8,0.71 -1.31,0.94c-0.5,0.23 -1.06,0.34 -1.67,0.34zm-3.02,-4.29c0,0.62 0.13,1.19 0.4,1.7c0.28,0.5 0.64,0.9 1.1,1.2c0.46,0.29 0.97,0.43 1.52,0.43c0.56,0 1.07,-0.15 1.52,-0.45c0.46,-0.3 0.83,-0.7 1.11,-1.21c0.27,-0.53 0.41,-1.09 0.41,-1.7c0,-0.62 -0.14,-1.18 -0.41,-1.7c-0.28,-0.51 -0.65,-0.91 -1.11,-1.21c-0.45,-0.3 -0.96,-0.45 -1.52,-0.45c-0.55,0 -1.06,0.15 -1.52,0.46c-0.44,0.31 -0.81,0.72 -1.08,1.24c-0.28,0.5 -0.42,1.06 -0.42,1.69zm16,4.13l-1.09,0l0,-4.66c0,-0.98 -0.15,-1.69 -0.43,-2.14c-0.29,-0.46 -0.75,-0.69 -1.36,-0.69c-0.43,0 -0.85,0.11 -1.27,0.32c-0.41,0.2 -0.78,0.49 -1.1,0.85c-0.31,0.35 -0.54,0.76 -0.67,1.22l0,5.1l-1.09,0l0,-8.34l0.99,0l0,1.89c0.22,-0.4 0.52,-0.76 0.88,-1.05c0.36,-0.31 0.77,-0.55 1.23,-0.72c0.46,-0.17 0.94,-0.26 1.43,-0.26c0.45,0 0.84,0.09 1.16,0.26c0.32,0.17 0.58,0.41 0.77,0.73c0.19,0.31 0.33,0.69 0.42,1.14c0.08,0.44 0.13,0.93 0.13,1.47l0,4.88zm18.79,0l-1.08,0l0,-4.66c0,-0.97 -0.16,-1.68 -0.47,-2.14c-0.31,-0.46 -0.77,-0.69 -1.37,-0.69c-0.63,0 -1.2,0.23 -1.7,0.67c-0.49,0.45 -0.84,1.03 -1.04,1.73l0,5.09l-1.09,0l0,-4.66c0,-0.98 -0.15,-1.69 -0.45,-2.14c-0.3,-0.46 -0.75,-0.69 -1.37,-0.69c-0.62,0 -1.18,0.22 -1.68,0.66c-0.5,0.44 -0.86,1.01 -1.06,1.73l0,5.1l-1.09,0l0,-8.34l1,0l0,1.89c0.35,-0.65 0.8,-1.15 1.34,-1.5c0.55,-0.35 1.17,-0.53 1.84,-0.53c0.69,0 1.25,0.2 1.68,0.59c0.43,0.4 0.69,0.91 0.78,1.55c0.39,-0.7 0.85,-1.23 1.38,-1.6c0.54,-0.36 1.16,-0.54 1.84,-0.54c0.47,0 0.86,0.09 1.18,0.26c0.33,0.17 0.6,0.41 0.79,0.73c0.2,0.31 0.34,0.69 0.43,1.14c0.1,0.44 0.14,0.93 0.14,1.47l0,4.88zm1.63,-2.4c0,-0.52 0.15,-0.97 0.45,-1.34c0.3,-0.39 0.71,-0.68 1.23,-0.88c0.54,-0.22 1.15,-0.32 1.84,-0.32c0.41,0 0.83,0.03 1.27,0.09c0.44,0.07 0.83,0.16 1.17,0.29l0,-0.7c0,-0.71 -0.21,-1.27 -0.63,-1.68c-0.41,-0.42 -0.99,-0.63 -1.72,-0.63c-0.45,0 -0.9,0.09 -1.33,0.26c-0.43,0.16 -0.88,0.4 -1.35,0.72l-0.41,-0.77c0.54,-0.37 1.07,-0.65 1.6,-0.83c0.52,-0.19 1.05,-0.29 1.6,-0.29c1.02,0 1.83,0.29 2.43,0.88c0.6,0.59 0.9,1.4 0.9,2.43l0,3.86c0,0.15 0.03,0.26 0.09,0.33c0.07,0.07 0.17,0.11 0.3,0.12l0,0.86c-0.11,0.01 -0.21,0.02 -0.3,0.03c-0.08,0.01 -0.15,0.01 -0.19,0c-0.27,-0.01 -0.47,-0.09 -0.61,-0.25c-0.14,-0.16 -0.21,-0.33 -0.22,-0.52l-0.02,-0.6c-0.37,0.48 -0.86,0.85 -1.45,1.12c-0.6,0.25 -1.21,0.38 -1.83,0.38c-0.53,0 -1.02,-0.11 -1.45,-0.34c-0.43,-0.23 -0.77,-0.54 -1.01,-0.92c-0.24,-0.4 -0.36,-0.83 -0.36,-1.3zm5.59,0.64c0.12,-0.15 0.21,-0.29 0.27,-0.43c0.07,-0.14 0.1,-0.26 0.1,-0.37l0,-1.22c-0.37,-0.13 -0.74,-0.24 -1.14,-0.32c-0.38,-0.07 -0.77,-0.11 -1.17,-0.11c-0.78,0 -1.41,0.16 -1.88,0.47c-0.49,0.31 -0.72,0.73 -0.72,1.26c0,0.31 0.07,0.6 0.23,0.88c0.16,0.27 0.4,0.49 0.71,0.67c0.31,0.17 0.67,0.26 1.09,0.26c0.52,0 1.01,-0.1 1.45,-0.31c0.46,-0.2 0.81,-0.46 1.06,-0.78zm7.97,-5.62c-0.73,0.03 -1.37,0.23 -1.92,0.61c-0.55,0.39 -0.93,0.91 -1.16,1.59l0,5.18l-1.08,0l0,-8.34l1.02,0l0,2c0.29,-0.58 0.67,-1.06 1.14,-1.42c0.48,-0.36 0.98,-0.57 1.52,-0.61c0.1,-0.01 0.19,-0.01 0.27,-0.01c0.08,0 0.15,0 0.21,0.01l0,0.99zm7.4,7.38l-3.09,-4.27l-1.78,1.66l0,2.61l-1.09,0l0,-11.68l1.09,0l0,7.9l4.72,-4.54l1.2,0l-3.4,3.41l3.53,4.91l-1.18,0zm5.69,0.16c-0.59,0 -1.15,-0.11 -1.66,-0.34c-0.51,-0.23 -0.96,-0.55 -1.33,-0.94c-0.37,-0.41 -0.67,-0.87 -0.88,-1.39c-0.2,-0.52 -0.3,-1.08 -0.3,-1.68c0,-0.78 0.17,-1.5 0.52,-2.15c0.37,-0.65 0.86,-1.16 1.49,-1.55c0.63,-0.39 1.35,-0.59 2.15,-0.59c0.82,0 1.53,0.2 2.14,0.59c0.62,0.4 1.1,0.92 1.46,1.57c0.35,0.64 0.52,1.34 0.52,2.11c0,0.09 0,0.17 0,0.26c0,0.07 0,0.13 -0.01,0.17l-7.14,0c0.06,0.6 0.22,1.13 0.5,1.6c0.29,0.46 0.65,0.83 1.1,1.11c0.46,0.26 0.96,0.4 1.49,0.4c0.54,0 1.06,-0.14 1.54,-0.42c0.49,-0.28 0.83,-0.64 1.02,-1.09l0.94,0.26c-0.17,0.39 -0.43,0.75 -0.78,1.07c-0.35,0.32 -0.77,0.57 -1.25,0.75c-0.47,0.17 -0.97,0.26 -1.52,0.26zm-3.07,-4.72l6.16,0c-0.04,-0.61 -0.21,-1.14 -0.5,-1.6c-0.27,-0.46 -0.64,-0.82 -1.1,-1.07c-0.45,-0.27 -0.94,-0.4 -1.49,-0.4c-0.54,0 -1.04,0.13 -1.49,0.4c-0.44,0.25 -0.81,0.62 -1.1,1.09c-0.28,0.45 -0.44,0.98 -0.48,1.58zm12.78,4.16c-0.08,0.03 -0.21,0.09 -0.4,0.18c-0.18,0.08 -0.4,0.16 -0.65,0.22c-0.26,0.06 -0.54,0.1 -0.83,0.1c-0.31,0 -0.61,-0.06 -0.88,-0.18c-0.27,-0.12 -0.48,-0.29 -0.64,-0.53c-0.16,-0.24 -0.24,-0.54 -0.24,-0.89l0,-5.97l-1.16,0l0,-0.87l1.16,0l0,-2.81l1.08,0l0,2.81l1.92,0l0,0.87l-1.92,0l0,5.66c0.03,0.3 0.13,0.52 0.32,0.67c0.21,0.15 0.44,0.23 0.69,0.23c0.3,0 0.57,-0.05 0.82,-0.15c0.24,-0.1 0.39,-0.18 0.45,-0.22l0.28,0.88zm1.36,0.4l0,-8.34l1.09,0l0,8.34l-1.09,0zm0,-10.08l0,-1.6l1.09,0l0,1.6l-1.09,0zm10.5,10.08l-1.09,0l0,-4.66c0,-0.98 -0.15,-1.69 -0.43,-2.14c-0.29,-0.46 -0.75,-0.69 -1.36,-0.69c-0.43,0 -0.85,0.11 -1.27,0.32c-0.41,0.2 -0.78,0.49 -1.1,0.85c-0.31,0.35 -0.54,0.76 -0.67,1.22l0,5.1l-1.09,0l0,-8.34l0.99,0l0,1.89c0.22,-0.4 0.52,-0.76 0.88,-1.05c0.36,-0.31 0.77,-0.55 1.23,-0.72c0.46,-0.17 0.93,-0.26 1.43,-0.26c0.45,0 0.84,0.09 1.16,0.26c0.32,0.17 0.58,0.41 0.77,0.73c0.19,0.31 0.33,0.69 0.42,1.14c0.08,0.44 0.13,0.93 0.13,1.47l0,4.88zm5.66,0.11c-0.57,0 -1.09,-0.12 -1.57,-0.35c-0.48,-0.23 -0.89,-0.55 -1.25,-0.94c-0.34,-0.41 -0.6,-0.87 -0.8,-1.38c-0.19,-0.51 -0.28,-1.04 -0.28,-1.58c0,-0.59 0.09,-1.14 0.27,-1.65c0.19,-0.52 0.46,-0.99 0.8,-1.39c0.35,-0.41 0.76,-0.72 1.23,-0.95c0.47,-0.23 0.99,-0.35 1.57,-0.35c0.71,0 1.33,0.18 1.85,0.54c0.54,0.37 0.99,0.81 1.35,1.35l0,-1.75l0.97,0l0,8.37c0,0.77 -0.18,1.42 -0.56,1.94c-0.36,0.53 -0.85,0.93 -1.48,1.2c-0.62,0.26 -1.3,0.4 -2.04,0.4c-0.95,0 -1.71,-0.17 -2.3,-0.51c-0.59,-0.35 -1.07,-0.8 -1.44,-1.38l0.67,-0.53c0.33,0.52 0.77,0.91 1.31,1.17c0.56,0.26 1.15,0.38 1.76,0.38c0.55,0 1.04,-0.1 1.49,-0.3c0.46,-0.19 0.82,-0.49 1.09,-0.88c0.28,-0.39 0.42,-0.89 0.42,-1.49l0,-1.65c-0.32,0.53 -0.76,0.95 -1.32,1.27c-0.55,0.31 -1.13,0.46 -1.74,0.46zm0.3,-0.91c0.33,0 0.65,-0.06 0.95,-0.18c0.31,-0.11 0.59,-0.27 0.85,-0.46c0.25,-0.2 0.47,-0.43 0.64,-0.67c0.17,-0.25 0.27,-0.5 0.32,-0.75l0,-2.58c-0.16,-0.41 -0.39,-0.76 -0.69,-1.07c-0.3,-0.32 -0.64,-0.57 -1.03,-0.74c-0.37,-0.18 -0.76,-0.27 -1.16,-0.27c-0.47,0 -0.89,0.1 -1.27,0.3c-0.36,0.2 -0.67,0.46 -0.93,0.79c-0.24,0.32 -0.43,0.68 -0.57,1.09c-0.14,0.4 -0.21,0.81 -0.21,1.21c0,0.45 0.08,0.88 0.24,1.28c0.16,0.4 0.38,0.75 0.66,1.07c0.28,0.31 0.62,0.55 0.99,0.72c0.38,0.17 0.79,0.26 1.21,0.26z" fill="#2D2B2D" id="svg_1"/>
  <path d="m83.41,25.05c0,-1.52 0.27,-3.01 0.8,-4.48c0.56,-1.5 1.37,-2.83 2.42,-3.99c1.05,-1.17 2.33,-2.11 3.85,-2.84c1.51,-0.72 3.24,-1.08 5.18,-1.08c2.28,0 4.25,0.5 5.91,1.5c1.68,1.01 2.93,2.31 3.75,3.92l-3.71,2.56c-0.33,-0.7 -0.73,-1.29 -1.19,-1.75c-0.47,-0.49 -0.97,-0.88 -1.51,-1.16c-0.53,-0.28 -1.09,-0.48 -1.68,-0.59c-0.58,-0.14 -1.15,-0.21 -1.71,-0.21c-1.22,0 -2.28,0.24 -3.19,0.73c-0.89,0.49 -1.63,1.13 -2.24,1.93c-0.58,0.77 -1.02,1.65 -1.33,2.66c-0.3,0.98 -0.45,1.96 -0.45,2.94c0,1.09 0.17,2.16 0.52,3.18c0.35,1.01 0.84,1.89 1.47,2.66c0.66,0.77 1.42,1.39 2.31,1.86c0.91,0.46 1.9,0.7 2.98,0.7c0.56,0 1.14,-0.07 1.75,-0.21c0.6,-0.14 1.17,-0.36 1.71,-0.67c0.56,-0.3 1.08,-0.69 1.54,-1.15c0.47,-0.49 0.84,-1.08 1.12,-1.75l3.96,2.27c-0.4,0.94 -0.97,1.76 -1.72,2.49c-0.72,0.7 -1.55,1.29 -2.48,1.78c-0.91,0.49 -1.89,0.87 -2.94,1.12c-1.05,0.26 -2.08,0.39 -3.08,0.39c-1.78,0 -3.4,-0.38 -4.87,-1.12c-1.47,-0.75 -2.74,-1.72 -3.81,-2.91c-1.05,-1.21 -1.88,-2.58 -2.49,-4.09c-0.58,-1.54 -0.87,-3.11 -0.87,-4.69zm32.22,-12.25l4.27,0l9.45,24.85l-4.97,0l-2.31,-6.2l-8.68,0l-2.27,6.2l-4.97,0l9.48,-24.85zm5.57,15.26l-3.43,-9.77l-3.57,9.77l7,0zm25.31,-8.75c-0.16,-0.17 -0.47,-0.39 -0.91,-0.67c-0.42,-0.28 -0.95,-0.55 -1.58,-0.8c-0.6,-0.28 -1.27,-0.52 -1.99,-0.7c-0.72,-0.19 -1.46,-0.28 -2.21,-0.28c-1.33,0 -2.32,0.24 -2.97,0.73c-0.66,0.49 -0.98,1.18 -0.98,2.07c0,0.51 0.11,0.94 0.35,1.29c0.25,0.33 0.62,0.62 1.08,0.88c0.47,0.25 1.05,0.49 1.75,0.7c0.73,0.21 1.55,0.43 2.49,0.66c1.21,0.33 2.31,0.68 3.29,1.05c1,0.38 1.84,0.84 2.52,1.4c0.7,0.56 1.24,1.24 1.61,2.03c0.37,0.77 0.56,1.73 0.56,2.87c0,1.33 -0.26,2.48 -0.77,3.43c-0.49,0.94 -1.17,1.69 -2.03,2.28c-0.84,0.58 -1.82,1.01 -2.94,1.29c-1.1,0.26 -2.25,0.39 -3.47,0.39c-1.86,0 -3.71,-0.28 -5.53,-0.84c-1.82,-0.56 -3.45,-1.36 -4.9,-2.38l2.14,-4.17c0.21,0.21 0.58,0.49 1.12,0.84c0.56,0.33 1.21,0.67 1.96,1.02c0.75,0.32 1.57,0.6 2.48,0.84c0.91,0.23 1.85,0.35 2.8,0.35c2.66,0 3.99,-0.85 3.99,-2.56c0,-0.53 -0.15,-0.99 -0.45,-1.36c-0.3,-0.38 -0.74,-0.7 -1.3,-0.98c-0.56,-0.28 -1.23,-0.54 -2.03,-0.77c-0.79,-0.24 -1.68,-0.49 -2.66,-0.77c-1.19,-0.33 -2.23,-0.68 -3.11,-1.05c-0.87,-0.4 -1.59,-0.85 -2.17,-1.37c-0.58,-0.53 -1.03,-1.14 -1.33,-1.82c-0.28,-0.7 -0.42,-1.53 -0.42,-2.48c0,-1.26 0.23,-2.38 0.7,-3.36c0.47,-0.98 1.11,-1.8 1.92,-2.45c0.84,-0.66 1.81,-1.15 2.91,-1.47c1.1,-0.35 2.27,-0.53 3.53,-0.53c1.75,0 3.36,0.28 4.83,0.84c1.47,0.54 2.76,1.18 3.85,1.93l-2.13,3.92zm27.55,-6.51l0,24.85l-4.79,0l0,-10.61l-11.27,0l0,10.61l-4.83,0l0,-24.85l4.83,0l0,10.04l11.27,0l0,-10.04l4.79,0z" fill="#2D2B2D" id="svg_2"/>
  <path d="m177.74,25.05c0,-1.52 0.27,-3.01 0.81,-4.48c0.56,-1.5 1.36,-2.83 2.41,-3.99c1.05,-1.17 2.34,-2.11 3.85,-2.84c1.52,-0.72 3.25,-1.08 5.18,-1.08c2.29,0 4.26,0.5 5.92,1.5c1.68,1.01 2.93,2.31 3.74,3.92l-3.71,2.56c-0.32,-0.7 -0.72,-1.29 -1.19,-1.75c-0.46,-0.49 -0.97,-0.88 -1.5,-1.16c-0.54,-0.28 -1.1,-0.48 -1.68,-0.59c-0.59,-0.14 -1.16,-0.21 -1.72,-0.21c-1.21,0 -2.27,0.24 -3.18,0.73c-0.89,0.49 -1.64,1.13 -2.24,1.93c-0.59,0.77 -1.03,1.65 -1.33,2.66c-0.31,0.98 -0.46,1.96 -0.46,2.94c0,1.09 0.18,2.16 0.53,3.18c0.35,1.01 0.84,1.89 1.47,2.66c0.65,0.77 1.42,1.39 2.31,1.86c0.91,0.46 1.9,0.7 2.97,0.7c0.56,0 1.15,-0.07 1.75,-0.21c0.61,-0.14 1.18,-0.36 1.72,-0.67c0.56,-0.3 1.07,-0.69 1.54,-1.15c0.46,-0.49 0.84,-1.08 1.12,-1.75l3.95,2.27c-0.39,0.94 -0.97,1.76 -1.71,2.49c-0.73,0.7 -1.55,1.29 -2.49,1.78c-0.91,0.49 -1.89,0.87 -2.94,1.12c-1.05,0.26 -2.07,0.39 -3.08,0.39c-1.77,0 -3.39,-0.38 -4.86,-1.12c-1.47,-0.75 -2.74,-1.72 -3.82,-2.91c-1.05,-1.21 -1.88,-2.58 -2.48,-4.09c-0.59,-1.54 -0.88,-3.11 -0.88,-4.69zm35.87,12.77c-1.82,0 -3.48,-0.35 -4.97,-1.05c-1.47,-0.72 -2.74,-1.67 -3.82,-2.83c-1.05,-1.19 -1.86,-2.55 -2.45,-4.06c-0.58,-1.52 -0.87,-3.07 -0.87,-4.66c0,-1.65 0.3,-3.24 0.91,-4.76c0.63,-1.51 1.48,-2.86 2.55,-4.02c1.1,-1.17 2.39,-2.09 3.89,-2.77c1.49,-0.7 3.11,-1.05 4.86,-1.05c1.8,0 3.43,0.38 4.9,1.12c1.49,0.73 2.77,1.68 3.82,2.87c1.05,1.19 1.86,2.55 2.45,4.06c0.58,1.52 0.87,3.06 0.87,4.62c0,1.66 -0.3,3.25 -0.91,4.76c-0.61,1.5 -1.44,2.83 -2.52,3.99c-1.07,1.15 -2.35,2.07 -3.85,2.77c-1.49,0.67 -3.11,1.01 -4.86,1.01zm-7.21,-12.6c0,1.08 0.16,2.11 0.49,3.12c0.32,1 0.79,1.89 1.4,2.66c0.63,0.77 1.39,1.39 2.27,1.85c0.91,0.47 1.94,0.7 3.08,0.7c1.17,0 2.2,-0.23 3.08,-0.7c0.91,-0.49 1.67,-1.13 2.28,-1.92c0.63,-0.8 1.09,-1.68 1.4,-2.66c0.32,-1.01 0.49,-2.02 0.49,-3.05c0,-1.07 -0.18,-2.11 -0.53,-3.11c-0.32,-1.01 -0.8,-1.89 -1.43,-2.66c-0.61,-0.77 -1.37,-1.38 -2.28,-1.82c-0.88,-0.47 -1.89,-0.7 -3.01,-0.7c-1.16,0 -2.2,0.24 -3.11,0.73c-0.91,0.47 -1.67,1.1 -2.28,1.89c-0.6,0.77 -1.07,1.66 -1.4,2.66c-0.3,0.98 -0.45,1.99 -0.45,3.01zm30.71,-12.35l4.44,0l2.8,8.22l2.8,-8.22l4.48,0l-4.23,11.3l3.15,7.95l7.03,-19.32l5.25,0l-10.11,24.85l-4.06,0l-4.31,-10.43l-4.3,10.43l-4.06,0l-10.05,-24.85l5.18,0l7.07,19.32l3.08,-7.95l-4.16,-11.3z" fill="#078A52" id="svg_3"/>
  <path d="m27.78,23.55c2.77,0.94 5.81,1.99 9.41,3.26c3.56,-1.31 6.64,-2.32 9.41,-3.26c21.19,-7.2 24.19,-14.55 27.72,-23.55c1.5,16.13 -9.08,24.9 -25.35,30.45c-3.57,1.2 -7.58,2.55 -11.7,4.13l-0.04,-0.12l-0.04,0.12c-4.16,-1.54 -8.17,-2.93 -11.7,-4.13c-16.31,-5.55 -26.85,-14.32 -25.35,-30.45c3.53,9 6.53,16.35 27.71,23.55l-0.07,0zm22.99,18.3c-0.75,0.07 -1.62,0.26 -0.64,-0.11l0.64,0.11zm14.62,-14.4c-2.66,1.39 -10.87,4.95 -14.55,6.26l-3.19,1.17c-2.36,0.86 -2.7,2.92 -3.22,5.88c-0.71,3.98 -1.99,11.44 -7.24,11.93c-5.29,-0.49 -6.56,-7.91 -7.24,-11.93c-0.52,-2.96 -0.86,-5.02 -3.22,-5.88l-3.19,-1.17c-3.64,-1.31 -11.85,-4.87 -14.55,-6.26c3.9,9.79 2.1,9.53 12.04,13.13c0.34,0.11 0.79,0.26 3.15,1.16l0.04,0l-0.64,0.11c-0.45,-0.04 -0.9,-0.04 -0.86,0.15c1.05,6.08 3.03,17.47 14.4,18c0.03,0 0.03,0 0.07,0c0.04,0 0.04,0 0.08,0c11.36,-0.53 13.35,-11.92 14.4,-18c0.03,-0.19 -0.42,-0.19 -0.87,-0.15l-0.63,-0.11l0.03,0c2.37,-0.9 2.82,-1.05 3.15,-1.16c9.94,-3.64 8.18,-3.38 12.08,-13.13l-0.04,0zm-41.81,14.4c0.75,0.07 1.61,0.26 0.64,-0.11l-0.64,0.11z" fill="#078A52" id="svg_4"/>
 </g>
</svg>