<?xml version="1.0" encoding="utf-8"?>
<!-- Generator: Adobe Illustrator 26.0.3, SVG Export Plug-In . SVG Version: 6.00 Build 0)  -->
<svg version="1.1" id="Слой_1" xmlns="http://www.w3.org/2000/svg" xmlns:xlink="http://www.w3.org/1999/xlink" x="0px" y="0px"
	 viewBox="0 0 800 200" style="enable-background:new 0 0 800 200;" xml:space="preserve">
<style type="text/css">
	.st0{fill:#4265AD;}
	.st1{fill:#43B7AA;}
</style>
<g id="Слой_2_00000178180447560633022350000003403088891352430250_">
	<g id="Слой_1-2_00000110459141709939728020000007290304481815814058_">
		<path class="st0" d="M284.8,63.5c-10.2,0-18.1,3.6-23.7,10.7v-1.5c0-5.2-4.2-9.4-9.4-9.4c-5.2,0-9.4,4.2-9.4,9.4v85.8
			c0,5.2,4.2,9.4,9.4,9.4c5.2,0,9.4-4.2,9.4-9.4V130c5.5,7.1,13.4,10.6,23.7,10.6c9.8,0,18.2-3.7,25.2-11.2
			c7-7.4,10.4-16.6,10.4-27.4c0-10.8-3.5-19.9-10.4-27.4C303.1,67.3,294.7,63.5,284.8,63.5z M295.9,116.9c-3.8,3.8-9.1,5.9-14.5,5.8
			c-5.8,0-10.7-1.9-14.5-5.8c-3.8-3.8-5.7-8.8-5.7-14.8c0-6,1.9-11,5.7-14.8c3.8-3.8,8.6-5.8,14.5-5.8c5.4-0.2,10.7,1.9,14.5,5.8
			c3.8,3.8,5.8,8.8,5.8,14.8C301.6,108.1,299.7,113.1,295.9,116.9z"/>
		<path class="st0" d="M339.9,32c-5.2,0-9.4,4.2-9.4,9.4v87.8c0.2,5.2,4.5,9.3,9.7,9.1c5-0.1,9-4.2,9.1-9.1V41.4
			C349.3,36.2,345.1,32,339.9,32C339.9,32,339.9,32,339.9,32z"/>
		<path class="st0" d="M488.3,83.7c5,0,9.1-4.1,9.1-9.1s-4.1-9.1-9.1-9.1h-7.5l-0.1-0.1V52.8c0-5.2-4.2-9.4-9.4-9.4
			c-5.2,0-9.4,4.2-9.4,9.4v12.8h-3.6c-5,0-9.1,4.1-9.1,9.1s4.1,9.1,9.1,9.1h3.6v30.4c0,10,2.7,17,8,20.9c4,3,10.3,4.4,18.8,4.2
			c4.9-0.1,8.7-4,8.7-8.9c-0.1-4.7-3.8-8.5-8.4-8.7h-0.7c-2.4-0.1-4.3-0.8-5.6-2c-1.3-1.2-1.9-3-1.9-5.6V83.7H488.3z"/>
		<path class="st0" d="M539.3,52.9c5-1.2,8-6.2,6.8-11.2c-1.1-4.6-5.5-7.6-10.2-7c-6.3,0.9-11.4,3.1-15.2,6.7
			c-5.7,5.4-8.6,13.2-8.6,23.5v0.7h-1.5c-5,0-9.1,4.1-9.1,9.1s4.1,9.1,9.1,9.1h1.5v45.5c0.2,5.2,4.5,9.3,9.7,9.1
			c5-0.1,9-4.2,9.1-9.1V83.7h6.5c5,0,9.1-4.1,9.1-9.1s-4.1-9.1-9.1-9.1l0,0h-6.4v-0.7C530.9,58.2,533.7,54.2,539.3,52.9z"/>
		<path class="st0" d="M587,63.5c-10.8,0-19.9,3.7-27.4,11.2c-7.4,7.4-11.2,16.6-11.2,27.4c0,10.8,3.7,19.9,11.2,27.4
			c7.4,7.4,16.6,11.2,27.4,11.2c10.8,0,20-3.7,27.4-11.2c7.5-7.4,11.2-16.6,11.3-27.4c0-10.8-3.7-19.9-11.2-27.4
			C606.9,67.3,597.8,63.5,587,63.5z M601.1,116.5c-3.7,3.8-8.9,5.8-14.2,5.7c-5.3,0.2-10.4-1.9-14.1-5.7c-3.8-3.8-5.6-8.6-5.6-14.5
			c0-5.9,1.9-10.7,5.6-14.5c3.7-3.8,8.8-5.8,14.1-5.7c5.3-0.1,10.4,1.9,14.2,5.7c3.8,3.8,5.7,8.6,5.7,14.5
			C606.8,107.9,604.9,112.8,601.1,116.5z"/>
		<path class="st0" d="M791.8,71.7c-5-5.4-11.7-8.2-20.1-8.2c-9.6,0-16.9,3.5-21.8,10.5c-4.3-7-10.9-10.5-19.9-10.5
			c-9.1,0-15.9,3.3-20.3,9.8V73c0.2-5.2-3.9-9.5-9.1-9.7c-5.2-0.2-9.5,3.9-9.7,9.1c0,0.2,0,0.4,0,0.6v56.2c0.2,5.2,4.5,9.3,9.7,9.1
			c5-0.1,9-4.2,9.1-9.1V97.6c0-5.4,1.2-9.4,3.7-12.3c2.5-2.8,5.8-4.2,10-4.2c3.9,0,6.9,1.2,9.1,3.7c2.1,2.4,3.2,5.8,3.2,10.2v34.2
			c0.2,5.2,4.5,9.3,9.7,9.1c5-0.1,9-4.2,9.1-9.1V97.6c0-5.4,1.2-9.4,3.6-12.3c2.4-2.8,5.7-4.2,10-4.2c3.9,0,6.9,1.2,9,3.6
			c2.2,2.4,3.2,5.8,3.2,10.2v34.2c0,5.2,4.2,9.4,9.4,9.4c5.2,0,9.4-4.2,9.4-9.4V93.6C799.3,84.5,796.8,77.2,791.8,71.7z"/>
		<path class="st0" d="M429,63.5c-5.2,0-9.4,4.2-9.4,9.4v1.2c-5.7-7.1-13.6-10.7-23.8-10.7c-9.7,0-18.1,3.7-25.1,11.2
			c-7,7.4-10.5,16.6-10.4,27.4c0,10.8,3.5,19.9,10.4,27.4c7,7.4,15.3,11.2,25.1,11.2c10.2,0,18.1-3.6,23.8-10.7v1.2
			c-0.2,5.2,3.9,9.5,9.1,9.7s9.5-3.9,9.7-9.1c0-0.2,0-0.4,0-0.6V73C438.5,67.8,434.3,63.5,429,63.5C429.1,63.5,429,63.5,429,63.5z
			 M413.9,116.9c-3.8,3.9-8.7,5.8-14.5,5.8c-5.8,0-10.6-1.9-14.4-5.8c-3.8-3.8-5.7-8.8-5.7-14.8c0-6,1.9-11,5.7-14.8
			c3.8-3.8,8.6-5.8,14.5-5.8c5.4-0.2,10.7,1.9,14.5,5.8c3.8,3.8,5.8,8.8,5.8,14.8C419.7,108.1,417.7,113.1,413.9,116.9L413.9,116.9z
			"/>
		<path class="st0" d="M674.6,64.1h-0.3h-0.4c-4.5,0.1-9,1.3-12.9,3.5c-4,2.3-7.1,6-8.6,10.4v-5c0-5.2-4.5-9.4-9.7-9.4
			c-5.1,0-9.2,4.2-9.2,9.2c0,0,0,0.1,0,0.1v56.2c0,5.2,4.2,9.4,9.4,9.4c0,0,0,0,0,0l0,0c5.2,0,9.4-4.2,9.4-9.4v-25.5
			c0-7,2.3-12,6.8-15c4.3-2.9,8.5-4.3,13.8-3.9c0.2,0,0.4,0,0.6,0.1h0.3l0,0h0.4c5.7,0.1,10.4-4.5,10.5-10.2
			C684.9,68.9,680.3,64.2,674.6,64.1L674.6,64.1z"/>
		<path class="st1" d="M39.2,63.5c-11.3,0-20.6,3.7-27.8,11S0.6,91.1,0.6,102.1c0,11.1,3.7,20.3,11,27.6s17,10.9,29.1,10.9
			c4,0,8-0.4,11.9-1.4c4.6-1.2,7.4-5.9,6.2-10.5c-0.3-1-0.7-2-1.3-2.8l0,0c-2.2-3-6-4.3-9.5-3.2c-2.3,0.6-4.6,0.9-6.9,0.9
			c-11.2,0-18.1-4.5-20.6-13.7h48c4.3,0,7.7-3.5,7.8-7.7l0,0c0-10.9-3.5-20.1-10.4-27.5C58.8,67.2,49.9,63.5,39.2,63.5z M20.1,95.2
			c0.8-4.3,3.2-8.1,6.6-10.9c3.3-2.6,7.5-3.9,12.6-3.9c4.1,0,8.1,1.2,11.4,3.6c3.4,2.4,5.6,6.1,6.6,11.1L20.1,95.2z"/>
		<path class="st1" d="M144.9,112.8c-3.8-1.5-8.1-0.4-10.7,2.7c-0.7,0.8-1.5,1.6-2.4,2.3c-2.7,2.2-6,3.6-9.5,4
			c-5.1,0.9-10.4-0.4-14.6-3.6c-4.2-3.2-6.7-7.6-7.5-13.4c-0.8-5.7,0.3-10.6,3.5-14.8c3.1-4.2,7.8-6.9,13-7.5
			c3.5-0.6,7-0.2,10.3,1.1c1.1,0.4,2.1,0.9,3,1.6c4.4,2.6,10.1,1.1,12.7-3.3c2.4-4.1,1.3-9.2-2.4-12.1c-2-1.3-4.1-2.4-6.3-3.3
			c-6.3-2.6-13.2-3.4-19.9-2.4c-10.9,1.6-19.4,6.5-25.6,14.8c-6.2,8.3-8.5,17.9-6.9,28.6c1.5,10.7,6.5,19.3,14.8,25.5
			c8.3,6.3,17.9,8.6,28.7,7.1c6.7-0.9,13.1-3.6,18.4-7.8c1.7-1.4,3.3-2.9,4.8-4.5c3.4-3.9,3.1-9.8-0.8-13.2
			C146.8,113.8,145.9,113.2,144.9,112.8z"/>
		<path class="st1" d="M224.2,76.7c-7.1-8.1-15.9-12.5-26.4-13.1c-0.8,0-1.7-0.1-2.5-0.1c-0.3,0-0.6,0.2-0.6,0.6
			c0,0.2,0.1,0.3,0.2,0.4c5.1,5.2,17,18.3,19.3,27.4c0.8,3.1,1.2,6.4,1.2,9.7c0,0.7,0,1.4,0,2.1c-0.3,5.3-2.8,10.2-6.9,13.6
			c-2.8,2.6-6.3,4.3-10.1,4.9l0,0c7,1.3,19.3,1.3,29.2-0.7c0.8-0.2,1.6-0.7,2-1.5c2.5-4.7,4-10,4.3-15.3
			C234.6,94.1,231.4,84.8,224.2,76.7z"/>
		<path class="st1" d="M180.4,86.8c7.2-4.5,12.2-5,14.8-4.9c0.4,0,0.8,0,1.2,0c5.3,0.3,9.9,2.7,13.8,7.1l0.5,0.6
			c-0.3-0.8-0.8-1.7-1.2-2.6c-3.3-6.4-10.7-16-18.2-22.5c-0.6-0.5-1.4-0.7-2.1-0.6c-7.2,1.2-13.8,4.4-19.2,9.3
			c-8.1,7.1-12.5,15.9-13.2,26.4c-0.3,4.8,0.2,9.6,1.7,14.1c0.2,0.5,0.7,0.7,1.2,0.6c0.2-0.1,0.4-0.2,0.5-0.4
			C163.4,107.7,172.3,91.9,180.4,86.8z"/>
		<path class="st1" d="M225.3,124.3c-7.4,0.9-24.7,2.4-33.2-1.3c-3.3-1.3-6.3-3.1-9-5.4c-0.9-0.8-1.8-1.6-2.6-2.5
			c-3.8-4.4-5.6-9.2-5.3-14.5c0.2-2.7,0.9-5.4,2.2-7.8c-5.3,5.4-12.6,16-16.4,25.4c-0.2,0.5-0.2,1.2,0.1,1.7
			c1.5,2.7,3.3,5.2,5.3,7.6c7.1,8.1,15.9,12.5,26.4,13.2c10.5,0.7,19.8-2.5,27.8-9.6c1.9-1.7,3.7-3.5,5.3-5.6c0.2-0.3,0.2-0.7-0.1-1
			C225.7,124.3,225.5,124.3,225.3,124.3z"/>
	</g>
</g>
</svg>
