<?xml version="1.0"?>
<svg width="909" height="250" xmlns="http://www.w3.org/2000/svg" xmlns:svg="http://www.w3.org/2000/svg" data-name="Слой 1">
 <defs>
  <style>.cls-1{fill:#1d1d1b;}.cls-2{fill:#e4231e;}</style>
 </defs>
 <g class="layer">
  <title>Layer 1</title>
  <path class="cls-1" d="m143.49,5.91l56.76,0l0,175.81l-56.76,0l0,-21.28c-15.38,23.65 -37.45,27.19 -52,27.19c-25.22,0 -46.51,-6.3 -65.83,-26.8c-18.56,-19.71 -25.66,-42.57 -25.66,-65.83c0,-29.57 11,-54.79 27.2,-71c15.38,-15.37 36.66,-24 61.1,-24c15,0 39,3.55 55.19,25.62l0,-19.71zm-72.14,55.58a44,44 0 0 0 -13,31.93c0,15.77 6.7,26 11.83,31.54c7.88,8.28 20.1,13.79 33.51,13.79a42,42 0 0 0 29.51,-12.22c7.49,-7.09 13.8,-18.13 13.8,-33.11c0,-12.61 -4.73,-24.44 -13,-32.32c-8.64,-8.25 -21.26,-12.25 -31.51,-12.25a44.74,44.74 0 0 0 -31.14,12.64z" id="svg_1"/>
  <path class="cls-1" d="m301.2,249.59l-56.8,0l0,-243.68l56.8,0l0,20.94c18.53,-24 41.39,-26.8 54.8,-26.8c31.49,-0.05 51.2,13.8 62.2,24.8c15.77,15.77 26.41,39.82 26.41,68.59c0,30.36 -10.64,53.22 -28,70.56s-36.26,23.65 -59.52,23.65c-35.08,0 -50.06,-17.73 -56,-26l0.11,87.94zm9.42,-187.74a47.07,47.07 0 0 0 -13.42,32.36a45.53,45.53 0 0 0 12.62,31.14a46.25,46.25 0 0 0 32.38,13.4a45,45 0 0 0 30.35,-12.22c9.07,-8.67 13.8,-22.07 13.8,-33.5a43.72,43.72 0 0 0 -44.15,-44.18a43.7,43.7 0 0 0 -31.58,13z" id="svg_2"/>
  <path class="cls-1" d="m536.89,5.91l0,100.52l74.9,-100.52l52.82,0l0,175.81l-56.77,0l0,-102.09l-74.89,102.09l-52.82,0l0,-175.81l56.76,0z" id="svg_3"/>
  <path class="cls-1" d="m765.52,181.72l-56.77,0l0,-175.81l56.77,0l0,20.94c18.52,-24 41.39,-26.8 54.79,-26.8c31.53,0 51.24,13.8 62.28,24.83c15.77,15.77 26.41,39.82 26.41,68.59c0,30.36 -10.64,53.22 -28,70.56s-36.26,23.65 -59.52,23.65c-35.08,0 -50.06,-17.73 -56,-26l0.04,20.04zm9.46,-119.87a47,47 0 0 0 -13.41,32.32a45.53,45.53 0 0 0 12.63,31.18a46.27,46.27 0 0 0 32.32,13.4a45,45 0 0 0 30.35,-12.22c9.07,-8.67 13.8,-22.07 13.8,-33.5a43.72,43.72 0 0 0 -44.16,-44.18a43.68,43.68 0 0 0 -31.53,13z" id="svg_4"/>
  <rect class="cls-2" height="56.77" id="svg_5" width="56.77" x="708.75" y="192.82"/>
 </g>
</svg>