<?xml version="1.0" encoding="UTF-8"?> <svg xmlns="http://www.w3.org/2000/svg" width="98" height="59" viewBox="0 0 98 59" fill="none"> <path d="M19.5511 49H74.0499C85.0963 49 93.6987 40.4483 93.6987 29.4885C93.6987 24.5246 91.7436 19.5115 88.42 16.0712L88.1756 15.7763C90.0818 13.9579 91.8903 12.0903 93.7476 10.2227L98 5.94684L96.8269 4.7673C94.6274 2.55567 91.4504 0 87.5402 0C83.5322 0 80.3551 2.65396 77.6668 5.35707C75.2229 3.24373 72.8768 2.26078 70.1885 2.26078C66.5716 2.26078 63.7855 4.32497 61.6349 6.34002L60.413 7.51956C63.3945 10.4684 66.2783 13.4664 69.211 16.4644C71.997 19.3149 75.1252 20.8877 78.3511 20.8877C80.9416 20.8385 83.3855 19.8556 85.6828 18.1846L86.0249 18.4794C88.7132 21.4774 90.1307 25.3109 90.1307 29.4885C90.1307 38.6299 83.19 45.5597 74.001 45.658H19.5511C10.5576 45.658 3.56808 38.5807 3.56808 29.4885C3.56808 20.347 10.5576 13.319 19.5511 13.319H61.586L58.2623 9.97693H19.5511C8.30923 9.97693 0 18.2828 0 29.4885C0 40.6941 8.3581 49 19.5511 49ZM12.6105 29.3902C12.6105 34.6489 16.7162 38.679 22.1416 38.679C24.8299 38.679 27.1761 37.7452 29.18 35.8285L27.3716 33.2237C25.8075 34.5998 24.0968 35.2879 22.2394 35.2879C19.209 35.2879 16.9606 33.5186 16.4718 30.6189H29.6688C29.8155 29.7834 29.9621 28.997 29.9621 28.2598C29.9621 23.5908 26.4429 20.0522 21.7506 20.0522C16.7651 19.9539 12.5127 24.2788 12.6105 29.3902ZM16.5696 27.7683C17.1072 25.1143 19.1601 23.3942 21.604 23.3942C24.0968 23.3942 26.1496 25.016 26.1496 27.7683H16.5696ZM35.583 38.3842H39.2489V28.014C39.2 25.3601 40.9107 23.4925 43.3546 23.4925C45.7985 23.4925 47.5092 25.3601 47.5092 28.014V38.3842H51.1751V28.014C51.1751 23.4433 47.9491 20.1505 43.3546 20.0522C38.809 20.1505 35.583 23.4433 35.583 28.014V38.3842ZM56.6005 35.2387C58.1646 37.3029 60.7062 38.679 63.6878 38.679C65.594 38.679 67.1092 38.1876 68.38 37.2538C69.6509 36.2708 70.2863 34.9438 70.2863 33.2237C70.2863 30.7172 68.7711 29.2919 65.4474 27.8666L63.7367 27.1785C62.0259 26.4413 61.3905 25.999 61.3905 25.0652C61.3905 23.9348 62.3192 23.3942 63.8344 23.3942C65.3496 23.3942 66.8648 24.0331 67.9402 25.2126L69.993 22.8536C68.4778 20.986 66.4249 20.0522 63.8833 20.0522C60.2663 20.0522 57.6758 22.0181 57.6758 25.2126C57.6758 27.7192 59.1421 29.0953 62.2703 30.4223L64.0788 31.1595C65.7895 31.8967 66.5716 32.339 66.5716 33.3711C66.5716 34.6981 65.3496 35.3862 63.6878 35.3862C61.8304 35.3862 60.2663 34.4524 58.7511 32.8305L56.6005 35.2387ZM65.1052 7.61785C66.7182 6.34002 68.38 5.50452 70.1885 5.50452C71.8504 5.50452 73.4145 5.99599 75.3696 7.61785C74.5875 8.30592 73.9521 8.84654 73.3167 9.23972C72.388 9.82949 71.4105 10.1244 69.9441 10.1244C68.6244 10.1244 67.4514 9.58375 66.5227 8.89569C65.985 8.55166 65.5451 8.06018 65.1052 7.61785ZM70.7262 13.3681C72.388 13.2698 73.7566 12.7783 74.9786 12.0411C76.2983 11.2548 77.4713 10.1244 78.6933 8.94484L80.5506 7.07723C83.2878 4.32497 85.5362 3.24373 87.5402 3.24373C89.6419 3.24373 91.5481 4.37412 93.4055 5.94684C90.6195 8.74825 87.8823 11.5988 85.0474 14.3511C82.7012 16.6118 80.4529 17.6439 78.3511 17.6439C75.2229 17.6439 72.7791 15.4814 70.7262 13.3681ZM76.787 38.3842H80.5017V24.672H76.787V38.3842Z" fill="#252428"></path> </svg> 