<?xml version="1.0"?>
<svg width="3127" height="936.9999999999999" xmlns="http://www.w3.org/2000/svg" xmlns:svg="http://www.w3.org/2000/svg" preserveAspectRatio="xMidYMid meet" version="1.0">
 <g class="layer">
  <title>Layer 1</title>
  <path d="m350.2,7.1c-1.6,3.5 -10.8,23.7 -20.5,44.9c-30.6,67.2 -89.3,196.1 -107.4,236c-9.6,21.2 -18.6,41 -20,44c-4.4,9.6 -12.8,28 -20.5,45c-4.2,9.1 -8.9,19.4 -10.5,23c-1.7,3.6 -13.3,29 -25.8,56.5c-12.5,27.5 -39,85.5 -58.8,129c-19.8,43.4 -39.4,86.6 -43.7,96c-4.2,9.3 -15.4,33.9 -24.8,54.7c-9.5,20.7 -17.2,37.9 -17.2,38.2c0,0.3 20.4,0.6 45.3,0.6l45.4,0l1.2,-2.8c1.8,-3.6 52.3,-116.2 57.6,-128.2c15.6,-35.1 21.8,-48.6 22.4,-49.3c0.5,-0.5 4.3,1.7 8.6,4.8c28.2,20.2 59.1,34.3 95.5,43.4c10,2.5 18.6,4.1 38,7l4.5,0.6l0.3,14.2l0.3,14.1l13.2,-4.2c7.2,-2.4 21.2,-6.9 31,-10.1l17.7,-5.8l0,-4.3c0,-2.6 0.5,-4.4 1.1,-4.4c3.6,0 24.2,-3.5 34.9,-6c24.9,-5.6 49.1,-14.6 72,-26.8c10.5,-5.5 13.7,-7.8 20.1,-14.3c4.2,-4.3 8.7,-9.4 10,-11.3c2.6,-3.9 4.2,-4.2 4.7,-0.7c0.7,4.4 -18.3,24.1 -32.9,34.1c-17.3,11.8 -33.5,18.2 -74.4,29c-31.9,8.5 -29.5,7.8 -65.5,19.5c-16.2,5.3 -32.4,10.9 -35.9,12.6c-27.7,12.9 -54.8,44.9 -62.1,73.4c-4,15.6 -4.4,36.9 -1,54.5c6.7,35.4 34.1,68.7 67.5,82.1c17.6,7 31.6,8.6 48.3,5.4c35.6,-6.8 63.8,-29.8 79.4,-64.7c7.2,-16.2 9.2,-25.2 9.2,-43.3c0,-16.4 -1.6,-27.4 -6.1,-40.5c-2.7,-7.8 -8.7,-20.5 -10,-21.3c-0.5,-0.2 -9.6,2.4 -20.4,5.7l-19.6,6.2l2.8,4.9c4.1,7 9.6,21.7 11.4,30c3.7,17.5 -0.1,36.3 -10.6,51.9c-8.9,13.4 -21.2,22.6 -34.4,25.7c-7.3,1.6 -23,1.4 -30.5,-0.5c-8.4,-2.1 -19.6,-7.5 -24.3,-11.5c-8.7,-7.7 -16.8,-21.1 -20.7,-34.1c-2.8,-9.4 -3.8,-26.4 -2,-34.1c3.8,-16.4 17.3,-36 29.8,-43.5c2.1,-1.3 10.4,-3.9 18.3,-5.9c7.9,-1.9 23.4,-6.4 34.4,-9.9c11,-3.6 30.4,-9.7 43,-13.6c26.5,-8.2 41.3,-13.6 57.4,-20.9c22.7,-10.3 43.3,-23.4 59.6,-37.9c5,-4.4 9.1,-7.9 9.1,-7.9c0.1,0.1 4.4,10.1 9.7,22.2c5.2,12.1 11.2,25.8 13.4,30.5c2.2,4.7 11.5,25.9 20.8,47.2l16.9,38.8l46.9,0c37.1,0 46.8,-0.3 46.4,-1.3c-0.3,-0.6 -7.6,-17 -16.2,-36.2c-18.7,-41.9 -28.1,-62.8 -58,-130c-12.5,-28.1 -23.3,-51.7 -24,-52.5c-2.5,-3 -2.7,-6 -0.6,-12.3c11.4,-34.8 14,-74.9 7,-107.6c-6.4,-29.4 -18.6,-51.8 -39.9,-73.1c-25.8,-25.9 -54.2,-38.3 -91,-39.7c-25.7,-0.9 -41.5,2.3 -62.5,12.7c-30.9,15.4 -56.4,42.6 -70.8,75.5c-4.6,10.5 -9.2,27.8 -10.9,40.8c-0.6,5.1 -1.4,9.8 -1.8,10.5c-0.5,0.9 -6.6,-6.6 -17.8,-21.8c-9.4,-12.7 -18.1,-24.3 -19.2,-25.7l-2,-2.5l-3.8,2.8c-7.1,5.3 -13.7,10.9 -20.4,17.4l-6.7,6.5l20.1,28.5c37.1,52.4 51.8,73.4 61.1,86.7c7,10.1 9.7,13.2 11.4,13.3c1.7,0 4.2,-2.9 10.9,-12.8c4.8,-7 11.1,-16.1 13.9,-20.2c2.9,-4.1 16.8,-24.4 31,-45c14.2,-20.6 28.3,-41 31.3,-45.3c3,-4.4 5,-8.3 4.6,-8.7c-5.8,-5.4 -31.1,-23.7 -31.8,-22.9c-0.2,0.2 -9,12.8 -19.7,27.9l-19.4,27.5l-0.3,-4.5c-0.2,-2.5 0.2,-7.9 0.8,-12c5.3,-33.3 27,-63 57,-77.7c21.6,-10.6 45.6,-12.1 68.7,-4.3c24.5,8.3 46.2,28 59.2,53.7c6.6,13.1 11.1,35 11,53.8c0,9.6 0,9.9 -1.5,7.1c-0.9,-1.6 -2.4,-5.2 -3.4,-8c-1.6,-4.6 -5.8,-14.1 -30.3,-68.9c-4.9,-10.9 -8.5,-17.6 -10.2,-19c-5.9,-4.8 -19.5,-11.9 -28.5,-14.8c-11.5,-3.8 -28.6,-5 -40.4,-2.9c-8.9,1.5 -22.9,6.8 -22.3,8.3c0.3,0.7 10.7,24.8 23.2,53.7c12.5,28.9 23.3,54.3 24,56.5c0.7,2.2 5.6,13.7 10.9,25.5l9.5,21.5l-7.5,7.3c-13.7,13.2 -40.1,28.7 -62.4,36.7c-10.3,3.7 -32.2,9.2 -43.8,11.1c-13.4,2.1 -48.3,3 -62.4,1.5c-47.7,-5.1 -89.6,-22.9 -121.8,-51.8l-4.4,-4l3.6,-7.9c3.1,-6.7 41.7,-92.8 79.5,-177.4c5.8,-12.9 14.5,-32.3 19.3,-43c4.8,-10.7 18.3,-40.9 29.9,-67c11.7,-26.1 21.6,-47.8 22,-48.2c0.3,-0.4 13.9,30.2 30,68l29.4,68.8l9.1,-3.6c19.9,-8 43.8,-10.9 66.1,-8c3.8,0.5 7.1,0.7 7.3,0.5c0.2,-0.2 -1.4,-4.3 -3.6,-9.2c-3.9,-8.7 -29.6,-66.2 -54.2,-121.3c-7,-15.7 -28.6,-64.1 -48,-107.5c-19.4,-43.5 -35.4,-79.2 -35.6,-79.4c-0.2,-0.2 -1.7,2.5 -3.2,6zm147.3,321.3c39.7,8.7 72,33.3 92,70c13.7,25.3 19.9,61.3 16.5,95.7c-1.9,18.3 -9.2,50.1 -11.1,48.2c-0.4,-0.4 -5.3,-10.9 -10.9,-23.3l-10.1,-22.5l-0.3,-19.5c-0.4,-29.1 -4.5,-45.7 -16.2,-65c-16.6,-27.5 -43.9,-46.5 -73.4,-51.1c-10.4,-1.6 -28.6,-0.6 -37.9,2.1c-44.3,12.7 -77.1,56.1 -77.1,102.1c0,15.8 0.6,15.3 24.5,-18.7c11.7,-16.8 20.5,-28.3 21.3,-28.2c2.1,0.5 24.1,17.2 24.2,18.4c0,1.1 -0.6,1.9 -41.9,61.9c-14.5,20.9 -30.2,43.7 -34.9,50.7c-4.8,7 -9,12.8 -9.3,12.8c-0.4,0 -14.5,-19.7 -31.5,-43.7c-45.7,-64.6 -55.4,-78.6 -55.4,-79.4c0,-1.6 22.2,-20.9 24.1,-20.9c0.6,0 9.4,11.6 32.4,42.8c5.3,7.2 7.3,9.2 8.9,9c1.9,-0.3 2.3,-1.5 3.7,-12.8c2,-15.2 3.4,-22.1 6.6,-32.5c14.9,-47.4 60.2,-89.3 104.3,-96.5c4.1,-0.6 8.2,-1.3 9,-1.5c3.9,-1 36.1,0.5 42.5,1.9zm38,286.2l7.4,16.9l-7.2,6.9c-15.4,14.8 -39.5,30.4 -62.9,40.8c-16.2,7.1 -34.7,13.6 -66.3,23.3c-15.4,4.7 -33.2,10.3 -39.5,12.5c-6.3,2.2 -18.2,5.5 -26.5,7.5c-9,2.2 -16.8,4.7 -19.5,6.2c-13.6,8 -27,27.2 -31.6,45.3c-2.2,8.7 -1.4,26.4 1.6,37c3.6,12.5 12.3,26.9 20.9,34.8c8.8,8 21.7,13.4 36.8,15.2c12.1,1.5 24.5,-0.5 35.2,-5.7c12.8,-6.1 25.4,-20.6 31.8,-36.3c8.1,-20.1 6.7,-40.8 -4.5,-65.3c-1.9,-4.2 -3.3,-7.9 -3.1,-8c0.5,-0.4 30.6,-9.7 31.2,-9.7c0.2,0 2.1,3.6 4.1,8c9.6,21.1 12.7,48.5 8.1,71.2c-3.4,16.5 -16.2,40.1 -28.7,52.9c-25.2,25.8 -62.3,36.9 -91.8,27.4c-17.8,-5.7 -29.6,-13 -43.6,-26.9c-15,-15 -24,-30.4 -29.2,-49.5c-2.3,-8.8 -2.6,-11.4 -2.6,-29.6c-0.1,-22.5 1,-29.2 7.1,-42.4c12.6,-27.8 37.9,-51.9 63.8,-60.9c24.4,-8.5 72,-23.2 91.5,-28.2c30.3,-7.8 44.7,-12.7 59.5,-20c15.6,-7.7 26.5,-16 39.5,-29.8c5.7,-6.1 10.6,-11 10.7,-10.8c0.2,0.2 3.7,7.9 7.8,17.2z" fill="#118c95" id="svg_2"/>
  <path d="m1191,6c-8.7,1.8 -22.2,6.6 -22.8,8.2c-0.2,0.4 -1.2,0.8 -2.3,0.8c-1,0 -1.9,0.4 -1.9,0.8c0,0.5 -2,1.8 -4.4,3c-4.2,2.1 -22.6,17.6 -22.6,19c0,0.4 -1.8,2.7 -4,5.2c-2.2,2.5 -4,5 -4,5.7c0,0.6 -0.3,1.3 -0.7,1.5c-0.8,0.3 -2.3,2.9 -7.2,12.3c-4.9,9.4 -8.3,19.1 -11.1,30.8c-1.9,8.2 -2.1,9.7 -3.9,25.7c-1,8.6 -0.8,43.1 0.3,44.8c0.3,0.5 0.8,3.2 1.1,6c1.3,11.7 10.3,39.2 12.7,39.2c0.6,0 0.8,0.3 0.5,0.6c-0.4,0.4 0.4,2.1 1.6,3.8c1.2,1.7 2.1,3.2 1.9,3.4c-0.5,0.5 4.1,8.2 5,8.2c0.4,0 0.8,0.6 0.8,1.2c0.1,2.5 17.6,21.8 19.8,21.8c0.7,0 1.5,0.7 1.8,1.5c0.4,0.8 1.1,1.5 1.6,1.5c0.6,0 2.7,1.3 4.7,2.8c5.2,4 16.6,9.7 24.1,12c17.4,5.3 32.7,5 50.5,-0.9c8.6,-2.9 21.6,-9.3 22.3,-11.1c0.2,-0.4 1,-0.8 1.8,-0.8c1.2,0 18.9,-17 21.9,-21.1c0.6,-0.8 2.2,-3 3.7,-4.9c1.4,-1.9 3.7,-5.5 5,-8c1.4,-2.5 3.5,-6.1 4.6,-8c5.6,-9.4 12,-31.2 13.9,-47.5c1,-8.8 1.2,-41.6 0.2,-51c-1.2,-11.7 -4,-25.1 -6.9,-32.9c-1.2,-3.1 -2.1,-5.8 -2,-6.1c0.2,-1.2 -11.2,-22.5 -12.1,-22.5c-0.5,0 -0.9,-0.5 -0.9,-1c0,-2.4 -10.6,-15 -18.1,-21.5c-10.2,-8.9 -22.4,-16 -33.4,-19.7c-7.2,-2.3 -21,-4.6 -28,-4.6c-2.7,0 -8.8,0.8 -13.5,1.8zm26,9.5c7.5,1.7 7.3,1.7 12.4,3.9c2.1,0.9 4.7,2.6 5.9,3.7c1.1,1 2.4,1.9 2.8,1.9c0.4,0 1.4,0.6 2.1,1.3c0.7,0.7 2.5,2.2 3.9,3.3c1.5,1.1 5,4.9 8,8.4c2.9,3.6 5.7,6.6 6.1,6.8c0.4,0.2 0.8,0.7 0.8,1.2c0,0.4 1.6,3.7 3.6,7.2c6.5,11.3 12.8,33.1 14.9,51.3c1.6,14.5 2.2,44.1 1,55c-0.2,2.2 -0.7,6 -0.9,8.5c-2.4,21.4 -12.8,52.3 -22.4,66.2c-4.2,6.2 -13.4,14.8 -19.1,18c-10.9,6.1 -28.7,8.5 -42.8,5.9c-15.1,-2.9 -28.8,-12.4 -37.1,-25.6c-5.6,-9.1 -15.4,-32.5 -16.8,-40.5c-0.3,-1.4 -0.7,-3.3 -1,-4.2c-0.7,-2.2 -1,-3.9 -3,-16.4c-1.9,-11.6 -2.5,-43.5 -1.2,-58.9c0.7,-8.7 3,-22.3 5.2,-31.3c0.8,-3 5.3,-15.5 7.2,-19.7c1,-2.2 1.9,-4.5 2,-5.1c0.1,-0.7 2.7,-4.9 5.7,-9.5c4.7,-7.3 13.6,-16.8 20.3,-21.9c7.2,-5.5 22.5,-10.9 31.4,-10.9c2.5,0 7.4,0.6 11,1.4z" fill="#118c95" id="svg_3"/>
  <path d="m1450.5,5.1c-2.7,0.5 -5.9,1 -7,1.3c-1.1,0.2 -3.3,0.7 -5,1.1c-1.6,0.3 -3.7,0.8 -4.5,1.2c-0.8,0.3 -2,0.7 -2.7,0.9c-0.7,0.1 -2.7,0.9 -4.4,1.8c-1.8,0.9 -3.8,1.6 -4.4,1.6c-0.7,0 -1.8,0.7 -2.5,1.5c-0.7,0.8 -1.6,1.3 -2,1c-0.4,-0.3 -1.3,0.2 -2,1c-0.7,0.8 -1.7,1.5 -2.2,1.5c-3.6,0 -26,19 -33.8,28.6c-3.9,4.8 -6.9,9.4 -6.3,9.4c0.5,0 0.3,0.4 -0.3,0.8c-0.6,0.4 -2.4,3.2 -4,6.2c-1.5,3 -3.2,5.8 -3.7,6.1c-0.5,0.3 -0.8,0.9 -0.8,1.3c0.1,0.3 -0.6,2 -1.5,3.7c-3.1,6.1 -8.5,22.6 -10.5,32.4c-2.6,12.7 -3.6,38 -2,49.7c1.3,8.5 5.6,27.2 6.8,29.2c0.4,0.6 0.9,2 1,3.1c0.4,2.6 12,25.7 15.8,31.6c7.3,11.1 20.6,25 30.6,31.8c3.3,2.3 6.3,4.1 6.6,4.1c0.4,0 1.4,0.7 2.3,1.5c2.4,2.2 17.6,8 25.5,9.8c17,3.8 31.7,3.1 51.5,-2.5c10.6,-3 28.7,-11 32.9,-14.7c2.2,-1.9 2.2,-2 1.9,-26.8c-0.3,-21.1 -0.5,-24.8 -1.8,-25.1c-1.1,-0.2 -2.1,1.7 -3.4,6.5c-2.8,9.5 -8.3,22.1 -11.7,26.4c-1.6,2 -2.9,3.9 -2.9,4.2c0,1.2 -13.4,13.7 -14.7,13.7c-0.7,0 -1.3,0.4 -1.3,0.9c0,0.5 -0.8,1.1 -1.7,1.5c-1,0.3 -2.5,1 -3.3,1.5c-9.5,6 -30.9,8.2 -45.5,4.6c-3.2,-0.8 -16.7,-6.6 -17.5,-7.5c-0.3,-0.3 -2.1,-1.7 -4,-3c-4,-2.8 -11.3,-10.4 -16.3,-17c-4.3,-5.8 -15,-27.1 -14.6,-29.3c0.1,-0.1 -0.6,-2 -1.4,-4.2c-4.7,-12.5 -7.3,-30.2 -7.6,-51c-0.1,-9.9 -0.4,-18.2 -0.6,-18.5c-0.4,-0.6 2.1,-27.1 3.1,-33c0.3,-1.9 1.2,-6 2,-9c0.7,-3 1.6,-7 1.9,-8.8c0.3,-1.8 0.9,-4.1 1.4,-5c3.8,-7.6 8.6,-18.7 8.3,-19.4c-0.1,-0.4 0.2,-0.8 0.8,-0.8c0.6,0 1,-0.7 1,-1.5c0,-0.8 0.5,-1.5 1,-1.5c0.6,0 1,-0.5 1,-1.1c0,-1.2 8.5,-12.6 11.1,-14.9c4.9,-4.3 7.3,-5.8 16.4,-10.3c8.1,-4.1 15.3,-5.6 26,-5.7c9.7,0 16.5,1.4 23.3,4.9c2.3,1.2 4.2,1.9 4.2,1.5c0,-0.3 0.7,0.2 1.6,1c0.8,0.9 2.1,1.6 2.8,1.6c1.9,0 17.2,15.4 19.2,19.2c0.9,1.8 2,3.5 2.4,3.8c0.3,0.3 2.2,4.1 4.1,8.5c2.1,4.9 4,8 4.9,8c1.3,0 1.5,-3.3 1.6,-23.3c0.1,-18.2 -0.2,-23.6 -1.2,-24.6c-1.9,-2 -14.7,-7.1 -23.9,-9.6c-8.8,-2.4 -30.6,-3.4 -40,-1.9z" fill="#118c95" id="svg_4"/>
  <path d="m1897.1,5.6c-4,0.7 -9.7,2 -12.5,2.9c-8.7,2.9 -23.7,10.6 -24.4,12.6c-0.2,0.5 -0.9,0.9 -1.5,0.9c-1.2,0 -19.8,17.7 -22.4,21.2c-4.8,6.4 -15,24.7 -15.8,28.2c-0.1,0.6 -0.7,2.2 -1.2,3.6c-0.6,1.4 -0.9,2.8 -0.6,3.2c0.2,0.5 -0.1,0.8 -0.8,0.8c-0.7,0 -0.9,0.3 -0.6,0.6c0.3,0.4 0.2,1.4 -0.3,2.4c-0.5,0.9 -1.1,2.8 -1.4,4.1c-0.3,1.3 -1.2,4.8 -2,7.8c-3,10.9 -4.6,28.8 -4.2,48.1c0.3,10.2 0.6,19.8 0.9,21.5c0.3,1.6 0.8,5.2 1.2,8c0.4,2.7 0.9,5.3 1.1,5.6c0.2,0.3 0.6,1.9 0.8,3.6c0.9,4.7 4.7,16.7 5.8,18c0.6,0.7 0.7,1.3 0.4,1.3c-1.5,0 11.1,22.8 16.5,29.9c7.2,9.6 22.6,24.1 25.5,24.1c0.7,0 1.4,0.4 1.6,0.9c0.6,1.7 16.9,9.1 25.5,11.6c13.7,4 30.7,3.8 44,-0.4c9.5,-3 23.2,-9.4 26.3,-12.4c1.1,-0.9 2.2,-1.7 2.6,-1.7c0.4,0 1.4,-0.6 2.3,-1.4c10.7,-9.6 14,-13.1 18.7,-19.2c3,-4 5.4,-7.7 5.4,-8.3c0,-0.6 0.4,-1.1 0.8,-1.1c0.7,0 7.7,-13.2 12.3,-23.2c1.4,-3 5.9,-19.1 5.4,-19.6c-0.2,-0.3 0,-1.2 0.4,-2.1c0.5,-0.9 1.2,-4.3 1.6,-7.6c0.4,-3.3 0.9,-7.4 1.1,-9c1,-7.2 1.1,-34.9 0.3,-44.5c-1.1,-12.6 -3.9,-26.9 -7.3,-36.6c-2.9,-8.8 -11,-25.1 -13.9,-28.2c-1.2,-1.3 -2.1,-2.7 -2.1,-3c0.5,-2.2 -16.3,-20.3 -22.4,-24.2c-1.3,-0.8 -3.6,-2.5 -5,-3.8c-3.1,-2.6 -16.6,-9.3 -23.3,-11.6c-6,-2 -21.1,-4.4 -26.9,-4.4c-2.5,0.1 -7.8,0.7 -11.9,1.4zm30.4,11.7c14.6,4.8 31.8,21.4 40.7,39.2c4.4,8.8 10.4,28.9 11.4,38c0.3,2.2 0.7,4.7 1,5.5c1.7,4.7 2.6,54.3 1.1,65.5c-1,7.7 -3.7,21.4 -5.4,27.4c-0.8,2.9 -1.6,5.9 -1.8,6.5c-0.3,1.5 -1.1,3.7 -4.7,12.6c-1.7,4.1 -3.6,8.9 -4.2,10.6c-1.7,4.7 -8.9,15.4 -13.3,19.8c-4.5,4.5 -15.3,11.8 -20.3,13.5c-11.4,4 -30.3,4.2 -41.4,0.4c-2.8,-0.9 -5.3,-1.8 -5.6,-1.8c-1.4,-0.2 -9.3,-4.8 -10.9,-6.3c-1,-0.9 -3.1,-2.8 -4.7,-4.2c-3.5,-3.1 -8.4,-8.7 -8.4,-9.6c0,-0.4 -1,-2.1 -2.3,-3.8c-2.1,-2.8 -5.7,-9.7 -5.7,-10.9c0,-0.2 -0.9,-2.5 -2,-5.1c-1.2,-2.5 -2.1,-4.8 -2.1,-5.1c0,-0.2 -0.7,-2.1 -1.6,-4.2c-0.8,-2.1 -1.7,-4.8 -1.9,-6.1c-0.3,-1.3 -1.1,-4.2 -1.8,-6.5c-2,-6 -5.3,-24.8 -6.2,-34.2c-1.5,-18.1 -0.2,-46.4 3.1,-65.5c2.4,-14.4 13.9,-43.2 19.6,-49.4c1.1,-1.1 1.9,-2.3 1.9,-2.7c0,-1.8 9.7,-11.2 16.3,-15.7c6.9,-4.7 14.5,-8.1 23.2,-10.2c6,-1.4 18.1,-0.4 26,2.3z" fill="#118c95" id="svg_5"/>
  <path d="m2376.5,5.2c-14,1.8 -35.9,11.1 -45.8,19.4c-1.6,1.3 -3.2,2.4 -3.7,2.4c-1.5,0 -18.7,17.6 -21.6,22.1c-1.6,2.4 -3.5,5 -4.1,5.7c-0.7,0.7 -1.3,2 -1.3,2.8c0,0.8 -0.4,1.4 -0.9,1.4c-0.5,0 -3.4,5.1 -6.5,11.2c-5.5,11.4 -11.8,30.1 -13.1,39.3c-0.4,2.7 -0.9,6.1 -1.1,7.5c-1.5,8.8 -1.5,29.4 0,40.2c1.6,11.2 2.2,13.9 6.9,28.8c4.5,14.5 15.6,34.8 25.3,46c8.4,9.8 25,24 28.1,24c0.6,0 2.1,0.8 3.4,1.9c1.3,1 2.7,1.9 3.2,2c0.4,0 2,0.7 3.5,1.4c3.3,1.7 14.6,5.4 18.7,6.2c17,3.1 27,3 42.4,-0.5c9.4,-2.1 20.9,-5.9 25.6,-8.4c1.7,-0.9 3.5,-1.6 4.1,-1.6c0.6,0 2.9,-1.2 5.1,-2.8c2.1,-1.5 4.8,-3.2 5.9,-3.8c1.8,-1.1 1.9,-2.5 2.2,-26.8c0.2,-24.5 0.2,-25.6 -1.6,-25.6c-1.6,0 -2.3,1.4 -3.7,7.2c-0.9,4 -2.2,7.9 -2.7,8.5c-0.6,0.7 -0.8,1.3 -0.5,1.3c1,0 -6.9,14.7 -10.3,19.1c-4.9,6.5 -16.4,16.9 -18.6,16.9c-0.4,0 -1.5,0.6 -2.3,1.3c-1.9,1.6 -9.5,4.7 -13.1,5.3c-1.4,0.3 -3.8,0.8 -5.5,1.3c-3.2,0.8 -13.6,0.6 -22.5,-0.4c-12,-1.5 -25,-8.4 -34.3,-18.2c-6.1,-6.4 -6,-6.3 -10,-12.1c-2,-2.9 -3.9,-6.1 -4.2,-7.2c-0.4,-1.1 -1.1,-2 -1.6,-2c-0.5,0 -0.8,-0.3 -0.7,-0.8c0.1,-0.4 -0.9,-3 -2.1,-5.7c-2.5,-5.6 -4.4,-9.7 -4.6,-10.5c-0.1,-0.3 -1.1,-3.7 -2.3,-7.5c-4.8,-15.8 -6.2,-25.9 -7,-49c-1.1,-28.1 2.3,-57.4 8.4,-74.8c3,-8.3 8.3,-19.6 10.1,-21.5c0.7,-0.7 1.3,-1.9 1.3,-2.5c0,-1.9 15.8,-19.7 17.5,-19.7c0.2,0 2.7,-1.3 5.4,-2.9c8.5,-5 19.9,-8.1 30.1,-8.1c9.7,0 18.3,1.4 21.7,3.6c1.2,0.8 2.8,1.4 3.5,1.4c1.2,0 15.3,9.3 17.3,11.4c4.3,4.7 15.7,21.4 16.1,23.6c0,0.3 0.6,2.4 1.4,4.7c0.9,3.1 1.8,4.1 3.2,4c1.8,-0.1 1.9,-1.2 1.7,-23.3c-0.1,-12.7 -0.4,-23.6 -0.8,-24.1c-0.9,-1.3 -10.8,-6 -17.5,-8.3c-13.5,-4.6 -31.4,-6 -48.1,-3.8z" fill="#118c95" id="svg_6"/>
  <path d="m837.2,11.8c0.1,2.6 0.5,2.9 5.4,4c14.5,3 18.5,13 14.9,37.2c-0.9,6.3 -1.8,12.6 -2,14c-0.2,1.4 -0.6,3.6 -0.9,5c-0.3,1.4 -0.8,4.1 -1,6c-0.2,1.9 -0.7,4.6 -1,6c-0.3,1.4 -0.8,4.1 -1.1,6c-0.2,1.9 -1.1,7.5 -1.9,12.5c-0.8,4.9 -1.8,11 -2.1,13.5c-0.3,2.5 -0.7,5.2 -1,6c-0.2,0.8 -0.7,3.5 -1.1,6c-0.3,2.5 -0.7,5.4 -0.9,6.5c-0.7,3.9 -1.7,10 -2,12.5c-0.2,1.4 -0.6,3.6 -0.9,5c-0.7,3.6 -2.5,13.9 -3,18c-0.3,1.9 -1.2,7.5 -2.1,12.5c-0.8,4.9 -1.7,10.9 -2,13.3c-0.2,2.3 -0.6,5 -0.9,6c-0.3,0.9 -0.7,3.5 -1.1,5.6c-0.3,2.1 -0.8,4.8 -1,6c-0.3,1.2 -0.7,3.7 -0.9,5.6c-0.2,1.9 -0.8,5.3 -1.4,7.5c-0.5,2.2 -1,4.7 -1,5.5c-0.2,7 -6.8,19 -12.6,22.9c-2.2,1.4 -5.8,3 -8,3.6c-3.5,0.9 -4.1,1.4 -4.1,3.7l-0.1,2.8l28.3,0l28.3,0l0,-2.9c0,-2.5 -0.5,-3 -3.5,-3.5c-4.8,-0.9 -10.5,-3.4 -10.5,-4.6c0,-0.6 -0.6,-1 -1.3,-1c-0.7,0 -2.8,-2.8 -4.6,-6.1c-4.4,-8 -4.4,-12 0.3,-39.4c8,-47.7 16.7,-100.2 17.1,-103.5c0.2,-1.9 1.7,-11.2 3.3,-20.5c1.7,-9.4 3.2,-18.8 3.6,-21c0.9,-6.7 2.3,-13.6 2.9,-14.1c0.3,-0.3 0.8,0.3 1,1.3c0.3,1 2.7,9.2 5.2,18.3c2.5,9.1 5.3,19 6.2,22c0.9,3 1.7,5.9 1.9,6.5c0.3,1.6 3.3,12.4 5,18c0.8,2.7 1.6,5.7 1.8,6.5c0.2,0.8 1.6,5.8 3.1,11c1.4,5.2 3.5,12.9 4.6,17c1.1,4.1 2.9,10.4 3.9,14c3,10 8.1,28.3 8.6,30.5c0.2,1.1 1.7,6.7 3.4,12.5c1.6,5.8 4.2,14.8 5.6,20c1.5,5.2 3.2,9.8 3.8,10.2c1.8,1.2 7.3,0.9 8.3,-0.5c1,-1.2 3,-6.8 3.7,-10.3c0.3,-1 0.9,-3.1 1.5,-4.7c0.6,-1.5 0.8,-2.7 0.5,-2.7c-0.4,0 -0.2,-0.6 0.3,-1.3c0.5,-0.6 4,-11.3 7.7,-23.7c3.8,-12.4 7.2,-23.4 7.7,-24.5c0.7,-1.8 6.8,-21.6 7.4,-24c0.1,-0.6 0.5,-1.7 0.8,-2.5c0.4,-0.8 2.3,-6.9 4.3,-13.5c3.6,-12.1 6.3,-20.8 11,-35.8c1.4,-4.5 3.7,-12.3 5.1,-17.2c1.4,-5 2.9,-9.7 3.3,-10.6c0.7,-1.4 2.2,-6.2 3.6,-11.9c0.9,-3.5 4.2,-12.1 4.9,-12.8c0.5,-0.4 0.6,-0.2 0.2,0.3c-0.3,0.6 0.1,4.4 0.9,8.5c0.8,4.1 1.6,9.5 1.9,12c0.3,2.5 0.7,5.6 1,7c1.1,5.1 1.5,7.6 2,11.5c0.3,2.2 0.7,5.1 1,6.5c0.3,1.4 0.7,4.3 1,6.5c0.3,2.2 0.8,5.3 1,7c0.6,3.9 3,19.2 6.1,38.5c1.3,8.5 2.6,17 2.9,18.8c0.2,1.8 0.7,5.2 1.1,7.5c0.8,4.8 1,5.6 1.8,11.7c0.4,2.5 0.9,5.2 1.1,6c0.2,0.8 0.7,4 1,7c0.4,3 1.5,10.7 2.6,17c3.5,20.2 4.7,33.3 3.7,38.3c-1.8,8.5 -7.3,13.1 -17.3,14.5c-4.5,0.6 -5,1 -5.3,3.5l-0.3,2.7l37.5,0l37.6,0l0,-3c0,-2.1 -0.5,-3 -1.6,-3c-3.9,0 -9.7,-2.6 -13.2,-5.9c-4.2,-4.1 -8.5,-9.1 -7.7,-9.1c0.3,0 -0.1,-1.3 -0.9,-2.9c-1.6,-2.9 -3.5,-9.6 -4.1,-14.1c-1.1,-8.1 -1.7,-12.4 -3.1,-20.5c-0.9,-5 -1.7,-10.4 -2,-12c-0.2,-1.7 -0.8,-5.9 -1.4,-9.5c-5,-30.7 -8.1,-50.7 -8.2,-52c0,-0.8 -0.7,-5.1 -1.5,-9.5c-0.8,-4.4 -1.6,-9.8 -1.9,-11.9c-0.2,-2.2 -0.6,-4.7 -0.9,-5.5c-0.3,-0.9 -0.7,-3.6 -1,-6.1c-0.3,-2.5 -1.2,-8.6 -2.1,-13.5c-0.8,-5 -1.6,-10.1 -1.8,-11.5c-0.2,-1.4 -0.6,-4.1 -0.9,-6.1c-0.3,-2 -1.6,-10.1 -2.7,-18c-3.4,-22 -1.7,-28.5 8.7,-33.8c2.3,-1.1 5.6,-2.1 7.3,-2.1c2.8,0 3.1,-0.3 2.8,-2.8l-0.3,-2.7l-22.7,-0.3c-22.5,-0.3 -22.6,-0.3 -23.3,1.9c-0.4,1.2 -0.8,2.7 -0.9,3.3c-0.1,0.6 -0.7,2.4 -1.3,4.1c-0.7,1.6 -3.1,9.1 -5.3,16.5c-2.3,7.4 -5.1,16.2 -6.1,19.5c-1.1,3.3 -2.1,7 -2.3,8.2c-0.3,1.2 -0.9,3 -1.5,4.1c-0.5,1 -1.2,3 -1.5,4.3c-0.2,1.3 -1.6,5.8 -2.9,9.9c-3.8,11.6 -17,53.6 -17.3,55c0,0.3 -0.3,1.2 -0.7,2c-1,2.6 -4.7,14.6 -5.2,16.6c-0.2,1 -1.5,5.2 -2.9,9.1c-1.4,4 -2.2,7.3 -1.9,7.3c0.3,0 0,0.6 -0.6,1.3c-0.6,0.8 -1.2,2.2 -1.4,3.3c-0.9,5.1 -5,15.6 -5.7,14.3c-0.4,-0.8 -3.5,-12 -7,-24.9c-3.4,-12.9 -6.6,-24.2 -7,-25c-0.5,-0.9 -1.1,-3.6 -1.5,-6c-0.4,-2.5 -0.9,-4.8 -1.1,-5.2c-0.3,-0.4 -1.8,-5.8 -3.4,-12c-1.6,-6.2 -4.3,-16.5 -6,-22.8c-5.9,-21.1 -7.1,-25.5 -7.5,-27.5c-0.3,-1.1 -2.3,-8.8 -4.6,-17c-2.2,-8.3 -5.4,-20.4 -7.1,-27c-1.7,-6.6 -3.6,-12.3 -4.2,-12.7c-0.6,-0.4 -11.3,-0.8 -23.8,-0.8l-22.7,0l0.1,2.8z" fill="#118c95" id="svg_7"/>
  <path d="m1580,11.9c0,2.7 0.4,3 4.3,3.6c5.7,1 11,3.8 13.1,7c1,1.5 2.5,5.6 3.4,9.3c1.4,5.9 1.6,18.1 1.8,103.2c0.3,103 0.2,105.6 -4.6,115.5c-2,4.1 -5.9,6.9 -11.5,8.1c-6,1.2 -6.5,1.5 -6.5,4l0,2.4l35.6,0l35.5,0l-0.3,-2.7c-0.2,-1.9 -1,-2.7 -2.8,-3c-10.6,-1.4 -15.3,-6.3 -18.7,-19.4c-0.3,-1.3 -0.8,-17.8 -1,-36.6l-0.5,-34.2l8.3,-10.8c4.6,-5.9 9.7,-12.6 11.3,-14.8c1.7,-2.2 4.3,-5.5 5.8,-7.3l2.8,-3.2l3.1,6.2c1.7,3.5 4.8,9.4 6.9,13.3c2.1,3.8 5,9.5 6.6,12.5c1.5,3 3.1,5.7 3.4,6c0.3,0.3 2.2,3.9 4.3,8c4.3,8.5 5.9,11.5 10.3,18.5c1.7,2.7 4.1,7 5.3,9.5c1.3,2.5 4,6.9 6,9.8c2,3 4.7,7.4 6.2,9.8c1.4,2.5 3.3,5.3 4.2,6.4c0.9,1.1 1.7,2.3 1.7,2.6c0,0.8 6.7,10.1 9.2,12.8c1,1.1 1.8,2.3 1.8,2.7c0,0.4 3,4.5 6.7,9.1c9.1,11.4 21.5,24.4 28.8,29.9c1.7,1.3 3.5,2.9 4,3.5c1.8,2 8.2,6.4 9.3,6.4c0.6,0 1.7,-1.1 2.5,-2.5c1.2,-2.4 1,-2.9 -5.3,-9.3c-5.8,-5.9 -12.2,-13.7 -17,-20.6c-0.8,-1.1 -2.6,-3.7 -4.1,-5.6c-1.5,-1.9 -2.7,-3.8 -2.8,-4.3c0,-0.4 -0.7,-1.7 -1.5,-3c-4.1,-6.6 -13.5,-23.3 -17.4,-30.7c-8.3,-15.8 -11.6,-22.5 -11.4,-22.7c0.1,-0.2 -1.3,-3.1 -3.2,-6.5c-1.8,-3.5 -3.7,-7.4 -4.1,-8.8c-0.4,-1.4 -2.7,-6.7 -5.1,-11.7c-2.4,-5.1 -4.4,-9.5 -4.4,-9.9c0,-0.3 -1.3,-3.6 -3,-7.3c-3.9,-9.1 -5.3,-12.3 -5.6,-14c-0.1,-0.7 -0.7,-1.8 -1.3,-2.4c-0.6,-0.6 -1.1,-1.8 -1.1,-2.7c0,-0.8 -0.6,-2.7 -1.4,-4.1c-0.7,-1.4 -1.6,-3.9 -2,-5.5c-0.4,-1.6 -1.4,-4.3 -2.1,-5.9c-2,-4.6 -5.5,-15.3 -5.5,-17.1c0,-1.6 3,-5.9 13.2,-18.9c10.7,-13.5 16.6,-21.3 20.1,-26.3c2.1,-2.8 4.6,-6.2 5.6,-7.5c1.1,-1.2 4.7,-5.8 8.2,-10.2c8.8,-11.3 13.5,-16.1 20.4,-20.8c3.3,-2.3 6.2,-4.2 6.5,-4.3c0.3,0 1.8,-0.6 3.3,-1.2c1.6,-0.7 3.3,-1.2 3.8,-1.2c0.5,0 0.9,-0.6 0.9,-1.4c0,-0.8 0.3,-2.2 0.6,-3c0.6,-1.5 -2.6,-1.6 -33.5,-1.6l-34.1,0.1l0,2.9c0,2.7 0.3,3 3,3c4.1,0 9.7,2.5 12,5.2c2.7,3.2 4.3,10.9 3.5,16c-1.2,6.9 -8.1,20.1 -13.8,26.3c-1,1.1 -3.9,4.9 -6.4,8.5c-2.5,3.6 -5.2,6.9 -5.9,7.3c-0.8,0.4 -1.4,1.4 -1.4,2.1c0,0.8 -0.7,1.7 -1.6,2c-0.8,0.3 -1.2,1 -0.9,1.6c0.3,0.5 0.2,1 -0.3,1c-0.6,0 -3.1,2.8 -5.6,6.2c-2.5,3.5 -5.1,7 -5.9,7.8c-3.3,3.7 -7.7,9.9 -7.7,10.8c0,0.6 -0.4,1.2 -0.9,1.4c-0.5,0.1 -3.7,3.9 -7,8.3c-3.3,4.4 -6.4,8.5 -6.8,9c-0.5,0.6 -2.1,2.8 -3.7,5c-1.7,2.2 -3.3,4.2 -3.6,4.5c-0.3,0.3 -2.7,3.3 -5.3,6.7c-2.6,3.4 -5.2,6.5 -5.8,6.8c-1,0.7 -0.7,-112.5 0.3,-117c3,-12.7 6.3,-16.7 15.7,-18.6c5.8,-1.2 6.2,-1.5 5.9,-3.9l-0.3,-2.5l-35.2,-0.3l-35.3,-0.2l0,2.9z" fill="#118c95" id="svg_8"/>
  <path d="m2056,11.9c0,2.6 0.4,2.9 4.1,3.5c4.5,0.7 10.9,3.7 12.6,5.8c0.9,1.1 3.8,8.9 3.5,9.5c0,0.2 0.6,2.6 1.4,5.5c1.1,4.4 1.3,22.1 1.1,102.8c-0.2,53.6 -0.6,98.8 -1,100.5c-0.4,1.6 -1,3.8 -1.3,4.7c-0.3,0.9 -0.7,2.7 -0.9,4c-0.3,1.2 -0.9,2.4 -1.5,2.6c-0.5,0.2 -1,1 -1,1.7c0,1.9 -9.7,6.5 -13.6,6.5c-3.4,0 -4.4,1.2 -3.6,4.3c0.4,1.7 3.1,1.8 57.1,1.4c31.1,-0.2 58.2,-0.7 60.1,-1c10.1,-1.9 16,-3.6 21.3,-6.3c6.6,-3.4 12.9,-8.8 17.2,-14.9c4.1,-5.7 10.4,-17.8 10.9,-20.7c0.1,-0.7 0.4,-1.8 0.8,-2.3c2.5,-4.2 3.9,-23.8 2.5,-34.8c-1.5,-11.1 -6.1,-23.2 -10.8,-28.3c-1,-1.1 -1.9,-2.5 -1.9,-3c0,-0.5 -2,-3 -4.5,-5.4c-2.5,-2.4 -4.5,-4.1 -4.5,-3.8c0,0.4 -1.2,-0.5 -2.7,-1.9c-4.4,-4 -27.2,-14.1 -29.2,-12.9c-0.3,0.2 -1.5,-0.2 -2.6,-1c-1,-0.8 -1.5,-1.5 -0.9,-1.6c0.5,0 1.4,-0.2 1.9,-0.3c4.1,-0.6 14.2,-5.1 17.7,-7.9c1.5,-1.1 4.2,-3.4 6.2,-4.9c5,-4 12.9,-19 15.2,-29.2c0.3,-1.1 0.8,-3.4 1.2,-5c2,-8.5 -0.8,-33.1 -3.9,-35.1c-0.5,-0.3 -0.9,-1.4 -0.9,-2.5c0,-1 -0.4,-1.9 -1,-1.9c-0.5,0 -0.9,-0.3 -0.8,-0.8c0.6,-2.9 -8.9,-15.8 -14.9,-20.2c-5.4,-4 -16.5,-7.7 -26.7,-9c-4.4,-0.5 -30,-1 -57.3,-1l-49.3,0l0,2.9zm99.1,9.2c14.3,3.1 25.1,15.2 29.9,33.4c2.5,9.4 2.6,11 1.9,22.5c-0.6,9.9 -1.3,14 -3.5,20c-1.5,4.1 -3.1,7.7 -3.6,7.8c-0.4,0.2 -0.6,0.7 -0.3,1.2c0.5,0.8 -12.7,15.3 -13.9,15.2c-0.3,-0.1 -2.7,0.8 -5.3,1.9c-6.9,2.9 -18.3,4 -39.3,3.7l-18.5,-0.3l-0.3,-44c-0.1,-28.1 0.2,-45.8 0.8,-49.1c1.2,-5.8 4.9,-10.6 9.5,-12.2c4,-1.4 36.1,-1.5 42.6,-0.1zm2.4,117.2c9.1,2 17.2,5.6 21.4,9.7c11.1,10.7 16.4,20.5 18.6,34c0.9,5.8 0.6,23.9 -0.5,29c-1.3,5.7 -5.9,18.1 -7,19c-0.4,0.3 -1.4,1.9 -2.3,3.6c-4,7.7 -18,18.2 -26.7,19.9c-3.2,0.7 -46.7,0.7 -49.9,0.1c-3.2,-0.7 -5.1,-2.5 -7,-6.6c-1.4,-3 -1.6,-10.5 -1.9,-55.9c-0.2,-28.8 -0.1,-52.9 0.1,-53.5c0.7,-1.8 46.4,-1.2 55.2,0.7z" fill="#118c95" id="svg_9"/>
  <path d="m2507.6,9.7c-0.3,0.4 -0.6,1.6 -0.6,2.8c0,1.8 1,2.3 7,3.7c8,1.9 10,3.7 12.5,10.9c3.1,9.2 3.5,21.6 3.4,113.4c-0.1,85 -0.2,92.7 -1.9,100.7c-1.2,5.6 -2.7,9.8 -4.2,11.7c-2.5,3 -9.5,6.1 -14,6.1c-2.4,0 -2.8,0.4 -2.8,3l0,3l35.8,0l35.9,0l0,-3c0,-2.1 -0.5,-2.9 -1.6,-2.8c-8.5,0.8 -16.9,-5.3 -19,-13.8c-0.7,-2.7 -1.5,-5.8 -1.8,-6.9c-0.3,-1.1 -0.7,-17.3 -1,-36c-0.5,-32.3 -0.4,-34.1 1.4,-36c1,-1.1 5.5,-6.7 9.9,-12.5c4.4,-5.8 9.8,-12.8 11.9,-15.7c2.2,-2.9 4.2,-5.2 4.5,-5.2c0.3,-0.1 3.6,6.1 7.4,13.6c3.8,7.6 7.2,14 7.5,14.3c0.3,0.3 0.7,1.2 0.9,2c0.2,0.8 1.1,2.3 1.9,3.2c0.9,1 1.3,1.8 0.8,1.8c-0.4,0 -0.2,0.6 0.4,1.3c0.6,0.8 3.4,5.8 6.2,11.3c2.8,5.4 5.7,10.6 6.3,11.4c0.6,0.8 2.2,3.5 3.6,6c1.3,2.5 3,5.1 3.7,5.8c0.7,0.7 1.3,1.9 1.3,2.6c0,0.7 1.4,3.2 3,5.4c1.7,2.3 3,4.5 3,4.8c0,0.4 1.1,2.2 2.5,4c1.4,1.8 2.5,3.5 2.5,3.8c0,0.3 2.4,4 5.3,8.2c2.8,4.2 5.7,8.4 6.2,9.3c2.2,3.5 12.9,17.6 13.7,17.9c0.4,0.2 0.8,0.8 0.8,1.4c0,1.1 1.8,3.1 14,16c4.7,5 11.2,11.1 14.5,13.6c3.3,2.6 6.5,5.1 7,5.7c0.6,0.6 2,1.9 3.2,2.9c2.2,1.8 2.2,1.8 4.1,-1.3l1.9,-3.2l-6.6,-6.8c-3.6,-3.7 -9.5,-10.8 -13.1,-15.7c-3.5,-4.9 -6.8,-9.1 -7.2,-9.2c-0.4,-0.2 -0.8,-1 -0.8,-1.8c0,-0.8 -0.4,-1.4 -1,-1.4c-0.5,0 -1,-0.6 -1.1,-1.3c0,-0.6 -1.8,-3.9 -4,-7.2c-2.1,-3.3 -4.4,-7.2 -5,-8.8c-0.6,-1.5 -1.6,-2.7 -2.2,-2.7c-0.6,0 -0.8,-0.3 -0.4,-0.6c0.3,-0.3 -0.7,-2.7 -2.3,-5.2c-4.1,-6.8 -22.1,-43.2 -27.6,-55.9c-2.6,-5.9 -5,-11 -5.3,-11.3c-0.3,-0.3 -0.8,-1.4 -0.9,-2.4c-0.2,-1.1 -1.5,-4.2 -2.9,-7c-1.3,-2.8 -2.6,-5.8 -2.8,-6.6c-0.2,-0.8 -3.5,-9.8 -7.4,-20c-3.9,-10.2 -7.1,-18.9 -7.1,-19.5c0,-0.5 -0.6,-2.2 -1.4,-3.6c-1.2,-2.4 -1,-3 3,-8.5c2.4,-3.2 5,-6.6 5.9,-7.5c0.8,-0.9 1.5,-2 1.5,-2.5c0,-0.5 1.4,-2.2 3,-3.8c1.6,-1.6 3.2,-3.7 3.5,-4.7c0.4,-1.1 1,-1.9 1.5,-1.9c0.4,0 2.5,-2.5 4.5,-5.5c2,-3.1 4.4,-6.3 5.4,-7.3c1,-0.9 4.4,-5.3 7.7,-9.7c3.2,-4.4 6.2,-8.2 6.7,-8.3c0.4,-0.2 0.7,-0.8 0.7,-1.3c0,-0.5 0.8,-1.7 1.8,-2.7c0.9,-1 4.3,-5.1 7.5,-9c6.8,-8.4 14.7,-14.7 23.5,-18.7c5,-2.3 6.2,-3.3 6.2,-5.2l0,-2.4l-33.8,0.1l-33.8,0.1l0,2.9c0,2.6 0.3,2.8 4.8,3.3c7.1,0.9 11.1,4.3 13,11.3c1.5,5.2 1.5,6.1 -0.2,11.8c-2.7,9.3 -3.7,11.4 -8.3,17.5c-2.3,3.1 -5,6.7 -6,8.1c-0.9,1.4 -3.2,4.4 -5,6.7c-12.6,16.2 -33.9,44.1 -37.2,48.7c-1.1,1.6 -2.5,3.3 -3,4c-0.6,0.6 -3.2,4 -5.8,7.6c-4.7,6.4 -8.2,10.9 -10.2,13.3c-0.6,0.7 -2.1,2.7 -3.4,4.4c-1.2,1.8 -2.7,3.3 -3.2,3.3c-1.5,0 -0.5,-112.8 1,-119.9c1.3,-5.8 3.2,-9.4 6.6,-12.6c2.3,-2.2 2.7,-2.4 10.2,-3.8c4.4,-0.9 5.2,-1.3 5,-3.1c-0.1,-1.2 -0.9,-2.4 -1.7,-2.8c-1.9,-0.8 -68.5,-0.9 -69.4,-0.1z" fill="#118c95" id="svg_10"/>
  <path d="m2958.7,9.7c-0.4,0.3 -0.7,1.6 -0.7,2.9c0,1.8 0.7,2.3 4.8,2.9c11,1.6 14.9,6.2 17.5,20.5c1.4,7.4 1.5,21.3 1.3,104c-0.1,52.5 -0.6,97.5 -1,100c-1.2,7.5 -5.4,14.1 -10.6,16.7c-2.5,1.3 -6.2,2.4 -8.2,2.5c-3.3,0.1 -3.7,0.4 -3.6,3l0.1,2.8l80.3,0l80.3,0l0.5,-3.3c1.1,-6.9 2.6,-17.4 3.1,-21.2c0.5,-4.4 1.3,-10.3 2.1,-15c1.9,-12.3 1.9,-12.5 -0.8,-12.5c-2.2,0 -2.9,0.9 -4.9,5.7c-5.1,12.7 -14.7,23.9 -25,29.1c-12.7,6.5 -14.2,6.6 -47.9,6.3c-19.2,-0.1 -31.2,-0.6 -32.5,-1.3c-1.9,-1.1 -6.7,-6.1 -6.7,-7.2c0,-0.3 -0.5,-2.3 -1.1,-4.4c-0.9,-2.8 -1.1,-19.2 -0.9,-57.2l0.2,-53.2l31.8,0.4c34.3,0.4 35.5,0.6 41.5,6.2c3.8,3.6 7.7,12.2 7.7,17.3c0,3.9 0.2,4.3 2.4,4.3l2.5,0l0,-33l0.1,-33l-2.3,0.4c-1.5,0.2 -2.3,1.1 -2.5,2.7c-0.9,8.9 -2.6,14 -5.7,17.2c-6.1,6.3 -7.9,6.6 -43.6,6.4l-32,-0.2l0.1,-41.5c0,-28.7 0.4,-42.6 1.2,-45.3c1.6,-5.3 6.4,-10.2 11.3,-11.6c6,-1.6 51.5,-1.4 58.8,0.3c10.6,2.6 21.9,11 28.2,21c1,1.7 2.2,3.3 2.6,3.6c0.3,0.3 1.7,3.3 2.9,6.7c2.2,6 2.4,6.3 5.6,6.3c3.2,0 3.2,-0.1 2.8,-3.8c-1.3,-11.2 -4.6,-35.9 -5,-37.3c-0.2,-0.9 -0.5,-3.3 -0.6,-5.3l-0.1,-3.6l-76.7,0c-42.2,0 -77,0.3 -77.3,0.7z" fill="#118c95" id="svg_11"/>
  <path d="m2760.5,13l-33,0.5l0,4.5c0,4.4 0.1,4.5 4.2,5.2c2.3,0.4 5.5,1.4 7.1,2.2c2.7,1.4 8.1,6.9 8.3,8.4c0.1,0.8 0.6,3.2 1.6,7.2c1,4.1 1.3,186.1 0.4,191c-0.5,2.5 -1.1,5.9 -1.4,7.7c-0.9,5.4 -3.8,9.2 -9.5,12c-2.9,1.4 -6.3,2.7 -7.5,2.8c-1.2,0.1 -2.5,0.3 -2.9,0.4c-0.5,0 -0.8,2.3 -0.8,5.1l0,5l33.8,0l33.7,0l0,-5c0,-3.9 -0.4,-5.1 -1.7,-5.6c-1,-0.3 -2.2,-0.3 -2.6,0c-1.4,0.9 -10.6,-4 -12,-6.4c-3.1,-5.2 -4.8,-12.9 -5.1,-22.9c-0.2,-9.6 -0.1,-10.4 2.3,-13.6c1.4,-1.8 2.6,-3.8 2.6,-4.3c0,-0.6 0.7,-1.2 1.5,-1.6c0.8,-0.3 1.5,-1.2 1.5,-2.1c0,-0.8 0.4,-1.5 0.8,-1.5c0.8,0 3.3,-3.2 10.7,-13.5c1.7,-2.4 14.6,-19.6 28.8,-38.4c14.1,-18.7 25.7,-34.4 25.7,-34.7c0,-0.4 0.6,-1.2 1.4,-1.8c2,-1.7 22.6,-29.5 22.6,-30.6c0,-0.6 0.4,-1 0.9,-1c0.5,0 1.8,-1.5 2.9,-3.2c1.5,-2.4 2.2,-2.9 2.7,-1.8c0.3,0.8 0.4,36.8 0.2,80c-0.3,86.6 -0.2,84.7 -6.6,91.8c-2.7,3.1 -8,5.4 -12.6,5.6c-1.7,0.1 -2,0.9 -2.3,5.3l-0.3,5.3l33.5,0l33.6,0l0,-4.9c0,-5 -0.9,-6.1 -5,-6.1c-3.6,0 -10.7,-3.9 -12,-6.7c-4.1,-8.8 -4,-7.7 -4,-108.3c0,-53.1 0.2,-97.4 0.4,-98.6c2.3,-11.8 8,-17.4 17.7,-17.4c2.8,0 2.9,-0.2 2.9,-5l0,-5l-33.5,0l-33.5,0l0,5c0,4.8 0.1,5 2.8,5c4.4,0 11.4,4.1 14.4,8.5c2.9,4.3 3.6,6.9 4.2,16.6c0.4,6 0.3,6.4 -3.7,11.8c-2.3,3.1 -4.6,6.1 -5.2,6.8c-2.5,3 -3.4,4.2 -8.3,10.8c-6,8.1 -5.6,7.6 -10.5,13.6c-2,2.5 -3.7,5.1 -3.7,5.8c0,0.6 -0.4,1.1 -0.8,1.1c-0.5,0 -2.4,2.1 -4.2,4.7c-1.9,2.7 -3.7,5 -4,5.3c-0.3,0.3 -2.7,3.4 -5.3,7c-5.6,7.7 -6.7,9.2 -11,14.5c-1.7,2.3 -7,9.3 -11.7,15.5c-4.7,6.3 -9.1,12.1 -9.7,12.8c-0.7,0.8 -1.8,2.3 -2.4,3.4c-0.6,1.1 -1.7,2.7 -2.5,3.6c-4.7,5.5 -9.5,11.6 -10.5,13.4c-0.6,1.1 -2.1,3.2 -3.4,4.7c-1.2,1.4 -3.4,3.9 -4.9,5.6l-2.6,3l0.3,-76.5l0.2,-76.5l2.8,-5.6c2.3,-4.9 3.4,-6 7.5,-7.7c2.6,-1.2 6.1,-2.3 7.7,-2.5c2.8,-0.3 3,-0.6 3.1,-5.1c0,-2.6 -0.2,-4.8 -0.5,-4.9c-0.3,-0.1 -15.4,0 -33.6,0.3z" fill="#118c95" id="svg_12"/>
  <path d="m2060,341c-44.2,4.2 -72.8,16.3 -99,42.2c-13.1,13 -25.8,29.2 -35.1,44.9c-17.4,29.5 -26.9,78.6 -26.9,138.9c0,66.1 10.3,111.3 33.2,145.4c19.5,29.1 41.5,49.6 64.9,60.5c19.7,9.1 35.9,13.2 62.4,15.7c45.9,4.2 85,-3.5 113.2,-22.2c21.2,-14.1 43.7,-43.3 55.5,-72.1c3.7,-8.9 10.8,-33.6 10.8,-37.6c0,-1.6 -2.1,-1.7 -30.4,-1.7l-30.5,0l-1.1,5.7c-6.1,31.2 -26.1,56.8 -54.6,69.9c-15.2,7.1 -34.5,10 -54.5,8.4c-27.5,-2.3 -47.6,-11.9 -62,-29.8c-18.1,-22.4 -30.3,-48.1 -35.8,-75.7c-1.8,-9 -4.3,-30.2 -5.4,-45.8l-0.4,-5.7l139.3,0l139.4,0l0.6,-2.7c0.4,-1.4 0.4,-13.9 0.1,-27.7c-1.6,-68.9 -14.8,-113.5 -46.5,-157.1c-26.3,-36.2 -59.6,-51.8 -115.2,-53.9c-6.9,-0.2 -16.8,0 -22,0.4zm44.5,52.9c19.1,5 32.2,14.6 44.3,32.3c8.9,13.2 13.4,22.3 18.2,36.7c5.9,17.8 11,47.2 11,63.8l0,4.3l-106.7,0l-106.6,0l0.6,-11.8c2,-39.3 16.8,-77.2 39.3,-101.2c13.8,-14.6 30.7,-22.8 54.9,-26.4c1.7,-0.2 10.7,-0.3 20,-0.1c13.4,0.2 18.7,0.7 25,2.4z" fill="#118c95" id="svg_13"/>
  <path d="m2406,565.5l0,211.5l31,0l31,0l0.2,-105.6l0.3,-105.7l29,37.9c15.9,20.9 47.8,62.6 70.9,92.9c23.1,30.2 46.4,60.7 51.9,67.7l9.8,12.8l36.4,0c20.1,0 36.5,-0.2 36.5,-0.5c0,-0.5 -19.1,-24.9 -61,-78c-9.6,-12.1 -27.3,-34.6 -39.4,-50c-12.1,-15.4 -29.9,-37.9 -39.4,-50c-9.5,-12.1 -21.9,-27.8 -27.4,-34.8l-10,-12.9l1.9,-2.1c1.1,-1.2 12.8,-14.8 25.9,-30.2c29.8,-34.8 84.9,-99.1 87.8,-102.5c5.2,-6 50.2,-58.7 51.5,-60.3c1.3,-1.6 -0.7,-1.7 -34.5,-1.7l-35.9,0l-4.1,5.3c-2.3,2.9 -19.8,24.6 -39,48.3c-19.2,23.7 -52,64.3 -72.9,90.2l-38,47.1l-0.3,-95.5l-0.2,-95.4l-31,0l-31,0l0,211.5z" fill="#118c95" id="svg_14"/>
  <path d="m960.2,363.1c-24.1,2.3 -46.4,10.8 -65.1,24.9c-10.2,7.8 -24.2,22.5 -31.5,33.3c-3.3,4.8 -6.4,8.7 -6.9,8.7c-0.6,0 -0.6,-11 -0.2,-28.5l0.7,-28.5l-29.1,0l-29.1,0l0,202l0,202l29,0l28.9,0l0.4,-128.3c0.3,-96.6 0.7,-130.3 1.6,-136.7c1.7,-11.1 5.2,-24.9 8.6,-33.6c9.4,-23.7 30.6,-45.7 53.5,-55.5c19.6,-8.3 45.1,-9.1 64.2,-1.9c7.9,2.9 19.3,11.3 24.8,18.2c4.9,6.1 11.7,18.9 14.4,27.3c4.5,14.1 4.6,16.7 4.6,167.7l0,142.8l30,0l30,0l0,-137.3c0,-77.6 -0.4,-144.2 -1,-153.3c-1.8,-29.1 -5.8,-46.6 -15.5,-67c-9.1,-19.4 -18.3,-30.8 -31.9,-39.8c-20.8,-13.9 -48.7,-19.6 -80.4,-16.5z" fill="#118c95" id="svg_15"/>
  <path d="m1410,363.1c-38.2,4.7 -70.6,26.8 -91.6,62.5c-6.6,11.3 -8.9,12.2 -8.6,3.4c0.5,-13 2.2,-45 2.7,-50.3l0.5,-5.7l-28.5,0l-28.5,0l0,202l0,202l29,0l28.9,0l0.4,-131.3c0.4,-143.5 0,-135.1 6.3,-157.2c9.1,-32.5 30.1,-59.2 54.2,-69c14,-5.7 33,-6.9 47.2,-3c21.9,5.9 36.7,23.4 44.1,52.3c4.6,18 5,26.7 5.9,124.2c0.5,50.9 0.9,113.1 0.9,138.2l0.1,45.8l29,0l29,0l0,-127.8c0,-105.8 0.3,-129.9 1.5,-140.2c5.9,-50.3 29.1,-82.7 66.5,-92.7c9,-2.4 29.1,-2.4 38,0.1c30.1,8.2 47.4,34.4 51.9,78.5c0.7,6.7 1.1,58 1.1,146.2l0,135.9l30.1,0l30,0l-0.4,-144.8c-0.4,-155.8 -0.4,-155.7 -5.7,-178.2c-11.8,-49.7 -41.3,-80 -85.5,-87.6c-13.5,-2.4 -45.9,-1.5 -57.5,1.5c-10.7,2.8 -28.4,11.4 -37.2,18.1c-13.9,10.6 -29.6,30.2 -39.3,49.2c-2.2,4.3 -4.2,7.8 -4.6,7.8c-0.3,0 -1.5,-3.3 -2.8,-7.3c-12.1,-37.9 -39,-63.7 -74.1,-71.2c-9,-1.9 -24,-2.5 -33,-1.4z" fill="#118c95" id="svg_16"/>
  <path d="m2831.3,527.7c0.4,167.1 0.1,158.8 5.7,180.3c5.3,20.7 17.2,41.8 30.4,53.7c18,16.3 41.5,24.9 71.2,26c16.1,0.6 25.9,-0.3 39.9,-3.8c29.4,-7.4 56.4,-27 76.2,-55.1c8.9,-12.6 8.9,-12.6 8.5,20.2l-0.3,28l28.5,0l28.6,0l0,-202l0,-202l-29.5,0l-29.5,0l0,125.7c0,78.6 -0.4,130.2 -1.1,137.6c-1.4,16.4 -5.7,32.9 -11.9,45.3c-7.7,15.6 -24.4,32.3 -42,42.2c-13.5,7.6 -34.1,12 -50,10.7c-37.1,-3 -57.4,-23.3 -64.7,-64.7c-1.5,-8.3 -1.7,-25 -2,-153.1l-0.4,-143.7l-29,0l-29,0l0.4,154.7z" fill="#118c95" id="svg_17"/>
  <path d="m369,723.7c-6.9,2.3 -18.6,5.6 -26,7.3c-8.8,2 -15.1,4.1 -18,5.8l-4.5,2.8l-0.3,29.7c-0.2,28.6 -0.1,30 1.9,34.8c4.3,9.9 16,16.9 28.3,16.9c15.4,0 27.4,-8.4 30.6,-21.2c0.7,-2.8 1,-17.8 0.8,-42.3l-0.3,-38.1l-12.5,4.3z" fill="#118c95" id="svg_18"/>
  <path d="m4,811.5c0,1.3 13,1.5 111,1.5c98,0 111,-0.2 111,-1.5c0,-1.3 -13,-1.5 -111,-1.5c-98,0 -111,0.2 -111,1.5z" fill="#118c95" id="svg_19"/>
  <path d="m482,811.5c0,1.3 147.4,1.5 1321,1.5c1173.6,0 1321,-0.2 1321,-1.5c0,-1.3 -147.4,-1.5 -1321,-1.5c-1173.6,0 -1321,0.2 -1321,1.5z" fill="#118c95" id="svg_20"/>
  <path d="m550,839.5l0,4.5l-3.8,0c-5.9,0 -15.2,2 -19.3,4.1c-13,6.6 -16.1,26.7 -5.8,37c4.2,4.2 13.1,7.9 18.8,7.9c2.1,0 5.3,0.3 7,0.6c2.9,0.6 3.1,0.9 3.1,5l0,4.4l4,0l4,0l0,-4.4c0,-4.2 0.1,-4.4 3.8,-5c2,-0.3 4.9,-0.6 6.3,-0.6c6.1,0 13.1,-3.1 17.9,-7.9c5.9,-5.9 7.8,-12.7 6,-21.5c-2.4,-11.7 -11,-18 -26.6,-19.3l-7.4,-0.6l0,-4.3l0,-4.4l-4,0l-4,0l0,4.5zm-0.2,29.2l-0.3,18.8l-6,-0.3c-7.1,-0.4 -14,-3.4 -16.9,-7.5c-3,-4.2 -3,-17.3 0,-21.4c3.8,-5.1 10.5,-8 19.2,-8.2l4.2,-0.1l-0.2,18.7zm25.1,-15.8c12.4,6.4 11.5,27.3 -1.3,32.6c-1.8,0.8 -6,1.7 -9.4,2.1l-6.2,0.7l0,-19.3l0,-19.3l6.5,0.6c3.5,0.3 8.2,1.5 10.4,2.6z" fill="#118c95" id="svg_21"/>
  <path d="m1943,837.4c-7.4,1.6 -11.1,3.7 -15.4,8.8c-6.9,8.1 -9.6,24.6 -6,36.8c2.1,7.1 9.8,15 17,17.4c5.9,1.9 18.2,2.3 24.1,0.7c6.2,-1.7 11.7,-6.3 14.7,-12.2c3.5,-7.1 3.4,-7.9 -1.3,-7.9c-3.6,0 -4,0.3 -5,3.3c-3.4,10.3 -18.3,14.9 -29.7,9.2c-9.1,-4.6 -12.9,-12.8 -12.2,-26.4c0.8,-16 8.2,-24.1 22.1,-24.1c9.7,0 16.5,3.9 18.8,10.7c1,3 1.4,3.3 5,3.3c4.5,0 4.8,-0.9 2.4,-6.8c-3.1,-7.3 -8.8,-11.2 -19,-13.1c-7,-1.3 -8.4,-1.3 -15.5,0.3z" fill="#118c95" id="svg_22"/>
  <path d="m2731.9,837c-9.7,1.7 -16.4,7.2 -17.6,14.5l-0.6,3.5l4.1,0c3.6,0 4.1,-0.3 4.7,-2.9c1.3,-5.9 7.1,-9.1 16.6,-9.1c10.6,0 15.9,3.8 15.9,11.5c0,6.8 -6.1,10.5 -17.2,10.5c-4.7,0 -4.8,0.1 -4.8,3l0,3l7,0c3.9,0 8.5,0.6 10.4,1.4c10,4.2 10.2,17.2 0.3,21.7c-5.7,2.5 -15.8,2.5 -21.4,-0.1c-4.3,-1.9 -8.3,-6.9 -8.3,-10.3c0,-1.4 -0.9,-1.7 -4.5,-1.7c-2.5,0 -4.5,0.1 -4.5,0.3c0,0.2 0.7,2.6 1.5,5.3c3.3,11.1 16,16.5 33.8,14.3c12.5,-1.6 18.8,-7.3 18.9,-17.3c0.1,-7.1 -2.4,-11.3 -8.5,-14.7l-4.7,-2.5l3.4,-1.7c7,-3.3 9.4,-11.4 5.7,-19.1c-1.8,-3.6 -3.3,-5 -7.4,-7c-5.8,-2.7 -15.6,-3.9 -22.8,-2.6z" fill="#118c95" id="svg_23"/>
  <path d="m672.7,838.7c-0.3,0.4 -3.2,7.6 -6.5,15.8c-3.3,8.3 -9,22.1 -12.6,30.8l-6.5,15.8l4.6,-0.3l4.7,-0.3l3.2,-8l3.2,-8l14.7,0l14.7,0l3.2,8l3.2,8l4.2,0.3c2.3,0.2 4.2,-0.1 4.2,-0.6c0,-0.5 -5.6,-14.6 -12.4,-31.3l-12.4,-30.4l-4.5,-0.3c-2.5,-0.2 -4.7,0.1 -5,0.5zm11.1,23.3l5.9,15.5l-12,0.3c-6.6,0.1 -12.1,0.1 -12.3,-0.1c-0.2,-0.2 1.1,-4.1 3,-8.8c1.8,-4.6 4.6,-11.7 6.1,-15.7c1.5,-4 2.9,-7.2 3.1,-7c0.1,0.2 3,7.3 6.2,15.8z" fill="#118c95" id="svg_24"/>
  <path d="m766,869.4l0,31.6l4.5,0l4.4,0l0.3,-12.8l0.3,-12.7l14.5,-0.5c10.6,-0.4 15.3,-1 17.5,-2.2c6.3,-3.4 8.6,-7.8 8.6,-16.4c0,-8.2 -2.3,-12.4 -8.9,-15.5c-4.2,-2.1 -6.5,-2.4 -22.9,-2.7l-18.3,-0.4l0,31.6zm36.8,-22.4c5.2,3.2 6.6,9.2 3.7,15.4c-2.5,5.2 -6.7,6.6 -20,6.6l-11.5,0l0,-12l0,-12l12.3,0c10.4,0 12.7,0.3 15.5,2z" fill="#118c95" id="svg_25"/>
  <path d="m879,869.5l0,31.5l4,0l4,0l0.2,-26.8l0.3,-26.7l3.7,8.5c2,4.7 7.1,16.7 11.3,26.7l7.7,18.3l3.2,0l3.3,0l10.8,-26.1c6,-14.3 11.2,-26.2 11.7,-26.5c0.4,-0.3 0.8,11.4 0.8,26l0,26.6l4,0l4,0l0,-31.5l0,-31.5l-6.4,0l-6.3,0l-10.8,26c-6,14.4 -11.1,25.7 -11.5,25.3c-0.4,-0.4 -5.4,-12.2 -11.1,-26.1l-10.3,-25.2l-6.3,0l-6.3,0l0,31.5z" fill="#118c95" id="svg_26"/>
  <path d="m1020,868.6c-6.9,16.8 -12.6,31 -12.8,31.5c-0.2,0.5 1.6,0.9 4.1,0.9l4.4,0l3.4,-8.3l3.4,-8.2l14.6,-0.3l14.6,-0.3l3.3,8.6l3.3,8.5l4.5,0c3.8,0 4.3,-0.2 3.7,-1.7c-0.3,-1 -6.1,-15.2 -12.7,-31.5l-12.2,-29.8l-4.5,0l-4.6,0l-12.5,30.6zm29,8.5c0,0.5 -5.4,0.9 -12.1,0.9c-12,0 -12,0 -11.3,-2.3c0.5,-1.8 5.7,-15.4 10.6,-27.7c0.8,-2.2 1.6,-0.8 6.9,12.9c3.2,8.5 5.9,15.8 5.9,16.2z" fill="#118c95" id="svg_27"/>
  <path d="m1126,869.5l0,31.5l27,0l27,0l0,7l0,7l3.5,0c3.5,0 3.5,0 3.5,-4.4c0,-2.3 0.3,-7.1 0.6,-10.5l0.7,-6.1l-5.2,0l-5.1,0l0,-28l0,-28l-4,0l-4,0l0,28l0,28l-18,0l-18,0l0,-28l0,-28l-4,0l-4,0l0,31.5z" fill="#118c95" id="svg_28"/>
  <path d="m1248,869.5l0,31.5l24.5,0l24.5,0l0,-3.5l0,-3.5l-20.5,0l-20.5,0l0,-11l0,-11l18,0l18,0l0,-3.5l0,-3.5l-18,0l-18,0l0,-10l0,-10l20,0l20,0l0,-3.5l0,-3.5l-24,0l-24,0l0,31.5z" fill="#118c95" id="svg_29"/>
  <path d="m1358,869.5l0,31.8l18.8,-0.5c17.5,-0.4 19.2,-0.6 23.7,-2.9c6.4,-3.1 8.7,-6.5 9.2,-13.1c0.6,-7.5 -1.7,-11.5 -8.4,-14.9l-5.3,-2.6l3.3,-1.4c1.7,-0.8 4.2,-3 5.5,-4.9c3.2,-4.7 2.7,-12.7 -0.9,-16.6c-4.5,-5 -7.9,-5.7 -27.6,-6.2l-18.3,-0.4l0,31.7zm36.8,-22c5.8,4.9 4.9,12.4 -1.8,15.7c-2.7,1.4 -6.1,1.8 -15.2,1.8l-11.8,0l0,-10l0,-10l12.9,0c12.4,0 13.1,0.1 15.9,2.5zm1.3,26.1c7.1,4.2 7.1,15.1 -0.1,18.6c-2.8,1.4 -6.1,1.8 -16.7,1.8l-13.3,0l0,-11.6l0,-11.7l13.4,0.5c10.9,0.4 13.9,0.8 16.7,2.4z" fill="#118c95" id="svg_30"/>
  <path d="m1468,841.5l0,3.5l11,0l11,0l0,28l0,28l4,0l4,0l0,-28l0,-28l11.5,0l11.5,0l0,-3.5l0,-3.5l-26.5,0l-26.5,0l0,3.5z" fill="#118c95" id="svg_31"/>
  <path d="m1581,869.5l0,31.5l4.3,0c3.2,0 4.6,-0.5 5.3,-1.8c0.5,-1 8.6,-12.5 17.9,-25.6l17,-23.8l0.3,25.6l0.2,25.6l4.5,0l4.5,0l0,-31.5l0,-31.5l-4.3,0l-4.3,0l-18.5,25.7l-18.4,25.8l-0.3,-25.8l-0.2,-25.7l-4,0l-4,0l0,31.5z" fill="#118c95" id="svg_32"/>
  <path d="m1700,851c0,15.1 0.9,17.7 6.7,20.6c3.2,1.6 6.1,1.9 17.6,1.9l13.7,0l0.1,12c0.1,6.6 0.1,12.8 0,13.7c-0.2,1.5 0.6,1.8 4.3,1.8l4.6,0l0,-31.5l0,-31.5l-4.5,0l-4.5,0l0,14.5l0,14.5l-6.2,0.2c-15.7,0.4 -20.8,-0.7 -22.7,-4.8c-0.6,-1.4 -1.1,-7.4 -1.1,-13.4l0,-11l-4,0l-4,0l0,13z" fill="#118c95" id="svg_33"/>
  <path d="m1814,869.5l0,31.5l24.5,0l24.5,0l0,-3.5l0,-3.5l-20.5,0l-20.5,0l0,-11l0,-11l18,0l18,0l0,-3.5l0,-3.5l-18,0l-18,0l0,-10l0,-10l20,0l20,0l0,-3.5l0,-3.5l-24,0l-24,0l0,31.5z" fill="#118c95" id="svg_34"/>
  <path d="m2043,869.5l0,31.5l4,0l4,0l0,-16.5c0,-9.1 0.3,-16.5 0.8,-16.5c0.4,0 7.8,7.4 16.5,16.5l15.9,16.5l5.6,0l5.6,0l-17.2,-16.6c-9.5,-9.2 -17.2,-17 -17,-17.4c0.2,-0.4 7.2,-7 15.7,-14.6l15.5,-13.9l-4.8,-0.3l-4.7,-0.3l-15.4,14.5c-8.4,8 -15.5,14.6 -15.9,14.6c-0.3,0 -0.6,-6.5 -0.6,-14.5l0,-14.5l-4,0l-4,0l0,31.5z" fill="#118c95" id="svg_35"/>
  <path d="m2170.7,839.2c-0.3,0.7 -5.9,14.7 -12.6,31c-6.6,16.3 -12.1,29.9 -12.1,30.2c0,0.3 1.9,0.6 4.3,0.6l4.2,0l3.3,-8.5l3.4,-8.6l14.6,0.3l14.7,0.3l3.4,8.2l3.4,8.3l4.3,0l4.4,0l-1.8,-4.3c-0.9,-2.4 -6.6,-16.5 -12.7,-31.5l-11,-27.2l-4.6,0c-2.8,0 -4.9,0.5 -5.2,1.2zm11.1,21.8c2.8,7.4 5.4,14.3 5.8,15.2c0.6,1.7 -0.4,1.8 -11.5,1.8c-7.5,0 -12.1,-0.4 -12.1,-1c0,-2.1 11.5,-30.9 12.1,-30.2c0.3,0.4 2.9,6.8 5.7,14.2z" fill="#118c95" id="svg_36"/>
  <path d="m2280.1,839.1c-5.9,1.1 -11.4,4.9 -13.4,9.2c-2.1,4.2 -2.2,11.6 -0.3,16c1.6,3.9 6.7,8.5 10.4,9.3c6.8,1.4 6.8,1.3 0.6,9.9c-3.1,4.4 -7.2,10.1 -9.1,12.7l-3.5,4.8l5.4,0l5.3,0l7.9,-12.1c4.4,-6.6 8.5,-12.3 9.2,-12.7c0.7,-0.4 4.4,-0.6 8.3,-0.4l7.1,0.4l0,12.4l0,12.4l4.5,0l4.5,0l0,-31.5l0,-31.5l-16.2,0.1c-9,0.1 -18.3,0.5 -20.7,1zm27.9,17.9l0,12l-12,0c-13.4,0 -17.7,-1.2 -20.6,-5.5c-2.6,-4 -2.3,-10.9 0.7,-14.1c3.6,-3.9 5.2,-4.3 19.2,-4.3l12.7,-0.1l0,12z" fill="#118c95" id="svg_37"/>
  <path d="m2503,869.5l0,31.5l4,0l4.1,0l-0.3,-28l-0.3,-28l17.3,0l17.2,0l0,-3.5l0,-3.5l-21,0l-21,0l0,31.5z" fill="#118c95" id="svg_38"/>
  <path d="m2621.3,841.7c-0.9,2.1 -6.7,16.3 -12.9,31.6l-11.3,27.8l4.5,-0.3l4.6,-0.3l3.2,-8l3.2,-8l14.8,0l14.8,0l3.1,8.2l3.1,8.3l4.3,0c2.4,0 4.3,-0.3 4.3,-0.8c0,-0.4 -5.6,-14.4 -12.5,-31.2c-6.9,-16.8 -12.5,-30.6 -12.5,-30.7c0,-0.2 -2,-0.3 -4.6,-0.3c-4.3,0 -4.6,0.2 -6.1,3.7zm12.1,19.5c3.1,8.1 5.6,15.2 5.6,15.8c0,0.6 -4.6,1 -12.1,1c-11.1,0 -12.1,-0.1 -11.5,-1.8c4,-10.6 11.9,-30.2 12.1,-30c0.2,0.2 2.8,6.9 5.9,15z" fill="#118c95" id="svg_39"/>
  <path d="m2831,869.5l0,31.5l24.5,0l24.5,0l0,-3.5l0,-3.5l-20,0l-20,0l0,-11l0,-11l17.5,0l17.5,0l0,-3.5l0,-3.5l-17.5,0l-17.5,0l0,-10l0,-10l19.5,0l19.5,0l0,-3.5l0,-3.5l-24,0l-24,0l0,31.5z" fill="#118c95" id="svg_40"/>
  <path d="m2934,841.5l0,3.5l11,0l11,0l0,28l0,28l4,0l4,0l0,-28l0,-28l11.5,0l11.5,0l0,-3.5l0,-3.5l-26.5,0l-26.5,0l0,3.5z" fill="#118c95" id="svg_41"/>
  <path d="m3063.1,840.2c-0.5,1.3 -6.1,15 -12.5,30.6c-6.4,15.6 -11.6,28.7 -11.6,29.3c0,0.5 1.9,0.9 4.3,0.9l4.2,0l3.1,-8.3l3.1,-8.2l14.8,0l14.7,0l3.3,8l3.3,8l4.6,0.3l4.5,0.3l-6.9,-16.8c-3.8,-9.2 -9.6,-23.3 -12.8,-31.3l-6,-14.5l-4.6,-0.3c-4,-0.3 -4.7,0 -5.5,2zm12.9,24.2c2.7,7.1 4.8,13.1 4.6,13.3c-0.2,0.2 -5.7,0.2 -12.3,0.1l-12,-0.3l6,-15.9c7,-18.4 5.3,-18.7 13.7,2.8z" fill="#118c95" id="svg_42"/>
  <path d="m4,935c0,2 0.7,2 1560,2c1559.3,0 1560,0 1560,-2c0,-2 -0.7,-2 -1560,-2c-1559.3,0 -1560,0 -1560,2z" fill="#118c95" id="svg_43"/>
 </g>
</svg>