<svg width="167" height="24" viewBox="0 0 167 24" fill="none" xmlns="http://www.w3.org/2000/svg">
<path d="M27.6409 14.937C27.6409 12.1384 25.822 10.1533 22.8471 10.1533C19.8723 10.1533 18.0534 12.1384 18.0534 14.937C18.0534 17.6543 19.8723 19.737 22.8471 19.737C25.822 19.737 27.6409 17.6543 27.6409 14.937ZM32.2986 14.937C32.2986 20.1926 28.3888 24 22.8641 24C17.3054 24 13.3956 20.1926 13.3956 14.937C13.3956 9.6164 17.2034 5.9066 22.8641 5.9066C28.5248 5.9066 32.2986 9.6164 32.2986 14.937Z" fill="black"/>
<path d="M4.60676 6.2971H0V23.6095H4.60676V6.2971Z" fill="black"/>
<path d="M9.65569 6.2971L4.91293 12.5289H10.5566L15.2824 6.2971H9.65569Z" fill="black"/>
<path d="M160.115 16.7919H155.271C154.03 16.7919 153.401 17.4265 153.401 18.3051C153.401 19.2488 154.387 20.0624 155.781 20.0624C157.82 20.0624 159.588 18.7119 160.115 16.7919ZM167 19.4929V23.6095H164.484C162.852 23.6095 161.203 22.7308 160.795 21.0224C159.69 22.6983 157.82 23.7559 155.39 23.7559C151.412 23.7559 148.947 21.4454 148.947 18.2563C148.947 15.6692 150.885 13.2936 155.22 13.2936H160.081V12.3662C160.081 11.276 159.163 10.3974 158.024 10.3974H150.239V6.2971H158.279C161.73 6.2971 164.535 8.98182 164.535 12.2848V19.4929H167Z" fill="black"/>
<path d="M124.008 13.4237C123.158 13.3424 120.405 13.1146 119.368 12.9844C118.059 12.8217 117.566 12.2197 117.566 11.5688C117.566 10.6902 118.28 9.84409 120.694 9.84409C123.379 9.84409 124.297 11.0644 124.467 12.2685H128.632C128.632 9.27461 125.878 6.00413 120.66 6.00413C115.781 6.00413 113.095 8.59122 113.095 11.6339C113.095 14.221 114.897 16.1735 117.77 16.5152C119.64 16.743 121.068 16.8732 122.716 17.0359C124.11 17.1661 124.535 17.6379 124.535 18.2725C124.535 19.1674 123.685 20.0298 121.017 20.0298C118.416 20.0298 117.175 18.9721 116.988 17.703H112.823C112.823 21.2501 116.104 23.886 121.034 23.886C125.895 23.886 129.023 21.3477 129.023 18.1423C129.006 15.6366 127.408 13.7491 124.008 13.4237Z" fill="black"/>
<path d="M142.079 13.4237C141.229 13.3424 138.475 13.1146 137.438 12.9844C136.129 12.8217 135.636 12.2197 135.636 11.5688C135.636 10.6902 136.35 9.84409 138.764 9.84409C141.45 9.84409 142.368 11.0644 142.538 12.2685H146.703C146.703 9.27461 143.949 6.00413 138.73 6.00413C133.852 6.00413 131.166 8.59122 131.166 11.6339C131.166 14.221 132.968 16.1735 135.84 16.5152C137.71 16.743 139.138 16.8732 140.787 17.0359C142.181 17.1661 142.606 17.6379 142.606 18.2725C142.606 19.1674 141.756 20.0298 139.087 20.0298C136.486 20.0298 135.246 18.9721 135.059 17.703H130.894C130.894 21.2501 134.175 23.886 139.104 23.886C143.966 23.886 147.094 21.3477 147.094 18.1423C147.06 15.6366 145.462 13.7491 142.079 13.4237Z" fill="black"/>
<path d="M104.494 16.7919H99.6662C98.4253 16.7919 97.7963 17.4265 97.7963 18.3051C97.7963 19.2488 98.7823 20.0624 100.176 20.0624C102.216 20.0624 103.967 18.7119 104.494 16.7919ZM108.914 19.4929H111.396V23.6095H108.88C107.248 23.6095 105.599 22.7308 105.191 21.0224C104.086 22.6983 102.216 23.7559 99.7852 23.7559C95.8074 23.7559 93.3426 21.4454 93.3426 18.2563C93.3426 15.6692 95.2805 13.2936 99.6152 13.2936H104.477V12.3662C104.477 11.276 103.559 10.3974 102.42 10.3974H94.6345V6.2971H102.675C106.126 6.2971 108.931 8.98182 108.931 12.2848V19.4929H108.914Z" fill="black"/>
<path d="M68.6096 14.937C68.6096 12.1384 66.7907 10.1533 63.8158 10.1533C60.841 10.1533 59.0221 12.1384 59.0221 14.937C59.0221 17.6543 60.841 19.737 63.8158 19.737C66.7907 19.737 68.6096 17.6543 68.6096 14.937ZM73.2673 14.937C73.2673 20.1926 69.3575 24 63.8328 24C58.2741 24 54.3643 20.1926 54.3643 14.937C54.3643 9.6164 58.1721 5.9066 63.8328 5.9066C69.4935 5.9066 73.2673 9.6164 73.2673 14.937Z" fill="black"/>
<path d="M92.3899 6.2971H86.7122L80.2355 14.8231L86.9842 23.6095H92.6789L85.8793 14.7743L92.3899 6.2971Z" fill="black"/>
<path d="M79.7947 0H75.1879V23.6093H79.7947V0Z" fill="black"/>
<path d="M48.2092 14.9531C48.2092 12.1545 46.3903 10.1694 43.4155 10.1694C40.4406 10.1694 38.6217 12.1545 38.6217 14.9531C38.6217 17.6866 40.4406 19.7693 43.4155 19.7693C46.3903 19.7693 48.2092 17.6703 48.2092 14.9531ZM52.85 14.9043C52.85 20.1598 48.9062 23.9998 43.4664 23.9998C37.6697 23.9998 33.9639 20.3551 33.9639 14.7253V0H38.6047V7.72874C39.8456 6.60604 41.6815 5.89011 43.8404 5.89011C49.3651 5.90639 52.85 9.79516 52.85 14.9043Z" fill="black"/>
</svg>
