<svg id="Слой_1" data-name="Слой 1" xmlns="http://www.w3.org/2000/svg" viewBox="0 0 1200 532"><defs><style>.cls-1{fill:#4e60a9;}.cls-2{fill:#fff;}</style></defs><title>EW_club_full_logo</title><rect class="cls-1" y="0.3" width="558.12" height="531.4"/><polygon class="cls-2" points="303.49 211.88 307.6 259.38 309.24 259.38 313.76 211.13 352.36 66.75 388.5 66.75 425.87 211.88 430.39 259.38 432.03 259.38 436.55 211.13 462.01 66.75 514.58 66.75 450.1 332.52 413.55 332.52 373.31 187 367.97 145.91 365.92 145.91 360.98 187.38 320.74 332.52 282.54 332.52 218.48 66.75 275.56 66.75 303.49 211.88"/><polygon class="cls-2" points="43.55 66.75 187.28 66.75 187.28 110.48 95.29 110.48 95.29 175.32 178.66 175.32 178.66 219.04 95.29 219.04 95.29 286.9 188.93 286.9 188.93 330.63 43.55 330.63 43.55 66.75"/><path class="cls-2" d="M185.22,481.4c.78,2,.94,2.5-.47,4.06-5.16,5.78-19.69,7.81-26.88,7.81-24.85,0-38-15.78-38-40,0-25.47,14.69-42.51,40.47-42.51,8.75,0,16.25.94,23.44,6.88,1.72,1.41,1.25,3.13,1.25,3.91v19.38c0,1.72-.31,2.19-2,2.19H164.28c-1.56,0-2-.47-2-2.19v-9.53c-.78,0-.94-.16-1.72-.16-8.6,0-12.66,5.47-12.66,21.25,0,15.16,4.84,19.85,12.81,19.85,5.16,0,10.16-2.5,15-4.38,2.66-1.09,3.44-1.72,4.53.94Z"/><path class="cls-2" d="M244.44,485c.31,1.25.47,1.56-1.09,2.66-4.53,3.59-13.44,5.63-19.07,5.63-7,0-14.06-2.19-18.28-6.56-5.94-6.09-5.94-14.69-5.94-22.66V400.76h-5.31c-1.72,0-2-.31-2-2V380.6c0-1.56.31-2,2-2h32c1.72,0,2,.63,2,2.19v85.48c0,2,1.09,3.44,2.34,3.44a19.7,19.7,0,0,0,7.19-1.56c.94-.31,2-.31,2.34.78Z"/><path class="cls-2" d="M334.91,488.58c0,1.72-.31,2-2,2h-25c-2.5,0-2.5-.78-4.22-5a26.75,26.75,0,0,1-19.38,7.66c-8.75,0-16.41-2.34-21.25-7.5-5.78-6.09-6.41-10.78-6.41-24.06V435.3h-4.84c-1.72,0-2.19-.31-2.19-2V415.61c0-1.56.47-2.19,2.19-2.19h29.85c3,0,3.28-.31,3.28,2.34v49.85c0,5.78,1.25,8.44,5.94,8.44,4.06,0,6.56-1.41,9.53-4.22v-53.6c0-2.34.16-2.81,2.19-2.81h22.66c3.28,0,3.12-.16,3.12,2.5v48.29a39.15,39.15,0,0,0,.47,4.84h4.06c1.72,0,2,.62,2,2.19Z"/><path class="cls-2" d="M377.57,415.3a29.13,29.13,0,0,1,14.85-4.69c20.47,0,31.72,14.85,31.72,38.13,0,14.22-2.34,24.07-9.53,32.5-6.56,7.66-17.19,12-27.5,12-5.47,0-9.38-2-14.22-5.63-2.19,4.84-3.12,5-5,5-.78,0-.47-.16-2-.31l-18.44-2.19c-1.72-.16-2-1.09-1.25-3.44a46,46,0,0,0,3-17.5V400.76h-5.31c-1.72,0-2.19-.31-2.19-2V380.6c0-1.56.47-2,2.19-2h31.41c1.72,0,2.34.31,2.34,1.88Zm0,57a25.21,25.21,0,0,0,8,1.72c6.25,0,11.88-8.13,11.88-24.06,0-15.16-4.38-21.57-8.91-21.57A21.18,21.18,0,0,0,377.57,432Z"/><path class="cls-1" d="M622,70.92h17.2V94.54l17.95-23.63H675L653.1,98.63l23,32H656.35l-17.2-25v25H622Z"/><path class="cls-1" d="M698.51,112q-1.09,9.93-4.39,14.82T683.9,131.7c-.62,0-1.21,0-1.8-.08a11.82,11.82,0,0,1-1.41-.21c-.36-.08-.69-.17-1-.26l-.66-.21-.17-.08V119.59a.41.41,0,0,0,.12.08,1.11,1.11,0,0,0,.31.08,4.14,4.14,0,0,0,1.17.08q4.43,0,5.35-11.35c0-.21.06-1.76.17-4.63s.17-5.31.17-7.3l.17-9.6h36.48v43.66H707.94V97.13h-8.68Q699.09,107.57,698.51,112Z"/><path class="cls-1" d="M745.76,126.18,728.31,86.95h16.2l9,23.29,8.35-23.29h14.27l-23.38,58.27H738.5Z"/><path class="cls-1" d="M802.45,131.61q-11.69,0-17.78-6.72t-6.09-21.58v-2.26q0-31.63,26.8-32.72l4.17-.17q8.76-.33,12.35-1.42v11q-3.59,1.92-12.94,2.42l-3.5.17q-13.52.58-15.53,14.78h.5q4.85-7.69,15.53-7.68a19.07,19.07,0,0,1,14.65,6.17,21.86,21.86,0,0,1,5.72,15.44v.67q0,10-6.76,15.95T802.45,131.61Zm.08-11.11a7.72,7.72,0,0,0,6.39-2.75q2.21-2.75,2.21-7.85v-.67q0-5.08-2.21-7.84a7.7,7.7,0,0,0-6.39-2.76,7.87,7.87,0,0,0-6.47,2.72q-2.21,2.71-2.21,7.72v.67Q793.85,120.51,802.53,120.51Z"/><path class="cls-1" d="M866.49,112q-1.09,9.93-4.39,14.82t-10.22,4.88c-.62,0-1.21,0-1.8-.08a11.82,11.82,0,0,1-1.41-.21c-.36-.08-.69-.17-1-.26l-.66-.21-.17-.08V119.59a.24.24,0,0,0,.17.08.57.57,0,0,0,.25.08,4.14,4.14,0,0,0,1.17.08q4.43,0,5.35-11.35c0-.21.06-1.76.17-4.63s.17-5.31.17-7.3l.17-9.6h36.48v43.66H875.91V97.13h-8.68Q867.06,107.57,866.49,112Z"/><path class="cls-1" d="M899.8,130.61V86.95h14.86V113.5l13.69-26.55H943.2v43.66H928.35V104.06l-13.69,26.55Z"/><path class="cls-1" d="M961.73,141.22H948.54V120.42h2.17q3.83-2,4.84-12,.5-6.17.5-21.45h37v33.48h5.84v20.79H985.69v-10.6h-24Zm6.93-31.72a38.28,38.28,0,0,1-2.17,10.93h11.69V97.13h-9.11Q969.08,103.48,968.66,109.49Z"/><path class="cls-1" d="M1025.85,131.61q-10.68,0-16.95-5.76-6.76-5.92-6.76-16.53v-.67q0-10.28,6.84-16.7,6.59-6.17,16.78-6.18,9.61,0,15.61,5.43,6.59,6,6.59,17.11v3.93h-30.72A10.22,10.22,0,0,0,1020,119a8.64,8.64,0,0,0,6.39,2.38q6.59,0,7.59-5.17h14a15.87,15.87,0,0,1-6.64,11.48Q1035.71,131.61,1025.85,131.61Zm7.6-27.8q-.42-8.18-7.69-8.18t-8.35,8.18Z"/><path class="cls-1" d="M1054.41,86.95h14.94v6.51A15,15,0,0,1,1083,85.78a16.57,16.57,0,0,1,13,5.68q5.43,6.1,5.43,16.95v.67q0,10.86-5.43,16.87a16.65,16.65,0,0,1-13.11,5.68q-9.68,0-13.53-7.43v21h-14.94Zm23.2,33.23q8.6,0,8.6-11.11v-.67q0-5.68-2.26-8.51a8.46,8.46,0,0,0-12.73.08q-2.31,2.93-2.3,8.35V109q0,5.52,2.26,8.35A7.72,7.72,0,0,0,1077.61,120.18Z"/><path class="cls-1" d="M1129.62,131.61q-10.35,0-16.94-5.84-6.94-6-6.93-16.44v-.67q0-10.28,6.93-16.7,6.59-6.17,17-6.18t16.94,6q6.85,6.35,6.85,16.44v.67q0,10.35-6.85,16.7Q1140,131.62,1129.62,131.61Zm.09-11.11q8.59,0,8.59-11.44v-.67q0-11.43-8.59-11.44T1121,108.24v.67Q1121,120.51,1129.71,120.51Z"/><path class="cls-1" d="M1159.77,86.95h22q16.61,0,16.61,10.6v.08a9.38,9.38,0,0,1-2.21,6.59,12.49,12.49,0,0,1-6.8,3.42q10.68,1.67,10.68,9.94v.08q0,6.17-4.26,9.56t-12.94,3.38h-23ZM1178,103.9q5.34,0,5.35-4.26a3.24,3.24,0,0,0-1.46-3.09,9.79,9.79,0,0,0-4.64-.83h-2.67v8.18Zm.92,18q6.1,0,6.1-4.68t-5.26-4.67h-5.17v9.35Z"/><path class="cls-1" d="M643.92,231.8q-10.26,0-15.49-4.38t-6.47-13h13.44a9.27,9.27,0,0,0,2.75,4.93,7.42,7.42,0,0,0,4.84,1.5q6.59,0,8.18-7.35h-13v-9.35h13q-1.34-6.59-7.68-6.59-5.6,0-7.18,5.51h-14q.76-8.6,6.81-12.86A24.91,24.91,0,0,1,643.83,186q10,0,16.53,6t6.51,16.58v.66q0,10.7-6.42,16.62T643.92,231.8Z"/><path class="cls-1" d="M689.75,212.18q-1.09,9.94-4.39,14.82t-10.22,4.88c-.62,0-1.21,0-1.8-.08a11.82,11.82,0,0,1-1.41-.21q-.55-.12-1-.25l-.66-.21-.17-.08V219.78a.26.26,0,0,0,.17.09.71.71,0,0,0,.25.08,4.52,4.52,0,0,0,1.17.08q4.43,0,5.35-11.35c0-.22.06-1.77.17-4.64s.17-5.31.17-7.3l.17-9.6H714V230.8H699.18V197.32h-8.68Q690.33,207.76,689.75,212.18Z"/><path class="cls-1" d="M744.68,231.8q-10.68,0-16.95-5.76Q721,220.12,721,209.51v-.67q0-10.28,6.84-16.7Q734.41,186,744.6,186q9.61,0,15.61,5.42,6.59,6,6.59,17.12v3.92H736.09a10.22,10.22,0,0,0,2.71,6.73,8.64,8.64,0,0,0,6.39,2.38q6.59,0,7.59-5.18h14a15.86,15.86,0,0,1-6.64,11.48Q754.54,231.8,744.68,231.8Zm7.6-27.8q-.42-8.18-7.69-8.18T736.25,204Z"/><path class="cls-1" d="M787.85,211.68V230.8H772.9V187.14h14.95v17.28l11.77-17.28h15.54l-14.28,19.62,15.44,24h-16.7Z"/><path class="cls-1" d="M856.48,197.32H844.2V230.8H829.34V197.32H817.07V187.14h39.41Z"/><path class="cls-1" d="M862.06,187.14H877v6.51A15,15,0,0,1,890.62,186a16.55,16.55,0,0,1,13,5.68q5.43,6.09,5.43,16.95v.66q0,10.86-5.43,16.87a16.65,16.65,0,0,1-13.11,5.68q-9.68,0-13.53-7.43v21H862.06Zm23.2,33.23q8.6,0,8.6-11.11v-.66q0-5.68-2.26-8.52a8.48,8.48,0,0,0-12.73.08q-2.31,2.93-2.3,8.35v.66q0,5.52,2.26,8.35A7.71,7.71,0,0,0,885.27,220.36Z"/><path class="cls-1" d="M937.28,231.8q-10.35,0-16.94-5.84-6.94-6-6.93-16.44v-.67q0-10.28,6.93-16.7,6.59-6.17,17-6.17t16.94,6q6.85,6.35,6.85,16.44v.67q0,10.35-6.85,16.7Q947.63,231.8,937.28,231.8Zm.09-11.1q8.59,0,8.59-11.44v-.66q0-11.44-8.59-11.44t-8.68,11.26v.67Q928.68,220.69,937.37,220.7Z"/><path class="cls-1" d="M995.39,213.69H982.28V230.8H967.42V187.14h14.86V203.5h13.11V187.14h14.86V230.8H995.39Z"/><path class="cls-1" d="M1047.23,213.69h-13.11V230.8h-14.86V187.14h14.86V203.5h13.11V187.14h14.86V230.8h-14.86Z"/><path class="cls-1" d="M1092.9,231.8q-10.35,0-16.94-5.84-6.94-6-6.93-16.44v-.67q0-10.28,6.93-16.7,6.59-6.17,17-6.17t16.94,6q6.85,6.35,6.85,16.44v.67q0,10.35-6.85,16.7Q1103.25,231.8,1092.9,231.8Zm.09-11.1q8.59,0,8.59-11.44v-.66q0-11.44-8.59-11.44t-8.68,11.26v.67Q1084.3,220.69,1093,220.7Z"/><path class="cls-1" d="M1123,230.8V187.14h14.86v26.55l13.69-26.55h14.86V230.8h-14.86V204.25L1137.9,230.8Zm21.29-49.09q-6.43,0-9.89-3.34t-3.88-9.44h10.1q.42,4.26,3.68,4.26t3.93-4.26h10q-.5,6.1-4.13,9.44T1144.33,181.71Z"/><path class="cls-1" d="M661.37,297.5H649.09V331H634.23V297.5H622V287.31h39.41Z"/><path class="cls-1" d="M688.08,332q-10.35,0-16.94-5.84-6.94-6-6.93-16.44V309q0-10.28,6.93-16.7,6.59-6.17,17-6.17t16.94,6Q712,298.5,712,308.6v.67q0,10.35-6.85,16.7Q698.43,332,688.08,332Zm.09-11.1q8.59,0,8.59-11.44v-.66q0-11.44-8.59-11.44t-8.68,11.26v.67Q679.48,320.87,688.17,320.88Z"/><path class="cls-1" d="M718.47,287.31h14.94v6.51A15,15,0,0,1,747,286.15a16.55,16.55,0,0,1,13,5.68q5.43,6.09,5.43,16.95v.66q0,10.86-5.43,16.87A16.65,16.65,0,0,1,746.94,332q-9.68,0-13.53-7.43v21H718.47Zm23.2,33.23q8.6,0,8.6-11.11v-.66q0-5.68-2.26-8.52a8.48,8.48,0,0,0-12.73.08q-2.31,2.93-2.3,8.35v.66q0,5.52,2.26,8.35A7.71,7.71,0,0,0,741.67,320.54Z"/><path class="cls-1" d="M786.76,297.5V331H771.9V287.31h31.3V297.5Z"/><path class="cls-1" d="M830.33,332q-10.35,0-16.94-5.84-6.94-6-6.93-16.44V309q0-10.28,6.93-16.7,6.59-6.17,17-6.17t16.94,6q6.85,6.35,6.85,16.44v.67q0,10.35-6.85,16.7Q840.68,332,830.33,332Zm.09-11.1q8.59,0,8.59-11.44v-.66q0-11.44-8.59-11.44t-8.68,11.26v.67Q821.74,320.87,830.42,320.88Z"/><path class="cls-1" d="M860.48,287.31h22q16.61,0,16.61,10.6V298a9.38,9.38,0,0,1-2.21,6.59A12.55,12.55,0,0,1,890,308q10.68,1.67,10.68,9.93V318q0,6.19-4.26,9.56T883.52,331h-23Zm18.28,16.95q5.34,0,5.35-4.26a3.24,3.24,0,0,0-1.46-3.09,9.79,9.79,0,0,0-4.64-.83h-2.67v8.18Zm.92,18q6.1,0,6.1-4.67t-5.26-4.68h-5.17v9.35Z"/><path class="cls-1" d="M924.84,312.36q-1.09,9.94-4.39,14.82t-10.22,4.88c-.62,0-1.21,0-1.8-.08a11.82,11.82,0,0,1-1.41-.21q-.55-.12-1-.25l-.66-.21-.17-.08V320a.26.26,0,0,0,.17.09.71.71,0,0,0,.25.08,4.52,4.52,0,0,0,1.17.08q4.43,0,5.35-11.35c0-.22.06-1.77.17-4.64s.17-5.31.17-7.3l.17-9.6h36.48V331H934.27V297.5h-8.68Q925.42,307.94,924.84,312.36Z"/><path class="cls-1" d="M958.15,331V287.31H973v26.55l13.69-26.55h14.86V331H986.7V304.43L973,331Z"/></svg>