<svg width="92" height="21" viewBox="0 0 92 21" fill="none" xmlns="http://www.w3.org/2000/svg">
<path d="M39.5429 18.7972C38.6196 19.5314 37.7233 20.0716 36.8678 20.4456C36.0123 20.8058 35.0482 20.9997 33.9754 20.9997C32.9977 20.9997 32.1422 20.8058 31.3954 20.4041C30.6621 20.0162 30.0918 19.476 29.6844 18.7972C29.277 18.1184 29.0869 17.3843 29.0869 16.6086C29.0869 15.5419 29.4128 14.6416 30.0782 13.8935C30.7436 13.1455 31.6534 12.6468 32.7941 12.3837C33.0385 12.3282 33.636 12.2036 34.6001 11.9958C35.5642 11.8019 36.379 11.6079 37.0579 11.4417C37.7369 11.2755 38.4838 11.0677 39.2849 10.8322C39.2442 9.80716 39.0405 9.05914 38.6739 8.57431C38.3208 8.08949 37.5739 7.854 36.4469 7.854C35.4827 7.854 34.7495 7.99252 34.2606 8.26957C33.7718 8.54661 33.3508 8.96217 32.9977 9.50241C32.6447 10.0565 32.4681 10.3197 32.3324 10.4998C32.1422 10.7352 31.8028 10.8599 31.3275 10.8599C30.893 10.8599 30.5263 10.7214 30.214 10.4444C29.9017 10.1673 29.7523 9.80715 29.7523 9.36389C29.7523 8.68513 29.9831 8.02023 30.4584 7.36918C30.9337 6.71813 31.667 6.19174 32.6718 5.77618C33.6767 5.36061 34.926 5.15283 36.4197 5.15283C38.09 5.15283 39.4071 5.36061 40.3713 5.76233C41.3354 6.16404 42.0008 6.80124 42.4082 7.67392C42.802 8.54661 43.0056 9.71019 43.0056 11.1508C43.0056 12.0651 43.0056 12.8408 42.9921 13.478C42.9921 14.1152 42.9785 14.8216 42.9649 15.5974C42.9649 16.3315 43.0871 17.0934 43.318 17.883C43.5488 18.6725 43.671 19.1851 43.671 19.4205C43.671 19.8223 43.4809 20.1824 43.1143 20.5149C42.7476 20.8473 42.3267 20.9997 41.865 20.9997C41.4712 20.9997 41.091 20.8058 40.7108 20.4318C40.3849 20.0577 39.9775 19.5175 39.5429 18.7972ZM39.2985 13.1732C38.7418 13.381 37.927 13.6026 36.8678 13.8381C35.8086 14.0736 35.0618 14.2398 34.6544 14.3507C34.247 14.4615 33.8532 14.6693 33.4866 14.9879C33.12 15.3065 32.9298 15.7497 32.9298 16.3177C32.9298 16.9133 33.1471 17.412 33.5816 17.8137C34.0162 18.2154 34.5865 18.437 35.2926 18.437C36.0531 18.437 36.7456 18.2708 37.3838 17.9384C38.0221 17.6059 38.4838 17.1626 38.7825 16.6363C39.122 16.0406 39.2985 15.0848 39.2985 13.7273V13.1732Z" fill="#007A33"/>
<path d="M46.1022 5.52678H46.5232V3.33814C46.5232 2.71479 46.5368 2.06374 46.5775 1.71743C46.6046 1.35728 46.6997 1.2049 46.8491 0.955566C46.9984 0.692375 47.2157 0.470741 47.4873 0.304515C47.7725 0.138289 48.0712 0.0551758 48.4243 0.0551758C48.9131 0.0551758 49.3477 0.235254 49.7415 0.609262C49.9995 0.8586 50.1624 1.16335 50.2303 1.50965C50.2982 1.86981 50.3389 2.36848 50.3389 3.01954V5.51292H51.7376C52.2808 5.51292 52.6882 5.63759 52.9733 5.90078C53.2585 6.16397 53.3943 6.49643 53.3943 6.89814C53.3943 7.42452 53.1906 7.78468 52.7832 7.99246C52.3758 8.20024 51.8055 8.31106 51.0451 8.31106H50.3389V15.4588C50.3389 16.0683 50.3661 16.5392 50.4068 16.8578C50.4476 17.1903 50.5562 17.4535 50.7463 17.6613C50.9229 17.869 51.2216 17.966 51.629 17.966C51.8462 17.966 52.1586 17.9244 52.5388 17.8413C52.919 17.7582 53.2177 17.7167 53.435 17.7167C53.7473 17.7167 54.0189 17.8413 54.2633 18.0907C54.5078 18.34 54.63 18.6586 54.63 19.0188C54.63 19.6421 54.2905 20.1269 53.6251 20.4594C52.9597 20.7918 51.9956 20.9581 50.7327 20.9581C49.5378 20.9581 48.6415 20.7503 48.0305 20.3486C47.4194 19.933 47.012 19.3789 46.8219 18.6586C46.6318 17.9383 46.5368 16.9687 46.5368 15.7635V8.29721H46.0343C45.4912 8.29721 45.0702 8.15868 44.7714 7.89549C44.4863 7.6323 44.3369 7.29985 44.3369 6.88429C44.3369 6.46872 44.4863 6.13627 44.785 5.88693C45.0974 5.6653 45.5319 5.52678 46.1022 5.52678Z" fill="#007A33"/>
<path d="M57.9429 3.83669C57.4133 3.83669 56.9652 3.67046 56.585 3.33801C56.2048 3.00556 56.0146 2.53458 56.0146 1.92509C56.0146 1.371 56.2048 0.927733 56.5986 0.567577C56.9788 0.207421 57.4269 0.0273438 57.9429 0.0273438C58.4318 0.0273438 58.8799 0.19357 59.2601 0.512169C59.6403 0.830769 59.8304 1.30174 59.8304 1.92509C59.8304 2.52073 59.6403 2.9917 59.2737 3.32416C58.8935 3.67046 58.4589 3.83669 57.9429 3.83669ZM59.8304 7.39669V18.6308C59.8304 19.4065 59.6539 20.0021 59.2872 20.39C58.9206 20.7917 58.4589 20.9857 57.9022 20.9857C57.3454 20.9857 56.8837 20.7779 56.5442 20.3762C56.1912 19.9606 56.0146 19.3788 56.0146 18.6308V7.50751C56.0146 6.73179 56.1912 6.16385 56.5442 5.77599C56.8973 5.38813 57.3454 5.1942 57.9022 5.1942C58.4589 5.1942 58.9206 5.38813 59.2872 5.77599C59.6403 6.16385 59.8304 6.70408 59.8304 7.39669Z" fill="#007A33"/>
<path d="M71.9292 19.2128L68.5615 13.5749L66.4975 15.5696V18.6587C66.4975 19.4067 66.3074 19.9885 65.9136 20.3902C65.5334 20.7919 65.0853 20.9997 64.5828 20.9997C63.9989 20.9997 63.5372 20.8058 63.1977 20.404C62.8583 20.0023 62.6953 19.4205 62.6953 18.6448V2.65943C62.6953 1.8006 62.8583 1.1357 63.1842 0.692429C63.5101 0.235308 63.9718 0.0136719 64.5828 0.0136719C65.1667 0.0136719 65.6284 0.221455 65.9815 0.623168C66.321 1.03873 66.4975 1.63437 66.4975 2.4378V11.2616L70.7885 6.67656C71.3181 6.10862 71.7255 5.72076 71.9971 5.51298C72.2687 5.30519 72.6217 5.19438 73.0155 5.19438C73.4908 5.19438 73.8846 5.34675 74.1969 5.6515C74.5093 5.95624 74.6722 6.34411 74.6722 6.81508C74.6722 7.38302 74.1562 8.14489 73.1242 9.08683L71.1009 10.9846L75.0117 17.2458C75.2969 17.7167 75.5141 18.063 75.6363 18.3124C75.7586 18.5478 75.8264 18.7833 75.8264 19.005C75.8264 19.6283 75.6635 20.1131 75.324 20.4594C74.9981 20.8196 74.5636 20.9997 74.0204 20.9997C73.5587 20.9997 73.1921 20.875 72.9476 20.6118C72.6896 20.3486 72.3502 19.8915 71.9292 19.2128Z" fill="#007A33"/>
<path d="M91.9991 13.0902C91.9991 14.2538 91.8226 15.3204 91.4695 16.2901C91.1164 17.2736 90.6004 18.1047 89.935 18.8112C89.2697 19.5176 88.4685 20.0579 87.5315 20.4319C86.5945 20.8059 85.5489 20.9998 84.3947 20.9998C83.2405 20.9998 82.2084 20.8059 81.285 20.4319C80.3617 20.0579 79.5605 19.5038 78.8951 18.7973C78.2161 18.0909 77.7137 17.2597 77.3606 16.2901C77.0076 15.3204 76.8311 14.2677 76.8311 13.0902C76.8311 11.9128 77.0076 10.8323 77.3606 9.86269C77.7137 8.87919 78.2161 8.04806 78.8815 7.35545C79.5469 6.66284 80.3481 6.12261 81.285 5.7486C82.222 5.3746 83.2676 5.18066 84.3947 5.18066C85.5489 5.18066 86.5945 5.3746 87.5315 5.7486C88.4685 6.12261 89.2832 6.66284 89.9486 7.3693C90.614 8.07576 91.13 8.90689 91.4831 9.87654C91.8226 10.86 91.9991 11.9267 91.9991 13.0902ZM88.1697 13.0902C88.1697 11.5111 87.8303 10.2783 87.1513 9.39172C86.4723 8.50518 85.5489 8.06191 84.3947 8.06191C83.6478 8.06191 82.996 8.25584 82.4257 8.65756C81.8554 9.04542 81.4208 9.6272 81.1085 10.4029C80.7962 11.1786 80.6468 12.0652 80.6468 13.0902C80.6468 14.1015 80.7962 14.988 81.0949 15.7499C81.3937 16.5117 81.8282 17.0935 82.3985 17.4952C82.9553 17.8969 83.6207 18.1047 84.3811 18.1047C85.5354 18.1047 86.4587 17.6615 87.1377 16.7749C87.8303 15.8884 88.1697 14.6555 88.1697 13.0902Z" fill="#007A33"/>
<path fill-rule="evenodd" clip-rule="evenodd" d="M0.000543617 4.94522C0.0412814 2.18864 2.3226 0 5.02487 0H8.02588C9.03075 0 9.83193 0.831128 9.83193 1.84233V4.90366C9.83193 7.66024 7.69998 9.9874 4.98413 10.029C2.21396 10.0844 -0.0401942 7.78491 0.000543617 4.94522Z" fill="#007A33"/>
<path d="M4.91618 20.9723C7.63104 20.9723 9.83187 18.7273 9.83187 15.9578C9.83187 13.1884 7.63104 10.9434 4.91618 10.9434C2.20132 10.9434 0.000488281 13.1884 0.000488281 15.9578C0.000488281 18.7273 2.20132 20.9723 4.91618 20.9723Z" fill="#007A33"/>
<path fill-rule="evenodd" clip-rule="evenodd" d="M20.845 10.0708C20.845 5.181 17.5859 1.09461 13.2134 0.0556989C12.0863 -0.221344 11 0.692898 11 1.89804V10.9296C11 15.8194 14.259 19.9058 18.6315 20.9447C19.7586 21.2218 20.845 20.3075 20.845 19.1024V10.0708Z" fill="#007A33"/>
</svg>
