<?xml version="1.0"?>
<svg width="586" height="140" xmlns="http://www.w3.org/2000/svg" xmlns:svg="http://www.w3.org/2000/svg" data-name="Слой 1">
 <defs>
  <style>.cls-1{fill:#6b5f79;}</style>
 </defs>
 <title>dashamail_logo_2</title>
 <g class="layer">
  <title>Layer 1</title>
  <path class="cls-1" d="m183.59,11.1q-8.07,-3.85 -19.13,-3.85a63.68,63.68 0 0 0 -16.23,2.22a47.31,47.31 0 0 0 -14.7,6.53a7.22,7.22 0 0 0 -2.44,2.59a7.68,7.68 0 0 0 -0.73,3.58a5.5,5.5 0 0 0 0.91,3.22a2.83,2.83 0 0 0 2.44,1.31a4.37,4.37 0 0 0 2.55,-0.82a52.74,52.74 0 0 1 12.83,-6a47.09,47.09 0 0 1 14.37,-2.27q11.25,0 17.42,5.9t6.16,16.69q0,16 -7.84,25.66t-23.72,9.61c-2.3,0 -4.35,-0.09 -6.17,-0.27q1,-11.05 3.36,-23.26a167.68,167.68 0 0 1 4.72,-19.45a9.42,9.42 0 0 0 0.54,-2.91c0,-2 -1.85,-3.08 -5.53,-3.08a11.74,11.74 0 0 0 -5,0.91a4.69,4.69 0 0 0 -2.54,3.17q-3.36,12.26 -5.71,25.44a219.59,219.59 0 0 0 -3,22.17c-0.12,2.18 0.28,3.75 1.18,4.72s2.57,1.6 5,1.9a87.51,87.51 0 0 0 11.88,0.91q14.41,0 24.85,-5.62a38,38 0 0 0 15.87,-15.83q5.44,-10.2 5.44,-23.89q0,-10.53 -4.35,-18a28,28 0 0 0 -12.43,-11.28" id="svg_1"/>
  <path class="cls-1" d="m362.06,46a18.68,18.68 0 0 0 -3.81,0.36a6.48,6.48 0 0 0 -1.13,-2.76a3.5,3.5 0 0 0 -2.67,-0.77a20.14,20.14 0 0 0 -11.84,3.94a28.58,28.58 0 0 0 -8.93,10.43a29.34,29.34 0 0 0 -3.32,13.13c-1.21,1.32 -2.28,2.4 -3.17,3.19q-2.49,2.22 -4.3,2.22c-1.76,0 -2.63,-1.2 -2.63,-3.62a62.56,62.56 0 0 1 1.72,-10.43q2,-9.25 2,-12.79q0,-5.9 -5.89,-5.89a13.21,13.21 0 0 0 -6.57,2.08a26.09,26.09 0 0 0 -7.26,6.94a51.9,51.9 0 0 0 -6.66,12.56c0,-3.33 0.08,-6.56 0.27,-9.7q12,-13.15 17.41,-23t5.35,-19a15.55,15.55 0 0 0 -2.58,-9.3a8,8 0 0 0 -6.77,-3.59q-7.8,0 -13.38,10.3t-8.43,25.43a156.63,156.63 0 0 0 -2.86,29.11l0,3.55c-3.26,3.72 -6.15,6.09 -8.66,7.06a24.7,24.7 0 0 0 0.18,-2.54a11.79,11.79 0 0 0 -1.5,-5.85a57.66,57.66 0 0 0 -4.4,-6.48a34.31,34.31 0 0 1 -2.95,-4.08a6.1,6.1 0 0 1 -0.95,-3a13.09,13.09 0 0 1 1.63,-5.54a12.19,12.19 0 0 0 1,-2.35a6.76,6.76 0 0 0 0.36,-1.72a1.53,1.53 0 0 0 -1,-1.46a9.63,9.63 0 0 0 -3.54,-0.45q-5.44,0 -7.16,4c-1.33,3.14 -2.7,6.18 -4.08,9.11s-2.61,5.28 -3.63,7a115.44,115.44 0 0 1 -7.1,9.62c-0.65,0.67 -1.26,1.28 -1.79,1.76q-2.44,2.22 -4.17,2.22a2.22,2.22 0 0 1 -1.77,-0.81a3.32,3.32 0 0 1 -0.68,-2.18q0,-4.08 2.09,-14.51a67.32,67.32 0 0 0 1.36,-9.07q0,-3.17 -4.45,-3.17a21.53,21.53 0 0 0 -4,0.36a6.48,6.48 0 0 0 -1.13,-2.76a3.49,3.49 0 0 0 -2.67,-0.77a20.14,20.14 0 0 0 -11.84,3.94a28.58,28.58 0 0 0 -8.93,10.43a29.44,29.44 0 0 0 -3.36,13.74q0,6.61 3.36,10.7a11,11 0 0 0 9,4.08q7.17,0 11.89,-7.62a12.39,12.39 0 0 0 3.76,5.58a8.46,8.46 0 0 0 5.49,2a13.47,13.47 0 0 0 8.07,-3.17a46,46 0 0 0 7.89,-7.8a5.8,5.8 0 0 0 0.79,-1.2c0.32,-0.39 0.67,-0.76 1,-1.16a59.24,59.24 0 0 0 5.57,-8.89c0.85,1 1.75,2.1 2.72,3.4a22.44,22.44 0 0 1 2.41,4a11.74,11.74 0 0 1 1,4.44c-0.54,-0.06 -1.35,-0.16 -2.4,-0.32a21.81,21.81 0 0 0 -2.77,-0.22a6.88,6.88 0 0 0 -5.08,1.72a5.57,5.57 0 0 0 -1.72,4.08a6.4,6.4 0 0 0 2.49,4.9c1.66,1.45 4.07,2.17 7.21,2.17a12.81,12.81 0 0 0 8.61,-3.08a24.58,24.58 0 0 0 10.21,-2.22a19,19 0 0 0 3.62,-2.45a12.46,12.46 0 0 0 0.73,3.81c0.57,1.3 1.77,1.95 3.59,1.95q6.8,0 8.52,-7.25a65.32,65.32 0 0 1 3.54,-10.52a44.62,44.62 0 0 1 4.35,-8c1.45,-2 2.57,-3 3.35,-3s1,0.49 1,1.45a46.43,46.43 0 0 1 -1.18,7.89a56.36,56.36 0 0 0 -1.27,9.07q0,5.09 2.36,7.75t7,2.68a17.11,17.11 0 0 0 10,-3.08a41.38,41.38 0 0 0 3.71,-3a13.92,13.92 0 0 0 1.27,2a10.19,10.19 0 0 0 8.39,4.08q6.88,0 9.71,-7.8l-0.1,1.45c0,2.24 0.5,3.85 1.5,4.86a6.26,6.26 0 0 0 4.58,1.49q3.17,0 4.58,-1.49c0.94,-1 1.4,-2.65 1.4,-4.95a106.52,106.52 0 0 1 0.55,-11.29c0.36,-3.35 0.87,-6.88 1.54,-10.56a50.21,50.21 0 0 0 0.91,-7.26a4,4 0 0 0 -1.18,-3.08a4.75,4.75 0 0 0 -3.36,-1.09m-60.21,-19.7a79.59,79.59 0 0 1 3.86,-12.6q2,-4.67 3.63,-4.67c0.78,0 1.38,0.51 1.81,1.54a12.25,12.25 0 0 1 0.7,4.49q0,6.35 -3.67,14.14a65.14,65.14 0 0 1 -9.33,14.38a167.55,167.55 0 0 1 3,-17.28m-76.4,41.68a15.17,15.17 0 0 1 -2.63,6.25c-1.21,1.58 -2.48,2.36 -3.81,2.36a3.85,3.85 0 0 1 -3.13,-1.36a6.47,6.47 0 0 1 -1.13,-4.17a24.35,24.35 0 0 1 1.91,-9.61a19,19 0 0 1 5.12,-7.3a11,11 0 0 1 7,-2.86l-3.33,16.69zm128.32,-7.53q-1.63,9.08 -3.72,12.61t-4.62,3.53a3.27,3.27 0 0 1 -2.77,-1.41a6.81,6.81 0 0 1 -1,-4.12a24.52,24.52 0 0 1 1.9,-9.61a19.37,19.37 0 0 1 5.08,-7.3a10.68,10.68 0 0 1 6.9,-2.86l-1.77,9.16z" id="svg_2"/>
  <path class="cls-1" d="m541.43,37a9,9 0 0 0 6.26,-2.13a7.38,7.38 0 0 0 2.36,-5.76a5.54,5.54 0 0 0 -2.09,-4.62a8.55,8.55 0 0 0 -5.44,-1.63a9.22,9.22 0 0 0 -6.21,2.14a6.68,6.68 0 0 0 -2.5,5.3a6.4,6.4 0 0 0 1.91,4.94q1.9,1.77 5.71,1.77" id="svg_3"/>
  <path class="cls-1" d="m580.06,71.54a3,3 0 0 0 -2,0.91a14.8,14.8 0 0 1 -3.58,2.36a8.53,8.53 0 0 1 -3.49,0.91a6,6 0 0 1 -4.45,-1.64a9.84,9.84 0 0 1 -2.27,-5.35a134.49,134.49 0 0 0 16.19,-28.11q5.94,-14.24 5.94,-25q0,-7.53 -2.49,-11.56a7.7,7.7 0 0 0 -6.85,-4q-7.71,0 -13.29,10.16a85.63,85.63 0 0 0 -8.43,24.3a129.33,129.33 0 0 0 -2.86,25.21a52.62,52.62 0 0 0 0.62,7.93a74,74 0 0 1 -5.42,5.86q-2.45,2.27 -4.08,2.27a2.52,2.52 0 0 1 -2.45,-1.46a9.45,9.45 0 0 1 -0.73,-4.17q0,-3.54 2.18,-13.51a70.74,70.74 0 0 0 1.72,-10.52q0,-3.07 -4.62,-3.08a6.91,6.91 0 0 0 -4.35,1.09a7.59,7.59 0 0 0 -2.18,4a98,98 0 0 0 -2.67,11.86a75.68,75.68 0 0 0 -1,9.11a57.65,57.65 0 0 1 -4.21,4.4c-1.63,1.48 -3,2.23 -4.17,2.23a2.2,2.2 0 0 1 -1.77,-0.82a3.32,3.32 0 0 1 -0.68,-2.18q0,-4.08 2.08,-14.51a68.22,68.22 0 0 0 1.37,-9.06q0,-3.18 -4.45,-3.18a21.46,21.46 0 0 0 -4,0.36a6.48,6.48 0 0 0 -1.13,-2.76a3.53,3.53 0 0 0 -2.68,-0.77a20.13,20.13 0 0 0 -11.83,3.94a28.58,28.58 0 0 0 -8.93,10.43a29.46,29.46 0 0 0 -3.31,12.93a25.8,25.8 0 0 1 -3.27,2.81a10.15,10.15 0 0 1 -5.85,2a6.4,6.4 0 0 1 -4.94,-1.91q-1.77,-1.91 -1.77,-5.71a40.22,40.22 0 0 1 0.91,-7.8l5.53,-25.93a49.17,49.17 0 0 0 1.18,-9.71c0,-4.9 -1.13,-8.7 -3.4,-11.43s-5.52,-4.08 -9.75,-4.08a20.33,20.33 0 0 0 -14,5.45q-6.08,5.44 -10.6,18a42.76,42.76 0 0 0 0.81,-7.44q0,-7.61 -3.4,-11.78a11.36,11.36 0 0 0 -9.29,-4.18q-7.71,0 -14.15,5.86t-11.61,20.63q0.18,-0.82 0.54,-2.91c0.24,-1.39 0.52,-3.19 0.82,-5.39a43.6,43.6 0 0 0 0.45,-5.76q0,-6.08 -2.67,-9.25c-1.78,-2.12 -4.34,-3.18 -7.66,-3.18a20.15,20.15 0 0 0 -10.7,3.32a34.1,34.1 0 0 0 -9.67,9.27a16.54,16.54 0 0 0 -1.95,3.4a8.08,8.08 0 0 0 -0.59,2.95a4.38,4.38 0 0 0 0.95,2.76a2.78,2.78 0 0 0 2.23,1.23a3.58,3.58 0 0 0 2.81,-1.72a37.37,37.37 0 0 1 7.3,-7.67q3.3,-2.4 5.67,-2.4q3,0 3,4.08a91.51,91.51 0 0 1 -0.82,10.88q-1.36,10.44 -3.72,24.67c-0.9,5.14 -1.56,9.17 -1.95,12.11a56.9,56.9 0 0 0 -0.59,7.21c0,2.78 0.49,4.66 1.45,5.66s2.57,1.5 4.81,1.5s4,-0.6 4.76,-1.81s1.44,-3.36 1.86,-6.44q3,-21.85 7.48,-34.69t9.21,-17.86q4.71,-5 9.16,-5a4.77,4.77 0 0 1 3.94,1.63a8,8 0 0 1 1.32,5.08q0,6.34 -4.17,28.3q-1.59,8.13 -2.59,14.18a62,62 0 0 0 -1,9.75q0,4 1.41,5.44a6,6 0 0 0 4.48,1.45q3.54,0 5.13,-1.86c1.05,-1.24 1.8,-3.67 2.22,-7.3q2.63,-20.31 6.85,-33t8.91,-18.19q4.68,-5.49 8.93,-5.49a4.16,4.16 0 0 1 3.5,1.59a7.76,7.76 0 0 1 1.22,4.76a25.49,25.49 0 0 1 -0.27,3.67c-0.18,1.25 -0.43,2.56 -0.73,3.95s-0.51,2.36 -0.63,2.9l-3.63,16.6q-2.17,10.16 -2.18,15.5q0,7.71 4.36,12.29t12.06,4.58a19.25,19.25 0 0 0 9.7,-2.63a27.26,27.26 0 0 0 4.62,-3.37a13.64,13.64 0 0 0 1.28,1.92a11,11 0 0 0 9,4.08q7.17,0 11.88,-7.62a12.41,12.41 0 0 0 3.77,5.58a8.46,8.46 0 0 0 5.49,2a13.47,13.47 0 0 0 8.06,-3.17a42.14,42.14 0 0 0 3.71,-3.21a14,14 0 0 0 1.15,2.21q2.67,4.17 8.56,4.17c4.69,0 9.69,-3 15,-8.93c0.26,0.57 0.48,1.19 0.77,1.72q4,7.22 12.61,7.21a16.33,16.33 0 0 0 10.7,-3.9a7.51,7.51 0 0 0 2.72,-6.07a5.9,5.9 0 0 0 -0.68,-2.95a2,2 0 0 0 -1.77,-1.23m-72.27,-3.63a15.49,15.49 0 0 1 -2.63,6.26c-1.21,1.58 -2.48,2.36 -3.81,2.36a3.85,3.85 0 0 1 -3.13,-1.36a6.41,6.41 0 0 1 -1.13,-4.17a24.52,24.52 0 0 1 1.9,-9.61a19.22,19.22 0 0 1 5.12,-7.3a11,11 0 0 1 7,-2.86l-3.32,16.68zm58,-32.73a123.76,123.76 0 0 1 4.62,-18.68q2.57,-7.46 4.66,-7.46q2.53,0 2.54,6.89a58.47,58.47 0 0 1 -3.81,19.45a116.83,116.83 0 0 1 -10.25,21.27a133.91,133.91 0 0 1 2.18,-21.4" id="svg_4"/>
  <path class="cls-1" d="m91.75,9.56c-14.59,-11.53 -38.11,-6.87 -47.39,8.82a39,39 0 0 0 -7.18,-2.18c-13.31,-2.86 -26.82,4.98 -32.95,16.8c-7.73,15.77 -4,33.2 4.31,47.37c12.51,20.63 37.33,30.63 60.76,29.27a56.83,56.83 0 0 0 22.35,-6.07a3.94,3.94 0 0 0 -3.17,-7.19c-24.11,8.49 -56.3,0.4 -69.41,-22.41c-6,-10 -9.08,-24.67 -3.87,-35.11c6.1,-11.79 18.09,-14.66 29.8,-9.32c3.22,1.11 4.82,-0.19 6.1,-2.81a26.91,26.91 0 0 1 3.63,-5.57a21.51,21.51 0 0 1 18,-7.21a22.36,22.36 0 0 1 16.6,9.84c5.19,7.58 5.24,19.13 4.77,22.79c-0.27,2.13 -1.27,11.9 -7.46,20.34c-1.39,1.89 -5.26,7.5 -11.61,5.77l-0.16,0a3.35,3.35 0 0 1 -1.19,-0.72a4.06,4.06 0 0 1 -1.18,-3q0,-4.83 2.47,-17.16a80.09,80.09 0 0 0 1.6,-10.72c0,-2.5 -1.75,-3.74 -5.25,-3.74a25.63,25.63 0 0 0 -4.71,0.42a7.7,7.7 0 0 0 -1.35,-3.27c-0.53,-0.6 -1.59,-0.91 -3.16,-0.91a23.89,23.89 0 0 0 -14,4.66a34,34 0 0 0 -10.56,12.33a34.91,34.91 0 0 0 -4,16.24q0,7.93 4,12.7c2.68,3.19 6.41,4.77 11.2,4.77a13.5,13.5 0 0 0 7.88,-2.41a16.83,16.83 0 0 0 5.52,-6.59q3.21,9 14.15,9a23.35,23.35 0 0 0 14.2,-5.09c4.54,-3.39 9,-9.25 11.75,-15.55c8.13,-17.86 5.16,-41.59 -10.52,-54.05m-32.15,53.69a18.15,18.15 0 0 1 -3.11,7.39q-2.15,2.79 -4.51,2.79a4.54,4.54 0 0 1 -3.69,-1.61a7.56,7.56 0 0 1 -1.34,-4.93a29,29 0 0 1 2.25,-11.36a22.76,22.76 0 0 1 6,-8.63a13,13 0 0 1 8.31,-3.38l-3.91,19.73z" id="svg_5"/>
  <path class="cls-1" d="m130.81,132.64a9.79,9.79 0 0 1 -4.65,-1a7.34,7.34 0 0 1 -3,-3a10.31,10.31 0 0 1 -1.14,-4.69c0,-0.38 0,-0.89 0,-1.52s0,-1.14 0,-1.52a10.28,10.28 0 0 1 1.14,-4.69a7.34,7.34 0 0 1 3,-3a9.68,9.68 0 0 1 4.65,-1a10.63,10.63 0 0 1 3.78,0.6a8.14,8.14 0 0 1 2.6,1.56a6.66,6.66 0 0 1 1.54,2a5.61,5.61 0 0 1 0.55,2.09a0.69,0.69 0 0 1 -0.23,0.61a1,1 0 0 1 -0.64,0.22l-1.83,0a0.81,0.81 0 0 1 -0.57,-0.17a1.93,1.93 0 0 1 -0.38,-0.59a5,5 0 0 0 -1.86,-2.62a5.32,5.32 0 0 0 -2.92,-0.75a5,5 0 0 0 -3.7,1.4a6.51,6.51 0 0 0 -1.54,4.52c0,0.91 0,1.8 0,2.66q0.12,3.15 1.54,4.53a5.06,5.06 0 0 0 3.7,1.39a5.24,5.24 0 0 0 2.92,-0.76a5,5 0 0 0 1.86,-2.62a2.4,2.4 0 0 1 0.38,-0.61a0.81,0.81 0 0 1 0.57,-0.19l1.83,0a0.93,0.93 0 0 1 0.64,0.25a0.72,0.72 0 0 1 0.23,0.63a5.79,5.79 0 0 1 -0.34,1.63a6.25,6.25 0 0 1 -1,1.69a7.11,7.11 0 0 1 -1.65,1.52a8.4,8.4 0 0 1 -2.36,1.06a11.11,11.11 0 0 1 -3.12,0.37z" id="svg_6"/>
  <path class="cls-1" d="m151.69,132.64a8.26,8.26 0 0 1 -6.26,-2.41a9.94,9.94 0 0 1 -2.54,-6.59c0,-0.33 0,-0.75 0,-1.27s0,-0.94 0,-1.27a11,11 0 0 1 1.25,-4.73a7.79,7.79 0 0 1 3,-3.13a8.83,8.83 0 0 1 4.5,-1.1a9,9 0 0 1 4.84,1.21a7.72,7.72 0 0 1 3,3.46a12.53,12.53 0 0 1 1,5.24l0,0.64a0.87,0.87 0 0 1 -0.24,0.65a0.91,0.91 0 0 1 -0.63,0.22l-13.12,0l0,0.35a7.81,7.81 0 0 0 0.69,2.9a5.25,5.25 0 0 0 1.76,2.18a4.51,4.51 0 0 0 2.72,0.84a5.46,5.46 0 0 0 2.28,-0.42a6.07,6.07 0 0 0 1.48,-0.93a4.61,4.61 0 0 0 0.76,-0.81a1.91,1.91 0 0 1 0.53,-0.56a1.48,1.48 0 0 1 0.6,-0.09l1.87,0a0.86,0.86 0 0 1 0.58,0.21a0.61,0.61 0 0 1 0.21,0.59a2.83,2.83 0 0 1 -0.6,1.38a7.5,7.5 0 0 1 -1.62,1.62a8.92,8.92 0 0 1 -2.58,1.31a11,11 0 0 1 -3.48,0.51zm-5.2,-11.64l10.38,0l0,-0.12a7,7 0 0 0 -0.63,-3a5.06,5.06 0 0 0 -1.8,-2.1a5,5 0 0 0 -2.81,-0.78a4.87,4.87 0 0 0 -2.79,0.78a4.92,4.92 0 0 0 -1.77,2.1a7.33,7.33 0 0 0 -0.61,3l0.03,0.12z" id="svg_7"/>
  <path class="cls-1" d="m165.97,139.47a0.84,0.84 0 0 1 -0.87,-0.87l0,-25.21a0.84,0.84 0 0 1 0.87,-0.87l1.75,0a0.82,0.82 0 0 1 0.87,0.87l0,1.67a7.32,7.32 0 0 1 2.43,-2.09a7.77,7.77 0 0 1 3.8,-0.83a8.36,8.36 0 0 1 3.63,0.72a6.82,6.82 0 0 1 2.46,2a9,9 0 0 1 1.47,2.85a14.22,14.22 0 0 1 0.57,3.42q0,0.6 0,1.29t0,1.29a14.48,14.48 0 0 1 -0.57,3.4a8.76,8.76 0 0 1 -1.47,2.85a7,7 0 0 1 -2.46,2a8.22,8.22 0 0 1 -3.63,0.74a7.58,7.58 0 0 1 -3.7,-0.82a7.68,7.68 0 0 1 -2.45,-2l0,8.81a0.92,0.92 0 0 1 -0.23,0.63a0.79,0.79 0 0 1 -0.61,0.24l-1.86,-0.09zm8.05,-9.91a5,5 0 0 0 3.1,-0.85a4.82,4.82 0 0 0 1.61,-2.24a10.24,10.24 0 0 0 0.57,-3c0,-0.73 0,-1.47 0,-2.2a10.17,10.17 0 0 0 -0.57,-3a4.77,4.77 0 0 0 -1.61,-2.24a5,5 0 0 0 -3.1,-0.86a4.9,4.9 0 0 0 -3,0.87a5.3,5.3 0 0 0 -1.71,2.23a8.57,8.57 0 0 0 -0.62,2.75c0,0.4 0,0.88 0,1.44s0,1.05 0,1.48a6.65,6.65 0 0 0 0.62,2.62a5.37,5.37 0 0 0 1.77,2.13a5,5 0 0 0 2.94,0.87z" id="svg_8"/>
  <path class="cls-1" d="m188.56,132.26a0.85,0.85 0 0 1 -0.87,-0.87l0,-18a0.84,0.84 0 0 1 0.87,-0.87l7.9,0a8.47,8.47 0 0 1 5.41,1.48a4.68,4.68 0 0 1 1.81,3.87a4.3,4.3 0 0 1 -0.65,2.58a5,5 0 0 1 -1.82,1.48a4.35,4.35 0 0 1 2.18,2a5.66,5.66 0 0 1 0.74,2.79a4.93,4.93 0 0 1 -1.91,4.18a8.88,8.88 0 0 1 -5.41,1.44l-8.25,-0.08zm2.62,-11.35l5.05,0a4.81,4.81 0 0 0 2.91,-0.8a2.62,2.62 0 0 0 1.08,-2.24a2.06,2.06 0 0 0 -1.08,-2a6.42,6.42 0 0 0 -2.91,-0.55l-5.05,0l0,5.59zm0,8.58l5.28,0a5.57,5.57 0 0 0 3,-0.7a2.38,2.38 0 0 0 1.11,-2.15a2.51,2.51 0 0 0 -1,-2.22a5.38,5.38 0 0 0 -3,-0.7l-5.28,0l-0.11,5.77z" id="svg_9"/>
  <path class="cls-1" d="m209.87,132.26a0.78,0.78 0 0 1 -0.59,-0.25a0.73,0.73 0 0 1 -0.25,-0.55l0,-18.07a0.84,0.84 0 0 1 0.88,-0.87l1.82,0a0.82,0.82 0 0 1 0.87,0.87l0,16.1l-1,-1l11.5,-15.37a2.25,2.25 0 0 1 0.42,-0.4a0.88,0.88 0 0 1 0.57,-0.17l1.74,0a0.81,0.81 0 0 1 0.56,0.22a0.73,0.73 0 0 1 0.24,0.54l0,18.11a0.84,0.84 0 0 1 -0.87,0.87l-1.89,0a0.81,0.81 0 0 1 -0.64,-0.25a0.88,0.88 0 0 1 -0.23,-0.62l0,-15.18l1.06,0l-11.58,15.49a2.27,2.27 0 0 1 -0.38,0.38a0.88,0.88 0 0 1 -0.6,0.19l-1.63,-0.04z" id="svg_10"/>
  <path class="cls-1" d="m240.09,132.64a9.79,9.79 0 0 1 -4.65,-1a7.28,7.28 0 0 1 -3,-3a10.31,10.31 0 0 1 -1.14,-4.69c0,-0.38 0,-0.89 0,-1.52s0,-1.14 0,-1.52a10.28,10.28 0 0 1 1.14,-4.69a7.28,7.28 0 0 1 3,-3a9.68,9.68 0 0 1 4.65,-1a10.63,10.63 0 0 1 3.78,0.6a8.25,8.25 0 0 1 2.6,1.56a6.82,6.82 0 0 1 1.54,2a5.61,5.61 0 0 1 0.55,2.09a0.69,0.69 0 0 1 -0.23,0.61a1,1 0 0 1 -0.65,0.22l-1.81,0a0.81,0.81 0 0 1 -0.57,-0.17a1.76,1.76 0 0 1 -0.38,-0.59a5.06,5.06 0 0 0 -1.86,-2.62a5.32,5.32 0 0 0 -2.92,-0.75a5,5 0 0 0 -3.71,1.4a6.51,6.51 0 0 0 -1.53,4.52c0,0.91 0,1.8 0,2.66a6.46,6.46 0 0 0 1.53,4.53a5.08,5.08 0 0 0 3.71,1.39a5.24,5.24 0 0 0 2.92,-0.76a5.06,5.06 0 0 0 1.86,-2.62a2.15,2.15 0 0 1 0.38,-0.61a0.81,0.81 0 0 1 0.57,-0.19l1.82,0a0.94,0.94 0 0 1 0.65,0.25a0.72,0.72 0 0 1 0.23,0.63a5.79,5.79 0 0 1 -0.34,1.63a6.53,6.53 0 0 1 -1,1.69a7.37,7.37 0 0 1 -1.66,1.52a8.21,8.21 0 0 1 -2.35,1.06a11.11,11.11 0 0 1 -3.13,0.37z" id="svg_11"/>
  <path class="cls-1" d="m270.27,132.64a8.26,8.26 0 0 1 -6.26,-2.41a9.94,9.94 0 0 1 -2.54,-6.59c0,-0.33 0,-0.75 0,-1.27s0,-0.94 0,-1.27a11,11 0 0 1 1.25,-4.73a7.79,7.79 0 0 1 3,-3.13a8.78,8.78 0 0 1 4.5,-1.1a9,9 0 0 1 4.84,1.21a7.72,7.72 0 0 1 3,3.46a12.53,12.53 0 0 1 1,5.24l0,0.64a0.87,0.87 0 0 1 -0.24,0.65a0.91,0.91 0 0 1 -0.63,0.22l-13.12,0l0,0.35a7.81,7.81 0 0 0 0.69,2.9a5.25,5.25 0 0 0 1.76,2.18a4.51,4.51 0 0 0 2.72,0.84a5.38,5.38 0 0 0 2.27,-0.42a6,6 0 0 0 1.49,-0.93a4.46,4.46 0 0 0 0.75,-0.81a2,2 0 0 1 0.54,-0.56a1.44,1.44 0 0 1 0.6,-0.09l1.86,0a0.87,0.87 0 0 1 0.59,0.21a0.61,0.61 0 0 1 0.21,0.59a2.86,2.86 0 0 1 -0.61,1.38a7.44,7.44 0 0 1 -1.61,1.62a8.92,8.92 0 0 1 -2.58,1.31a11,11 0 0 1 -3.48,0.51zm-5.2,-11.64l10.41,0l0,-0.12a7,7 0 0 0 -0.63,-3a5.06,5.06 0 0 0 -1.8,-2.1a5,5 0 0 0 -2.81,-0.78a4.87,4.87 0 0 0 -2.79,0.78a4.92,4.92 0 0 0 -1.77,2.1a7.18,7.18 0 0 0 -0.61,3l0,0.12z" id="svg_12"/>
  <path class="cls-1" d="m284.51,132.26a0.85,0.85 0 0 1 -0.87,-0.87l0,-18a0.84,0.84 0 0 1 0.87,-0.87l1.71,0a0.87,0.87 0 0 1 0.63,0.24a0.89,0.89 0 0 1 0.25,0.63l0,1.33a6.36,6.36 0 0 1 2.2,-1.88a6.71,6.71 0 0 1 3.19,-0.7a6.18,6.18 0 0 1 6.07,3.49a6.42,6.42 0 0 1 2.55,-2.54a7.46,7.46 0 0 1 3.79,-1a7.12,7.12 0 0 1 3.59,0.91a6.26,6.26 0 0 1 2.55,2.75a10.21,10.21 0 0 1 0.92,4.61l0,11a0.84,0.84 0 0 1 -0.87,0.87l-1.78,0a0.82,0.82 0 0 1 -0.63,-0.25a0.84,0.84 0 0 1 -0.24,-0.62l0,-10.6a7.68,7.68 0 0 0 -0.61,-3.35a3.59,3.59 0 0 0 -1.64,-1.71a5.21,5.21 0 0 0 -2.24,-0.49a4.75,4.75 0 0 0 -2,0.49a3.93,3.93 0 0 0 -1.69,1.71a7.09,7.09 0 0 0 -0.66,3.35l0,10.63a0.85,0.85 0 0 1 -0.88,0.87l-1.78,0a0.84,0.84 0 0 1 -0.87,-0.87l0,-10.63a7.22,7.22 0 0 0 -0.65,-3.35a3.79,3.79 0 0 0 -1.67,-1.71a5.05,5.05 0 0 0 -2.16,-0.49a4.79,4.79 0 0 0 -2,0.49a3.93,3.93 0 0 0 -1.69,1.71a7,7 0 0 0 -0.66,3.31l0,10.67a0.85,0.85 0 0 1 -0.87,0.87l-1.86,0z" id="svg_13"/>
  <path class="cls-1" d="m322.87,132.64a7.77,7.77 0 0 1 -3.46,-0.76a6.74,6.74 0 0 1 -2.5,-2a4.84,4.84 0 0 1 -0.95,-2.92a4.92,4.92 0 0 1 2.13,-4.18a12.18,12.18 0 0 1 5.54,-2l5.66,-0.8l0,-1.1a3.8,3.8 0 0 0 -1.05,-2.85a4.71,4.71 0 0 0 -3.39,-1a5,5 0 0 0 -2.74,0.68a3.66,3.66 0 0 0 -1.48,1.75a0.81,0.81 0 0 1 -0.8,0.57l-1.7,0a0.8,0.8 0 0 1 -0.63,-0.25a0.87,0.87 0 0 1 -0.21,-0.59a3,3 0 0 1 0.44,-1.4a5.94,5.94 0 0 1 1.34,-1.64a7.69,7.69 0 0 1 2.34,-1.34a9.61,9.61 0 0 1 3.47,-0.55a11,11 0 0 1 3.84,0.58a6.26,6.26 0 0 1 2.45,1.58a6.14,6.14 0 0 1 1.29,2.24a8.53,8.53 0 0 1 0.4,2.54l0,12.31a0.85,0.85 0 0 1 -0.88,0.87l-1.71,0a0.82,0.82 0 0 1 -0.65,-0.25a0.88,0.88 0 0 1 -0.23,-0.62l0,-1.64a6.48,6.48 0 0 1 -1.33,1.35a6.81,6.81 0 0 1 -2.08,1.1a9.47,9.47 0 0 1 -3.11,0.32zm0.8,-2.85a6.16,6.16 0 0 0 2.85,-0.66a4.78,4.78 0 0 0 2,-2.07a7.57,7.57 0 0 0 0.74,-3.53l0,-1.07l-4.41,0.65a10.21,10.21 0 0 0 -4.06,1.27a2.65,2.65 0 0 0 -1.37,2.26a2.56,2.56 0 0 0 0.63,1.77a3.87,3.87 0 0 0 1.6,1a5.86,5.86 0 0 0 2.05,0.38l-0.03,0z" id="svg_14"/>
  <path class="cls-1" d="m338.92,108.83a0.84,0.84 0 0 1 -0.87,-0.87l0,-2.05a0.91,0.91 0 0 1 0.25,-0.65a0.82,0.82 0 0 1 0.62,-0.26l2.39,0a0.91,0.91 0 0 1 0.65,0.26a0.89,0.89 0 0 1 0.27,0.65l0,2.09a0.83,0.83 0 0 1 -0.27,0.63a0.93,0.93 0 0 1 -0.65,0.24l-2.39,-0.04zm0.31,23.43a0.82,0.82 0 0 1 -0.63,-0.25a0.85,0.85 0 0 1 -0.25,-0.62l0,-18a0.89,0.89 0 0 1 0.25,-0.63a0.85,0.85 0 0 1 0.63,-0.24l1.82,0a0.82,0.82 0 0 1 0.87,0.87l0,18a0.84,0.84 0 0 1 -0.87,0.87l-1.82,0z" id="svg_15"/>
  <path class="cls-1" d="m348.46,132.26a0.85,0.85 0 0 1 -0.88,-0.87l0,-25.22a0.85,0.85 0 0 1 0.88,-0.87l1.78,0a0.8,0.8 0 0 1 0.64,0.25a0.84,0.84 0 0 1 0.23,0.62l0,25.22a0.84,0.84 0 0 1 -0.23,0.62a0.8,0.8 0 0 1 -0.64,0.25l-1.78,0z" id="svg_16"/>
  <path class="cls-1" d="m357.45,122.46a0.84,0.84 0 0 1 -0.87,-0.87l0,-1.44a0.84,0.84 0 0 1 0.25,-0.63a0.85,0.85 0 0 1 0.62,-0.25l11.42,0a0.86,0.86 0 0 1 0.65,0.25a0.9,0.9 0 0 1 0.23,0.63l0,1.44a0.92,0.92 0 0 1 -0.23,0.63a0.85,0.85 0 0 1 -0.65,0.24l-11.42,0z" id="svg_17"/>
  <path class="cls-1" d="m375.98,132.26a0.79,0.79 0 0 1 -0.83,-0.84l0,-18.18a0.66,0.66 0 0 1 0.24,-0.52a0.85,0.85 0 0 1 0.52,-0.2l1.96,0a1,1 0 0 1 0.95,0.6l6.46,12.08l6.49,-12.08a1.06,1.06 0 0 1 0.95,-0.6l1.9,0a0.79,0.79 0 0 1 0.53,0.2a0.68,0.68 0 0 1 0.23,0.52l0,18.18a0.82,0.82 0 0 1 -0.23,0.61a0.78,0.78 0 0 1 -0.57,0.23l-1.86,0a0.85,0.85 0 0 1 -0.61,-0.23a0.82,0.82 0 0 1 -0.22,-0.61l0,-15.15l1.33,0.16l-6.2,11.69a2.87,2.87 0 0 1 -0.45,0.68a1,1 0 0 1 -0.8,0.31l-1,0a0.93,0.93 0 0 1 -0.76,-0.31a4.42,4.42 0 0 1 -0.5,-0.68l-6,-11.12l1.18,-0.12l0,14.54a0.79,0.79 0 0 1 -0.84,0.84l-1.87,0z" id="svg_18"/>
  <path class="cls-1" d="m406.55,132.64a7.74,7.74 0 0 1 -3.46,-0.76a6.66,6.66 0 0 1 -2.5,-2a4.77,4.77 0 0 1 -1,-2.92a4.91,4.91 0 0 1 2.12,-4.18a12.23,12.23 0 0 1 5.55,-2l5.65,-0.8l0,-1.1a3.8,3.8 0 0 0 -1,-2.85a4.75,4.75 0 0 0 -3.4,-1a5,5 0 0 0 -2.73,0.68a3.66,3.66 0 0 0 -1.48,1.75a0.82,0.82 0 0 1 -0.8,0.57l-1.71,0a0.8,0.8 0 0 1 -0.63,-0.25a0.86,0.86 0 0 1 -0.2,-0.59a3.14,3.14 0 0 1 0.43,-1.4a5.81,5.81 0 0 1 1.35,-1.64a7.69,7.69 0 0 1 2.34,-1.34a9.57,9.57 0 0 1 3.47,-0.55a10.91,10.91 0 0 1 3.83,0.58a6.19,6.19 0 0 1 2.49,1.46a5.87,5.87 0 0 1 1.29,2.24a8.22,8.22 0 0 1 0.4,2.54l0,12.31a0.84,0.84 0 0 1 -0.87,0.87l-1.82,0a0.81,0.81 0 0 1 -0.64,-0.25a0.88,0.88 0 0 1 -0.23,-0.62l0,-1.64a6.74,6.74 0 0 1 -1.33,1.35a6.87,6.87 0 0 1 -2.09,1.1a9.41,9.41 0 0 1 -3.03,0.44zm0.79,-2.85a6.16,6.16 0 0 0 2.85,-0.66a4.73,4.73 0 0 0 2,-2.07a7.44,7.44 0 0 0 0.74,-3.53l0,-1.07l-4.4,0.65a10.16,10.16 0 0 0 -4.06,1.27a2.63,2.63 0 0 0 -1.37,2.26a2.56,2.56 0 0 0 0.63,1.77a3.84,3.84 0 0 0 1.59,1a5.91,5.91 0 0 0 2.02,0.38z" id="svg_19"/>
  <path class="cls-1" d="m422.87,139.47a0.84,0.84 0 0 1 -0.87,-0.87l0,-25.21a0.84,0.84 0 0 1 0.87,-0.87l1.75,0a0.82,0.82 0 0 1 0.87,0.87l0,1.67a7.32,7.32 0 0 1 2.43,-2.09a7.77,7.77 0 0 1 3.8,-0.83a8.33,8.33 0 0 1 3.63,0.72a6.74,6.74 0 0 1 2.46,2a9,9 0 0 1 1.47,2.85a13.3,13.3 0 0 1 0.57,3.42c0,0.4 0,0.83 0,1.29s0,0.88 0,1.29a13.51,13.51 0 0 1 -0.57,3.4a8.76,8.76 0 0 1 -1.47,2.85a7,7 0 0 1 -2.46,2a8.19,8.19 0 0 1 -3.63,0.74a7.58,7.58 0 0 1 -3.7,-0.82a7.68,7.68 0 0 1 -2.45,-2l0,8.81a0.92,0.92 0 0 1 -0.23,0.63a0.79,0.79 0 0 1 -0.61,0.24l-1.86,-0.09zm8,-9.91a5,5 0 0 0 3.1,-0.85a4.82,4.82 0 0 0 1.61,-2.24a10.24,10.24 0 0 0 0.57,-3c0,-0.73 0,-1.47 0,-2.2a10.17,10.17 0 0 0 -0.57,-3a4.77,4.77 0 0 0 -1.61,-2.24a5,5 0 0 0 -3.1,-0.86a4.92,4.92 0 0 0 -3,0.87a5.2,5.2 0 0 0 -1.7,2.23a8.33,8.33 0 0 0 -0.63,2.75c0,0.4 0,0.88 0,1.44s0,1.05 0,1.48a6.67,6.67 0 0 0 0.63,2.62a5.27,5.27 0 0 0 1.76,2.13a5,5 0 0 0 3.03,0.87l-0.09,0z" id="svg_20"/>
  <path class="cls-1" d="m445.51,132.26a0.85,0.85 0 0 1 -0.88,-0.87l0,-18a0.84,0.84 0 0 1 0.88,-0.87l1.78,0a0.82,0.82 0 0 1 0.87,0.87l0,7.29l3.46,0l5.12,-7.59a1.67,1.67 0 0 1 0.42,-0.42a1.08,1.08 0 0 1 0.61,-0.15l2,0a1,1 0 0 1 0.57,0.15a0.49,0.49 0 0 1 0.23,0.45a0.57,0.57 0 0 1 -0.06,0.21a1.19,1.19 0 0 1 -0.13,0.25l-5.7,8.39l6.46,9.19a0.74,0.74 0 0 1 0.19,0.49a0.52,0.52 0 0 1 -0.21,0.46a0.92,0.92 0 0 1 -0.55,0.15l-2.32,0a1,1 0 0 1 -0.56,-0.15a1.4,1.4 0 0 1 -0.42,-0.42l-5.58,-7.94l-3.5,0l0,7.64a0.84,0.84 0 0 1 -0.87,0.87l-1.81,0z" id="svg_21"/>
  <path class="cls-1" d="m472.87,132.64a8.26,8.26 0 0 1 -6.26,-2.41a10,10 0 0 1 -2.55,-6.59c0,-0.33 0,-0.75 0,-1.27s0,-0.94 0,-1.27a11,11 0 0 1 1.26,-4.73a7.79,7.79 0 0 1 3,-3.13a8.78,8.78 0 0 1 4.5,-1.1a9,9 0 0 1 4.84,1.21a7.79,7.79 0 0 1 3,3.46a12.53,12.53 0 0 1 1,5.24l0,0.64a0.84,0.84 0 0 1 -0.25,0.65a0.87,0.87 0 0 1 -0.62,0.22l-13.11,0l0,0.35a8,8 0 0 0 0.68,2.9a5.35,5.35 0 0 0 1.77,2.18a4.51,4.51 0 0 0 2.72,0.84a5.38,5.38 0 0 0 2.27,-0.42a5.89,5.89 0 0 0 1.48,-0.93a4.25,4.25 0 0 0 0.76,-0.81a2.21,2.21 0 0 1 0.53,-0.56a1.53,1.53 0 0 1 0.61,-0.09l1.86,0a0.87,0.87 0 0 1 0.59,0.21a0.64,0.64 0 0 1 0.21,0.59a3,3 0 0 1 -0.61,1.38a7.44,7.44 0 0 1 -1.61,1.62a8.92,8.92 0 0 1 -2.58,1.31a11,11 0 0 1 -3.49,0.51zm-5.19,-11.64l10.4,0l0,-0.12a7,7 0 0 0 -0.62,-3a5,5 0 0 0 -1.81,-2.1a5,5 0 0 0 -2.8,-0.78a4.79,4.79 0 0 0 -4.56,2.88a7.18,7.18 0 0 0 -0.61,3l0,0.12z" id="svg_22"/>
  <path class="cls-1" d="m492.28,132.26a0.85,0.85 0 0 1 -0.87,-0.87l0,-15.84l-6.61,0a0.84,0.84 0 0 1 -0.87,-0.87l0,-1.29a0.84,0.84 0 0 1 0.87,-0.87l16.71,0a0.84,0.84 0 0 1 0.88,0.87l0,1.29a0.84,0.84 0 0 1 -0.88,0.87l-6.64,0l0,15.84a0.88,0.88 0 0 1 -0.23,0.62a0.78,0.78 0 0 1 -0.61,0.25l-1.75,0z" id="svg_23"/>
  <path class="cls-1" d="m506.53,132.26a0.78,0.78 0 0 1 -0.59,-0.25a0.73,0.73 0 0 1 -0.25,-0.55l0,-18.07a0.84,0.84 0 0 1 0.87,-0.87l1.82,0a0.84,0.84 0 0 1 0.88,0.87l0,16.1l-1,-1l11.51,-15.37a1.77,1.77 0 0 1 0.42,-0.4a0.88,0.88 0 0 1 0.57,-0.17l1.74,0a0.79,0.79 0 0 1 0.55,0.22a0.71,0.71 0 0 1 0.25,0.54l0,18.11a0.85,0.85 0 0 1 -0.87,0.87l-1.79,0a0.8,0.8 0 0 1 -0.64,-0.25a0.84,0.84 0 0 1 -0.23,-0.62l0,-15.18l1.06,0l-11.58,15.49a2.72,2.72 0 0 1 -0.38,0.38a0.89,0.89 0 0 1 -0.61,0.19l-1.73,-0.04z" id="svg_24"/>
  <path class="cls-1" d="m529.69,132.26a0.85,0.85 0 0 1 -0.88,-0.87l0,-18a0.84,0.84 0 0 1 0.88,-0.87l1.82,0a0.82,0.82 0 0 1 0.87,0.87l0,7.29l10.33,0l0,-7.29a0.82,0.82 0 0 1 0.87,-0.87l1.79,0a0.84,0.84 0 0 1 0.87,0.87l0,18a0.85,0.85 0 0 1 -0.87,0.87l-1.79,0a0.84,0.84 0 0 1 -0.87,-0.87l0,-7.67l-10.33,0l0,7.67a0.84,0.84 0 0 1 -0.87,0.87l-1.82,0z" id="svg_25"/>
  <path class="cls-1" d="m552.81,132.26a0.84,0.84 0 0 1 -0.87,-0.87l0,-18a0.82,0.82 0 0 1 0.87,-0.87l11.35,0a0.87,0.87 0 0 1 0.63,0.24a0.88,0.88 0 0 1 0.24,0.63l0,1.29a0.88,0.88 0 0 1 -0.24,0.63a0.87,0.87 0 0 1 -0.63,0.24l-8.66,0l0,15.84a0.84,0.84 0 0 1 -0.87,0.87l-1.82,0z" id="svg_26"/>
  <path class="cls-1" d="m573.77,132.64a7.74,7.74 0 0 1 -3.46,-0.76a6.66,6.66 0 0 1 -2.5,-2a4.77,4.77 0 0 1 -1,-2.92a4.91,4.91 0 0 1 2.12,-4.18a12.23,12.23 0 0 1 5.55,-2l5.65,-0.8l0,-1.1a3.8,3.8 0 0 0 -1,-2.85a4.75,4.75 0 0 0 -3.4,-1a5,5 0 0 0 -2.73,0.68a3.66,3.66 0 0 0 -1.48,1.75a0.81,0.81 0 0 1 -0.8,0.57l-1.71,0a0.81,0.81 0 0 1 -0.63,-0.25a0.86,0.86 0 0 1 -0.2,-0.59a3.14,3.14 0 0 1 0.43,-1.4a5.81,5.81 0 0 1 1.36,-1.79a7.69,7.69 0 0 1 2.34,-1.34a9.57,9.57 0 0 1 3.47,-0.55a10.91,10.91 0 0 1 3.83,0.58a6.31,6.31 0 0 1 2.46,1.58a6,6 0 0 1 1.28,2.24a8.22,8.22 0 0 1 0.4,2.54l0,12.31a0.84,0.84 0 0 1 -0.87,0.87l-1.75,0a0.81,0.81 0 0 1 -0.64,-0.25a0.88,0.88 0 0 1 -0.23,-0.62l0,-1.64a6.93,6.93 0 0 1 -3.39,2.48a9.41,9.41 0 0 1 -3.1,0.44zm0.8,-2.85a6.15,6.15 0 0 0 2.84,-0.66a4.8,4.8 0 0 0 2,-2.07a7.57,7.57 0 0 0 0.73,-3.53l0,-1.07l-4.4,0.65a10.16,10.16 0 0 0 -4.06,1.27a2.65,2.65 0 0 0 -1.37,2.26a2.56,2.56 0 0 0 0.63,1.77a3.9,3.9 0 0 0 1.59,1a5.92,5.92 0 0 0 2.04,0.38z" id="svg_27"/>
 </g>
</svg>