<svg width="212" height="25" viewBox="0 0 212 25" fill="none" xmlns="http://www.w3.org/2000/svg">
<path d="M9.7034 0.0136011C7.96587 -0.0150298 0.944841 0.00984623 0.0859373 0.0136011C0.0383996 0.0138593 0 0.0524493 0 0.099963V1.43623L2.62367 2.28342C2.65923 2.29531 2.68323 2.32855 2.68331 2.36603L2.68988 18.6528C2.69014 18.7002 2.72839 18.7386 2.77582 18.7391C3.53987 18.7419 9.14035 18.7621 9.4949 18.7391C9.87575 18.7142 19.9318 18.9217 20.3033 9.05157C20.6419 0.04364 11.556 0.04364 9.7034 0.0136011ZM15.2447 9.39138C15.1888 14.5341 12.7478 15.7155 10.0551 15.9187C9.354 15.9698 8.65027 15.9747 7.9485 15.9333C7.9091 15.9308 7.87845 15.8981 7.87853 15.8587V2.87763C7.87853 2.83757 7.90988 2.80453 7.94991 2.80253C8.7683 2.77223 9.58781 2.80047 10.4022 2.88701C13.0047 3.16581 15.2964 4.6349 15.2447 9.39138Z" fill="#3A63E5"/>
<path d="M28.1248 6.25C24.1112 6.25 21.0938 8.48671 21.0938 12.3174C21.0938 16.1481 23.6141 18.75 28.1248 18.75C32.6354 18.75 35.1562 16.1472 35.1562 12.3174C35.1562 8.48762 32.2534 6.25 28.1248 6.25ZM28.1248 15.5853C26.4812 15.5853 25.6402 14.2793 25.6402 12.5C25.6402 10.7207 26.5482 9.41471 28.1248 9.41471C29.7591 9.41471 30.6098 10.7202 30.6098 12.5C30.6098 14.2798 29.7684 15.5853 28.1248 15.5853Z" fill="#3A63E5"/>
<path d="M67.9685 6.25C63.955 6.25 60.9375 8.48671 60.9375 12.3174C60.9375 16.1481 63.4579 18.75 67.9685 18.75C72.4791 18.75 75 16.1481 75 12.3174C75 8.48671 72.0971 6.25 67.9685 6.25ZM67.9685 15.5853C66.3249 15.5853 65.484 14.2793 65.484 12.5C65.484 10.7207 66.392 9.41471 67.9685 9.41471C69.6028 9.41471 70.4535 10.7202 70.4535 12.5C70.4535 14.2798 69.6121 15.5853 67.9685 15.5853Z" fill="#3A63E5"/>
<path d="M179.687 6.25C175.674 6.25 172.656 8.48671 172.656 12.3174C172.656 16.1481 175.177 18.75 179.687 18.75C184.198 18.75 186.719 16.1472 186.719 12.3174C186.719 8.48762 183.816 6.25 179.687 6.25ZM179.687 15.5853C178.044 15.5853 177.203 14.2793 177.203 12.5C177.203 10.7207 178.111 9.41471 179.687 9.41471C181.322 9.41471 182.172 10.7202 182.172 12.5C182.172 14.2798 181.331 15.5853 179.687 15.5853Z" fill="#3A63E5"/>
<path d="M211.713 12.3179C211.609 8.71937 209.502 6.41793 205.609 6.2583C201.497 6.09 198.438 8.49315 198.438 12.3179C198.438 16.1427 200.986 18.7452 205.546 18.7452C205.546 18.7452 208.913 18.8984 211.396 17.4763V14.7539C211.396 14.7539 209.696 16.0638 206.256 16.0264C204.522 15.9466 203.206 15.0089 202.971 13.5284H211.685C211.717 13.1257 211.726 12.7216 211.713 12.3179ZM207.59 11.4094H202.822C202.822 11.4094 202.819 8.85529 205.205 8.85529C207.749 8.85529 207.59 11.4094 207.59 11.4094Z" fill="#3A63E5"/>
<path d="M46.0287 13.2729C45.7998 12.8575 45.0495 12.1187 44.1582 12.1187C44.1582 12.1187 45.069 12.0122 45.7119 11.4617C46.2428 11.0078 46.4836 10.0443 47.0126 9.70335C47.1588 9.60917 47.4646 9.60258 47.7391 9.59269L48.3056 9.57056V6.25007H46.2428C45.9104 6.25007 44.1245 6.21624 43.3206 7.61203C42.1268 9.68405 42.0593 10.7756 40.3594 10.8707V6.25007H35.9375V18.7501H40.3594V13.7014C40.7468 13.7278 41.1467 13.7956 41.4164 13.9538C41.5983 14.0593 41.896 14.2755 42.0812 14.5698C42.9511 15.9519 44.2802 18.7501 44.2802 18.7501H49.2188C49.2188 18.7501 46.2124 13.6053 46.0287 13.2729Z" fill="#3A63E5"/>
<path d="M60.9375 6.25H49.2188V9.70841H52.9367V18.75H57.2195V9.70841H60.9375V6.25Z" fill="#3A63E5"/>
<path d="M198.438 6.25H186.719V9.70841H190.437V18.75H194.72V9.70841H198.438V6.25Z" fill="#3A63E5"/>
<path d="M83.7924 6.25841C82.7705 6.25457 81.678 6.74953 80.7624 7.6139V6.44H76.5625V25H80.7624V18.4396C81.5287 19.0625 82.5213 19.4343 83.775 19.4343C87.2924 19.4343 89.8438 17.1138 89.8438 12.7992C89.8438 8.28757 87.1188 6.09598 83.7924 6.25841ZM83.3275 16.1651C82.4572 16.2471 81.7161 16.0865 80.7624 15.3199V10.5975C81.2768 10.0417 82.3431 9.23866 83.8913 9.81124C86.0712 10.6172 85.7327 15.8853 83.3275 16.1651Z" fill="#3A63E5"/>
<path d="M137.699 6.25841C136.677 6.25457 135.584 6.74953 134.669 7.6139V6.44H130.469V25H134.669V18.4396C135.435 19.0625 136.428 19.4343 137.681 19.4343C141.199 19.4343 143.75 17.1138 143.75 12.7992C143.75 8.28757 141.025 6.09598 137.699 6.25841ZM137.234 16.1651C136.363 16.2471 135.622 16.0865 134.669 15.3199V10.5975C135.183 10.0417 136.249 9.23866 137.798 9.81124C139.977 10.6172 139.639 15.8853 137.234 16.1651Z" fill="#3A63E5"/>
<path d="M104.993 6.25V10.4307H100.476V6.25H96.0938V18.75H100.476V13.7939H104.993V18.75H109.375V6.25H104.993Z" fill="#3A63E5"/>
<path d="M123.241 16.0408C122.696 16.1255 122.558 15.6276 122.529 15.2672V9.88464C122.529 8.30236 121.282 6.25046 117.24 6.25C113.212 6.25 111.349 7.9242 111.349 7.9242V11.2148C112.023 10.4726 113.628 9.26847 115.305 9.01637C118.673 8.47028 118.157 10.8785 118.157 10.8785C118.157 10.8785 116.258 11.5789 114.703 12.0266C113.551 12.3588 111.908 13.0628 111.349 14.1973C110.202 16.3257 111.531 18.6848 114.359 18.7303C117.197 18.7758 118.401 17.5157 118.401 17.5157C118.969 19.4434 122.46 18.5419 122.527 18.5241C123.249 18.3831 124.219 17.9407 124.219 17.9407V15.6722C124.219 15.6722 123.871 15.943 123.241 16.0408ZM118.171 15.6162C118.171 15.6162 117.015 16.6151 116.146 16.4281C115.276 16.241 114.934 15.3382 115.4 14.4399C115.658 13.9825 116.27 13.5425 118.171 12.7866V15.6162Z" fill="#3A63E5"/>
<path d="M156.835 16.0408C156.29 16.1255 156.153 15.6276 156.123 15.2672V9.88464C156.123 8.30236 154.876 6.25046 150.834 6.25C146.806 6.25 144.943 7.9242 144.943 7.9242V11.2148C145.616 10.4726 147.222 9.26847 148.899 9.01637C152.267 8.47028 151.751 10.8785 151.751 10.8785C151.751 10.8785 149.852 11.5789 148.297 12.0266C147.144 12.3588 145.502 13.0628 144.943 14.1973C143.796 16.3257 145.125 18.6848 147.953 18.7303C150.791 18.7758 151.995 17.5157 151.995 17.5157C152.563 19.4434 156.054 18.5419 156.121 18.5241C156.843 18.3831 157.812 17.9407 157.812 17.9407V15.6722C157.812 15.6722 157.466 15.943 156.835 16.0408ZM151.766 15.6162C151.766 15.6162 150.609 16.6151 149.74 16.4281C148.87 16.241 148.526 15.3382 148.994 14.4399C149.252 13.9825 149.864 13.5425 151.766 12.7866V15.6162Z" fill="#3A63E5"/>
<path d="M165.27 6.22378C163.421 6.28884 162.823 6.89525 162.784 6.92517C162.784 6.92517 162.835 4.47767 166.619 4.1709C168.732 3.99947 170.404 4.01514 170.404 4.01514L170.702 0.78125C170.702 0.78125 167.55 0.900443 166.802 0.946506C166.102 0.990194 157.236 1.49594 157.842 12.4275C157.842 12.4323 157.842 12.4375 157.842 12.4427C157.848 12.601 157.859 12.7565 157.874 12.9091C158.201 16.4231 160.605 18.75 164.808 18.75C169.341 18.75 171.875 16.0432 171.875 12.0581C171.876 8.20163 169.016 6.09224 165.27 6.22378ZM164.808 15.4572C163.156 15.4572 162.311 14.0986 162.311 12.2476C162.311 10.3965 163.224 9.22783 164.808 9.22783C166.451 9.22783 167.306 10.396 167.306 12.2476C167.306 14.0991 166.581 15.4572 164.808 15.4572Z" fill="#3A63E5"/>
</svg>
