<?xml version="1.0" encoding="UTF-8" standalone="no"?>
<svg
   xmlns:dc="http://purl.org/dc/elements/1.1/"
   xmlns:cc="http://creativecommons.org/ns#"
   xmlns:rdf="http://www.w3.org/1999/02/22-rdf-syntax-ns#"
   xmlns:svg="http://www.w3.org/2000/svg"
   xmlns="http://www.w3.org/2000/svg"
   viewBox="0 0 298.54666 169.18668"
   height="169.18668"
   width="298.54666"
   xml:space="preserve"
   id="svg2"
   version="1.1"><metadata
     id="metadata8"><rdf:RDF><cc:Work
         rdf:about=""><dc:format>image/svg+xml</dc:format><dc:type
           rdf:resource="http://purl.org/dc/dcmitype/StillImage" /></cc:Work></rdf:RDF></metadata><defs
     id="defs6" /><g
     transform="matrix(1.3333333,0,0,-1.3333333,0,169.18667)"
     id="g10"><g
       transform="scale(0.1)"
       id="g12"><path
         id="path14"
         style="fill:#5873c2;fill-opacity:1;fill-rule:nonzero;stroke:none"
         d="M 991.699,893.422 C 991.246,882.914 985.172,878.664 980.16,873.965 889.309,788.723 810.328,693.301 739.328,591.281 686.305,515.098 636.449,436.895 599.531,351.262 c -2.468,-5.723 -5.359,-11.262 -8.093,-16.867 -6.055,-12.411 -14.02,-13.563 -23.68,-3.879 -14.883,14.914 -29.793,29.8 -44.563,44.828 -76.039,77.34 -151.672,155.082 -228.39,231.738 -12.961,12.945 -12.438,20.297 0.836,30.965 18.218,14.644 36.64,29.316 52.984,45.93 15.887,16.144 27.223,12.449 43.094,-0.676 40.847,-33.785 83.586,-65.278 124.937,-98.469 9.836,-7.898 14.617,-9.176 23.992,1.539 116.282,132.824 248.415,247.383 397.102,342.957 16.207,10.418 25.184,9.867 34.398,-6.676 6.012,-10.785 13.723,-20.625 19.551,-29.23" /><path
         id="path16"
         style="fill:#5873c2;fill-opacity:1;fill-rule:nonzero;stroke:none"
         d="m 1496.1,618.43 c 59.51,52.609 126.19,50.984 163.07,-12.301 8.77,7.969 16.92,17.023 26.62,23.91 43.13,30.625 90.27,34.453 137.62,13.524 45.09,-19.934 57.52,-62.133 58.89,-106.536 2.02,-65.461 0.21,-131.035 0.91,-196.547 0.16,-15.117 -6.02,-18.519 -19.51,-17.972 -20.27,0.824 -40.66,1.16 -60.88,-0.086 -16.53,-1.016 -21.33,4.926 -21.15,21.191 0.71,64.731 0.8,129.489 -0.23,194.215 -0.57,35.379 -33.79,53.535 -64.23,36.285 -16.71,-9.468 -22.05,-24.933 -21.97,-43.496 0.28,-61.625 -0.64,-123.262 0.49,-184.863 0.34,-18.734 -5.35,-24.832 -23.77,-23.363 -18.63,1.484 -37.56,1.535 -56.17,-0.012 -18.34,-1.524 -22.15,5.93 -21.92,22.773 0.86,62.395 0.63,124.805 0.15,187.203 -0.31,41.887 -30.03,59.297 -67.89,40.684 -14.49,-7.121 -22.23,-16.75 -21.95,-34.566 0.99,-64.727 -0.27,-129.489 0.81,-194.215 0.3,-18.035 -5.53,-23.16 -22.67,-21.848 -17.86,1.371 -35.98,1.336 -53.84,0.008 -16.85,-1.25 -23.07,3.25 -22.89,21.609 0.93,95.157 0.76,190.328 0.11,285.489 -0.1,15.785 3.5,23.449 20.59,21.277 8.45,-1.074 17.25,-1.012 25.73,-0.027 23.66,2.746 40.02,-4.567 44.08,-32.336" /><path
         id="path18"
         style="fill:#5873c2;fill-opacity:1;fill-rule:nonzero;stroke:none"
         d="m 1036.46,1127.52 c 0,20.19 0,36.29 0,52.39 0,17.15 -0.16,34.31 0.04,51.46 0.2,16.39 -1.86,35.97 21.85,36.51 23.92,0.55 22.76,-18.88 22.86,-35.42 0.22,-32.76 0.06,-65.51 0.07,-98.26 0,-20.27 -0.57,-40.57 0.27,-60.81 0.51,-12.41 -4.89,-16.85 -16.3,-16.78 -58.48,0.36 -116.973,0.59 -175.457,1.03 -13.199,0.09 -20.957,8.23 -21.348,20.29 -0.445,13.9 9.285,21.31 22.61,21.65 25.746,0.65 51.523,0.03 77.281,0.43 7.394,0.12 15.285,-2.39 24.09,3.19 -19.625,21.59 -44.602,34.24 -68.442,47.8 C 679.836,1289.8 364.555,1231.72 183.313,1015.93 92.5273,907.844 47.2656,783.223 42.7383,643.074 42.2344,627.512 39.8281,613.391 21.25,613.426 2.72656,613.465 0.0742188,627.316 0.00390625,643.086 -1.18359,913.469 196.262,1171.89 457.609,1244.48 c 192.758,53.53 402.793,20.81 578.851,-116.96" /><path
         id="path20"
         style="fill:#5873c2;fill-opacity:1;fill-rule:nonzero;stroke:none"
         d="m 2087.44,524.25 c 16.3,0 32.61,0.141 48.91,-0.059 9.25,-0.109 14.12,1.684 12.68,13.258 -3.95,31.598 -25.89,52.074 -57.82,52.129 -31.45,0.055 -58.17,-23.137 -61.58,-52.754 -1.07,-9.289 2.19,-12.75 11.22,-12.601 15.52,0.254 31.06,0.07 46.59,0.027 z m 40.47,-56.34 c -27.31,0 -54.66,-0.875 -81.91,0.309 -18.08,0.785 -19.42,-7.453 -15.58,-21.387 10.5,-38.211 47.73,-60.129 89.53,-52.449 16.28,2.988 30.99,10.035 45.8,17.125 25.1,12.027 61.31,-6.176 67.72,-33.098 1.68,-7.039 -3.03,-9.976 -6.62,-13.66 -16.68,-17.129 -36.8,-29.27 -59.59,-35.641 -74.19,-20.742 -143.87,-18.343 -200.06,43.614 -52.36,57.722 -53.33,161.906 -2.49,227.386 42.71,55.032 135.75,71.586 202.93,37.473 57.14,-29.012 75.85,-100.879 70.56,-149.504 -1.45,-13.281 -9.05,-20.531 -23.69,-20.25 -28.85,0.551 -57.73,0.16 -86.6,0.16 0,-0.023 0,-0.05 0,-0.078" /><path
         id="path22"
         style="fill:#5873c2;fill-opacity:1;fill-rule:nonzero;stroke:none"
         d="m 968.898,524.246 c 15.516,0 31.04,0.305 46.542,-0.105 11.04,-0.293 14.91,2.714 12.74,14.964 -5.11,28.879 -22.54,47.54 -49.641,50.317 -30.906,3.168 -53.996,-11.832 -65.234,-40.922 -6.461,-16.727 -6.418,-26.758 16.054,-24.504 13.059,1.313 26.352,0.238 39.539,0.25 z m 39.612,-56.316 c -28.088,-0.02 -56.201,-0.606 -84.268,0.218 -14.676,0.43 -17.219,-5.859 -14.765,-18.425 7.847,-40.239 50.277,-64.868 94.143,-54.313 16.81,4.043 32.01,12.047 47.73,18.899 19.95,8.699 60.52,-16.274 62.26,-37.782 0.5,-6.246 -4.86,-9.429 -8.61,-13.179 -47.61,-47.645 -147.117,-60.2 -212.746,-26.926 -59.719,30.277 -92.25,104.211 -83.484,176.461 17.25,142.129 172.218,173.906 252.52,115.238 46.77,-34.168 58.66,-83.668 55.49,-138.555 -0.98,-16.906 -10.23,-22.3 -26.34,-21.832 -27.29,0.793 -54.61,0.219 -81.93,0.196" /><path
         id="path24"
         style="fill:#5873c2;fill-opacity:1;fill-rule:nonzero;stroke:none"
         d="m 1260.29,607.105 c 23.79,30.493 49.41,51.645 88.31,48.196 17.34,-1.535 28.66,-6.844 24.86,-27.098 -0.71,-3.785 -0.35,-7.765 -0.5,-11.656 -1.96,-48.828 -1.96,-48.828 -50.84,-49.258 -33.77,-0.297 -56.42,-22.945 -56.58,-57.453 -0.27,-55.285 -0.56,-110.582 0.23,-165.859 0.22,-15.52 -3.1,-23.289 -20.38,-21.438 -25.28,2.711 -58.21,-10.879 -74.07,5.481 -14.62,15.078 -3.95,47.468 -4.11,72.207 -0.47,75.535 0.56,151.082 -0.65,226.597 -0.32,20.012 6.02,26.797 25.01,23.887 4.57,-0.699 9.34,-0.102 14.01,-0.102 42.4,-0.004 42.4,-0.004 54.71,-43.504" /><path
         id="path26"
         style="fill:#5873c2;fill-opacity:1;fill-rule:nonzero;stroke:none"
         d="M 707.652,20.0781 C 707.027,10.2695 700.773,1.53125 688.164,1.44922 675.363,1.35938 665.496,8.01953 666.031,22.5 c 0.496,13.3984 8.969,22.2188 22.035,21.6484 11.551,-0.5078 19.801,-8.1093 19.586,-24.0703" /><path
         id="path28"
         style="fill:#5873c2;fill-opacity:1;fill-rule:nonzero;stroke:none"
         d="m 241.543,182.309 c -2.605,-13.469 -10.809,-21.887 -23.77,-20.86 -11.679,0.942 -20.164,10 -19.195,22.082 1.016,12.699 9.891,21.641 23.258,20.649 12.238,-0.91 17.887,-10.539 19.707,-21.871" /><path
         id="path30"
         style="fill:#5873c2;fill-opacity:1;fill-rule:nonzero;stroke:none"
         d="m 26.5313,548.754 c -13.9493,2.465 -23.33599,8.941 -23.31255,22.547 0.02344,12.492 8.83595,20.383 20.56645,20.785 13.2421,0.457 21.7421,-8.543 21.9609,-21.602 0.2109,-12.421 -9.4961,-18.16 -19.2148,-21.73" /><path
         id="path32"
         style="fill:#5873c2;fill-opacity:1;fill-rule:nonzero;stroke:none"
         d="m 811.434,67.7891 c 11.734,-2.5782 21.601,-8.2774 21.296,-21.1172 -0.316,-13.25 -9.16,-22.1719 -22.621,-21.7031 -12.515,0.4414 -19.98,9.8515 -19.785,21.9531 0.207,12.4492 8.817,19.207 21.11,20.8672" /><path
         id="path34"
         style="fill:#5873c2;fill-opacity:1;fill-rule:nonzero;stroke:none"
         d="m 458.41,52.1719 c -2.336,-12.543 -9.531,-19.4024 -22.398,-19.3516 -13.356,0.0508 -21.149,8.0195 -20.477,20.3399 0.699,12.7617 8.617,21.8906 23.039,21.1093 13.543,-0.7382 17.781,-10.5898 19.836,-22.0976" /><path
         id="path36"
         style="fill:#5873c2;fill-opacity:1;fill-rule:nonzero;stroke:none"
         d="m 320.191,129.172 c 12.426,-1.633 20.711,-7.902 21.715,-20.301 1.086,-13.3905 -5.461,-23.0194 -19.422,-23.3397 -11.757,-0.2696 -20.988,6.0781 -21.882,19.0777 -0.95,13.762 7.859,20.641 19.589,24.563" /><path
         id="path38"
         style="fill:#5873c2;fill-opacity:1;fill-rule:nonzero;stroke:none"
         d="m 519.309,36.0313 c -2.614,-13.5196 -10.196,-22.1915 -23.817,-20.9805 -12.34,1.0898 -19.66,10.4805 -19.109,22.5195 0.574,12.5313 8.98,19.3203 22.035,18.668 12.957,-0.6367 19.371,-8.1602 20.891,-20.207" /><path
         id="path40"
         style="fill:#5873c2;fill-opacity:1;fill-rule:nonzero;stroke:none"
         d="m 893.367,67.6602 c -2.566,-12.1797 -7.965,-20.8399 -21.519,-20.8086 -14.477,0.0195 -22.184,8.5468 -21.746,21.789 0.402,12.3282 9.285,19.9102 21.875,19.5313 12.707,-0.3711 18.753,-9.3008 21.39,-20.5117" /><path
         id="path42"
         style="fill:#5873c2;fill-opacity:1;fill-rule:nonzero;stroke:none"
         d="m 1142.41,257.488 c -2.07,-11.918 -9.24,-18.808 -21.95,-19.039 -13.17,-0.238 -21.41,7.281 -21,19.66 0.42,12.715 8.44,22.45 22.45,21.594 12.3,-0.754 18.97,-9.344 20.5,-22.215" /><path
         id="path44"
         style="fill:#5873c2;fill-opacity:1;fill-rule:nonzero;stroke:none"
         d="m 622.844,0 c -13.367,0.191406 -20.707,8.39844 -20.86,20.2891 -0.148,12.1015 8.293,20.7109 20.579,20.9804 13.523,0.3008 22.339,-8.5703 21.906,-21.8398 C 644.078,7.44141 636.176,-0.28125 622.844,0" /><path
         id="path46"
         style="fill:#5873c2;fill-opacity:1;fill-rule:nonzero;stroke:none"
         d="m 928.043,116.551 c 12.734,-1.379 21.426,-8.371 21.48,-20.5705 0.059,-13.0313 -7.71,-21.7696 -22.152,-21.3711 -13.234,0.3711 -20.582,8.4687 -20.008,20.75 0.555,11.8206 8.301,19.6096 20.68,21.1916" /><path
         id="path48"
         style="fill:#5873c2;fill-opacity:1;fill-rule:nonzero;stroke:none"
         d="m 135.906,299.02 c 12.137,-2.008 21.094,-8.836 21.383,-20.872 0.285,-11.82 -6.82,-20.476 -20.129,-20.976 -14.359,-0.543 -22.664,7.937 -22.551,20.949 0.102,11.867 9.153,18.93 21.297,20.899" /><path
         id="path50"
         style="fill:#5873c2;fill-opacity:1;fill-rule:nonzero;stroke:none"
         d="m 74.5898,409.363 c 11.3477,-3.375 19.3633,-10.117 18.961,-22.808 -0.4063,-12.684 -8.0117,-20.809 -20.6485,-20.219 -11.7226,0.547 -20.9453,7.105 -20.8007,20.469 0.1484,14.082 9.6015,20.05 22.4882,22.558" /><path
         id="path52"
         style="fill:#5873c2;fill-opacity:1;fill-rule:nonzero;stroke:none"
         d="m 771.82,31.5313 c -2.613,-11.8711 -8.855,-20.8125 -21.281,-21.2618 -12.437,-0.44919 -21.367,7.7891 -21.973,19.5821 -0.668,13.0078 7.11,21.6093 21.61,21.707 13.668,0.0898 18.633,-8.8086 21.644,-20.0273" /><path
         id="path54"
         style="fill:#5873c2;fill-opacity:1;fill-rule:nonzero;stroke:none"
         d="m 1034.64,145.352 c -13.49,1.546 -21.7,7.726 -22.2,20.437 -0.5,12.609 6.52,20.691 19.17,21.391 13.84,0.769 21.99,-7.11 22.18,-20.789 0.17,-12.813 -8.49,-18.789 -19.15,-21.039" /><path
         id="path56"
         style="fill:#5873c2;fill-opacity:1;fill-rule:nonzero;stroke:none"
         d="m 290.277,142.039 c -1.531,-12.398 -8.332,-20.051 -20.953,-20.25 -12.679,-0.199 -20.535,7.102 -20.777,19.801 -0.266,13.762 7.707,21.89 21.5,21.539 12.699,-0.32 18.957,-8.68 20.23,-21.09" /><path
         id="path58"
         style="fill:#5873c2;fill-opacity:1;fill-rule:nonzero;stroke:none"
         d="m 1003.3,128.289 c -1.46,-12.348 -7.905,-20.129 -20.695,-20.258 -12.636,-0.121 -20.687,7.071 -21.062,19.598 -0.41,13.66 7.57,21.781 21.418,21.48 12.75,-0.269 18.919,-8.539 20.339,-20.82" /><path
         id="path60"
         style="fill:#5873c2;fill-opacity:1;fill-rule:nonzero;stroke:none"
         d="m 398.531,75.4688 c -2.906,-12.6485 -9.797,-20.0782 -22.668,-18.8985 -12.582,1.1485 -19.871,9.0703 -19.004,21.5899 0.938,13.5898 9.633,21.1093 23.356,19.4101 12.453,-1.5508 18.055,-10.3086 18.316,-22.1015" /><path
         id="path62"
         style="fill:#5873c2;fill-opacity:1;fill-rule:nonzero;stroke:none"
         d="m 560.5,4.08984 c -13.676,2.14063 -21.414,8.76956 -21.09,21.58206 0.32,12.5976 7.801,20.4492 20.422,20.3476 13.691,-0.0976 21.457,-8.3398 20.859,-22.1914 C 580.129,10.7617 571.105,5.64844 560.5,4.08984" /><path
         id="path64"
         style="fill:#5873c2;fill-opacity:1;fill-rule:nonzero;stroke:none"
         d="m 56.0742,509.234 c -1.8945,-13.562 -8.2851,-21.859 -20.9726,-21.812 -13.5938,0.055 -21.711,8 -21.0352,21.902 0.6172,12.731 8.9102,19.516 21.3477,19.36 12.9882,-0.164 18.4179,-9.09 20.6601,-19.45" /><path
         id="path66"
         style="fill:#5873c2;fill-opacity:1;fill-rule:nonzero;stroke:none"
         d="m 196.773,227.719 c -1.312,-12.59 -7.816,-20.731 -20.46,-20.848 -13.715,-0.133 -21.684,8.008 -21.219,21.809 0.429,12.73 8.461,19.761 21.094,19.492 12.777,-0.281 19.093,-8.301 20.585,-20.453" /><path
         id="path68"
         style="fill:#5873c2;fill-opacity:1;fill-rule:nonzero;stroke:none"
         d="m 1078.41,231.98 c 11.7,-2.3 21.23,-7.859 21.69,-20.378 0.51,-13.801 -9.14,-21.614 -21.81,-21.762 -12.13,-0.141 -19.58,7.832 -19.55,20.879 0.04,13.16 7.96,19.031 19.67,21.261" /><path
         id="path70"
         style="fill:#5873c2;fill-opacity:1;fill-rule:nonzero;stroke:none"
         d="m 122.516,331.215 c -1.828,-13.582 -8.446,-21.524 -21.055,-21.559 -14.293,-0.043 -21.0001,9.867 -20.6485,22.586 0.3438,12.453 9.1328,19.274 21.6955,18.785 12.961,-0.5 18.539,-8.992 20.008,-19.812" /><path
         id="path72"
         style="fill:#5873c2;fill-opacity:1;fill-rule:nonzero;stroke:none"
         d="m 70.918,448.301 c -0.5039,-13.078 -6.5703,-21.278 -19.5938,-22.153 -13.4492,-0.906 -20.9179,7.797 -21.6133,19.692 -0.707,12.023 6.1563,21.195 19.4414,21.734 12.9844,0.528 19.9532,-6.972 21.7657,-19.273" /></g></g></svg>