<svg width="286" height="116" viewBox="0 0 286 116" fill="none" xmlns="http://www.w3.org/2000/svg">
<path d="M49.6091 79.1457C48.0422 78.1538 46.3353 77.3903 44.5425 76.8789C42.7419 76.3378 40.9309 75.8578 39.3607 75.4598C38.1255 75.1226 36.775 74.7961 35.6443 74.4387C34.5064 74.1261 33.4101 73.6842 32.3782 73.1214C31.5105 72.6472 30.746 72.0128 30.1275 71.2528C29.5296 70.4569 29.2137 69.4929 29.2273 68.5063C29.0929 66.4291 29.9323 64.4046 31.5094 63.0026C33.2525 61.7091 35.4031 61.0484 37.5914 61.1342C39.4396 61.1356 41.2846 61.2822 43.1084 61.573C45.3585 61.9225 47.5536 62.5504 49.6407 63.4418L51.8912 58.173C49.7239 56.9807 47.3617 56.1622 44.9088 55.7531C42.6059 55.3339 40.2692 55.1151 37.9264 55.0996C32.6923 55.0996 28.5782 56.3045 25.6576 58.7245C22.6759 61.1665 21.0152 64.8131 21.1561 68.6083C21.0799 70.5581 21.5466 72.4919 22.5066 74.2037C23.436 75.6427 24.6624 76.8772 26.1077 77.8285C27.7378 78.8581 29.5209 79.6364 31.3942 80.1361C33.4251 80.7998 35.4455 81.3411 37.6752 81.8924C39.0255 82.219 40.2609 82.6582 41.381 82.9952C42.4393 83.2883 43.4329 83.7693 44.3122 84.4144C45.0873 84.9352 45.74 85.6104 46.228 86.3952C46.7113 87.3087 46.9423 88.3293 46.8979 89.3564C46.8979 92.1032 45.9977 94.0839 44.3122 95.1765C42.0405 96.391 39.4667 96.9638 36.8797 96.8305C34.8074 96.7755 32.741 96.5913 30.6928 96.2792C27.7608 95.9252 24.9075 95.1078 22.2448 93.8593L19.9941 99.3424C22.5748 100.683 25.3437 101.647 28.2118 102.201C30.8469 102.703 33.5249 102.96 36.2097 102.967C42.0615 102.967 46.6781 101.875 49.9443 99.567C53.2103 97.2594 54.8958 93.9614 54.8958 89.4584C55.0113 87.2441 54.5046 85.041 53.4301 83.0871C52.4231 81.5497 51.1267 80.2125 49.6091 79.1457Z" fill="#00AEE8"/>
<path d="M86.8766 73.9912C85.6087 72.3402 83.9443 71.0183 82.0298 70.1418C79.6996 69.1092 77.1549 68.6197 74.5971 68.7122C72.0397 68.6208 69.4952 69.1101 67.1646 70.1418C65.2291 71.0819 63.5062 72.3907 62.0978 73.9912C60.8091 75.6254 59.8563 77.4874 59.2923 79.4743C58.1305 83.7525 58.0906 88.2471 59.1772 92.5438C59.7165 94.5037 60.5906 96.3609 61.7629 98.0373C63.0669 99.6257 64.7244 100.904 66.6099 101.774C68.9626 102.714 71.4907 103.162 74.0319 103.092C76.701 103.181 79.3575 102.693 81.8099 101.662C83.7652 100.757 85.4942 99.4469 86.8766 97.8228C88.1268 96.1759 89.0437 94.3115 89.5774 92.3295C90.1177 90.2472 90.3817 88.1059 90.3627 85.9579C90.3817 83.7732 90.1179 81.5948 89.5774 79.4743C89.0692 77.4864 88.1501 75.6205 86.8766 73.9912ZM82.1449 90.2362C81.9717 91.5323 81.5902 92.7934 81.0144 93.9736C80.4761 95.0481 79.6472 95.959 78.6169 96.6078C77.4021 97.3362 75.9906 97.6921 74.5657 97.6289C73.0719 97.6877 71.5913 97.3339 70.2947 96.6078C69.2194 96.0015 68.3246 95.1322 67.6985 94.0858C67.0836 92.913 66.6664 91.651 66.4632 90.3487C66.2287 88.8589 66.1168 87.3531 66.1284 85.8457C66.1252 84.4134 66.2373 82.9828 66.4632 81.5674C66.6514 80.2106 67.1102 78.9029 67.8136 77.7181C68.4281 76.6098 69.317 75.6693 70.3993 74.9817C71.6619 74.2389 73.1126 73.8568 74.5866 73.8789C76.0193 73.7903 77.4406 74.179 78.6169 74.9817C79.6459 75.7447 80.4926 76.7166 81.098 77.8304C81.7241 79.031 82.1081 80.3381 82.2286 81.6799C82.4088 83.0612 82.4824 84.4538 82.4485 85.8457C82.4698 87.3148 82.3683 88.7831 82.1449 90.2362Z" fill="#00AEE8"/>
<path d="M115.258 96.7179C113.668 97.0755 112.042 97.2603 110.411 97.2692C108.9 97.3011 107.401 97.0008 106.025 96.3912C104.916 95.8438 103.952 95.0542 103.208 94.0835C102.458 92.9925 101.958 91.7558 101.743 90.4588C101.416 88.9416 101.265 87.3935 101.293 85.8435C101.137 82.8865 101.967 79.9597 103.659 77.5015C105.349 75.4484 107.945 74.3096 110.641 74.4383C111.688 74.4383 112.892 74.5403 114.127 74.6526C115.578 74.8206 117.011 75.1145 118.409 75.5306L119.759 70.2621C118.054 69.6267 116.281 69.1848 114.472 68.9448C112.905 68.7321 111.324 68.623 109.741 68.618C106.931 68.4685 104.132 69.0723 101.649 70.3641C99.7168 71.4031 98.0607 72.8681 96.8123 74.6424C95.6377 76.3876 94.7938 78.3243 94.3209 80.3604C93.8874 82.3064 93.6631 84.2912 93.6509 86.2826C93.62 88.5051 93.8839 90.7223 94.436 92.8787C94.9304 94.7869 95.8132 96.5787 97.032 98.1475C98.3163 99.6959 99.9795 100.904 101.869 101.66C104.262 102.608 106.834 103.058 109.416 102.977C111.653 103.001 113.884 102.744 116.053 102.211C118.009 101.785 119.901 101.12 121.685 100.23L119.979 95.2577C118.453 95.8798 116.873 96.3684 115.258 96.7179Z" fill="#00AEE8"/>
<path d="M126.049 68.4961H133.596V102.426H126.049V68.4961Z" fill="#00AEE8"/>
<path d="M129.913 55.2133C128.686 55.1738 127.495 55.6236 126.616 56.4591C124.969 58.15 124.969 60.8027 126.616 62.4935C127.49 63.3301 128.692 63.7582 129.913 63.6677C131.163 63.7298 132.385 63.2907 133.295 62.4527C134.114 61.6787 134.562 60.604 134.53 59.4917C134.527 58.3556 134.086 57.262 133.295 56.4285C132.361 55.6279 131.156 55.1948 129.913 55.2133Z" fill="#00AEE8"/>
<path d="M239.098 78.269C238.758 77.0588 238.302 75.8829 237.735 74.7565C237.118 73.5928 236.278 72.5537 235.266 71.6931C234.046 70.7503 232.679 70.0086 231.214 69.498C229.287 68.8888 227.272 68.5919 225.247 68.6198C222.467 68.4819 219.701 69.0893 217.25 70.376C215.314 71.4521 213.687 72.9866 212.517 74.8381C211.389 76.5892 210.587 78.5216 210.152 80.5458C209.721 82.3577 209.492 84.2099 209.472 86.0699C209.453 88.245 209.679 90.4157 210.142 92.5433C210.518 94.5018 211.366 96.3454 212.612 97.9244C213.916 99.5127 215.572 100.791 217.459 101.661C219.962 102.618 222.641 103.066 225.33 102.979C227.643 103.003 229.95 102.746 232.198 102.213C234.487 101.675 236.698 100.862 238.782 99.793L237.318 95.1778C235.589 95.9317 233.776 96.4868 231.916 96.8318C230.098 97.1884 228.252 97.3731 226.399 97.3833C224.93 97.4448 223.465 97.1793 222.118 96.6073C221 96.129 220.033 95.3717 219.312 94.4119C218.582 93.4577 218.044 92.3764 217.731 91.2262C217.395 89.8903 217.244 88.5167 217.28 87.1419H239.799V84.5281C239.81 83.5772 239.773 82.6261 239.683 81.6794C239.654 80.5213 239.456 79.3733 239.098 78.269ZM217.479 83.0986C217.584 81.8937 217.816 80.6889 218.034 79.4738C218.357 78.4031 218.809 77.3743 219.384 76.4106C220.052 75.5646 220.9 74.8683 221.866 74.3685C223.017 73.8079 224.296 73.5443 225.582 73.6027C226.779 73.5641 227.971 73.7873 229.068 74.2561C229.993 74.6984 230.772 75.3847 231.319 76.2369C231.875 77.1494 232.26 78.1526 232.45 79.1981C232.679 80.4689 232.792 81.7573 232.784 83.0475H217.479V83.0986Z" fill="#008FBF"/>
<path d="M264.419 96.1665C263.184 96.5037 261.947 96.718 260.933 96.9427C260.043 97.1117 259.137 97.1837 258.232 97.1572C256.43 97.1572 255.196 96.718 254.516 95.7277C253.81 94.5719 253.494 93.2285 253.615 91.8884V74.4282H263.75V69.2616H253.731V60.5928L248.768 61.2462C248.63 61.6781 248.517 62.118 248.434 62.5634C248.214 63.3291 247.983 64.1053 247.765 64.9833C247.544 65.8616 247.312 66.7395 247.083 67.393C246.946 67.8252 246.833 68.2651 246.748 68.7101L241.451 70.2521V74.3363H246.298V93.859C246.187 96.1852 246.992 98.465 248.548 100.231C250.13 101.885 252.736 102.65 256.546 102.65C258.096 102.656 259.643 102.508 261.163 102.211C262.68 101.916 264.155 101.436 265.55 100.782L264.419 96.1665Z" fill="#008FBF"/>
<path d="M203.065 61.5743V55.54H195.297V68.385L203.065 61.5743Z" fill="#00AEE8"/>
<path d="M195.295 74.8373V93.0938C195.304 94.8648 195.114 96.6317 194.729 98.3626C194.375 99.863 193.725 101.281 192.815 102.539C191.778 103.898 190.523 105.083 189.097 106.051C187.261 107.335 185.345 108.507 183.361 109.564L185.382 114.945C191.243 113.301 195.63 110.779 198.666 107.266C201.703 103.754 203.178 99.0263 203.178 92.9713V66.8525L195.295 74.8373Z" fill="#008FBF"/>
<path d="M184.485 77.8308L184.601 55.6533H176.947V84.529L184.485 77.8308Z" fill="#00AEE8"/>
<path d="M176.947 93.3186V102.426H184.485V85.6299L176.947 93.3186Z" fill="#008FBF"/>
<path d="M167.486 102.864C168.243 102.808 168.996 102.699 169.737 102.538C170.907 102.311 172.043 101.94 173.118 101.435L172.836 97.5957L167.486 102.864Z" fill="#008FBF"/>
<path d="M159.15 100.232L168.163 92.3288V80.0759C168.197 78.2807 167.892 76.4948 167.263 74.8073C166.775 73.4401 165.918 72.2265 164.782 71.2949C163.683 70.3732 162.366 69.7312 160.95 69.4263C159.251 69.063 157.518 68.8782 155.779 68.875C153.398 68.8886 151.022 69.1105 148.682 69.5385C146.391 69.9143 144.161 70.5767 142.045 71.5092C142.264 72.2854 142.495 73.051 142.715 73.929C142.935 74.8073 143.165 75.5731 143.395 76.3491C145.12 75.7783 146.887 75.3381 148.682 75.032C150.431 74.7065 152.209 74.5392 153.989 74.5316C156.69 74.5316 158.49 75.0831 159.391 76.0734C160.291 77.0639 160.856 78.8201 160.856 81.2401V83.0985L152.639 83.6496C150.851 83.7278 149.076 83.9846 147.342 84.4154C145.808 84.8303 144.359 85.5004 143.06 86.3963C141.892 87.2232 140.901 88.2634 140.139 89.4594C139.434 90.743 139.074 92.1797 139.093 93.6357C139.086 94.673 139.238 95.7052 139.543 96.6989C139.859 97.8113 140.396 98.8521 141.123 99.7622C141.967 100.792 143.041 101.62 144.264 102.182C145.85 102.899 147.583 103.248 149.331 103.203C150.006 103.213 150.681 103.176 151.351 103.091C152.302 103.026 153.244 102.879 154.167 102.652C155.357 102.381 156.506 101.955 157.58 101.386C158.053 100.94 158.581 100.553 159.15 100.232ZM152.628 97.9242C150.713 97.9242 149.247 97.4851 148.441 96.6071C147.517 95.5409 147.068 94.1586 147.195 92.7679C147.102 91.4392 147.643 90.1433 148.661 89.2554C149.926 88.2379 151.522 87.6917 153.162 87.7135L160.93 87.1621V94.3094C159.694 95.4382 158.28 96.3657 156.742 97.0561C155.437 97.5895 154.043 97.8837 152.628 97.9242Z" fill="#00AEE8"/>
<path d="M239.098 78.269C238.758 77.0588 238.302 75.8829 237.735 74.7565C237.118 73.5928 236.278 72.5537 235.266 71.6931C234.046 70.7503 232.679 70.0086 231.214 69.498C229.287 68.8888 227.272 68.5919 225.247 68.6198C222.467 68.4819 219.701 69.0893 217.25 70.376C215.314 71.4521 213.687 72.9866 212.517 74.8381C211.389 76.5892 210.587 78.5216 210.152 80.5458C209.721 82.3577 209.492 84.2099 209.472 86.0699C209.453 88.245 209.679 90.4157 210.142 92.5433C210.518 94.5018 211.366 96.3454 212.612 97.9244C213.916 99.5127 215.572 100.791 217.459 101.661C219.962 102.618 222.641 103.066 225.33 102.979C227.643 103.003 229.95 102.746 232.198 102.213C234.487 101.675 236.698 100.862 238.782 99.793L237.318 95.1778C235.589 95.9317 233.776 96.4868 231.916 96.8318C230.098 97.1884 228.252 97.3731 226.399 97.3833C224.93 97.4448 223.465 97.1793 222.118 96.6073C221 96.129 220.033 95.3717 219.312 94.4119C218.582 93.4577 218.044 92.3764 217.731 91.2262C217.395 89.8903 217.244 88.5167 217.28 87.1419H239.799V84.5281C239.81 83.5772 239.773 82.6261 239.683 81.6794C239.654 80.5213 239.456 79.3733 239.098 78.269ZM217.479 83.0986C217.584 81.8937 217.816 80.6889 218.034 79.4738C218.357 78.4031 218.809 77.3743 219.384 76.4106C220.052 75.5646 220.9 74.8683 221.866 74.3685C223.017 73.8079 224.296 73.5443 225.582 73.6027C226.779 73.5641 227.971 73.7873 229.068 74.2561C229.993 74.6984 230.772 75.3847 231.319 76.2369C231.875 77.1494 232.26 78.1526 232.45 79.1981C232.679 80.4689 232.792 81.7573 232.784 83.0475H217.479V83.0986Z" fill="#008FBF"/>
<path d="M264.419 96.1665C263.184 96.5037 261.947 96.718 260.933 96.9427C260.043 97.1117 259.137 97.1837 258.232 97.1572C256.43 97.1572 255.196 96.718 254.516 95.7277C253.81 94.5719 253.494 93.2285 253.615 91.8884V74.4282H263.75V69.2616H253.731V60.5928L248.768 61.2462C248.63 61.6781 248.517 62.118 248.434 62.5634C248.214 63.3291 247.983 64.1053 247.765 64.9833C247.544 65.8616 247.312 66.7395 247.083 67.393C246.946 67.8252 246.833 68.2651 246.748 68.7101L241.451 70.2521V74.3363H246.298V93.859C246.187 96.1852 246.992 98.465 248.548 100.231C250.13 101.885 252.736 102.65 256.546 102.65C258.096 102.656 259.643 102.508 261.163 102.211C262.68 101.916 264.155 101.436 265.55 100.782L264.419 96.1665Z" fill="#008FBF"/>
<path d="M195.295 74.8373V93.0938C195.304 94.8648 195.114 96.6317 194.729 98.3626C194.375 99.863 193.725 101.281 192.815 102.539C191.778 103.898 190.523 105.083 189.097 106.051C187.261 107.335 185.345 108.507 183.361 109.564L185.382 114.945C191.243 113.301 195.63 110.779 198.666 107.266C201.703 103.754 203.178 99.0263 203.178 92.9713V66.8525L195.295 74.8373Z" fill="#008FBF"/>
<path d="M176.947 93.3186V102.426H184.485V85.6299L176.947 93.3186Z" fill="#008FBF"/>
<path d="M167.486 102.864C168.243 102.808 168.996 102.699 169.737 102.538C170.907 102.311 172.043 101.94 173.118 101.435L172.836 97.5957L167.486 102.864Z" fill="#008FBF"/>
<path d="M209.818 59.9297V66.6687C212.634 62.8295 231.802 37.6807 231.802 37.6807L209.818 59.9297Z" fill="white"/>
<path d="M209.818 59.9297V66.6687C212.634 62.8295 231.802 37.6807 231.802 37.6807L209.818 59.9297Z" fill="#008FBF"/>
<path d="M209.818 55.6508L222.087 44.7764L212.413 51.2501C211.734 51.6889 210.832 52.3527 209.818 53.1185V55.6508Z" fill="#00AEE8"/>
<path d="M239.43 40.0498C239.65 39.7232 239.994 39.284 240.215 38.9572L240.444 38.6306V38.1914C240.286 36.3355 239.719 34.5349 238.78 32.9126L238.216 31.8202L237.168 32.4736C236.443 32.9868 235.693 33.4639 234.918 33.9031L233.673 32.8105L235.023 30.503L235.703 29.482L234.594 28.9611C232.849 28.2044 230.981 27.7583 229.078 27.644H228.628L228.313 27.8685C227.963 28.1601 227.585 28.4166 227.182 28.6343C228.602 26.4772 230.224 24.4536 232.029 22.5898C233.534 21.0531 235.15 19.6235 236.867 18.3114C236.867 18.3114 236.98 18.199 237.096 18.3114C237.211 18.4237 237.096 18.5258 237.096 18.5258C237.096 18.5258 235.655 20.4783 234.846 21.3849L233.495 22.9265L235.589 23.141C236.635 23.2535 237.681 23.3657 238.729 23.5801L239.409 23.6923L239.858 23.141C241.879 20.5066 244.361 18.0867 246.496 15.4524C251.869 9.15633 258.507 3.9996 266 0.299805C262.126 7.51637 257.24 14.17 251.478 20.0676C249.112 22.4875 246.634 24.7849 244.047 26.9905L243.482 27.4297L243.596 28.0831C243.816 29.1856 244.047 30.1252 244.162 31.1461L244.497 33.2394L246.068 31.81C246.968 31.0338 247.869 30.268 248.884 29.5024C248.884 29.5024 249.007 29.3902 249.112 29.5024C249.218 29.6146 249.112 29.7167 249.112 29.7167L245.063 34.6689C245.063 34.6689 241.628 38.6054 239.43 40.0498Z" fill="#008FBF"/>
</svg>
