<svg width="200" height="30" viewBox="0 0 200 30" fill="none" xmlns="http://www.w3.org/2000/svg">
<g clip-path="url(#clip0_1183_1722)">
<path d="M0.000107423 24.3769L0 6.99999H5.36016V24.3769H0.000107423ZM0.000107423 4.99999V9.77513e-06H5.36016V4.99999H0.000107423ZM9.74604 24.3769V6.87957L13.5107 6.59683L13.9118 8.13609C14.8581 6.83767 16.905 6.18846 20.0526 6.18846C21.7806 6.18846 22.9736 6.356 23.632 6.69107C24.3108 7.00521 24.8148 7.50784 25.144 8.19893C26.1726 6.85861 28.3326 6.18846 31.6242 6.18846C32.8996 6.18846 33.9488 6.356 34.7716 6.69107C35.615 7.02617 36.2424 7.54972 36.654 8.26175C37.086 8.9738 37.374 9.73819 37.518 10.5549C37.662 11.3717 37.734 12.3874 37.734 13.6021V24.3769H32.8584V14.5759C32.8584 13.8848 32.8378 13.3717 32.7968 13.0366C32.7556 12.7015 32.6424 12.335 32.4572 11.9371C32.2928 11.5183 31.9944 11.2356 31.5624 11.089C31.151 10.9214 30.5956 10.8377 29.8962 10.8377C28.3532 10.8377 27.3452 11.1623 26.872 11.8115C26.3988 12.4398 26.1624 13.4345 26.1624 14.7958V24.3769H21.3176V14.5759C21.3176 13.9057 21.297 13.4031 21.256 13.068C21.2148 12.712 21.1016 12.335 20.9166 11.9371C20.752 11.5392 20.4536 11.2565 20.0216 11.089C19.5896 10.9214 19.0239 10.8377 18.3245 10.8377C16.7816 10.8377 15.7736 11.1623 15.3004 11.8115C14.8273 12.4398 14.5907 13.4345 14.5907 14.7958V24.3769H9.74604ZM41.4476 30V6.87957L45.2122 6.59683L45.6134 8.16751C46.7036 6.84815 48.8328 6.18846 52.0008 6.18846C53.441 6.18846 54.665 6.42929 55.673 6.91097C56.681 7.3717 57.4524 8.04185 57.9874 8.92144C58.5222 9.80103 58.9028 10.7644 59.129 11.8115C59.3554 12.8586 59.4684 14.0733 59.4684 15.4555C59.4684 16.8167 59.345 18.0209 59.0982 19.068C58.872 20.1151 58.481 21.0785 57.9256 21.9581C57.3702 22.8377 56.5678 23.5077 55.5188 23.9685C54.4902 24.4293 53.225 24.6597 51.7232 24.6597C48.9666 24.6597 47.1562 24.1047 46.2922 22.9947V30H41.4476ZM50.7666 20.4815C52.2272 20.4815 53.225 20.0733 53.7598 19.2565C54.2946 18.4188 54.5622 17.2146 54.5622 15.6439C54.5622 14.0314 54.2946 12.8062 53.7598 11.9686C53.2456 11.1099 52.2478 10.6806 50.7666 10.6806C49.1414 10.6806 47.9894 11.0785 47.3104 11.8743C46.6316 12.6492 46.2922 13.9057 46.2922 15.6439C46.2922 17.4031 46.611 18.6492 47.2488 19.3821C47.8864 20.1151 49.059 20.4815 50.7666 20.4815ZM70.6904 24.6597C67.4606 24.6597 65.2594 24.0209 64.0868 22.7433C62.9348 21.4659 62.3588 19.246 62.3588 16.0837V6.59683H67.2034V16.178C67.2034 16.8062 67.2138 17.2774 67.2344 17.5916C67.255 17.9057 67.327 18.2827 67.4504 18.7225C67.5738 19.1413 67.7486 19.4554 67.975 19.6649C68.2218 19.8534 68.5716 20.0209 69.024 20.1675C69.4766 20.3141 70.0424 20.3873 70.7212 20.3873C71.3796 20.3873 71.935 20.3141 72.3876 20.1675C72.8402 20.0209 73.1796 19.8429 73.4058 19.6335C73.6528 19.424 73.8378 19.1099 73.9614 18.6911C74.0848 18.2722 74.1568 17.9057 74.1774 17.5916C74.198 17.2565 74.2082 16.7748 74.2082 16.1465V6.59683H78.9602V16.0523C78.9602 17.6439 78.8368 18.9528 78.59 19.979C78.3636 21.0051 77.942 21.8847 77.3248 22.6177C76.7076 23.3507 75.8642 23.8743 74.7944 24.1885C73.7248 24.5025 72.3568 24.6597 70.6904 24.6597ZM87.6698 24.4397C86.0242 24.4397 84.8104 24.0419 84.0286 23.2461C83.2674 22.4501 82.887 21.0365 82.887 19.0052V0H87.7008V18.4083C87.7008 19.1413 87.8036 19.6335 88.0092 19.8848C88.2356 20.1361 88.7088 20.2617 89.4288 20.2617H90.015V24.3141C89.4802 24.3979 88.6984 24.4397 87.6698 24.4397ZM99.6442 24.6597C96.2704 24.6597 93.4932 23.9161 91.3126 22.4293L93.7812 18.8167C95.6738 20.0523 97.731 20.6701 99.9528 20.6701C101.187 20.6701 102.02 20.5759 102.452 20.3873C102.884 20.1989 103.1 19.801 103.1 19.1937C103.1 18.6911 102.895 18.3455 102.483 18.157C102.072 17.9685 101.249 17.7905 100.014 17.623C99.2738 17.5183 98.6772 17.4345 98.2248 17.3717C97.7722 17.2879 97.2372 17.1727 96.6202 17.0261C96.0236 16.8586 95.54 16.6911 95.1698 16.5235C94.82 16.356 94.4394 16.1256 94.028 15.8324C93.6372 15.5392 93.339 15.2146 93.1332 14.8586C92.9274 14.4816 92.7526 14.0314 92.6086 13.5078C92.4646 12.9842 92.3926 12.3979 92.3926 11.7487C92.3926 9.88479 92.9892 8.49213 94.1824 7.57066C95.3756 6.64919 97.3196 6.18846 100.014 6.18846C103.039 6.18846 105.497 6.73297 107.389 7.82198L105.075 11.6544C103.635 10.8796 102 10.4921 100.169 10.4921C98.9962 10.4921 98.2042 10.5968 97.7928 10.8063C97.4018 10.9947 97.2064 11.3193 97.2064 11.7801C97.2064 12.2617 97.3916 12.5968 97.7618 12.7853C98.1322 12.9738 98.9036 13.1518 100.076 13.3193C101.002 13.445 101.712 13.5602 102.205 13.6649C102.72 13.7487 103.327 13.8848 104.026 14.0733C104.746 14.2408 105.281 14.4502 105.631 14.7015C106.001 14.9319 106.381 15.2356 106.772 15.6125C107.163 15.9895 107.431 16.4607 107.575 17.0261C107.739 17.5706 107.821 18.1989 107.821 18.9109C107.821 20.9633 107.204 22.4397 105.97 23.3403C104.736 24.2199 102.627 24.6597 99.6442 24.6597ZM118.846 24.7225C117.015 24.7225 115.482 24.4921 114.248 24.0313C113.014 23.5497 112.078 22.8585 111.44 21.9581C110.802 21.0575 110.36 20.0941 110.113 19.068C109.866 18.0418 109.743 16.8377 109.743 15.4555C109.743 14.3874 109.815 13.424 109.959 12.5654C110.103 11.7068 110.381 10.8691 110.792 10.0523C111.203 9.23558 111.738 8.55495 112.397 8.01045C113.055 7.46594 113.929 7.02617 115.02 6.69107C116.11 6.356 117.375 6.18846 118.815 6.18846C120.07 6.18846 121.15 6.3246 122.055 6.59683C122.981 6.86909 123.721 7.25652 124.277 7.75914C124.832 8.26175 125.285 8.85862 125.635 9.54971C126.005 10.2408 126.241 10.9947 126.344 11.8115C126.468 12.6282 126.55 13.5078 126.591 14.4502C126.653 15.3926 126.653 16.356 126.591 17.3403H114.433C114.577 18.4712 114.978 19.3193 115.637 19.8848C116.295 20.4501 117.365 20.7329 118.846 20.7329C121.068 20.7329 122.899 20.1883 124.339 19.0994L126.776 22.3035C125.645 23.1623 124.472 23.7801 123.259 24.1571C122.045 24.5339 120.574 24.7225 118.846 24.7225ZM118.661 10.3036C117.241 10.3036 116.213 10.5968 115.575 11.1832C114.937 11.7696 114.557 12.6492 114.433 13.822H122.178C122.096 12.6282 121.829 11.7487 121.376 11.1832C120.944 10.5968 120.039 10.3036 118.661 10.3036ZM129.897 24.3769V20.8899H132.983V24.3769H129.897ZM144.038 18.0314C142.927 18.0314 141.94 17.9371 141.076 17.7486C140.726 18.1675 140.551 18.5968 140.551 19.0366C140.551 19.5811 140.788 19.9371 141.261 20.1047C141.755 20.2721 142.711 20.3559 144.131 20.3559C147.258 20.3559 149.407 20.6597 150.58 21.2669C151.752 21.8743 152.339 23.0471 152.339 24.7853C152.339 26.6072 151.701 27.9266 150.426 28.7434C149.15 29.581 146.99 30 143.945 30C141.086 30 139.06 29.6962 137.867 29.089C136.673 28.4816 136.077 27.3402 136.077 25.6649C136.077 23.2565 137.198 21.8219 139.44 21.3611C138.72 21.0471 138.36 20.3665 138.36 19.3193C138.36 18.4607 138.628 17.6858 139.163 16.9947C137.764 16.0942 137.064 14.5759 137.064 12.4398C137.064 10.4712 137.62 9.01568 138.731 8.07327C139.862 7.10993 141.631 6.62825 144.038 6.62825C144.614 6.62825 145.17 6.65967 145.704 6.72249L151.629 5.99998V7.97903H148.79C150.312 8.81672 151.074 10.3036 151.074 12.4398C151.074 14.3664 150.508 15.78 149.376 16.6806C148.245 17.5811 146.466 18.0314 144.038 18.0314ZM144.038 15.9581C145.725 15.9581 146.928 15.6858 147.648 15.1413C148.389 14.5759 148.759 13.6754 148.759 12.4398C148.759 10.0523 147.186 8.85862 144.038 8.85862C142.372 8.85862 141.168 9.14134 140.428 9.70677C139.708 10.2722 139.348 11.1832 139.348 12.4398C139.348 13.6754 139.708 14.5759 140.428 15.1413C141.168 15.6858 142.372 15.9581 144.038 15.9581ZM144.007 28.0208C146.311 28.0208 147.875 27.7696 148.698 27.267C149.541 26.7852 149.963 26.0105 149.963 24.9423C149.963 23.9161 149.541 23.2461 148.698 22.9319C147.875 22.5967 146.311 22.4293 144.007 22.4293C142.835 22.4293 141.857 22.5025 141.076 22.6491C140.294 22.7957 139.718 23.0157 139.348 23.3089C138.998 23.5811 138.751 23.8743 138.607 24.1885C138.484 24.5025 138.422 24.8795 138.422 25.3193C138.422 26.3454 138.854 27.047 139.718 27.424C140.582 27.8218 142.012 28.0208 144.007 28.0208ZM162.797 24.6911C161.192 24.6911 159.886 24.5339 158.878 24.2199C157.891 23.9057 157.15 23.3927 156.656 22.6805C156.183 21.9475 155.875 21.1937 155.731 20.4187C155.587 19.623 155.515 18.5654 155.515 17.246V7.03663H157.829V17.3088C157.829 17.8534 157.829 18.2617 157.829 18.534C157.849 18.7853 157.891 19.1308 157.952 19.5706C158.014 20.0103 158.107 20.3455 158.23 20.5759C158.353 20.8061 158.528 21.0679 158.755 21.3611C159.001 21.6543 159.3 21.8743 159.649 22.0209C159.999 22.1465 160.431 22.2617 160.946 22.3665C161.48 22.4711 162.098 22.5235 162.797 22.5235C163.496 22.5235 164.103 22.4711 164.618 22.3665C165.152 22.2617 165.584 22.1465 165.914 22.0209C166.263 21.8743 166.551 21.6543 166.778 21.3611C167.024 21.0471 167.199 20.7853 167.302 20.5759C167.426 20.3455 167.508 19.9999 167.549 19.5392C167.611 19.0575 167.642 18.6911 167.642 18.4397C167.662 18.1884 167.672 17.7696 167.672 17.1832V7.03663H169.956V17.1518C169.956 18.2198 169.915 19.0994 169.833 19.7905C169.771 20.4607 169.596 21.1413 169.308 21.8323C169.041 22.5235 168.65 23.0575 168.135 23.4345C167.642 23.7905 166.952 24.0941 166.068 24.3455C165.183 24.5759 164.093 24.6911 162.797 24.6911ZM174.561 24.3769V7.16228L176.413 7.03663L176.66 9.36124C177.009 8.64918 177.699 8.05233 178.727 7.57066C179.776 7.08899 181.052 6.83767 182.554 6.81673V9.20416C178.789 9.20416 176.907 11.1413 176.907 15.0157V24.3769H174.561ZM192.841 24.6911C191.236 24.6911 189.93 24.5339 188.922 24.2199C187.935 23.9057 187.194 23.3927 186.7 22.6805C186.227 21.9475 185.919 21.1937 185.775 20.4187C185.631 19.623 185.559 18.5654 185.559 17.246V7.03663H187.873V17.3088C187.873 17.8534 187.873 18.2617 187.873 18.534C187.894 18.7853 187.935 19.1308 187.996 19.5706C188.058 20.0103 188.151 20.3455 188.274 20.5759C188.398 20.8061 188.572 21.0679 188.799 21.3611C189.046 21.6543 189.344 21.8743 189.694 22.0209C190.043 22.1465 190.475 22.2617 190.99 22.3665C191.524 22.4711 192.142 22.5235 192.841 22.5235C193.54 22.5235 194.147 22.4711 194.662 22.3665C195.196 22.2617 195.629 22.1465 195.958 22.0209C196.307 21.8743 196.595 21.6543 196.822 21.3611C197.069 21.0471 197.243 20.7853 197.346 20.5759C197.47 20.3455 197.552 19.9999 197.593 19.5392C197.655 19.0575 197.686 18.6911 197.686 18.4397C197.706 18.1884 197.717 17.7696 197.717 17.1832V7.03663H200V17.1518C200 18.2198 199.959 19.0994 199.877 19.7905C199.815 20.4607 199.64 21.1413 199.352 21.8323C199.085 22.5235 198.694 23.0575 198.179 23.4345C197.686 23.7905 196.997 24.0941 196.112 24.3455C195.227 24.5759 194.137 24.6911 192.841 24.6911Z" fill="url(#paint0_linear_1183_1722)"/>
</g>
<defs>
<linearGradient id="paint0_linear_1183_1722" x1="0" y1="0" x2="246" y2="40.001" gradientUnits="userSpaceOnUse">
<stop stop-color="#152766"/>
<stop offset="1" stop-color="#2059DF"/>
</linearGradient>
<clipPath id="clip0_1183_1722">
<rect width="200" height="30" fill="white"/>
</clipPath>
</defs>
</svg>
