<?xml version="1.0" encoding="UTF-8"?>
<!DOCTYPE svg PUBLIC "-//W3C//DTD SVG 1.1//EN" "http://www.w3.org/Graphics/SVG/1.1/DTD/svg11.dtd">
<svg xmlns="http://www.w3.org/2000/svg" version="1.1" width="861px" height="501px" style="shape-rendering:geometricPrecision; text-rendering:geometricPrecision; image-rendering:optimizeQuality; fill-rule:evenodd; clip-rule:evenodd" xmlns:xlink="http://www.w3.org/1999/xlink">
<g><path style="opacity:0.985" fill="#788f9c" d="M -0.5,-0.5 C 40.1667,-0.5 80.8333,-0.5 121.5,-0.5C 121.5,17.1667 121.5,34.8333 121.5,52.5C 101.5,52.5 81.5,52.5 61.5,52.5C 61.5,185.833 61.5,319.167 61.5,452.5C 81.5,452.5 101.5,452.5 121.5,452.5C 121.5,468.5 121.5,484.5 121.5,500.5C 80.8333,500.5 40.1667,500.5 -0.5,500.5C -0.5,333.5 -0.5,166.5 -0.5,-0.5 Z"/></g>
<g><path style="opacity:0.985" fill="#788f9c" d="M 737.5,-0.5 C 778.5,-0.5 819.5,-0.5 860.5,-0.5C 860.5,166.5 860.5,333.5 860.5,500.5C 819.5,500.5 778.5,500.5 737.5,500.5C 737.5,484.5 737.5,468.5 737.5,452.5C 757.833,452.5 778.167,452.5 798.5,452.5C 798.5,319.167 798.5,185.833 798.5,52.5C 778.167,52.5 757.833,52.5 737.5,52.5C 737.5,34.8333 737.5,17.1667 737.5,-0.5 Z"/></g>
<g><path style="opacity:0.991" fill="#005295" d="M 142.5,98.5 C 171.502,98.3334 200.502,98.5 229.5,99C 261.542,148.252 293.709,197.419 326,246.5C 326.036,228.153 325.37,209.82 324,191.5C 323.5,160.502 323.333,129.502 323.5,98.5C 352.833,98.5 382.167,98.5 411.5,98.5C 411.5,191.167 411.5,283.833 411.5,376.5C 382.831,376.667 354.165,376.5 325.5,376C 292.607,326.771 260.107,277.271 228,227.5C 230.232,277.443 231.065,327.443 230.5,377.5C 201.167,377.5 171.833,377.5 142.5,377.5C 142.5,284.5 142.5,191.5 142.5,98.5 Z"/></g>
<g><path style="opacity:0.995" fill="#005295" d="M 461.5,98.5 C 518.52,98.0459 575.52,98.5459 632.5,100C 651.208,101.426 668.875,106.426 685.5,115C 701.305,124.828 710.805,138.994 714,157.5C 717.962,178.758 715.296,199.092 706,218.5C 697.797,231.693 686.297,240.86 671.5,246C 698.753,252.921 713.253,270.421 715,298.5C 715.185,318.52 715.851,338.52 717,358.5C 717.309,363.974 720.142,366.974 725.5,367.5C 725.5,370.5 725.5,373.5 725.5,376.5C 694.498,376.667 663.498,376.5 632.5,376C 630.639,370.004 629.472,363.837 629,357.5C 628.011,341.848 627.345,326.181 627,310.5C 626.074,295.245 618.24,285.745 603.5,282C 586.569,279.932 569.569,279.099 552.5,279.5C 552.5,311.833 552.5,344.167 552.5,376.5C 522.167,376.5 491.833,376.5 461.5,376.5C 461.5,283.833 461.5,191.167 461.5,98.5 Z M 552.5,163.5 C 568.17,163.333 583.837,163.5 599.5,164C 625.658,166.851 634.825,180.684 627,205.5C 620.708,212.396 612.875,216.229 603.5,217C 586.525,218.271 569.525,218.771 552.5,218.5C 552.5,200.167 552.5,181.833 552.5,163.5 Z"/></g>
<g><path style="opacity:0.923" fill="#788f9c" d="M 232.5,453.5 C 235.85,453.335 239.183,453.502 242.5,454C 248.333,461.833 254.167,469.667 260,477.5C 260.5,469.507 260.666,461.507 260.5,453.5C 263.833,453.5 267.167,453.5 270.5,453.5C 270.5,467.167 270.5,480.833 270.5,494.5C 267.15,494.665 263.817,494.498 260.5,494C 254.333,485.833 248.167,477.667 242,469.5C 241.5,477.827 241.334,486.16 241.5,494.5C 238.5,494.5 235.5,494.5 232.5,494.5C 232.5,480.833 232.5,467.167 232.5,453.5 Z"/></g>
<g><path style="opacity:0.979" fill="#788f9c" d="M 282.5,453.5 C 292.5,453.5 302.5,453.5 312.5,453.5C 312.5,456.167 312.5,458.833 312.5,461.5C 305.5,461.5 298.5,461.5 291.5,461.5C 291.5,464.167 291.5,466.833 291.5,469.5C 298.167,469.5 304.833,469.5 311.5,469.5C 311.5,472.167 311.5,474.833 311.5,477.5C 304.833,477.5 298.167,477.5 291.5,477.5C 291.5,480.5 291.5,483.5 291.5,486.5C 298.5,486.5 305.5,486.5 312.5,486.5C 312.5,489.167 312.5,491.833 312.5,494.5C 302.5,494.5 292.5,494.5 282.5,494.5C 282.5,480.833 282.5,467.167 282.5,453.5 Z"/></g>
<g><path style="opacity:0.904" fill="#788f9c" d="M 319.5,453.5 C 323.167,453.5 326.833,453.5 330.5,453.5C 331.737,462.446 333.903,471.113 337,479.5C 339.485,470.892 341.652,462.226 343.5,453.5C 346.5,453.5 349.5,453.5 352.5,453.5C 354.351,462.557 356.517,471.557 359,480.5C 361.642,471.599 363.809,462.599 365.5,453.5C 369.167,453.5 372.833,453.5 376.5,453.5C 372.678,467.123 369.011,480.79 365.5,494.5C 361.833,494.5 358.167,494.5 354.5,494.5C 352.443,485.824 350.276,477.157 348,468.5C 345.516,477.101 343.35,485.768 341.5,494.5C 337.833,494.5 334.167,494.5 330.5,494.5C 326.678,480.877 323.011,467.21 319.5,453.5 Z"/></g>
<g><path style="opacity:0.95" fill="#788f9c" d="M 406.5,453.5 C 414.84,453.334 423.173,453.5 431.5,454C 439.469,457.899 441.969,464.066 439,472.5C 437.437,475.728 434.937,477.895 431.5,479C 434.5,484 437.5,489 440.5,494C 436.833,494.667 433.167,494.667 429.5,494C 426.62,489.742 424.12,485.242 422,480.5C 419.959,479.577 417.792,479.244 415.5,479.5C 415.5,484.5 415.5,489.5 415.5,494.5C 412.5,494.5 409.5,494.5 406.5,494.5C 406.5,480.833 406.5,467.167 406.5,453.5 Z M 415.5,461.5 C 419.182,461.335 422.848,461.501 426.5,462C 431.833,465 431.833,468 426.5,471C 422.848,471.499 419.182,471.665 415.5,471.5C 415.5,468.167 415.5,464.833 415.5,461.5 Z"/></g>
<g><path style="opacity:0.979" fill="#788f9c" d="M 451.5,453.5 C 461.5,453.5 471.5,453.5 481.5,453.5C 481.5,456.167 481.5,458.833 481.5,461.5C 474.5,461.5 467.5,461.5 460.5,461.5C 460.5,464.167 460.5,466.833 460.5,469.5C 467.167,469.5 473.833,469.5 480.5,469.5C 480.5,472.167 480.5,474.833 480.5,477.5C 473.833,477.5 467.167,477.5 460.5,477.5C 460.5,480.5 460.5,483.5 460.5,486.5C 467.5,486.5 474.5,486.5 481.5,486.5C 481.5,489.167 481.5,491.833 481.5,494.5C 471.5,494.5 461.5,494.5 451.5,494.5C 451.5,480.833 451.5,467.167 451.5,453.5 Z"/></g>
<g><path style="opacity:0.924" fill="#788f9c" d="M 489.5,453.5 C 500.833,453.5 512.167,453.5 523.5,453.5C 523.5,456.167 523.5,458.833 523.5,461.5C 519.5,461.5 515.5,461.5 511.5,461.5C 511.5,472.5 511.5,483.5 511.5,494.5C 508.167,494.5 504.833,494.5 501.5,494.5C 501.5,483.5 501.5,472.5 501.5,461.5C 497.5,461.5 493.5,461.5 489.5,461.5C 489.5,458.833 489.5,456.167 489.5,453.5 Z"/></g>
<g><path style="opacity:0.925" fill="#788f9c" d="M 544.5,453.5 C 548.514,453.334 552.514,453.501 556.5,454C 561.963,467.095 567.296,480.262 572.5,493.5C 568.833,494.833 565.167,494.833 561.5,493.5C 560.253,491.677 559.586,489.677 559.5,487.5C 553.824,487.334 548.157,487.501 542.5,488C 541.692,490.088 540.692,492.088 539.5,494C 535.833,494.667 532.167,494.667 528.5,494C 534.253,480.662 539.586,467.162 544.5,453.5 Z M 550.5,463.5 C 552.473,468.4 554.473,473.4 556.5,478.5C 552.541,479.66 548.541,479.827 544.5,479C 546.796,473.944 548.796,468.778 550.5,463.5 Z"/></g>
<g><path style="opacity:0.97" fill="#788f9c" d="M 580.5,453.5 C 583.5,453.5 586.5,453.5 589.5,453.5C 589.5,467.167 589.5,480.833 589.5,494.5C 586.5,494.5 583.5,494.5 580.5,494.5C 580.5,480.833 580.5,467.167 580.5,453.5 Z"/></g>
<g><path style="opacity:0.971" fill="#788f9c" d="M 602.5,453.5 C 605.5,453.5 608.5,453.5 611.5,453.5C 611.5,464.5 611.5,475.5 611.5,486.5C 617.5,486.5 623.5,486.5 629.5,486.5C 629.5,489.167 629.5,491.833 629.5,494.5C 620.5,494.5 611.5,494.5 602.5,494.5C 602.5,480.833 602.5,467.167 602.5,453.5 Z"/></g>
</svg>
