<?xml version="1.0"?>
<svg width="623" height="136" xmlns="http://www.w3.org/2000/svg" xmlns:svg="http://www.w3.org/2000/svg" version="1.1">
 <!-- Generator: Adobe Illustrator 29.0.1, SVG Export Plug-In . SVG Version: 2.1.0 Build 192)  -->
 <defs>
  <style>.st0 {
        fill: #ffde00;
      }

      .st1 {
        fill: #0B002B;
      }</style>
 </defs>
 <g class="layer">
  <title>Layer 1</title>
  <path class="st0" d="m304.92,91.59l52.64,0c2.42,0 4.21,1.21 5.36,3.63l12.99,30.83c0.34,0.69 0.52,1.5 0.52,2.42c0,1.62 -0.56,2.97 -1.65,4.07c-1.09,1.09 -2.51,1.65 -4.24,1.65c-2.66,0 -4.5,-1.16 -5.54,-3.47l-10.91,-27.18l-49.17,0c-2.42,0.11 -4.13,-0.84 -5.11,-2.86c-0.98,-2.02 -0.98,-4.04 0,-6.06c0.99,-2.02 2.69,-3.03 5.11,-3.03" id="svg_1"/>
  <path class="st0" d="m390.28,128.3l0,-120.86c-0.11,-2.42 0.84,-4.13 2.86,-5.11s4.04,-0.98 6.06,0c2.02,0.98 3.03,2.68 3.03,5.11l0,120.86c0,2.42 -1.01,4.13 -3.03,5.11c-2.02,0.98 -4.04,0.98 -6.06,0c-2.02,-0.98 -2.97,-2.69 -2.86,-5.11" id="svg_2"/>
  <path class="st1" d="m0,116.7c0,-1.62 0.57,-3 1.74,-4.16c1.15,-1.15 2.53,-1.73 4.15,-1.73c1.27,0 2.42,0.34 3.46,1.04c10.16,7.97 22.1,11.95 35.84,11.95c9.01,0 16.51,-2.48 22.51,-7.45c6.12,-5.07 9.18,-11.2 9.18,-18.35c0,-5.54 -2.11,-10.56 -6.32,-15.06c-4.22,-4.5 -9.61,-7.68 -16.19,-9.52l-22.33,-5.54c-8.66,-2.31 -15.64,-6.47 -20.95,-12.47c-5.43,-6.12 -8.14,-12.99 -8.14,-20.6c0,-9.7 3.87,-17.9 11.6,-24.59c7.85,-6.81 17.49,-10.22 28.92,-10.22c13.74,0 26.43,3.75 38.09,11.26c1.84,1.16 2.77,2.83 2.77,5.02c0,1.62 -0.58,3 -1.74,4.16c-1.15,1.15 -2.54,1.73 -4.15,1.73c-1.5,0 -2.66,-0.34 -3.46,-1.04c-9.59,-6.12 -20.09,-9.18 -31.52,-9.18c-8.2,0 -15.06,2.25 -20.6,6.75c-5.43,4.39 -8.14,9.76 -8.14,16.11c0,4.84 1.88,9.26 5.63,13.24c3.75,3.98 8.63,6.79 14.63,8.4l21.64,5.54c9.35,2.2 16.97,6.7 22.86,13.51c6,6.47 9,13.97 9,22.51c0,10.51 -4.21,19.45 -12.64,26.84c-8.31,7.27 -18.53,10.91 -30.65,10.91c-16.16,0 -30.42,-4.74 -42.77,-14.2c-1.61,-1.04 -2.42,-2.66 -2.42,-4.85" fill="#007fff" id="svg_3"/>
  <path class="st1" d="m135.75,130.03l-36.88,-120.69c-0.47,-1.84 -0.14,-3.61 0.95,-5.28c1.09,-1.67 2.63,-2.51 4.59,-2.51c3,0 4.96,1.39 5.89,4.16l31.34,101.98l31.34,-101.98c0.93,-3 2.83,-4.39 5.72,-4.16c3.11,0 5.07,1.39 5.89,4.16l31.17,101.98l31.16,-101.98c1.04,-2.77 3,-4.16 5.89,-4.16c1.96,0 3.49,0.78 4.59,2.34c1.09,1.56 1.41,3.38 0.95,5.45l-36.88,120.69c-0.92,2.77 -2.89,4.15 -5.89,4.15c-2.77,0 -4.62,-1.38 -5.54,-4.15l-31.34,-102.86l-31.34,102.86c-0.93,2.77 -2.88,4.15 -5.89,4.15s-4.91,-1.38 -5.71,-4.15" fill="#3708d3" id="svg_4"/>
  <path class="st1" d="m455.9,79.82c0,-1.62 0.55,-3 1.64,-4.15c1.1,-1.15 2.45,-1.74 4.07,-1.74l17.66,0c8.07,0 15,-2.88 20.78,-8.66c5.77,-5.77 8.66,-12.76 8.66,-20.95s-2.88,-15.18 -8.66,-20.95c-5.77,-5.77 -12.7,-8.66 -20.78,-8.66l-44.32,0l0,113.59c0,2.43 -1.02,4.13 -3.04,5.11c-2.02,0.98 -4.04,0.98 -6.06,0c-2.02,-0.98 -2.97,-2.68 -2.86,-5.11l0,-119.47c0,-1.62 0.61,-3 1.82,-4.16c1.21,-1.15 2.63,-1.73 4.25,-1.73l50.21,0c11.31,0 21.01,4.04 29.09,12.12c8.08,8.08 12.12,17.83 12.12,29.26s-4.04,21.01 -12.12,29.09c-8.08,8.08 -17.78,12.12 -29.09,12.12l-5.72,0l43,39.31c0.92,1.39 1.24,2.89 0.95,4.5c-0.29,1.62 -1.07,2.89 -2.34,3.81c-1.27,1.03 -2.71,1.41 -4.33,1.12c-1.61,-0.29 -2.94,-1.07 -3.98,-2.34l-49.58,-48.13c-0.93,-1.27 -1.39,-2.6 -1.39,-3.99" fill="#090026" id="svg_5"/>
  <path class="st1" d="m534.34,116.7c0,-1.62 0.57,-3 1.74,-4.16c1.15,-1.15 2.53,-1.73 4.15,-1.73c1.27,0 2.42,0.34 3.46,1.04c10.16,7.97 22.1,11.95 35.84,11.95c9,0 16.51,-2.48 22.51,-7.45c6.12,-5.07 9.18,-11.2 9.18,-18.35c0,-5.54 -2.11,-10.56 -6.32,-15.06c-4.22,-4.5 -9.61,-7.68 -16.18,-9.52l-22.34,-5.54c-8.66,-2.31 -15.64,-6.47 -20.95,-12.47c-5.43,-6.12 -8.14,-12.99 -8.14,-20.6c0,-9.7 3.87,-17.9 11.6,-24.59c7.85,-6.81 17.49,-10.22 28.92,-10.22c13.74,0 26.43,3.75 38.09,11.26c1.84,1.16 2.77,2.83 2.77,5.02c0,1.62 -0.58,3 -1.74,4.16c-1.15,1.15 -2.54,1.73 -4.15,1.73c-1.5,0 -2.66,-0.34 -3.46,-1.04c-9.59,-6.12 -20.09,-9.18 -31.52,-9.18c-8.2,0 -15.06,2.25 -20.61,6.75c-5.43,4.39 -8.13,9.76 -8.13,16.11c0,4.84 1.88,9.26 5.63,13.24c3.75,3.98 8.63,6.79 14.63,8.4l21.64,5.54c9.35,2.2 16.97,6.7 22.85,13.51c6,6.47 9.01,13.97 9.01,22.51c0,10.51 -4.21,19.45 -12.64,26.84c-8.31,7.27 -18.53,10.91 -30.65,10.91c-16.16,0 -30.42,-4.74 -42.77,-14.2c-1.62,-1.04 -2.42,-2.66 -2.42,-4.85" fill="#090026" id="svg_6"/>
  <path class="st1" d="m343.53,79.3l-23.37,-56.8l-44.85,108.22c-1.03,2.3 -2.88,3.46 -5.54,3.46c-1.73,0 -3.15,-0.55 -4.24,-1.64c-1.1,-1.09 -1.64,-2.45 -1.64,-4.07c0,-0.93 0.17,-1.74 0.52,-2.42l50.38,-121.04c0.93,-2.31 2.72,-3.47 5.37,-3.47s4.44,1.16 5.37,3.47l28.91,69.6c0.35,0.7 0.52,1.5 0.52,2.43c0,1.62 -0.55,2.97 -1.64,4.07c-1.1,1.1 -2.51,1.64 -4.24,1.64c-2.66,0 -4.5,-1.15 -5.54,-3.47" fill="#090026" id="svg_7"/>
 </g>
</svg>