<svg width="127" height="127" viewBox="0 0 127 127" fill="none" xmlns="http://www.w3.org/2000/svg">
<path d="M80.952 100.59H63.3086V35.0459H107.22V50.1798H80.952V62.3439H105.741V77.1053H80.952V100.59Z" fill="black"/>
<path d="M25.9618 67.1879C28.0549 67.1879 29.0741 65.4893 29.0741 63.8784C29.0741 62.2674 28.044 60.4483 25.9618 60.4483H21.5455V67.1988H25.9618V67.1879ZM25.9618 53.895C32.5151 53.895 35.7479 59.0237 35.6602 63.9112C35.5835 68.7221 32.3507 73.5329 25.9618 73.5329H21.5455V81.741H14.7949V53.895H25.9618Z" fill="black"/>
<path d="M125.608 46.8593L126.496 45.9826L80.5133 0L17.0188 17.0188L0 80.5133L46.4867 127L109.981 109.992L127 46.4867L126.496 45.9826L125.608 46.8593L124.414 46.5415L107.954 107.954L47.2319 124.227L2.7835 79.7681L19.0462 19.0462L79.7681 2.7835L124.732 47.736L125.608 46.8593L124.414 46.5415L125.608 46.8593Z" fill="black"/>
</svg>
