<svg width="781" height="59" viewBox="0 0 781 59" fill="none" xmlns="http://www.w3.org/2000/svg">
<path d="M28.6424 57.4488H18.712V41.1169L0 0.410156H10.3408L24.9493 32.2533C27.7397 38.3265 28.6424 40.4603 28.6424 47.7645V57.4488ZM35.126 27.9857H25.0313L37.1777 0.410156H47.2723L35.126 27.9857ZM138.862 58.2695C129.671 58.2695 123.269 50.7191 123.269 37.0954C123.269 23.3077 129.835 15.3469 139.273 15.3469C143.54 15.3469 147.151 17.3166 149.614 21.0097V0.410156H159.38V57.4488H150.352L149.86 52.1143C147.234 56.1357 143.458 58.2695 138.862 58.2695ZM198.856 54.6584C195.983 56.6281 191.387 58.2695 185.15 58.2695C172.675 58.2695 165.617 51.2936 165.617 36.9313C165.617 24.4567 171.28 15.3469 183.18 15.3469C192.947 15.3469 199.266 20.7635 199.266 35.1258V40.2962H175.712C176.122 47.1901 178.831 50.5549 185.971 50.5549C190.731 50.5549 195.819 48.7494 198.856 46.6976V54.6584ZM75.9968 29.2988V47.3542C75.9968 50.7191 76.161 54.0839 76.4892 57.4488H66.9691C66.6408 56.6281 66.3126 55.2329 66.2305 54.166H65.8201C63.9325 56.1357 61.4704 58.0233 55.7255 58.0233C48.1751 58.0233 43.0868 53.4274 43.0868 45.4666C43.0868 36.8492 49.7344 32.0071 64.6712 32.0071H66.2305V29.3809C66.2305 24.9491 64.0967 23.3077 59.4187 23.3077C53.92 23.3077 49.1599 26.2622 46.0413 28.8064V20.3532C48.9958 18.2193 54.1662 15.511 60.5677 15.511C70.9085 15.511 75.9968 19.2863 75.9968 29.2988ZM93.7239 27.8215V57.4488H83.9576V16.1676H93.4777L93.7239 19.6145H94.2164C96.186 17.6449 99.633 15.511 105.46 15.511C113.421 15.511 116.704 19.1221 116.704 27.3291V57.4488H106.937V28.314C106.937 25.1953 105.378 23.718 101.931 23.718C98.4019 23.718 95.5295 25.6056 93.7239 27.8215ZM228.893 57.4488L220.112 43.4969L211.823 57.4488H201.892L214.859 35.9465L202.385 16.1676H213.382L221.261 28.6422L228.319 16.1676H238.085L226.431 36.1927L239.891 57.4488H228.893ZM141.735 23.0615C136.154 23.0615 133.364 27.3291 133.364 37.0954C133.364 46.4514 135.99 50.5549 141.325 50.5549C146.823 50.5549 149.614 46.3694 149.614 36.7672C149.614 27.247 146.987 23.0615 141.735 23.0615ZM183.016 23.0615C178.338 23.0615 175.958 26.5084 175.712 33.074H189.335V32.2533C189.335 27.0829 187.858 23.0615 183.016 23.0615ZM66.2305 47.6004V38.4906H64.8353C56.4642 38.4906 53.0993 40.132 53.0993 44.8921C53.0993 48.5032 55.151 50.8832 59.2545 50.8832C62.7015 50.8832 64.9994 49.4059 66.2305 47.6004Z" fill="black"/>
<path d="M436.498 58.6802C427.306 58.6802 420.905 51.1297 420.905 37.5061C420.905 23.7183 427.47 15.7575 436.908 15.7575C441.176 15.7575 444.787 17.7272 447.249 21.4204V0.820801H457.016V57.8595H447.988L447.495 52.5249C444.869 56.5463 441.094 58.6802 436.498 58.6802ZM439.371 23.4721C433.79 23.4721 430.999 27.7398 430.999 37.5061C430.999 46.8621 433.626 50.9656 438.96 50.9656C444.459 50.9656 447.249 46.78 447.249 37.1778C447.249 27.6577 444.623 23.4721 439.371 23.4721Z" fill="black"/>
<path d="M418.442 16.5781L409.988 57.8593H397.514L391.605 30.1197L385.614 57.8593H372.647L364.193 16.5781H374.206L379.951 46.2054L386.927 16.5781H396.857L403.751 46.944L409.578 16.5781H418.442Z" fill="black"/>
<path d="M343.91 15.7573C354.662 15.7573 362.13 23.3898 362.13 37.1776C362.13 51.0474 354.662 58.6799 343.91 58.6799C333.159 58.6799 325.691 51.0474 325.691 37.2597C325.691 23.3898 333.159 15.7573 343.91 15.7573ZM343.91 50.9654C349.327 50.9654 352.035 46.7798 352.035 37.1776C352.035 27.6575 349.327 23.4719 343.91 23.4719C338.494 23.4719 335.786 27.6575 335.786 37.2597C335.786 46.7798 338.494 50.9654 343.91 50.9654Z" fill="black"/>
<path d="M311.372 32.0893V57.8593H301.605V16.5781H311.125L311.372 24.7851H311.618C313.916 19.3684 318.512 16.0036 324.092 15.6753V24.8671C318.101 24.5388 314.08 27.083 311.372 32.0893Z" fill="black"/>
<path d="M282.542 58.68C268.426 58.68 259.891 48.093 259.891 29.3811C259.891 11.1615 268.098 0 283.281 0C288.533 0 292.801 1.72347 295.427 3.61108V11.5719C292.472 9.68426 288.287 7.71458 283.773 7.71458C274.089 7.71458 269.985 14.6905 269.985 29.3811C269.985 43.6612 274.253 50.9655 283.281 50.9655C288.533 50.9655 292.144 49.1599 295.427 46.7799V54.7407C292.883 56.4642 288.697 58.68 282.542 58.68Z" fill="black"/>
<path d="M764.539 58.6799C755.018 58.6799 750.422 54.8226 750.422 54.8226V46.8619C751.243 47.2722 755.839 50.9654 762.979 50.9654C768.56 50.9654 771.104 49.406 771.104 46.2053C771.104 42.5942 768.068 41.0349 762.405 40.2963C754.362 39.2293 750.176 35.4541 750.176 28.1499C750.176 21.0098 755.757 15.7573 765.77 15.7573C773.894 15.7573 777.752 18.0553 777.752 18.0553V26.0161C777.095 25.5237 773.074 23.2257 766.754 23.2257C762.159 23.2257 759.696 24.6209 759.696 27.7395C759.696 31.6789 763.143 32.1713 767.247 32.7458C775.536 33.8948 780.542 37.67 780.542 44.8922C780.542 54.6585 774.223 58.6799 764.539 58.6799Z" fill="black"/>
<path d="M721.03 28.2319V57.8592H711.263V16.5779H720.784L721.03 20.0249H721.522C723.492 18.0552 726.939 15.9214 732.766 15.9214C740.727 15.9214 744.009 19.5325 744.009 27.7395V57.8592H734.243V28.7243C734.243 25.6056 732.684 24.1284 729.237 24.1284C725.708 24.1284 722.835 26.016 721.03 28.2319Z" fill="black"/>
<path d="M686.486 15.7573C697.237 15.7573 704.705 23.3898 704.705 37.1776C704.705 51.0474 697.237 58.6799 686.486 58.6799C675.735 58.6799 668.266 51.0474 668.266 37.2597C668.266 23.3898 675.735 15.7573 686.486 15.7573ZM686.486 50.9654C691.903 50.9654 694.611 46.7798 694.611 37.1776C694.611 27.6575 691.903 23.4719 686.486 23.4719C681.069 23.4719 678.361 27.6575 678.361 37.2597C678.361 46.7798 681.069 50.9654 686.486 50.9654Z" fill="black"/>
<path d="M656.797 11.4898C653.596 11.4898 651.134 9.27391 651.134 5.7449C651.134 2.29796 653.596 0 656.797 0C659.998 0 662.542 2.29796 662.542 5.7449C662.542 9.27391 659.998 11.4898 656.797 11.4898ZM651.955 16.5781H661.721V57.8593H651.955V16.5781Z" fill="black"/>
<path d="M621.022 16.578H626.192V7.55029H635.958V16.578H646.217V24.2926H635.958V45.5487C635.958 48.5853 637.846 50.9653 641.95 50.9653C645.232 50.9653 647.038 49.6522 647.038 49.6522V57.613C647.038 57.613 644.33 58.6799 639.57 58.6799C630.542 58.6799 626.192 53.1812 626.192 45.4666V24.2926H621.022V16.578Z" fill="black"/>
<path d="M606.32 46.2054V16.5781H616.086V57.8593H606.566L606.32 54.4124H605.827C603.858 56.3821 600.411 58.5159 594.584 58.5159C586.623 58.5159 583.34 54.9048 583.34 46.6978V16.5781H593.106V45.713C593.106 48.8316 594.666 50.3089 598.113 50.3089C601.642 50.3089 604.514 48.4213 606.32 46.2054Z" fill="black"/>
<path d="M575.564 0.820801V57.8595H565.798V0.820801H575.564Z" fill="black"/>
<path d="M541.02 15.7573C551.771 15.7573 559.24 23.3898 559.24 37.1776C559.24 51.0474 551.771 58.6799 541.02 58.6799C530.269 58.6799 522.801 51.0474 522.801 37.2597C522.801 23.3898 530.269 15.7573 541.02 15.7573ZM541.02 50.9654C546.437 50.9654 549.145 46.7798 549.145 37.1776C549.145 27.6575 546.437 23.4719 541.02 23.4719C535.603 23.4719 532.895 27.6575 532.895 37.2597C532.895 46.7798 535.603 50.9654 541.02 50.9654Z" fill="black"/>
<path d="M497.609 58.68C489.156 58.68 484.478 55.5614 482.016 53.5917V45.6309C484.806 47.6827 490.141 50.9655 496.788 50.9655C502.943 50.9655 506.965 48.0109 506.965 42.5123C506.965 35.7005 500.563 34.4694 494.244 32.3356C488.089 30.2838 482.098 26.8369 482.098 16.5781C482.098 5.41662 490.141 0 500.974 0C508.36 0 512.217 2.38003 514.105 3.69315V11.6539C510.822 9.76633 507.047 7.71458 501.22 7.71458C494.654 7.71458 491.7 10.6691 491.7 15.7574C491.7 21.8306 497.034 23.2258 502.943 24.9493C510.986 27.2472 517.06 31.3507 517.06 41.6916C517.06 54.8228 506.965 58.68 497.609 58.68Z" fill="black"/>
</svg>
