<?xml version="1.0" encoding="UTF-8"?>
<!DOCTYPE svg PUBLIC "-//W3C//DTD SVG 1.1//EN" "http://www.w3.org/Graphics/SVG/1.1/DTD/svg11.dtd">
<!-- Creator: CorelDRAW 2017 -->
<svg xmlns="http://www.w3.org/2000/svg" xml:space="preserve" width="173.567mm" height="46.2138mm" version="1.1" style="shape-rendering:geometricPrecision; text-rendering:geometricPrecision; image-rendering:optimizeQuality; fill-rule:evenodd; clip-rule:evenodd"
viewBox="0 0 17356.66 4621.38"
 xmlns:xlink="http://www.w3.org/1999/xlink">
 <defs>
  <style type="text/css">
   <![CDATA[
    .fil0 {fill:#00AAE5;fill-rule:nonzero}
    .fil1 {fill:#343434;fill-rule:nonzero}
   ]]>
  </style>
 </defs>
 <g id="Слой_x0020_1">
  <metadata id="CorelCorpID_0Corel-Layer"/>
  <path class="fil0" d="M2159.91 1936.47l0 -286.99c0.65,-28.47 3.08,-55.73 7.95,-82.96 4.18,-27.26 13.24,-52.07 26.59,-75.07 13.91,-23.02 35.07,-41.8 63.57,-56.31 13.91,-6.05 27.81,-10.32 42.39,-12.75 15.12,-2.99 28.45,-4.23 39.93,-4.82 11.48,-0.63 18.79,-0.63 23.07,-0.63 10.28,-0.6 26.06,0.63 48.34,4.27 22.54,3.02 44.83,12.7 67.9,28.44 24.83,21.8 40.62,48.44 48.45,79.33 7.85,30.89 12.14,63.6 13.36,98.72l0 276.08c-1.22,29.07 -3.11,56.31 -6.07,82.96 -3.09,26.65 -10.92,53.27 -23.07,80.51 -13.35,30.31 -30.9,58.78 -51.42,85.39 -20.65,26.65 -43.05,52.08 -66.67,76.29 -23.62,24.23 -47.15,47.86 -70.77,70.85 -18.2,19.98 -36.95,39.37 -56.38,57.52 -19.33,18.79 -38.08,36.93 -56.3,55.13 -50.87,49.04 -98.68,96.84 -144.16,142.89 -44.69,46.62 -86.54,95.06 -124.71,146.53 -38.74,50.85 -73.85,108.39 -105.31,171.98 -32.1,67.78 -56.28,134.42 -73.28,200.42 -16.33,65.98 -28.47,132.61 -35.1,199.8 -6.61,67.83 -12.14,137.46 -15.12,210.12l0 58.13 1271.5 0 0 -363.32 -802.87 0c1.24,-21.15 2.46,-37.53 3.65,-49.64 1.78,-11.5 3.66,-21.78 6.08,-30.27 1.77,-9.07 4.76,-19.99 8.39,-32.69 16.44,-48.44 40.63,-93.87 72.08,-136.87 31.46,-42.98 65.45,-84.14 102.98,-122.31 37.53,-38.12 73.85,-73.85 108.38,-107.77 79.91,-78.12 150.12,-148.34 211.27,-211.3 60.57,-62.39 110.25,-119.92 149.55,-172 38.85,-52.67 66.67,-102.94 82.34,-150.75 7.26,-19.97 12.8,-39.97 16.44,-59.36 4.2,-19.37 7.29,-42.36 9.7,-69.01 1.78,-26.66 4.2,-59.96 6.65,-100.54l0 -319.69c-1.25,-7.28 -3.09,-23.61 -6.1,-50.26 -2.41,-26.03 -7.26,-56.92 -13.33,-90.8 -6.65,-34.53 -15.69,-67.82 -27.81,-98.71 -25.5,-57.54 -59.4,-104.77 -101.11,-141.11 -41.84,-36.31 -87.22,-64.18 -135.65,-84.17 -49.12,-19.97 -96.25,-33.88 -141.74,-42.37 -46.01,-7.87 -85.3,-12.71 -118.65,-13.93 -32.65,-1.82 -55.06,-2.42 -65.99,-1.82 -16.33,-0.6 -41.84,0 -76.93,2.43 -35.1,1.8 -75.07,7.25 -120.53,17.59 -45.38,9.67 -91.94,26.6 -139.18,50.22 -47.24,23.64 -91.52,57.54 -132,100.52 -32.12,37.53 -56.97,75.7 -73.96,115.64 -16.89,39.99 -27.82,81.15 -33.89,124.74 -5.96,43.02 -9.05,89 -8.5,137.45l0 294.27 396.04 0 0 0z"/>
  <path class="fil0" d="M2310.68 378.91c-1068.88,0 -1938.41,869.67 -1938.41,1938.53 0,1068.88 869.53,1938.57 1938.41,1938.57 1068.86,0 1938.38,-869.69 1938.38,-1938.57 0,-1068.86 -869.52,-1938.53 -1938.38,-1938.53l0 0zm0 4226.78c-1261.69,0 -2288.2,-1026.45 -2288.2,-2288.25 0,-1261.79 1026.51,-2288.23 2288.2,-2288.23 1261.79,0 2288.27,1026.44 2288.27,2288.23 0,1261.8 -1026.48,2288.25 -2288.27,2288.25l0 0z"/>
  <path class="fil1" d="M16397.25 1323.02c84.35,0 154.41,0 209.41,0.62 55.49,0.6 100.71,3.02 135.5,6.08 34.82,3.09 63.46,8.57 86.15,16.51 23.17,7.32 43.92,18.31 63.43,31.73 37.32,26.26 64.1,60.42 81.21,103.18 16.51,42.73 27.48,96.45 31.75,161.16 4.86,64.71 7.3,144.07 7.97,237.48 1.16,61.65 1.87,115.38 2.33,161.77 0,46.99 0.67,90.37 0.67,131.86 0.63,40.89 0.63,84.25 0.63,129.42 0,45.15 0,97.07 0,155.68 0,27.45 0,62.87 -0.63,104.97 0,42.14 -0.67,87.3 -1.84,136.75 -0.63,48.83 -2.43,97.68 -3.6,145.92 -1.87,48.84 -3.66,93.38 -6.66,133.69 -2.51,40.28 -5.61,72.64 -9.25,97.67 -9.13,57.39 -25.01,102.56 -47.06,136.14 -22.5,33.58 -50.02,58.61 -83.53,75.1 -33.59,15.86 -72.04,26.85 -115.43,31.13 -43.4,4.88 -90.91,7.33 -142.31,6.7l-208.74 0 0 -2003.56zm157.55 2289.28c69.6,0.6 136.7,-0.63 200.83,-3.7 64.7,-3.04 125.21,-11.58 181.9,-25.61 56.79,-14.08 109.25,-37.26 156.88,-69.62 48.33,-32.34 90.41,-77.51 127,-135.51 29.95,-51.28 52.53,-106.21 66.6,-164.85 13.9,-59.19 23.67,-123.88 27.98,-194.12 5.01,-69.59 7.48,-146.48 7.97,-230.74 2.5,-115.97 4.3,-214.89 4.94,-295.48 1.16,-80.58 1.87,-149.56 2.47,-206.31 0,-57.42 0,-108.68 0,-153.86 0,-124.54 -0.6,-231.38 -1.91,-321.09 -1.83,-89.14 -4.87,-164.85 -9.77,-227.12 -4.87,-62.27 -12.17,-115.34 -21.41,-158.11 -9.77,-43.35 -22.51,-81.19 -38.46,-113.55 -16.36,-32.35 -36.58,-62.86 -60.39,-92.15 -38.45,-48.24 -81.85,-85.49 -128.77,-112.33 -47.69,-26.89 -98.21,-45.8 -152.71,-57.41 -54.22,-11.6 -111.69,-18.94 -171.45,-21.34 -59.3,-2.47 -120.93,-3.7 -184.36,-3.07l-487.19 0 0 2585.97 479.85 0 0 0zm-1926.73 -1150.14c0,-123.92 0,-226.48 0,-308.9 0,-82.43 0,-149.56 0.67,-201.46 0,-51.88 0.63,-94 1.2,-126.36 0,-32.34 1.27,-59.85 1.94,-83.05 1.2,-22.57 2.36,-46.99 3.67,-71.41 1.12,-26.85 3.59,-57.96 7.3,-94.01 2.96,-35.42 10.26,-71.41 20.67,-108.65 11.08,-37.25 26.85,-72.03 49.53,-103.78 21.91,-31.73 51.82,-57.39 89.68,-76.95 37.89,-20.12 86.07,-29.88 144.07,-30.51 71.4,0.63 127.57,15.27 167.99,42.74 40.22,27.46 69.54,62.27 87.78,105.64 17.7,42.7 29.35,88.48 33.65,136.09 4.8,47.65 7.27,91.58 7.27,133.11 1.8,100.72 3.14,202.04 3.67,304.03 0.63,101.92 1.8,203.25 3.59,304 1.35,70.2 1.35,144.65 0,223.43 -0.49,78.75 -2.96,157.5 -6.1,236.86 -2.96,79.35 -7.27,155.65 -12.13,228.3 -1.77,42.76 -6.07,87.91 -12.25,134.91 -6.1,47.63 -18.83,91.6 -37.21,133.72 -18.28,41.48 -47.56,75.07 -86.65,101.33 -39.12,26.25 -92.78,39.68 -160.54,40.28 -67.74,-0.6 -121.61,-12.22 -161.86,-36.03 -40.22,-23.18 -70.24,-54.93 -90.27,-94.63 -20.22,-39.65 -32.95,-84.84 -39.76,-134.28 -6.6,-50.08 -10.3,-101.33 -10.3,-154.46 -0.6,-53.72 -1.27,-105.6 -1.8,-155.65 -1.31,-40.3 -1.94,-73.26 -2.51,-98.92 0,-25 -0.63,-48.24 -0.63,-68.97 -0.67,-20.74 -0.67,-45.16 -0.67,-71.41 0,-26.9 0,-61.66 0,-105.01l0 0zm948.76 -179.47c0,-14.68 0,-42.73 0.6,-84.27 0.53,-40.9 0.53,-90.34 0.53,-148.33 0,-57.38 -0.53,-117.81 -1.13,-181.32 -0.57,-63.49 -2.4,-125.14 -4.84,-184.33 -1.83,-59.24 -5.5,-111.73 -9.8,-156.31 -2.47,-28.69 -7.91,-65.32 -15.91,-109.87 -8.58,-44.55 -23.82,-91.6 -45.72,-141.01 -21.38,-49.48 -53.8,-96.47 -97.09,-140.43 -42.72,-43.95 -99.52,-79.97 -170.95,-108.05 -71.41,-27.45 -160.48,-42.13 -267.37,-42.72 -116.56,1.19 -213.68,16.47 -291.22,46.99 -78.14,30.51 -140.44,69.59 -186.83,117.23 -47.03,48.19 -82.34,98.27 -106.19,151.41 -23.81,53.08 -39.76,102.54 -48.82,148.92 -8.51,46.4 -13.48,83.02 -15.24,110.51 -1.87,23.81 -3.71,56.76 -5.01,99.51 -1.8,42.73 -3,90.95 -4.77,145.27 -1.2,53.74 -2.5,109.91 -3.66,168.49 -0.67,58.62 -1.87,115.4 -2.51,170.95 -0.49,55.54 -1.16,106.24 -1.8,151.4 -0.63,45.77 -0.63,82.42 -0.63,110.49 0,58.61 0,123.32 0,195.37 0,71.41 0.63,143.45 1.94,217.3 1.13,73.25 3.67,142.23 7.3,206.94 3.6,64.71 9.14,119.65 16.4,164.24 5.47,36.61 15.88,78.13 31.79,125.15 16.44,46.99 41.41,93.37 75.74,139.19 34.08,46.39 81.17,86.06 141.61,120.28 40.25,21.33 81.84,37.81 122.59,48.22 41.59,10.33 81.31,17.68 119.76,20.74 38.42,3.07 73.88,4.24 105.55,4.24 106.16,-0.61 196.57,-13.41 269.32,-39.05 73.2,-25.01 132.99,-59.82 179.42,-104.4 46.35,-43.94 82.34,-95.24 107.98,-152.59 25.69,-57.39 43.92,-117.84 55.64,-182.57 10.97,-64.71 18.27,-129.38 21.27,-195.32 3.1,-48.85 5.61,-103.17 7.94,-161.79 2.47,-58.6 4.94,-119.04 7.44,-181.91 1.83,-62.25 3.67,-123.35 4.8,-182.52 1.3,-59.85 1.87,-115.41 1.87,-166.05l0 0zm-2615.21 -963.35c82.47,0 150.74,0 204.43,0.6 54.43,0.63 97.68,2.46 131.97,5.54 33.45,2.41 60.96,7.33 82.98,14.04 21.9,6.08 42.12,15.86 60.46,27.45 40.93,26.25 70.1,60.45 88.52,102.58 18.3,42.1 29.77,89.12 34.07,140.38 4.31,51.28 6.18,103.19 5.47,156.27 0.71,32.37 0,67.8 -1.76,106.25 -1.87,38.44 -6.03,76.9 -13.48,115.39 -7.94,38.47 -20.04,73.84 -37.11,106.82 -17.18,32.96 -40.92,60.45 -72.07,81.8 -16.55,11.58 -34.26,20.73 -53.8,27.44 -19.4,6.76 -45.72,11.64 -78.04,14.06 -32.45,3.05 -76.97,4.9 -133.17,5.5 -55.49,0.62 -128.76,0.62 -218.47,0.62l0 -904.74zm582.4 1124.48c23.17,-4.86 51.85,-14.63 87.31,-29.27 34.78,-14.65 70.73,-39.69 106.18,-75.69 35.99,-36.03 66.61,-89.13 92.11,-158.75 19.05,-48.19 33.66,-111.11 45.2,-188.01 10.97,-77.53 17.11,-164.82 17.11,-262.5 -0.57,-128.83 -13.41,-236.25 -38.42,-322.34 -25.05,-85.46 -59.83,-153.83 -104.42,-205.1 -44.56,-51.31 -95.85,-89.76 -153.85,-114.8 -58.03,-25.61 -120.26,-42.08 -186.23,-50.02 -65.94,-7.94 -133.67,-11.64 -202.07,-11.01l-564.09 0 0 2585.97 318.77 0 0 -1131.81 267.37 0 439.56 1131.81 340.64 0 -465.17 -1168.48 0 0zm-2347.99 18.34c0,-123.92 0,-226.48 0,-308.9 0,-82.43 0,-149.56 0.64,-201.46 0,-51.88 0.67,-94 1.2,-126.36 0,-32.34 1.3,-59.85 1.94,-83.05 1.2,-22.57 2.33,-46.99 3.67,-71.41 1.2,-26.85 3.63,-57.96 7.3,-94.01 2.96,-35.42 10.41,-71.41 20.71,-108.65 11.07,-37.25 26.81,-72.03 49.53,-103.78 21.9,-31.73 51.82,-57.39 89.74,-76.95 37.82,-20.12 86.01,-29.88 143.97,-30.51 71.44,0.63 127.57,15.27 168,42.74 40.25,27.46 69.56,62.27 87.84,105.64 17.67,42.7 29.28,88.48 33.55,136.09 4.97,47.65 7.33,91.58 7.33,133.11 1.8,100.72 3.11,202.04 3.64,304.03 0.63,101.92 1.83,203.25 3.67,304 1.27,70.2 1.27,144.65 0,223.43 -0.53,78.75 -3.04,157.5 -6.14,236.86 -2.97,79.35 -7.3,155.65 -12.14,228.3 -1.83,42.76 -6.1,87.91 -12.24,134.91 -6.1,47.63 -18.87,91.6 -37.29,133.72 -18.2,41.48 -47.55,75.07 -86.6,101.33 -39.13,26.25 -92.79,39.68 -160.52,40.28 -67.8,-0.6 -121.6,-12.22 -161.85,-36.03 -40.25,-23.18 -70.24,-54.93 -90.31,-94.63 -20.18,-39.65 -32.95,-84.84 -39.76,-134.28 -6.63,-50.08 -10.27,-101.33 -10.27,-154.46 -0.63,-53.72 -1.3,-105.6 -1.83,-155.65 -1.27,-40.3 -1.94,-73.26 -2.47,-98.92 0,-25 -0.67,-48.24 -0.67,-68.97 -0.64,-20.74 -0.64,-45.16 -0.64,-71.41 0,-26.9 0,-61.66 0,-105.01l0 0zm948.73 -179.47c0,-14.68 0,-42.73 0.63,-84.27 0.64,-40.9 0.64,-90.34 0.64,-148.33 0,-57.38 -0.64,-117.81 -1.27,-181.32 -0.57,-63.49 -2.33,-125.14 -4.8,-184.33 -1.83,-59.24 -5.54,-111.73 -9.77,-156.31 -2.54,-28.69 -8.01,-65.32 -15.95,-109.87 -8.46,-44.55 -23.84,-91.6 -45.72,-141.01 -21.34,-49.48 -53.8,-96.47 -97.08,-140.43 -42.76,-43.95 -99.52,-79.97 -170.96,-108.05 -71.36,-27.45 -160.51,-42.13 -267.37,-42.72 -116.59,1.19 -213.68,16.47 -291.22,46.99 -78.17,30.51 -140.4,69.59 -186.79,117.23 -47.06,48.19 -82.38,98.27 -106.22,151.41 -23.85,53.08 -39.73,102.54 -48.86,148.92 -8.5,46.4 -13.44,83.02 -15.24,110.51 -1.87,23.81 -3.67,56.76 -4.8,99.51 -2.01,42.73 -3.14,90.95 -4.97,145.27 -1.2,53.74 -2.47,109.91 -3.67,168.49 -0.67,58.62 -1.8,115.4 -2.44,170.95 -0.56,55.54 -1.2,106.24 -1.83,151.4 -0.57,45.77 -0.57,82.42 -0.57,110.49 0,58.61 0,123.32 0,195.37 0,71.41 0.57,143.45 1.84,217.3 1.2,73.25 3.63,142.23 7.34,206.94 3.59,64.71 9.1,119.65 16.4,164.24 5.47,36.61 15.87,78.13 31.78,125.15 16.44,46.99 41.46,93.37 75.68,139.19 34.14,46.39 81.21,86.06 141.64,120.28 40.25,21.33 81.81,37.81 122.73,48.22 41.48,10.33 81.17,17.68 119.66,20.74 38.42,3.07 73.84,4.24 105.52,4.24 106.22,-0.61 196.6,-13.41 269.31,-39.05 73.27,-25.01 133.03,-59.82 179.45,-104.4 46.39,-43.94 82.31,-95.24 107.99,-152.59 25.65,-57.39 43.96,-117.84 55.63,-182.57 10.94,-64.71 18.28,-129.38 21.42,-195.32 2.96,-48.85 5.46,-103.17 7.76,-161.79 2.47,-58.6 5.01,-119.04 7.48,-181.91 1.83,-62.25 3.59,-123.35 4.76,-182.52 1.3,-59.85 1.87,-115.41 1.87,-166.05l0 0zm-1545.73 1040.21l-758.23 0 0 -2296.57 -325.96 0 0 2585.97 1084.19 0 0 -289.4zm-2695.75 -318.64c-0.67,65.32 4.86,128.8 15.87,191.68 10.97,62.88 31.08,121.48 59.87,177.04 29.17,55.56 71.36,104.4 125.73,147.72 17.04,15.3 43.21,32.97 79.3,52.51 35.98,20.15 83.72,37.22 141.68,52.5 57.96,14.64 128.2,22.57 211.17,23.18 39.62,0.63 86.01,-3.64 139.81,-11.58 53.09,-8.54 108.02,-24.41 164.88,-48.23 56.17,-23.81 108.62,-57.99 156.88,-103.76 48.86,-45.78 88.45,-105.63 118.4,-180.13 29.84,-74.45 45.72,-166.04 46.39,-275.3 0,-73.25 -6.14,-138.58 -18.38,-195.95 -12.1,-56.77 -30.48,-109.27 -55.49,-158.14 -25.65,-48.24 -57.33,-97.04 -95.89,-145.26 -38.98,-48.22 -84.84,-100.13 -137.97,-156.29l-325.93 -340.63c-45.86,-48.23 -84.81,-90.37 -116.6,-127.58 -32.27,-36.67 -58.59,-72.04 -78.7,-105.03 -19.65,-33.57 -34.26,-68.35 -44.03,-105.61 -9.13,-36.62 -13.4,-79.35 -13.4,-126.98 -0.67,-15.25 0.67,-35.37 2.43,-60.42 1.2,-24.41 6.7,-51.28 14.64,-79.35 8.57,-28.72 22.02,-55.56 41.56,-80.59 18.91,-25.66 45.75,-46.38 79.83,-62.26 34.96,-16.49 78.85,-24.43 132.54,-25.04 56.13,0.61 102.06,9.17 136.81,25.62 34.78,16.48 60.96,37.26 79.34,61.08 18.24,23.79 31.18,46.99 38.49,69.56 7.23,21.99 11.57,39.7 12.77,52.53 1.76,10.97 3.1,23.21 4.27,35.37 1.27,12.24 2.46,28.7 2.99,49.47 1.31,21.37 1.94,50.07 3.11,87.3 1.16,36.62 2.47,85.46 4.3,146.53l281.98 0c0,-94.66 0,-173.41 -1.2,-235.67 -0.64,-62.87 -3.64,-115.35 -7.94,-156.88 -4.27,-41.52 -11.57,-77.55 -22.01,-107.46 -9.77,-30.5 -23.67,-60.44 -42.05,-89.75 -29.85,-47.61 -64.77,-84.83 -105.03,-113.5 -39.61,-28.71 -81.73,-50.09 -125.73,-64.13 -43.95,-14.04 -86.67,-23.81 -128.9,-28.68 -41.45,-4.27 -79.31,-6.7 -112.85,-6.1 -99.56,0.59 -183.73,12.2 -253.4,34.78 -68.9,22.61 -125.1,52.49 -169.02,90.35 -44.52,37.25 -78.81,78.16 -103.19,123.33 -24.48,45.15 -42.08,90.36 -52.53,135.52 -10.93,45.76 -17.71,87.3 -19.54,125.73 -2.43,38.47 -3.63,70.22 -2.96,94.64 -0.67,58.01 3.67,112.95 11.57,164.24 8.46,51.25 23.1,101.31 44.59,151.4 21.34,49.44 51.82,101.32 90.27,154.41 39.09,53.75 89.12,111.72 150.22,174.63l351.58 358.95c48.86,48.81 91.58,95.84 127.07,139.79 35.24,43.97 62.76,91.59 81.66,141.62 19.65,50.06 29.43,109.29 29.43,176.44 -0.6,70.19 -12.92,126.34 -36.69,169.09 -23.25,43.36 -52.53,75.72 -87.88,97.69 -35.38,22.58 -70.87,37.23 -107.49,45.15 -35.95,7.34 -67.06,11 -93.91,10.41 -56.83,-0.63 -103.86,-9.16 -141.68,-25.67 -37.92,-16.49 -67.73,-37.82 -90.38,-63.48 -22.58,-26.25 -39.09,-53.11 -50.73,-81.81 -10.93,-28.68 -18.2,-54.94 -22.5,-79.35 -3.67,-24.42 -5.47,-43.32 -6.14,-57.41 -1.2,-10.95 -1.84,-23.19 -2.47,-36.61 0,-12.8 -0.53,-30.51 -0.53,-53.7 -0.67,-22.6 -0.67,-54.93 -0.67,-95.84 0,-40.93 0,-94.62 0,-161.79l-307.62 0 0 285.7zm-358.96 -1977.93l-318.7 0 0 2585.97 318.7 0 0 -2585.97zm-1190.37 974.3l607.94 -974.3 -355.18 0 -666.75 1113.51 0 -1113.51 -318.59 0 0 2585.97 318.59 0 0 -1010.94 205.11 -311.32 461.64 1322.26 355.18 0 -607.94 -1611.67 0 0z"/>
 </g>
</svg>
