<svg width="1500" height="165" viewBox="0 0 1500 165" fill="none" xmlns="http://www.w3.org/2000/svg">
<path d="M1457.1 6.8999V65.9999H1336.5V6.8999H1293.6V158.7H1336.5V99.5998H1457.1V158.7H1500V6.8999H1457.1Z" fill="#181818"/>
<path d="M402.301 3.8999H355.801C317.101 3.8999 285.601 37.4999 285.601 78.8999V86.6998C285.601 128.1 317.101 161.7 355.801 161.7H402.301C441.001 161.7 472.5 128.1 472.5 86.6998V78.8999C472.5 37.4999 441.001 3.8999 402.301 3.8999ZM433.2 85.1998C433.2 109.2 414.901 129 392.101 129H366.001C343.501 129 325.201 109.5 325.201 85.1998V80.6998C325.201 56.3998 343.501 36.8999 366.001 36.8999H392.101C414.901 36.8999 433.2 56.6998 433.2 80.6998V85.1998Z" fill="#181818"/>
<path d="M1182.3 128.699H1156.2C1133.7 128.699 1115.4 108.9 1115.4 84.8996V80.3996C1115.4 56.0996 1133.7 36.2996 1156.2 36.2996H1182.3C1198.8 36.2996 1212.9 46.4996 1219.5 61.4996H1260.9C1253.7 28.1996 1225.8 3.29956 1192.5 3.29956H1146C1107.3 3.29956 1075.8 36.8995 1075.8 78.2995V86.0995C1075.8 127.499 1107.3 161.099 1146 161.099H1192.5C1226.1 161.099 1254 135.899 1260.9 102.599H1219.5C1212.9 118.499 1198.8 128.699 1182.3 128.699Z" fill="#181818"/>
<path d="M689.7 36.8999V37.7999H753.6V158.7H790.8V37.7999H854.7V6.8999H690L689.7 36.8999Z" fill="#181818"/>
<path d="M923.4 37.7999V68.6998H1038.6V96.5998H923.4V128.1H1038.6V158.7H886.2V6.8999H1038.6V37.7999H923.4Z" fill="#181818"/>
<path d="M576.902 70.4999L532.502 6.8999H481.502L558.902 108.6V158.7H596.102V107.7L597.602 105.9L671.102 8.69983L672.302 6.8999H621.302L576.902 70.4999Z" fill="#181818"/>
<path d="M209.1 0.299927V105.3C209.1 118.5 195.9 129 179.7 129C171.9 129 164.7 126.6 159.3 122.1C153.9 117.6 150.6 111.6 150.6 105.3V62.6999C150.6 46.7999 142.8 31.8 128.7 20.4C114.3 8.99996 95.4 2.69989 75.3 2.69989C33.6 2.69989 0 29.4 0 62.3999V165H46.2V62.3999C46.2 49.2 59.4 38.6999 75.3 38.6999C83.1 38.6999 90.6 41.0998 95.7 45.5998C101.1 50.0998 104.4 56.1 104.4 62.3999V105C104.4 120.9 112.2 135.9 126.3 147.3C140.7 158.7 159.6 165 179.7 165C221.4 165 255 138 255 105V0H209.1V0.299927Z" fill="#181818"/>
</svg>
