<?xml version="1.0"?>
<svg width="420" height="310" xmlns="http://www.w3.org/2000/svg" xmlns:svg="http://www.w3.org/2000/svg">
 <g class="layer">
  <title>Layer 1</title>
  <path clip-rule="evenodd" d="m147.57,114.43l-34.65,-22.16l-112.92,112.77l147.57,-90.61z" fill="#19355C" fill-rule="evenodd" id="svg_1"/>
  <path clip-rule="evenodd" d="m147.57,114.43l26.53,31.58l-44.93,-20.33l18.4,-11.25z" fill="#19355C" fill-rule="evenodd" id="svg_2"/>
  <path d="m377.72,246.53c1.82,-1.98 3.65,-3.97 5.47,-5.95c1.82,-2.15 3.81,-4.13 5.47,-6.12c1.83,-1.98 3.48,-3.97 4.98,-5.79c1.65,-1.81 2.98,-3.47 4.14,-4.79l21.56,0c-4.31,4.96 -8.46,9.59 -12.6,14.05c-4.15,4.47 -8.63,9.1 -13.44,13.89c2.49,2.15 4.98,4.8 7.47,7.78c2.65,2.97 5.14,6.11 7.46,9.42c2.48,3.31 4.64,6.45 6.63,9.76c1.99,3.3 3.65,6.11 5.14,8.93l-20.73,0c-1.32,-2.15 -2.82,-4.47 -4.47,-6.95c-1.66,-2.48 -3.32,-5.13 -5.31,-7.61c-1.82,-2.47 -3.81,-4.96 -5.97,-7.27c-1.99,-2.32 -4.14,-4.3 -6.13,-5.95l0,27.94l-18.08,0l0,-91.11l18.08,-2.98l0,52.75l0.33,0zm-62.35,-24.47c5.31,0 9.79,0.66 13.43,1.82c3.49,1.16 6.47,2.98 8.63,5.12c2.15,2.32 3.64,4.96 4.47,8.27c0.83,3.31 1.33,6.78 1.33,10.75l0,37.54c-2.65,0.49 -6.14,1.15 -10.78,1.98c-4.64,0.83 -10.11,1.16 -16.75,1.16c-4.14,0 -7.79,-0.33 -11.27,-1.16c-3.32,-0.66 -6.3,-1.98 -8.62,-3.64c-2.49,-1.65 -4.31,-3.8 -5.64,-6.45c-1.33,-2.64 -1.99,-5.95 -1.99,-9.75c0,-3.64 0.83,-6.78 2.32,-9.43c1.49,-2.64 3.48,-4.63 5.97,-6.12c2.49,-1.48 5.31,-2.64 8.62,-3.3c3.32,-0.66 6.64,-0.99 10.12,-0.99c2.32,0 4.47,0.16 6.3,0.33c1.82,0.16 3.31,0.49 4.48,0.82l0,-1.65c0,-3.14 -1,-5.46 -2.82,-7.44c-1.83,-1.82 -5.14,-2.81 -9.79,-2.81c-3.15,0 -6.13,0.16 -9.12,0.66c-2.98,0.49 -5.63,0.99 -7.79,1.82l-2.32,-14.55c0.99,-0.34 2.32,-0.66 3.98,-1c1.66,-0.33 3.31,-0.66 5.14,-0.99c1.82,-0.33 3.81,-0.49 5.97,-0.66c1.99,-0.16 3.98,-0.33 6.13,-0.33zm1.5,52.75c1.82,0 3.48,0 5.14,-0.17c1.65,0 2.98,-0.16 3.81,-0.33l0,-13.72c-0.66,-0.17 -1.82,-0.33 -3.32,-0.5c-1.49,-0.16 -2.82,-0.16 -3.98,-0.16c-1.65,0 -3.31,0.16 -4.81,0.33c-1.49,0.16 -2.81,0.66 -3.97,1.16c-1.17,0.49 -1.99,1.32 -2.66,2.31c-0.66,0.99 -0.99,2.15 -0.99,3.64c0,2.81 0.99,4.79 2.82,5.95c1.99,0.99 4.64,1.49 7.96,1.49zm-55.88,-25.63c0,-1.49 -0.34,-2.98 -0.83,-4.47c-0.5,-1.48 -1.16,-2.81 -1.99,-3.8c-1,-1.16 -2.16,-1.98 -3.48,-2.81c-1.5,-0.66 -3.15,-1.16 -5.31,-1.16c-1.99,0 -3.81,0.33 -5.14,0.99c-1.49,0.67 -2.65,1.66 -3.65,2.65c-0.99,1.16 -1.66,2.48 -2.32,3.97c-0.5,1.49 -0.83,2.97 -1.16,4.46l23.88,0l0,0.17zm-42.45,6.94c0,-5.62 0.83,-10.58 2.65,-14.88c1.66,-4.3 3.98,-7.77 6.8,-10.58c2.82,-2.81 6.14,-4.96 9.78,-6.45c3.65,-1.49 7.47,-2.15 11.28,-2.15c9.12,0 16.25,2.81 21.55,8.27c5.31,5.45 7.96,13.72 7.96,24.47c0,0.99 0,2.15 -0.16,3.47c0,1.33 -0.17,2.32 -0.17,3.31l-41.12,0c0.33,3.64 2.16,6.61 5.14,8.76c3.15,2.15 7.13,3.31 12.44,3.31c3.31,0 6.63,-0.33 9.78,-0.83c3.15,-0.66 5.8,-1.32 7.79,-2.31l2.49,14.72c-1,0.49 -2.32,0.99 -3.81,1.48c-1.66,0.5 -3.49,0.83 -5.48,1.33c-1.99,0.33 -4.14,0.66 -6.3,0.82c-2.32,0.17 -4.47,0.33 -6.79,0.33c-5.81,0 -10.78,-0.82 -14.93,-2.48c-4.31,-1.65 -7.79,-3.96 -10.61,-6.94c-2.82,-2.98 -4.81,-6.45 -6.14,-10.42c-1.49,-4.3 -2.15,-8.6 -2.15,-13.23zm-10.94,-0.49c0,4.96 -0.67,9.42 -1.83,13.39c-1.16,3.97 -2.98,7.44 -5.3,10.42c-2.33,2.98 -5.31,5.12 -8.79,6.78c-3.48,1.65 -7.46,2.48 -11.94,2.48c-2.49,0 -4.81,-0.17 -6.97,-0.66c-2.15,-0.5 -4.31,-1.16 -6.29,-1.99l0,23.98l-18.24,0l0,-83.84c1.65,-0.49 3.48,-0.99 5.63,-1.32c2.16,-0.49 4.31,-0.83 6.63,-1.16c2.33,-0.33 4.65,-0.66 6.97,-0.82c2.32,-0.17 4.64,-0.33 6.8,-0.33c5.3,0 9.95,0.82 14.09,2.31c4.15,1.65 7.63,3.8 10.45,6.62c2.82,2.81 4.97,6.28 6.46,10.41c1.5,3.97 2.33,8.6 2.33,13.73zm-18.41,0.49c0,-5.62 -1.33,-10.08 -3.81,-13.39c-2.49,-3.31 -6.3,-4.96 -11.11,-4.96c-1.66,0 -3.15,0 -4.48,0.16c-1.33,0.17 -2.49,0.33 -3.31,0.5l0,32.57c1.15,0.67 2.65,1.33 4.47,1.82c1.82,0.5 3.65,0.67 5.47,0.67c8.46,-0.17 12.77,-5.96 12.77,-17.37zm-112.42,-30.26c3.15,-0.82 6.97,-1.65 11.94,-2.48c4.81,-0.82 9.95,-1.15 15.25,-1.15c5.48,0 9.95,0.66 13.6,2.15c3.65,1.48 6.47,3.47 8.62,5.95c2.16,2.64 3.65,5.62 4.48,9.26c0.83,3.47 1.33,7.44 1.33,11.9l0,35.89l-18.24,0l0,-33.74c0,-5.78 -0.83,-9.92 -2.32,-12.4c-1.5,-2.48 -4.48,-3.64 -8.63,-3.64c-1.32,0 -2.65,0 -4.14,0.17c-1.5,0.16 -2.82,0.33 -3.82,0.49l0,49.12l-18.07,0l0,-61.52zm-32.5,29.6c0,-5.62 -1.16,-9.92 -3.31,-13.06c-2.16,-3.14 -5.48,-4.8 -9.46,-4.8c-4.14,0 -7.29,1.66 -9.61,4.8c-2.32,3.14 -3.32,7.6 -3.32,13.06c0,5.62 1.16,9.92 3.32,13.23c2.32,3.31 5.47,4.96 9.61,4.96c4.15,0 7.3,-1.65 9.46,-4.96c2.32,-3.31 3.31,-7.61 3.31,-13.23zm18.57,0c0,4.96 -0.66,9.59 -2.15,13.73c-1.5,4.13 -3.48,7.77 -6.3,10.58c-2.82,2.98 -5.97,5.29 -9.95,6.78c-3.82,1.65 -8.13,2.48 -12.94,2.48c-4.64,0 -8.95,-0.83 -12.76,-2.48c-3.82,-1.66 -7.13,-3.97 -9.95,-6.78c-2.82,-2.98 -4.98,-6.45 -6.47,-10.58c-1.49,-4.14 -2.32,-8.77 -2.32,-13.73c0,-4.96 0.83,-9.59 2.32,-13.72c1.66,-4.14 3.82,-7.61 6.63,-10.59c2.82,-2.97 6.14,-5.12 9.95,-6.77c3.82,-1.66 7.96,-2.49 12.6,-2.49c4.65,0 8.79,0.83 12.77,2.49c3.82,1.65 7.13,3.8 9.95,6.77c2.82,2.98 4.97,6.45 6.47,10.59c1.32,4.13 2.15,8.76 2.15,13.72z" fill="#19355C" id="svg_3"/>
  <path clip-rule="evenodd" d="m174.1,146.01l88.05,-146.01l-114.58,114.43l26.53,31.58z" fill="#19355C" fill-rule="evenodd" id="svg_4"/>
  <path clip-rule="evenodd" d="m262.15,0l157.19,176.6l-167.47,-159.57l10.28,-17.03z" fill="#19355C" fill-rule="evenodd" id="svg_5"/>
 </g>
</svg>