<?xml version="1.0"?>
<svg width="560" height="151" xmlns="http://www.w3.org/2000/svg" xmlns:svg="http://www.w3.org/2000/svg">
 <g class="layer">
  <title>Layer 1</title>
  <path d="m51.19,34.44c0,-0.72 0,-1.79 -1.09,-1.79l-1.45,0l-7.26,1.79c-0.36,0 -1.09,0.36 -1.09,1.79l0,34.43c-8.35,-7.53 -13.8,-7.53 -15.61,-7.53c-7.99,0 -24.69,3.59 -24.69,34.07c0,28.69 15.61,32.28 22.87,32.28c11.98,0 18.52,-6.1 18.52,-6.1c0.72,3.23 1.09,7.18 3.63,5.74l5.45,-3.23c0.36,-0.35 1.45,-0.71 1.45,-1.07c0,-0.72 -0.73,-12.55 -0.73,-17.93l0,-72.45zm-10.53,81.77c0,0 -6.53,5.74 -16.7,5.74c-12.34,0 -12.34,-15.78 -12.34,-25.82c0,-11.84 1.09,-24.75 14.88,-24.75c4.36,0 9.81,2.15 13.8,4.31l0,40.52l0.36,0zm45.38,-53.08c-15.97,0 -27.59,12.2 -27.59,33.36c0,25.82 16.7,33.35 30.5,33.35c6.17,0 11.62,-1.79 15.61,-3.59c4.36,-1.79 5.08,-2.87 5.08,-3.22l0,-0.72l-2.54,-5.74c0,-0.36 -0.36,-0.72 -0.72,-0.72l-0.37,0c-0.36,0 -1.09,0.36 -1.81,0.72c-4.72,2.51 -9.44,4.66 -15.25,4.66c-9.08,0 -19.24,-6.45 -19.24,-21.87l0,-0.72l39.93,0c1.09,0 1.46,-0.36 1.46,-2.15l0,-1.08c0,-26.54 -13.44,-32.28 -25.06,-32.28zm-16.33,27.26c0.36,-13.99 7.98,-19.37 15.25,-19.37c4.72,0 9.43,1.8 12.34,7.89c2.18,5.02 2.18,10.4 2.18,11.12c0,0.36 -29.77,0.36 -29.77,0.36zm110.37,-27.26c-5.81,0 -11.26,2.15 -19.61,7.89c-2.54,-5.38 -6.9,-7.89 -12.71,-7.89c-8.35,0 -13.79,3.59 -19.6,7.89c-0.36,-1.79 -1.45,-5.38 -2.18,-6.81c-0.73,-1.79 -1.81,-1.08 -2.54,-0.72l-6.17,3.23c-0.36,0 -0.73,0.36 -0.73,0.72c0,0 0,0.36 0.37,1.07c1.08,1.8 2.17,3.95 2.17,12.91l0,45.19c0,1.44 0.73,1.8 1.82,1.8l7.26,0c1.45,0 1.81,-0.72 1.81,-1.8l0,-49.13c4.36,-3.23 8.35,-5.38 13.44,-5.38c8.71,0 9.07,7.17 9.07,10.76l0,43.75c0,1.44 0.73,1.8 1.82,1.8l7.26,0c0.73,0 1.82,0 1.82,-1.8l0,-49.13l1.09,-0.72c0.72,-0.36 6.53,-4.66 12.34,-4.66c8.71,0 9.08,7.17 9.08,10.76l0,43.75c0,1.44 0.72,1.8 1.81,1.8l7.26,0c0.73,0 1.82,0 1.82,-1.8l0,-43.39c-1.46,-8.61 -2.18,-20.09 -16.7,-20.09zm35.21,1.8l-7.26,0c-0.72,0 -1.81,0 -1.81,1.79l0,59.89c0,1.44 0.72,1.8 1.81,1.8l7.26,0c0.73,0 1.82,0 1.82,-1.8l0,-59.89c0,-0.72 0,-1.79 -1.82,-1.79zm-2.54,-27.26c-3.99,0 -7.26,3.23 -7.26,7.17c0,3.95 3.27,7.18 7.26,7.18c4,0 7.26,-3.23 7.26,-7.18c0,-3.94 -3.26,-7.17 -7.26,-7.17zm41.39,54.87c-8.71,-3.59 -14.52,-5.74 -14.52,-12.19c0,-4.66 3.63,-8.97 11.62,-8.97c3.63,0 7.26,0.72 12.34,2.87c0.73,0.36 1.09,0.36 2.18,0.72c0.36,0 1.09,0 1.45,-1.08l2.54,-5.02c0.37,-0.36 0.73,-1.43 -1.45,-2.51c-1.82,-1.08 -5.45,-2.15 -7.62,-2.51c-3.63,-0.72 -7.63,-1.43 -10.53,-1.43c-13.07,0 -21.79,7.53 -21.79,17.93c0,11.12 9.08,14.7 18.88,18.65c8.72,3.58 14.16,5.73 14.16,11.83c0,5.74 -4.35,9.33 -12.34,9.33c-4.72,0 -10.89,-1.44 -14.53,-3.23c-2.17,-1.08 -3.26,-1.44 -3.99,-1.79l-0.36,0c-0.73,0 -0.73,0.35 -0.73,0.71l-2.9,5.38l0,1.08c0,1.07 2.18,1.79 2.54,2.15c3.63,1.79 12.34,4.3 19.97,4.3c11.98,0 23.96,-6.09 23.96,-18.29c0,-10.4 -9.8,-14.34 -18.88,-17.93zm130.7,-18.29l3.27,-7.17c0.36,-0.36 0.72,-1.44 -1.09,-1.8c-1.45,-0.35 -3.27,-1.07 -5.45,-1.07c-7.26,0 -11.61,5.38 -14.88,8.96l-1.82,2.16c-0.36,-2.51 -1.45,-6.1 -3.26,-8.97c-0.37,-0.72 -1.09,-1.79 -2.18,-2.15l-0.37,0c-0.36,0 -0.36,0.36 -1.08,0.36l-5.45,3.58c-0.36,0.36 -0.36,0.36 -0.36,1.08c0,0.72 0.36,1.08 0.36,1.43l1.09,1.8c1.45,2.87 2.18,5.74 2.18,10.04l0,45.19c0,0.72 0,1.79 1.81,1.79l7.26,0c1.45,0 1.82,-0.72 1.82,-1.79l0,-43.04l2.18,-2.51c2.54,-3.23 6.89,-7.89 10.89,-7.89c0.72,0 1.81,0 2.54,0.36c1.09,0.36 1.09,0.72 1.45,0.72c0.73,-0.36 1.09,-0.72 1.09,-1.08zm26.5,-10.4c-11.98,0 -27.22,7.17 -27.22,33.35c0,26.18 15.61,33.36 27.22,33.36c11.62,0 27.23,-7.18 27.23,-33.36c0.37,-26.18 -15.25,-33.35 -27.23,-33.35zm0,58.82c-15.24,0 -15.97,-18.29 -15.97,-25.11c0,-6.81 0.73,-25.1 15.97,-25.1c15.25,0 15.98,18.29 15.98,25.1c0.36,6.82 -0.36,25.11 -15.98,25.11zm-63.17,-56.67c-0.36,-2.15 -2.18,-3.58 -4.35,-3.58c-5.45,0.71 -9.08,2.86 -10.53,4.66c-4.36,-2.51 -9.44,-4.31 -14.53,-4.31c-13.07,0 -26.14,9.69 -26.14,21.52c0,7.53 5.09,13.99 11.99,17.93c0,0 0,0.36 -0.37,0.36c-1.81,1.44 -5.44,3.59 -6.9,6.1c-1.45,2.87 -0.72,5.38 0,6.46c2.55,5.02 10.9,5.73 23.24,6.81l2.54,0.36c10.53,1.07 14.89,6.45 14.89,10.76c0,5.38 -7.26,11.12 -17.79,11.12c-11.98,0 -14.16,-4.31 -15.98,-6.82c-0.36,-0.72 -0.36,-2.51 -0.36,-2.87c1.45,-3.58 -1.45,-5.38 -3.63,-6.09c-2.54,-0.36 -5.08,0 -6.17,2.15c-1.82,3.22 -1.82,7.17 0.36,10.4c2.18,3.58 8.71,10.04 26.5,10.04l0.73,0c16.7,0 26.14,-8.97 26.5,-17.57c0.37,-8.61 -4.35,-19.01 -21.78,-19.73c-17.07,-0.72 -19.97,0 -19.97,-2.87c0,-3.23 10.17,-5.38 13.43,-5.38c12.71,-0.72 24.33,-10.04 24.33,-21.52c0,-4.66 -1.82,-8.96 -5.08,-12.19c0.72,-0.72 2.17,-1.43 5.44,-1.79c2.18,0.36 3.63,-1.8 3.63,-3.95zm-29.77,33.71c-8.35,0 -15.25,-7.53 -15.25,-15.06c0,-7.17 7.63,-14.7 15.98,-14.7c8.35,0 14.52,7.17 14.52,14.7c0,7.53 -6.9,15.06 -15.25,15.06z" fill="#000000" id="svg_1"/>
  <path d="m495.18,119.57c-0.72,-1.82 -1.08,-3.64 -1.08,-5.46l0,-50.98c0,0 0,-0.37 -0.37,-0.37c0,0 -0.36,-0.36 -1.81,0l-9.42,1.83c-0.36,0 -1.08,0.36 -1.08,1.82l0,48.43c-3.99,2.91 -8.34,5.46 -14.13,5.46c-5.44,0 -8.7,-1.09 -8.7,-9.47l0,-47.34c-0.36,-0.36 -1.09,-0.36 -1.81,-0.36l-9.06,1.82c-0.36,0 -1.09,0.36 -1.09,1.82l0,44.42c0,9.11 1.81,20.03 18.84,20.03c6.53,0 13.77,-3.64 16.67,-8.01l0.36,1.09c0.36,0.73 0.73,1.83 2.18,4.37c1.81,2.92 2.53,3.28 3.26,2.92l9.05,-4.74c0.37,-0.36 1.09,-0.36 1.09,-1.09c0,-0.36 -0.36,-0.36 -0.72,-1.46c-0.37,-1.45 -1.45,-2.91 -2.18,-4.73zm41.31,-57.17c-7.61,0 -14.13,4.37 -17.76,7.28l-1.08,0.73c-0.73,-2.55 -1.82,-5.46 -3.63,-7.28c-1.08,-1.09 -1.81,-0.73 -2.17,-0.37l-6.89,3.65c-0.36,0 -0.72,0.36 -0.72,1.09c0,0.36 0.36,1.09 1.09,1.82c3.26,5.46 3.26,9.47 3.26,12.38l0,66.05c0,1.82 2.9,1.46 3.62,1.09l6.52,-1.82c1.09,-0.36 1.09,-1.46 1.09,-1.82l0,-19.8c1.81,1.09 7.25,4.37 14.85,4.37c8.7,0 24.64,-3.64 24.64,-34.23c-0.36,-29.5 -15.94,-33.14 -22.82,-33.14zm-2.9,57.53c-4.71,0 -10.15,-2.18 -13.77,-4l0,-36.42c3.62,-2.54 9.06,-6.19 14.13,-6.19c11.96,0 12.68,11.66 12.68,22.95c0.36,12.01 -0.36,23.66 -13.04,23.66z" fill="#93090d" id="svg_2"/>
  <path d="m491.24,35.58l0,9.84l-20.92,-19.35l-21.23,19.35l0,-9.84l21.23,-19.35l20.92,19.35z" fill="#93090d" id="svg_3"/>
  <path d="m491.24,19.35l0,9.83l-20.92,-19.35l-21.23,19.35l0,-9.83l21.23,-19.35l20.92,19.35z" fill="#93090d" id="svg_4"/>
 </g>
</svg>