<?xml version="1.0" encoding="UTF-8"?>
<svg id="_Слой_2" data-name="Слой 2" xmlns="http://www.w3.org/2000/svg" xmlns:xlink="http://www.w3.org/1999/xlink" viewBox="0 0 218 64">
  <defs>
    <style>
      .cls-1 {
        fill: #75bafb;
      }

      .cls-2 {
        clip-path: url(#clippath-11);
      }

      .cls-3 {
        clip-path: url(#clippath-2);
      }

      .cls-3, .cls-4, .cls-5, .cls-6, .cls-7, .cls-8, .cls-9 {
        fill: none;
      }

      .cls-3, .cls-4, .cls-5, .cls-6, .cls-8, .cls-9 {
        clip-rule: evenodd;
      }

      .cls-10 {
        fill: #f5e033;
      }

      .cls-4 {
        clip-path: url(#clippath);
      }

      .cls-11 {
        clip-path: url(#clippath-7);
      }

      .cls-12 {
        clip-path: url(#clippath-1);
      }

      .cls-13 {
        fill: #df5d82;
      }

      .cls-5 {
        clip-path: url(#clippath-4);
      }

      .cls-14 {
        fill: #e58fb8;
      }

      .cls-15 {
        clip-path: url(#clippath-9);
      }

      .cls-6 {
        clip-path: url(#clippath-8);
      }

      .cls-16 {
        clip-path: url(#clippath-3);
      }

      .cls-8 {
        clip-path: url(#clippath-6);
      }

      .cls-17 {
        clip-path: url(#clippath-5);
      }

      .cls-9 {
        clip-path: url(#clippath-10);
      }

      .cls-18 {
        fill: #26262a;
      }
    </style>
    <clipPath id="clippath">
      <rect class="cls-7" width="218" height="64"/>
    </clipPath>
    <clipPath id="clippath-1">
      <path class="cls-4" d="m59,37.33V6.78h18.35v5.67h-11.92v6.66h9.75v5.46h-9.75v7.08h11.92v5.67h-18.35Zm61.74-22.02h11.52l4.77,14.29,4.77-14.29h5.83l-11.45,31.57h-5.83l3.49-9.56-7.64-21.01-6.99,21.01h-6.77l-7.24-22.02h6.43l4.51,14.85,4.6-14.85h0Zm-38.19,22.02v-16.34c0-.63-.14-1.05-.43-1.28-.28-.23-.77-.34-1.45-.34h-.47v-4.05c.85-.31,1.93-.47,3.24-.47,2.64,0,4.14,1.14,4.51,3.41.4-.74,1.22-1.49,2.47-2.26,1.25-.77,2.74-1.15,4.47-1.15,5.28,0,7.92,3.02,7.92,9.05v13.44h-6.34v-13.18c0-1.25-.31-2.22-.92-2.9-.61-.68-1.51-1.02-2.7-1.02-.79,0-1.52.15-2.17.45-.65.3-1.12.59-1.41.87l-.38.43v15.36h-6.34Zm79.43.47c-2.41,0-4.39-.87-5.92-2.6l-.72,2.13h-4.85V10.5c0-.63-.14-1.06-.43-1.3-.28-.24-.77-.38-1.45-.41h-.38v-4.01c.94-.34,2.23-.51,3.87-.51,3.15,0,4.73,1.51,4.73,4.52v8.87l.21-.32c.09-.13.3-.35.64-.66.34-.31.72-.6,1.13-.85.41-.26.97-.48,1.66-.68.7-.2,1.43-.3,2.19-.3,2.92,0,5.12,1.05,6.58,3.14,1.46,2.09,2.19,4.73,2.19,7.91,0,3.53-.85,6.39-2.55,8.6-1.7,2.2-4,3.31-6.9,3.31h0Zm-5.15-6.27c.85.82,2.03,1.24,3.53,1.24s2.63-.58,3.39-1.75c.75-1.17,1.13-2.77,1.13-4.82,0-4.01-1.46-6.02-4.39-6.02-.74,0-1.41.16-2.02.47-.61.31-1.03.64-1.26.98l-.38.47v9.43h0Zm28.53,6.27c-3.35,0-6.01-1.03-7.98-3.09-1.97-2.06-2.96-4.87-2.96-8.43s.99-6.35,2.98-8.38,4.64-3.05,7.96-3.05,6,1.02,7.96,3.05c1.96,2.03,2.94,4.83,2.94,8.38s-.99,6.4-2.96,8.45c-1.97,2.05-4.62,3.07-7.94,3.07h0Zm0-4.61c2.92,0,4.39-2.32,4.39-6.95s-1.46-6.78-4.39-6.78-4.43,2.26-4.43,6.78,1.48,6.95,4.43,6.95h0Zm11.26,4.14l7.07-11.01-6.86-11.01h6.81l4,6.49,4.09-6.49h5.96l-6.9,10.58,7.2,11.43h-6.81l-4.34-6.87-4.3,6.87h-5.92Z"/>
    </clipPath>
    <clipPath id="clippath-2">
      <rect class="cls-7" width="218" height="64"/>
    </clipPath>
    <clipPath id="clippath-3">
      <path class="cls-3" d="m62.95,57.53c-.66,0-1.24-.11-1.74-.34-.5-.23-.91-.54-1.23-.94-.33-.4-.57-.87-.74-1.42-.16-.54-.25-1.13-.25-1.75s.09-1.21.26-1.76c.18-.55.43-1.03.77-1.43.34-.41.76-.73,1.26-.97.5-.24,1.09-.35,1.75-.35.45,0,.87.06,1.27.18.4.12.75.3,1.07.53.31.23.57.52.78.87.21.35.34.75.41,1.21h-1.14c-.13-.61-.41-1.06-.84-1.37-.44-.3-.95-.46-1.55-.46-.51,0-.95.1-1.31.29-.36.19-.66.45-.9.77-.24.32-.41.69-.52,1.11-.11.42-.17.85-.17,1.3,0,.49.06.95.17,1.39.11.44.29.82.52,1.14.24.32.54.58.9.77.37.19.81.29,1.32.29.37,0,.7-.06.99-.19.3-.12.55-.3.76-.52.21-.22.38-.48.5-.79.12-.3.19-.63.22-.98h1.14c-.11,1.09-.48,1.93-1.11,2.53-.63.6-1.49.89-2.59.89h0Zm7.88-.06c-.49,0-.93-.08-1.3-.25-.37-.16-.68-.39-.94-.68-.26-.29-.45-.63-.57-1.03-.13-.39-.19-.82-.19-1.27s.06-.88.19-1.28c.13-.4.32-.74.57-1.03.26-.29.57-.52.94-.69.37-.17.8-.25,1.3-.25s.92.08,1.29.25c.38.17.69.4.95.69.26.29.45.64.57,1.03.13.4.19.82.19,1.28s-.06.88-.19,1.27c-.13.39-.32.73-.57,1.03-.26.29-.57.52-.95.68s-.81.25-1.29.25h0Zm0-.89c.26,0,.51-.05.75-.16.24-.1.44-.25.62-.45.18-.2.31-.44.41-.73.1-.29.15-.63.15-1s-.05-.71-.15-1c-.1-.29-.24-.54-.41-.74-.18-.2-.38-.35-.62-.46-.24-.1-.49-.16-.75-.16s-.51.05-.75.16-.44.26-.62.46c-.18.2-.31.45-.41.74-.1.29-.15.63-.15,1s.05.71.15,1c.1.29.24.54.41.73.18.2.38.35.62.45s.49.16.75.16h0Zm7.1.89c-.5,0-.93-.08-1.3-.24-.37-.16-.68-.38-.93-.67-.25-.29-.43-.63-.56-1.03-.12-.4-.19-.84-.19-1.31s.07-.89.22-1.29c.14-.4.35-.74.6-1.03.26-.29.57-.51.92-.67.36-.16.74-.24,1.17-.24.55,0,1.01.11,1.37.34.36.23.65.52.87.87.22.35.37.74.46,1.15.08.42.12.81.1,1.19h-4.63c0,.27.02.53.1.77.07.24.19.46.35.65.16.19.36.34.61.45s.54.17.87.17c.43,0,.78-.1,1.06-.3.28-.2.46-.5.54-.91h1.01c-.14.7-.44,1.23-.9,1.58-.46.35-1.05.52-1.75.52h0Zm1.66-3.83c-.02-.24-.07-.47-.16-.68-.09-.22-.22-.4-.37-.56s-.34-.28-.55-.37c-.21-.09-.45-.14-.7-.14s-.5.05-.71.14c-.21.09-.39.22-.54.38-.15.16-.27.35-.36.56s-.14.44-.16.68h3.56Zm1.67,2.8h.73c.09-.17.18-.4.27-.69.09-.29.18-.62.25-.97.08-.36.14-.73.19-1.13.05-.4.07-.79.07-1.18v-1.33h4.48v5.3h.84v2.78h-.97v-1.88h-4.89v1.88h-.97v-2.78h0Zm4.97,0v-4.4h-2.47v.53c0,.39-.02.78-.07,1.17-.04.39-.1.75-.17,1.1-.07.34-.15.66-.23.94-.08.28-.17.5-.25.67h3.19Zm3.08-5.3h1.02v5.06l2.92-5.06h1.31v6.2h-1.02v-5.06l-2.92,5.06h-1.31v-6.2h0Zm7.04,0h1.02v2.47h3.14v-2.47h1.02v6.2h-1.02v-2.86h-3.14v2.86h-1.02v-6.2h0Zm8.28,3.78c-.44-.06-.8-.26-1.08-.6-.28-.34-.42-.76-.42-1.27,0-.58.17-1.05.52-1.39.35-.34.82-.52,1.42-.52h3.14v6.2h-1.02v-2.39h-1.35l-1.89,2.39h-1.35l2.04-2.42h0Zm2.56-.84v-2.04h-1.8c-.43,0-.74.09-.93.28-.19.18-.29.43-.29.74s.1.57.29.75c.19.18.5.27.93.27h1.8Zm5.45,3.4c-.49,0-.93-.08-1.3-.24-.37-.16-.68-.38-.93-.67s-.43-.63-.56-1.03c-.12-.4-.19-.84-.19-1.31s.07-.89.22-1.29c.14-.4.35-.74.6-1.03.26-.29.57-.51.92-.67.36-.16.74-.24,1.17-.24.55,0,1.01.11,1.37.34.36.23.65.52.87.87.22.35.37.74.46,1.15.08.42.12.81.1,1.19h-4.63c0,.27.02.53.1.77.07.24.19.46.35.65.16.19.36.34.61.45.25.11.54.17.87.17.43,0,.78-.1,1.06-.3.28-.2.46-.5.54-.91h1.01c-.14.7-.44,1.23-.9,1.58-.46.35-1.05.52-1.75.52h0Zm1.66-3.83c-.02-.24-.07-.47-.16-.68-.09-.22-.22-.4-.37-.56s-.34-.28-.55-.37c-.21-.09-.45-.14-.7-.14s-.5.05-.71.14c-.21.09-.39.22-.54.38-.15.16-.27.35-.36.56-.09.21-.14.44-.16.68h3.56Zm3.89-1.61h-2.22v-.9h5.45v.9h-2.22v5.3h-1.02v-5.3h0Zm7.91-.9h2.86c.27,0,.53.02.78.06.25.04.48.11.68.22.2.11.36.26.48.46.12.2.18.46.18.77,0,.34-.08.61-.24.82-.16.21-.38.38-.67.52h0c.36.08.64.25.86.52.21.26.32.6.32,1.02,0,.26-.05.51-.14.73-.09.22-.22.42-.39.58s-.37.29-.6.38c-.23.09-.48.14-.75.14h-3.37v-6.2h0Zm3.17,5.34c.34,0,.59-.1.76-.29.17-.2.26-.44.26-.74,0-.28-.09-.5-.28-.67-.18-.17-.49-.25-.92-.25h-1.99v1.96h2.17Zm-.42-2.8c.44,0,.74-.08.92-.24.17-.16.26-.37.26-.64s-.08-.45-.25-.59c-.17-.14-.48-.21-.92-.21h-1.75v1.68h1.75Zm10.14,3.79c-.47,0-.89-.08-1.25-.23-.36-.15-.67-.37-.91-.65s-.43-.61-.55-1c-.12-.38-.19-.81-.19-1.28s.06-.9.18-1.3c.12-.4.3-.76.54-1.06.24-.3.55-.54.91-.71s.79-.26,1.29-.26c.35,0,.68.04.99.13.31.08.58.21.81.39.24.18.43.4.58.67.15.27.25.59.29.95h-1.05c-.08-.39-.25-.7-.5-.91-.26-.22-.6-.32-1.03-.32-.37,0-.67.07-.92.2-.25.14-.45.32-.59.54-.15.22-.25.48-.32.77-.06.29-.1.59-.1.91,0,.29.03.57.1.84.07.27.17.51.32.73.14.21.33.38.56.51.23.13.5.19.83.19.5,0,.9-.13,1.18-.4.28-.26.46-.64.52-1.12h1.04c-.11.78-.4,1.37-.85,1.78-.46.41-1.08.62-1.88.62h0Zm6.77,0c-.49,0-.93-.08-1.3-.24-.37-.16-.68-.38-.93-.67s-.43-.63-.56-1.03c-.12-.4-.19-.84-.19-1.31s.07-.89.22-1.29c.14-.4.35-.74.6-1.03.26-.29.57-.51.92-.67.36-.16.74-.24,1.17-.24.55,0,1.01.11,1.37.34.36.23.65.52.87.87.22.35.37.74.46,1.15.08.42.12.81.1,1.19h-4.63c0,.27.02.53.1.77s.19.46.35.65c.16.19.36.34.61.45s.54.17.87.17c.43,0,.78-.1,1.06-.3.28-.2.46-.5.54-.91h1.01c-.14.7-.44,1.23-.9,1.58-.46.35-1.05.52-1.75.52h0Zm1.66-3.83c-.02-.24-.07-.47-.16-.68-.09-.22-.22-.4-.37-.56-.16-.16-.34-.28-.55-.37-.21-.09-.45-.14-.7-.14s-.5.05-.71.14c-.21.09-.39.22-.54.38-.15.16-.27.35-.36.56-.09.21-.14.44-.16.68h3.56Zm5.16,3.83c-.8,0-1.44-.2-1.93-.61-.49-.41-.8-1.04-.93-1.9-.05-.34-.07-.71-.07-1.13,0-.3,0-.6.03-.92.02-.32.06-.64.11-.95.05-.31.12-.61.22-.9.09-.29.21-.55.37-.78.27-.42.6-.74.99-.94.39-.2.88-.33,1.47-.37.39-.03.72-.07.98-.11.26-.04.41-.14.44-.3h1.02c-.02.31-.08.55-.2.72-.12.17-.29.29-.5.38-.22.08-.48.14-.79.17-.31.03-.67.06-1.09.09-.34.02-.64.1-.9.24-.26.14-.47.32-.65.55-.18.23-.33.5-.44.8-.11.31-.19.65-.24,1.01h.04c.18-.41.45-.74.82-1.01.37-.26.82-.4,1.35-.4.87,0,1.56.27,2.06.82.5.54.75,1.33.75,2.35,0,.52-.07.98-.21,1.37-.14.4-.34.73-.59,1-.26.27-.56.47-.92.61-.36.14-.75.2-1.18.2h0Zm.01-.86c.24,0,.47-.05.69-.15.22-.1.42-.25.59-.44.17-.19.3-.43.41-.71.1-.28.16-.61.16-.99,0-.73-.17-1.3-.5-1.72-.34-.42-.79-.62-1.37-.62s-1.03.21-1.37.63c-.34.42-.51.99-.51,1.72s.17,1.26.5,1.67c.34.41.8.61,1.4.61h0Zm6.98.86c-.5,0-.93-.08-1.3-.24-.37-.16-.68-.38-.93-.67s-.43-.63-.56-1.03c-.12-.4-.19-.84-.19-1.31s.07-.89.22-1.29c.14-.4.35-.74.6-1.03.26-.29.57-.51.92-.67.36-.16.74-.24,1.17-.24.55,0,1.01.11,1.37.34.36.23.65.52.87.87s.37.74.46,1.15c.08.42.12.81.1,1.19h-4.63c0,.27.02.53.1.77.07.24.19.46.35.65.16.19.36.34.61.45s.54.17.87.17c.43,0,.78-.1,1.06-.3.28-.2.46-.5.54-.91h1.01c-.14.7-.44,1.23-.9,1.58-.46.35-1.05.52-1.75.52h0Zm1.66-3.83c-.02-.24-.07-.47-.16-.68-.09-.22-.22-.4-.37-.56s-.34-.28-.55-.37-.45-.14-.7-.14-.5.05-.71.14-.39.22-.54.38c-.15.16-.27.35-.36.56-.09.21-.14.44-.16.68h3.56Zm5.95,3.77c-.1,0-.21,0-.32-.03-.11-.02-.2-.04-.28-.05v-.9c.08.02.15.04.22.05.07,0,.13.01.2.01.26,0,.47-.1.6-.31.14-.21.24-.53.31-.96.07-.43.11-.99.13-1.66.02-.68.03-1.48.05-2.42h4.35v6.2h-1.02v-5.3h-2.35c-.02.73-.05,1.42-.08,2.07-.03.65-.1,1.22-.21,1.71-.11.49-.29.88-.54,1.16-.25.29-.6.43-1.07.43h0Zm7.69,2.4c-.12,0-.24,0-.36-.02-.12-.02-.24-.04-.35-.08v-.94c.1.03.19.06.29.1.1.03.2.05.31.05.21,0,.38-.05.5-.14.13-.1.24-.24.34-.42l.42-1.04-2.46-6.17h1.15l1.81,5.08h.02l1.74-5.08h1.08l-2.69,7.02c-.12.3-.24.56-.35.77-.12.21-.24.38-.38.51-.14.13-.3.23-.47.29-.17.06-.37.09-.59.09h0Zm9.33-4.99c-.18.08-.44.16-.77.23-.33.07-.67.11-1.03.11-.77,0-1.31-.17-1.64-.5-.33-.33-.49-.8-.49-1.4v-2.12h1.02v1.96c0,.41.09.71.28.91.19.2.53.29,1.02.29.3,0,.6-.03.9-.1.3-.06.53-.14.71-.22v-2.84h1.02v6.2h-1.02v-2.52h0Zm2.82-3.68h1.02v5.3h2.31v-5.3h1.02v5.3h2.31v-5.3h1.02v6.2h-7.68v-6.2h0Zm12.11,6.34c-.49,0-.93-.08-1.3-.24-.37-.16-.68-.38-.93-.67s-.43-.63-.56-1.03c-.12-.4-.19-.84-.19-1.31s.07-.89.22-1.29c.14-.4.35-.74.6-1.03.26-.29.57-.51.92-.67.36-.16.74-.24,1.17-.24.55,0,1.01.11,1.37.34.36.23.65.52.87.87.22.35.37.74.46,1.15.08.42.12.81.1,1.19h-4.63c0,.27.02.53.1.77.07.24.19.46.35.65.16.19.36.34.61.45s.54.17.87.17c.43,0,.78-.1,1.06-.3.28-.2.46-.5.54-.91h1.01c-.14.7-.44,1.23-.9,1.58-.46.35-1.05.52-1.75.52h0Zm1.66-3.83c-.02-.24-.07-.47-.16-.68-.09-.22-.22-.4-.37-.56s-.34-.28-.55-.37-.45-.14-.7-.14-.5.05-.71.14c-.21.09-.39.22-.54.38-.15.16-.27.35-.36.56-.09.21-.14.44-.16.68h3.56Zm5.03,3.83c-.5,0-.93-.08-1.3-.24-.37-.16-.68-.38-.93-.67-.25-.29-.43-.63-.56-1.03-.12-.4-.19-.84-.19-1.31s.07-.89.22-1.29c.14-.4.35-.74.6-1.03.26-.29.57-.51.92-.67.36-.16.74-.24,1.17-.24.55,0,1.01.11,1.37.34.36.23.65.52.87.87.22.35.37.74.46,1.15.08.42.12.81.1,1.19h-4.63c0,.27.02.53.1.77.07.24.19.46.35.65.16.19.36.34.61.45s.54.17.87.17c.43,0,.78-.1,1.06-.3.28-.2.46-.5.54-.91h1.01c-.14.7-.44,1.23-.9,1.58-.46.35-1.05.52-1.75.52h0Zm1.66-3.83c-.02-.24-.07-.47-.16-.68-.09-.22-.22-.4-.37-.56s-.34-.28-.55-.37c-.21-.09-.45-.14-.7-.14s-.5.05-.71.14-.39.22-.54.38c-.15.16-.27.35-.36.56s-.14.44-.16.68h3.56Z"/>
    </clipPath>
    <clipPath id="clippath-4">
      <rect class="cls-7" width="218" height="64"/>
    </clipPath>
    <clipPath id="clippath-5">
      <path class="cls-5" d="m22,54c1.1,0,2,.9,2,2,0,.33-.08.64-.22.92l-2.01,4.44c-.56,1.54-2.03,2.64-3.76,2.64s-3.2-1.1-3.76-2.63l-9.85-25.25c-.25-.48-.39-1.03-.39-1.61,0-1.93,1.57-3.5,3.5-3.5h20.89s.04,0,.06,0c.02,0,.04,0,.06,0,1.93,0,3.5,1.57,3.5,3.5s-1.57,3.5-3.5,3.5c-.03,0-.05,0-.08,0-.03,0-.05,0-.08,0h-12.77s-.02,0-.03,0c-.01,0-.03,0-.04,0-1.38,0-2.5,1.12-2.5,2.5,0,1.38,1.12,2.5,2.5,2.5.01,0,.03,0,.04,0,.01,0,.02,0,.03,0h9.43c1.66,0,3,1.34,3,3s-1.34,3-3,3h-6.43s-.02,0-.03,0c-.01,0-.03,0-.04,0-1.38,0-2.5,1.12-2.5,2.5,0,1.38,1.12,2.5,2.5,2.5.01,0,.03,0,.04,0,.01,0,.02,0,.03,0h3.43Z"/>
    </clipPath>
    <clipPath id="clippath-6">
      <rect class="cls-7" width="218" height="64"/>
    </clipPath>
    <clipPath id="clippath-7">
      <path class="cls-8" d="m16,17c0,4.42-3.58,8-8,8S0,21.42,0,17s3.58-8,8-8,8,3.58,8,8"/>
    </clipPath>
    <clipPath id="clippath-8">
      <rect class="cls-7" width="218" height="64"/>
    </clipPath>
    <clipPath id="clippath-9">
      <path class="cls-6" d="m30,11.5c0,6.35-5.15,11.5-11.5,11.5s-11.5-5.15-11.5-11.5S12.15,0,18.5,0s11.5,5.15,11.5,11.5"/>
    </clipPath>
    <clipPath id="clippath-10">
      <rect class="cls-7" width="218" height="64"/>
    </clipPath>
    <clipPath id="clippath-11">
      <path class="cls-9" d="m36,19c0,3.87-3.13,7-7,7s-7-3.13-7-7,3.14-7,7-7,7,3.13,7,7"/>
    </clipPath>
  </defs>
  <g id="_Слой_1-2" data-name="Слой 1">
    <g>
      <g class="cls-12">
        <rect class="cls-18" x="54" y="-.73" width="169" height="52.62"/>
      </g>
      <g class="cls-16">
        <rect class="cls-18" x="54" y="43.56" width="159.62" height="21.24"/>
      </g>
      <g class="cls-17">
        <rect class="cls-10" x="-1" y="26" width="38" height="43"/>
      </g>
      <g class="cls-11">
        <rect class="cls-1" x="-5" y="4" width="26" height="26"/>
      </g>
      <g class="cls-15">
        <rect class="cls-13" x="2" y="-5" width="33" height="33"/>
      </g>
      <g class="cls-2">
        <rect class="cls-14" x="17" y="7" width="24" height="24"/>
      </g>
    </g>
  </g>
</svg>