<svg id="Layer_1" data-name="Layer 1" xmlns="http://www.w3.org/2000/svg" viewBox="0 0 2795.67 599.89"><defs><style>.cls-1{fill:#181a1a;}</style></defs><title>1 opt. Centra Logo for white background </title><path class="cls-1" d="M299.95,56.59c134.19,0,243.35,109.17,243.35,243.35S434.13,543.3,299.95,543.3,56.59,434.13,56.59,299.95,165.76,56.59,299.95,56.59m0-56.59C134.29,0,0,134.29,0,299.95S134.29,599.89,299.95,599.89,599.89,465.6,599.89,299.95,465.6,0,299.95,0Z"/><path class="cls-1" d="M299.95,154.4c80.26,0,145.55,65.29,145.55,145.55S380.2,445.49,299.95,445.49,154.4,380.2,154.4,299.95,219.69,154.4,299.95,154.4m0-56.59C188.31,97.8,97.8,188.31,97.8,299.95s90.5,202.14,202.14,202.14,202.14-90.5,202.14-202.14S411.58,97.8,299.95,97.8Z"/><path class="cls-1" d="M343.42,319.45a47.74,47.74,0,1,1,0-39h59a104.34,104.34,0,1,0,0,39Z"/><path class="cls-1" d="M890.88,496c-109,0-198.81-81.58-198.81-181s89.8-181,198.81-181c100.77,0,181,69.24,191.95,152.87H950.51c-9.58-23.31-32.9-39.76-61.69-39.76-37,0-66.49,31.53-66.49,67.86,0,35.65,29.48,66.5,66.49,66.5,28.79,0,50-15.08,61.69-39.76h132.32C1072.55,428.81,989.59,496,890.88,496Z"/><path class="cls-1" d="M1344.67,367.8l120,21.25C1442,448,1370,496,1284.36,496c-106.26,0-198.12-74.72-198.12-178.92,0-101.45,87.06-183,197.43-183,119.28,0,210,83.65,192.67,215.25H1215.11c10.29,30.85,35,46.61,70.61,46.61C1309,395.9,1334.39,389,1344.67,367.8Zm-129.56-91.18h134.36c-11.64-34.27-37-43.87-65.81-43.87C1249.39,232.75,1224.71,247.15,1215.11,276.62Z"/><path class="cls-1" d="M1490.24,143.63h114.48l7.54,30.85h2.06c23.3-27.42,61-40.44,97.34-40.44,92.55,0,150.12,69.24,150.12,159.72V486.39H1731.54V306.79c0-30.85-25.36-56.9-55.53-56.9s-55.53,26-55.53,56.9v179.6H1490.24Z"/><path class="cls-1" d="M2040.93,246.46v79.76c0,32.22,20.56,48.67,50,48.67,9.6,0,15.08.23,46-.39l1.27,111c-16.73.17-36.33,0-68.55,0-101,0-159.05-64.73-159.05-147.67V246.46H1857.9V143.63h52.78V62.74h130.26v80.9h97.34V246.46Z"/><path class="cls-1" d="M2166.37,143.63s174.54-.12,215-.8l32.94,110.49c-72,0-83,.24-117.69.24V486.39H2166.37Z"/><path class="cls-1" d="M2399.44,315c0-111.73,93.24-181,174.81-181,37,0,82.27,13.71,99.4,40.44h2.06l5.48-30.85h114.48V486.39H2681.19l-5.48-30.85h-2.06C2655.14,485,2607.84,496,2574.25,496,2492,496,2399.44,426.06,2399.44,315Zm264.62,0a67.18,67.18,0,1,0-67.19,67.18A67.29,67.29,0,0,0,2664.05,315Z"/></svg>