<?xml version="1.0" encoding="UTF-8"?>
<svg id="_Слой_1" data-name="Слой_1" xmlns="http://www.w3.org/2000/svg" version="1.1" xmlns:svg="http://www.w3.org/2000/svg" viewBox="0 0 141.7 34.4">
  <!-- Generator: Adobe Illustrator 29.5.0, SVG Export Plug-In . SVG Version: 2.1.0 Build 137)  -->
  <defs>
    <style>
      .st0 {
        fill: #e31d7a;
      }
    </style>
  </defs>
  <g id="svg_1">
    <g id="svg_2">
      <g id="svg_3">
        <g id="svg_4">
          <rect id="svg_5" class="st0" y=".4" width="3.5" height="15.9"/>
        </g>
        <g id="svg_6">
          <path id="svg_7" class="st0" d="M10.1.4v15.9h3.3V5.1h0l3.9,11.1h2.7l3.9-11.2h0v11.2h3.3V.4h-4.9l-3.5,10.9h0L15,.4h-4.9Z"/>
        </g>
        <g id="svg_8">
          <path id="svg_9" class="st0" d="M36.2,11h-3.4c0,1,.2,1.8.5,2.5.4.7.9,1.3,1.5,1.8.6.5,1.4.8,2.2,1,.8.2,1.7.3,2.6.3s2-.1,2.8-.4c.8-.3,1.5-.6,2.1-1,.6-.5,1-1,1.3-1.6.3-.6.4-1.3.4-2s-.2-1.6-.6-2.2c-.4-.6-.8-1-1.3-1.4s-1-.6-1.6-.7c-.5-.2-.9-.3-1.2-.3-1-.3-1.8-.5-2.4-.6-.6-.2-1.1-.3-1.4-.5-.3-.2-.6-.3-.7-.5-.1-.2-.2-.4-.2-.8s0-.6.2-.8c.1-.2.3-.4.6-.6.2-.1.5-.3.8-.3.3,0,.6,0,.8,0,.4,0,.8,0,1.2.1.4,0,.7.2,1,.4.3.2.5.4.7.7.2.3.3.7.3,1.2h3.4c0-.9-.2-1.7-.5-2.3-.3-.7-.8-1.2-1.4-1.6-.6-.4-1.3-.7-2-.9-.8-.2-1.5-.3-2.4-.3s-1.4,0-2.1.3c-.7.2-1.3.5-1.9.9-.6.4-1,.9-1.4,1.5-.3.6-.5,1.3-.5,2.1s.1,1.3.4,1.9c.3.5.6.9,1.1,1.3.4.3.9.6,1.5.8.6.2,1.1.4,1.7.5.6.2,1.1.3,1.7.4.6.1,1.1.3,1.5.5.4.2.8.4,1.1.7.3.3.4.6.4,1s-.1.7-.3,1c-.2.3-.5.5-.8.6s-.6.3-1,.3c-.4,0-.7,0-1,0-.5,0-.9,0-1.3-.2-.4-.1-.8-.3-1.1-.5-.3-.2-.6-.5-.8-.9-.2-.4-.3-.8-.3-1.4"/>
        </g>
        <g id="svg_10">
          <path id="svg_11" class="st0" d="M51.8.4v15.9h3.5v-6.8h6.4v6.8h3.5V.4h-3.5v6.1h-6.4V.4h-3.5Z"/>
        </g>
        <g id="svg_12">
          <path id="svg_13" class="st0" d="M71.1,8.4c0,1.2.2,2.2.5,3.2.4,1,.9,1.9,1.5,2.6.7.7,1.5,1.3,2.4,1.8,1,.4,2.1.6,3.3.6s2.3-.2,3.3-.6c1-.4,1.8-1,2.4-1.8.7-.7,1.2-1.6,1.5-2.6.4-1,.5-2.1.5-3.2s-.2-2.3-.5-3.3c-.4-1-.9-1.9-1.5-2.7-.7-.8-1.5-1.3-2.4-1.8S80.1,0,78.9,0s-2.3.2-3.3.6c-1,.4-1.8,1-2.4,1.8-.7.8-1.2,1.6-1.5,2.7-.4,1-.5,2.1-.5,3.3M74.6,8.4c0-.7,0-1.4.2-2,.2-.7.4-1.2.8-1.7.3-.5.8-.9,1.3-1.2.5-.3,1.2-.5,2-.5s1.4.2,2,.5c.5.3,1,.7,1.3,1.2.3.5.6,1.1.7,1.7.2.7.2,1.3.2,2s0,1.3-.2,2c-.1.6-.4,1.2-.7,1.7-.3.5-.8.9-1.3,1.2-.5.3-1.2.4-2,.4s-1.5-.1-2-.4c-.5-.3-1-.7-1.3-1.2-.3-.5-.6-1.1-.8-1.7-.1-.6-.2-1.3-.2-2"/>
        </g>
        <g id="svg_14">
          <path id="svg_15" class="st0" d="M92.6.4v15.9h3.5v-5.7h3.7c1,0,1.8-.1,2.5-.4.7-.3,1.3-.7,1.7-1.2.4-.5.8-1,1-1.6.2-.6.3-1.3.3-1.9s-.1-1.3-.3-1.9c-.2-.6-.5-1.1-1-1.6-.4-.5-1-.9-1.7-1.1-.7-.3-1.5-.4-2.5-.4h-7.1ZM96.1,7.8V3.1h2.7c.4,0,.8,0,1.2,0,.4,0,.7.2,1,.4.3.2.5.4.7.7.2.3.3.7.3,1.2s0,.9-.3,1.2c-.2.3-.4.6-.7.7-.3.2-.6.3-1,.3-.4,0-.8,0-1.2,0h-2.7,0Z"/>
        </g>
        <g id="svg_16">
          <rect id="svg_17" class="st0" x="106.8" y="12.8" width="3.5" height="3.4"/>
        </g>
        <g id="svg_18">
          <rect id="svg_19" class="st0" x="116.7" y=".4" width="3.5" height="15.9"/>
        </g>
        <g id="svg_20">
          <path id="svg_21" class="st0" d="M126.1,8.4c0,1.2.2,2.2.5,3.2.4,1,.9,1.9,1.5,2.6.7.7,1.5,1.3,2.4,1.8,1,.4,2.1.6,3.3.6s2.3-.2,3.3-.6c1-.4,1.8-1,2.4-1.8.7-.7,1.2-1.6,1.5-2.6.4-1,.5-2.1.5-3.2s-.2-2.3-.5-3.3c-.4-1-.9-1.9-1.5-2.7-.7-.8-1.5-1.3-2.4-1.8C136.3.2,135.2,0,133.9,0s-2.3.2-3.3.6c-1,.4-1.8,1-2.4,1.8-.7.8-1.2,1.6-1.5,2.7-.4,1-.5,2.1-.5,3.3M129.6,8.4c0-.7,0-1.4.2-2,.2-.7.4-1.2.8-1.7.3-.5.8-.9,1.3-1.2.5-.3,1.2-.5,2-.5s1.5.2,2,.5c.5.3,1,.7,1.3,1.2.3.5.6,1.1.7,1.7.2.7.2,1.3.2,2s0,1.3-.2,2c-.1.6-.4,1.2-.7,1.7-.3.5-.8.9-1.3,1.2-.5.3-1.2.4-2,.4s-1.5-.1-2-.4c-.5-.3-1-.7-1.3-1.2-.3-.5-.6-1.1-.8-1.7-.1-.6-.2-1.3-.2-2"/>
        </g>
        <g id="svg_22">
          <path id="svg_23" class="st0" d="M6.9,33.2v-2.7s-1.3,2.2-1.3,2.2h-.5l-1.3-2.2v2.6h-1v-4.5h.9l1.7,2.8,1.7-2.8h.9v4.5s-1,0-1,0h0Z"/>
        </g>
        <g id="svg_24">
          <path id="svg_25" class="st0" d="M11.1,32.2c.2-.2.2-.4.2-.7s0-.5-.2-.7c-.2-.2-.4-.3-.6-.3s-.5,0-.6.3c-.2.2-.3.4-.3.7s0,.5.3.7c.2.2.4.3.6.3s.5,0,.6-.3M9.5,33c-.3-.2-.5-.4-.7-.6s-.2-.6-.2-.9,0-.6.2-.9c.2-.3.4-.5.7-.6.3-.2.6-.2,1-.2s.7,0,1,.2c.3.2.5.4.7.6.2.3.2.6.2.9s0,.6-.2.9c-.2.3-.4.5-.7.6-.3.2-.6.2-1,.2s-.7,0-1-.2"/>
        </g>
        <g id="svg_26">
          <path id="svg_27" class="st0" d="M15.5,32.2c.2-.2.2-.4.2-.6s0-.5-.2-.6c-.2-.2-.4-.2-.6-.2s-.5,0-.6.2c-.2.2-.2.4-.2.6s0,.5.2.6c.2.2.4.2.6.2s.5,0,.6-.3M15.9,30.2c.2.1.4.3.6.6.1.2.2.5.2.8s0,.6-.2.9c-.2.3-.4.5-.7.6-.3.1-.6.2-1,.2-.6,0-1.1-.2-1.4-.6-.3-.4-.5-1-.5-1.7s.2-1.2.5-1.7c.3-.4.8-.7,1.4-.8l1.6-.3v.9c.1,0-1.3.3-1.3.3-.4,0-.7.2-.9.4-.2.2-.3.4-.3.8.2-.2.3-.3.5-.4.2,0,.4-.1.7-.1s.6,0,.9.2"/>
        </g>
        <g id="svg_28">
          <path id="svg_29" class="st0" d="M17.4,29.7h1v2.1l1.7-2.1h.9v3.5h-1v-2.1l-1.7,2.1h-.9v-3.5Z"/>
        </g>
        <g id="svg_30">
          <path id="svg_31" class="st0" d="M25.3,29.7v3.5h-1v-2.6h-1.1v.6c0,.5,0,.8-.2,1.1,0,.3-.2.5-.3.7-.2.2-.4.3-.6.3s-.3,0-.5,0v-.8c.1,0,.2,0,.2,0,.2,0,.3,0,.3-.2,0-.1.1-.2.2-.4,0-.2,0-.4,0-.7v-1.4h3Z"/>
        </g>
        <g id="svg_32">
          <path id="svg_33" class="st0" d="M28.3,32.4c.1,0,.2-.2.2-.4s0-.3-.2-.4c-.1,0-.2-.1-.4-.1h-.6s0,1,0,1h.6c.2,0,.3,0,.4-.1M29.2,31.1c.2.2.4.5.4.8s-.1.7-.4.9c-.3.2-.6.3-1.1.3h-1.7v-3.5h1v1.1h.9c.4,0,.8.1,1,.3"/>
        </g>
        <g id="svg_34">
          <path id="svg_35" class="st0" d="M30.1,29.7h1v1.4h1.5v-1.4h1v3.5h-1v-1.3h-1.5v1.3h-1v-3.5h0Z"/>
        </g>
        <g id="svg_36">
          <path id="svg_37" class="st0" d="M38.2,29.7h1v3.5h-1v-3.5ZM36.6,32.4c.1,0,.2-.2.2-.4s0-.3-.2-.4c-.1,0-.2-.1-.4-.1h-.6s0,1,0,1h.6c.2,0,.3,0,.4-.1M37.4,31.1c.2.2.3.5.3.8s-.1.7-.4.9c-.3.2-.6.3-1.1.3h-1.7v-3.5h1v1.1h.8c.4,0,.8.1,1,.3"/>
        </g>
        <g id="svg_38">
          <path id="svg_39" class="st0" d="M41.1,30.6c-.2.1-.2.3-.3.5h1.7c0-.2-.1-.4-.3-.5-.2-.1-.3-.2-.6-.2s-.4,0-.6.2M43.5,31.7h-2.6c0,.2.2.4.3.5.2.1.4.2.7.2s.3,0,.5,0c.1,0,.3-.1.4-.3l.5.6c-.3.4-.8.6-1.4.6s-.7,0-1-.2c-.3-.2-.5-.4-.7-.6-.2-.3-.2-.6-.2-.9s0-.6.2-.9c.2-.3.4-.5.7-.6.3-.2.6-.2.9-.2s.6,0,.9.2c.3.1.5.4.6.6s.2.6.2.9,0,.1,0,.3"/>
        </g>
        <g id="svg_40">
          <path id="svg_41" class="st0" d="M49.5,29.7v3.5h-1v-2.6h-1.4v2.6h-1v-3.5h3.4Z"/>
        </g>
        <g id="svg_42">
          <path id="svg_43" class="st0" d="M53,32.2c.2-.2.2-.4.2-.7s0-.5-.2-.7c-.2-.2-.4-.3-.6-.3s-.5,0-.6.3c-.2.2-.2.4-.2.7s0,.5.2.7c.2.2.4.3.6.3s.5,0,.6-.3M53.4,29.9c.3.1.5.4.6.6.2.3.2.6.2.9s0,.7-.2.9c-.1.3-.4.5-.6.6-.3.1-.6.2-.9.2s-.8-.1-1-.4v1.6h-1v-4.7h1v.4c.2-.3.6-.4,1.1-.4s.6,0,.9.2"/>
        </g>
        <g id="svg_44">
          <path id="svg_45" class="st0" d="M54.9,29.7h1v2.1l1.7-2.1h.9v3.5h-1v-2.1l-1.7,2.1h-.9v-3.5Z"/>
        </g>
        <g id="svg_46">
          <path id="svg_47" class="st0" d="M62.8,29.7v3.5h-1v-2.6h-1.1v.6c0,.5,0,.8-.2,1.1,0,.3-.2.5-.3.7-.2.2-.4.3-.6.3s-.3,0-.5,0v-.8c.1,0,.2,0,.2,0,.2,0,.3,0,.3-.2,0-.1.1-.2.2-.4s0-.4,0-.7v-1.4h3Z"/>
        </g>
        <g id="svg_48">
          <path id="svg_49" class="st0" d="M66,32.2c.2-.2.2-.4.2-.7s0-.5-.2-.7c-.2-.2-.4-.3-.6-.3s-.5,0-.6.3c-.2.2-.3.4-.3.7s0,.5.3.7c.2.2.4.3.6.3s.5,0,.6-.3M64.4,33c-.3-.2-.5-.4-.7-.6s-.2-.6-.2-.9,0-.6.2-.9c.2-.3.4-.5.7-.6.3-.2.6-.2,1-.2s.7,0,1,.2c.3.2.5.4.7.6.2.3.2.6.2.9s0,.6-.2.9c-.2.3-.4.5-.7.6-.3.2-.6.2-1,.2s-.7,0-1-.2"/>
        </g>
        <g id="svg_50">
          <path id="svg_51" class="st0" d="M71.3,31.9h-.5v1.3h-1v-1.3h-.5l-.7,1.3h-1.2l1.1-1.8-1-1.7h1.1l.8,1.3h.5v-1.3h1v1.3h.5l.8-1.3h1.1l-1,1.7,1.1,1.8h-1.2l-.7-1.3h0Z"/>
        </g>
        <g id="svg_52">
          <path id="svg_53" class="st0" d="M74.6,30.6c-.2.1-.2.3-.3.5h1.7c0-.2-.1-.4-.3-.5-.2-.1-.3-.2-.6-.2s-.4,0-.6.2M77,31.7h-2.6c0,.2.2.4.3.5.2.1.4.2.7.2s.3,0,.5,0c.1,0,.3-.1.4-.3l.5.6c-.3.4-.8.6-1.4.6s-.7,0-1-.2c-.3-.2-.5-.4-.7-.6-.2-.3-.2-.6-.2-.9s0-.6.2-.9c.2-.3.4-.5.7-.6.3-.2.6-.2.9-.2s.6,0,.9.2.5.4.6.6.2.6.2.9,0,.1,0,.3"/>
        </g>
        <g id="svg_54">
          <path id="svg_55" class="st0" d="M77.8,29.7h1v1.4h1.5v-1.4h1v3.5h-1v-1.3h-1.5v1.3h-1v-3.5h0Z"/>
        </g>
        <g id="svg_56">
          <path id="svg_57" class="st0" d="M82.2,29.7h1v2.1l1.7-2.1h.9v3.5h-1v-2.1l-1.7,2.1h-.9v-3.5Z"/>
        </g>
        <g id="svg_58">
          <path id="svg_59" class="st0" d="M87.7,30.7c-.1,0-.2.2-.2.4s0,.3.2.4c.1,0,.3.1.5.1h.8v-1h-.7c-.2,0-.4,0-.5.1M89.9,29.7v3.5h-.9v-1h-.7l-.7,1h-1.1l.8-1.1c-.2,0-.4-.2-.6-.4-.1-.2-.2-.4-.2-.6,0-.4.1-.7.4-.9.3-.2.7-.3,1.2-.3h1.7Z"/>
        </g>
        <g id="svg_60">
          <path id="svg_61" class="st0" d="M93.8,31.9c0,.2-.1.4-.2.5h1.5v-1.8h-1.1v.4c0,.4,0,.6,0,.9M96.5,32.4v1.6h-.9v-.7h-2.4v.7h-.9v-1.6h.1c.2,0,.4-.1.4-.4,0-.2.1-.6.2-1.1v-1.2h3.1v2.6h.5Z"/>
        </g>
        <g id="svg_62">
          <path id="svg_63" class="st0" d="M100.5,29.7v3.5h-1v-2.6h-1.1v.6c0,.5,0,.8-.2,1.1,0,.3-.2.5-.3.7-.2.2-.4.3-.6.3s-.3,0-.5,0v-.8c.1,0,.2,0,.2,0,.2,0,.3,0,.3-.2,0-.1.1-.2.2-.4,0-.2,0-.4,0-.7v-1.4h3Z"/>
        </g>
        <g id="svg_64">
          <path id="svg_65" class="st0" d="M102.4,30.7c-.1,0-.2.2-.2.4s0,.3.2.4c.1,0,.3.1.5.1h.8v-1h-.7c-.2,0-.4,0-.5.1M104.5,29.7v3.5h-.9v-1h-.7l-.7,1h-1.1l.8-1.1c-.2,0-.4-.2-.6-.4-.1-.2-.2-.4-.2-.6,0-.4.1-.7.4-.9.3-.2.7-.3,1.2-.3h1.7Z"/>
        </g>
        <g id="svg_66">
          <path id="svg_67" class="st0" d="M109.8,32.2c.2-.2.2-.4.2-.7s0-.5-.2-.7c-.2-.2-.4-.3-.6-.3s-.5,0-.6.3c-.2.2-.2.4-.2.7s0,.5.2.7.4.3.6.3.5,0,.6-.3M110.2,29.9c.3.1.5.4.6.6.2.3.2.6.2.9s0,.7-.2.9c-.1.3-.4.5-.6.6-.3.1-.6.2-.9.2s-.8-.1-1-.4v1.6h-1v-4.7h1v.4c.2-.3.6-.4,1.1-.4s.6,0,.9.2"/>
        </g>
        <g id="svg_68">
          <path id="svg_69" class="st0" d="M111.8,29.7h1v2.1l1.7-2.1h.9v3.5h-1v-2.1l-1.7,2.1h-.9v-3.5Z"/>
        </g>
        <g id="svg_70">
          <path id="svg_71" class="st0" d="M119.2,30.5h-1.2v2.6h-1v-2.6h-1.2v-.8h3.3v.8h0Z"/>
        </g>
        <g id="svg_72">
          <path id="svg_73" class="st0" d="M120.6,30.6c-.2.1-.2.3-.3.5h1.7c0-.2-.1-.4-.3-.5-.2-.1-.3-.2-.6-.2s-.4,0-.6.2M123,31.7h-2.6c0,.2.2.4.3.5.2.1.4.2.7.2s.3,0,.5,0c.1,0,.3-.1.4-.3l.5.6c-.3.4-.8.6-1.4.6s-.7,0-1-.2c-.3-.2-.5-.4-.7-.6-.2-.3-.2-.6-.2-.9s0-.6.2-.9c.2-.3.4-.5.7-.6.3-.2.6-.2.9-.2s.6,0,.9.2.5.4.6.6.2.6.2.9,0,.1,0,.3"/>
        </g>
        <g id="svg_74">
          <path id="svg_75" class="st0" d="M124.3,28.4h.7c0,.2,0,.3.1.4,0,0,.2.1.4.1s.3,0,.4-.1c0,0,.1-.2.1-.4h.7c0,.7-.4,1-1.1,1s-1.1-.3-1.1-1M123.7,29.7h1v2.1l1.7-2.1h.9v3.5h-1v-2.1l-1.7,2.1h-.9v-3.5Z"/>
        </g>
        <g id="svg_76">
          <path id="svg_77" class="st0" d="M131.6,29.7v3.5h-1v-2.6h-1.1v.6c0,.5,0,.8-.2,1.1,0,.3-.2.5-.3.7-.2.2-.4.3-.6.3s-.3,0-.5,0v-.8c.1,0,.2,0,.2,0,.2,0,.3,0,.3-.2,0-.1.1-.2.2-.4,0-.2,0-.4,0-.7v-1.4h3Z"/>
        </g>
        <g id="svg_78">
          <path id="svg_79" class="st0" d="M134.3,32.4c.1,0,.2-.2.3-.4v-.4h-.7c-.4,0-.6.1-.6.4s0,.2.2.3c.1,0,.2.1.4.1s.3,0,.5-.1M135.2,30.1c.3.3.4.6.4,1.2v2h-.9v-.4c-.2.3-.5.5-1.1.5s-.5,0-.7-.1c-.2,0-.3-.2-.4-.4-.1-.2-.2-.3-.2-.5,0-.3.1-.6.4-.8.2-.2.6-.3,1.1-.3h.8c0-.2,0-.4-.2-.5-.1-.1-.3-.2-.6-.2s-.4,0-.5,0c-.2,0-.3.1-.5.2l-.4-.7c.2-.1.4-.2.7-.3.3,0,.5-.1.8-.1.5,0,.9.1,1.2.4"/>
        </g>
      </g>
    </g>
  </g>
</svg>