<svg id="Слой_1" data-name="Слой 1" xmlns="http://www.w3.org/2000/svg" viewBox="0 0 425.84544 293.4849"><path d="M346.168,226.90785H322.86719c18.519-48.87076,36.56693-95.50852,54.98536-144.14666h23.33351C382.66708,131.632,364.6192,178.237,346.168,226.90785" transform="translate(-32.1194 -82.76119)" style="fill:#1d1d1b;fill-rule:evenodd"/><path d="M445.834,309.35786H393.07115v23.08568h25.29179c-4.67774,9.51552-13.327,15.79146-25.66242,15.79146-19.42744,0-29.731-15.55762-29.731-34.84592,0-19.25446,10.30353-34.812,29.731-34.812,12.08876,0,20.641,6.02918,25.38883,15.22323h32.86188c-7.71038-27.58216-31.9196-41.17444-58.25071-41.17444-31.98738,0-60.80882,20.02135-60.80882,60.76322,0,40.77456,28.82144,60.79591,60.80882,60.79591,31.95463,0,60.81-20.02135,60.81-60.79591,0-1.36672-.03275-2.6984-.10054-4.03122Z" transform="translate(-32.1194 -82.76119)" style="fill:#1d1d1b;fill-rule:evenodd"/><path d="M75.82385,255.75677,32.1194,371.054H63.19722l5.84683-15.42432h44.63738l5.84682,15.42432h31.079L106.90166,255.75677ZM77.795,332.544,91.36274,296.7511,104.9305,332.544Z" transform="translate(-32.1194 -82.76119)" style="fill:#1d1d1b;fill-rule:evenodd"/><polygon points="272.061 172.963 243.867 247.303 215.696 172.963 192.395 172.963 164.23 247.288 136.064 172.963 104.951 172.963 148.691 288.293 179.769 288.293 204.049 224.239 228.321 288.293 259.4 288.293 303.139 172.963 272.061 172.963" style="fill:#1d1d1b;fill-rule:evenodd"/><path d="M457.96484,371.76465a4.55,4.55,0,1,1-4.53418-4.42676A4.4486,4.4486,0,0,1,457.96484,371.76465Zm-7.96289,0a3.42992,3.42992,0,0,0,3.45508,3.53613,3.38957,3.38957,0,0,0,3.374-3.50879,3.41715,3.41715,0,1,0-6.8291-.02734Zm2.72657,2.32129h-1.0254v-4.42676a8.9546,8.9546,0,0,1,1.7002-.13477,2.749,2.749,0,0,1,1.53809.32422,1.22683,1.22683,0,0,1,.43261.97168,1.13412,1.13412,0,0,1-.918,1.02539v.05371a1.30736,1.30736,0,0,1,.80957,1.08008,3.36217,3.36217,0,0,0,.32422,1.10645H454.4834a3.75271,3.75271,0,0,1-.35156-1.0791c-.08106-.48633-.35059-.70215-.918-.70215h-.48535Zm.02734-2.50977h.48535c.56738,0,1.02539-.18945,1.02539-.64844,0-.40429-.29687-.6748-.94433-.6748a2.42,2.42,0,0,0-.56641.05469Z" transform="translate(-32.1194 -82.76119)" style="fill:#1d1d1b"/></svg>