<?xml version="1.0" encoding="UTF-8"?>
<svg id="_Слой_1" data-name="Слой 1" xmlns="http://www.w3.org/2000/svg" viewBox="0 0 1329.63 500">
  <defs>
    <style>
      .cls-1 {
        fill: #145ff4;
      }
    </style>
  </defs>
  <path d="m321.55,241.82c25.83-25.62,41.83-61.13,41.83-100.39h0c0-78.1-63.31-141.41-141.41-141.41H37.62c-20.78,0-37.62,16.84-37.62,37.62v424.62c0,20.78,16.84,37.62,37.62,37.62h204.03c78.1,0,141.41-63.31,141.41-141.41h0c0-48.44-24.37-91.18-61.51-116.67ZM91.79,83.72h125.64c34.34,0,62.17,27.84,62.17,62.17h0c0,34.34-27.84,62.17-62.17,62.17h-125.64c-4.42,0-8-3.58-8-8v-108.34c0-4.42,3.58-8,8-8Zm207.49,270.21c0,34.34-27.84,62.17-62.17,62.17H91.79c-4.42,0-8-3.58-8-8v-108.34c0-4.42,3.58-8,8-8h145.32c34.34,0,62.17,27.84,62.17,62.17h0Z"/>
  <path class="cls-1" d="m1275.43,391.6h0c29.93,0,54.2,24.27,54.2,54.2h0c0,29.93-24.27,54.2-54.2,54.2h0c-29.93,0-54.2-24.27-54.2-54.2h0c0-29.93,24.27-54.2,54.2-54.2ZM1076.15.16c-134.61,1.86-244.48,111.71-246.37,246.32-1.96,139.67,110.68,253.52,249.91,253.52.96,0,1.91,0,2.87-.02,22.9-.26,41.34-18.91,41.34-41.81h0c0-23.3-19.04-42.04-42.34-41.78-2.19.02-4.39,0-6.6-.06-88.76-2.47-160.56-75.5-161.59-164.29-1.09-93.45,74.88-169.41,168.31-168.32,88.79,1.04,161.81,72.85,164.27,161.61.06,2.21.08,4.4.06,6.59-.26,23.3,18.49,42.34,41.78,42.34h0c22.91,0,41.56-18.43,41.81-41.33.01-.96.02-1.91.02-2.87,0-139.23-113.82-251.84-253.48-249.91Z"/>
  <path d="m714.48,243.85c29.28-25.88,47.32-61.07,47.32-99.89C761.8,64.46,686.2,0,592.96,0c-66.84,0-124.6,33.12-151.95,81.17-15.94,28,4.18,62.8,36.4,62.8h.62c15.35,0,29.26-8.44,37-21.7,13.18-22.57,43.1-38.33,77.9-38.33,47.01,0,85.09,28.74,85.09,64.17s-38,64.12-84.94,64.18h-1.2c-20.92,0-37.87,16.96-37.87,37.87h0c0,20.92,16.96,37.87,37.87,37.87h1.05v.36c3.24-.23,6.52-.36,9.84-.36,52.44,0,94.95,28.68,94.95,64.08s-42.51,64.08-94.95,64.08c-39.64,0-73.61-16.41-87.82-39.71-7.63-12.51-20.97-20.4-35.62-20.4h-.47c-32.87,0-53.36,36.1-36.05,64.05,29.27,47.27,89.93,79.75,160.03,79.75,98.67,0,178.68-64.38,178.68-143.8,0-45.42-26.19-85.88-67.03-112.24Z"/>
</svg>