<svg width="136" height="36" viewBox="0 0 136 36" fill="none" xmlns="http://www.w3.org/2000/svg">
<path fill-rule="evenodd" clip-rule="evenodd" d="M124.532 11.6179H121.169H118.574L122.913 4.61096L127.284 11.6179H124.532ZM124.694 1.05618C124.289 0.412185 123.803 0 123.048 0C122.293 0 121.781 0.412185 121.376 1.05618L110.099 18.9856H114.011L116.93 14.271H116.886L116.895 14.2655H116.934L116.93 14.271H128.929L131.87 18.9856H135.997L124.694 1.05618ZM110.582 0.257644H92.2646V3.52918H99.71V18.9856H103.136V3.52918H110.582V0.257644ZM88.2152 15.714H74.0791V10.8451H88.2152V8.08871H81.3098H76.6388H74.0791V3.52918H88.1883V0.257644H70.6799V18.9856H88.2152V15.714ZM47.8014 11.128H60.0841C61.4966 11.128 62.6528 12.2319 62.6528 13.5808C62.6528 14.9301 61.4966 16.0337 60.0841 16.0337H47.8014V11.128ZM46.4315 19.0022H60.3203C63.4429 19.0022 65.9977 16.5626 65.9977 13.5808C65.9977 10.6165 63.4725 8.18842 60.3749 8.16028C59.5225 8.06954 58.6254 8.06227 57.7367 8.08871H50.2554H47.7737V3.52918H60.7921V0.257644H44.3477V18.9856H46.4315V19.0022ZM55.8626 24.7142H45.9179C45.3438 24.7142 44.9382 24.8242 44.7021 25.0447C44.4654 25.2649 44.3477 25.6116 44.3477 26.0845V35.6453C44.3477 35.882 44.4771 36 44.7357 36H46.5762C46.824 36 46.9477 35.882 46.9477 35.6453V27.3421C46.9477 27.1273 47.066 27.02 47.3022 27.02H54.4783C54.7145 27.02 54.8328 27.1273 54.8328 27.3421V35.6453C54.8328 35.882 54.9565 36 55.2043 36H57.0448C57.3034 36 57.4328 35.882 57.4328 35.6453V26.0845C57.4328 25.6116 57.3146 25.2649 57.0784 25.0447C56.8418 24.8242 56.4367 24.7142 55.8626 24.7142ZM86.4908 31.5663C86.4908 31.9856 86.4544 32.3374 86.3814 32.6223C86.308 32.9074 86.1869 33.1329 86.0185 33.2993C85.8495 33.4662 85.6214 33.5844 85.3345 33.6541C85.0473 33.7242 84.6843 33.7589 84.2451 33.7589H79.2304C78.7918 33.7589 78.4287 33.7242 78.1415 33.6541C77.8546 33.5844 77.6265 33.4662 77.458 33.2993C77.2891 33.1329 77.1682 32.9074 77.0946 32.6223C77.0216 32.3374 76.9852 31.9856 76.9852 31.5663V29.148C76.9852 28.7286 77.0216 28.3768 77.0946 28.0919C77.1682 27.8068 77.2891 27.5813 77.458 27.4149C77.6265 27.248 77.8546 27.1299 78.1415 27.0601C78.4287 26.99 78.7918 26.9553 79.2304 26.9553H84.2451C84.6843 26.9553 85.0473 26.99 85.3345 27.0601C85.6214 27.1299 85.8495 27.248 86.0185 27.4149C86.1869 27.5813 86.308 27.8068 86.3814 28.0919C86.4544 28.3768 86.4908 28.7286 86.4908 29.148V31.5663ZM88.002 25.6895C87.625 25.3509 87.1352 25.1036 86.5333 24.9479C85.9311 24.7921 85.2019 24.7142 84.3469 24.7142H79.1297C78.2741 24.7142 77.5477 24.7921 76.9512 24.9479C76.3548 25.1036 75.8676 25.3509 75.4907 25.6895C75.1138 26.0279 74.8378 26.4662 74.6635 27.0037C74.4891 27.5412 74.4018 28.1967 74.4018 28.9704V31.7438C74.4018 32.5175 74.4891 33.1757 74.6635 33.7188C74.8378 34.2614 75.1138 34.7021 75.4907 35.0406C75.8676 35.3795 76.3548 35.6238 76.9512 35.7745C77.5477 35.9252 78.2741 36 79.1297 36H84.3469C85.2019 36 85.9311 35.9252 86.5333 35.7745C87.1352 35.6238 87.625 35.3795 88.002 35.0406C88.3792 34.7021 88.6521 34.2614 88.8211 33.7188C88.99 33.1757 89.0744 32.5175 89.0744 31.7438V28.9704C89.0744 28.1967 88.99 27.5412 88.8211 27.0037C88.6521 26.4662 88.3792 26.0279 88.002 25.6895ZM70.282 28.9866C70.282 29.4703 70.1636 29.8305 69.9275 30.0668C69.6909 30.3034 69.2857 30.4215 68.7116 30.4215H62.2451V27.1325C62.2451 27.0037 62.3181 26.939 62.4646 26.939H68.7116C69.2857 26.939 69.6909 27.0572 69.9275 27.2939C70.1636 27.5304 70.282 27.8903 70.282 28.3739V28.9866ZM69.2351 24.7142H60.1684C59.8304 24.7142 59.6615 24.8752 59.6615 25.1979V35.6453C59.6615 35.882 59.7909 36 60.05 36H61.8735C62.1213 36 62.2451 35.882 62.2451 35.6453V32.55H69.2351C70.5293 32.55 71.4583 32.2702 72.0212 31.7113C72.5841 31.1525 72.8651 30.3248 72.8651 29.2285V28.0354C72.8651 26.939 72.5841 26.1114 72.0212 25.5526C71.4583 24.9937 70.5293 24.7142 69.2351 24.7142Z" fill="#746679"/>
<path fill-rule="evenodd" clip-rule="evenodd" d="M0 0.114258H3.94714V17.875H0V0.114258Z" fill="#EC6606"/>
<path fill-rule="evenodd" clip-rule="evenodd" d="M37.3688 35.892H0V21.2949H3.94727V32.1229H37.3688V35.892Z" fill="#EC6606"/>
<path fill-rule="evenodd" clip-rule="evenodd" d="M22.168 0.208008H37.3671V28.4902H33.4198V3.97713H22.168V0.208008Z" fill="#EC6606"/>
<path fill-rule="evenodd" clip-rule="evenodd" d="M9.35729 17.8082H5.41016V0.137695H9.35729V17.8082Z" fill="#EC6606"/>
<path fill-rule="evenodd" clip-rule="evenodd" d="M11.7446 17.8082H10.7578V0.137695H11.7446V17.8082Z" fill="#EC6606"/>
<path fill-rule="evenodd" clip-rule="evenodd" d="M17.084 17.8082H13.1367V0.137695H17.084V17.8082Z" fill="#EC6606"/>
<path fill-rule="evenodd" clip-rule="evenodd" d="M19.4751 17.8082H18.4883V0.137695H19.4751V17.8082Z" fill="#EC6606"/>
</svg>
