<?xml version="1.0" encoding="UTF-8"?>
<!DOCTYPE svg PUBLIC "-//W3C//DTD SVG 1.1//EN" "http://www.w3.org/Graphics/SVG/1.1/DTD/svg11.dtd">
<!-- Creator: CorelDRAW 2021.5 -->
<svg xmlns="http://www.w3.org/2000/svg" xml:space="preserve" width="1746px" height="400px" version="1.1" style="shape-rendering:geometricPrecision; text-rendering:geometricPrecision; image-rendering:optimizeQuality; fill-rule:evenodd; clip-rule:evenodd"
viewBox="0 0 1452.19 332.42"
 xmlns:xlink="http://www.w3.org/1999/xlink"
 xmlns:xodm="http://www.corel.com/coreldraw/odm/2003">
 <defs>
  <style type="text/css">
   <![CDATA[
    .fil0 {fill:#A1A2A2}
    .fil2 {fill:#FEFEFE;fill-rule:nonzero}
    .fil1 {fill:#A2A3A3;fill-rule:nonzero}
   ]]>
  </style>
 </defs>
 <g id="Layer_x0020_1">
  <metadata id="CorelCorpID_0Corel-Layer"/>
  <polygon class="fil0" points="0,2.78 328.55,2.78 328.55,331.33 0,331.33 "/>
  <path class="fil1" d="M523.18 189.2l-114.66 0 0 -186.31 35.36 0 0 155.89 79.3 0 0 30.42zm88.33 2.89c-24.74,0 -44.03,-9.32 -57.82,-27.86 -13.79,-18.59 -20.64,-41.51 -20.64,-68.81 0,-27.12 7.32,-49.81 21.95,-68.03 14.67,-18.26 34.01,-27.39 58,-27.39 24.23,0 43.33,9.13 57.4,27.39 14.07,18.22 21.11,41.05 21.11,68.45 0,28.74 -7.32,51.99 -21.9,69.7 -14.63,17.7 -33.96,26.55 -58.1,26.55zm0.28 -27.07c12.12,0 22.32,-4.98 30.71,-15 8.38,-10.02 12.57,-28.14 12.57,-54.46 0,-21.39 -3.49,-38.16 -10.38,-50.27 -6.9,-12.16 -17.66,-18.22 -32.2,-18.22 -28.79,0 -43.14,23.15 -43.14,69.47 0,22.45 3.63,39.5 10.99,51.11 7.32,11.6 17.8,17.37 31.45,17.37zm252.38 -71.09l0 95.27 -14.91 0 -10.2 -25.11c-10.85,18.64 -27.63,28 -50.36,28 -25.4,0 -44.36,-9.69 -56.89,-28.98 -12.49,-19.29 -18.78,-41.6 -18.78,-66.99 0,-26.84 6.99,-49.58 20.97,-68.17 13.98,-18.63 33.5,-27.95 58.61,-27.95 18.78,0 34.2,5.45 46.31,16.35 12.07,10.86 19.71,24.37 22.92,40.58l-29.21 5.18c-5.45,-22.74 -18.54,-34.11 -39.18,-34.11 -13.19,0 -23.95,5.36 -32.29,16.12 -8.34,10.72 -12.49,27.26 -12.49,49.53 0,47.05 14.77,70.58 44.22,70.58 11.46,0 20.96,-3.96 28.47,-11.88 7.5,-7.92 11.27,-18.4 11.27,-31.4l-38.48 0 0 -27.02 70.02 0zm71.66 95.27l-33.59 0 0 -186.31 33.59 0 0 186.31zm186.22 0l-35.5 0 -28.93 -76.59 -47.25 0 0 76.59 -33.59 0 0 -186.31 80.84 0c22.45,0 38.99,5.08 49.52,15.23 10.58,10.11 15.84,23.25 15.84,39.37 0,23.95 -11.18,40.4 -33.59,49.39l32.66 82.32zm-111.68 -103.47l41.8 0c12.06,0 21.1,-2.52 27.02,-7.64 5.91,-5.08 8.85,-12.12 8.85,-21.02 0,-8.2 -2.89,-14.81 -8.71,-19.84 -5.83,-5.08 -13.98,-7.6 -24.46,-7.6l-44.5 0 0 56.1zm272.6 -82.84l0 119.69c0,16.21 -1.81,28.7 -5.49,37.41 -3.64,8.76 -10.67,16.26 -21.06,22.6 -10.44,6.33 -23.16,9.5 -38.16,9.5 -15.19,0 -27.67,-2.75 -37.46,-8.2 -9.78,-5.45 -16.82,-12.95 -21.1,-22.45 -4.29,-9.51 -6.43,-21.67 -6.43,-36.39l0 -122.16 34.29 0 0 119.69c0,16.4 3.4,27.16 10.29,32.29 6.85,5.17 14.87,7.73 23.95,7.73 10.48,0 18.82,-2.75 25.11,-8.29 6.29,-5.5 9.41,-16.08 9.41,-31.73l0 -119.69 26.65 0zm18.83 141.4l32.61 -6.94c3.91,18.45 18.92,27.67 45.05,27.67 11.88,0 21.06,-2.33 27.49,-7.08 6.43,-4.7 9.6,-10.57 9.6,-17.61 0,-5.08 -1.44,-9.78 -4.33,-14.12 -2.94,-4.33 -9.18,-7.73 -18.73,-10.15l-35.6 -9.32c-12.2,-3.17 -21.2,-6.8 -27.02,-10.81 -5.82,-4.05 -10.53,-9.78 -14.02,-17.15 -3.5,-7.36 -5.27,-15.23 -5.27,-23.62 0,-16.63 6.2,-30 18.59,-40.06 12.39,-10.07 28.19,-15.1 47.48,-15.1 16.02,0 30.33,3.54 42.95,10.53 12.58,6.99 20.64,16.91 24.09,29.77l-31.96 7.92c-4.89,-14.12 -16.35,-21.15 -34.38,-21.15 -10.49,0 -18.45,2.14 -23.95,6.52 -5.5,4.38 -8.25,9.93 -8.25,16.68 0,10.62 8.62,18.08 25.91,22.36l31.68 7.93c19.19,4.79 32.05,11.92 38.62,21.33 6.57,9.46 9.83,19.85 9.83,31.22 0,18.26 -6.89,32.71 -20.68,43.19 -13.8,10.53 -31.64,15.79 -53.58,15.79 -18.45,0 -34.62,-3.86 -48.5,-11.65 -13.89,-7.73 -23.11,-19.75 -27.63,-36.15z"/>
  <path class="fil1" d="M420.62 331.17l-12.71 0 25.73 -81.07 18.53 0 25.6 81.07 -15.69 0 -20.5 -67.47 -0.83 0 -20.13 67.47zm87.07 1.25c-8.88,0 -15.65,-3.2 -20.31,-9.57 -4.68,-6.38 -7.02,-13.68 -7.02,-21.91 0,-8.88 2.58,-16.26 7.75,-22.16 5.17,-5.9 12,-8.86 20.47,-8.86 8.03,0 14.64,2.88 19.81,8.62 5.15,5.74 7.74,13.22 7.74,22.4 0,9.47 -2.67,17.07 -8.05,22.83 -5.37,5.75 -12.16,8.65 -20.39,8.65zm0.47 -11.17c9.1,0 13.66,-6.79 13.66,-20.37 0,-6.14 -1.09,-10.99 -3.26,-14.52 -2.19,-3.54 -5.54,-5.33 -10.04,-5.33 -4.68,0 -8.15,1.85 -10.4,5.5 -2.25,3.67 -3.38,8.53 -3.38,14.59 0,6.53 1.19,11.52 3.58,14.96 2.4,3.45 5.68,5.17 9.84,5.17zm40.32 9.92l0 -59.99 37.18 0 0 10.52 -23.64 0 0 49.47 -13.54 0zm58.85 -6.07l0 6.07 -13.55 0 0 -59.99 13.55 0 0 26.07c0,3.93 -0.11,8.11 -0.29,12.53 1.97,-3.2 4.83,-7.12 8.56,-11.76l15.36 -19.11 0 -7.73 13.54 0 0 59.99 -13.54 0 0 -24.65c0,-4.91 0.14,-9.23 0.43,-12.96 -1.91,3.1 -4.52,6.75 -7.85,10.95l-16.21 20.59zm88.08 -15.97l11.65 1.2c-1.52,7.52 -4.42,13.07 -8.73,16.68 -4.32,3.61 -9.53,5.41 -15.63,5.41 -8.28,0 -14.64,-3.02 -19.08,-9.06 -4.46,-6.04 -6.69,-13.44 -6.69,-22.2 0,-9.02 2.43,-16.48 7.3,-22.38 4.88,-5.9 11.37,-8.86 19.48,-8.86 13.07,0 20.86,6.9 23.35,20.68l-11.65 1.6c-1.02,-7.44 -4.69,-11.17 -10.99,-11.17 -4.58,0 -7.93,2.01 -10,6.04 -2.08,4.02 -3.12,8.88 -3.12,14.58 0,6.06 1.08,10.72 3.25,14.01 2.15,3.28 5.17,4.94 9.04,4.94 5.94,0 9.89,-3.83 11.82,-11.47zm32.03 22.04l0 -49.47 -16.63 0 0 -10.52 46.57 0 0 10.52 -16.4 0 0 49.47 -13.54 0zm50.94 -6.07l0 6.07 -13.54 0 0 -59.99 13.54 0 0 26.07c0,3.93 -0.1,8.11 -0.29,12.53 1.97,-3.2 4.83,-7.12 8.56,-11.76l15.37 -19.11 0 -7.73 13.54 0 0 59.99 -13.54 0 0 -24.65c0,-4.91 0.14,-9.23 0.42,-12.96 -1.9,3.1 -4.52,6.75 -7.84,10.95l-16.22 20.59zm87.09 -33.14l20.9 39.21 -14.56 0 -15.73 -28.99 -10.7 11.29 0 17.7 -13.55 0 0 -59.99 13.55 0 0 17.82c0,3.83 -0.13,7.26 -0.41,10.28 1.97,-2.62 3.85,-4.87 5.64,-6.71l20.13 -21.39 13.31 0 -18.58 20.78zm78.75 39.21l-12.89 0c-1.16,-3.65 -1.85,-7.69 -2.09,-12.13 -3.59,8.92 -10.36,13.38 -20.31,13.38 -5.98,0 -10.77,-1.76 -14.39,-5.27 -3.63,-3.5 -5.44,-7.9 -5.44,-13.22 0,-13.76 12.1,-20.65 36.29,-20.65 0.95,0 2.23,0.02 3.85,0.06l0 -4.52c0,-6.23 -4.24,-9.33 -12.71,-9.33 -8.23,0 -12.89,3.1 -14.01,9.33l-11.51 -1.73c0.63,-4.98 3.2,-9.1 7.7,-12.32 4.52,-3.22 11.05,-4.85 19.6,-4.85 4.65,0 8.42,0.41 11.36,1.18 2.92,0.77 5.39,2.07 7.42,3.91 2.02,1.85 3.42,3.83 4.19,6 0.77,2.15 1.16,5.8 1.16,10.95l0 27.08c0,3.94 0.59,7.97 1.78,12.13zm-14.98 -30.53c-17.49,0 -26.25,4.17 -26.25,12.52 0,2.5 0.89,4.63 2.65,6.39 1.77,1.76 4.42,2.66 7.99,2.66 5.15,0 9.04,-1.65 11.68,-4.91 2.61,-3.26 3.93,-6.97 3.93,-11.13l0 -5.53zm59.8 30.53l0 -59.99 31.18 0c7.22,0 12.16,1.52 14.86,4.58 2.7,3.04 4.03,6.49 4.03,10.32 0,6.65 -3.85,11.13 -11.57,13.42 9.18,2.27 13.78,7.28 13.78,15.04 0,4.91 -1.6,8.9 -4.76,11.98 -3.16,3.11 -7.64,4.65 -13.42,4.65l-34.1 0zm13.54 -35.34l15.51 0c5.27,0 7.91,-2.53 7.91,-7.6 0,-4.78 -2.64,-7.2 -7.91,-7.2l-15.51 0 0 14.8zm0 24.81l15.51 0c3.41,0 5.82,-0.66 7.24,-2.04 1.44,-1.36 2.15,-3.47 2.15,-6.33 0,-5.61 -3.12,-8.43 -9.39,-8.43l-15.51 0 0 16.8zm96.88 10.53l-14.61 0 0 -81.07 33.2 0c9.47,0 16.48,2.39 21.07,7.15 4.56,4.77 6.85,10.4 6.85,16.89 0,7.42 -2.48,13.42 -7.42,18 -4.95,4.6 -11.23,6.9 -18.83,6.9l-20.26 0 0 32.13zm0 -44.66l17.3 0c4.5,0 7.94,-1.12 10.31,-3.33 2.4,-2.23 3.57,-5.17 3.57,-8.86 0,-3.32 -1.09,-6.16 -3.28,-8.55 -2.21,-2.37 -6.19,-3.55 -11.92,-3.55l-15.98 0 0 24.29zm79.24 45.91c-8.87,0 -15.65,-3.2 -20.31,-9.57 -4.68,-6.38 -7.01,-13.68 -7.01,-21.91 0,-8.88 2.57,-16.26 7.74,-22.16 5.17,-5.9 12,-8.86 20.48,-8.86 8.02,0 14.63,2.88 19.8,8.62 5.15,5.74 7.75,13.22 7.75,22.4 0,9.47 -2.68,17.07 -8.05,22.83 -5.37,5.75 -12.17,8.65 -20.4,8.65zm0.47 -11.17c9.1,0 13.66,-6.79 13.66,-20.37 0,-6.14 -1.09,-10.99 -3.26,-14.52 -2.19,-3.54 -5.53,-5.33 -10.03,-5.33 -4.69,0 -8.15,1.85 -10.4,5.5 -2.25,3.67 -3.39,8.53 -3.39,14.59 0,6.53 1.2,11.52 3.59,14.96 2.39,3.45 5.67,5.17 9.83,5.17zm75.01 -12.12l11.65 1.2c-1.52,7.52 -4.42,13.07 -8.73,16.68 -4.32,3.61 -9.53,5.41 -15.63,5.41 -8.27,0 -14.64,-3.02 -19.08,-9.06 -4.46,-6.04 -6.69,-13.44 -6.69,-22.2 0,-9.02 2.43,-16.48 7.3,-22.38 4.88,-5.9 11.37,-8.86 19.48,-8.86 13.08,0 20.86,6.9 23.35,20.68l-11.65 1.6c-1.02,-7.44 -4.69,-11.17 -10.99,-11.17 -4.58,0 -7.93,2.01 -9.99,6.04 -2.09,4.02 -3.13,8.88 -3.13,14.58 0,6.06 1.08,10.72 3.25,14.01 2.15,3.28 5.17,4.94 9.04,4.94 5.94,0 9.89,-3.83 11.82,-11.47zm56.66 0l11.65 1.2c-1.52,7.52 -4.42,13.07 -8.73,16.68 -4.32,3.61 -9.53,5.41 -15.63,5.41 -8.28,0 -14.64,-3.02 -19.08,-9.06 -4.46,-6.04 -6.69,-13.44 -6.69,-22.2 0,-9.02 2.43,-16.48 7.3,-22.38 4.88,-5.9 11.37,-8.86 19.48,-8.86 13.07,0 20.86,6.9 23.35,20.68l-11.65 1.6c-1.02,-7.44 -4.69,-11.17 -10.99,-11.17 -4.58,0 -7.93,2.01 -10,6.04 -2.08,4.02 -3.12,8.88 -3.12,14.58 0,6.06 1.08,10.72 3.25,14.01 2.15,3.28 5.17,4.94 9.04,4.94 5.94,0 9.89,-3.83 11.82,-11.47zm35.57 15.97l0 6.07 -13.54 0 0 -59.99 13.54 0 0 26.07c0,3.93 -0.1,8.11 -0.28,12.53 1.97,-3.2 4.82,-7.12 8.55,-11.76l15.37 -19.11 0 -7.73 13.54 0 0 59.99 -13.54 0 0 -24.65c0,-4.91 0.14,-9.23 0.43,-12.96 -1.91,3.1 -4.52,6.75 -7.85,10.95l-16.22 20.59zm67 0l0 6.07 -13.54 0 0 -59.99 13.54 0 0 26.07c0,3.93 -0.1,8.11 -0.28,12.53 1.96,-3.2 4.82,-7.12 8.55,-11.76l15.37 -19.11 0 -7.73 13.54 0 0 59.99 -13.54 0 0 -24.65c0,-4.91 0.14,-9.23 0.42,-12.96 -1.9,3.1 -4.52,6.75 -7.84,10.95l-16.22 20.59z"/>
  <polygon class="fil2" points="59.32,288.99 196.56,288.99 196.56,262.27 91.16,262.27 91.16,42.33 59.32,42.33 "/>
  <path class="fil2" d="M151.3 233.91l24.57 0 0 -82.48 23.16 0c22.32,0.85 32.49,10.74 38.13,37 5.37,23.73 9.61,39.83 12.71,45.48l25.43 0c-3.96,-7.34 -8.48,-25.7 -14.69,-52.25 -4.52,-19.78 -13.28,-33.33 -27.96,-38.42l0 -0.84c20.05,-6.78 35.87,-23.45 35.87,-48.59 0,-14.68 -5.37,-27.68 -14.97,-36.15 -11.87,-10.73 -28.81,-15.53 -55.08,-15.53 -16.95,0 -34.74,1.41 -47.17,3.95l0 187.83zm24.57 -170.6c3.96,-1.13 12.43,-2.26 24.29,-2.26 25.99,0.28 43.78,11.02 43.78,35.59 0,21.75 -16.66,36.15 -42.93,36.15l-25.14 0 0 -69.48z"/>
 </g>
</svg>
