<?xml version="1.0"?>
<svg width="153" height="34" xmlns="http://www.w3.org/2000/svg" xmlns:svg="http://www.w3.org/2000/svg">
 <g class="layer">
  <title>Layer 1</title>
  <path d="m57.63,21.24c-2.66,0 -5.33,-0.96 -7.9,-1.88c-2.53,-0.91 -5.15,-1.86 -7.71,-1.86c-1.86,0 -3.53,0.49 -5.12,1.49l0,4.25c1.59,-0.92 3.27,-1.38 5.12,-1.38c2.67,0 5.34,0.96 7.91,1.89c2.53,0.91 5.14,1.85 7.7,1.85c2.13,0 4.04,-0.65 5.83,-1.98l0,-4.22c-1.8,1.24 -3.71,1.84 -5.83,1.84z" fill="#ed1c24" id="svg_1"/>
  <path d="m49.73,10.95c-2.53,-0.91 -5.15,-1.85 -7.71,-1.85c-1.86,0 -3.53,0.48 -5.12,1.48l0,4.27c1.59,-0.94 3.27,-1.39 5.12,-1.39c2.67,0 5.34,0.96 7.91,1.89c2.53,0.91 5.14,1.85 7.7,1.85c2.12,0 4.04,-0.65 5.83,-1.98l0,-4.22c-1.8,1.23 -3.71,1.83 -5.83,1.83c-2.66,0.01 -5.33,-0.95 -7.9,-1.88z" fill="#ed1c24" id="svg_2"/>
  <path d="m49.93,32.15c2.53,0.91 5.14,1.85 7.7,1.85c2.13,0 4.04,-0.65 5.83,-1.98l0,-4.22c-1.8,1.24 -3.71,1.84 -5.83,1.84c-2.66,0 -5.33,-0.96 -7.9,-1.89c-2.53,-0.91 -5.15,-1.85 -7.71,-1.85c-1.86,0 -3.53,0.49 -5.12,1.49l0,4.25c1.59,-0.92 3.27,-1.38 5.12,-1.38c2.67,0 5.33,0.96 7.91,1.89z" fill="#ed1c24" id="svg_3"/>
  <path d="m125.86,12.93c-1.81,-1.66 -4.2,-2.47 -7.31,-2.47c-3.11,0 -5.5,0.81 -7.3,2.47c-2.85,2.61 -3.18,6.16 -3.18,8.61c0,2.45 0.33,6 3.18,8.61c1.81,1.66 4.2,2.47 7.3,2.47c3.11,0 5.5,-0.81 7.31,-2.47c2.84,-2.61 3.17,-6.16 3.17,-8.61c0,-2.45 -0.33,-6 -3.17,-8.61zm-2.85,10.32c0,1.05 0.01,2.83 -1.28,4.06c-0.75,0.7 -1.9,1.14 -2.99,1.14c-1.09,0 -2.23,-0.44 -2.98,-1.14c-1.29,-1.23 -1.29,-3 -1.29,-4.06l0,-3.81c0,-1.06 0,-2.82 1.29,-4.06c0.75,-0.7 1.89,-1.13 2.98,-1.13c1.1,0 2.24,0.43 2.99,1.13c1.29,1.24 1.28,3.01 1.28,4.07l0,3.8zm-25.3,8.65l0,-16.63l-2.32,-4.47l8.18,0l0,21.1l-5.86,0l0,0zm43.21,-16.91c-0.53,0.28 -1.17,0.74 -1.59,1.08l-0.11,0.09l0,15.74l-5.86,0l0,-16.91l-2.31,-4.19l7.06,0l0,2.27l0.5,-0.46c0.78,-0.73 1.5,-1.21 2.35,-1.57c1.2,-0.56 2.23,-0.76 3.81,-0.76c2.64,0 4.61,0.64 6.02,1.98c2.21,2.07 2.21,4.71 2.21,6.29l0,13.35l-5.86,0l0,-13.89c0,-0.92 0,-1.97 -0.94,-2.85c-0.64,-0.59 -1.59,-0.91 -2.67,-0.91c-1.08,0 -1.96,0.39 -2.61,0.74zm-116.78,-0.78c-1.43,0 -2.59,0.83 -3.45,1.56l-0.11,0.09l0,16.04l-5.85,0l0,-14.42c0,-0.48 0,-1.61 -0.84,-2.44c-0.5,-0.55 -1.25,-0.84 -2.16,-0.84c-1.43,0 -2.6,0.84 -3.45,1.56l-0.11,0.09l0,16.05l-5.86,0l0,-16.91l-2.31,-4.19l7.07,0l0,2.22l0.96,-0.79c1.6,-1.31 3.48,-1.95 5.74,-1.95c2.22,0 3.87,0.73 5.2,2.31l0.22,0.26l0.23,-0.26c1.33,-1.56 3.09,-2.31 5.39,-2.31c3.73,0 8.18,1.37 8.18,7.91l0,13.71l-5.86,0l0,-14.42c0,-0.52 0,-1.62 -0.82,-2.44c-0.52,-0.55 -1.26,-0.83 -2.17,-0.83zm59.6,0.19l-4.42,2.04c-0.5,-0.96 -1.46,-1.53 -2.62,-1.53c-0.99,0 -1.93,0.41 -2.44,1.07c-0.6,0.73 -0.91,1.9 -0.91,3.48l0,12.44l-5.85,0l0,-21.1l4.88,0l0,3.28l1.02,-1.39c0.4,-0.57 1.95,-2.42 5.06,-2.42c0.61,0 2.45,0 3.71,0.95c0.58,0.46 1.55,1.46 1.57,3.18zm19.83,-9.89c0,1.96 -1.54,3.49 -3.51,3.49c-1.96,0 -3.5,-1.54 -3.5,-3.49c0,-1.95 1.54,-3.48 3.5,-3.48c1.97,0 3.51,1.53 3.51,3.48zm-12.06,-4.51l0,31.9l-5.86,0l0,-31.9l5.86,0z" fill="#000000" id="svg_4"/>
 </g>
</svg>