<?xml version="1.0" encoding="UTF-8"?>
<!DOCTYPE svg PUBLIC "-//W3C//DTD SVG 1.1//EN" "http://www.w3.org/Graphics/SVG/1.1/DTD/svg11.dtd">
<!-- Creator: CorelDRAW X8 -->
<svg xmlns="http://www.w3.org/2000/svg" xml:space="preserve" width="52.7mm" height="11.7mm" version="1.1" style="shape-rendering:geometricPrecision; text-rendering:geometricPrecision; image-rendering:optimizeQuality; fill-rule:evenodd; clip-rule:evenodd"
viewBox="0 0 5270 1170"
 xmlns:xlink="http://www.w3.org/1999/xlink">
 <defs>
  <style type="text/css">
   <![CDATA[
    .fil1 {fill:#66D43D}
    .fil0 {fill:black;fill-rule:nonzero}
   ]]>
  </style>
 </defs>
 <g id="Слой_x0020_1">
  <metadata id="CorelCorpID_0Corel-Layer"/>
  <path class="fil0" d="M145 355l0 802 -144 0 0 -717 144 -85zm665 -1c101,0 182,29 241,89 60,58 90,144 90,256l0 458 -144 0 0 -441c0,-77 -19,-135 -56,-174 -37,-39 -90,-59 -159,-59 -78,0 -140,23 -184,68 -46,46 -68,112 -68,197l0 409 -144 0 0 -795 138 0 0 120c29,-41 68,-72 117,-95 50,-22 106,-33 169,-33l0 0 0 0zm981 757c-21,18 -47,32 -78,41 -31,9 -63,15 -96,15 -80,0 -142,-22 -186,-66 -44,-43 -66,-104 -66,-184l0 -698 144 -86 0 229 228 0 0 118 -228 0 0 431c0,43 11,76 32,99 21,23 53,35 93,35 44,0 81,-13 112,-38l45 104 0 0 0 0zm874 -347c0,11 -1,25 -4,44l-645 0c10,69 40,126 93,168 52,42 118,64 196,64 94,0 171,-32 229,-96l80 93c-36,42 -81,74 -135,97 -53,21 -113,33 -179,33 -84,0 -158,-18 -224,-53 -65,-34 -115,-82 -151,-145 -35,-62 -53,-132 -53,-210 0,-76 18,-146 52,-208 35,-62 83,-110 142,-145 61,-34 129,-52 205,-52 77,0 144,18 204,52 59,35 106,83 140,145 33,62 50,133 50,213l0 0 0 0zm-394 -288c-69,0 -126,21 -173,63 -46,42 -74,97 -82,165l511 0c-8,-67 -36,-122 -83,-164 -46,-43 -104,-64 -173,-64zm1018 -122c101,0 181,29 241,89 59,58 89,144 89,256l0 458 -144 0 0 -441c0,-77 -19,-135 -56,-174 -37,-39 -90,-59 -159,-59 -78,0 -139,23 -184,68 -45,46 -68,112 -68,197l0 409 -144 0 0 -795 138 0 0 120c29,-41 68,-72 118,-95 49,-22 106,-33 169,-33l0 0 0 0zm825 813c-65,0 -127,-10 -187,-27 -61,-18 -107,-40 -141,-67l60 -114c35,25 77,45 127,60 50,15 100,22 152,22 126,0 188,-36 188,-108 0,-23 -8,-43 -25,-56 -17,-14 -38,-25 -64,-31 -25,-7 -62,-15 -108,-22 -64,-10 -117,-22 -157,-35 -41,-12 -76,-34 -104,-66 -29,-30 -44,-74 -44,-130 0,-72 30,-130 90,-173 60,-44 141,-66 241,-66 53,0 107,7 160,19 53,14 97,31 130,53l-61 115c-65,-43 -142,-64 -230,-64 -61,0 -107,11 -140,31 -31,20 -47,46 -47,79 0,26 9,46 27,62 17,14 40,25 66,33 27,7 64,15 112,24 64,11 116,23 155,35 40,12 74,34 101,64 29,29 43,72 43,125 0,72 -31,130 -92,172 -62,43 -146,65 -252,65l0 0 0 0zm814 -813c109,0 194,27 252,82 58,53 88,134 88,241l0 480 -136 0 0 -105c-25,37 -59,65 -103,85 -44,20 -97,30 -159,30 -89,0 -160,-22 -214,-66 -53,-43 -79,-99 -79,-169 0,-70 25,-126 75,-169 52,-42 133,-64 244,-64l228 0 0 -28c0,-62 -18,-110 -54,-143 -36,-33 -89,-49 -159,-49 -47,0 -93,8 -138,23 -45,16 -83,36 -114,62l-60 -108c41,-33 89,-58 147,-76 57,-16 117,-26 182,-26zm-34 701c55,0 103,-12 143,-37 40,-24 69,-59 87,-104l0 -111 -222 0c-122,0 -183,41 -183,123 0,40 15,72 46,95 32,23 75,34 129,34l0 0 0 0z"/>
  <polygon class="fil1" points="228,133 114,200 1,267 1,0 114,67 "/>
 </g>
</svg>
