<?xml version="1.0"?>
<svg width="129" height="24" xmlns="http://www.w3.org/2000/svg" xmlns:svg="http://www.w3.org/2000/svg">
 <defs>
  <clipPath id="clip0">
   <rect fill="white" height="29" id="svg_1" width="129"/>
  </clipPath>
 </defs>
 <g class="layer">
  <title>Layer 1</title>
  <g clip-path="url(#clip0)" id="svg_2">
   <path d="m125,6.51l4.21,0l0,16.8l-4.21,0l0,-1.78c-0.85,0.78 -1.63,1.32 -2.49,1.71c-0.85,0.31 -1.71,0.54 -2.72,0.54c-2.18,0 -4.05,-0.85 -5.68,-2.56c-1.64,-1.7 -2.42,-3.79 -2.42,-6.27c0,-2.63 0.78,-4.73 2.34,-6.35c1.55,-1.63 3.42,-2.48 5.6,-2.48c1.01,0 1.95,0.15 2.88,0.54c0.86,0.39 1.71,0.93 2.49,1.71l0,-1.86l0,0zm-4.51,3.48c-1.32,0 -2.41,0.47 -3.27,1.4c-0.86,0.93 -1.32,2.09 -1.32,3.56c0,1.47 0.46,2.63 1.32,3.56c0.86,0.93 1.95,1.4 3.27,1.4c1.32,0 2.41,-0.47 3.34,-1.4c0.86,-0.93 1.33,-2.09 1.33,-3.64c0,-1.47 -0.47,-2.63 -1.33,-3.56c-0.85,-0.85 -1.94,-1.32 -3.34,-1.32z" fill="black" id="svg_3"/>
   <path d="m98.77,0l4.2,0l0,23.31l-4.2,0l0,-1.78c-0.85,0.78 -1.63,1.32 -2.49,1.71c-0.85,0.31 -1.71,0.54 -2.72,0.54c-2.18,0 -4.05,-0.85 -5.68,-2.56c-1.64,-1.7 -2.42,-3.79 -2.42,-6.27c0,-2.63 0.78,-4.73 2.34,-6.35c1.55,-1.63 3.42,-2.48 5.6,-2.48c1.01,0 1.95,0.15 2.88,0.54c0.86,0.39 1.71,0.93 2.49,1.71l0,-8.37zm-4.43,9.99c-1.33,0 -2.42,0.47 -3.27,1.4c-0.86,0.93 -1.33,2.09 -1.33,3.56c0,1.47 0.47,2.63 1.33,3.56c0.85,0.93 1.94,1.4 3.27,1.4c1.32,0 2.49,-0.47 3.34,-1.4c0.86,-0.93 1.33,-2.09 1.33,-3.64c0,-1.47 -0.47,-2.63 -1.33,-3.56c-0.85,-0.85 -2.02,-1.32 -3.34,-1.32z" fill="black" id="svg_4"/>
   <path d="m79.55,17.89l4.36,0c-0.39,1.86 -1.25,3.26 -2.49,4.19c-1.25,0.92 -3.04,1.39 -5.22,1.39c-2.72,0 -4.9,-0.78 -6.46,-2.25c-1.56,-1.55 -2.26,-3.64 -2.26,-6.35c0,-2.71 0.78,-4.8 2.26,-6.35c1.48,-1.55 3.5,-2.32 6.15,-2.32c2.65,0 4.67,0.69 6.07,2.17c1.4,1.47 2.18,3.56 2.18,6.27c0,0.15 0,0.39 0,0.54c0,0.23 0,0.54 -0.08,0.93l-11.83,0c0,1.32 0.31,2.25 0.93,2.94c0.63,0.7 1.56,1.01 2.81,1.01c0.85,0 1.63,-0.15 2.18,-0.54c0.62,-0.31 1.09,-0.93 1.4,-1.63zm-7.24,-4.8l7.16,0l0,-0.39c0,-1 -0.31,-1.78 -1.01,-2.4c-0.7,-0.62 -1.56,-0.93 -2.57,-0.93c-1.09,0 -1.95,0.31 -2.57,1.01c-0.7,0.7 -1.01,1.55 -1.01,2.71z" fill="black" id="svg_5"/>
   <path d="m39.85,6.51l4.28,0l0,1.93c0.7,-0.77 1.56,-1.39 2.42,-1.78c0.85,-0.39 1.86,-0.62 2.87,-0.62c1.02,0 2.03,0.23 2.88,0.78c0.86,0.54 1.56,1.24 2.03,2.24c0.7,-1 1.48,-1.7 2.49,-2.24c1.01,-0.55 2.02,-0.78 3.19,-0.78c1.17,0 2.26,0.31 3.19,0.85c0.94,0.55 1.56,1.24 1.95,2.17c0.39,0.93 0.62,2.33 0.62,4.42l0,9.91l-4.28,0l0,-8.52c0,-1.93 -0.23,-3.17 -0.7,-3.87c-0.47,-0.7 -1.17,-1.01 -2.18,-1.01c-0.7,0 -1.4,0.23 -1.95,0.62c-0.54,0.39 -1.01,1.01 -1.32,1.71c-0.31,0.69 -0.39,1.85 -0.39,3.48l0,7.59l-4.28,0l0,-8.21c0,-1.47 -0.08,-2.55 -0.31,-3.25c-0.23,-0.7 -0.55,-1.16 -1.01,-1.47c-0.47,-0.31 -1.01,-0.47 -1.64,-0.47c-0.7,0 -1.32,0.23 -1.94,0.62c-0.55,0.39 -1.02,1.01 -1.33,1.78c-0.31,0.78 -0.46,1.94 -0.46,3.57l0,7.51l-4.28,0l0.15,-16.96z" fill="black" id="svg_6"/>
   <path d="m105.39,6.51l4.28,0l0,16.8l-4.28,0l0,-16.8z" fill="black" id="svg_7"/>
   <path d="m105.39,0l0,4.26l4.28,0l0,-4.26l-4.28,0z" fill="black" id="svg_8"/>
   <path d="m26.7,6.58l4.28,0l0,16.89l-4.28,0l0,-16.89z" fill="black" id="svg_9"/>
   <path d="m26.7,0.08l0,4.26l4.28,0l0,-4.26l-4.28,0z" fill="black" id="svg_10"/>
   <path d="m33.24,12.47l0,4.18l4.2,0l0,-4.18l-4.2,0z" fill="black" id="svg_11"/>
   <path d="m23.27,23.31l0,-7.04l-7.08,0l0,7.04l7.08,0z" fill="black" id="svg_12"/>
   <path d="m14.32,14.33l0,-7.13l-7.16,0l0,7.13l7.16,0z" fill="#0070BA" id="svg_13"/>
   <path d="m14.32,23.31l0,-7.04l-14.32,0l0,7.04l14.32,0z" fill="#0070BA" id="svg_14"/>
   <path d="m16.19,14.33l7.08,0l0,-14.25l-7.08,0l0,14.25z" fill="#0070BA" id="svg_15"/>
  </g>
 </g>
</svg>