<?xml version="1.0" encoding="utf-8"?>
<!-- Generator: Adobe Illustrator 24.3.0, SVG Export Plug-In . SVG Version: 6.00 Build 0)  -->
<svg version="1.1" id="Layer_1" xmlns="http://www.w3.org/2000/svg" xmlns:xlink="http://www.w3.org/1999/xlink" x="0px" y="0px"
	 viewBox="0 0 269.7 182.4" style="enable-background:new 0 0 269.7 182.4;" xml:space="preserve">
<style type="text/css">
	.st0{fill:#FFFFFF;}
</style>
<g>
	<g>
		<rect x="8" y="8" width="253.8" height="50.5"/>
		<g>
			<path class="st0" d="M21.6,45.4l0-5.5h0.8c0.6,0,1.1-0.1,1.5-0.4c0.4-0.3,0.8-0.8,1.1-1.4s0.5-1.5,0.7-2.6c0.2-1.1,0.3-2.4,0.3-4
				l0.4-11h18.9v24.9h-6.6V25.9h-6.1l-0.4,7.6c-0.1,2.1-0.3,3.9-0.8,5.4c-0.4,1.5-1,2.7-1.7,3.7s-1.6,1.7-2.6,2.1
				c-1,0.5-2.2,0.7-3.5,0.7H21.6z"/>
			<path class="st0" d="M60.9,45.9c-2.5,0-4.7-0.5-6.5-1.6c-1.8-1.1-3.2-2.6-4.2-4.5s-1.5-4.2-1.5-6.7c0-2.6,0.5-4.8,1.5-6.8
				c1-1.9,2.4-3.4,4.2-4.5c1.8-1.1,4-1.6,6.5-1.6c2.5,0,4.7,0.5,6.5,1.6c1.8,1.1,3.2,2.6,4.2,4.5c1,1.9,1.5,4.2,1.5,6.8
				c0,2.6-0.5,4.8-1.5,6.7c-1,1.9-2.4,3.4-4.2,4.5C65.6,45.3,63.4,45.9,60.9,45.9z M61,40.5c1.1,0,2.1-0.3,2.9-1
				c0.8-0.7,1.3-1.5,1.7-2.7s0.6-2.4,0.6-3.9c0-1.4-0.2-2.7-0.6-3.9c-0.4-1.1-1-2-1.7-2.7c-0.8-0.7-1.7-1-2.9-1
				c-1.2,0-2.1,0.3-2.9,1s-1.4,1.6-1.8,2.7c-0.4,1.1-0.6,2.4-0.6,3.9c0,1.4,0.2,2.7,0.6,3.9c0.4,1.1,1,2,1.8,2.7
				C58.8,40.2,59.8,40.5,61,40.5z"/>
			<path class="st0" d="M93.7,20.5v5.4H83.4v19.5h-6.7V20.5H93.7z"/>
			<path class="st0" d="M103.5,36.3l9-15.8h6.8v24.9h-6.6V29.5l-8.9,15.8h-6.9V20.5h6.6V36.3z"/>
			<path class="st0" d="M135.1,45.9c-2.6,0-4.7-0.5-6.6-1.6c-1.8-1.1-3.2-2.6-4.2-4.5c-1-1.9-1.5-4.2-1.5-6.7c0-2.6,0.5-4.8,1.5-6.7
				c1-1.9,2.4-3.4,4.2-4.5s4-1.6,6.5-1.6c2.2,0,4.1,0.4,5.7,1.2s2.9,1.9,3.9,3.3s1.5,3.1,1.6,5h-6.5c-0.2-1.2-0.7-2.2-1.5-3
				c-0.8-0.8-1.8-1.1-3.1-1.1c-1.1,0-2,0.3-2.8,0.9c-0.8,0.6-1.4,1.4-1.9,2.5s-0.7,2.4-0.7,4c0,1.6,0.2,2.9,0.7,4.1s1.1,2,1.9,2.5
				c0.8,0.6,1.7,0.9,2.8,0.9c0.8,0,1.5-0.2,2.1-0.5s1.2-0.8,1.6-1.4s0.7-1.4,0.8-2.2h6.5c-0.1,1.9-0.6,3.6-1.5,5
				c-0.9,1.4-2.2,2.6-3.8,3.4C139.2,45.4,137.3,45.9,135.1,45.9z"/>
			<path class="st0" d="M148,25.9v-5.4h22.6v5.4h-8v19.5h-6.6V25.9H148z"/>
			<path class="st0" d="M180.3,36.3l9-15.8h6.8v24.9h-6.6V29.5l-8.9,15.8h-6.9V20.5h6.6V36.3z"/>
			<path class="st0" d="M200.6,45.4V20.5h6.9v9.7h1.9l6.8-9.7h8.1l-8.8,12.4l8.9,12.5h-8.2l-6.1-8.8h-2.6v8.8H200.6z"/>
			<path class="st0" d="M233.5,45.8c-1.6,0-3-0.3-4.2-0.8c-1.2-0.6-2.2-1.4-2.9-2.5s-1.1-2.5-1.1-4.1c0-1.4,0.3-2.5,0.8-3.5
				s1.2-1.7,2.1-2.3c0.9-0.6,1.9-1,3-1.3s2.3-0.5,3.5-0.6c1.4-0.2,2.6-0.3,3.5-0.4c0.9-0.1,1.5-0.3,1.9-0.6c0.4-0.3,0.6-0.7,0.6-1.2
				v-0.1c0-1-0.3-1.8-1-2.4c-0.6-0.6-1.6-0.8-2.7-0.8c-1.2,0-2.2,0.3-3,0.8c-0.7,0.5-1.2,1.2-1.5,2.1l-6.4-0.5
				c0.3-1.5,1-2.8,1.9-3.9s2.2-2,3.7-2.6c1.5-0.6,3.3-0.9,5.2-0.9c1.4,0,2.7,0.2,4,0.5s2.4,0.8,3.4,1.5c1,0.7,1.8,1.6,2.3,2.6
				c0.6,1.1,0.9,2.3,0.9,3.8v16.8H241v-3.5h-0.2c-0.4,0.8-0.9,1.5-1.6,2.1c-0.7,0.6-1.5,1-2.4,1.4C235.8,45.7,234.7,45.8,233.5,45.8
				z M235.5,41.1c1,0,1.9-0.2,2.7-0.6c0.8-0.4,1.4-1,1.8-1.6s0.7-1.5,0.7-2.4v-2.6c-0.2,0.1-0.5,0.3-0.9,0.4
				c-0.4,0.1-0.8,0.2-1.3,0.3c-0.5,0.1-0.9,0.2-1.4,0.2c-0.5,0.1-0.9,0.1-1.3,0.2c-0.8,0.1-1.5,0.3-2.1,0.6s-1.1,0.6-1.4,1
				c-0.3,0.4-0.5,1-0.5,1.6c0,0.9,0.3,1.7,1,2.1C233.5,40.8,234.4,41.1,235.5,41.1z"/>
		</g>
	</g>
	<g>
		<rect x="8.1" y="66" width="253.6" height="108.5"/>
		<g>
			<path class="st0" d="M178.7,71.6c-2.9,6.8-4.3,15.1-4.3,24.8c0,9.7,1.4,18,4.3,25c2.9,6.9,7,12.2,12.4,15.8s11.8,5.5,19.3,5.5
				c7.5,0,13.9-1.8,19.2-5.5s9.5-8.9,12.4-15.8c2.9-6.9,4.3-15.3,4.3-25c0-9.7-1.4-18-4.3-24.8c-0.9-2-1.8-3.9-2.9-5.6h-57.4
				C180.5,67.7,179.5,69.6,178.7,71.6z M198.1,73.6c3-5.1,7.1-7.6,12.2-7.6c3.4,0,6.3,1.1,8.8,3.4c2.5,2.3,4.4,5.6,5.8,10.1
				c1.4,4.5,2.1,10.1,2.1,16.8c0,10.2-1.5,17.9-4.5,23.1c-3,5.1-7.1,7.7-12.2,7.7c-3.4,0-6.3-1.1-8.9-3.4c-2.5-2.3-4.5-5.7-5.8-10.2
				c-1.4-4.6-2.1-10.3-2.1-17.1C193.5,86.3,195.1,78.7,198.1,73.6z"/>
			<path class="st0" d="M82.3,161.7c-2.6-3.8-6.1-6.8-10.7-9c-4.6-2.2-10-3.3-16.1-3.3c-6.1,0-11.5,1.1-16.3,3.3
				c-4.8,2.2-8.6,5.3-11.5,9.2c-2.7,3.7-4.1,7.9-4.3,12.6h18.1c0.2-1.9,0.8-3.5,1.9-5c1.3-1.7,3-3,5.1-3.9c2.1-0.9,4.4-1.4,7-1.4
				c2.5,0,4.7,0.5,6.6,1.4c1.9,1,3.4,2.3,4.4,4c0.9,1.4,1.4,3,1.5,4.8h18.2c0,0,0,0,0-0.1C86.2,169.7,84.9,165.5,82.3,161.7z"/>
			<path class="st0" d="M104,77.6c2.8,4,6.6,7.1,11.4,9.3c4.8,2.3,10.3,3.4,16.4,3.4c6.6,0,12.4-1.3,17.4-4c5-2.6,8.9-6.3,11.7-10.9
				c1.7-2.9,2.9-6,3.6-9.4h-18.5c-0.3,0.7-0.6,1.4-0.9,2.1c-1.3,2.4-3.1,4.2-5.3,5.5c-2.3,1.3-4.9,2-7.8,2c-3.7,0-6.9-1.1-9.6-3.2
				c-2.1-1.7-3.5-3.8-4.1-6.4H99.8C100.2,70.3,101.6,74.2,104,77.6z"/>
			<path class="st0" d="M242,171.1c-2.9-6.8-7-12-12.4-15.6c-5.4-3.6-11.8-5.4-19.2-5.4c-7.4,0-13.8,1.8-19.2,5.4
				c-5.4,3.6-9.5,8.8-12.4,15.6c-0.5,1.1-0.9,2.2-1.3,3.4h20c0.2-0.5,0.5-0.9,0.7-1.3c3-5.1,7.1-7.6,12.2-7.6c3.4,0,6.3,1.1,8.8,3.4
				c1.6,1.4,2.9,3.3,4,5.6h20C242.9,173.3,242.4,172.2,242,171.1z"/>
			<path class="st0" d="M141.1,172.4c-1.9,1.2-4.1,1.9-6.5,2h27.8c0,0,0.1-0.1,0.1-0.1c2.8-4.7,4.2-10,4.2-16.1
				c0-5.6-1.2-10.5-3.6-14.8c-2.4-4.3-5.6-7.7-9.7-10.2s-8.8-3.7-14.1-3.7c-3.2,0-6.3,0.5-9.2,1.5c-2.9,1-5.5,2.4-7.8,4.3
				c-2.3,1.9-4.1,4.1-5.4,6.8h-0.6c0.1-8.8,1.6-15.7,4.6-20.8c3-5.1,7.4-7.6,13.2-7.6c3.4,0,6.3,0.9,8.6,2.7
				c2.3,1.8,3.8,4.3,4.6,7.5h18.5c-0.6-5-2.3-9.5-5-13.4c-2.8-4-6.4-7.1-11-9.4c-4.5-2.3-9.8-3.5-15.7-3.5c-5.5,0-10.5,1.1-14.9,3.2
				c-4.4,2.2-8.2,5.3-11.4,9.4s-5.6,9.2-7.3,15.1c-1.7,5.9-2.6,12.7-2.6,20.2c0,8.1,1,15,3,20.6c1.1,3.1,2.4,5.9,3.9,8.3h27.3
				c-2.4-0.2-4.5-0.9-6.5-2.1c-2.3-1.4-4.1-3.3-5.4-5.7c-1.3-2.4-2-5-2-7.9c0-2.1,0.4-4.2,1.2-6.1c0.8-1.9,1.9-3.6,3.2-5
				c1.4-1.4,3-2.6,4.8-3.4c1.8-0.8,3.8-1.2,6-1.2c2.9,0,5.5,0.7,7.7,2.1s4,3.3,5.3,5.6c1.3,2.3,1.9,5,1.9,7.9s-0.7,5.6-2,8
				C145.2,169.2,143.4,171,141.1,172.4z"/>
			<path class="st0" d="M62.9,125.4c-2.2,1-4.7,1.5-7.6,1.5c-2.8,0-5.2-0.4-7.4-1.3c-2.2-0.9-4-2.2-5.3-3.8c-1.3-1.6-2-3.5-2.1-5.7
				H21.5c0.1,5.2,1.6,9.7,4.5,13.7s6.9,7,11.9,9.3c5.1,2.2,10.8,3.4,17.3,3.4c6.7,0,12.6-1.1,17.7-3.4c5.2-2.3,9.2-5.4,12.1-9.3
				c2.9-3.9,4.4-8.4,4.4-13.5c0-5.5-1.7-10.1-5.1-13.8s-8.4-6-15-6.8V95c5-0.9,9-3,12.1-6.3c3.1-3.3,4.7-7.5,4.6-12.5
				c0-3.7-0.8-7.1-2.3-10.2H26.2c-1.8,3.3-2.8,7.1-2.9,11.2h18c0.1-2.3,0.8-4.2,2-5.9c1.3-1.7,3-3,5.1-3.9c2.1-0.9,4.4-1.4,7-1.4
				c2.5,0,4.7,0.5,6.6,1.4c1.9,1,3.4,2.3,4.4,4c1.1,1.7,1.6,3.7,1.6,5.9c0,2.3-0.6,4.4-1.8,6.1c-1.2,1.8-2.9,3.1-5.1,4.1
				c-2.2,1-4.7,1.5-7.5,1.5h-8.3v13.8h8.3c3.4,0,6.3,0.5,8.7,1.6c2.4,1,4.3,2.5,5.6,4.3c1.3,1.8,2,3.9,2,6.3c0,2.3-0.6,4.4-1.9,6.2
				C66.8,123,65.1,124.4,62.9,125.4z"/>
		</g>
	</g>
</g>
</svg>
