<svg width="360" height="72" viewBox="0 0 360 72" fill="none" xmlns="http://www.w3.org/2000/svg">
<path d="M339.5 58.9478C334.615 58.9478 330.248 57.8332 326.401 55.604C322.615 53.3128 319.623 50.2476 317.425 46.4083C315.287 42.5071 314.219 38.1106 314.219 33.2186C314.219 28.2028 315.287 23.7443 317.425 19.8431C319.562 15.9419 322.493 12.9077 326.218 10.7404C329.943 8.51111 334.218 7.39648 339.042 7.39648C342.645 7.39648 345.942 8.10861 348.934 9.53285C351.927 10.8952 354.614 12.9696 356.995 15.7562C357.85 16.7469 358.155 17.7687 357.911 18.8214C357.667 19.8741 356.995 20.8029 355.896 21.6079C355.041 22.2272 354.094 22.4439 353.056 22.2581C352.018 22.0104 351.072 21.4531 350.217 20.5862C347.225 17.3662 343.5 15.7562 339.042 15.7562C335.928 15.7562 333.18 16.4992 330.798 17.9854C328.416 19.4096 326.554 21.4222 325.211 24.023C323.867 26.6237 323.195 29.689 323.195 33.2186C323.195 36.5625 323.867 39.5348 325.211 42.1356C326.615 44.7364 328.539 46.8108 330.981 48.3589C333.424 49.8451 336.263 50.5882 339.5 50.5882C341.637 50.5882 343.5 50.3405 345.087 49.8451C346.736 49.2878 348.232 48.4518 349.576 47.3372C350.553 46.5322 351.56 46.0987 352.598 46.0368C353.636 45.9129 354.552 46.1916 355.346 46.8727C356.384 47.7397 356.965 48.7304 357.087 49.8451C357.209 50.8978 356.842 51.8576 355.988 52.7245C351.591 56.8734 346.095 58.9478 339.5 58.9478Z" fill="#0064E1"/>
<path d="M317.591 57.4624C316.798 58.2055 315.668 58.577 314.202 58.577C312.798 58.5151 311.699 58.0816 310.905 57.2766L288.646 33.0335L309.622 9.25489C310.416 8.38796 311.515 7.89257 312.92 7.76873C314.386 7.64488 315.515 7.9545 316.309 8.69758C317.225 9.56451 317.744 10.5553 317.866 11.6699C317.988 12.7226 317.653 13.6824 316.859 14.5494L300.279 32.5691L317.866 51.7035C318.66 52.5085 319.057 53.4683 319.057 54.5829C319.057 55.6356 318.569 56.5955 317.591 57.4624ZM281.319 58.6699C279.975 58.6699 278.907 58.2364 278.113 57.3695C277.319 56.4406 276.922 55.2951 276.922 53.9327V12.5059C276.922 11.0816 277.319 9.93605 278.113 9.06912C278.907 8.20219 279.975 7.76873 281.319 7.76873C282.723 7.76873 283.853 8.20219 284.708 9.06912C285.624 9.93605 286.082 11.0816 286.082 12.5059V28.0177H297.806V36.7489H286.082V53.9327C286.082 55.2951 285.624 56.4406 284.708 57.3695C283.853 58.2364 282.723 58.6699 281.319 58.6699Z" fill="#0064E1"/>
<path d="M244.712 59.0414C240.498 59.0414 236.712 58.1435 233.354 56.3477C230.056 54.49 227.43 51.7963 225.476 48.2667C223.583 44.737 222.637 40.4024 222.637 35.2627V12.4129C222.637 11.0506 223.064 9.93599 223.919 9.06906C224.835 8.14021 225.965 7.67578 227.308 7.67578C228.652 7.67578 229.751 8.14021 230.606 9.06906C231.522 9.93599 231.98 11.0506 231.98 12.4129V35.2627C231.98 38.7304 232.621 41.6099 233.903 43.9011C235.186 46.1303 236.926 47.8022 239.124 48.9169C241.323 49.9696 243.796 50.4959 246.544 50.4959C249.17 50.4959 251.49 49.9696 253.505 48.9169C255.582 47.8642 257.23 46.4399 258.452 44.6441C259.673 42.8484 260.284 40.8358 260.284 38.6066H266.054C266.054 42.4459 265.108 45.9136 263.215 49.0098C261.383 52.1059 258.849 54.5519 255.612 56.3477C252.437 58.1435 248.803 59.0414 244.712 59.0414ZM264.955 58.5769C263.612 58.5769 262.482 58.1435 261.566 57.2766C260.711 56.3477 260.284 55.2021 260.284 53.8398V12.4129C260.284 10.9887 260.711 9.84311 261.566 8.97618C262.482 8.10925 263.612 7.67578 264.955 7.67578C266.36 7.67578 267.489 8.10925 268.344 8.97618C269.199 9.84311 269.627 10.9887 269.627 12.4129V53.8398C269.627 55.2021 269.199 56.3477 268.344 57.2766C267.489 58.1435 266.36 58.5769 264.955 58.5769Z" fill="#0064E1"/>
<path d="M212.686 58.6703C211.342 58.6703 210.212 58.2368 209.296 57.3699C208.442 56.441 208.014 55.2954 208.014 53.9331V31.0833C208.014 27.5537 207.373 24.6742 206.09 22.445C204.808 20.2158 203.068 18.5748 200.869 17.5221C198.732 16.4075 196.259 15.8501 193.45 15.8501C190.885 15.8501 188.565 16.3765 186.488 17.4292C184.412 18.4819 182.763 19.9061 181.542 21.7019C180.321 23.4358 179.71 25.4483 179.71 27.7395H173.94C173.94 23.8383 174.855 20.3706 176.687 17.3363C178.58 14.2401 181.145 11.7941 184.382 9.99837C187.618 8.20258 191.252 7.30469 195.282 7.30469C199.495 7.30469 203.251 8.23354 206.548 10.0912C209.907 11.887 212.533 14.5497 214.426 18.0794C216.38 21.609 217.357 25.9437 217.357 31.0833V53.9331C217.357 55.2954 216.899 56.441 215.983 57.3699C215.128 58.2368 214.029 58.6703 212.686 58.6703ZM175.039 58.6703C173.695 58.6703 172.566 58.2368 171.65 57.3699C170.795 56.441 170.367 55.2954 170.367 53.9331V12.5063C170.367 11.082 170.795 9.93644 171.65 9.06951C172.566 8.20258 173.695 7.76911 175.039 7.76911C176.443 7.76911 177.573 8.20258 178.428 9.06951C179.283 9.93644 179.71 11.082 179.71 12.5063V53.9331C179.71 55.2954 179.283 56.441 178.428 57.3699C177.573 58.2368 176.443 58.6703 175.039 58.6703Z" fill="#0064E1"/>
<path d="M147.23 58.9478C142.345 58.9478 137.979 57.8332 134.132 55.604C130.346 53.3128 127.354 50.2476 125.155 46.4083C123.018 42.5071 121.949 38.1106 121.949 33.2186C121.949 28.2028 123.018 23.7443 125.155 19.8431C127.292 15.9419 130.224 12.9077 133.949 10.7404C137.674 8.51111 141.948 7.39648 146.772 7.39648C150.375 7.39648 153.673 8.10861 156.665 9.53285C159.657 10.8952 162.344 12.9696 164.726 15.7562C165.58 16.7469 165.886 17.7687 165.642 18.8214C165.397 19.8741 164.726 20.8029 163.626 21.6079C162.771 22.2272 161.825 22.4439 160.787 22.2581C159.749 22.0104 158.802 21.4531 157.947 20.5862C154.955 17.3662 151.23 15.7562 146.772 15.7562C143.658 15.7562 140.91 16.4992 138.528 17.9854C136.147 19.4096 134.284 21.4222 132.941 24.023C131.598 26.6237 130.926 29.689 130.926 33.2186C130.926 36.5625 131.598 39.5348 132.941 42.1356C134.346 44.7364 136.269 46.8108 138.712 48.3589C141.154 49.8451 143.994 50.5882 147.23 50.5882C149.368 50.5882 151.23 50.3405 152.818 49.8451C154.467 49.2878 155.963 48.4518 157.306 47.3372C158.283 46.5322 159.291 46.0987 160.329 46.0368C161.367 45.9129 162.283 46.1916 163.077 46.8727C164.115 47.7397 164.695 48.7304 164.817 49.8451C164.939 50.8978 164.573 51.8576 163.718 52.7245C159.321 56.8734 153.825 58.9478 147.23 58.9478Z" fill="#0064E1"/>
<path fill-rule="evenodd" clip-rule="evenodd" d="M7.16435 8.15775C11.5217 3.68471 17.5673 1.18888 23.8316 0.699219C22.2469 3.33305 21.3117 6.57785 21.3117 10.0874C21.3117 15.9417 23.9139 21.0593 27.7926 23.8333C26.6102 26.8656 26.0873 30.859 27.5999 33.9815C28.4868 35.1225 30.6687 35.5923 32.0524 35.8272C34.4827 36.2467 37.2145 36.1293 39.4674 35.1393C41.2945 34.3339 42.9442 33.1593 44.3456 31.7834C44.877 31.2658 45.2984 30.6442 45.7161 30.0282C46.2328 29.2662 46.7437 28.5125 47.45 27.9744C50.714 25.491 55.5036 24.3836 59.5481 23.8802C62.954 23.4439 66.3777 23.4439 69.8013 23.5446C71.0911 23.5855 72.3662 23.5904 73.6398 23.5953C75.5017 23.6025 77.3602 23.6096 79.2563 23.7292C85.1301 24.104 90.9962 24.573 96.8497 25.0409L96.8498 25.0409L96.8502 25.0409C99.9061 25.2853 102.959 25.5293 106.007 25.7595C105.704 25.7365 104.661 26.7108 103.885 27.4362C103.527 27.7711 103.226 28.053 103.08 28.159C101.998 28.9308 100.845 29.6524 99.6563 30.29C97.2793 31.5652 94.7248 32.5384 92.064 33.1761C90.8759 33.4671 89.6713 33.6413 88.4701 33.815L88.47 33.815C87.1783 34.0018 85.8905 34.188 84.6313 34.5184C83.0076 34.9492 81.3177 35.2023 79.6262 35.4556C78.2869 35.6562 76.9466 35.8569 75.6375 36.146C75.6531 36.2642 75.6565 36.3303 75.6589 36.3767C75.6603 36.404 75.6613 36.4244 75.6643 36.4446C75.6732 36.5046 75.6993 36.562 75.8027 36.7904L75.8029 36.7907L75.8149 36.8172C76.9227 36.973 78.324 37.1361 79.8706 37.316L79.8714 37.3161L79.8718 37.3162C84.9869 37.9113 91.6902 38.6913 94.6184 40.0053C94.645 40.1982 94.676 40.3953 94.7071 40.5924L94.7071 40.5925L94.7071 40.5926L94.7071 40.5927C94.7382 40.7898 94.7692 40.987 94.7958 41.1799H94.441C91.6915 43.8479 82.9638 46.1131 78.121 46.885C77.5544 46.9761 76.2478 47.0672 74.7137 47.1741L74.7134 47.1741L74.7132 47.1742C71.444 47.4021 67.1422 47.702 66.7679 48.2273C66.83 48.2525 66.8877 48.2818 66.9453 48.3112L66.9454 48.3113C67.003 48.3406 67.0607 48.37 67.1227 48.3951C68.2321 48.914 69.7353 48.9971 71.1371 49.0745C71.775 49.1098 72.3919 49.1438 72.9412 49.2173C75.2473 49.5193 77.5179 49.9388 79.7707 50.459C80.3561 50.5932 80.9238 50.7275 81.4205 51.0463C81.9172 51.3651 82.2897 51.8853 82.2719 52.439C82.2365 53.2947 81.3318 53.8652 80.5158 54.2344C77.4824 55.6271 74.2361 56.5835 70.9011 57.0701C69.3933 57.2883 67.9032 57.4729 66.3954 57.2883C66.0968 57.256 65.1335 57.3518 64.1962 57.445C63.1846 57.5456 62.2031 57.6432 62.1203 57.5735C62.8068 58.1508 63.9764 58.4522 65.0346 58.725L65.0347 58.725C65.4528 58.8328 65.8536 58.9361 66.2003 59.0501C67.7258 59.5535 69.2337 60.0569 70.7415 60.5771C72.8879 61.3321 71.7526 62.6242 70.0674 63.2618C69.1147 63.6181 68.0513 63.7388 67.0111 63.8568C66.3857 63.9278 65.7686 63.9978 65.1891 64.1175C64.1093 64.3357 62.9489 64.3253 61.7922 64.3149C60.9917 64.3078 60.193 64.3006 59.4239 64.3692C57.3512 64.5614 58.6098 65.3408 59.7786 66.0646C60.1403 66.2886 60.4935 66.5073 60.7366 66.7016C61.0559 66.9533 61.393 67.2889 61.3043 67.658C61.2333 67.9768 60.8963 68.1782 60.5947 68.3124C58.7795 69.1553 56.642 69.5771 54.6533 69.9696H54.6533L54.418 70.016L54.2086 70.0575C45.747 71.7019 36.9661 70.9804 29.0367 67.6916C23.0941 65.2082 17.9852 61.5503 13.7633 56.9695C11.6878 54.721 9.77201 52.4725 8.06905 50.1402L7.94488 49.9556C5.55009 46.65 3.61652 43.1096 2.28609 39.0153C0.0332121 32.0518 -0.569919 24.3668 1.66522 17.3362C2.7473 13.9299 4.60992 10.7586 7.16435 8.15775ZM14.2059 14.0747C16.0951 14.0747 17.6266 12.6243 17.6266 10.8352C17.6266 9.04601 16.0951 7.59563 14.2059 7.59563C12.3167 7.59563 10.7852 9.04601 10.7852 10.8352C10.7852 12.6243 12.3167 14.0747 14.2059 14.0747ZM29.853 20.7031C30.2866 20.4022 32.9364 17.2028 33.639 16.2877C34.4724 15.1843 34.6893 13.7924 34.9135 12.3539C35.0518 11.4665 35.1929 10.5612 35.4832 9.69513C36.2022 9.52238 36.6622 9.70166 37.1513 9.8923C37.486 10.0227 37.8343 10.1585 38.2886 10.1905C38.6293 10.2135 38.5456 7.94513 38.5066 7.70962C37.8166 3.91864 33.6086 1.42754 29.7831 1.14252C29.0197 1.08665 28.2518 1.0813 27.4893 1.12347C27.4893 1.12347 23.2675 3.69434 24.2923 12.1835C25.3172 20.6727 29.853 20.7031 29.853 20.7031Z" fill="#0064E1"/>
</svg>
