<?xml version="1.0" encoding="UTF-8" standalone="no"?>
<svg
   xmlns:dc="http://purl.org/dc/elements/1.1/"
   xmlns:cc="http://creativecommons.org/ns#"
   xmlns:rdf="http://www.w3.org/1999/02/22-rdf-syntax-ns#"
   xmlns:svg="http://www.w3.org/2000/svg"
   xmlns="http://www.w3.org/2000/svg"
   viewBox="0 0 1066.6667 844.93597"
   height="844.93597"
   width="1066.6667"
   xml:space="preserve"
   id="svg2"
   version="1.1"><metadata
     id="metadata8"><rdf:RDF><cc:Work
         rdf:about=""><dc:format>image/svg+xml</dc:format><dc:type
           rdf:resource="http://purl.org/dc/dcmitype/StillImage" /></cc:Work></rdf:RDF></metadata><defs
     id="defs6"><clipPath
       id="clipPath18"
       clipPathUnits="userSpaceOnUse"><path
         id="path16"
         d="M 0,633.702 H 800 V 0 H 0 Z" /></clipPath></defs><g
     transform="matrix(1.3333333,0,0,-1.3333333,0,844.936)"
     id="g10"><g
       id="g12"><g
         clip-path="url(#clipPath18)"
         id="g14"><g
           transform="translate(673.2597)"
           id="g20"><path
             id="path22"
             style="fill:#003457;fill-opacity:1;fill-rule:nonzero;stroke:none"
             d="M 0,0 H -546.519 C -616.516,0 -673.26,56.744 -673.26,126.74 v 380.221 c 0,69.997 56.744,126.741 126.741,126.741 H 0 c 69.997,0 126.74,-56.744 126.74,-126.741 V 126.74 C 126.74,56.744 69.997,0 0,0" /></g><g
           transform="translate(126.7631,108.9685)"
           id="g24"><path
             id="path26"
             style="fill:#ffffff;fill-opacity:1;fill-rule:nonzero;stroke:none"
             d="M 0,0 V 71.138 H 11.906 V 11.166 h 31.42 V 0 Z" /></g><g
           transform="translate(226.7505,118.6505)"
           id="g28"><path
             id="path30"
             style="fill:#ffffff;fill-opacity:1;fill-rule:nonzero;stroke:none"
             d="m 0,0 c 4.743,0 8.266,1.58 10.572,4.745 2.306,3.16 3.459,7.243 3.459,12.25 0,5.17 -1.17,9.296 -3.507,12.374 C 8.185,32.45 4.676,33.99 0,33.99 c -3.194,0 -5.821,-0.719 -7.879,-2.149 -2.059,-1.434 -3.581,-3.427 -4.57,-5.979 -0.988,-2.552 -1.482,-5.507 -1.482,-8.867 0,-5.17 1.178,-9.296 3.532,-12.377 C -8.043,1.54 -4.578,0 0,0 m 0,-11.163 c -5.335,0 -9.995,1.202 -13.981,3.604 -3.984,2.405 -7.072,5.722 -9.262,9.955 -2.19,4.232 -3.284,9.099 -3.284,14.599 0,5.6 1.118,10.504 3.358,14.723 2.24,4.215 5.352,7.509 9.338,9.878 3.984,2.372 8.596,3.557 13.831,3.557 5.368,0 10.045,-1.201 14.031,-3.607 3.984,-2.402 7.08,-5.723 9.287,-9.951 2.206,-4.236 3.311,-9.1 3.311,-14.6 0,-5.533 -1.113,-10.417 -3.336,-14.649 -2.222,-4.232 -5.326,-7.54 -9.312,-9.929 C 9.996,-9.971 5.337,-11.163 0,-11.163" /></g><g
           transform="translate(312.1667,118.1581)"
           id="g32"><path
             id="path34"
             style="fill:#ffffff;fill-opacity:1;fill-rule:nonzero;stroke:none"
             d="m 0,0 c 3.194,0 5.771,0.732 7.731,2.196 1.959,1.467 3.392,3.517 4.298,6.152 0.905,2.635 1.358,5.683 1.358,9.139 0,3.491 -0.453,6.545 -1.358,9.163 -0.906,2.619 -2.315,4.662 -4.224,6.126 -1.911,1.467 -4.381,2.199 -7.411,2.199 -3.194,0 -5.829,-0.782 -7.903,-2.346 -2.075,-1.563 -3.607,-3.673 -4.595,-6.325 -0.988,-2.651 -1.482,-5.589 -1.482,-8.817 0,-3.26 0.485,-6.218 1.457,-8.866 0.971,-2.652 2.462,-4.752 4.472,-6.299 C -5.649,0.772 -3.098,0 0,0 m -0.792,-34.383 c -2.963,0 -5.804,0.459 -8.521,1.381 -2.716,0.925 -5.162,2.249 -7.336,3.979 -2.174,1.727 -3.953,3.81 -5.335,6.249 l 10.966,5.433 c 1.022,-1.943 2.462,-3.384 4.324,-4.322 1.86,-0.938 3.844,-1.407 5.952,-1.407 2.47,0 4.676,0.435 6.619,1.307 1.943,0.875 3.451,2.159 4.522,3.853 1.07,1.697 1.572,3.813 1.506,6.348 V 3.607 h 1.482 v 40.558 h 10.424 v -55.923 c 0,-1.351 -0.058,-2.642 -0.173,-3.88 -0.117,-1.234 -0.305,-2.445 -0.568,-3.63 -0.791,-3.456 -2.305,-6.298 -4.544,-8.52 -2.241,-2.223 -5.016,-3.88 -8.325,-4.964 -3.31,-1.088 -6.974,-1.631 -10.993,-1.631 m -1.036,23.713 c -4.908,0 -9.19,1.234 -12.845,3.703 -3.656,2.472 -6.489,5.829 -8.497,10.078 -2.01,4.249 -3.013,9.04 -3.013,14.376 0,5.4 1.011,10.218 3.038,14.45 2.026,4.232 4.899,7.576 8.62,10.028 3.722,2.452 8.102,3.68 13.141,3.68 5.072,0 9.329,-1.228 12.769,-3.68 3.442,-2.452 6.053,-5.806 7.831,-10.051 1.778,-4.249 2.668,-9.06 2.668,-14.427 0,-5.303 -0.89,-10.087 -2.668,-14.35 -1.778,-4.265 -4.43,-7.632 -7.954,-10.104 -3.523,-2.469 -7.887,-3.703 -13.09,-3.703" /></g><path
           id="path36"
           style="fill:#ffffff;fill-opacity:1;fill-rule:nonzero;stroke:none"
           d="m 375.497,162.323 h 11.908 v -53.354 h -11.908 z m 0,19.018 h 11.908 v -10.916 h -11.908 z" /><g
           transform="translate(447.5233,107.4879)"
           id="g38"><path
             id="path40"
             style="fill:#ffffff;fill-opacity:1;fill-rule:nonzero;stroke:none"
             d="m 0,0 c -6.588,0 -11.938,1.481 -16.057,4.445 -4.115,2.965 -6.617,7.13 -7.506,12.497 l 12.151,1.88 c 0.625,-2.635 2.01,-4.712 4.149,-6.225 2.143,-1.518 4.844,-2.273 8.105,-2.273 2.864,0 5.077,0.569 6.644,1.704 1.564,1.138 2.346,2.691 2.346,4.668 0,1.217 -0.29,2.199 -0.865,2.941 -0.576,0.738 -1.837,1.457 -3.78,2.149 -1.943,0.689 -4.924,1.564 -8.94,2.615 -4.482,1.188 -8.038,2.462 -10.673,3.83 -2.636,1.367 -4.529,2.988 -5.68,4.867 -1.154,1.877 -1.73,4.149 -1.73,6.818 0,3.324 0.872,6.225 2.618,8.694 1.747,2.468 4.183,4.371 7.313,5.706 3.128,1.334 6.818,1.999 11.067,1.999 4.149,0 7.828,-0.642 11.039,-1.926 3.211,-1.284 5.806,-3.111 7.782,-5.483 1.977,-2.373 3.194,-5.154 3.657,-8.348 L 9.486,38.382 c -0.296,2.272 -1.328,4.069 -3.088,5.387 -1.763,1.317 -4.109,2.056 -7.04,2.222 -2.798,0.163 -5.057,-0.256 -6.768,-1.261 -1.713,-1.005 -2.568,-2.412 -2.568,-4.222 0,-1.021 0.346,-1.893 1.038,-2.618 0.689,-0.726 2.083,-1.451 4.172,-2.173 2.093,-0.725 5.214,-1.614 9.363,-2.668 4.249,-1.088 7.649,-2.333 10.201,-3.73 2.552,-1.401 4.398,-3.071 5.533,-5.014 1.138,-1.943 1.703,-4.299 1.703,-7.064 0,-5.37 -1.949,-9.585 -5.852,-12.65 C 12.277,1.53 6.884,0 0,0" /></g><g
           transform="translate(536.3947,108.9685)"
           id="g42"><path
             id="path44"
             style="fill:#ffffff;fill-opacity:1;fill-rule:nonzero;stroke:none"
             d="m 0,0 c -3.523,-0.659 -6.974,-0.945 -10.347,-0.865 -3.377,0.083 -6.399,0.709 -9.067,1.876 -2.668,1.172 -4.695,3.022 -6.075,5.56 -1.221,2.306 -1.863,4.658 -1.927,7.064 -0.066,2.402 -0.1,5.12 -0.1,8.151 v 46.387 h 11.855 V 22.478 c 0,-2.142 0.027,-4.019 0.077,-5.633 0.05,-1.613 0.386,-2.931 1.011,-3.952 1.185,-1.977 3.081,-3.078 5.683,-3.307 2.598,-0.233 5.563,-0.1 8.89,0.392 z M -37.198,53.354 H 0 v -9.336 h -37.198 z" /></g><path
           id="path46"
           style="fill:#ffffff;fill-opacity:1;fill-rule:nonzero;stroke:none"
           d="m 573.596,162.323 h 11.905 v -53.354 h -11.905 z m 0,19.018 h 11.905 v -10.916 h -11.905 z" /><g
           transform="translate(624.9234,108.9685)"
           id="g48"><path
             id="path50"
             style="fill:#ffffff;fill-opacity:1;fill-rule:nonzero;stroke:none"
             d="M 0,0 0.096,71.138 H 12.151 V 27.665 L 31.664,53.354 H 46.537 L 25.835,26.677 48.313,0 H 32.556 L 12.151,25.689 V 0 Z" /></g><g
           transform="translate(499.013,474.1957)"
           id="g52"><path
             id="path54"
             style="fill:#ffffff;fill-opacity:1;fill-rule:nonzero;stroke:none"
             d="M 0,0 C -23.503,0 -42.899,-3.347 -67.668,-26.108 L -74.453,0 h -53.501 v -247.006 h 63.416 v 171.957 c 14.601,13.751 32.152,16.192 46.789,16.192 4.975,0 11.181,-0.65 17.749,-2.713 z" /></g><g
           transform="translate(679.842,277.8422)"
           id="g56"><path
             id="path58"
             style="fill:#ffffff;fill-opacity:1;fill-rule:nonzero;stroke:none"
             d="m 0,0 v -50.66 h -44.382 c -48.273,0 -68.573,27.754 -68.573,65.442 v 130.614 h -36.566 v 50.951 h 36.566 v 56.938 l 62.674,18.799 V 196.347 H 7.472 V 145.396 H -50.281 V 33.726 C -50.281,10.422 -41.614,0 -19.305,0 Z" /></g><g
           transform="translate(260.7049,287.2421)"
           id="g60"><path
             id="path62"
             style="fill:#ffffff;fill-opacity:1;fill-rule:nonzero;stroke:none"
             d="m 0,0 v 56.252 l -36.258,-1.05 C -70.201,54.225 -85.345,41.18 -85.345,20.283 c 0,-20.355 14.095,-35.951 40.203,-35.951 C -23.195,-15.668 -8.359,-7.309 0,0 M 67.668,-60.068 H 9.644 l -5.175,21.946 c -16.175,-14.619 -38.629,-27.157 -71.54,-27.157 -45.432,0 -80.948,32.314 -80.948,80.876 0,51.166 40.22,80.351 103.402,82.432 L 0,99.602 v 5.555 c 0,29.764 -21.639,37.073 -47.748,37.073 -22.182,0 -69.549,-2.279 -69.549,-2.279 v 47.005 c 0,0 44.074,2.28 82.088,2.28 61.082,0 98.173,-23.304 98.173,-88.059 V 5.229 c 0,-35.516 1.049,-53.79 4.704,-65.297" /></g></g></g></g></svg>