<?xml version="1.0" encoding="utf-8"?>
<!-- Generator: Adobe Illustrator 15.1.0, SVG Export Plug-In . SVG Version: 6.00 Build 0)  -->
<!DOCTYPE svg PUBLIC "-//W3C//DTD SVG 1.1//EN" "http://www.w3.org/Graphics/SVG/1.1/DTD/svg11.dtd">
<svg version="1.1" id="Layer_1" xmlns="http://www.w3.org/2000/svg" xmlns:xlink="http://www.w3.org/1999/xlink" x="0px" y="0px"
	 width="576px" height="576px" viewBox="0 0 576 576" enable-background="new 0 0 576 576" xml:space="preserve">
<g>
	<g>
		<path fill="#F6921E" stroke="#693300" d="M572.957,320.644H0l0.012,3.639c0.035,11.883,10.672,21.559,23.706,21.559
			c0,0,151.709,0,176.203,0c-22.138,11.729-149.683,79.291-149.683,79.291c-5.996,3.177-10.139,8.595-11.364,14.862
			c-0.25,1.287-0.374,2.582-0.374,3.861c0,4.109,1.271,8.145,3.72,11.654c6.846,9.789,20.891,12.875,31.97,7.018
			c0,0,120.232-63.696,140.621-74.501c-13.997,19.857-84.987,120.597-84.987,120.597c-2.482,3.516-3.773,7.576-3.773,11.715
			c0,1.268,0.121,2.533,0.365,3.799c1.202,6.268,5.317,11.695,11.294,14.891c11.056,5.9,25.105,2.873,31.996-6.902
			c0,0,85.003-120.612,94.591-134.216c0,17.553,0,156.458,0,156.458c0,11.926,10.637,21.633,23.707,21.633
			c13.074,0,23.704-9.707,23.704-21.633c0,0,0-138.261,0-155.919c9.598,13.732,93.654,134.073,93.654,134.073
			c6.852,9.807,20.895,12.889,31.967,7.018c6.006-3.178,10.145-8.598,11.371-14.863c0.248-1.281,0.367-2.574,0.367-3.855
			c0-4.119-1.268-8.152-3.719-11.658c0,0-70.557-101.007-84.455-120.903c20.32,10.867,140.307,74.995,140.307,74.995
			c11.051,5.908,25.098,2.873,31.99-6.898c2.482-3.523,3.771-7.58,3.771-11.73c0-1.264-0.115-2.529-0.354-3.797
			c-1.209-6.26-5.316-11.678-11.299-14.876c0,0-127.926-68.365-149.893-80.111c24.342,0,176.873,0,176.873,0
			c13.035,0,23.666-9.676,23.701-21.559l0.01-3.639H572.957z"/>
	</g>
	<path fill="#F6921E" stroke="#693300" d="M264.296,21.626c0,0,0,138.255,0,155.911c-9.591-13.733-93.654-134.063-93.654-134.063
		c-6.846-9.805-20.889-12.883-31.967-7.012c-5.999,3.177-10.137,8.589-11.362,14.856c-0.252,1.284-0.373,2.571-0.373,3.856
		c0,4.113,1.275,8.146,3.722,11.652c0,0,70.557,101.012,84.45,120.901c-20.313-10.857-140.303-74.986-140.303-74.986
		c-11.054-5.903-25.107-2.872-31.995,6.905c-2.478,3.523-3.769,7.579-3.769,11.723c0,1.262,0.118,2.535,0.361,3.798
		c1.202,6.259,5.32,11.681,11.299,14.868c0,0,127.921,68.37,149.882,80.108c-24.335,0-176.871,0-176.871,0
		c-13.072,0-23.709,9.702-23.709,21.625v3.623l3.035,0.051H575.99l0.01-3.674c0-11.922-10.635-21.625-23.711-21.625
		c0,0-151.699,0-176.193,0c22.135-11.728,149.674-79.289,149.674-79.289c5.994-3.173,10.141-8.589,11.359-14.854
		c0.254-1.284,0.379-2.579,0.379-3.862c0-4.109-1.268-8.143-3.719-11.647c-6.848-9.813-20.883-12.892-31.969-7.018
		c0,0-120.23,63.69-140.627,74.487c14-19.859,84.99-120.577,84.99-120.577c2.48-3.526,3.771-7.588,3.771-11.729
		c0-1.262-0.119-2.533-0.369-3.799c-1.195-6.264-5.316-11.687-11.289-14.88c-11.047-5.908-25.102-2.883-31.992,6.893
		c0,0-85,120.62-94.598,134.223c0-17.554,0-156.464,0-156.464C311.707,9.702,301.077,0,288.003,0
		C274.934,0,264.296,9.702,264.296,21.626z M270.362,187.529V21.626c0-7.795,8.08-14.381,17.642-14.381
		c9.563,0,17.639,6.586,17.639,14.381V197.94L410.939,48.538c5.07-7.188,16.465-9.456,24.873-4.949
		c4.23,2.258,7.096,5.859,7.865,9.884c0.615,3.193-0.131,6.368-2.133,9.247l-93.451,132.584l3.555,5.646l152.631-80.853
		c8.445-4.479,19.822-2.173,24.855,5.035c1.99,2.855,2.711,6.041,2.096,9.225c-0.795,4.031-3.674,7.629-7.918,9.876l-162.764,86.223
		l1.225,6.934h190.516c8.02,0,14.693,4.714,16.734,10.809c-7.707,0-554.321,0-562.038,0c2.044-6.095,8.711-10.809,16.732-10.809
		H214.79l1.238-6.931L53.181,143.422c-4.225-2.253-7.091-5.855-7.865-9.875c-0.139-0.725-0.208-1.455-0.208-2.178
		c0-2.45,0.793-4.857,2.346-7.063c5.063-7.182,16.454-9.453,24.878-4.951l152.268,81.376l3.566-5.627L135.318,62.184
		c-1.993-2.854-2.719-6.04-2.097-9.221c0.786-4.032,3.669-7.632,7.912-9.878c8.444-4.475,19.829-2.168,24.857,5.029l104.372,149.408
		V187.529z"/>
	<g>
		<path fill="#F6921E" stroke="#693300" d="M81.796,293.536c-0.325-5.86-0.647-12.951-0.647-20.042h-0.214
			c-2.37,6.222-5.385,13.168-8.186,18.885l-8.831,19.027H51.102l-7.754-18.811c-2.37-5.789-4.739-12.734-6.57-19.102h-0.214
			c-0.323,6.584-0.754,14.109-1.185,20.186l-1.4,18.521H18.792l4.631-48.763h21.863l7.107,16.278
			c2.369,5.644,4.524,11.722,6.139,17.438h0.43c1.939-5.644,4.416-12.083,6.893-17.509l7.647-16.206h21.54l3.877,48.763H82.98
			L81.796,293.536z"/>
		<path fill="#F6921E" stroke="#693300" d="M177.974,287.314c0,16.062-14.322,25.685-35.646,25.685
			c-21.432,0-34.14-10.925-34.14-24.889c0-14.615,14-25.54,35.323-25.54C165.805,262.57,177.974,273.784,177.974,287.314z
			 M125.526,287.892c0,9.625,6.678,16.351,17.662,16.351c11.093,0,17.448-7.089,17.448-16.567c0-8.826-6.139-16.351-17.448-16.351
			C131.989,271.325,125.526,278.415,125.526,287.892z"/>
		<path fill="#F6921E" stroke="#693300" d="M188.752,264.162c6.031-0.651,13.892-1.085,22.077-1.085
			c13.894,0,22.94,1.736,29.833,5.208c7.539,3.763,12.277,9.768,12.277,18.377c0,9.333-5.062,15.773-11.954,19.752
			c-7.646,4.268-19.386,6.293-33.601,6.293c-8.509,0-14.647-0.361-18.631-0.723V264.162z M205.121,303.882
			c1.401,0.217,3.77,0.217,5.708,0.217c14.97,0.072,24.771-5.426,24.771-17.074c0-10.129-8.83-15.483-23.047-15.483
			c-3.554,0-6.031,0.217-7.432,0.434V303.882z"/>
		<path fill="#F6921E" stroke="#693300" d="M278.9,299.685l-5.169,12.518h-16.909l22.078-48.763h21.54l22.615,48.763h-17.77
			l-5.599-12.518H278.9z M297.316,291.438l-4.523-10.347c-1.293-2.894-2.584-6.511-3.662-9.404h-0.214
			c-1.078,2.894-2.155,6.583-3.34,9.404l-4.307,10.347H297.316z"/>
		<path fill="#F6921E" stroke="#693300" d="M351.926,312.202v-6.656l8.939-5.426c15.4-9.262,22.83-14.542,22.939-20.042
			c0-3.834-3.338-6.873-11.416-6.873c-6.031,0-11.309,2.026-14.969,3.835l-4.633-7.814c5.17-2.677,13.463-4.847,22.834-4.847
			c15.938,0,24.553,6.222,24.553,14.687c0,7.959-8.4,14.253-18.631,20.33l-6.461,3.618v0.146h26.492v9.043H351.926z"/>
		<path fill="#F6921E" stroke="#693300" d="M440.564,312.202v-11.214h-31.018v-7.164l26.385-28.649h20.141v27.566h8.293v8.247
			h-8.293v11.214H440.564z M440.564,292.741v-10.42c0-2.821,0.215-5.715,0.43-8.753h-0.322c-2.262,3.038-4.201,5.788-6.57,8.753
			l-9.262,10.275l-0.107,0.145H440.564z"/>
		<path fill="#F6921E" stroke="#693300" d="M468.57,315.024l23.047-52.454h10.877l-23.047,52.454H468.57z"/>
		<path fill="#F6921E" stroke="#693300" d="M557.207,265.175v6.946l-28.863,40.082h-17.34l28.865-37.839v-0.145h-32.094v-9.043
			H557.207z"/>
	</g>
</g>
<g>
	<path fill="#231F20" d="M60.507,542.834c-0.283-7.668-0.568-16.945-0.568-26.223H59.75c-2.082,8.141-4.732,17.229-7.194,24.709
		l-7.762,24.895H33.53l-6.815-24.613c-2.083-7.572-4.166-16.66-5.775-24.99H20.75c-0.284,8.615-0.663,18.459-1.042,26.41
		l-1.23,24.234H5.132l4.07-63.801h19.216l6.248,21.297c2.082,7.385,3.976,15.336,5.396,22.814h0.379
		c1.703-7.385,3.88-15.809,6.058-22.906l6.721-21.205h18.933l3.408,63.801h-14.01L60.507,542.834z"/>
	<path fill="#231F20" d="M145.032,534.691c0,21.014-12.59,33.605-31.333,33.605c-18.837,0-30.008-14.293-30.008-32.564
		c0-19.121,12.306-33.414,31.049-33.414C134.336,502.318,145.032,516.99,145.032,534.691z M98.933,535.449
		c0,12.59,5.869,21.393,15.524,21.393c9.75,0,15.335-9.275,15.335-21.676c0-11.549-5.396-21.393-15.335-21.393
		C104.612,513.773,98.933,523.049,98.933,535.449z"/>
	<path fill="#231F20" d="M154.492,504.4c5.3-0.852,12.21-1.42,19.405-1.42c12.211,0,20.163,2.271,26.221,6.816
		c6.626,4.922,10.791,12.779,10.791,24.043c0,12.213-4.449,20.637-10.507,25.842c-6.721,5.588-17.039,8.236-29.534,8.236
		c-7.478,0-12.874-0.473-16.376-0.947V504.4z M168.88,556.369c1.231,0.285,3.313,0.285,5.018,0.285
		c13.158,0.094,21.772-7.1,21.772-22.342c0-13.25-7.763-20.258-20.257-20.258c-3.124,0-5.301,0.285-6.532,0.57V556.369z"/>
	<path fill="#231F20" d="M233.718,550.879l-4.544,16.377h-14.862l19.406-63.801h18.931l19.879,63.801H256.91l-4.922-16.377H233.718z
		 M249.905,540.088l-3.976-13.537c-1.136-3.785-2.271-8.52-3.218-12.305h-0.189c-0.947,3.785-1.893,8.615-2.934,12.305
		l-3.787,13.537H249.905z"/>
	<path fill="#231F20" d="M278.77,567.256v-8.709l7.856-7.1c13.537-12.117,20.067-19.027,20.163-26.221
		c0-5.018-2.936-8.994-10.035-8.994c-5.301,0-9.938,2.652-13.157,5.018l-4.071-10.223c4.544-3.502,11.833-6.342,20.068-6.342
		c14.01,0,21.584,8.141,21.584,19.215c0,10.412-7.385,18.648-16.377,26.6l-5.68,4.734v0.189h23.287v11.832H278.77z"/>
	<path fill="#231F20" d="M356.67,567.256v-14.672h-27.262v-9.373l23.193-37.484h17.701v36.064h7.289v10.793h-7.289v14.672H356.67z
		 M356.67,541.791V528.16c0-3.691,0.189-7.477,0.379-11.453h-0.283c-1.988,3.977-3.693,7.574-5.775,11.453l-8.141,13.441
		l-0.096,0.189H356.67z"/>
	<path fill="#231F20" d="M427.852,505.727v9.086l-25.369,52.443h-15.24l25.369-49.508v-0.189h-28.209v-11.832H427.852z"/>
	<path fill="#231F20" d="M437.027,559.588c0-5.205,3.502-8.803,8.52-8.803c4.922,0,8.33,3.5,8.424,8.803
		c0,5.018-3.406,8.709-8.615,8.709C440.529,568.297,437.027,564.605,437.027,559.588z"/>
	<path fill="#231F20" d="M463.15,504.307c4.637-0.758,11.453-1.326,19.217-1.326c9.467,0,16.092,1.42,20.635,5.018
		c3.883,3.029,5.965,7.574,5.965,13.443c0,8.045-5.775,13.629-11.264,15.617v0.285c4.447,1.799,6.908,5.963,8.518,11.832
		c1.988,7.287,3.881,15.619,5.113,18.08h-14.768c-0.947-1.895-2.557-7.004-4.355-14.861c-1.797-8.047-4.543-10.129-10.508-10.225
		h-4.26v25.086H463.15V504.307z M477.443,531.758h5.68c7.195,0,11.455-3.598,11.455-9.182c0-5.773-3.977-8.803-10.602-8.803
		c-3.504,0-5.492,0.189-6.533,0.473V531.758z"/>
	<path fill="#231F20" d="M533.193,503.455v36.633c0,11.076,4.262,16.66,11.551,16.66c7.572,0,11.736-5.301,11.736-16.66v-36.633
		h14.389v35.781c0,19.688-9.939,29.061-26.6,29.061c-16.092,0-25.465-8.994-25.465-29.25v-35.592H533.193z"/>
</g>
</svg>
