<?xml version="1.0" encoding="UTF-8"?>
<!DOCTYPE svg PUBLIC "-//W3C//DTD SVG 1.1//EN" "http://www.w3.org/Graphics/SVG/1.1/DTD/svg11.dtd">
<!-- Creator: CorelDRAW -->
<svg xmlns="http://www.w3.org/2000/svg" xml:space="preserve" width="76.1998mm" height="26.5006mm" version="1.1" style="shape-rendering:geometricPrecision; text-rendering:geometricPrecision; image-rendering:optimizeQuality; fill-rule:evenodd; clip-rule:evenodd"
viewBox="0 0 7619.98 2650.06"
 xmlns:xlink="http://www.w3.org/1999/xlink"
 xmlns:xodm="http://www.corel.com/coreldraw/odm/2003">
 <defs>
  <style type="text/css">
   <![CDATA[
    .fil0 {fill:black;fill-rule:nonzero}
    .fil1 {fill:#C82172;fill-rule:nonzero}
   ]]>
  </style>
 </defs>
 <g id="Слой_x0020_1">
  <metadata id="CorelCorpID_0Corel-Layer"/>
  <g id="_2034349726304">
   <path class="fil0" d="M1854 390.52l1042.62 0 0 -378.4 -1461.85 0 0 1905.58 882.01 0c441,0 710.51,-215.06 710.51,-604.34 0,-356.61 -239.56,-590.73 -669.68,-590.73l-503.61 0 0 -332.11zm460.06 680.56c198.72,0 294,78.95 294,225.95 0,166.05 -95.28,242.28 -291.28,242.28l-462.78 0 0 -468.23 460.06 0z"/>
   <path class="fil0" d="M4020.98 1917.69c264.06,0 460.07,-101.22 596.19,-266.37l-236.85 -205.1c-114.33,103.88 -215.05,146.5 -353.89,146.5 -185.11,0 -315.78,-95.89 -356.61,-279.69l1015.4 0c2.72,-37.29 5.45,-74.58 5.45,-106.55 0,-404.88 -223.24,-775.14 -710.51,-775.14 -424.68,0 -721.4,335.63 -721.4,743.18 0,442.18 323.95,743.17 762.22,743.17zm-356.61 -857.71c32.67,-183.8 144.29,-303.66 315.79,-303.66 174.22,0 283.1,122.53 307.61,303.66l-623.4 0z"/>
   <polygon class="fil0" points="6138.97,458.57 4854.06,458.57 4854.06,812.47 5286.9,812.47 5286.9,1917.7 5706.13,1917.7 5706.13,812.47 6138.97,812.47 "/>
   <path class="fil0" d="M6778.77 1917.71c-143.36,0 -262.71,-39.21 -357.98,-117.62 -95.28,-78.4 -142.93,-187.11 -142.93,-326.11 0,-151.47 53.1,-265.52 159.27,-342.15 106.18,-76.63 249.09,-114.93 428.77,-114.93 121.6,0 240.47,19.6 356.63,58.8l0 -24.06c0,-174.64 -104.36,-261.95 -313.08,-261.95 -125.22,0 -259.54,25.83 -402.9,77.51l-103.45 -310.07c177.86,-76.63 366.61,-114.93 566.25,-114.93 219.6,0 383.86,53.46 492.74,160.37 105.27,103.35 157.9,255.74 157.9,457.09l0 858.04 -400.19 0 0 -181.77c-110.71,121.19 -257.72,181.78 -441.03,181.78zm125.24 -280.67c96.19,0 174.22,-23.61 234.12,-70.84 59.9,-47.22 89.84,-107.36 89.84,-180.43l0 -72.17c-78.04,-35.64 -166.07,-53.46 -264.06,-53.46 -90.76,0 -161.08,17.37 -210.99,52.12 -49.93,34.76 -74.87,85.1 -74.87,151.04 0,53.45 20.86,95.78 62.62,126.96 41.75,31.19 96.19,46.78 163.34,46.78z"/>
   <path class="fil0" d="M1432.94 2563.44l46.99 0 48.15 -107.32 221.03 0 47.57 107.32 49.31 0 -185.06 -408.98 -42.93 0 -185.06 408.98zm113.13 -148.51l92.82 -207.1 92.24 207.1 -185.06 0zm379.97 148.51l45.83 0 0 -364.32 213.49 0 0 -41.76 -259.32 0 0 406.08zm341.69 0l296.44 0 0 -41.77 -250.61 0 0 -142.13 221.61 0 0 -41.77 -221.61 0 0 -138.65 247.71 0 0 -41.76 -293.54 0 0 406.08zm388.68 0l45.83 0 0 -182.74 234.37 0 0 182.74 45.83 0 0 -406.08 -45.83 0 0 180.41 -234.37 0 0 -180.41 -45.83 0 0 406.08zm548.21 0l46.41 0 0 -364.32 136.33 0 0 -41.76 -319.06 0 0 41.76 136.32 0 0 364.32zm454.24 6.96c73.68,0 120.09,-26.1 162.43,-69.03l-30.16 -31.91c-38.87,37.13 -75.42,58.59 -131.11,58.59 -89.34,0 -157.21,-73.67 -157.21,-167.65 0,-94.56 67.29,-167.66 157.21,-167.66 55.11,0 93.4,23.21 127.63,55.69l30.16 -32.48c-40.61,-38.29 -83.53,-65.56 -157.21,-65.56 -119.5,0 -205.36,95.14 -205.36,210.01 0,117.76 86.44,210 203.62,210zm349.81 -6.96l46.41 0 0 -364.32 136.33 0 0 -41.76 -319.06 0 0 41.76 136.32 0 0 364.32zm268.6 0l180.42 0c88.76,0 147.35,-41.19 147.35,-110.8 0,-56.85 -38.87,-84.7 -87.02,-99.2 31.91,-13.93 64.4,-41.19 64.4,-93.98 0,-27.27 -9.29,-48.73 -26.11,-66.14 -22.63,-23.2 -59.75,-35.96 -106.16,-35.96l-172.88 0 0 406.08zm45.25 -41.19l0 -143.29 128.21 0c70.77,0 107.9,25.53 107.9,69.62 0,46.41 -38.29,73.67 -99.78,73.67l-136.33 0zm0 -183.9l0 -139.81 123.57 0c58.01,0 89.92,26.11 89.92,66.14 0,48.73 -38.29,73.67 -93.4,73.67l-120.09 0zm562.14 232.05c123.57,0 207.68,-98.04 207.68,-210 0,-113.13 -82.95,-210.01 -206.52,-210.01 -123.56,0 -207.68,98.04 -207.68,210.01 0,113.12 82.96,210 206.52,210zm1.16 -42.35c-92.82,0 -160.11,-75.41 -160.11,-167.65 0,-93.4 66.13,-167.66 158.95,-167.66 92.82,0 160.11,75.42 160.11,167.66 0,93.4 -66.13,167.65 -158.95,167.65zm425.81 125.89l38.87 0 8.12 -90.5 329.51 0 0 90.5 38.29 0 6.96 -132.27 -52.79 0 0 -364.31 -265.7 0 0 70.77c0,131.69 -22.62,231.47 -61.49,293.54l-41.77 0 0 132.27zm93.4 -132.27c33.65,-55.69 53.95,-164.75 53.95,-269.75l0 -52.8 175.78 0 0 322.55 -229.73 0zm388.1 46.41c62.65,0 120.67,-40.03 120.67,-324.87l0 -44.09 172.87 0 0 364.32 45.83 0 0 -406.08 -262.79 0 0 73.67c0,276.72 -52.79,295.86 -84.12,295.86 -12.76,0 -29.59,-2.9 -35.97,-5.8l-9.28 37.13c10.44,4.06 34.81,9.86 52.79,9.86zm421.17 -4.64l55.69 0 120.66 -155.47 116.61 0 0 155.47 45.83 0 0 -406.08 -173.46 0c-52.21,0 -93.4,16.24 -118.35,41.18 -20.3,19.73 -30.74,49.89 -30.74,81.22 0,67.88 45.83,109.06 110.8,120.67l-127.04 163.01zm168.23 -194.34c-62.07,0 -106.16,-33.07 -106.16,-85.86 0,-51.63 39.45,-84.7 106.16,-84.7l124.73 0 0 170.56 -124.73 0zm459.46 194.34l45.83 0 0 -182.74 234.37 0 0 182.74 45.83 0 0 -406.08 -45.83 0 0 180.41 -234.37 0 0 -180.41 -45.83 0 0 406.08zm440.89 0l45.83 0 0 -157.79 116.03 0 117.76 157.79 56.27 0 -124.72 -165.91c63.81,-11.61 110.22,-51.05 110.22,-118.35 0,-33.07 -11.6,-61.49 -31.33,-81.22 -25.52,-25.52 -65.55,-40.6 -115.44,-40.6l-174.62 0 0 406.08zm45.83 -198.98l0 -164.76 125.31 0c65.55,0 103.84,30.17 103.84,80.06 0,53.37 -43.51,84.7 -104.42,84.7l-124.73 0z"/>
   <path class="fil1" d="M504.3 303.23c-9.26,-8.19 -28.57,-21.13 -64.33,-30.04l3.46 126.79c47.29,-10.46 81.39,-26.81 81.39,-56.6 0,-14.42 -7.09,-28.3 -20.52,-40.15zm-52.71 397.15c45.69,2.24 85.87,-6.58 117.56,-26.67 33.62,-21.32 48.67,-50.05 48.67,-69.08 0,-9.23 0,-37.39 -52.2,-63.91 -29.32,-14.87 -70.08,-26.49 -119.3,-34.22l5.27 193.88zm26.65 -695.79c-264.14,0 -478.25,214.1 -478.25,478.26 0,207.61 132.31,384.33 317.21,450.42l-2.27 -181.28c-19.58,-8.56 -38.92,-18.21 -57.93,-28.96 -0.14,-0.1 -0.27,-0.18 -0.42,-0.27 -0.6,-0.36 -1.17,-0.73 -1.73,-1.11 -0.5,-0.31 -0.98,-0.63 -1.45,-0.95 -0.55,-0.42 -1.08,-0.83 -1.6,-1.25 -0.45,-0.38 -0.91,-0.73 -1.32,-1.12 -0.48,-0.42 -0.95,-0.89 -1.39,-1.32 -0.42,-0.41 -0.86,-0.84 -1.27,-1.3 -0.41,-0.42 -0.78,-0.91 -1.15,-1.34 -0.41,-0.49 -0.83,-0.97 -1.19,-1.47 -0.35,-0.46 -0.65,-0.95 -0.97,-1.41 -0.37,-0.53 -0.75,-1.05 -1.08,-1.61 -0.29,-0.49 -0.56,-0.98 -0.83,-1.46 -0.31,-0.59 -0.61,-1.13 -0.9,-1.71 -0.24,-0.51 -0.46,-1.03 -0.69,-1.58 -0.24,-0.58 -0.5,-1.14 -0.7,-1.72 -0.22,-0.56 -0.41,-1.14 -0.56,-1.72 -0.18,-0.57 -0.39,-1.11 -0.54,-1.69 -0.16,-0.61 -0.27,-1.22 -0.4,-1.85 -0.11,-0.56 -0.25,-1.1 -0.36,-1.65 -0.1,-0.64 -0.18,-1.28 -0.24,-1.94 -0.08,-0.54 -0.14,-1.1 -0.17,-1.64 -0.05,-0.65 -0.06,-1.31 -0.06,-1.95 -0.01,-0.56 -0.04,-1.12 -0.01,-1.7 0.01,-0.62 0.05,-1.25 0.13,-1.88 0.03,-0.59 0.06,-1.19 0.15,-1.78 0.08,-0.6 0.19,-1.19 0.29,-1.76 0.09,-0.66 0.21,-1.27 0.36,-1.92 0.12,-0.54 0.28,-1.08 0.44,-1.64 0.16,-0.67 0.37,-1.33 0.59,-1.97 0.17,-0.53 0.39,-1.05 0.58,-1.59 0.26,-0.64 0.51,-1.28 0.82,-1.93 0.07,-0.17 0.12,-0.31 0.2,-0.48 0.19,-0.4 0.43,-0.81 0.66,-1.22 0.19,-0.4 0.37,-0.84 0.6,-1.24 0.08,-0.16 0.18,-0.29 0.27,-0.44 0.36,-0.6 0.76,-1.18 1.13,-1.77 0.32,-0.47 0.61,-0.94 0.94,-1.39 0.41,-0.56 0.85,-1.09 1.27,-1.65 0.37,-0.42 0.72,-0.86 1.09,-1.28 0.43,-0.49 0.89,-0.95 1.36,-1.41 0.41,-0.42 0.83,-0.83 1.26,-1.25 0.44,-0.39 0.91,-0.8 1.37,-1.17 0.49,-0.41 0.96,-0.81 1.46,-1.16 0.46,-0.36 0.93,-0.67 1.39,-1 0.54,-0.35 1.06,-0.73 1.62,-1.05 0.48,-0.29 0.97,-0.56 1.47,-0.83 0.56,-0.32 1.13,-0.62 1.7,-0.91 0.51,-0.25 1.03,-0.46 1.58,-0.69 0.56,-0.24 1.12,-0.49 1.71,-0.72 0.57,-0.2 1.14,-0.37 1.73,-0.55 0.55,-0.18 1.1,-0.38 1.69,-0.52 0.61,-0.17 1.24,-0.3 1.85,-0.44 0.56,-0.1 1.1,-0.23 1.64,-0.32 0.67,-0.1 1.31,-0.19 1.97,-0.26 0.54,-0.06 1.09,-0.14 1.61,-0.17 0.66,-0.05 1.32,-0.05 1.97,-0.05 0.57,0 1.11,-0.03 1.67,-0.02 0.65,0.02 1.29,0.07 1.92,0.12 0.59,0.05 1.18,0.07 1.76,0.16 0.59,0.1 1.19,0.2 1.78,0.3 0.63,0.11 1.26,0.22 1.89,0.36 0.56,0.11 1.09,0.3 1.65,0.44 0.67,0.17 1.33,0.36 1.97,0.61 0.54,0.15 1.06,0.37 1.57,0.57 0.65,0.25 1.32,0.51 1.97,0.82 0.14,0.06 0.3,0.09 0.45,0.17 7.5,3.54 14.96,6.83 22.36,9.95l-5.05 -401.64c-14.61,0.93 -30.22,2.37 -46.91,4.45 -20.57,2.54 -39.33,-12.05 -41.89,-32.65 -2.54,-20.59 12.07,-39.34 32.66,-41.88 3.55,-0.45 7.03,-0.85 10.5,-1.25 15.31,-1.76 30.21,-3.17 44.69,-4.23l-0.3 -24.17c-0.45,-35.73 28.17,-65.08 63.9,-65.52l0.83 0c35.36,0 64.26,28.45 64.69,63.9l0.73 26.66c67.39,7.18 119.29,25.92 153.34,56.04 29.25,25.82 44.69,59.49 44.69,97.36 0,23.84 -7.04,56.86 -38.3,85.78 61.3,12.83 123.44,35.95 165.03,77.11 29.75,29.43 45.46,65.8 45.46,105.19 0,56.57 -34.22,108.99 -93.88,143.8 -49.39,28.8 -113.66,44.33 -182.7,44.33 -6.65,0 -13.36,-0.16 -20.11,-0.44 -18.9,-0.83 -37.98,-2.76 -57.12,-5.82l4.55 167.34c6.49,0.27 13.01,0.43 19.57,0.43 264.14,0 478.26,-214.11 478.26,-478.25 0,-264.16 -214.12,-478.26 -478.26,-478.26z"/>
  </g>
 </g>
</svg>
