<svg width="281" height="64" viewBox="0 0 281 64" fill="none" xmlns="http://www.w3.org/2000/svg">
<path d="M32.2471 10.0017L64 40.4592H0L32.2471 10.0017Z" fill="#EEF8FF"/>
<path d="M5.64852 53.5458L47.5276 53.5461L58.8612 53.5461L58.8613 49.0715L58.8612 44.5665L32.2507 9.99992L5.64852 44.4845L5.64852 53.5458Z" fill="#A1DAFF"/>
<path d="M5.66211 44.449V53.5545H32.2289V10.022L5.66211 44.449Z" fill="#DAF0FF"/>
<path d="M47.4599 53.5176H17.0449L32.2524 26.9629L47.4599 53.5176Z" fill="#0069C0"/>
<path fill-rule="evenodd" clip-rule="evenodd" d="M47.479 53.5466C47.9755 51.6995 48.2413 49.7496 48.2413 47.7341C48.2413 37.4936 41.3798 28.9484 32.2549 26.9629L47.479 53.5466Z" fill="white"/>
<path fill-rule="evenodd" clip-rule="evenodd" d="M17.0307 53.5467C16.5342 51.6996 16.2684 49.7497 16.2684 47.7342C16.2684 37.4936 23.13 28.9484 32.2549 26.9629L17.0307 53.5467Z" fill="white"/>
<path d="M60.6022 50.0979C59.8875 51.827 58.389 52.6915 56.1067 52.6915C54.9309 52.6915 53.9742 52.2881 53.2364 51.4812C52.614 50.7665 52.3027 50.0518 52.3027 49.3371C52.3027 47.4698 52.7292 44.7148 53.5822 41.0722L54.8617 34.3635L61.8817 33.6719L59.7723 44.5995C59.3804 46.3055 59.1844 47.4582 59.1844 48.0576C59.1844 49.3717 59.657 50.0518 60.6022 50.0979ZM55.4842 29.5567C55.4842 28.6576 55.8531 27.966 56.5908 27.4818C57.3516 26.9977 58.2738 26.7556 59.3573 26.7556C60.4408 26.7556 61.3054 26.9977 61.9509 27.4818C62.6195 27.966 62.9537 28.6576 62.9537 29.5567C62.9537 30.4558 62.5849 31.1359 61.8471 31.597C61.1325 32.0581 60.2334 32.2886 59.1498 32.2886C58.0663 32.2886 57.1787 32.0581 56.4871 31.597C55.8185 31.1359 55.4842 30.4558 55.4842 29.5567Z" fill="#0059A4"/>
<path d="M32.0753 50.9625C31.545 50.3631 31.1531 49.5908 30.8995 48.6455C30.669 47.7003 30.5537 46.4554 30.5537 44.9108C30.5537 43.3661 30.8188 41.8907 31.3491 40.4844C31.8793 39.0781 32.6286 37.8677 33.5969 36.8533C35.5795 34.7324 38.2077 33.6719 41.4814 33.6719C42.6571 33.6719 43.6715 33.8678 44.5245 34.2598L50.4379 33.6719L47.8789 47.1585C47.8097 47.4352 47.7751 47.8271 47.7751 48.3343C47.7751 48.8415 47.925 49.2565 48.2247 49.5792C48.5475 49.902 48.9394 50.0864 49.4005 50.1325C49.1699 50.9164 48.6281 51.5388 47.7751 51.9999C46.9452 52.461 46.0576 52.6915 45.1124 52.6915C44.1672 52.6915 43.3718 52.5071 42.7263 52.1382C42.1038 51.7924 41.7004 51.3198 41.5159 50.7204C41.1471 51.2968 40.5707 51.7694 39.7869 52.1382C39.003 52.5071 38.0809 52.6915 37.0204 52.6915C35.983 52.6915 35.0377 52.5532 34.1847 52.2766C33.3317 51.9999 32.6286 51.5619 32.0753 50.9625ZM39.3719 36.9225C39.1183 37.3375 38.8763 37.9023 38.6457 38.617C38.4152 39.3086 38.1039 40.5996 37.712 42.4901C37.3432 44.3575 37.1587 45.9597 37.1587 47.2969C37.1587 48.634 37.2625 49.4985 37.4699 49.8905C37.6774 50.2824 37.9656 50.4783 38.3345 50.4783C39.0722 50.4783 39.7062 50.1325 40.2364 49.4409C40.7897 48.7262 41.1701 47.7464 41.3776 46.5015L43.2104 36.3692C42.7263 35.9542 42.196 35.7467 41.6197 35.7467C41.0664 35.7467 40.6168 35.839 40.271 36.0234C39.9483 36.2078 39.6486 36.5075 39.3719 36.9225Z" fill="#0059A4"/>
<path fill-rule="evenodd" clip-rule="evenodd" d="M63.1359 48.4915C63.6583 49.3156 63.7474 50.3422 63.3747 51.2439C62.7866 52.6668 61.8115 53.8513 60.4415 54.6417C59.1133 55.4079 57.6111 55.6915 56.1067 55.6915C54.1599 55.6915 52.3748 54.9847 51.0223 53.5055C51.0061 53.4877 50.99 53.4697 50.9742 53.4515C50.2063 52.5698 49.5784 51.4838 49.3735 50.2187C49.3829 50.1902 49.3918 50.1614 49.4003 50.1325C49.3867 50.1311 49.3731 50.1297 49.3596 50.128C49.3225 49.8716 49.3027 49.6079 49.3027 49.3371C49.3027 47.1224 49.7916 44.112 50.647 40.4494L51.9149 33.8014C52.0544 33.0696 52.4546 32.4382 53.0122 32.0014C52.6551 31.2467 52.4842 30.4137 52.4842 29.5567C52.4842 27.6699 53.3429 26.0249 54.9448 24.9737L54.9802 24.9508C56.3117 24.1035 57.8193 23.7556 59.3573 23.7556C60.8618 23.7556 62.4179 24.0906 63.7309 25.0669C65.2421 26.1712 65.9537 27.8035 65.9537 29.5567C65.9537 30.8339 65.5585 32.0064 64.7938 32.9508C64.897 33.3676 64.911 33.8073 64.8273 34.2405L62.7179 45.1681C62.7112 45.2026 62.704 45.237 62.6961 45.2712C62.5074 46.0928 62.3738 46.7469 62.2889 47.2463C62.2677 47.3715 62.2501 47.483 62.2358 47.5817C62.5929 47.8135 62.9014 48.1217 63.1359 48.4915ZM61.8471 31.597C62.204 31.374 62.4745 31.0997 62.6587 30.7742C62.8554 30.4268 62.9537 30.0209 62.9537 29.5567C62.9537 28.6576 62.6195 27.966 61.9509 27.4818C61.3054 26.9977 60.4408 26.7556 59.3573 26.7556C58.2738 26.7556 57.3516 26.9977 56.5908 27.4818C55.8531 27.966 55.4842 28.6576 55.4842 29.5567C55.4842 30.2417 55.6782 30.7995 56.0663 31.2303C56.1876 31.3649 56.3278 31.4872 56.4871 31.597C57.1787 32.0581 58.0663 32.2886 59.1498 32.2886C60.1539 32.2886 60.9996 32.0906 61.6869 31.6947C61.7413 31.6634 61.7947 31.6308 61.8471 31.597ZM61.8817 33.6719L59.7723 44.5995C59.3804 46.3055 59.1844 47.4582 59.1844 48.0576C59.1844 48.8257 59.3459 49.3772 59.6688 49.7121C59.8983 49.9502 60.2095 50.0788 60.6022 50.0979C60.1365 51.2247 59.3379 51.9843 58.2065 52.3768C57.6016 52.5866 56.9017 52.6915 56.1067 52.6915C54.9309 52.6915 53.9742 52.2881 53.2364 51.4812C52.614 50.7665 52.3027 50.0518 52.3027 49.3371C52.3027 47.4697 52.7292 44.7148 53.5822 41.0722L54.8617 34.3635L61.8817 33.6719Z" fill="white"/>
<path fill-rule="evenodd" clip-rule="evenodd" d="M30.8995 48.6456C31.1531 49.5908 31.545 50.3631 32.0753 50.9625C32.6286 51.5619 33.3317 51.9999 34.1847 52.2766C34.7254 52.4519 35.3031 52.5717 35.9179 52.6359C36.2731 52.673 36.6405 52.6916 37.0204 52.6916C37.485 52.6916 37.923 52.6562 38.3345 52.5854C38.5592 52.5467 38.776 52.4975 38.9849 52.4377C39.2666 52.3571 39.5339 52.2573 39.7869 52.1383C40.5707 51.7694 41.1471 51.2968 41.5159 50.7204C41.641 51.1269 41.8668 51.4751 42.1934 51.765C42.3483 51.9025 42.526 52.027 42.7263 52.1383C43.0703 52.3348 43.4568 52.479 43.8858 52.5708C44.262 52.6513 44.6708 52.6916 45.1124 52.6916C45.7494 52.6916 46.3602 52.5868 46.9449 52.3774C47.2278 52.2761 47.5045 52.1503 47.7751 51.9999C48.6281 51.5388 49.1699 50.9164 49.4005 50.1325C49.1404 50.1065 48.9023 50.0365 48.6862 49.9225C48.5192 49.8343 48.3654 49.7199 48.2247 49.5792C47.925 49.2565 47.7751 48.8415 47.7751 48.3343C47.7751 47.8271 47.8097 47.4352 47.8789 47.1586L50.4379 33.6719L44.5245 34.2598C43.7051 33.8833 42.7369 33.6877 41.6197 33.6728C41.5738 33.6722 41.5277 33.6719 41.4814 33.6719C40.6548 33.6719 39.8693 33.7395 39.1251 33.8747C39.1003 33.8792 39.0757 33.8838 39.051 33.8884C38.5929 33.9747 38.1504 34.0869 37.7236 34.2248C36.1285 34.7404 34.753 35.6166 33.5969 36.8534C32.6286 37.8677 31.8793 39.0781 31.3491 40.4844C30.8188 41.8907 30.5537 43.3662 30.5537 44.9108C30.5537 46.4554 30.669 47.7003 30.8995 48.6456ZM31.4159 34.7933C30.1553 36.1172 29.2022 37.6751 28.542 39.426C27.8806 41.18 27.5537 43.0148 27.5537 44.9108C27.5537 46.5725 27.6746 48.0838 27.985 49.3564C27.9904 49.3787 27.9961 49.4008 28.002 49.4229C28.3495 50.7182 28.9295 51.9342 29.8283 52.9502C29.8423 52.9661 29.8565 52.9818 29.8709 52.9973C30.8071 54.0116 31.9666 54.711 33.2592 55.1302C34.4538 55.5177 35.717 55.6916 37.0204 55.6916C38.4255 55.6916 39.8015 55.4469 41.0643 54.8527C41.1305 54.8216 41.1964 54.7896 41.262 54.7567C42.4617 55.4355 43.793 55.6916 45.1124 55.6916C46.5642 55.6916 47.9478 55.3327 49.2173 54.6306C50.6254 53.8653 51.7826 52.6652 52.2786 50.979C52.3708 50.6654 52.4101 50.3428 52.3985 50.0234C52.3382 49.8071 52.3064 49.5908 52.3031 49.3746C52.2187 49.0512 52.08 48.7407 51.889 48.4571C51.6231 48.0621 51.2707 47.7412 50.8649 47.5143L53.3853 34.2311C53.5616 33.302 53.2894 32.3441 52.6509 31.6464C52.0124 30.9488 51.0822 30.5931 50.1411 30.6866L44.9455 31.2031C43.8464 30.8301 42.6767 30.6719 41.4814 30.6719C37.4992 30.6719 34.0398 31.9929 31.4159 34.7933ZM37.3829 49.6801C37.4095 49.7611 37.4386 49.8312 37.4699 49.8905C37.6774 50.2824 37.9656 50.4784 38.3345 50.4784C38.5531 50.4784 38.7625 50.448 38.9629 50.3873C39.3336 50.2749 39.6732 50.0587 39.9816 49.7384C40.0691 49.6476 40.154 49.5485 40.2364 49.4409C40.589 48.9855 40.8714 48.4224 41.0836 47.7516C41.2043 47.3698 41.3024 46.9531 41.3776 46.5015L43.2104 36.3692C42.7263 35.9543 42.196 35.7468 41.6197 35.7468C41.5728 35.7468 41.5267 35.7474 41.4814 35.7488C41.1373 35.7588 40.836 35.8069 40.5775 35.893C40.4676 35.9296 40.3654 35.9731 40.271 36.0234C40.2535 36.0334 40.2361 36.0438 40.2187 36.0545C39.9277 36.2334 39.6557 36.5076 39.4028 36.8769C39.3924 36.8919 39.3822 36.9072 39.3719 36.9225C39.1183 37.3375 38.8763 37.9023 38.6457 38.617C38.4152 39.3086 38.1039 40.5997 37.712 42.4901C37.3432 44.3575 37.1587 45.9597 37.1587 47.2969C37.1587 48.4317 37.2334 49.2261 37.3829 49.6801Z" fill="white"/>
<path d="M276.065 19.0909H280.706V22.6009H276.065V19.0909ZM276.416 29.6989H273.608L273.998 26.4619H280.667V44.9479H276.416V29.6989Z" fill="black"/>
<path d="M258.052 45.338C256.18 45.338 254.62 44.857 253.372 43.895C252.124 42.907 251.5 41.503 251.5 39.683C251.5 37.863 252.111 36.433 253.333 35.393C254.581 34.327 256.44 33.794 258.91 33.794H264.838V32.975C264.838 32.065 264.695 31.363 264.409 30.869C264.149 30.349 263.655 29.972 262.927 29.738C262.199 29.504 261.159 29.387 259.807 29.387C257.623 29.387 255.582 29.712 253.684 30.362V27.203C254.568 26.865 255.608 26.592 256.804 26.384C258 26.176 259.261 26.072 260.587 26.072C263.343 26.072 265.41 26.631 266.788 27.749C268.192 28.867 268.894 30.635 268.894 33.053V44.948H265.267L264.994 43.076C264.214 43.83 263.265 44.402 262.147 44.792C261.029 45.156 259.664 45.338 258.052 45.338ZM259.183 42.296C260.405 42.296 261.497 42.088 262.459 41.672C263.421 41.256 264.214 40.671 264.838 39.917V36.68H258.988C257.74 36.68 256.83 36.914 256.258 37.382C255.712 37.85 255.439 38.591 255.439 39.605C255.439 40.541 255.751 41.23 256.375 41.672C256.999 42.088 257.935 42.296 259.183 42.296Z" fill="black"/>
<path d="M244.53 41.6331H248.118V44.9481H244.53V41.6331Z" fill="black"/>
<path d="M222.763 26.462H226.663L226.858 28.412C227.742 27.71 228.769 27.151 229.939 26.735C231.109 26.293 232.357 26.072 233.683 26.072C236.075 26.072 237.817 26.631 238.909 27.749C240.001 28.867 240.547 30.609 240.547 32.975V44.948H236.335V33.17C236.335 31.74 236.036 30.739 235.438 30.167C234.84 29.595 233.748 29.309 232.162 29.309C231.2 29.309 230.251 29.504 229.315 29.894C228.405 30.284 227.638 30.791 227.014 31.415V44.948H222.763V26.462Z" fill="black"/>
<path d="M211.176 45.338C207.9 45.338 205.391 44.532 203.649 42.92C201.907 41.308 201.036 38.89 201.036 35.666C201.036 32.624 201.803 30.271 203.337 28.607C204.871 26.917 207.146 26.072 210.162 26.072C212.892 26.072 214.985 26.787 216.441 28.217C217.897 29.647 218.625 31.558 218.625 33.95V37.382H205.092C205.3 39.15 205.937 40.385 207.003 41.087C208.069 41.763 209.746 42.101 212.034 42.101C212.97 42.101 213.919 42.01 214.881 41.828C215.869 41.646 216.74 41.412 217.494 41.126V44.246C215.856 44.974 213.75 45.338 211.176 45.338ZM214.881 34.613V33.326C214.881 32 214.517 30.999 213.789 30.323C213.061 29.621 211.891 29.27 210.279 29.27C208.355 29.27 207.003 29.686 206.223 30.518C205.469 31.35 205.092 32.715 205.092 34.613H214.881Z" fill="black"/>
<path d="M176.489 19.832H186.668C190.438 19.832 193.207 20.833 194.975 22.835C196.743 24.837 197.627 28.074 197.627 32.546C197.627 36.836 196.743 39.982 194.975 41.984C193.207 43.96 190.438 44.948 186.668 44.948H176.489V19.832ZM186.005 41.672C187.747 41.672 189.138 41.425 190.178 40.931C191.244 40.411 192.037 39.488 192.557 38.162C193.103 36.836 193.376 34.964 193.376 32.546C193.376 30.102 193.129 28.204 192.635 26.852C192.141 25.5 191.361 24.551 190.295 24.005C189.255 23.433 187.825 23.147 186.005 23.147H180.74V41.672H186.005Z" fill="black"/>
<path d="M162.169 26.462H166.069L166.303 28.607C167.187 28.035 168.24 27.515 169.462 27.047C170.684 26.579 171.893 26.254 173.089 26.072V29.309C171.971 29.517 170.762 29.842 169.462 30.284C168.162 30.7 167.148 31.142 166.42 31.61V44.948H162.169V26.462Z" fill="black"/>
<path d="M150.581 45.338C147.305 45.338 144.796 44.532 143.054 42.92C141.312 41.308 140.441 38.89 140.441 35.666C140.441 32.624 141.208 30.271 142.742 28.607C144.276 26.917 146.551 26.072 149.567 26.072C152.297 26.072 154.39 26.787 155.846 28.217C157.302 29.647 158.03 31.558 158.03 33.95V37.382H144.497C144.705 39.15 145.342 40.385 146.408 41.087C147.474 41.763 149.151 42.101 151.439 42.101C152.375 42.101 153.324 42.01 154.286 41.828C155.274 41.646 156.145 41.412 156.899 41.126V44.246C155.261 44.974 153.155 45.338 150.581 45.338ZM154.286 34.613V33.326C154.286 32 153.922 30.999 153.194 30.323C152.466 29.621 151.296 29.27 149.684 29.27C147.76 29.27 146.408 29.686 145.628 30.518C144.874 31.35 144.497 32.715 144.497 34.613H154.286Z" fill="black"/>
<path d="M134.893 45.338C133.333 45.338 132.176 44.961 131.422 44.207C130.668 43.453 130.291 42.231 130.291 40.541V18.662H134.542V40.151C134.542 40.853 134.659 41.347 134.893 41.633C135.153 41.893 135.556 42.023 136.102 42.023C136.726 42.023 137.324 41.945 137.896 41.789V44.87C137.038 45.182 136.037 45.338 134.893 45.338Z" fill="black"/>
<path d="M123.962 45.338C122.402 45.338 121.245 44.961 120.491 44.207C119.737 43.453 119.36 42.231 119.36 40.541V18.662H123.611V40.151C123.611 40.853 123.728 41.347 123.962 41.633C124.222 41.893 124.625 42.023 125.171 42.023C125.795 42.023 126.393 41.945 126.965 41.789V44.87C126.107 45.182 125.106 45.338 123.962 45.338Z" fill="black"/>
<path d="M107.773 45.338C104.497 45.338 101.988 44.532 100.246 42.92C98.5038 41.308 97.6328 38.89 97.6328 35.666C97.6328 32.624 98.3998 30.271 99.9338 28.607C101.468 26.917 103.743 26.072 106.759 26.072C109.489 26.072 111.582 26.787 113.038 28.217C114.494 29.647 115.222 31.558 115.222 33.95V37.382H101.689C101.897 39.15 102.534 40.385 103.6 41.087C104.666 41.763 106.343 42.101 108.631 42.101C109.567 42.101 110.516 42.01 111.478 41.828C112.466 41.646 113.337 41.412 114.091 41.126V44.246C112.453 44.974 110.347 45.338 107.773 45.338ZM111.478 34.613V33.326C111.478 32 111.114 30.999 110.386 30.323C109.658 29.621 108.488 29.27 106.876 29.27C104.952 29.27 103.6 29.686 102.82 30.518C102.066 31.35 101.689 32.715 101.689 34.613H111.478Z" fill="black"/>
<path d="M84.385 45.338C81.135 45.338 78.522 44.922 76.546 44.09V40.346C78.964 41.282 81.447 41.75 83.995 41.75C86.101 41.75 87.622 41.503 88.558 41.009C89.52 40.515 90.001 39.592 90.001 38.24C90.001 37.382 89.793 36.706 89.377 36.212C88.987 35.692 88.337 35.25 87.427 34.886C86.517 34.522 85.152 34.106 83.332 33.638C80.628 32.936 78.73 32.052 77.638 30.986C76.546 29.894 76 28.399 76 26.501C76 24.265 76.819 22.536 78.457 21.314C80.095 20.066 82.487 19.442 85.633 19.442C87.011 19.442 88.337 19.546 89.611 19.754C90.911 19.936 91.964 20.17 92.77 20.456V24.2C90.794 23.446 88.61 23.069 86.218 23.069C84.242 23.069 82.76 23.329 81.772 23.849C80.784 24.369 80.29 25.253 80.29 26.501C80.29 27.255 80.472 27.866 80.836 28.334C81.2 28.776 81.798 29.179 82.63 29.543C83.488 29.881 84.762 30.258 86.452 30.674C89.39 31.428 91.431 32.403 92.575 33.599C93.719 34.795 94.291 36.342 94.291 38.24C94.291 40.476 93.446 42.218 91.756 43.466C90.092 44.714 87.635 45.338 84.385 45.338Z" fill="black"/>
</svg>
